<?xml version="1.0" encoding="utf-8"?>
<!-- Generator: Adobe Illustrator 25.0.0, SVG Export Plug-In . SVG Version: 6.00 Build 0)  -->
<svg version="1.1" id="Layer_1" xmlns="http://www.w3.org/2000/svg" xmlns:xlink="http://www.w3.org/1999/xlink" x="0px" y="0px"
	 viewBox="0 0 800 250" style="enable-background:new 0 0 800 250;" xml:space="preserve">
<style type="text/css">
	.st0{fill:#222222;}
	.st1{fill:#1C1C1C;}
	.st2{fill:#FFFFFF;}
	.st3{fill:#444444;}
	.st4{opacity:0.8;fill:#FFFFFF;enable-background:new    ;}
	.st5{fill:#3B3B3B;}
	.st6{fill:url(#SVGID_1_);}
	.st7{fill:#D88B2E;}
	.st8{fill:#474757;}
	.st9{clip-path:url(#SVGID_3_);}
	.st10{fill:#FF0303;}
	.st11{fill:#9B9B9B;}
	.st12{fill:#191919;}
	.st13{fill:#D6D6D6;}
	.st14{clip-path:url(#SVGID_5_);}
	.st15{fill:#8E2525;}
	.st16{clip-path:url(#SVGID_7_);}
	.st17{fill:#B22234;}
	.st18{fill:#3C3B6E;}
	.st19{clip-path:url(#SVGID_9_);}
	.st20{fill:#5E5E5E;}
	.st21{fill:#777777;}
	.st22{fill:#32323F;}
	.st23{fill:#DDDDDD;}
	.st24{fill:#BAC0D8;}
	.st25{fill:#ACAFBC;}
	.st26{fill:#FFDA00;}
	.st27{fill:#7F501C;}
	.st28{fill:#FF0000;}
	.st29{opacity:0.47;fill:url(#SVGID_10_);enable-background:new    ;}
</style>
<g id="Layer_1_1_">
	<rect class="st0" width="800" height="250"/>
</g>
<g>
	<g>
		<path class="st1" d="M306,155.5c-6.4,8.9-15.2,16.4-25.9,21.3c-21.5,9.8-45.4,7-63.6-5.3c-8.4,13.6-13.7,29.4-14.8,46.3h-0.2v28
			h203.3v-28h-0.2c-1.4-20.6-8.9-39.5-20.7-54.9c-2.4,1.5-4.9,2.8-7.5,4C352,178,324.4,172.6,306,155.5z"/>
		<path class="st2" d="M303.1,123c-36.6,0-68.7,19.4-86.6,48.5c18.2,12.3,42.2,15.1,63.6,5.3c10.7-4.9,19.5-12.3,25.9-21.3
			c18.4,17.1,46,22.5,70.3,11.4c2.6-1.2,5.1-2.5,7.5-4C365.2,138.6,336,123,303.1,123z"/>
	</g>
	<g>
		<path class="st3" d="M256.1,252.1c-1.9-28-15.1-52.9-35.1-70.1c-4.7,1.8-9.8,2.8-15.2,2.8c-10.6,0-20.2-3.9-27.7-10.3
			c-4.5,5.1-9.9,9.3-16,12.4c-6.2,29-31.9,50.8-62.8,50.8c-15.2,0-29.1-5.3-40.1-14c-3.3,9-5.4,18.5-6.1,28.5H53V250h203.3v2.1
			H256.1z"/>
		<path class="st2" d="M162.2,186.9c6.1-3.1,11.5-7.3,16-12.4c7.4,6.4,17.1,10.3,27.7,10.3c5.4,0,10.5-1,15.2-2.8
			c-17.8-15.4-41-24.7-66.4-24.7c-43.7,0-81,27.6-95.4,66.3c11,8.8,24.9,14,40.1,14C130.3,237.7,156,215.9,162.2,186.9z"/>
	</g>
</g>
<path class="st3" d="M565.5,231.1L565.5,231.1c-2.9,0-5.2-2.3-5.2-5.2V31.3c0-2.9,2.3-5.2,5.2-5.2l0,0c2.9,0,5.2,2.3,5.2,5.2v194.6
	C570.7,228.8,568.4,231.1,565.5,231.1z"/>
<g id="Layer_7">
	<circle class="st4" cx="579.5" cy="72.5" r="3.5"/>
	<circle class="st4" cx="694.5" cy="30.5" r="3.5"/>
	<circle class="st4" cx="464.5" cy="34.5" r="3.5"/>
	<circle class="st4" cx="361.2" cy="65.5" r="3.5"/>
	<circle class="st4" cx="256.3" cy="88.6" r="3.5"/>
	<circle class="st4" cx="130.4" cy="126.5" r="3.5"/>
	<circle class="st4" cx="727.5" cy="125.5" r="3.5"/>
	<circle class="st4" cx="486.5" cy="130.5" r="3.5"/>
	<circle class="st4" cx="201.5" cy="20.5" r="3.5"/>
	<circle class="st4" cx="83.5" cy="34.5" r="3.5"/>
	<circle class="st4" cx="29.5" cy="98.5" r="3.5"/>
</g>
<g id="Layer_5">
	<rect y="220" class="st5" width="800" height="30"/>
	<rect x="15" y="220" class="st2" width="99" height="6"/>
	<rect x="221" y="220" class="st2" width="99" height="6"/>
	<rect x="429" y="220" class="st2" width="99" height="6"/>
	<rect x="635" y="220" class="st2" width="99" height="6"/>
</g>
<g id="Layer_3">
	
		<linearGradient id="SVGID_1_" gradientUnits="userSpaceOnUse" x1="683.1" y1="249.7" x2="729" y2="249.7" gradientTransform="matrix(1 0 0 1 0 -48)">
		<stop  offset="0" style="stop-color:#FCEE21"/>
		<stop  offset="1" style="stop-color:#FCEE21;stop-opacity:0"/>
	</linearGradient>
	<polygon class="st6" points="729,226.6 683.1,208.5 683.1,196.2 729,176.8 	"/>
</g>
<g id="Layer_6">
</g>
<g>
	<g>
		<circle class="st7" cx="596.4" cy="163.8" r="1.6"/>
		
			<rect x="595.6" y="163.3" transform="matrix(0.2872 -0.9579 0.9579 0.2872 266.8669 688.4334)" class="st2" width="0.7" height="3.3"/>
		<polygon class="st8" points="591.5,172.4 583.5,169.9 582.2,174 594.3,177.8 594.3,177.8 594.4,177.8 598.1,165.7 594.1,164.4 		
			"/>
	</g>
	<g id="Layer_2_2_">
		<g id="Premium_1_">
			<g id="premium-drag-red_1_">
				<g>
					<g>
						<defs>
							<path id="SVGID_2_" d="M566.7,166.9c0.5,0,1,0.4,1,1c0,0.5-0.4,1-1,1s-1-0.4-1-1C565.7,167.4,566.1,166.9,566.7,166.9
								L566.7,166.9z"/>
						</defs>
						<clipPath id="SVGID_3_">
							<use xlink:href="#SVGID_2_"  style="overflow:visible;"/>
						</clipPath>
						<g class="st9">
							<polygon class="st10" points="549.9,150.8 548.7,152.4 568.3,166.4 568.3,190.7 570.4,190.7 570.4,165.4 							"/>
						</g>
					</g>
				</g>
				<rect x="640" y="177.5" class="st11" width="25.3" height="11"/>
				<polygon class="st11" points="660.1,179 645.2,179 645.2,171.4 663.8,170.8 				"/>
				<path class="st12" d="M663.8,170.8l-3,6.7C660.8,177.5,659.7,174,663.8,170.8z"/>
				<path class="st13" d="M640,177.5h15.5c0,0-6.4,1.6-15.5,1.4V177.5z"/>
				
					<rect x="660.9" y="177" transform="matrix(0.1893 -0.9819 0.9819 0.1893 359.6248 794.8631)" class="st12" width="0.6" height="5.2"/>
				
					<rect x="660.3" y="178.1" transform="matrix(0.1893 -0.9819 0.9819 0.1893 358.1332 795.17)" class="st12" width="0.6" height="5.2"/>
				<path class="st10" d="M669,212.1l-179.6-13.5c-8.7-0.7-15.2-8.2-14.6-16.9l0,0l0,0c0.7-8.7,8.2-15.2,16.9-14.6l0,0l129.1,9.9
					c8.7,0.7,55.9,12.6,65.1,20.6l0,0C685.3,206.2,677.7,212.7,669,212.1z"/>
				<g>
					<g>
						<defs>
							<path id="SVGID_4_" d="M669,212.1l-179.6-13.5c-8.7-0.7-15.2-8.2-14.6-16.9l0,0l0,0c0.7-8.7,8.2-15.2,16.9-14.6l0,0
								l129.1,9.9c8.7,0.7,55.9,12.6,65.1,20.6l0,0C685.3,206.2,677.7,212.7,669,212.1z"/>
						</defs>
						<clipPath id="SVGID_5_">
							<use xlink:href="#SVGID_4_"  style="overflow:visible;"/>
						</clipPath>
						<g class="st14">
							
								<rect x="612.7" y="132.4" transform="matrix(0.8894 -0.4571 0.4571 0.8894 -13.1899 301.0585)" class="st15" width="5.8" height="90.8"/>
							
								<rect x="602.5" y="135.1" transform="matrix(0.8894 -0.4571 0.4571 0.8894 -15.5582 296.6774)" class="st15" width="5.8" height="90.8"/>
							
								<rect x="591.7" y="138.3" transform="matrix(0.8894 -0.4571 0.4571 0.8894 -18.2165 292.1054)" class="st15" width="5.8" height="90.8"/>
						</g>
					</g>
					<g>
						<defs>
							<path id="SVGID_6_" d="M669,212.1l-179.6-13.5c-8.7-0.7-15.2-8.2-14.6-16.9l0,0l0,0c0.7-8.7,8.2-15.2,16.9-14.6l0,0
								l129.1,9.9c8.7,0.7,55.9,12.6,65.1,20.6l0,0C685.3,206.2,677.7,212.7,669,212.1z"/>
						</defs>
						<clipPath id="SVGID_7_">
							<use xlink:href="#SVGID_6_"  style="overflow:visible;"/>
						</clipPath>
						<g class="st16">
							
								<rect x="560" y="112.2" transform="matrix(0.1334 -0.9911 0.9911 0.1334 330.1578 766.3505)" class="st2" width="86.5" height="164.3"/>
							<g>
								
									<rect id="stripe" x="605.3" y="72.7" transform="matrix(0.1334 -0.9911 0.9911 0.1334 373.9779 737.4277)" class="st17" width="6.7" height="164.3"/>
							</g>
							<g>
								
									<rect id="stripe_1_" x="603.4" y="85.9" transform="matrix(0.1334 -0.9911 0.9911 0.1334 359.2861 747.0197)" class="st17" width="6.7" height="164.3"/>
							</g>
							<g>
								
									<rect id="stripe_2_" x="601.7" y="99" transform="matrix(0.1334 -0.9911 0.9911 0.1334 344.7769 756.6487)" class="st17" width="6.7" height="164.3"/>
							</g>
							<g>
								
									<rect id="stripe_3_" x="599.9" y="112.2" transform="matrix(0.1334 -0.9911 0.9911 0.1334 330.1579 766.3505)" class="st17" width="6.7" height="164.3"/>
							</g>
							<g>
								
									<rect id="stripe_4_" x="598.2" y="125.4" transform="matrix(0.1334 -0.9911 0.9911 0.1334 315.5388 776.0522)" class="st17" width="6.7" height="164.3"/>
							</g>
							<g>
								
									<rect id="stripe_5_" x="596.4" y="138.7" transform="matrix(0.1334 -0.9911 0.9911 0.1334 300.9197 785.754)" class="st17" width="6.7" height="164.3"/>
							</g>
							<g>
								
									<rect id="stripe_6_" x="594.7" y="151.8" transform="matrix(0.1334 -0.9911 0.9911 0.1334 286.4103 795.3831)" class="st17" width="6.7" height="164.3"/>
							</g>
						</g>
					</g>
				</g>
				<path class="st18" d="M486.5,193.1l195,11.4c2.6,0.1,4.5,2.3,4.4,4.9l0,0c-0.1,2.6-2.3,4.5-4.9,4.4l-195-11.4
					c-2.6-0.1-4.5-2.3-4.4-4.9l0,0C481.7,194.9,483.9,192.9,486.5,193.1z"/>
				<g>
					<g>
						<defs>
							<polygon id="SVGID_8_" points="569.7,147.4 512.1,143.9 512.1,176.7 569.8,180.5 560.7,159.1 							"/>
						</defs>
						<clipPath id="SVGID_9_">
							<use xlink:href="#SVGID_8_"  style="overflow:visible;"/>
						</clipPath>
						<g class="st19">
							
								<rect x="542.7" y="103.5" transform="matrix(9.780183e-02 -0.9952 0.9952 9.780183e-02 344.57 748.7461)" class="st2" width="85.1" height="161.6"/>
							<g>
								
									<rect id="stripe_13_" x="585.9" y="64.5" transform="matrix(9.780183e-02 -0.9952 0.9952 9.780183e-02 386.9391 717.4275)" class="st17" width="6.5" height="161.6"/>
							</g>
							<g>
								
									<rect id="stripe_12_" x="584.6" y="77.5" transform="matrix(9.780183e-02 -0.9952 0.9952 9.780183e-02 372.7801 727.8938)" class="st17" width="6.5" height="161.6"/>
							</g>
							<g>
								
									<rect id="stripe_11_" x="583.3" y="90.6" transform="matrix(9.780183e-02 -0.9952 0.9952 9.780183e-02 358.6212 738.3599)" class="st17" width="6.5" height="161.6"/>
							</g>
							<g>
								
									<rect id="stripe_10_" x="582" y="103.6" transform="matrix(9.780183e-02 -0.9952 0.9952 9.780183e-02 344.4621 748.8261)" class="st17" width="6.5" height="161.6"/>
							</g>
							<g>
								
									<rect id="stripe_9_" x="580.8" y="116.6" transform="matrix(9.780183e-02 -0.9952 0.9952 9.780183e-02 330.4911 759.3203)" class="st17" width="6.5" height="161.6"/>
							</g>
							<g>
								
									<rect id="stripe_8_" x="579.5" y="129.6" transform="matrix(9.780183e-02 -0.9952 0.9952 9.780183e-02 316.332 769.7864)" class="st17" width="6.5" height="161.6"/>
							</g>
							<g>
								
									<rect id="stripe_7_" x="578.2" y="142.7" transform="matrix(9.780183e-02 -0.9952 0.9952 9.780183e-02 302.1729 780.2527)" class="st17" width="6.5" height="161.6"/>
							</g>
							
								<rect x="516.1" y="127.7" transform="matrix(9.780183e-02 -0.9952 0.9952 9.780183e-02 327.0189 680.8752)" class="st18" width="45.8" height="64.7"/>
							<g>
								<polygon class="st2" points="513.1,139.4 512.4,141.1 514,140.2 515.4,141.4 515,139.6 516.7,138.6 514.8,138.4 
									514.4,136.6 513.6,138.3 511.7,138.1 								"/>
								<polygon class="st2" points="523.8,140.4 523,142.2 524.7,141.2 526.1,142.5 525.7,140.6 527.3,139.7 525.4,139.5 
									525,137.6 524.3,139.4 522.4,139.2 								"/>
								<polygon class="st2" points="534.5,141.5 533.7,143.2 535.3,142.3 536.8,143.5 536.4,141.7 538,140.7 536.1,140.5 
									535.7,138.7 534.9,140.4 533,140.2 								"/>
								<polygon class="st2" points="545.1,142.5 544.4,144.3 546,143.3 547.4,144.6 547,142.7 548.7,141.8 546.8,141.6 
									546.4,139.7 545.6,141.5 543.7,141.3 								"/>
								<polygon class="st2" points="555.8,143.6 555,145.3 556.7,144.4 558.1,145.6 557.7,143.8 559.3,142.8 557.4,142.6 
									557,140.8 556.3,142.5 554.4,142.3 								"/>
								<polygon class="st2" points="566.5,144.6 565.7,146.4 567.3,145.4 568.8,146.7 568.4,144.8 570,143.9 568.1,143.7 
									567.7,141.8 566.9,143.6 565,143.4 								"/>
								<polygon class="st2" points="518.5,143.4 516.6,143.2 518,144.5 517.2,146.2 518.9,145.3 520.3,146.5 519.9,144.7 
									521.5,143.7 519.7,143.5 519.2,141.7 								"/>
								<polygon class="st2" points="529.2,144.5 527.3,144.3 528.7,145.5 527.9,147.3 529.6,146.3 531,147.6 530.6,145.7 
									532.2,144.8 530.3,144.6 529.9,142.7 								"/>
								<polygon class="st2" points="539.8,145.5 537.9,145.3 539.3,146.6 538.6,148.3 540.2,147.4 541.7,148.6 541.2,146.8 
									542.9,145.8 541,145.6 540.6,143.8 								"/>
								<polygon class="st2" points="550.5,146.6 548.6,146.4 550,147.6 549.3,149.4 550.9,148.4 552.3,149.7 551.9,147.8 
									553.6,146.9 551.7,146.7 551.2,144.8 								"/>
								<polygon class="st2" points="561.2,147.6 559.3,147.4 560.7,148.7 559.9,150.4 561.6,149.5 563,150.7 562.6,148.9 
									564.2,147.9 562.3,147.7 561.9,145.9 								"/>
								<polygon class="st2" points="511.5,150.3 513.1,149.3 514.5,150.6 514.1,148.7 515.8,147.8 513.9,147.6 513.5,145.7 
									512.7,147.5 510.8,147.3 512.2,148.5 								"/>
								<polygon class="st2" points="524.1,146.8 523.4,148.5 521.5,148.3 522.9,149.6 522.1,151.3 523.8,150.4 525.2,151.6 
									524.8,149.8 526.4,148.8 524.5,148.6 								"/>
								<polygon class="st2" points="534.8,147.8 534,149.6 532.1,149.4 533.6,150.6 532.8,152.4 534.4,151.4 535.9,152.7 
									535.5,150.8 537.1,149.9 535.2,149.7 								"/>
								<polygon class="st2" points="545.5,148.9 544.7,150.6 542.8,150.4 544.2,151.7 543.5,153.4 545.1,152.5 546.5,153.7 
									546.1,151.9 547.8,150.9 545.9,150.7 								"/>
								<polygon class="st2" points="556.5,151.8 556.1,149.9 555.4,151.7 553.5,151.5 554.9,152.7 554.1,154.5 555.8,153.5 
									557.2,154.8 556.8,152.9 558.4,152 								"/>
								<polygon class="st2" points="566.8,151 566,152.7 564.1,152.5 565.6,153.8 564.8,155.5 566.4,154.6 567.9,155.8 567.5,154 
									569.1,153 567.2,152.8 								"/>
								<polygon class="st2" points="518.8,152.7 518.3,150.8 517.6,152.6 515.7,152.4 517.1,153.6 516.4,155.4 518,154.4 
									519.4,155.7 519,153.8 520.7,152.9 								"/>
								<polygon class="st2" points="529.4,153.7 529,151.9 528.3,153.6 526.4,153.4 527.8,154.7 527,156.4 528.7,155.5 
									530.1,156.7 529.7,154.9 531.3,153.9 								"/>
								<polygon class="st2" points="540.1,154.8 539.7,152.9 538.9,154.6 537,154.5 538.4,155.7 537.7,157.5 539.3,156.5 
									540.8,157.8 540.3,155.9 542,155 								"/>
								<polygon class="st2" points="550.8,155.8 550.3,154 549.6,155.7 547.7,155.5 549.1,156.8 548.4,158.5 550,157.6 
									551.4,158.8 551,157 552.7,156 								"/>
								<polygon class="st2" points="561.4,156.9 561,155 560.3,156.7 558.4,156.6 559.8,157.8 559,159.6 560.7,158.6 562.1,159.9 
									561.7,158 563.3,157 								"/>
								<polygon class="st2" points="510.6,159.4 512.2,158.5 513.6,159.7 513.2,157.9 514.9,156.9 513,156.7 512.6,154.9 
									511.8,156.6 509.9,156.4 511.3,157.7 								"/>
								<polygon class="st2" points="523.6,157.8 523.2,155.9 522.5,157.6 520.6,157.5 522,158.7 521.2,160.5 522.9,159.5 
									524.3,160.8 523.9,158.9 525.5,158 								"/>
								<polygon class="st2" points="534.3,158.8 533.9,157 533.1,158.7 531.2,158.5 532.7,159.8 531.9,161.5 533.5,160.6 
									535,161.8 534.6,160 536.2,159 								"/>
								<polygon class="st2" points="545,159.9 544.6,158 543.8,159.7 541.9,159.6 543.3,160.8 542.6,162.6 544.2,161.6 
									545.6,162.9 545.2,161 546.9,160 								"/>
								<polygon class="st2" points="555.6,160.9 555.2,159 554.5,160.8 552.6,160.6 554,161.9 553.2,163.6 554.9,162.7 
									556.3,163.9 555.9,162.1 557.5,161.1 								"/>
								<polygon class="st2" points="565.9,160.1 565.1,161.8 563.2,161.7 564.7,162.9 563.9,164.7 565.5,163.7 567,165 
									566.6,163.1 568.2,162.1 566.3,162 								"/>
								<polygon class="st2" points="517.9,161.8 517.4,160 516.7,161.7 514.8,161.5 516.2,162.8 515.5,164.5 517.1,163.6 
									518.5,164.8 518.1,163 519.8,162 								"/>
								<polygon class="st2" points="528.5,162.9 528.1,161 527.4,162.7 525.5,162.6 526.9,163.8 526.1,165.6 527.8,164.6 
									529.2,165.9 528.8,164 530.4,163 								"/>
								<polygon class="st2" points="539.2,163.9 538.8,162 538,163.8 536.1,163.6 537.6,164.9 536.8,166.6 538.4,165.7 
									539.9,166.9 539.4,165.1 541.1,164.1 								"/>
								<polygon class="st2" points="549.9,165 549.5,163.1 548.7,164.8 546.8,164.7 548.2,165.9 547.5,167.7 549.1,166.7 
									550.5,168 550.1,166.1 551.8,165.1 								"/>
								<polygon class="st2" points="560.5,166 560.1,164.1 559.4,165.9 557.5,165.7 558.9,167 558.1,168.7 559.8,167.7 561.2,169 
									560.8,167.2 562.4,166.2 								"/>
								<polygon class="st2" points="509.7,168.6 511.3,167.6 512.7,168.9 512.3,167 514,166 512.1,165.9 511.7,164 510.9,165.7 
									509,165.6 510.4,166.8 								"/>
								<polygon class="st2" points="522.7,166.9 522.3,165 521.6,166.8 519.7,166.6 521.1,167.9 520.3,169.6 522,168.7 
									523.4,169.9 523,168.1 524.6,167.1 								"/>
								<polygon class="st2" points="533.4,168 533,166.1 532.2,167.8 530.3,167.7 531.8,168.9 531,170.7 532.6,169.7 534.1,171 
									533.7,169.1 535.3,168.1 								"/>
								<polygon class="st2" points="544.1,169 543.7,167.1 542.9,168.9 541,168.7 542.4,170 541.7,171.7 543.3,170.7 544.7,172 
									544.3,170.2 546,169.2 								"/>
								<polygon class="st2" points="554.7,170.1 554.3,168.2 553.6,169.9 551.7,169.8 553.1,171 552.3,172.8 554,171.8 
									555.4,173.1 555,171.2 556.6,170.2 								"/>
								<polygon class="st2" points="565,169.2 564.2,171 562.3,170.8 563.8,172.1 563,173.8 564.6,172.8 566.1,174.1 565.7,172.3 
									567.3,171.3 565.4,171.1 								"/>
								<polygon class="st2" points="517.2,172.1 518.9,171.1 517,171 516.6,169.1 515.8,170.8 513.9,170.7 515.3,171.9 
									514.6,173.7 516.2,172.7 517.6,174 								"/>
								<polygon class="st2" points="527.9,173.2 529.5,172.2 527.6,172 527.2,170.1 526.5,171.9 524.6,171.7 526,173 525.2,174.7 
									526.9,173.7 528.3,175 								"/>
								<polygon class="st2" points="538.5,174.2 540.2,173.2 538.3,173.1 537.9,171.2 537.1,172.9 535.2,172.8 536.7,174 
									535.9,175.8 537.5,174.8 539,176.1 								"/>
								<polygon class="st2" points="549.2,175.2 550.9,174.3 549,174.1 548.6,172.2 547.8,174 545.9,173.8 547.3,175.1 
									546.6,176.8 548.2,175.8 549.6,177.1 								"/>
								<polygon class="st2" points="559.9,176.3 561.5,175.3 559.6,175.1 559.2,173.3 558.5,175 556.6,174.8 558,176.1 
									557.2,177.9 558.9,176.9 560.3,178.2 								"/>
								<polygon class="st2" points="511.2,175 510.8,173.1 510,174.9 508.1,174.7 509.5,176 508.8,177.7 510.4,176.7 511.8,178 
									511.4,176.2 513.1,175.2 								"/>
								<polygon class="st2" points="521.8,176.1 521.4,174.2 520.7,175.9 518.8,175.8 520.2,177 519.4,178.8 521.1,177.8 
									522.5,179.1 522.1,177.2 523.7,176.2 								"/>
								<polygon class="st2" points="532.5,177.1 532.1,175.2 531.3,177 529.4,176.8 530.9,178.1 530.1,179.8 531.7,178.8 
									533.2,180.1 532.8,178.2 534.4,177.3 								"/>
								<polygon class="st2" points="543.2,178.1 542.8,176.3 542,178 540.1,177.8 541.5,179.1 540.8,180.9 542.4,179.9 
									543.8,181.2 543.4,179.3 545.1,178.3 								"/>
								<polygon class="st2" points="553.8,179.2 553.4,177.3 552.7,179.1 550.8,178.9 552.2,180.2 551.4,181.9 553.1,180.9 
									554.5,182.2 554.1,180.3 555.7,179.4 								"/>
								<polygon class="st2" points="564.5,180.2 564.1,178.4 563.3,180.1 561.4,179.9 562.9,181.2 562.1,183 563.8,182 
									565.2,183.3 564.8,181.4 566.4,180.4 								"/>
							</g>
						</g>
					</g>
				</g>
				
					<rect x="531.6" y="175.4" transform="matrix(0.9362 -0.3515 0.3515 0.9362 -27.8529 199.2953)" class="st20" width="6.7" height="1.9"/>
				
					<rect x="533.4" y="180.2" transform="matrix(0.9362 -0.3515 0.3515 0.9362 -29.4274 200.2322)" class="st20" width="6.7" height="1.9"/>
				
					<rect x="528.6" y="127.4" transform="matrix(0.9362 -0.3515 0.3515 0.9362 -18.642 196.2543)" class="st21" width="5.2" height="44.1"/>
				
					<ellipse transform="matrix(0.9362 -0.3515 0.3515 0.9362 -12.1043 192.3517)" class="st20" cx="523.7" cy="129.5" rx="2.6" ry="2.4"/>
				
					<ellipse transform="matrix(0.9372 -0.3489 0.3489 0.9372 -12.1033 190.8293)" class="st11" cx="523.7" cy="129" rx="2.6" ry="2.4"/>
				
					<ellipse transform="matrix(0.9362 -0.3515 0.3515 0.9362 -11.8684 192.2278)" class="st12" cx="523.5" cy="128.8" rx="2.2" ry="2.1"/>
				
					<rect x="538.1" y="160.7" transform="matrix(0.9362 -0.3515 0.3515 0.9362 -28.4728 202.158)" class="st11" width="8.9" height="37.6"/>
				
					<rect x="517.5" y="131.6" transform="matrix(0.9362 -0.3515 0.3515 0.9362 -20.8223 192.6222)" class="st21" width="5.2" height="44.1"/>
				
					<ellipse transform="matrix(0.9362 -0.3515 0.3515 0.9362 -14.2534 188.7011)" class="st20" cx="512.6" cy="133.6" rx="2.6" ry="2.4"/>
				
					<ellipse transform="matrix(0.9362 -0.3515 0.3515 0.9362 -14.0671 188.5648)" class="st11" cx="512.3" cy="133" rx="2.6" ry="2.4"/>
				
					<ellipse transform="matrix(0.9362 -0.3515 0.3515 0.9362 -14.0671 188.5648)" class="st12" cx="512.3" cy="133" rx="2.2" ry="2.1"/>
				
					<rect x="526.9" y="164.9" transform="matrix(0.9362 -0.3515 0.3515 0.9362 -30.6718 198.4951)" class="st11" width="8.9" height="37.6"/>
				
					<rect x="482.4" y="164.3" transform="matrix(0.9362 -0.3515 0.3515 0.9362 -27.1078 181.2878)" class="st20" width="6.7" height="2"/>
				
					<rect x="484.3" y="169.4" transform="matrix(0.9362 -0.3515 0.3515 0.9362 -28.785 182.2775)" class="st20" width="6.7" height="2"/>
				
					<rect x="478.8" y="113.3" transform="matrix(0.9362 -0.3515 0.3515 0.9362 -17.369 177.9384)" class="st21" width="5.2" height="47"/>
				
					<ellipse transform="matrix(0.9362 -0.3515 0.3515 0.9362 -10.3894 173.7708)" class="st20" cx="473.4" cy="115.5" rx="2.6" ry="2.6"/>
				
					<ellipse transform="matrix(0.9372 -0.3489 0.3489 0.9372 -10.3211 172.3079)" class="st11" cx="473.2" cy="114.8" rx="2.6" ry="2.6"/>
				
					<ellipse transform="matrix(0.9362 -0.3515 0.3515 0.9362 -10.1682 173.6209)" class="st12" cx="473.1" cy="114.8" rx="2.2" ry="2.2"/>
				
					<rect x="489" y="148.8" transform="matrix(0.9362 -0.3515 0.3515 0.9362 -27.8635 184.2185)" class="st11" width="8.9" height="40.1"/>
				
					<rect x="467.7" y="117.5" transform="matrix(0.9362 -0.3515 0.3515 0.9362 -19.5491 174.3058)" class="st21" width="5.2" height="47"/>
				
					<ellipse transform="matrix(0.9362 -0.3515 0.3515 0.9362 -12.5881 170.108)" class="st20" cx="462.2" cy="119.7" rx="2.6" ry="2.6"/>
				
					<ellipse transform="matrix(0.9362 -0.3515 0.3515 0.9362 -12.3487 169.989)" class="st11" cx="462" cy="119" rx="2.6" ry="2.6"/>
				
					<ellipse transform="matrix(0.9362 -0.3515 0.3515 0.9362 -12.3487 169.989)" class="st12" cx="462" cy="119" rx="2.2" ry="2.2"/>
				
					<rect x="477.8" y="153" transform="matrix(0.9362 -0.3515 0.3515 0.9362 -30.0622 180.5553)" class="st11" width="8.9" height="40.1"/>
				
					<rect x="507.4" y="171.9" transform="matrix(0.9372 -0.3489 0.3489 0.9372 -28.2438 189.0623)" class="st20" width="6.7" height="2"/>
				
					<rect x="509.3" y="176.8" transform="matrix(0.9362 -0.3515 0.3515 0.9362 -29.7886 191.5379)" class="st20" width="6.7" height="2"/>
				
					<rect x="503.6" y="120.1" transform="matrix(0.9362 -0.3515 0.3515 0.9362 -18.2845 187.1196)" class="st21" width="5.2" height="47.6"/>
				
					<ellipse transform="matrix(0.9362 -0.3515 0.3515 0.9362 -11.2089 182.8923)" class="st20" cx="498.1" cy="122.3" rx="2.6" ry="2.6"/>
				
					<ellipse transform="matrix(0.9372 -0.3489 0.3489 0.9372 -11.1714 181.4043)" class="st11" cx="498" cy="121.7" rx="2.6" ry="2.6"/>
				
					<ellipse transform="matrix(0.9362 -0.3515 0.3515 0.9362 -10.9687 182.7741)" class="st12" cx="497.9" cy="121.6" rx="2.2" ry="2.2"/>
				
					<rect x="513.9" y="156" transform="matrix(0.9362 -0.3515 0.3515 0.9362 -28.9019 193.4566)" class="st11" width="8.9" height="40.6"/>
				
					<rect x="492.5" y="124.2" transform="matrix(0.9362 -0.3515 0.3515 0.9362 -20.4343 183.4692)" class="st21" width="5.2" height="47.6"/>
				
					<ellipse transform="matrix(0.9362 -0.3515 0.3515 0.9362 -13.3587 179.242)" class="st20" cx="487" cy="126.4" rx="2.6" ry="2.6"/>
				
					<ellipse transform="matrix(0.9362 -0.3515 0.3515 0.9362 -13.1674 179.1109)" class="st11" cx="486.7" cy="125.8" rx="2.6" ry="2.6"/>
				
					<ellipse transform="matrix(0.9362 -0.3515 0.3515 0.9362 -13.1674 179.1109)" class="st12" cx="486.7" cy="125.8" rx="2.2" ry="2.2"/>
				
					<rect x="502.9" y="160.4" transform="matrix(0.9372 -0.3489 0.3489 0.9372 -31.1906 188.3693)" class="st11" width="8.9" height="40.7"/>
				
					<ellipse transform="matrix(4.205197e-02 -0.9991 0.9991 4.205197e-02 289.1878 680.647)" class="st22" cx="499.5" cy="189.5" rx="30.8" ry="31"/>
				
					<ellipse transform="matrix(4.204823e-02 -0.9991 0.9991 4.204823e-02 289.1895 680.6478)" class="st8" cx="499.5" cy="189.5" rx="30" ry="30.2"/>
				
					<ellipse transform="matrix(4.205075e-02 -0.9991 0.9991 4.205075e-02 289.1885 680.6472)" cx="499.5" cy="189.5" rx="22.6" ry="22.7"/>
				
					<ellipse transform="matrix(4.205248e-02 -0.9991 0.9991 4.205248e-02 289.1878 680.6468)" class="st2" cx="499.5" cy="189.5" rx="21.5" ry="21.6"/>
				
					<ellipse transform="matrix(4.205075e-02 -0.9991 0.9991 4.205075e-02 289.1885 680.6472)" class="st23" cx="499.5" cy="189.5" rx="20.4" ry="20.5"/>
				
					<ellipse transform="matrix(4.205083e-02 -0.9991 0.9991 4.205083e-02 289.1884 680.6472)" class="st24" cx="499.5" cy="189.5" rx="12.7" ry="12.7"/>
				
					<ellipse transform="matrix(4.205075e-02 -0.9991 0.9991 4.205075e-02 289.1885 680.6472)" class="st25" cx="499.5" cy="189.5" rx="11.6" ry="11.6"/>
				
					<ellipse transform="matrix(4.205075e-02 -0.9991 0.9991 4.205075e-02 400.3744 821.6634)" class="st22" cx="628.7" cy="202" rx="17.7" ry="17.8"/>
				
					<ellipse transform="matrix(4.205075e-02 -0.9991 0.9991 4.205075e-02 400.3744 821.6634)" class="st8" cx="628.7" cy="202" rx="17.2" ry="17.3"/>
				<ellipse cx="628.7" cy="202" rx="13" ry="13"/>
				
					<ellipse transform="matrix(4.205075e-02 -0.9991 0.9991 4.205075e-02 400.3744 821.6634)" class="st2" cx="628.7" cy="202" rx="12.3" ry="12.4"/>
				
					<ellipse transform="matrix(4.205075e-02 -0.9991 0.9991 4.205075e-02 400.3744 821.6634)" class="st23" cx="628.7" cy="202" rx="11.7" ry="11.8"/>
				
					<ellipse transform="matrix(3.996810e-02 -0.9992 0.9992 3.996810e-02 401.6617 821.5045)" class="st24" cx="628.3" cy="201.7" rx="7.3" ry="7.3"/>
				
					<ellipse transform="matrix(4.205075e-02 -0.9991 0.9991 4.205075e-02 400.3744 821.6634)" class="st25" cx="628.7" cy="202" rx="6.6" ry="6.7"/>
			</g>
		</g>
	</g>
	<g>
		<circle class="st7" cx="577.7" cy="187.3" r="1.6"/>
		
			<rect x="575" y="186.3" transform="matrix(0.5372 -0.8435 0.8435 0.5372 109.4648 572.7822)" class="st2" width="3.3" height="0.7"/>
		<polygon class="st8" points="570.7,180.3 575.3,173.2 571.7,170.9 564.8,181.5 564.8,181.5 564.8,181.5 575.4,188.5 577.8,184.9 
					"/>
	</g>
	<g>
		<g>
			<path class="st7" d="M580.6,174.2h-4.8c-3.7,0-6.7-3-6.7-6.7v-8.3c0-3.7,3-6.7,6.7-6.7h4.8c3.7,0,6.7,3,6.7,6.7v8.3
				C587.3,171.2,584.3,174.2,580.6,174.2z"/>
			<path class="st26" d="M571.7,157.7v8.3c0,0-2.6-0.9-2.6-6.7v8.3c0,0-6.1-5.6-2.8-12.1C566.3,155.5,571.7,150.7,571.7,157.7z"/>
			<path class="st26" d="M566.3,155.5l-1-0.7l1.5-0.9l0.4-1.3l0.7,0.7c0,0,11-7.8,24.5,1.4c0,0-5.6,6.7-23,2.8L566.3,155.5z"/>
			<path class="st27" d="M580,164.3h-3.1c-0.2,0-0.4-0.2-0.4-0.4l0,0c0-0.2,0.2-0.4,0.4-0.4h3.1c0.2,0,0.4,0.2,0.4,0.4l0,0
				C580.5,164.1,580.3,164.3,580,164.3z"/>
			<path class="st27" d="M581.9,163.5c0,0.1,0.1,0.2,0.1,0.3v4.4c0,0.3-0.3,0.6-0.6,0.6c-0.1,0-0.2,0-0.3-0.1
				c0.1,0.2,0.3,0.3,0.5,0.3c0.3,0,0.6-0.3,0.6-0.6V164C582.2,163.8,582.1,163.6,581.9,163.5z"/>
			<path class="st27" d="M586.3,164.3h-3.1c-0.2,0-0.4-0.2-0.4-0.4l0,0c0-0.2,0.2-0.4,0.4-0.4h3.1c0.2,0,0.4,0.2,0.4,0.4l0,0
				C586.7,164.1,586.5,164.3,586.3,164.3z"/>
			
				<rect x="578.4" y="160.1" transform="matrix(0.3695 -0.9292 0.9292 0.3695 213.8556 640.3712)" class="st26" width="0.8" height="4.9"/>
			
				<rect x="581.9" y="162.2" transform="matrix(0.9183 -0.3958 0.3958 0.9183 -16.6318 244.5615)" class="st26" width="4.9" height="0.8"/>
		</g>
		<path class="st27" d="M581.7,173.2L581.7,173.2c-0.5,0-0.7-0.3-0.7-0.6v-1.9c0-0.4,0.3-0.6,0.6-0.6h0.1c0.4,0,0.6,0.3,0.6,0.6v1.9
			C582.3,172.9,582,173.2,581.7,173.2z"/>
	</g>
</g>
<g>
	<path class="st5" d="M367.7,159L367.7,159c-0.9-0.4-1.4-1.4-1-2.4l21.7-54.6c0.4-0.9,1.4-1.4,2.4-1l0,0c0.9,0.4,1.4,1.4,1,2.4
		L370,158C369.7,158.9,368.6,159.4,367.7,159z"/>
	<g>
		<path class="st2" d="M391,103.2c15.4,5.4,30.8,18.9,46.2,20c-3.2,9.1-6.4,17.7-9.7,26c-15.4-5.4-30.8-18.9-46.2-20
			C384.6,120,387.8,111.4,391,103.2z"/>
		<g>
			<g>
				<path id="stripe_27_" class="st17" d="M391,103.2c15.4,5.4,30.8,18.9,46.2,20c-0.2,0.7-0.5,1.4-0.7,2.1
					c-15.4-1.6-30.8-15.1-46.2-20.2C390.5,104.5,390.7,103.8,391,103.2z"/>
			</g>
			<g>
				<path id="stripe_26_" class="st17" d="M389.5,107c15.4,4.9,30.8,18.4,46.2,20.4c-0.2,0.7-0.5,1.4-0.7,2.1
					c-15.4-2.3-30.8-15.9-46.2-20.5C389,108.3,389.3,107.7,389.5,107z"/>
			</g>
			<g>
				<path id="stripe_25_" class="st17" d="M388,110.9c15.4,4.3,30.8,17.9,46.2,20.6c-0.2,0.7-0.5,1.4-0.7,2
					c-15.4-3-30.8-16.7-46.2-20.7C387.5,112.2,387.8,111.6,388,110.9z"/>
			</g>
			<g>
				<path id="stripe_24_" class="st17" d="M386.5,114.8c15.4,3.7,30.8,17.3,46.2,20.7c-0.2,0.7-0.5,1.3-0.7,2
					c-15.4-3.7-30.8-17.3-46.2-20.7C386,116.2,386.3,115.5,386.5,114.8z"/>
			</g>
			<g>
				<path id="stripe_23_" class="st17" d="M385,118.9c15.4,3,30.8,16.7,46.2,20.7c-0.2,0.7-0.5,1.3-0.7,2
					c-15.4-4.3-30.8-17.9-46.2-20.6C384.6,120.2,384.8,119.5,385,118.9z"/>
			</g>
			<g>
				<path id="stripe_22_" class="st17" d="M383.6,122.9c15.4,2.3,30.8,15.9,46.2,20.5c-0.2,0.6-0.5,1.3-0.7,1.9
					c-15.4-4.9-30.8-18.4-46.2-20.4C383.1,124.3,383.3,123.6,383.6,122.9z"/>
			</g>
			<g>
				<path id="stripe_21_" class="st17" d="M382.1,127.1c15.4,1.6,30.8,15.1,46.2,20.2c-0.2,0.6-0.5,1.3-0.7,1.9
					c-15.4-5.4-30.8-18.9-46.2-20C381.6,128.5,381.8,127.8,382.1,127.1z"/>
			</g>
			<path class="st18" d="M391,103.2c6.2,2.2,12.3,5.6,18.5,9.1c-1.7,4.1-3.5,8.2-5.2,12.3c-6.2-3.3-12.3-6.3-18.5-7.7
				C387.5,112.2,389.3,107.6,391,103.2z"/>
			<g>
				<path class="st2" d="M391.9,105.4c0.1,0.2,0.2,0.3,0.3,0.5c0-0.2,0-0.4,0-0.6c0.2-0.1,0.4-0.1,0.6-0.2c-0.2-0.1-0.4-0.1-0.5-0.2
					c0-0.2,0-0.4,0-0.6c-0.1,0.2-0.2,0.3-0.4,0.5c-0.2-0.1-0.4-0.1-0.5-0.2c0.1,0.2,0.2,0.3,0.3,0.5c-0.1,0.2-0.2,0.3-0.4,0.5
					C391.6,105.5,391.8,105.4,391.9,105.4z"/>
				<path class="st2" d="M395,106.6c0.1,0.2,0.2,0.3,0.3,0.5c0-0.2,0-0.4,0-0.6c0.2,0,0.4-0.1,0.6-0.1c-0.2-0.1-0.4-0.2-0.5-0.2
					c0-0.2,0-0.4,0-0.6c-0.1,0.1-0.2,0.3-0.4,0.4c-0.2-0.1-0.4-0.2-0.5-0.2c0.1,0.2,0.2,0.3,0.3,0.5c-0.1,0.1-0.2,0.3-0.4,0.4
					C394.6,106.7,394.8,106.6,395,106.6z"/>
				<path class="st2" d="M398.1,108c0.1,0.2,0.2,0.3,0.3,0.5c0-0.2,0-0.4,0-0.6c0.2,0,0.4-0.1,0.6-0.1c-0.2-0.1-0.4-0.2-0.5-0.3
					c0-0.2,0-0.4,0-0.6c-0.1,0.1-0.2,0.3-0.4,0.4c-0.2-0.1-0.4-0.2-0.5-0.3c0.1,0.2,0.2,0.3,0.3,0.5c-0.1,0.1-0.2,0.3-0.4,0.4
					C397.7,108.1,397.9,108,398.1,108z"/>
				<path class="st2" d="M401.1,109.5c0.1,0.2,0.2,0.4,0.3,0.5c0-0.2,0-0.4,0-0.6c0.2,0,0.4-0.1,0.6-0.1c-0.2-0.1-0.4-0.2-0.5-0.3
					c0-0.2,0-0.4,0-0.6c-0.1,0.1-0.2,0.3-0.4,0.4c-0.2-0.1-0.4-0.2-0.5-0.3c0.1,0.2,0.2,0.4,0.3,0.5c-0.1,0.1-0.2,0.3-0.4,0.4
					C400.7,109.6,400.9,109.6,401.1,109.5z"/>
				<path class="st2" d="M404.2,111.2c0.1,0.2,0.2,0.4,0.3,0.5c0-0.2,0-0.4,0-0.6c0.2,0,0.4,0,0.6-0.1c-0.2-0.1-0.4-0.2-0.5-0.3
					c0-0.2,0-0.4,0-0.6c-0.1,0.1-0.2,0.3-0.4,0.4c-0.2-0.1-0.4-0.2-0.5-0.3c0.1,0.2,0.2,0.4,0.3,0.5c-0.1,0.1-0.2,0.3-0.4,0.4
					C403.8,111.2,404,111.2,404.2,111.2z"/>
				<path class="st2" d="M407.6,112.8c0.2,0,0.4,0,0.6-0.1c-0.2-0.1-0.4-0.2-0.5-0.3c0-0.2,0-0.4,0-0.6c-0.1,0.1-0.2,0.3-0.4,0.4
					c-0.2-0.1-0.4-0.2-0.5-0.3c0.1,0.2,0.2,0.4,0.3,0.5c-0.1,0.1-0.2,0.3-0.4,0.4c0.2,0,0.4,0,0.6-0.1c0.1,0.2,0.2,0.4,0.3,0.5
					C407.6,113.2,407.6,113,407.6,112.8z"/>
				<path class="st2" d="M393,106.7c-0.2-0.1-0.4-0.1-0.5-0.2c0.1,0.2,0.2,0.3,0.3,0.5c-0.1,0.2-0.2,0.3-0.4,0.5
					c0.2-0.1,0.4-0.1,0.6-0.1c0.1,0.2,0.2,0.3,0.3,0.5c0-0.2,0-0.4,0-0.6c0.2,0,0.4-0.1,0.6-0.1c-0.2-0.1-0.4-0.1-0.5-0.2
					c0-0.2,0-0.4,0-0.6C393.2,106.4,393.1,106.5,393,106.7z"/>
				<path class="st2" d="M396.1,108c-0.2-0.1-0.4-0.2-0.5-0.2c0.1,0.2,0.2,0.3,0.3,0.5c-0.1,0.1-0.2,0.3-0.4,0.4
					c0.2,0,0.4-0.1,0.6-0.1c0.1,0.2,0.2,0.3,0.3,0.5c0-0.2,0-0.4,0-0.6c0.2,0,0.4-0.1,0.6-0.1c-0.2-0.1-0.4-0.2-0.5-0.2
					c0-0.2,0-0.4,0-0.6C396.3,107.7,396.2,107.8,396.1,108z"/>
				<path class="st2" d="M399.1,109.4c-0.2-0.1-0.4-0.2-0.5-0.3c0.1,0.2,0.2,0.3,0.3,0.5c-0.1,0.1-0.2,0.3-0.4,0.4
					c0.2,0,0.4-0.1,0.6-0.1c0.1,0.2,0.2,0.3,0.3,0.5c0-0.2,0-0.4,0-0.6c0.2,0,0.4-0.1,0.6-0.1c-0.2-0.1-0.4-0.2-0.5-0.3
					c0-0.2,0-0.4,0-0.6C399.4,109.2,399.2,109.3,399.1,109.4z"/>
				<path class="st2" d="M402.2,111c-0.2-0.1-0.4-0.2-0.5-0.3c0.1,0.2,0.2,0.4,0.3,0.5c-0.1,0.1-0.2,0.3-0.4,0.4
					c0.2,0,0.4,0,0.6-0.1c0.1,0.2,0.2,0.4,0.3,0.5c0-0.2,0-0.4,0-0.6c0.2,0,0.4,0,0.6-0.1c-0.2-0.1-0.4-0.2-0.5-0.3
					c0-0.2,0-0.4,0-0.6C402.4,110.7,402.3,110.9,402.2,111z"/>
				<path class="st2" d="M405.2,112.7c-0.2-0.1-0.4-0.2-0.5-0.3c0.1,0.2,0.2,0.4,0.3,0.5c-0.1,0.1-0.2,0.3-0.4,0.4
					c0.2,0,0.4,0,0.6-0.1c0.1,0.2,0.2,0.4,0.3,0.5c0-0.2,0-0.4,0-0.6c0.2,0,0.4,0,0.6-0.1c-0.2-0.1-0.4-0.2-0.5-0.3
					c0-0.2,0-0.4,0-0.6C405.5,112.4,405.4,112.5,405.2,112.7z"/>
				<path class="st2" d="M390.9,108c0.1,0.2,0.2,0.3,0.3,0.5c0-0.2,0-0.4,0-0.6c0.2-0.1,0.4-0.1,0.6-0.2c-0.2-0.1-0.4-0.1-0.5-0.2
					c0-0.2,0-0.4,0-0.6c-0.1,0.2-0.2,0.3-0.4,0.5c-0.2-0.1-0.4-0.1-0.5-0.2c0.1,0.2,0.2,0.3,0.3,0.5c-0.1,0.2-0.2,0.3-0.4,0.5
					C390.5,108.1,390.7,108.1,390.9,108z"/>
				<path class="st2" d="M394,108.6c-0.2-0.1-0.4-0.2-0.5-0.2c0.1,0.2,0.2,0.3,0.3,0.5c-0.1,0.1-0.2,0.3-0.4,0.4
					c0.2,0,0.4-0.1,0.6-0.1c0.1,0.2,0.2,0.3,0.3,0.5c0-0.2,0-0.4,0-0.6c0.2,0,0.4-0.1,0.6-0.1c-0.2-0.1-0.4-0.2-0.5-0.2
					c0-0.2,0-0.4,0-0.6C394.2,108.3,394.1,108.5,394,108.6z"/>
				<path class="st2" d="M397.1,110c-0.2-0.1-0.4-0.2-0.5-0.3c0.1,0.2,0.2,0.3,0.3,0.5c-0.1,0.1-0.2,0.3-0.4,0.4
					c0.2,0,0.4-0.1,0.6-0.1c0.1,0.2,0.2,0.3,0.3,0.5c0-0.2,0-0.4,0-0.6c0.2,0,0.4-0.1,0.6-0.1c-0.2-0.1-0.4-0.2-0.5-0.3
					c0-0.2,0-0.4,0-0.6C397.3,109.7,397.2,109.8,397.1,110z"/>
				<path class="st2" d="M400.1,111.5c-0.2-0.1-0.4-0.2-0.5-0.3c0.1,0.2,0.2,0.4,0.3,0.5c-0.1,0.1-0.2,0.3-0.4,0.4
					c0.2,0,0.4-0.1,0.6-0.1c0.1,0.2,0.2,0.4,0.3,0.5c0-0.2,0-0.4,0-0.6c0.2,0,0.4-0.1,0.6-0.1c-0.2-0.1-0.4-0.2-0.5-0.3
					c0-0.2,0-0.4,0-0.6C400.4,111.2,400.2,111.3,400.1,111.5z"/>
				<path class="st2" d="M403.2,113.1c-0.2-0.1-0.4-0.2-0.5-0.3c0.1,0.2,0.2,0.4,0.3,0.5c-0.1,0.1-0.2,0.3-0.4,0.4
					c0.2,0,0.4,0,0.6-0.1c0.1,0.2,0.2,0.4,0.3,0.5c0-0.2,0-0.4,0-0.6c0.2,0,0.4,0,0.6-0.1c-0.2-0.1-0.4-0.2-0.5-0.3
					c0-0.2,0-0.4,0-0.6C403.4,112.8,403.3,112.9,403.2,113.1z"/>
				<path class="st2" d="M406.6,114.9c0-0.2,0-0.4,0-0.6c-0.1,0.1-0.2,0.3-0.4,0.4c-0.2-0.1-0.4-0.2-0.5-0.3
					c0.1,0.2,0.2,0.4,0.3,0.5c-0.1,0.1-0.2,0.3-0.4,0.4c0.2,0,0.4,0,0.6-0.1c0.1,0.2,0.2,0.4,0.3,0.5c0-0.2,0-0.4,0-0.6
					c0.2,0,0.4,0,0.6-0.1C406.9,115.1,406.8,115,406.6,114.9z"/>
				<path class="st2" d="M392.2,110.4c0-0.2,0-0.4,0-0.6c0.2-0.1,0.4-0.1,0.6-0.2c-0.2-0.1-0.4-0.1-0.5-0.2c0-0.2,0-0.4,0-0.6
					c-0.1,0.2-0.2,0.3-0.4,0.5c-0.2-0.1-0.4-0.1-0.5-0.2c0.1,0.2,0.2,0.3,0.3,0.5c-0.1,0.2-0.2,0.3-0.4,0.5c0.2-0.1,0.4-0.1,0.6-0.2
					C392,110.1,392.1,110.2,392.2,110.4z"/>
				<path class="st2" d="M395.3,111.7c0-0.2,0-0.4,0-0.6c0.2,0,0.4-0.1,0.6-0.1c-0.2-0.1-0.4-0.2-0.5-0.2c0-0.2,0-0.4,0-0.6
					c-0.1,0.1-0.2,0.3-0.4,0.4c-0.2-0.1-0.4-0.2-0.5-0.2c0.1,0.2,0.2,0.3,0.3,0.5c-0.1,0.1-0.2,0.3-0.4,0.4c0.2,0,0.4-0.1,0.6-0.1
					C395.1,111.3,395.2,111.5,395.3,111.7z"/>
				<path class="st2" d="M398.3,113.1c0-0.2,0-0.4,0-0.6c0.2,0,0.4-0.1,0.6-0.1c-0.2-0.1-0.4-0.2-0.5-0.3c0-0.2,0-0.4,0-0.6
					c-0.1,0.1-0.2,0.3-0.4,0.4c-0.2-0.1-0.4-0.2-0.5-0.3c0.1,0.2,0.2,0.3,0.3,0.5c-0.1,0.1-0.2,0.3-0.4,0.4c0.2,0,0.4-0.1,0.6-0.1
					C398.1,112.7,398.2,112.9,398.3,113.1z"/>
				<path class="st2" d="M401.4,114.6c0-0.2,0-0.4,0-0.6c0.2,0,0.4-0.1,0.6-0.1c-0.2-0.1-0.4-0.2-0.5-0.3c0-0.2,0-0.4,0-0.6
					c-0.1,0.1-0.2,0.3-0.4,0.4c-0.2-0.1-0.4-0.2-0.5-0.3c0.1,0.2,0.2,0.4,0.3,0.5c-0.1,0.1-0.2,0.3-0.4,0.4c0.2,0,0.4-0.1,0.6-0.1
					C401.2,114.3,401.3,114.4,401.4,114.6z"/>
				<path class="st2" d="M404.5,116.2c0-0.2,0-0.4,0-0.6c0.2,0,0.4,0,0.6-0.1c-0.2-0.1-0.4-0.2-0.5-0.3c0-0.2,0-0.4,0-0.6
					c-0.1,0.1-0.2,0.3-0.4,0.4c-0.2-0.1-0.4-0.2-0.5-0.3c0.1,0.2,0.2,0.4,0.3,0.5c-0.1,0.1-0.2,0.3-0.4,0.4c0.2,0,0.4,0,0.6-0.1
					C404.3,115.9,404.4,116.1,404.5,116.2z"/>
				<path class="st2" d="M389.9,110.7c0.1,0.2,0.2,0.3,0.3,0.5c0-0.2,0-0.4,0-0.6c0.2-0.1,0.4-0.1,0.6-0.2c-0.2-0.1-0.4-0.1-0.5-0.2
					c0-0.2,0-0.4,0-0.6c-0.1,0.2-0.2,0.3-0.4,0.5c-0.2-0.1-0.4-0.1-0.5-0.2c0.1,0.2,0.2,0.3,0.3,0.5c-0.1,0.2-0.2,0.3-0.4,0.5
					C389.5,110.8,389.7,110.8,389.9,110.7z"/>
				<path class="st2" d="M392.9,111.8c0.1,0.2,0.2,0.3,0.3,0.5c0-0.2,0-0.4,0-0.6c0.2,0,0.4-0.1,0.6-0.1c-0.2-0.1-0.4-0.1-0.5-0.2
					c0-0.2,0-0.4,0-0.6c-0.1,0.1-0.2,0.3-0.4,0.5c-0.2-0.1-0.4-0.1-0.5-0.2c0.1,0.2,0.2,0.3,0.3,0.5c-0.1,0.2-0.2,0.3-0.4,0.5
					C392.5,111.9,392.7,111.9,392.9,111.8z"/>
				<path class="st2" d="M396,113.1c0.1,0.2,0.2,0.3,0.3,0.5c0-0.2,0-0.4,0-0.6c0.2,0,0.4-0.1,0.6-0.1c-0.2-0.1-0.4-0.2-0.5-0.2
					c0-0.2,0-0.4,0-0.6c-0.1,0.1-0.2,0.3-0.4,0.4c-0.2-0.1-0.4-0.2-0.5-0.2c0.1,0.2,0.2,0.3,0.3,0.5c-0.1,0.1-0.2,0.3-0.4,0.4
					C395.6,113.2,395.8,113.1,396,113.1z"/>
				<path class="st2" d="M399,114.6c0.1,0.2,0.2,0.3,0.3,0.5c0-0.2,0-0.4,0-0.6c0.2,0,0.4-0.1,0.6-0.1c-0.2-0.1-0.4-0.2-0.5-0.3
					c0-0.2,0-0.4,0-0.6c-0.1,0.1-0.2,0.3-0.4,0.4c-0.2-0.1-0.4-0.2-0.5-0.3c0.1,0.2,0.2,0.3,0.3,0.5c-0.1,0.1-0.2,0.3-0.4,0.4
					C398.7,114.6,398.9,114.6,399,114.6z"/>
				<path class="st2" d="M402.1,116.1c0.1,0.2,0.2,0.4,0.3,0.5c0-0.2,0-0.4,0-0.6c0.2,0,0.4,0,0.6-0.1c-0.2-0.1-0.4-0.2-0.5-0.3
					c0-0.2,0-0.4,0-0.6c-0.1,0.1-0.2,0.3-0.4,0.4c-0.2-0.1-0.4-0.2-0.5-0.3c0.1,0.2,0.2,0.4,0.3,0.5c-0.1,0.1-0.2,0.3-0.4,0.4
					C401.7,116.2,401.9,116.1,402.1,116.1z"/>
				<path class="st2" d="M405.5,117.4c0-0.2,0-0.4,0-0.6c-0.1,0.1-0.2,0.3-0.4,0.4c-0.2-0.1-0.4-0.2-0.5-0.3
					c0.1,0.2,0.2,0.4,0.3,0.5c-0.1,0.1-0.2,0.3-0.4,0.4c0.2,0,0.4,0,0.6-0.1c0.1,0.2,0.2,0.4,0.3,0.5c0-0.2,0-0.4,0-0.6
					c0.2,0,0.4,0,0.6-0.1C405.9,117.6,405.7,117.5,405.5,117.4z"/>
				<path class="st2" d="M390.9,112.6c0.1,0.2,0.2,0.3,0.3,0.5c0-0.2,0-0.4,0-0.6c0.2-0.1,0.4-0.1,0.6-0.2c-0.2-0.1-0.4-0.1-0.5-0.2
					c0-0.2,0-0.4,0-0.6c-0.1,0.2-0.2,0.3-0.4,0.5c-0.2-0.1-0.4-0.1-0.5-0.2c0.1,0.2,0.2,0.3,0.3,0.5c-0.1,0.2-0.2,0.3-0.4,0.5
					C390.5,112.7,390.7,112.6,390.9,112.6z"/>
				<path class="st2" d="M393.9,113.7c0.1,0.2,0.2,0.3,0.3,0.5c0-0.2,0-0.4,0-0.6c0.2,0,0.4-0.1,0.6-0.1c-0.2-0.1-0.4-0.2-0.5-0.2
					c0-0.2,0-0.4,0-0.6c-0.1,0.1-0.2,0.3-0.4,0.4c-0.2-0.1-0.4-0.2-0.5-0.2c0.1,0.2,0.2,0.3,0.3,0.5c-0.1,0.1-0.2,0.3-0.4,0.4
					C393.5,113.8,393.7,113.8,393.9,113.7z"/>
				<path class="st2" d="M397,115.1c0.1,0.2,0.2,0.3,0.3,0.5c0-0.2,0-0.4,0-0.6c0.2,0,0.4-0.1,0.6-0.1c-0.2-0.1-0.4-0.2-0.5-0.3
					c0-0.2,0-0.4,0-0.6c-0.1,0.1-0.2,0.3-0.4,0.4c-0.2-0.1-0.4-0.2-0.5-0.3c0.1,0.2,0.2,0.3,0.3,0.5c-0.1,0.1-0.2,0.3-0.4,0.4
					C396.6,115.2,396.8,115.1,397,115.1z"/>
				<path class="st2" d="M400,116.6c0.1,0.2,0.2,0.4,0.3,0.5c0-0.2,0-0.4,0-0.6c0.2,0,0.4-0.1,0.6-0.1c-0.2-0.1-0.4-0.2-0.5-0.3
					c0-0.2,0-0.4,0-0.6c-0.1,0.1-0.2,0.3-0.4,0.4c-0.2-0.1-0.4-0.2-0.5-0.3c0.1,0.2,0.2,0.4,0.3,0.5c-0.1,0.1-0.2,0.3-0.4,0.4
					C399.7,116.6,399.9,116.6,400,116.6z"/>
				<path class="st2" d="M403.1,118.2c0.1,0.2,0.2,0.4,0.3,0.5c0-0.2,0-0.4,0-0.6c0.2,0,0.4,0,0.6-0.1c-0.2-0.1-0.4-0.2-0.5-0.3
					c0-0.2,0-0.4,0-0.6c-0.1,0.1-0.2,0.3-0.4,0.4c-0.2-0.1-0.4-0.2-0.5-0.3c0.1,0.2,0.2,0.4,0.3,0.5c-0.1,0.1-0.2,0.3-0.4,0.4
					C402.7,118.2,402.9,118.2,403.1,118.2z"/>
				<path class="st2" d="M389.2,113.3c0.2-0.1,0.4-0.1,0.6-0.2c-0.2-0.1-0.4-0.1-0.5-0.2c0-0.2,0-0.4,0-0.6
					c-0.1,0.2-0.2,0.3-0.4,0.5c-0.2-0.1-0.4-0.1-0.5-0.2c0.1,0.2,0.2,0.3,0.3,0.5c-0.1,0.2-0.2,0.3-0.4,0.5c0.2-0.1,0.4-0.1,0.6-0.2
					c0.1,0.2,0.2,0.3,0.3,0.5C389.1,113.7,389.2,113.5,389.2,113.3z"/>
				<path class="st2" d="M392.2,114.4c0.2-0.1,0.4-0.1,0.6-0.2c-0.2-0.1-0.4-0.1-0.5-0.2c0-0.2,0-0.4,0-0.6
					c-0.1,0.2-0.2,0.3-0.4,0.5c-0.2-0.1-0.4-0.1-0.5-0.2c0.1,0.2,0.2,0.3,0.3,0.5c-0.1,0.2-0.2,0.3-0.4,0.5c0.2-0.1,0.4-0.1,0.6-0.2
					c0.1,0.2,0.2,0.3,0.3,0.5C392.2,114.7,392.2,114.6,392.2,114.4z"/>
				<path class="st2" d="M395.3,115.6c0.2,0,0.4-0.1,0.6-0.1c-0.2-0.1-0.4-0.2-0.5-0.2c0-0.2,0-0.4,0-0.6c-0.1,0.1-0.2,0.3-0.4,0.4
					c-0.2-0.1-0.4-0.2-0.5-0.2c0.1,0.2,0.2,0.3,0.3,0.5c-0.1,0.1-0.2,0.3-0.4,0.4c0.2,0,0.4-0.1,0.6-0.1c0.1,0.2,0.2,0.3,0.3,0.5
					C395.3,116,395.3,115.8,395.3,115.6z"/>
				<path class="st2" d="M398.3,117c0.2,0,0.4-0.1,0.6-0.1c-0.2-0.1-0.4-0.2-0.5-0.3c0-0.2,0-0.4,0-0.6c-0.1,0.1-0.2,0.3-0.4,0.4
					c-0.2-0.1-0.4-0.2-0.5-0.3c0.1,0.2,0.2,0.3,0.3,0.5c-0.1,0.1-0.2,0.3-0.4,0.4c0.2,0,0.4-0.1,0.6-0.1c0.1,0.2,0.2,0.3,0.3,0.5
					C398.3,117.4,398.3,117.2,398.3,117z"/>
				<path class="st2" d="M401.4,118.6c0.2,0,0.4-0.1,0.6-0.1c-0.2-0.1-0.4-0.2-0.5-0.3c0-0.2,0-0.4,0-0.6c-0.1,0.1-0.2,0.3-0.4,0.4
					c-0.2-0.1-0.4-0.2-0.5-0.3c0.1,0.2,0.2,0.4,0.3,0.5c-0.1,0.1-0.2,0.3-0.4,0.4c0.2,0,0.4-0.1,0.6-0.1c0.1,0.2,0.2,0.4,0.3,0.5
					C401.4,119,401.4,118.8,401.4,118.6z"/>
				<path class="st2" d="M404.5,119.8c0-0.2,0-0.4,0-0.6c-0.1,0.1-0.2,0.3-0.4,0.4c-0.2-0.1-0.4-0.2-0.5-0.3
					c0.1,0.2,0.2,0.4,0.3,0.5c-0.1,0.1-0.2,0.3-0.4,0.4c0.2,0,0.4,0,0.6-0.1c0.1,0.2,0.2,0.4,0.3,0.5c0-0.2,0-0.4,0-0.6
					c0.2,0,0.4,0,0.6-0.1C404.9,120,404.7,119.9,404.5,119.8z"/>
				<path class="st2" d="M390.2,115.1c0.2-0.1,0.4-0.1,0.6-0.2c-0.2-0.1-0.4-0.1-0.5-0.2c0-0.2,0-0.4,0-0.6
					c-0.1,0.2-0.2,0.3-0.4,0.5c-0.2-0.1-0.4-0.1-0.5-0.2c0.1,0.2,0.2,0.3,0.3,0.5c-0.1,0.2-0.2,0.3-0.4,0.5c0.2-0.1,0.4-0.1,0.6-0.2
					c0.1,0.2,0.2,0.3,0.3,0.5C390.1,115.5,390.2,115.3,390.2,115.1z"/>
				<path class="st2" d="M393.2,116.3c0.2,0,0.4-0.1,0.6-0.1c-0.2-0.1-0.4-0.1-0.5-0.2c0-0.2,0-0.4,0-0.6c-0.1,0.1-0.2,0.3-0.4,0.5
					c-0.2-0.1-0.4-0.1-0.5-0.2c0.1,0.2,0.2,0.3,0.3,0.5c-0.1,0.2-0.2,0.3-0.4,0.5c0.2-0.1,0.4-0.1,0.6-0.1c0.1,0.2,0.2,0.3,0.3,0.5
					C393.2,116.7,393.2,116.5,393.2,116.3z"/>
				<path class="st2" d="M396.3,117.6c0.2,0,0.4-0.1,0.6-0.1c-0.2-0.1-0.4-0.2-0.5-0.2c0-0.2,0-0.4,0-0.6c-0.1,0.1-0.2,0.3-0.4,0.4
					c-0.2-0.1-0.4-0.2-0.5-0.2c0.1,0.2,0.2,0.3,0.3,0.5c-0.1,0.1-0.2,0.3-0.4,0.4c0.2,0,0.4-0.1,0.6-0.1c0.1,0.2,0.2,0.3,0.3,0.5
					C396.3,118,396.3,117.8,396.3,117.6z"/>
				<path class="st2" d="M399.4,119c0.2,0,0.4-0.1,0.6-0.1c-0.2-0.1-0.4-0.2-0.5-0.3c0-0.2,0-0.4,0-0.6c-0.1,0.1-0.2,0.3-0.4,0.4
					c-0.2-0.1-0.4-0.2-0.5-0.3c0.1,0.2,0.2,0.3,0.3,0.5c-0.1,0.1-0.2,0.3-0.4,0.4c0.2,0,0.4-0.1,0.6-0.1c0.1,0.2,0.2,0.3,0.3,0.5
					C399.3,119.4,399.3,119.2,399.4,119z"/>
				<path class="st2" d="M402.4,120.6c0.2,0,0.4,0,0.6-0.1c-0.2-0.1-0.4-0.2-0.5-0.3c0-0.2,0-0.4,0-0.6c-0.1,0.1-0.2,0.3-0.4,0.4
					c-0.2-0.1-0.4-0.2-0.5-0.3c0.1,0.2,0.2,0.4,0.3,0.5c-0.1,0.1-0.2,0.3-0.4,0.4c0.2,0,0.4,0,0.6-0.1c0.1,0.2,0.2,0.4,0.3,0.5
					C402.4,121,402.4,120.8,402.4,120.6z"/>
				<path class="st2" d="M388.1,115.7c0-0.2,0-0.4,0-0.6c-0.1,0.2-0.2,0.3-0.4,0.5c-0.2,0-0.4-0.1-0.5-0.1c0.1,0.2,0.2,0.3,0.3,0.5
					c-0.1,0.2-0.2,0.3-0.4,0.5c0.2-0.1,0.4-0.1,0.6-0.2c0.1,0.2,0.2,0.3,0.3,0.5c0-0.2,0-0.4,0-0.6c0.2-0.1,0.4-0.1,0.6-0.2
					C388.5,115.8,388.3,115.7,388.1,115.7z"/>
				<path class="st2" d="M391.2,116.7c0-0.2,0-0.4,0-0.6c-0.1,0.2-0.2,0.3-0.4,0.5c-0.2-0.1-0.4-0.1-0.5-0.2
					c0.1,0.2,0.2,0.3,0.3,0.5c-0.1,0.2-0.2,0.3-0.4,0.5c0.2-0.1,0.4-0.1,0.6-0.2c0.1,0.2,0.2,0.3,0.3,0.5c0-0.2,0-0.4,0-0.6
					c0.2-0.1,0.4-0.1,0.6-0.2C391.6,116.8,391.4,116.7,391.2,116.7z"/>
				<path class="st2" d="M394.3,117.8c0-0.2,0-0.4,0-0.6c-0.1,0.1-0.2,0.3-0.4,0.4c-0.2-0.1-0.4-0.2-0.5-0.2
					c0.1,0.2,0.2,0.3,0.3,0.5c-0.1,0.1-0.2,0.3-0.4,0.4c0.2,0,0.4-0.1,0.6-0.1c0.1,0.2,0.2,0.3,0.3,0.5c0-0.2,0-0.4,0-0.6
					c0.2,0,0.4-0.1,0.6-0.1C394.6,118,394.4,117.9,394.3,117.8z"/>
				<path class="st2" d="M397.3,119.2c0-0.2,0-0.4,0-0.6c-0.1,0.1-0.2,0.3-0.4,0.4c-0.2-0.1-0.4-0.2-0.5-0.3
					c0.1,0.2,0.2,0.3,0.3,0.5c-0.1,0.1-0.2,0.3-0.4,0.4c0.2,0,0.4-0.1,0.6-0.1c0.1,0.2,0.2,0.3,0.3,0.5c0-0.2,0-0.4,0-0.6
					c0.2,0,0.4-0.1,0.6-0.1C397.7,119.4,397.5,119.3,397.3,119.2z"/>
				<path class="st2" d="M400.4,120.7c0-0.2,0-0.4,0-0.6c-0.1,0.1-0.2,0.3-0.4,0.4c-0.2-0.1-0.4-0.2-0.5-0.3
					c0.1,0.2,0.2,0.4,0.3,0.5c-0.1,0.1-0.2,0.3-0.4,0.4c0.2,0,0.4-0.1,0.6-0.1c0.1,0.2,0.2,0.4,0.3,0.5c0-0.2,0-0.4,0-0.6
					c0.2,0,0.4-0.1,0.6-0.1C400.8,120.9,400.6,120.8,400.4,120.7z"/>
				<path class="st2" d="M403.4,122.3c0-0.2,0-0.4,0-0.6c-0.1,0.1-0.2,0.3-0.4,0.4c-0.2-0.1-0.4-0.2-0.5-0.3
					c0.1,0.2,0.2,0.4,0.3,0.5c-0.1,0.1-0.2,0.3-0.4,0.4c0.2,0,0.4,0,0.6-0.1c0.1,0.2,0.2,0.4,0.3,0.5c0-0.2,0-0.4,0-0.6
					c0.2,0,0.4,0,0.6-0.1C403.8,122.5,403.6,122.4,403.4,122.3z"/>
			</g>
		</g>
	</g>
</g>
<g>
	<g>
		<rect x="570.7" y="36.3" class="st2" width="33.7" height="33.7"/>
		<rect x="570.7" y="70" width="33.7" height="33.7"/>
		
			<rect x="604.5" y="70" transform="matrix(-1 -1.224647e-16 1.224647e-16 -1 1242.6901 173.7682)" class="st2" width="33.7" height="33.7"/>
		<rect x="604.5" y="36.3" transform="matrix(-1 -1.224647e-16 1.224647e-16 -1 1242.6901 106.2816)" width="33.7" height="33.7"/>
		<rect x="638.2" y="36.3" class="st2" width="33.7" height="33.7"/>
		<rect x="638.2" y="70" width="33.7" height="33.7"/>
		
			<rect x="672" y="70" transform="matrix(-1 -1.224647e-16 1.224647e-16 -1 1377.6633 173.7682)" class="st2" width="33.7" height="33.7"/>
		<rect x="672" y="36.3" transform="matrix(-1 -1.224647e-16 1.224647e-16 -1 1377.6633 106.2816)" width="33.7" height="33.7"/>
		<rect x="705.7" y="36.3" class="st2" width="33.7" height="33.7"/>
		<rect x="705.7" y="70" width="33.7" height="33.7"/>
		
			<rect x="739.4" y="70" transform="matrix(-1 -1.224647e-16 1.224647e-16 -1 1512.6367 173.7682)" class="st2" width="33.7" height="33.7"/>
		<rect x="739.4" y="36.3" transform="matrix(-1 -1.224647e-16 1.224647e-16 -1 1512.6367 106.2816)" width="33.7" height="33.7"/>
	</g>
	<g>
		<g>
			<g>
				<path class="st28" d="M620,84.1c-0.5,0-1.1,0-1.9-0.1c-0.8-0.1-1.6-0.2-2.4-0.4c-0.9-0.2-1.8-0.4-2.6-0.7
					c-0.9-0.3-1.7-0.6-2.5-1c-0.8-0.4-1.5-0.9-2-1.4c-0.6-0.7-0.9-1.4-0.9-2.3c0-0.9,0.3-1.7,1-2.4c0.7-0.7,1.5-1.1,2.4-1.1
					c0.6,0,1.1,0.1,1.6,0.4c0.6,0.3,1.2,0.6,1.8,0.9c0.6,0.2,1.2,0.4,1.8,0.6c0.6,0.2,1.2,0.3,1.8,0.4c0.6,0.1,1.3,0.1,2,0.1
					c0.4,0,1,0,1.6-0.1c0.6-0.1,1.1-0.2,1.6-0.3c0.5-0.2,0.8-0.4,1.2-0.7c0.1-0.1,0.3-0.3,0.3-0.8c0-0.3-0.1-0.7-0.7-1
					c-0.7-0.4-1.6-0.8-2.7-1.1c-1.1-0.4-2.4-0.7-3.7-1.1c-1.4-0.4-2.8-0.9-4-1.6c-1.3-0.7-2.3-1.6-3.2-2.7c-0.9-1.2-1.4-2.7-1.4-4.6
					c0-1.6,0.4-3,1.2-4.1c0.7-1.1,1.7-1.9,2.9-2.5c1.1-0.6,2.3-1,3.7-1.2c1.3-0.2,2.6-0.3,3.8-0.3c0.6,0,1.3,0,2.1,0.1
					c0.8,0.1,1.6,0.2,2.4,0.3c0.8,0.1,1.6,0.3,2.3,0.5c0.8,0.2,1.5,0.5,2.1,0.7c0.6,0.3,1.1,0.7,1.5,1.1c0.4,0.5,0.6,1.2,0.6,2
					c0,0.9-0.3,1.8-1,2.4s-1.5,1-2.4,1c-0.4,0-0.8-0.1-1.3-0.3c-1-0.4-2.1-0.7-3.1-0.9c-1-0.2-2.1-0.3-3.2-0.3c-0.4,0-0.9,0-1.5,0
					c-0.5,0-1.1,0.1-1.6,0.2c-0.4,0.1-0.8,0.3-1.1,0.5c-0.1,0.1-0.2,0.2-0.2,0.6c0,0.1,0,0.3,0.2,0.5c0.2,0.3,0.6,0.5,1,0.8
					c0.4,0.3,1,0.5,1.5,0.7c0.6,0.2,1.2,0.4,1.8,0.6c0.6,0.2,1.1,0.3,1.6,0.5c0.5,0.1,0.9,0.3,1.2,0.3c1,0.3,2,0.7,3,1.1
					c1,0.4,1.9,0.9,2.7,1.6c0.8,0.6,1.4,1.5,1.9,2.4c0.5,1,0.7,2.1,0.7,3.4c0,1.7-0.4,3.2-1.1,4.4c-0.7,1.1-1.7,2.1-2.9,2.8
					c-1.1,0.7-2.4,1.1-3.8,1.4C622.7,83.9,621.3,84.1,620,84.1z"/>
				<path d="M620.6,56c0.6,0,1.3,0,2.1,0.1c0.8,0.1,1.5,0.2,2.3,0.3c0.8,0.1,1.5,0.3,2.3,0.5c0.7,0.2,1.4,0.4,1.9,0.7
					c0.4,0.2,0.8,0.5,1.1,0.9c0.3,0.4,0.4,0.8,0.4,1.3c0,0.7-0.2,1.3-0.7,1.7c-0.5,0.5-1.1,0.7-1.7,0.7c-0.3,0-0.6-0.1-0.9-0.2
					c-1.1-0.4-2.2-0.7-3.2-0.9c-1.1-0.2-2.2-0.3-3.4-0.3c-0.4,0-0.9,0-1.5,0c-0.6,0-1.2,0.1-1.8,0.3c-0.6,0.2-1.1,0.4-1.5,0.7
					c-0.4,0.3-0.6,0.8-0.6,1.4c0,0.4,0.2,0.8,0.5,1.2c0.3,0.4,0.7,0.7,1.2,1c0.5,0.3,1.1,0.6,1.7,0.8c0.6,0.2,1.2,0.4,1.8,0.6
					c0.6,0.2,1.1,0.3,1.6,0.5c0.5,0.1,0.9,0.3,1.2,0.3c1,0.3,1.9,0.7,2.9,1c0.9,0.4,1.7,0.8,2.4,1.4c0.7,0.6,1.2,1.3,1.7,2.1
					c0.4,0.8,0.6,1.8,0.6,3c0,1.5-0.3,2.8-1,3.8c-0.7,1-1.5,1.8-2.5,2.4c-1,0.6-2.2,1-3.5,1.3c-1.3,0.2-2.6,0.4-3.9,0.4
					c-0.4,0-1,0-1.8-0.1c-0.7-0.1-1.5-0.2-2.3-0.4c-0.8-0.2-1.7-0.4-2.5-0.6c-0.8-0.3-1.6-0.6-2.3-0.9c-0.7-0.4-1.3-0.8-1.7-1.2
					c-0.4-0.5-0.7-1-0.7-1.6c0-0.6,0.2-1.2,0.7-1.7c0.5-0.5,1-0.7,1.7-0.7c0.4,0,0.8,0.1,1.1,0.3c0.7,0.4,1.3,0.7,1.9,0.9
					c0.6,0.3,1.3,0.5,1.9,0.6c0.6,0.2,1.3,0.3,1.9,0.4c0.7,0.1,1.4,0.1,2.1,0.1c0.5,0,1,0,1.7-0.1c0.6-0.1,1.3-0.2,1.8-0.4
					c0.6-0.2,1.1-0.5,1.5-0.9c0.4-0.4,0.6-0.9,0.6-1.5c0-0.8-0.4-1.4-1.2-1.9c-0.8-0.5-1.7-0.9-2.9-1.2c-1.1-0.4-2.4-0.7-3.8-1.1
					c-1.4-0.4-2.6-0.9-3.8-1.5c-1.1-0.6-2.1-1.4-2.9-2.5c-0.8-1-1.2-2.4-1.2-4c0-1.4,0.3-2.6,1-3.6s1.5-1.7,2.5-2.2s2.2-0.9,3.4-1.1
					C618.2,56.1,619.5,56,620.6,56 M620.6,54c-1.3,0-2.6,0.1-4,0.3c-1.5,0.2-2.8,0.7-4,1.3c-1.3,0.7-2.4,1.6-3.2,2.8
					c-0.9,1.3-1.3,2.9-1.3,4.7c0,2.1,0.5,3.9,1.6,5.2c0.9,1.2,2.1,2.3,3.5,3c1.3,0.7,2.7,1.3,4.2,1.7c1.3,0.4,2.6,0.7,3.7,1.1
					c1,0.3,1.8,0.6,2.4,1c0.1,0.1,0.2,0.1,0.2,0.1c0,0,0,0,0,0c0,0,0,0,0,0.1c-0.2,0.2-0.5,0.3-0.8,0.4c-0.4,0.1-0.9,0.2-1.4,0.3
					c-0.6,0.1-1.1,0.1-1.5,0.1c-0.7,0-1.3,0-1.9-0.1c-0.6-0.1-1.1-0.2-1.7-0.3c-0.5-0.1-1.1-0.3-1.6-0.6c-0.6-0.2-1.1-0.5-1.7-0.8
					c-0.7-0.4-1.4-0.6-2.1-0.6c-1.2,0-2.3,0.5-3.1,1.4c-0.8,0.9-1.3,1.9-1.3,3.1c0,1.1,0.4,2.1,1.2,2.9c0.6,0.6,1.4,1.2,2.2,1.6
					c0.8,0.4,1.7,0.8,2.6,1c0.9,0.3,1.8,0.5,2.7,0.7c0.9,0.2,1.7,0.3,2.5,0.4c0.8,0.1,1.5,0.1,2,0.1c1.4,0,2.8-0.1,4.2-0.4
					c1.5-0.3,2.9-0.8,4.1-1.5c1.3-0.8,2.4-1.8,3.2-3.1c0.9-1.3,1.3-3,1.3-4.9c0-1.5-0.3-2.8-0.8-3.9c-0.5-1.1-1.3-2-2.2-2.7
					c-0.8-0.7-1.8-1.3-2.9-1.7c-1-0.4-2-0.8-3-1.1l0,0l0,0c-0.3-0.1-0.7-0.2-1.2-0.3c-0.5-0.1-1-0.3-1.6-0.5
					c-0.5-0.2-1.1-0.4-1.7-0.6c-0.5-0.2-1-0.4-1.4-0.6c-0.2-0.1-0.4-0.3-0.6-0.4c0.1-0.1,0.3-0.1,0.5-0.2c0.4-0.1,0.9-0.2,1.3-0.2
					c0.6,0,1.1,0,1.5,0c1,0,2,0.1,3,0.3c1,0.2,2,0.5,3,0.8c0.6,0.2,1.1,0.3,1.6,0.3c1.2,0,2.3-0.5,3.2-1.3c0.9-0.9,1.3-1.9,1.3-3.2
					c0-1-0.3-1.9-0.9-2.6c-0.5-0.6-1.1-1.1-1.8-1.4c-0.7-0.3-1.4-0.6-2.3-0.8c-0.8-0.2-1.6-0.4-2.4-0.5c-0.8-0.2-1.7-0.3-2.5-0.3
					C622,54.1,621.3,54,620.6,54L620.6,54z"/>
			</g>
			<g>
				<path class="st28" d="M644.9,83.9c-1,0-1.9-0.4-2.6-1.1c-0.7-0.7-1-1.6-1-2.6V62.4h-6.2c-1,0-1.8-0.3-2.4-1s-1-1.5-1-2.4
					c0-0.9,0.3-1.8,1-2.4c0.7-0.7,1.5-1,2.4-1h19.6c0.9,0,1.8,0.3,2.4,1c0.7,0.7,1,1.5,1,2.4c0,0.9-0.4,1.8-1,2.4
					c-0.7,0.7-1.5,1-2.4,1h-6.2v17.9c0,1-0.4,1.9-1.1,2.6C646.7,83.5,645.9,83.9,644.9,83.9z"/>
				<path d="M654.7,56.5c0.7,0,1.3,0.2,1.7,0.7c0.5,0.5,0.7,1.1,0.7,1.7c0,0.7-0.2,1.3-0.7,1.7c-0.5,0.5-1.1,0.7-1.7,0.7h-7.2v18.9
					c0,0.7-0.3,1.4-0.8,1.9s-1.1,0.8-1.9,0.8s-1.3-0.3-1.8-0.8s-0.7-1.1-0.7-1.9V61.4h-7.2c-0.7,0-1.3-0.2-1.7-0.7s-0.7-1-0.7-1.7
					c0-0.7,0.2-1.3,0.7-1.7s1-0.7,1.7-0.7H654.7 M654.7,54.5h-19.6c-1.2,0-2.3,0.5-3.2,1.3c-0.8,0.9-1.3,1.9-1.3,3.1
					c0,1.2,0.4,2.3,1.3,3.1c0.8,0.8,1.9,1.3,3.1,1.3h5.2v16.9c0,1.3,0.5,2.4,1.3,3.3c0.9,0.9,2,1.4,3.3,1.4c1.3,0,2.4-0.5,3.3-1.3
					c0.9-0.9,1.3-2,1.3-3.3V63.4h5.2c1.2,0,2.3-0.4,3.1-1.3c0.9-0.8,1.3-1.9,1.3-3.2c0-1.2-0.5-2.3-1.3-3.2
					C657,54.9,655.9,54.5,654.7,54.5L654.7,54.5z"/>
			</g>
			<g>
				<path class="st28" d="M680.2,83.9c-0.7,0-1.3-0.2-1.9-0.5c-0.5-0.3-1-0.8-1.2-1.4l-1.9-4.2h-10l-1.9,4.2
					c-0.3,0.6-0.7,1.1-1.3,1.5c-0.6,0.3-1.2,0.5-1.8,0.5c-1,0-1.8-0.3-2.4-1c-0.7-0.7-1-1.5-1-2.4c0-0.5,0.1-1,0.3-1.4l10-21.9
					c0.3-0.6,0.7-1.1,1.2-1.4c0.6-0.4,1.2-0.6,1.8-0.6c0.6,0,1.3,0.2,1.8,0.5c0.6,0.4,1,0.8,1.3,1.5l10,21.9c0.2,0.5,0.3,1,0.3,1.4
					c0,0.9-0.3,1.8-1,2.4C682,83.5,681.1,83.9,680.2,83.9z M672.3,71.3l-2.1-4.7l-2.1,4.7H672.3z"/>
				<path d="M670.1,56.1c0.5,0,0.9,0.1,1.3,0.4c0.4,0.2,0.7,0.6,0.9,1l10,21.9c0.1,0.3,0.2,0.7,0.2,1c0,0.7-0.2,1.3-0.7,1.7
					s-1,0.7-1.7,0.7c-0.5,0-0.9-0.1-1.3-0.4c-0.4-0.2-0.7-0.6-0.9-1l-2.2-4.8h-11.3l-2.2,4.8c-0.2,0.4-0.5,0.8-0.9,1
					c-0.4,0.2-0.8,0.4-1.3,0.4c-0.7,0-1.3-0.2-1.7-0.7c-0.5-0.5-0.7-1.1-0.7-1.7c0-0.3,0.1-0.7,0.2-1l10-21.9c0.2-0.4,0.5-0.8,0.9-1
					C669.2,56.3,669.6,56.1,670.1,56.1 M666.5,72.3h7.3l-3.7-8.1L666.5,72.3 M670.1,54.1c-0.9,0-1.7,0.2-2.4,0.7
					c-0.7,0.5-1.2,1.1-1.6,1.9l-10,21.8c-0.3,0.6-0.4,1.2-0.4,1.8c0,1.2,0.5,2.3,1.3,3.2c0.9,0.9,1.9,1.3,3.2,1.3
					c0.9,0,1.6-0.2,2.4-0.7c0.7-0.5,1.3-1.1,1.6-1.9l1.6-3.6h8.7l1.6,3.6c0.4,0.8,0.9,1.4,1.6,1.9c0.7,0.5,1.5,0.7,2.4,0.7
					c1.2,0,2.3-0.5,3.1-1.3c0.8-0.8,1.3-1.9,1.3-3.1c0-0.6-0.1-1.2-0.3-1.7l0-0.1l0-0.1l-10-21.9c-0.4-0.8-1-1.5-1.7-1.9
					C671.7,54.4,670.9,54.1,670.1,54.1L670.1,54.1z M669.6,70.3l0.6-1.3l0.6,1.3H669.6L669.6,70.3z"/>
			</g>
			<g>
				<path class="st28" d="M706.3,83.9c-0.7,0-1.3-0.2-1.8-0.5c-0.6-0.3-1-0.8-1.3-1.4c-0.1-0.2-0.3-0.5-0.5-1l-0.8-1.7
					c-0.4-0.8-0.7-1.5-1.1-2.3c-0.4-0.8-0.8-1.5-1.1-2.2c-0.3-0.6-0.6-1.2-0.8-1.6c0-0.1-0.1-0.1-0.1-0.2h-5.5v7.3
					c0,1-0.4,1.9-1.1,2.6c-0.7,0.7-1.6,1-2.5,1c-1,0-1.9-0.3-2.5-1c-0.7-0.7-1-1.5-1-2.5V59.1c0-1,0.3-1.9,1-2.5
					c0.7-0.7,1.5-1,2.5-1h9.7c1.3,0,2.7,0.1,3.9,0.4c1.3,0.3,2.4,0.8,3.4,1.5c1,0.7,1.8,1.7,2.4,2.8c0.6,1.1,0.9,2.5,0.9,4.1
					c0,1.7-0.4,3.3-1.2,4.6c-0.6,1.1-1.6,2-2.7,2.6c0,0.1,0.1,0.1,0.1,0.2c0.3,0.5,0.6,1.1,0.9,1.7c0.3,0.6,0.6,1.3,1,1.9
					c0.3,0.7,0.6,1.3,0.9,1.9c0.3,0.6,0.5,1.2,0.7,1.7c0.2,0.6,0.3,1,0.3,1.4c0,1-0.3,1.8-1,2.5C708.1,83.5,707.3,83.9,706.3,83.9z
					 M700.1,66.6c0.8,0,1.4-0.2,1.9-0.6c0.3-0.2,0.6-0.6,0.6-1.5c0-1-0.4-1.4-0.6-1.6c-0.5-0.4-1.1-0.6-1.9-0.6h-6.8v4.3H700.1z"/>
				<path d="M699.4,56.5c1.3,0,2.5,0.1,3.7,0.4c1.2,0.3,2.2,0.7,3,1.4c0.9,0.6,1.5,1.4,2.1,2.4s0.8,2.2,0.8,3.6
					c0,1.5-0.4,2.9-1.1,4.1c-0.7,1.2-1.8,2.1-3.2,2.7c0.1,0.3,0.3,0.6,0.6,1.1s0.5,1,0.9,1.7c0.3,0.6,0.6,1.3,1,1.9s0.6,1.3,0.9,1.9
					c0.3,0.6,0.5,1.1,0.7,1.6c0.2,0.5,0.3,0.8,0.3,1c0,0.7-0.2,1.3-0.7,1.8c-0.5,0.5-1.1,0.7-1.8,0.7c-0.5,0-0.9-0.1-1.3-0.4
					c-0.4-0.2-0.7-0.6-0.9-1c-0.1-0.1-0.2-0.5-0.5-1s-0.5-1.1-0.9-1.8c-0.3-0.7-0.7-1.4-1.1-2.2c-0.4-0.8-0.7-1.5-1.1-2.1
					c-0.3-0.7-0.6-1.2-0.8-1.6c-0.2-0.4-0.3-0.7-0.3-0.7h-7.2v8.3c0,0.7-0.3,1.3-0.8,1.8c-0.5,0.5-1.1,0.7-1.8,0.7
					c-0.7,0-1.3-0.2-1.8-0.7c-0.5-0.5-0.7-1.1-0.7-1.8V59.1c0-0.7,0.2-1.3,0.7-1.8c0.5-0.5,1.1-0.7,1.8-0.7H699.4 M692.3,67.6h7.8
					c1,0,1.8-0.3,2.5-0.8c0.7-0.5,1.1-1.3,1.1-2.3c0-1-0.3-1.8-1-2.4c-0.7-0.5-1.5-0.8-2.5-0.8h-7.8V67.6 M699.4,54.5h-9.7
					c-1.3,0-2.4,0.5-3.3,1.3c-0.9,0.9-1.3,2-1.3,3.3v21.2c0,1.3,0.5,2.4,1.3,3.3c0.9,0.9,2,1.3,3.3,1.3c1.2,0,2.3-0.4,3.2-1.3
					c0.9-0.9,1.4-2,1.4-3.3V74h3.9c0.2,0.4,0.4,0.8,0.6,1.2c0.3,0.7,0.7,1.4,1.1,2.2c0.4,0.8,0.7,1.5,1.1,2.2l0,0.1l0.8,1.7
					c0.3,0.6,0.4,0.9,0.5,1c0.4,0.8,0.9,1.4,1.6,1.8c0.7,0.4,1.5,0.7,2.4,0.7c1.2,0,2.3-0.5,3.2-1.3c0.9-0.9,1.3-2,1.3-3.2
					c0-0.5-0.1-1-0.4-1.7c-0.2-0.5-0.4-1.1-0.7-1.7c-0.3-0.6-0.6-1.3-0.9-1.9c-0.3-0.7-0.7-1.3-1-2c-0.2-0.4-0.4-0.8-0.6-1.1
					c0.9-0.7,1.7-1.5,2.3-2.5c0.9-1.5,1.3-3.2,1.3-5.1c0-1.7-0.3-3.3-1-4.6c-0.7-1.3-1.5-2.3-2.7-3.1c-1.1-0.8-2.3-1.3-3.7-1.7
					C702.2,54.7,700.8,54.5,699.4,54.5L699.4,54.5z M694.3,63.3h5.8c0.7,0,1.1,0.2,1.3,0.4c0.1,0.1,0.3,0.2,0.3,0.8
					c0,0.5-0.2,0.7-0.2,0.7c-0.4,0.3-0.8,0.4-1.3,0.4h-5.8V63.3L694.3,63.3z"/>
			</g>
			<g>
				<path class="st28" d="M723.8,83.9c-1,0-1.9-0.4-2.6-1.1c-0.7-0.7-1-1.6-1-2.6V62.4H714c-1,0-1.8-0.3-2.4-1s-1-1.5-1-2.4
					c0-0.9,0.3-1.8,1-2.4c0.7-0.7,1.5-1,2.4-1h19.6c1,0,1.8,0.3,2.4,1c0.7,0.7,1,1.5,1,2.4c0,0.9-0.4,1.8-1,2.4
					c-0.7,0.7-1.5,1-2.4,1h-6.2v17.9c0,1-0.4,1.9-1.1,2.6C725.7,83.5,724.8,83.9,723.8,83.9z"/>
				<path d="M733.6,56.5c0.7,0,1.3,0.2,1.7,0.7c0.5,0.5,0.7,1.1,0.7,1.7c0,0.7-0.2,1.3-0.7,1.7c-0.5,0.5-1.1,0.7-1.7,0.7h-7.2v18.9
					c0,0.7-0.3,1.4-0.8,1.9s-1.1,0.8-1.9,0.8s-1.3-0.3-1.8-0.8s-0.7-1.1-0.7-1.9V61.4H714c-0.7,0-1.3-0.2-1.7-0.7s-0.7-1-0.7-1.7
					c0-0.7,0.2-1.3,0.7-1.7s1-0.7,1.7-0.7H733.6 M733.6,54.5H714c-1.2,0-2.3,0.5-3.2,1.3c-0.8,0.9-1.3,1.9-1.3,3.1
					c0,1.2,0.4,2.3,1.3,3.1c0.8,0.8,1.9,1.3,3.1,1.3h5.2v16.9c0,1.3,0.5,2.4,1.3,3.3c0.9,0.9,2,1.4,3.3,1.4c1.3,0,2.4-0.5,3.3-1.3
					c0.9-0.9,1.3-2,1.3-3.3V63.4h5.2c1.2,0,2.3-0.4,3.1-1.3c0.9-0.8,1.3-1.9,1.3-3.2c0-1.2-0.5-2.3-1.3-3.2
					C735.9,54.9,734.8,54.5,733.6,54.5L733.6,54.5z"/>
			</g>
		</g>
	</g>
	<path class="st3" d="M778.4,231.1L778.4,231.1c-2.9,0-5.2-2.3-5.2-5.2V31.3c0-2.9,2.3-5.2,5.2-5.2l0,0c2.9,0,5.2,2.3,5.2,5.2v194.6
		C783.6,228.8,781.2,231.1,778.4,231.1z"/>
</g>
<g id="Layer_8">
	
		<linearGradient id="SVGID_10_" gradientUnits="userSpaceOnUse" x1="400" y1="48" x2="400" y2="298" gradientTransform="matrix(1 0 0 1 0 -48)">
		<stop  offset="0" style="stop-color:#666666"/>
		<stop  offset="1" style="stop-color:#333333"/>
	</linearGradient>
	<rect class="st29" width="800" height="250"/>
</g>
</svg>
