<?xml version="1.0" encoding="utf-8"?>
<!-- Generator: Adobe Illustrator 25.0.0, SVG Export Plug-In . SVG Version: 6.00 Build 0)  -->
<svg version="1.1" id="Layer_1" xmlns="http://www.w3.org/2000/svg" xmlns:xlink="http://www.w3.org/1999/xlink" x="0px" y="0px"
	 viewBox="0 0 800 250" style="enable-background:new 0 0 800 250;" xml:space="preserve">
<style type="text/css">
	.st0{fill:#CDF5F9;}
	.st1{fill:#FFFFFF;}
	.st2{fill:#444444;}
	.st3{fill:#0F5E0F;}
	.st4{fill:#094909;}
	.st5{fill:#09890C;}
	.st6{fill:#0C440C;}
	.st7{fill:#3B3B3B;}
	.st8{fill:url(#SVGID_1_);}
	.st9{fill:#8E2525;}
	.st10{clip-path:url(#SVGID_3_);}
	.st11{fill:#FF0303;}
	.st12{fill:#9B9B9B;}
	.st13{fill:#191919;}
	.st14{fill:#D6D6D6;}
	.st15{clip-path:url(#SVGID_5_);}
	.st16{fill:#5E5E5E;}
	.st17{fill:#777777;}
	.st18{fill:#32323F;}
	.st19{fill:#474757;}
	.st20{fill:#DDDDDD;}
	.st21{fill:#BAC0D8;}
	.st22{fill:#ACAFBC;}
	.st23{display:none;}
	.st24{display:inline;opacity:0.47;fill:url(#SVGID_6_);enable-background:new    ;}
	.st25{fill:#FF0000;}
</style>
<g id="Layer_1_1_">
	<rect class="st0" width="800" height="250"/>
</g>
<g id="Layer_3">
	<g>
		<path class="st1" d="M713.8,64c-3-16.5-17.4-28.9-34.7-28.9c-4.8,0-9.4,1-13.6,2.7C658.7,28.2,647.6,22,635,22
			c-12.7,0-23.9,6.3-30.6,16c-4.7-3.3-10.3-5.3-16.5-5.3c-15.7,0-28.5,12.7-28.5,28.5c0,0.9,0,1.9,0.1,2.8H713.8z"/>
	</g>
	<g>
		<path class="st1" d="M414.4,94c2.2-12.1,12.8-21.4,25.6-21.4c3.6,0,7,0.7,10,2c5-7.1,13.2-11.7,22.5-11.7
			c9.4,0,17.6,4.7,22.6,11.8c3.4-2.4,7.6-3.9,12.2-3.9c11.6,0,21,9.4,21,21c0,0.7,0,1.4-0.1,2.1H414.4V94z"/>
	</g>
	<g>
		<path class="st1" d="M92.3,62.7c-6.2,0-11.8,2-16.5,5.3c-6.7-9.7-17.9-16-30.6-16c-12.6,0-23.7,6.2-30.5,15.8
			c-4.2-1.8-8.8-2.7-13.6-2.7c-0.4,0-0.7,0-1.1,0V94h120.6c0.1-0.9,0.1-1.9,0.1-2.8C120.8,75.5,108,62.7,92.3,62.7z"/>
	</g>
</g>
<path class="st2" d="M565.5,231.1L565.5,231.1c-2.9,0-5.2-2.3-5.2-5.2V31.3c0-2.9,2.3-5.2,5.2-5.2l0,0c2.9,0,5.2,2.3,5.2,5.2v194.6
	C570.7,228.8,568.4,231.1,565.5,231.1z"/>
<g>
	<g>
		<path class="st3" d="M306,155.5c-6.4,8.9-15.2,16.4-25.9,21.3c-21.5,9.8-45.4,7-63.6-5.3c-8.4,13.6-13.7,29.4-14.8,46.3h-0.2V250
			h203.3v-32.2h-0.2c-1.4-20.6-8.9-39.5-20.7-54.9c-2.4,1.5-4.9,2.8-7.5,4C352,178,324.4,172.6,306,155.5z"/>
		<path class="st4" d="M303.1,123c-36.6,0-68.7,19.4-86.6,48.5c18.2,12.3,42.2,15.1,63.6,5.3c10.7-4.9,19.5-12.3,25.9-21.3
			c18.4,17.1,46,22.5,70.3,11.4c2.6-1.2,5.1-2.5,7.5-4C365.2,138.6,336,123,303.1,123z"/>
	</g>
	<g>
		<path class="st5" d="M256.1,252.1c-1.9-28-15.1-52.9-35.1-70.1c-4.7,1.8-9.8,2.8-15.2,2.8c-10.6,0-20.2-3.9-27.7-10.3
			c-4.5,5.1-9.9,9.3-16,12.4c-6.2,29-31.9,50.8-62.8,50.8c-15.2,0-29.1-5.3-40.1-14c-3.3,9-5.5,6.9-6.2,16.9l0,0l0,0h203.3v11.5
			L256.1,252.1L256.1,252.1z"/>
		<path class="st6" d="M162.2,186.9c6.1-3.1,11.5-7.3,16-12.4c7.4,6.4,17.1,10.3,27.7,10.3c5.4,0,10.5-1,15.2-2.8
			c-17.8-15.4-41-24.7-66.4-24.7c-43.7,0-81,27.6-95.4,66.3c11,8.8,24.9,14,40.1,14C130.3,237.7,156,215.9,162.2,186.9z"/>
	</g>
</g>
<g id="Layer_5">
	<rect y="220" class="st7" width="800" height="30"/>
	<rect x="15" y="220" class="st1" width="99" height="6"/>
	<rect x="221" y="220" class="st1" width="99" height="6"/>
	<rect x="429" y="220" class="st1" width="99" height="6"/>
	<rect x="635" y="220" class="st1" width="99" height="6"/>
</g>
<g id="Layer_2_1_">
	<g id="Premium">
		<g id="premium-drag-red">
			
				<linearGradient id="SVGID_1_" gradientUnits="userSpaceOnUse" x1="566.0403" y1="34" x2="580.9403" y2="34" gradientTransform="matrix(1 0 0 -1 0 204)">
				<stop  offset="0" style="stop-color:#C9E7F9"/>
				<stop  offset="1" style="stop-color:#AAFFF9"/>
			</linearGradient>
			<polygon class="st8" points="580.9,174.1 566,175.2 570,164.8 579.8,167.8 			"/>
			<path class="st9" d="M579.9,167.2L579.9,167.2c-0.1-0.1-0.1-0.1-0.1-0.1c-0.7-1.6-2.5-4.5-6.7-4.9c-5.8-0.4-7.2,4.1-7.2,5.6v3.8
				c0,0.4,0.2,0.8,0.5,1.2h-0.1v3l9.7,1.7V177l2.4,1c0.6,0.2,1.3,0,1.7-0.5c0.5-0.9,0.9-1.8,1-2.9l0,0v-0.1
				C581.6,170.8,580,167.4,579.9,167.2z M569,169.9c0.6,0,1,0.4,1,1s-0.4,1-1,1s-1-0.4-1-1S568.4,169.9,569,169.9L569,169.9z
				 M580.2,173.7c-0.8,0-2.1-0.2-3.6-1.3c-1.7-1.2-2.6-3-3-4.2c-0.2-0.6,0-1.5,0.7-1.5c0.4,0,0.9,0.2,1.6,0.7
				c1.1,0.9,2.4,0.9,3.3,0.9c0.1,0,0.3-0.1,0.4-0.1c0.7,1.8,1,3.7,1,5.6C580.4,173.7,580.3,173.7,580.2,173.7L580.2,173.7z"/>
			<g>
				<g>
					<g>
						<defs>
							<path id="SVGID_2_" d="M579.9,167.2L579.9,167.2c-0.1-0.1-0.1-0.1-0.1-0.1c-0.7-1.6-2.5-4.5-6.7-4.9
								c-5.8-0.4-7.2,4.1-7.2,5.6v3.8c0,0.4,0.2,0.8,0.5,1.2h-0.1v3l9.7,1.7V177l2.4,1c0.6,0.2,1.3,0,1.7-0.5c0.5-0.9,0.9-1.8,1-2.9
								l0,0v-0.1C581.6,170.8,580,167.4,579.9,167.2z M569,169.9c0.6,0,1,0.4,1,1s-0.4,1-1,1s-1-0.4-1-1S568.4,169.9,569,169.9
								L569,169.9z M580.2,173.7c-0.8,0-2.1-0.2-3.6-1.3c-1.7-1.2-2.6-3-3-4.2c-0.2-0.6,0-1.5,0.7-1.5c0.4,0,0.9,0.2,1.6,0.7
								c1.1,0.9,2.4,0.9,3.3,0.9c0.1,0,0.3-0.1,0.4-0.1c0.7,1.8,1,3.7,1,5.6C580.4,173.7,580.3,173.7,580.2,173.7L580.2,173.7z"/>
						</defs>
						<clipPath id="SVGID_3_">
							<use xlink:href="#SVGID_2_"  style="overflow:visible;"/>
						</clipPath>
						<g class="st10">
							<polygon class="st11" points="552.2,153.6 551,155.3 570.7,169.3 570.7,193.7 572.7,193.7 572.7,168.3 							"/>
						</g>
					</g>
				</g>
			</g>
			<rect x="642.6" y="180.4" class="st12" width="25.3" height="11"/>
			<polygon class="st12" points="662.7,181.9 647.8,181.9 647.8,174.3 666.5,173.7 			"/>
			<path class="st13" d="M666.5,173.7l-3,6.7C663.4,180.4,662.4,176.9,666.5,173.7z"/>
			<path class="st14" d="M642.6,180.4h15.6c0,0-6.4,1.6-15.6,1.5V180.4z"/>
			
				<rect x="663.6" y="180" transform="matrix(0.1893 -0.9819 0.9819 0.1893 358.9768 799.9327)" class="st13" width="0.6" height="5.2"/>
			
				<rect x="663" y="181.1" transform="matrix(0.1893 -0.9819 0.9819 0.1893 357.316 800.2438)" class="st13" width="0.6" height="5.2"/>
			<path class="st11" d="M671.7,215.1l-180.2-13.6c-8.7-0.7-15.3-8.3-14.6-17l0,0l0,0c0.7-8.7,8.3-15.3,17-14.6l0,0l129.5,9.9
				c8.7,0.7,56.1,12.7,65.3,20.7l0,0C688,209.2,680.4,215.8,671.7,215.1z"/>
			<g>
				<g>
					<g>
						<defs>
							<path id="SVGID_4_" d="M671.7,215.1l-180.2-13.6c-8.7-0.7-15.3-8.3-14.6-17l0,0l0,0c0.7-8.7,8.3-15.3,17-14.6l0,0l129.5,9.9
								c8.7,0.7,56.1,12.7,65.3,20.7l0,0C688,209.2,680.4,215.8,671.7,215.1z"/>
						</defs>
						<clipPath id="SVGID_5_">
							<use xlink:href="#SVGID_4_"  style="overflow:visible;"/>
						</clipPath>
						<g class="st15">
							
								<rect x="615.2" y="135.2" transform="matrix(0.8894 -0.4571 0.4571 0.8894 -14.2699 302.525)" class="st9" width="5.8" height="91.1"/>
							
								<rect x="605" y="137.9" transform="matrix(0.8894 -0.4571 0.4571 0.8894 -16.6218 298.1584)" class="st9" width="5.8" height="91.1"/>
							
								<rect x="594.2" y="141.1" transform="matrix(0.8894 -0.4571 0.4571 0.8894 -19.2808 293.5783)" class="st9" width="5.8" height="91.1"/>
						</g>
					</g>
				</g>
			</g>
			<path class="st9" d="M488.6,196.1l195.6,11.4c2.6,0.1,4.5,2.4,4.4,4.9l0,0c-0.1,2.6-2.4,4.5-4.9,4.4L488,205.4
				c-2.6-0.1-4.5-2.4-4.4-4.9l0,0C483.8,197.9,486,195.9,488.6,196.1z"/>
			<polygon class="st11" points="573.1,156.6 514.2,146.7 514.2,179.7 572.2,183.4 563.1,162 			"/>
			
				<rect x="533.8" y="178.3" transform="matrix(0.9362 -0.3515 0.3515 0.9362 -28.7321 200.2436)" class="st16" width="6.7" height="1.9"/>
			
				<rect x="535.7" y="183.1" transform="matrix(0.9362 -0.3515 0.3515 0.9362 -30.2947 201.2202)" class="st16" width="6.7" height="1.9"/>
			
				<rect x="530.8" y="130.2" transform="matrix(0.9362 -0.3515 0.3515 0.9362 -19.5173 197.2092)" class="st17" width="5.2" height="44.3"/>
			
				<ellipse transform="matrix(0.9362 -0.3515 0.3515 0.9362 -12.9094 193.2868)" class="st16" cx="525.9" cy="132.2" rx="2.6" ry="2.4"/>
			
				<ellipse transform="matrix(0.9372 -0.3489 0.3489 0.9372 -12.9411 191.7677)" class="st12" cx="525.9" cy="131.8" rx="2.6" ry="2.4"/>
			
				<ellipse transform="matrix(0.9362 -0.3515 0.3515 0.9362 -12.7119 193.181)" class="st13" cx="525.7" cy="131.6" rx="2.2" ry="2.1"/>
			
				<rect x="540.3" y="163.6" transform="matrix(0.9362 -0.3515 0.3515 0.9362 -29.3705 203.1194)" class="st12" width="8.9" height="37.7"/>
			
				<rect x="519.7" y="134.4" transform="matrix(0.9362 -0.3515 0.3515 0.9362 -21.7008 193.5784)" class="st17" width="5.2" height="44.3"/>
			
				<ellipse transform="matrix(0.9362 -0.3515 0.3515 0.9362 -15.0928 189.656)" class="st16" cx="514.8" cy="136.4" rx="2.6" ry="2.4"/>
			
				<ellipse transform="matrix(0.9362 -0.3515 0.3515 0.9362 -14.9031 189.5206)" class="st12" cx="514.5" cy="135.8" rx="2.6" ry="2.4"/>
			
				<ellipse transform="matrix(0.9362 -0.3515 0.3515 0.9362 -14.9041 189.511)" class="st13" cx="514.5" cy="135.8" rx="2.2" ry="2.1"/>
			
				<rect x="529.1" y="167.8" transform="matrix(0.9362 -0.3515 0.3515 0.9362 -31.5627 199.4492)" class="st12" width="8.9" height="37.7"/>
			
				<rect x="484.5" y="167.2" transform="matrix(0.9362 -0.3515 0.3515 0.9362 -27.9909 182.2124)" class="st16" width="6.7" height="2"/>
			
				<rect x="486.4" y="172.4" transform="matrix(0.9362 -0.3515 0.3515 0.9362 -29.7 183.2115)" class="st16" width="6.7" height="2"/>
			
				<rect x="480.8" y="116" transform="matrix(0.9362 -0.3515 0.3515 0.9362 -18.2231 178.819)" class="st17" width="5.2" height="47.2"/>
			
				<ellipse transform="matrix(0.9362 -0.3515 0.3515 0.9362 -11.2107 174.6432)" class="st16" cx="475.4" cy="118.2" rx="2.6" ry="2.6"/>
			
				<ellipse transform="matrix(0.9372 -0.3489 0.3489 0.9372 -11.1717 173.1856)" class="st12" cx="475.2" cy="117.6" rx="2.6" ry="2.6"/>
			
				<ellipse transform="matrix(0.9362 -0.3515 0.3515 0.9362 -11.0147 174.5389)" class="st13" cx="475.2" cy="117.6" rx="2.2" ry="2.2"/>
			
				<rect x="491.1" y="151.7" transform="matrix(0.9362 -0.3515 0.3515 0.9362 -28.7661 185.1487)" class="st12" width="8.9" height="40.2"/>
			
				<rect x="469.7" y="120.2" transform="matrix(0.9362 -0.3515 0.3515 0.9362 -20.4064 175.1882)" class="st17" width="5.2" height="47.2"/>
			
				<ellipse transform="matrix(0.9362 -0.3515 0.3515 0.9362 -13.3943 171.0122)" class="st16" cx="464.3" cy="122.4" rx="2.6" ry="2.6"/>
			
				<ellipse transform="matrix(0.9362 -0.3515 0.3515 0.9362 -13.1679 170.8601)" class="st12" cx="464" cy="121.7" rx="2.6" ry="2.6"/>
			
				<ellipse transform="matrix(0.9362 -0.3515 0.3515 0.9362 -13.1679 170.8601)" class="st13" cx="464" cy="121.7" rx="2.2" ry="2.2"/>
			
				<rect x="479.9" y="155.9" transform="matrix(0.9362 -0.3515 0.3515 0.9362 -30.9582 181.4786)" class="st12" width="8.9" height="40.2"/>
			
				<rect x="509.6" y="174.9" transform="matrix(0.9372 -0.3489 0.3489 0.9372 -29.16 190.0238)" class="st16" width="6.7" height="2.1"/>
			
				<rect x="511.5" y="179.8" transform="matrix(0.9362 -0.3515 0.3515 0.9362 -30.6981 192.5073)" class="st16" width="6.7" height="2"/>
			
				<rect x="505.8" y="122.8" transform="matrix(0.9362 -0.3515 0.3515 0.9362 -19.1043 188.0593)" class="st17" width="5.2" height="47.7"/>
			
				<ellipse transform="matrix(0.9362 -0.3515 0.3515 0.9362 -12.0194 183.793)" class="st16" cx="500.2" cy="125" rx="2.6" ry="2.6"/>
			
				<ellipse transform="matrix(0.9372 -0.3489 0.3489 0.9372 -11.978 182.2987)" class="st12" cx="500.1" cy="124.4" rx="2.6" ry="2.6"/>
			
				<ellipse transform="matrix(0.9362 -0.3515 0.3515 0.9362 -11.7846 183.6803)" class="st13" cx="500" cy="124.3" rx="2.2" ry="2.2"/>
			
				<rect x="516.1" y="158.9" transform="matrix(0.9362 -0.3515 0.3515 0.9362 -29.7923 194.4094)" class="st12" width="8.9" height="40.7"/>
			
				<rect x="494.6" y="127" transform="matrix(0.9362 -0.3515 0.3515 0.9362 -21.2965 184.3892)" class="st17" width="5.2" height="47.7"/>
			
				<ellipse transform="matrix(0.9362 -0.3515 0.3515 0.9362 -14.203 180.1619)" class="st16" cx="489.1" cy="129.2" rx="2.6" ry="2.6"/>
			
				<ellipse transform="matrix(0.9362 -0.3515 0.3515 0.9362 -13.9767 180.0102)" class="st12" cx="488.8" cy="128.5" rx="2.6" ry="2.6"/>
			
				<ellipse transform="matrix(0.9362 -0.3515 0.3515 0.9362 -13.9767 180.0102)" class="st13" cx="488.8" cy="128.5" rx="2.2" ry="2.2"/>
			
				<rect x="505" y="163.3" transform="matrix(0.9372 -0.3489 0.3489 0.9372 -32.0764 189.3047)" class="st12" width="9" height="40.8"/>
			
				<ellipse transform="matrix(4.203350e-02 -0.9991 0.9991 4.203350e-02 288.2178 685.6379)" class="st18" cx="501.7" cy="192.5" rx="30.9" ry="31.1"/>
			
				<ellipse transform="matrix(4.206800e-02 -0.9991 0.9991 4.206800e-02 288.2005 685.6304)" class="st19" cx="501.7" cy="192.5" rx="30.1" ry="30.3"/>
			
				<ellipse transform="matrix(4.207054e-02 -0.9991 0.9991 4.207054e-02 288.1994 685.6297)" cx="501.7" cy="192.5" rx="22.6" ry="22.8"/>
			
				<ellipse transform="matrix(4.205313e-02 -0.9991 0.9991 4.205313e-02 288.2081 685.6336)" class="st1" cx="501.7" cy="192.5" rx="21.5" ry="21.7"/>
			
				<ellipse transform="matrix(4.203225e-02 -0.9991 0.9991 4.203225e-02 288.2183 685.6379)" class="st20" cx="501.7" cy="192.5" rx="20.4" ry="20.6"/>
			
				<ellipse transform="matrix(4.205140e-02 -0.9991 0.9991 4.205140e-02 288.2088 685.6338)" class="st21" cx="501.7" cy="192.5" rx="12.7" ry="12.8"/>
			
				<ellipse transform="matrix(4.208967e-02 -0.9991 0.9991 4.208967e-02 288.1899 685.6256)" class="st22" cx="501.7" cy="192.5" rx="11.6" ry="11.7"/>
			
				<ellipse transform="matrix(4.205140e-02 -0.9991 0.9991 4.205140e-02 399.7005 827.1099)" class="st18" cx="631.2" cy="205.1" rx="17.8" ry="17.9"/>
			
				<ellipse transform="matrix(4.205140e-02 -0.9991 0.9991 4.205140e-02 399.7005 827.1099)" class="st19" cx="631.2" cy="205.1" rx="17.3" ry="17.4"/>
			
				<ellipse transform="matrix(4.205140e-02 -0.9991 0.9991 4.205140e-02 399.7005 827.1099)" cx="631.2" cy="205.1" rx="13" ry="13.1"/>
			
				<ellipse transform="matrix(4.205140e-02 -0.9991 0.9991 4.205140e-02 399.7005 827.1099)" class="st1" cx="631.2" cy="205.1" rx="12.4" ry="12.5"/>
			
				<ellipse transform="matrix(4.205140e-02 -0.9991 0.9991 4.205140e-02 399.7005 827.1099)" class="st20" cx="631.2" cy="205.1" rx="11.7" ry="11.8"/>
			
				<ellipse transform="matrix(3.996812e-02 -0.9992 0.9992 3.996812e-02 401.1429 827.0372)" class="st21" cx="631" cy="204.8" rx="7.3" ry="7.4"/>
			
				<ellipse transform="matrix(4.205136e-02 -0.9991 0.9991 4.205136e-02 399.7005 827.1099)" class="st22" cx="631.2" cy="205.1" rx="6.7" ry="6.7"/>
		</g>
	</g>
</g>
<g id="Layer_6">
</g>
<g id="Layer_8" class="st23">
	
		<linearGradient id="SVGID_6_" gradientUnits="userSpaceOnUse" x1="400" y1="148" x2="400" y2="398" gradientTransform="matrix(1 0 0 1 0 -148)">
		<stop  offset="0" style="stop-color:#666666"/>
		<stop  offset="1" style="stop-color:#333333"/>
	</linearGradient>
	<rect class="st24" width="800" height="250"/>
</g>
<g>
	<g>
		<rect x="570.7" y="36.3" class="st1" width="33.7" height="33.7"/>
		<rect x="570.7" y="70" width="33.7" height="33.7"/>
		<rect x="604.5" y="70.1" class="st1" width="33.7" height="33.7"/>
		<rect x="604.5" y="36.3" width="33.7" height="33.7"/>
		<rect x="638.2" y="36.3" class="st1" width="33.7" height="33.7"/>
		<rect x="638.2" y="70" width="33.7" height="33.7"/>
		<rect x="672" y="70.1" class="st1" width="33.7" height="33.7"/>
		<rect x="672" y="36.3" width="33.7" height="33.7"/>
		<rect x="705.7" y="36.3" class="st1" width="33.7" height="33.7"/>
		<rect x="705.7" y="70" width="33.7" height="33.7"/>
		<rect x="739.5" y="70.1" class="st1" width="33.7" height="33.7"/>
		<rect x="739.5" y="36.3" width="33.7" height="33.7"/>
	</g>
	<g>
		<g>
			<g>
				<path class="st25" d="M620,84.1c-0.5,0-1.1,0-1.9-0.1c-0.8-0.1-1.6-0.2-2.4-0.4c-0.9-0.2-1.8-0.4-2.6-0.7
					c-0.9-0.3-1.7-0.6-2.5-1s-1.5-0.9-2-1.4c-0.6-0.7-0.9-1.4-0.9-2.3s0.3-1.7,1-2.4c0.7-0.7,1.5-1.1,2.4-1.1c0.6,0,1.1,0.1,1.6,0.4
					c0.6,0.3,1.2,0.6,1.8,0.9c0.6,0.2,1.2,0.4,1.8,0.6s1.2,0.3,1.8,0.4s1.3,0.1,2,0.1c0.4,0,1,0,1.6-0.1s1.1-0.2,1.6-0.3
					c0.5-0.2,0.8-0.4,1.2-0.7c0.1-0.1,0.3-0.3,0.3-0.8c0-0.3-0.1-0.7-0.7-1c-0.7-0.4-1.6-0.8-2.7-1.1c-1.1-0.4-2.4-0.7-3.7-1.1
					c-1.4-0.4-2.8-0.9-4-1.6c-1.3-0.7-2.3-1.6-3.2-2.7c-0.9-1.2-1.4-2.7-1.4-4.6c0-1.6,0.4-3,1.2-4.1c0.7-1.1,1.7-1.9,2.9-2.5
					c1.1-0.6,2.3-1,3.7-1.2c1.3-0.2,2.6-0.3,3.8-0.3c0.6,0,1.3,0,2.1,0.1s1.6,0.2,2.4,0.3c0.8,0.1,1.6,0.3,2.3,0.5
					c0.8,0.2,1.5,0.5,2.1,0.7c0.6,0.3,1.1,0.7,1.5,1.1c0.4,0.5,0.6,1.2,0.6,2c0,0.9-0.3,1.8-1,2.4s-1.5,1-2.4,1
					c-0.4,0-0.8-0.1-1.3-0.3c-1-0.4-2.1-0.7-3.1-0.9s-2.1-0.3-3.2-0.3c-0.4,0-0.9,0-1.5,0c-0.5,0-1.1,0.1-1.6,0.2
					c-0.4,0.1-0.8,0.3-1.1,0.5c-0.1,0.1-0.2,0.2-0.2,0.6c0,0.1,0,0.3,0.2,0.5c0.2,0.3,0.6,0.5,1,0.8c0.4,0.3,1,0.5,1.5,0.7
					c0.6,0.2,1.2,0.4,1.8,0.6s1.1,0.3,1.6,0.5c0.5,0.1,0.9,0.3,1.2,0.3c1,0.3,2,0.7,3,1.1s1.9,0.9,2.7,1.6c0.8,0.6,1.4,1.5,1.9,2.4
					c0.5,1,0.7,2.1,0.7,3.4c0,1.7-0.4,3.2-1.1,4.4c-0.7,1.1-1.7,2.1-2.9,2.8c-1.1,0.7-2.4,1.1-3.8,1.4
					C622.7,83.9,621.3,84.1,620,84.1z"/>
				<path d="M620.6,56c0.6,0,1.3,0,2.1,0.1s1.5,0.2,2.3,0.3s1.5,0.3,2.3,0.5c0.7,0.2,1.4,0.4,1.9,0.7c0.4,0.2,0.8,0.5,1.1,0.9
					s0.4,0.8,0.4,1.3c0,0.7-0.2,1.3-0.7,1.7c-0.5,0.5-1.1,0.7-1.7,0.7c-0.3,0-0.6-0.1-0.9-0.2c-1.1-0.4-2.2-0.7-3.2-0.9
					c-1.1-0.2-2.2-0.3-3.4-0.3c-0.4,0-0.9,0-1.5,0s-1.2,0.1-1.8,0.3s-1.1,0.4-1.5,0.7s-0.6,0.8-0.6,1.4c0,0.4,0.2,0.8,0.5,1.2
					s0.7,0.7,1.2,1s1.1,0.6,1.7,0.8c0.6,0.2,1.2,0.4,1.8,0.6s1.1,0.3,1.6,0.5c0.5,0.1,0.9,0.3,1.2,0.3c1,0.3,1.9,0.7,2.9,1
					c0.9,0.4,1.7,0.8,2.4,1.4s1.2,1.3,1.7,2.1c0.4,0.8,0.6,1.8,0.6,3c0,1.5-0.3,2.8-1,3.8s-1.5,1.8-2.5,2.4s-2.2,1-3.5,1.3
					c-1.3,0.2-2.6,0.4-3.9,0.4c-0.4,0-1,0-1.8-0.1c-0.7-0.1-1.5-0.2-2.3-0.4c-0.8-0.2-1.7-0.4-2.5-0.6c-0.8-0.3-1.6-0.6-2.3-0.9
					c-0.7-0.4-1.3-0.8-1.7-1.2c-0.4-0.5-0.7-1-0.7-1.6s0.2-1.2,0.7-1.7s1-0.7,1.7-0.7c0.4,0,0.8,0.1,1.1,0.3
					c0.7,0.4,1.3,0.7,1.9,0.9c0.6,0.3,1.3,0.5,1.9,0.6c0.6,0.2,1.3,0.3,1.9,0.4c0.7,0.1,1.4,0.1,2.1,0.1c0.5,0,1,0,1.7-0.1
					c0.6-0.1,1.3-0.2,1.8-0.4c0.6-0.2,1.1-0.5,1.5-0.9s0.6-0.9,0.6-1.5c0-0.8-0.4-1.4-1.2-1.9s-1.7-0.9-2.9-1.2
					c-1.1-0.4-2.4-0.7-3.8-1.1c-1.4-0.4-2.6-0.9-3.8-1.5c-1.1-0.6-2.1-1.4-2.9-2.5c-0.8-1-1.2-2.4-1.2-4c0-1.4,0.3-2.6,1-3.6
					s1.5-1.7,2.5-2.2s2.2-0.9,3.4-1.1C618.2,56.1,619.5,56,620.6,56 M620.6,54c-1.3,0-2.6,0.1-4,0.3c-1.5,0.2-2.8,0.7-4,1.3
					c-1.3,0.7-2.4,1.6-3.2,2.8c-0.9,1.3-1.3,2.9-1.3,4.7c0,2.1,0.5,3.9,1.6,5.2c0.9,1.2,2.1,2.3,3.5,3c1.3,0.7,2.7,1.3,4.2,1.7
					c1.3,0.4,2.6,0.7,3.7,1.1c1,0.3,1.8,0.6,2.4,1c0.1,0.1,0.2,0.1,0.2,0.1l0,0c0,0,0,0,0,0.1c-0.2,0.2-0.5,0.3-0.8,0.4
					c-0.4,0.1-0.9,0.2-1.4,0.3c-0.6,0.1-1.1,0.1-1.5,0.1c-0.7,0-1.3,0-1.9-0.1c-0.6-0.1-1.1-0.2-1.7-0.3c-0.5-0.1-1.1-0.3-1.6-0.6
					c-0.6-0.2-1.1-0.5-1.7-0.8c-0.7-0.4-1.4-0.6-2.1-0.6c-1.2,0-2.3,0.5-3.1,1.4s-1.3,1.9-1.3,3.1c0,1.1,0.4,2.1,1.2,2.9
					c0.6,0.6,1.4,1.2,2.2,1.6s1.7,0.8,2.6,1c0.9,0.3,1.8,0.5,2.7,0.7s1.7,0.3,2.5,0.4s1.5,0.1,2,0.1c1.4,0,2.8-0.1,4.2-0.4
					c1.5-0.3,2.9-0.8,4.1-1.5c1.3-0.8,2.4-1.8,3.2-3.1c0.9-1.3,1.3-3,1.3-4.9c0-1.5-0.3-2.8-0.8-3.9s-1.3-2-2.2-2.7
					c-0.8-0.7-1.8-1.3-2.9-1.7c-1-0.4-2-0.8-3-1.1l0,0l0,0c-0.3-0.1-0.7-0.2-1.2-0.3c-0.5-0.1-1-0.3-1.6-0.5
					c-0.5-0.2-1.1-0.4-1.7-0.6c-0.5-0.2-1-0.4-1.4-0.6c-0.2-0.1-0.4-0.3-0.6-0.4c0.1-0.1,0.3-0.1,0.5-0.2c0.4-0.1,0.9-0.2,1.3-0.2
					c0.6,0,1.1,0,1.5,0c1,0,2,0.1,3,0.3s2,0.5,3,0.8c0.6,0.2,1.1,0.3,1.6,0.3c1.2,0,2.3-0.5,3.2-1.3c0.9-0.9,1.3-1.9,1.3-3.2
					c0-1-0.3-1.9-0.9-2.6c-0.5-0.6-1.1-1.1-1.8-1.4c-0.7-0.3-1.4-0.6-2.3-0.8c-0.8-0.2-1.6-0.4-2.4-0.5c-0.8-0.2-1.7-0.3-2.5-0.3
					C622,54.1,621.3,54,620.6,54L620.6,54z"/>
			</g>
			<g>
				<path class="st25" d="M644.9,83.9c-1,0-1.9-0.4-2.6-1.1c-0.7-0.7-1-1.6-1-2.6V62.4h-6.2c-1,0-1.8-0.3-2.4-1s-1-1.5-1-2.4
					s0.3-1.8,1-2.4c0.7-0.7,1.5-1,2.4-1h19.6c0.9,0,1.8,0.3,2.4,1c0.7,0.7,1,1.5,1,2.4s-0.4,1.8-1,2.4c-0.7,0.7-1.5,1-2.4,1h-6.2
					v17.9c0,1-0.4,1.9-1.1,2.6C646.7,83.5,645.9,83.9,644.9,83.9z"/>
				<path d="M654.7,56.5c0.7,0,1.3,0.2,1.7,0.7c0.5,0.5,0.7,1.1,0.7,1.7c0,0.7-0.2,1.3-0.7,1.7c-0.5,0.5-1.1,0.7-1.7,0.7h-7.2v18.9
					c0,0.7-0.3,1.4-0.8,1.9s-1.1,0.8-1.9,0.8s-1.3-0.3-1.8-0.8s-0.7-1.1-0.7-1.9V61.4h-7.2c-0.7,0-1.3-0.2-1.7-0.7s-0.7-1-0.7-1.7
					s0.2-1.3,0.7-1.7s1-0.7,1.7-0.7L654.7,56.5 M654.7,54.5h-19.6c-1.2,0-2.3,0.5-3.2,1.3c-0.8,0.9-1.3,1.9-1.3,3.1
					c0,1.2,0.4,2.3,1.3,3.1c0.8,0.8,1.9,1.3,3.1,1.3h5.2v16.9c0,1.3,0.5,2.4,1.3,3.3c0.9,0.9,2,1.4,3.3,1.4s2.4-0.5,3.3-1.3
					c0.9-0.9,1.3-2,1.3-3.3V63.4h5.2c1.2,0,2.3-0.4,3.1-1.3c0.9-0.8,1.3-1.9,1.3-3.2c0-1.2-0.5-2.3-1.3-3.2
					C657,54.9,655.9,54.5,654.7,54.5L654.7,54.5z"/>
			</g>
			<g>
				<path class="st25" d="M680.2,83.9c-0.7,0-1.3-0.2-1.9-0.5c-0.5-0.3-1-0.8-1.2-1.4l-1.9-4.2h-10l-1.9,4.2
					c-0.3,0.6-0.7,1.1-1.3,1.5c-0.6,0.3-1.2,0.5-1.8,0.5c-1,0-1.8-0.3-2.4-1c-0.7-0.7-1-1.5-1-2.4c0-0.5,0.1-1,0.3-1.4l10-21.9
					c0.3-0.6,0.7-1.1,1.2-1.4c0.6-0.4,1.2-0.6,1.8-0.6s1.3,0.2,1.8,0.5c0.6,0.4,1,0.8,1.3,1.5l10,21.9c0.2,0.5,0.3,1,0.3,1.4
					c0,0.9-0.3,1.8-1,2.4C682,83.5,681.1,83.9,680.2,83.9z M672.3,71.3l-2.1-4.7l-2.1,4.7H672.3z"/>
				<path d="M670.1,56.1c0.5,0,0.9,0.1,1.3,0.4c0.4,0.2,0.7,0.6,0.9,1l10,21.9c0.1,0.3,0.2,0.7,0.2,1c0,0.7-0.2,1.3-0.7,1.7
					s-1,0.7-1.7,0.7c-0.5,0-0.9-0.1-1.3-0.4c-0.4-0.2-0.7-0.6-0.9-1l-2.2-4.8h-11.3l-2.2,4.8c-0.2,0.4-0.5,0.8-0.9,1
					s-0.8,0.4-1.3,0.4c-0.7,0-1.3-0.2-1.7-0.7c-0.5-0.5-0.7-1.1-0.7-1.7c0-0.3,0.1-0.7,0.2-1l10-21.9c0.2-0.4,0.5-0.8,0.9-1
					C669.2,56.3,669.6,56.1,670.1,56.1 M666.5,72.3h7.3l-3.7-8.1L666.5,72.3 M670.1,54.1c-0.9,0-1.7,0.2-2.4,0.7s-1.2,1.1-1.6,1.9
					l-10,21.8c-0.3,0.6-0.4,1.2-0.4,1.8c0,1.2,0.5,2.3,1.3,3.2c0.9,0.9,1.9,1.3,3.2,1.3c0.9,0,1.6-0.2,2.4-0.7
					c0.7-0.5,1.3-1.1,1.6-1.9l1.6-3.6h8.7l1.6,3.6c0.4,0.8,0.9,1.4,1.6,1.9c0.7,0.5,1.5,0.7,2.4,0.7c1.2,0,2.3-0.5,3.1-1.3
					s1.3-1.9,1.3-3.1c0-0.6-0.1-1.2-0.3-1.7v-0.1v-0.1l-10-21.9c-0.4-0.8-1-1.5-1.7-1.9C671.7,54.4,670.9,54.1,670.1,54.1
					L670.1,54.1z M669.6,70.3l0.6-1.3l0.6,1.3H669.6L669.6,70.3z"/>
			</g>
			<g>
				<path class="st25" d="M706.3,83.9c-0.7,0-1.3-0.2-1.8-0.5c-0.6-0.3-1-0.8-1.3-1.4c-0.1-0.2-0.3-0.5-0.5-1l-0.8-1.7
					c-0.4-0.8-0.7-1.5-1.1-2.3c-0.4-0.8-0.8-1.5-1.1-2.2c-0.3-0.6-0.6-1.2-0.8-1.6c0-0.1-0.1-0.1-0.1-0.2h-5.5v7.3
					c0,1-0.4,1.9-1.1,2.6c-0.7,0.7-1.6,1-2.5,1c-1,0-1.9-0.3-2.5-1c-0.7-0.7-1-1.5-1-2.5V59.1c0-1,0.3-1.9,1-2.5
					c0.7-0.7,1.5-1,2.5-1h9.7c1.3,0,2.7,0.1,3.9,0.4c1.3,0.3,2.4,0.8,3.4,1.5s1.8,1.7,2.4,2.8c0.6,1.1,0.9,2.5,0.9,4.1
					c0,1.7-0.4,3.3-1.2,4.6c-0.6,1.1-1.6,2-2.7,2.6c0,0.1,0.1,0.1,0.1,0.2c0.3,0.5,0.6,1.1,0.9,1.7c0.3,0.6,0.6,1.3,1,1.9
					c0.3,0.7,0.6,1.3,0.9,1.9c0.3,0.6,0.5,1.2,0.7,1.7c0.2,0.6,0.3,1,0.3,1.4c0,1-0.3,1.8-1,2.5C708.1,83.5,707.3,83.9,706.3,83.9z
					 M700.1,66.6c0.8,0,1.4-0.2,1.9-0.6c0.3-0.2,0.6-0.6,0.6-1.5c0-1-0.4-1.4-0.6-1.6c-0.5-0.4-1.1-0.6-1.9-0.6h-6.8v4.3
					C693.3,66.6,700.1,66.6,700.1,66.6z"/>
				<path d="M699.4,56.5c1.3,0,2.5,0.1,3.7,0.4c1.2,0.3,2.2,0.7,3,1.4c0.9,0.6,1.5,1.4,2.1,2.4s0.8,2.2,0.8,3.6
					c0,1.5-0.4,2.9-1.1,4.1c-0.7,1.2-1.8,2.1-3.2,2.7c0.1,0.3,0.3,0.6,0.6,1.1s0.5,1,0.9,1.7c0.3,0.6,0.6,1.3,1,1.9s0.6,1.3,0.9,1.9
					c0.3,0.6,0.5,1.1,0.7,1.6s0.3,0.8,0.3,1c0,0.7-0.2,1.3-0.7,1.8s-1.1,0.7-1.8,0.7c-0.5,0-0.9-0.1-1.3-0.4c-0.4-0.2-0.7-0.6-0.9-1
					c-0.1-0.1-0.2-0.5-0.5-1s-0.5-1.1-0.9-1.8c-0.3-0.7-0.7-1.4-1.1-2.2c-0.4-0.8-0.7-1.5-1.1-2.1c-0.3-0.7-0.6-1.2-0.8-1.6
					s-0.3-0.7-0.3-0.7h-7.2v8.3c0,0.7-0.3,1.3-0.8,1.8s-1.1,0.7-1.8,0.7s-1.3-0.2-1.8-0.7s-0.7-1.1-0.7-1.8V59.1
					c0-0.7,0.2-1.3,0.7-1.8s1.1-0.7,1.8-0.7L699.4,56.5 M692.3,67.6h7.8c1,0,1.8-0.3,2.5-0.8s1.1-1.3,1.1-2.3s-0.3-1.8-1-2.4
					c-0.7-0.5-1.5-0.8-2.5-0.8h-7.8L692.3,67.6 M699.4,54.5h-9.7c-1.3,0-2.4,0.5-3.3,1.3c-0.9,0.9-1.3,2-1.3,3.3v21.2
					c0,1.3,0.5,2.4,1.3,3.3c0.9,0.9,2,1.3,3.3,1.3c1.2,0,2.3-0.4,3.2-1.3s1.4-2,1.4-3.3V74h3.9c0.2,0.4,0.4,0.8,0.6,1.2
					c0.3,0.7,0.7,1.4,1.1,2.2c0.4,0.8,0.7,1.5,1.1,2.2v0.1l0.8,1.7c0.3,0.6,0.4,0.9,0.5,1c0.4,0.8,0.9,1.4,1.6,1.8
					c0.7,0.4,1.5,0.7,2.4,0.7c1.2,0,2.3-0.5,3.2-1.3c0.9-0.9,1.3-2,1.3-3.2c0-0.5-0.1-1-0.4-1.7c-0.2-0.5-0.4-1.1-0.7-1.7
					s-0.6-1.3-0.9-1.9c-0.3-0.7-0.7-1.3-1-2c-0.2-0.4-0.4-0.8-0.6-1.1c0.9-0.7,1.7-1.5,2.3-2.5c0.9-1.5,1.3-3.2,1.3-5.1
					c0-1.7-0.3-3.3-1-4.6s-1.5-2.3-2.7-3.1c-1.1-0.8-2.3-1.3-3.7-1.7C702.2,54.7,700.8,54.5,699.4,54.5L699.4,54.5z M694.3,63.3h5.8
					c0.7,0,1.1,0.2,1.3,0.4c0.1,0.1,0.3,0.2,0.3,0.8c0,0.5-0.2,0.7-0.2,0.7c-0.4,0.3-0.8,0.4-1.3,0.4h-5.8L694.3,63.3L694.3,63.3z"
					/>
			</g>
			<g>
				<path class="st25" d="M723.8,83.9c-1,0-1.9-0.4-2.6-1.1c-0.7-0.7-1-1.6-1-2.6V62.4H714c-1,0-1.8-0.3-2.4-1s-1-1.5-1-2.4
					s0.3-1.8,1-2.4c0.7-0.7,1.5-1,2.4-1h19.6c1,0,1.8,0.3,2.4,1c0.7,0.7,1,1.5,1,2.4s-0.4,1.8-1,2.4c-0.7,0.7-1.5,1-2.4,1h-6.2v17.9
					c0,1-0.4,1.9-1.1,2.6C725.7,83.5,724.8,83.9,723.8,83.9z"/>
				<path d="M733.6,56.5c0.7,0,1.3,0.2,1.7,0.7c0.5,0.5,0.7,1.1,0.7,1.7c0,0.7-0.2,1.3-0.7,1.7c-0.5,0.5-1.1,0.7-1.7,0.7h-7.2v18.9
					c0,0.7-0.3,1.4-0.8,1.9s-1.1,0.8-1.9,0.8s-1.3-0.3-1.8-0.8s-0.7-1.1-0.7-1.9V61.4H714c-0.7,0-1.3-0.2-1.7-0.7s-0.7-1-0.7-1.7
					s0.2-1.3,0.7-1.7s1-0.7,1.7-0.7L733.6,56.5 M733.6,54.5H714c-1.2,0-2.3,0.5-3.2,1.3c-0.8,0.9-1.3,1.9-1.3,3.1
					c0,1.2,0.4,2.3,1.3,3.1c0.8,0.8,1.9,1.3,3.1,1.3h5.2v16.9c0,1.3,0.5,2.4,1.3,3.3c0.9,0.9,2,1.4,3.3,1.4s2.4-0.5,3.3-1.3
					c0.9-0.9,1.3-2,1.3-3.3V63.4h5.2c1.2,0,2.3-0.4,3.1-1.3c0.9-0.8,1.3-1.9,1.3-3.2c0-1.2-0.5-2.3-1.3-3.2
					C735.9,54.9,734.8,54.5,733.6,54.5L733.6,54.5z"/>
			</g>
		</g>
	</g>
	<path class="st2" d="M778.4,231.1L778.4,231.1c-2.9,0-5.2-2.3-5.2-5.2V31.3c0-2.9,2.3-5.2,5.2-5.2l0,0c2.9,0,5.2,2.3,5.2,5.2v194.6
		C783.6,228.8,781.2,231.1,778.4,231.1z"/>
</g>
</svg>
