<?xml version="1.0" encoding="utf-8"?>
<!-- Generator: Adobe Illustrator 25.0.1, SVG Export Plug-In . SVG Version: 6.00 Build 0)  -->
<svg version="1.1" id="Layer_1" xmlns="http://www.w3.org/2000/svg" xmlns:xlink="http://www.w3.org/1999/xlink" x="0px" y="0px"
	 viewBox="0 0 800 250" style="enable-background:new 0 0 800 250;" xml:space="preserve">
<style type="text/css">
	.st0{fill:#CDF5F9;}
	.st1{fill:#FFFFFF;}
	.st2{fill:#444444;}
	.st3{fill:#3B3B3B;}
	.st4{display:none;}
	.st5{display:inline;opacity:0.47;fill:url(#SVGID_1_);enable-background:new    ;}
	.st6{fill:#FF0000;}
	.st7{fill:#2D2D2D;}
	.st8{fill:#1813E5;}
	.st9{fill:#890E0E;}
	.st10{clip-path:url(#SVGID_3_);}
	.st11{fill:#F7E8D5;}
	.st12{fill:none;stroke:#106299;stroke-width:3;stroke-linecap:round;stroke-miterlimit:10;}
	.st13{fill:none;stroke:#890E0E;stroke-width:3;stroke-linecap:round;stroke-miterlimit:10;}
	.st14{fill:none;stroke:#87480F;stroke-width:3;stroke-linecap:round;stroke-miterlimit:10;}
	.st15{fill:#875C0F;}
	.st16{fill:#47300B;}
	.st17{fill:#3E8410;}
	.st18{fill:#CC9A0E;}
	.st19{fill:#113F82;}
	.st20{clip-path:url(#SVGID_7_);}
	.st21{opacity:0.15;enable-background:new    ;}
	.st22{fill:url(#SVGID_8_);}
	.st23{fill:url(#SVGID_9_);}
	.st24{fill:url(#SVGID_10_);}
	.st25{fill:#32323F;}
	.st26{fill:#474757;}
	.st27{fill:#DDDDDD;}
	.st28{fill:#BAC0D8;}
	.st29{fill:#ACAFBC;}
	.st30{fill:url(#SVGID_11_);}
	.st31{fill:url(#SVGID_12_);}
	.st32{fill:url(#SVGID_13_);}
	.st33{fill:url(#SVGID_14_);}
	.st34{fill:url(#SVGID_15_);}
	.st35{fill:url(#SVGID_16_);}
	.st36{fill:url(#SVGID_17_);}
	.st37{fill:url(#SVGID_18_);}
	.st38{fill:url(#SVGID_19_);}
</style>
<g>
	<g id="Layer_1_1_">
		<rect class="st0" width="800" height="250"/>
	</g>
	<g id="Layer_3">
		<g>
			<path class="st1" d="M713.8,64c-3-16.5-17.4-28.9-34.7-28.9c-4.8,0-9.4,1-13.6,2.7C658.7,28.2,647.6,22,635,22
				c-12.7,0-23.9,6.3-30.6,16c-4.7-3.3-10.3-5.3-16.5-5.3c-15.7,0-28.5,12.7-28.5,28.5c0,0.9,0,1.9,0.1,2.8H713.8z"/>
		</g>
		<g>
			<path class="st1" d="M414.4,94c2.2-12.1,12.8-21.4,25.6-21.4c3.6,0,7,0.7,10,2c5-7.1,13.2-11.7,22.5-11.7
				c9.4,0,17.6,4.7,22.6,11.8c3.4-2.4,7.6-3.9,12.2-3.9c11.6,0,21,9.4,21,21c0,0.7,0,1.4-0.1,2.1H414.4V94z"/>
		</g>
		<g>
			<path class="st1" d="M92.3,62.7c-6.2,0-11.8,2-16.5,5.3c-6.7-9.7-17.9-16-30.6-16c-12.6,0-23.7,6.2-30.5,15.8
				c-4.2-1.8-8.8-2.7-13.6-2.7c-0.4,0-0.7,0-1.1,0V94h120.6c0.1-0.9,0.1-1.9,0.1-2.8C120.8,75.5,108,62.7,92.3,62.7z"/>
		</g>
	</g>
	<path class="st2" d="M565.5,231.1L565.5,231.1c-2.9,0-5.2-2.3-5.2-5.2V31.3c0-2.9,2.3-5.2,5.2-5.2l0,0c2.9,0,5.2,2.3,5.2,5.2v194.6
		C570.7,228.8,568.4,231.1,565.5,231.1z"/>
	<g id="Layer_5">
		<rect y="220" class="st3" width="800" height="30"/>
		<rect x="15" y="220" class="st1" width="99" height="6"/>
		<rect x="221" y="220" class="st1" width="99" height="6"/>
		<rect x="429" y="220" class="st1" width="99" height="6"/>
		<rect x="635" y="220" class="st1" width="99" height="6"/>
	</g>
	<g id="Layer_6">
	</g>
	<g id="Layer_8" class="st4">
		
			<linearGradient id="SVGID_1_" gradientUnits="userSpaceOnUse" x1="400" y1="836" x2="400" y2="1086" gradientTransform="matrix(1 0 0 1 0 -836)">
			<stop  offset="0" style="stop-color:#666666"/>
			<stop  offset="1" style="stop-color:#333333"/>
		</linearGradient>
		<rect class="st5" width="800" height="250"/>
	</g>
	<g>
		<g>
			<rect x="570.7" y="36.3" class="st1" width="33.7" height="33.7"/>
			<rect x="570.7" y="70" width="33.7" height="33.7"/>
			<rect x="604.5" y="70.1" class="st1" width="33.7" height="33.7"/>
			<rect x="604.5" y="36.3" width="33.7" height="33.7"/>
			<rect x="638.2" y="36.3" class="st1" width="33.7" height="33.7"/>
			<rect x="638.2" y="70" width="33.7" height="33.7"/>
			<rect x="672" y="70.1" class="st1" width="33.7" height="33.7"/>
			<rect x="672" y="36.3" width="33.7" height="33.7"/>
			<rect x="705.7" y="36.3" class="st1" width="33.7" height="33.7"/>
			<rect x="705.7" y="70" width="33.7" height="33.7"/>
			<rect x="739.5" y="70.1" class="st1" width="33.7" height="33.7"/>
			<rect x="739.5" y="36.3" width="33.7" height="33.7"/>
		</g>
		<g>
			<g>
				<g>
					<path class="st6" d="M620,84.1c-0.5,0-1.1,0-1.9-0.1c-0.8-0.1-1.6-0.2-2.4-0.4c-0.9-0.2-1.8-0.4-2.6-0.7
						c-0.9-0.3-1.7-0.6-2.5-1s-1.5-0.9-2-1.4c-0.6-0.7-0.9-1.4-0.9-2.3s0.3-1.7,1-2.4c0.7-0.7,1.5-1.1,2.4-1.1
						c0.6,0,1.1,0.1,1.6,0.4c0.6,0.3,1.2,0.6,1.8,0.9c0.6,0.2,1.2,0.4,1.8,0.6s1.2,0.3,1.8,0.4s1.3,0.1,2,0.1c0.4,0,1,0,1.6-0.1
						s1.1-0.2,1.6-0.3c0.5-0.2,0.8-0.4,1.2-0.7c0.1-0.1,0.3-0.3,0.3-0.8c0-0.3-0.1-0.7-0.7-1c-0.7-0.4-1.6-0.8-2.7-1.1
						c-1.1-0.4-2.4-0.7-3.7-1.1c-1.4-0.4-2.8-0.9-4-1.6c-1.3-0.7-2.3-1.6-3.2-2.7c-0.9-1.2-1.4-2.7-1.4-4.6c0-1.6,0.4-3,1.2-4.1
						c0.7-1.1,1.7-1.9,2.9-2.5c1.1-0.6,2.3-1,3.7-1.2c1.3-0.2,2.6-0.3,3.8-0.3c0.6,0,1.3,0,2.1,0.1s1.6,0.2,2.4,0.3
						c0.8,0.1,1.6,0.3,2.3,0.5c0.8,0.2,1.5,0.5,2.1,0.7c0.6,0.3,1.1,0.7,1.5,1.1c0.4,0.5,0.6,1.2,0.6,2c0,0.9-0.3,1.8-1,2.4
						s-1.5,1-2.4,1c-0.4,0-0.8-0.1-1.3-0.3c-1-0.4-2.1-0.7-3.1-0.9s-2.1-0.3-3.2-0.3c-0.4,0-0.9,0-1.5,0c-0.5,0-1.1,0.1-1.6,0.2
						c-0.4,0.1-0.8,0.3-1.1,0.5c-0.1,0.1-0.2,0.2-0.2,0.6c0,0.1,0,0.3,0.2,0.5c0.2,0.3,0.6,0.5,1,0.8c0.4,0.3,1,0.5,1.5,0.7
						c0.6,0.2,1.2,0.4,1.8,0.6s1.1,0.3,1.6,0.5c0.5,0.1,0.9,0.3,1.2,0.3c1,0.3,2,0.7,3,1.1s1.9,0.9,2.7,1.6c0.8,0.6,1.4,1.5,1.9,2.4
						c0.5,1,0.7,2.1,0.7,3.4c0,1.7-0.4,3.2-1.1,4.4c-0.7,1.1-1.7,2.1-2.9,2.8c-1.1,0.7-2.4,1.1-3.8,1.4
						C622.7,83.9,621.3,84.1,620,84.1z"/>
					<path d="M620.6,56c0.6,0,1.3,0,2.1,0.1s1.5,0.2,2.3,0.3s1.5,0.3,2.3,0.5c0.7,0.2,1.4,0.4,1.9,0.7c0.4,0.2,0.8,0.5,1.1,0.9
						s0.4,0.8,0.4,1.3c0,0.7-0.2,1.3-0.7,1.7c-0.5,0.5-1.1,0.7-1.7,0.7c-0.3,0-0.6-0.1-0.9-0.2c-1.1-0.4-2.2-0.7-3.2-0.9
						c-1.1-0.2-2.2-0.3-3.4-0.3c-0.4,0-0.9,0-1.5,0s-1.2,0.1-1.8,0.3s-1.1,0.4-1.5,0.7s-0.6,0.8-0.6,1.4c0,0.4,0.2,0.8,0.5,1.2
						s0.7,0.7,1.2,1s1.1,0.6,1.7,0.8c0.6,0.2,1.2,0.4,1.8,0.6s1.1,0.3,1.6,0.5c0.5,0.1,0.9,0.3,1.2,0.3c1,0.3,1.9,0.7,2.9,1
						c0.9,0.4,1.7,0.8,2.4,1.4s1.2,1.3,1.7,2.1c0.4,0.8,0.6,1.8,0.6,3c0,1.5-0.3,2.8-1,3.8s-1.5,1.8-2.5,2.4s-2.2,1-3.5,1.3
						c-1.3,0.2-2.6,0.4-3.9,0.4c-0.4,0-1,0-1.8-0.1c-0.7-0.1-1.5-0.2-2.3-0.4c-0.8-0.2-1.7-0.4-2.5-0.6c-0.8-0.3-1.6-0.6-2.3-0.9
						c-0.7-0.4-1.3-0.8-1.7-1.2c-0.4-0.5-0.7-1-0.7-1.6s0.2-1.2,0.7-1.7s1-0.7,1.7-0.7c0.4,0,0.8,0.1,1.1,0.3
						c0.7,0.4,1.3,0.7,1.9,0.9c0.6,0.3,1.3,0.5,1.9,0.6c0.6,0.2,1.3,0.3,1.9,0.4c0.7,0.1,1.4,0.1,2.1,0.1c0.5,0,1,0,1.7-0.1
						c0.6-0.1,1.3-0.2,1.8-0.4c0.6-0.2,1.1-0.5,1.5-0.9s0.6-0.9,0.6-1.5c0-0.8-0.4-1.4-1.2-1.9s-1.7-0.9-2.9-1.2
						c-1.1-0.4-2.4-0.7-3.8-1.1c-1.4-0.4-2.6-0.9-3.8-1.5c-1.1-0.6-2.1-1.4-2.9-2.5c-0.8-1-1.2-2.4-1.2-4c0-1.4,0.3-2.6,1-3.6
						s1.5-1.7,2.5-2.2s2.2-0.9,3.4-1.1C618.2,56.1,619.5,56,620.6,56 M620.6,54c-1.3,0-2.6,0.1-4,0.3c-1.5,0.2-2.8,0.7-4,1.3
						c-1.3,0.7-2.4,1.6-3.2,2.8c-0.9,1.3-1.3,2.9-1.3,4.7c0,2.1,0.5,3.9,1.6,5.2c0.9,1.2,2.1,2.3,3.5,3c1.3,0.7,2.7,1.3,4.2,1.7
						c1.3,0.4,2.6,0.7,3.7,1.1c1,0.3,1.8,0.6,2.4,1c0.1,0.1,0.2,0.1,0.2,0.1l0,0c0,0,0,0,0,0.1c-0.2,0.2-0.5,0.3-0.8,0.4
						c-0.4,0.1-0.9,0.2-1.4,0.3c-0.6,0.1-1.1,0.1-1.5,0.1c-0.7,0-1.3,0-1.9-0.1c-0.6-0.1-1.1-0.2-1.7-0.3c-0.5-0.1-1.1-0.3-1.6-0.6
						c-0.6-0.2-1.1-0.5-1.7-0.8c-0.7-0.4-1.4-0.6-2.1-0.6c-1.2,0-2.3,0.5-3.1,1.4s-1.3,1.9-1.3,3.1c0,1.1,0.4,2.1,1.2,2.9
						c0.6,0.6,1.4,1.2,2.2,1.6s1.7,0.8,2.6,1c0.9,0.3,1.8,0.5,2.7,0.7s1.7,0.3,2.5,0.4s1.5,0.1,2,0.1c1.4,0,2.8-0.1,4.2-0.4
						c1.5-0.3,2.9-0.8,4.1-1.5c1.3-0.8,2.4-1.8,3.2-3.1c0.9-1.3,1.3-3,1.3-4.9c0-1.5-0.3-2.8-0.8-3.9s-1.3-2-2.2-2.7
						c-0.8-0.7-1.8-1.3-2.9-1.7c-1-0.4-2-0.8-3-1.1l0,0l0,0c-0.3-0.1-0.7-0.2-1.2-0.3c-0.5-0.1-1-0.3-1.6-0.5
						c-0.5-0.2-1.1-0.4-1.7-0.6c-0.5-0.2-1-0.4-1.4-0.6c-0.2-0.1-0.4-0.3-0.6-0.4c0.1-0.1,0.3-0.1,0.5-0.2c0.4-0.1,0.9-0.2,1.3-0.2
						c0.6,0,1.1,0,1.5,0c1,0,2,0.1,3,0.3s2,0.5,3,0.8c0.6,0.2,1.1,0.3,1.6,0.3c1.2,0,2.3-0.5,3.2-1.3c0.9-0.9,1.3-1.9,1.3-3.2
						c0-1-0.3-1.9-0.9-2.6c-0.5-0.6-1.1-1.1-1.8-1.4c-0.7-0.3-1.4-0.6-2.3-0.8c-0.8-0.2-1.6-0.4-2.4-0.5c-0.8-0.2-1.7-0.3-2.5-0.3
						C622,54.1,621.3,54,620.6,54L620.6,54z"/>
				</g>
				<g>
					<path class="st6" d="M644.9,83.9c-1,0-1.9-0.4-2.6-1.1c-0.7-0.7-1-1.6-1-2.6V62.4h-6.2c-1,0-1.8-0.3-2.4-1s-1-1.5-1-2.4
						s0.3-1.8,1-2.4c0.7-0.7,1.5-1,2.4-1h19.6c0.9,0,1.8,0.3,2.4,1c0.7,0.7,1,1.5,1,2.4s-0.4,1.8-1,2.4c-0.7,0.7-1.5,1-2.4,1h-6.2
						v17.9c0,1-0.4,1.9-1.1,2.6C646.7,83.5,645.9,83.9,644.9,83.9z"/>
					<path d="M654.7,56.5c0.7,0,1.3,0.2,1.7,0.7c0.5,0.5,0.7,1.1,0.7,1.7c0,0.7-0.2,1.3-0.7,1.7c-0.5,0.5-1.1,0.7-1.7,0.7h-7.2v18.9
						c0,0.7-0.3,1.4-0.8,1.9s-1.1,0.8-1.9,0.8s-1.3-0.3-1.8-0.8s-0.7-1.1-0.7-1.9V61.4h-7.2c-0.7,0-1.3-0.2-1.7-0.7s-0.7-1-0.7-1.7
						s0.2-1.3,0.7-1.7s1-0.7,1.7-0.7L654.7,56.5 M654.7,54.5h-19.6c-1.2,0-2.3,0.5-3.2,1.3c-0.8,0.9-1.3,1.9-1.3,3.1
						c0,1.2,0.4,2.3,1.3,3.1c0.8,0.8,1.9,1.3,3.1,1.3h5.2v16.9c0,1.3,0.5,2.4,1.3,3.3c0.9,0.9,2,1.4,3.3,1.4s2.4-0.5,3.3-1.3
						c0.9-0.9,1.3-2,1.3-3.3V63.4h5.2c1.2,0,2.3-0.4,3.1-1.3c0.9-0.8,1.3-1.9,1.3-3.2c0-1.2-0.5-2.3-1.3-3.2
						C657,54.9,655.9,54.5,654.7,54.5L654.7,54.5z"/>
				</g>
				<g>
					<path class="st6" d="M680.2,83.9c-0.7,0-1.3-0.2-1.9-0.5c-0.5-0.3-1-0.8-1.2-1.4l-1.9-4.2h-10l-1.9,4.2
						c-0.3,0.6-0.7,1.1-1.3,1.5c-0.6,0.3-1.2,0.5-1.8,0.5c-1,0-1.8-0.3-2.4-1c-0.7-0.7-1-1.5-1-2.4c0-0.5,0.1-1,0.3-1.4l10-21.9
						c0.3-0.6,0.7-1.1,1.2-1.4c0.6-0.4,1.2-0.6,1.8-0.6s1.3,0.2,1.8,0.5c0.6,0.4,1,0.8,1.3,1.5l10,21.9c0.2,0.5,0.3,1,0.3,1.4
						c0,0.9-0.3,1.8-1,2.4C682,83.5,681.1,83.9,680.2,83.9z M672.3,71.3l-2.1-4.7l-2.1,4.7H672.3z"/>
					<path d="M670.1,56.1c0.5,0,0.9,0.1,1.3,0.4c0.4,0.2,0.7,0.6,0.9,1l10,21.9c0.1,0.3,0.2,0.7,0.2,1c0,0.7-0.2,1.3-0.7,1.7
						s-1,0.7-1.7,0.7c-0.5,0-0.9-0.1-1.3-0.4c-0.4-0.2-0.7-0.6-0.9-1l-2.2-4.8h-11.3l-2.2,4.8c-0.2,0.4-0.5,0.8-0.9,1
						s-0.8,0.4-1.3,0.4c-0.7,0-1.3-0.2-1.7-0.7c-0.5-0.5-0.7-1.1-0.7-1.7c0-0.3,0.1-0.7,0.2-1l10-21.9c0.2-0.4,0.5-0.8,0.9-1
						C669.2,56.3,669.6,56.1,670.1,56.1 M666.5,72.3h7.3l-3.7-8.1L666.5,72.3 M670.1,54.1c-0.9,0-1.7,0.2-2.4,0.7s-1.2,1.1-1.6,1.9
						l-10,21.8c-0.3,0.6-0.4,1.2-0.4,1.8c0,1.2,0.5,2.3,1.3,3.2c0.9,0.9,1.9,1.3,3.2,1.3c0.9,0,1.6-0.2,2.4-0.7
						c0.7-0.5,1.3-1.1,1.6-1.9l1.6-3.6h8.7l1.6,3.6c0.4,0.8,0.9,1.4,1.6,1.9c0.7,0.5,1.5,0.7,2.4,0.7c1.2,0,2.3-0.5,3.1-1.3
						s1.3-1.9,1.3-3.1c0-0.6-0.1-1.2-0.3-1.7v-0.1v-0.1l-10-21.9c-0.4-0.8-1-1.5-1.7-1.9C671.7,54.4,670.9,54.1,670.1,54.1
						L670.1,54.1z M669.6,70.3l0.6-1.3l0.6,1.3H669.6L669.6,70.3z"/>
				</g>
				<g>
					<path class="st6" d="M706.3,83.9c-0.7,0-1.3-0.2-1.8-0.5c-0.6-0.3-1-0.8-1.3-1.4c-0.1-0.2-0.3-0.5-0.5-1l-0.8-1.7
						c-0.4-0.8-0.7-1.5-1.1-2.3c-0.4-0.8-0.8-1.5-1.1-2.2c-0.3-0.6-0.6-1.2-0.8-1.6c0-0.1-0.1-0.1-0.1-0.2h-5.5v7.3
						c0,1-0.4,1.9-1.1,2.6c-0.7,0.7-1.6,1-2.5,1c-1,0-1.9-0.3-2.5-1c-0.7-0.7-1-1.5-1-2.5V59.1c0-1,0.3-1.9,1-2.5
						c0.7-0.7,1.5-1,2.5-1h9.7c1.3,0,2.7,0.1,3.9,0.4c1.3,0.3,2.4,0.8,3.4,1.5s1.8,1.7,2.4,2.8c0.6,1.1,0.9,2.5,0.9,4.1
						c0,1.7-0.4,3.3-1.2,4.6c-0.6,1.1-1.6,2-2.7,2.6c0,0.1,0.1,0.1,0.1,0.2c0.3,0.5,0.6,1.1,0.9,1.7c0.3,0.6,0.6,1.3,1,1.9
						c0.3,0.7,0.6,1.3,0.9,1.9c0.3,0.6,0.5,1.2,0.7,1.7c0.2,0.6,0.3,1,0.3,1.4c0,1-0.3,1.8-1,2.5C708.1,83.5,707.3,83.9,706.3,83.9z
						 M700.1,66.6c0.8,0,1.4-0.2,1.9-0.6c0.3-0.2,0.6-0.6,0.6-1.5c0-1-0.4-1.4-0.6-1.6c-0.5-0.4-1.1-0.6-1.9-0.6h-6.8v4.3
						C693.3,66.6,700.1,66.6,700.1,66.6z"/>
					<path d="M699.4,56.5c1.3,0,2.5,0.1,3.7,0.4c1.2,0.3,2.2,0.7,3,1.4c0.9,0.6,1.5,1.4,2.1,2.4s0.8,2.2,0.8,3.6
						c0,1.5-0.4,2.9-1.1,4.1c-0.7,1.2-1.8,2.1-3.2,2.7c0.1,0.3,0.3,0.6,0.6,1.1s0.5,1,0.9,1.7c0.3,0.6,0.6,1.3,1,1.9
						s0.6,1.3,0.9,1.9c0.3,0.6,0.5,1.1,0.7,1.6s0.3,0.8,0.3,1c0,0.7-0.2,1.3-0.7,1.8s-1.1,0.7-1.8,0.7c-0.5,0-0.9-0.1-1.3-0.4
						c-0.4-0.2-0.7-0.6-0.9-1c-0.1-0.1-0.2-0.5-0.5-1s-0.5-1.1-0.9-1.8c-0.3-0.7-0.7-1.4-1.1-2.2c-0.4-0.8-0.7-1.5-1.1-2.1
						c-0.3-0.7-0.6-1.2-0.8-1.6s-0.3-0.7-0.3-0.7h-7.2v8.3c0,0.7-0.3,1.3-0.8,1.8s-1.1,0.7-1.8,0.7s-1.3-0.2-1.8-0.7
						s-0.7-1.1-0.7-1.8V59.1c0-0.7,0.2-1.3,0.7-1.8s1.1-0.7,1.8-0.7L699.4,56.5 M692.3,67.6h7.8c1,0,1.8-0.3,2.5-0.8
						s1.1-1.3,1.1-2.3s-0.3-1.8-1-2.4c-0.7-0.5-1.5-0.8-2.5-0.8h-7.8L692.3,67.6 M699.4,54.5h-9.7c-1.3,0-2.4,0.5-3.3,1.3
						c-0.9,0.9-1.3,2-1.3,3.3v21.2c0,1.3,0.5,2.4,1.3,3.3c0.9,0.9,2,1.3,3.3,1.3c1.2,0,2.3-0.4,3.2-1.3s1.4-2,1.4-3.3V74h3.9
						c0.2,0.4,0.4,0.8,0.6,1.2c0.3,0.7,0.7,1.4,1.1,2.2c0.4,0.8,0.7,1.5,1.1,2.2v0.1l0.8,1.7c0.3,0.6,0.4,0.9,0.5,1
						c0.4,0.8,0.9,1.4,1.6,1.8c0.7,0.4,1.5,0.7,2.4,0.7c1.2,0,2.3-0.5,3.2-1.3c0.9-0.9,1.3-2,1.3-3.2c0-0.5-0.1-1-0.4-1.7
						c-0.2-0.5-0.4-1.1-0.7-1.7s-0.6-1.3-0.9-1.9c-0.3-0.7-0.7-1.3-1-2c-0.2-0.4-0.4-0.8-0.6-1.1c0.9-0.7,1.7-1.5,2.3-2.5
						c0.9-1.5,1.3-3.2,1.3-5.1c0-1.7-0.3-3.3-1-4.6s-1.5-2.3-2.7-3.1c-1.1-0.8-2.3-1.3-3.7-1.7C702.2,54.7,700.8,54.5,699.4,54.5
						L699.4,54.5z M694.3,63.3h5.8c0.7,0,1.1,0.2,1.3,0.4c0.1,0.1,0.3,0.2,0.3,0.8c0,0.5-0.2,0.7-0.2,0.7c-0.4,0.3-0.8,0.4-1.3,0.4
						h-5.8L694.3,63.3L694.3,63.3z"/>
				</g>
				<g>
					<path class="st6" d="M723.8,83.9c-1,0-1.9-0.4-2.6-1.1c-0.7-0.7-1-1.6-1-2.6V62.4H714c-1,0-1.8-0.3-2.4-1s-1-1.5-1-2.4
						s0.3-1.8,1-2.4c0.7-0.7,1.5-1,2.4-1h19.6c1,0,1.8,0.3,2.4,1c0.7,0.7,1,1.5,1,2.4s-0.4,1.8-1,2.4c-0.7,0.7-1.5,1-2.4,1h-6.2
						v17.9c0,1-0.4,1.9-1.1,2.6C725.7,83.5,724.8,83.9,723.8,83.9z"/>
					<path d="M733.6,56.5c0.7,0,1.3,0.2,1.7,0.7c0.5,0.5,0.7,1.1,0.7,1.7c0,0.7-0.2,1.3-0.7,1.7c-0.5,0.5-1.1,0.7-1.7,0.7h-7.2v18.9
						c0,0.7-0.3,1.4-0.8,1.9s-1.1,0.8-1.9,0.8s-1.3-0.3-1.8-0.8s-0.7-1.1-0.7-1.9V61.4H714c-0.7,0-1.3-0.2-1.7-0.7s-0.7-1-0.7-1.7
						s0.2-1.3,0.7-1.7s1-0.7,1.7-0.7L733.6,56.5 M733.6,54.5H714c-1.2,0-2.3,0.5-3.2,1.3c-0.8,0.9-1.3,1.9-1.3,3.1
						c0,1.2,0.4,2.3,1.3,3.1c0.8,0.8,1.9,1.3,3.1,1.3h5.2v16.9c0,1.3,0.5,2.4,1.3,3.3c0.9,0.9,2,1.4,3.3,1.4s2.4-0.5,3.3-1.3
						c0.9-0.9,1.3-2,1.3-3.3V63.4h5.2c1.2,0,2.3-0.4,3.1-1.3c0.9-0.8,1.3-1.9,1.3-3.2c0-1.2-0.5-2.3-1.3-3.2
						C735.9,54.9,734.8,54.5,733.6,54.5L733.6,54.5z"/>
				</g>
			</g>
		</g>
		<path class="st2" d="M778.4,231.1L778.4,231.1c-2.9,0-5.2-2.3-5.2-5.2V31.3c0-2.9,2.3-5.2,5.2-5.2l0,0c2.9,0,5.2,2.3,5.2,5.2
			v194.6C783.6,228.8,781.2,231.1,778.4,231.1z"/>
	</g>
</g>
<g id="Layer_2_1_">
	<g id="Premium">
		<g id="premium-mini-blue">
			
				<rect x="461.9" y="169.5" transform="matrix(4.205205e-02 -0.9991 0.9991 4.205205e-02 256.0928 661.9668)" class="st7" width="22.8" height="55.8"/>
			<rect x="570.3" y="188.5" class="st7" width="55.8" height="22.8"/>
			<path class="st8" d="M634.8,188c-0.8-9.8-5.8-15.2-15.4-17.1l-31.5-3.9l-15-20.2c-2.8-4.2-7.5-6.8-12.6-6.8h-80
				c-5.9,0-11.4,2.7-15.1,7.2l-17.7,21.9c-1.9,2.4-3.2,5.2-3.8,8.2l-4.3,21.4c-0.7,3.3,0.9,6.7,3.9,8.3l0.2,0.1
				c2.6,1.4,5.5,2.3,8.4,2.8c-2.6-9.6,3.1-19.4,12.6-22c9.6-2.6,19.4,3.1,22,12.6c0.9,3.4,0.8,6.9-0.3,10.3l102.4,2
				c-2.9-9.5,2.5-19.4,12-22.3c9.5-2.9,19.4,2.5,22.3,12c1.1,3.5,1,7.3-0.1,10.7c7-1.2,12.1-7.2,12.1-14.3L634.8,188z"/>
			<path class="st9" d="M634.8,188c-0.8-9.8-5.8-15.2-15.4-17.1l-31.5-3.9l-15-20.2c-2.8-4.2-7.5-6.8-12.6-6.8h-80
				c-5.9,0-11.4,2.7-15.1,7.2l-17.7,21.9c-1.9,2.4-3.2,5.2-3.8,8.2l-4.3,21.4c-0.7,3.3,0.9,6.7,3.9,8.3l0.2,0.1
				c2.6,1.4,5.5,2.3,8.4,2.8c-2.6-9.6,3.1-19.4,12.6-22c9.6-2.6,19.4,3.1,22,12.6c0.9,3.4,0.8,6.9-0.3,10.3l102.4,2
				c-2.9-9.5,2.5-19.4,12-22.3c9.5-2.9,19.4,2.5,22.3,12c1.1,3.5,1,7.3-0.1,10.7c7-1.2,12.1-7.2,12.1-14.3L634.8,188z"/>
			<g>
				<g>
					<g>
						<g>
							<defs>
								<path id="SVGID_2_" d="M634.8,188c-0.8-9.8-5.8-15.2-15.4-17.1l-31.5-3.9l-15-20.2c-2.8-4.2-7.5-6.8-12.6-6.8h-80
									c-5.9,0-11.4,2.7-15.1,7.2l-17.7,21.9c-1.9,2.4-3.2,5.2-3.8,8.2l-4.3,21.4c-0.7,3.3,0.9,6.7,3.9,8.3l0.2,0.1
									c2.6,1.4,5.5,2.3,8.4,2.8c-2.6-9.6,3.1-19.4,12.6-22c9.6-2.6,19.4,3.1,22,12.6c0.9,3.4,0.8,6.9-0.3,10.3l102.4,2
									c-2.9-9.5,2.5-19.4,12-22.3c9.5-2.9,19.4,2.5,22.3,12c1.1,3.5,1,7.3-0.1,10.7c7-1.2,12.1-7.2,12.1-14.3L634.8,188z"/>
							</defs>
							<clipPath id="SVGID_3_">
								<use xlink:href="#SVGID_2_"  style="overflow:visible;"/>
							</clipPath>
							<g class="st10">
								<g>
									<g>
										<path class="st11" d="M503.3,211.6h-34.6c-1.2,0-2.2-1-2.2-2.2v-4.7c0-1.2,1-2.2,2.2-2.2h34.6c1.2,0,2.2,1,2.2,2.2v4.7
											C505.6,210.6,504.6,211.6,503.3,211.6z"/>
										<path class="st12" d="M506,211.6h-37.3c-1.2,0-2.2-1-2.2-2.2v-4.7c0-1.2,1-2.2,2.2-2.2H506"/>
									</g>
									<g>
										<path class="st11" d="M506.4,201.4h-34.6c-1.2,0-2.2-1-2.2-2.2v-4.7c0-1.2,1-2.2,2.2-2.2h34.6c1.2,0,2.2,1,2.2,2.2v4.7
											C508.6,200.4,507.6,201.4,506.4,201.4z"/>
										<path class="st13" d="M509,201.4h-37.3c-1.2,0-2.2-1-2.2-2.2v-4.7c0-1.2,1-2.2,2.2-2.2H509"/>
									</g>
									<g>
										<path class="st11" d="M469,191.2h34.6c1.2,0,2.2-1,2.2-2.2v-4.7c0-1.2-1-2.2-2.2-2.2H469c-1.2,0-2.2,1-2.2,2.2v4.7
											C466.7,190.2,467.7,191.2,469,191.2z"/>
										<path class="st14" d="M466.3,191.2h37.3c1.2,0,2.2-1,2.2-2.2v-4.7c0-1.2-1-2.2-2.2-2.2h-37.3"/>
									</g>
									<g>
										<path class="st15" d="M508.5,181.5h-34.6c-1.2,0-2.2-1-2.2-2.2v-4.7c0-1.2,1-2.2,2.2-2.2h34.6c1.2,0,2.2,1,2.2,2.2v4.7
											C510.7,180.5,509.7,181.5,508.5,181.5z"/>
									</g>
									<rect x="503.4" y="172.5" class="st16" width="2.7" height="9.1"/>
									<rect x="476.6" y="172.5" class="st16" width="2.7" height="9.1"/>
									<ellipse class="st16" cx="491.1" cy="176.8" rx="4.8" ry="2.7"/>
								</g>
								<g>
									<g>
										<path class="st11" d="M443.5,211.6h28c1,0,1.8-0.8,1.8-1.8V206c0-1-0.8-1.8-1.8-1.8h-28c-1,0-1.8,0.8-1.8,1.8v3.8
											C441.7,210.8,442.5,211.6,443.5,211.6z"/>
										<path class="st13" d="M441.3,211.6h30.2c1,0,1.8-0.8,1.8-1.8V206c0-1-0.8-1.8-1.8-1.8h-30.2"/>
									</g>
									<g>
										<path class="st11" d="M441,203.3h28c1,0,1.8-0.8,1.8-1.8v-3.8c0-1-0.8-1.8-1.8-1.8h-28c-1,0-1.8,0.8-1.8,1.8v3.8
											C439.2,202.5,440,203.3,441,203.3z"/>
										<path class="st14" d="M438.9,203.3H469c1,0,1.8-0.8,1.8-1.8v-3.8c0-1-0.8-1.8-1.8-1.8h-30.2"/>
									</g>
									<g>
										<path class="st11" d="M471.3,195.1h-28c-1,0-1.8-0.8-1.8-1.8v-3.8c0-1,0.8-1.8,1.8-1.8h28c1,0,1.8,0.8,1.8,1.8v3.8
											C473.1,194.3,472.2,195.1,471.3,195.1z"/>
										<path class="st12" d="M473.4,195.1h-30.2c-1,0-1.8-0.8-1.8-1.8v-3.8c0-1,0.8-1.8,1.8-1.8h30.2"/>
									</g>
									<g>
										<path class="st17" d="M439.3,187.3h28c1,0,1.8-0.8,1.8-1.8v-3.8c0-1-0.8-1.8-1.8-1.8h-28c-1,0-1.8,0.8-1.8,1.8v3.8
											C437.5,186.5,438.3,187.3,439.3,187.3z"/>
									</g>
									
										<rect x="441.2" y="180" transform="matrix(-1 -4.539359e-11 4.539359e-11 -1 884.6577 367.3631)" class="st18" width="2.2" height="7.4"/>
									
										<rect x="462.9" y="180" transform="matrix(-1 -4.455293e-11 4.455293e-11 -1 927.9349 367.3631)" class="st18" width="2.2" height="7.4"/>
									<ellipse class="st18" cx="453.4" cy="183.5" rx="3.9" ry="2.2"/>
								</g>
								<g>
									<g>
										<path class="st11" d="M523.6,211.6h-21.5c-0.8,0-1.4-0.6-1.4-1.4v-2.9c0-0.8,0.6-1.4,1.4-1.4h21.5c0.8,0,1.4,0.6,1.4,1.4
											v2.9C525,211,524.4,211.6,523.6,211.6z"/>
										<path class="st13" d="M525.3,211.6h-23.1c-0.8,0-1.4-0.6-1.4-1.4v-2.9c0-0.8,0.6-1.4,1.4-1.4h23.1"/>
									</g>
									<g>
										<path class="st11" d="M525.5,205.3H504c-0.8,0-1.4-0.6-1.4-1.4V201c0-0.8,0.6-1.4,1.4-1.4h21.5c0.8,0,1.4,0.6,1.4,1.4v2.9
											C526.9,204.7,526.2,205.3,525.5,205.3z"/>
										<path class="st14" d="M527.1,205.3H504c-0.8,0-1.4-0.6-1.4-1.4V201c0-0.8,0.6-1.4,1.4-1.4h23.1"/>
									</g>
									<g>
										<path class="st11" d="M502.3,199h21.5c0.8,0,1.4-0.6,1.4-1.4v-2.9c0-0.8-0.6-1.4-1.4-1.4h-21.5c-0.8,0-1.4,0.6-1.4,1.4
											v2.9C500.9,198.4,501.5,199,502.3,199z"/>
										<path class="st12" d="M500.7,199h23.1c0.8,0,1.4-0.6,1.4-1.4v-2.9c0-0.8-0.6-1.4-1.4-1.4h-23.1"/>
									</g>
									<g>
										<path class="st19" d="M526.8,193h-21.5c-0.8,0-1.4-0.6-1.4-1.4v-2.9c0-0.8,0.6-1.4,1.4-1.4h21.5c0.8,0,1.4,0.6,1.4,1.4
											v2.9C528.2,192.4,527.6,193,526.8,193z"/>
									</g>
									<rect x="523.6" y="187.4" class="st18" width="1.7" height="5.6"/>
									<rect x="507.1" y="187.4" class="st18" width="1.7" height="5.6"/>
									<ellipse class="st18" cx="516" cy="190" rx="3" ry="1.7"/>
								</g>
							</g>
							<g class="st10">
								<g>
									<g>
										<path class="st11" d="M589,210.9h-34.6c-1.2,0-2.2-1-2.2-2.2V204c0-1.2,1-2.2,2.2-2.2H589c1.2,0,2.2,1,2.2,2.2v4.7
											C591.2,209.9,590.2,210.9,589,210.9z"/>
										<path class="st12" d="M591.6,210.9h-37.3c-1.2,0-2.2-1-2.2-2.2V204c0-1.2,1-2.2,2.2-2.2h37.3"/>
									</g>
									<g>
										<path class="st11" d="M592,200.7h-34.6c-1.2,0-2.2-1-2.2-2.2v-4.7c0-1.2,1-2.2,2.2-2.2H592c1.2,0,2.2,1,2.2,2.2v4.7
											C594.2,199.7,593.2,200.7,592,200.7z"/>
										<path class="st13" d="M594.7,200.7h-37.3c-1.2,0-2.2-1-2.2-2.2v-4.7c0-1.2,1-2.2,2.2-2.2h37.3"/>
									</g>
									<g>
										<path class="st11" d="M554.6,190.5h34.6c1.2,0,2.2-1,2.2-2.2v-4.7c0-1.2-1-2.2-2.2-2.2h-34.6c-1.2,0-2.2,1-2.2,2.2v4.7
											C552.4,189.5,553.4,190.5,554.6,190.5z"/>
										<path class="st14" d="M551.9,190.5h37.3c1.2,0,2.2-1,2.2-2.2v-4.7c0-1.2-1-2.2-2.2-2.2h-37.3"/>
									</g>
									<g>
										<path class="st15" d="M594.1,180.8h-34.6c-1.2,0-2.2-1-2.2-2.2V174c0-1.2,1-2.2,2.2-2.2h34.6c1.2,0,2.2,1,2.2,2.2v4.7
											C596.4,179.8,595.4,180.8,594.1,180.8z"/>
									</g>
									<rect x="589" y="171.8" class="st16" width="2.7" height="9.1"/>
									<rect x="562.3" y="171.8" class="st16" width="2.7" height="9.1"/>
									<ellipse class="st16" cx="576.7" cy="176.1" rx="4.8" ry="2.7"/>
								</g>
								<g>
									<g>
										<path class="st11" d="M529.1,210.9h28c1,0,1.8-0.8,1.8-1.8v-3.8c0-1-0.8-1.8-1.8-1.8h-28c-1,0-1.8,0.8-1.8,1.8v3.8
											C527.3,210.1,528.1,210.9,529.1,210.9z"/>
										<path class="st13" d="M526.9,210.9h30.2c1,0,1.8-0.8,1.8-1.8v-3.8c0-1-0.8-1.8-1.8-1.8h-30.2"/>
									</g>
									<g>
										<path class="st11" d="M526.7,202.6h28c1,0,1.8-0.8,1.8-1.8v-3.8c0-1-0.8-1.8-1.8-1.8h-28c-1,0-1.8,0.8-1.8,1.8v3.8
											C524.9,201.8,525.7,202.6,526.7,202.6z"/>
										<path class="st14" d="M524.5,202.6h30.2c1,0,1.8-0.8,1.8-1.8v-3.8c0-1-0.8-1.8-1.8-1.8h-30.2"/>
									</g>
									<g>
										<path class="st11" d="M556.9,194.4h-28c-1,0-1.8-0.8-1.8-1.8v-3.8c0-1,0.8-1.8,1.8-1.8h28c1,0,1.8,0.8,1.8,1.8v3.8
											C558.7,193.6,557.9,194.4,556.9,194.4z"/>
										<path class="st12" d="M559,194.4h-30.2c-1,0-1.8-0.8-1.8-1.8v-3.8c0-1,0.8-1.8,1.8-1.8H559"/>
									</g>
									<g>
										<path class="st17" d="M524.9,186.6h28c1,0,1.8-0.8,1.8-1.8v-3.8c0-1-0.8-1.8-1.8-1.8h-28c-1,0-1.8,0.8-1.8,1.8v3.8
											C523.1,185.8,523.9,186.6,524.9,186.6z"/>
									</g>
									
										<rect x="526.9" y="179.3" transform="matrix(-1 -4.539359e-11 4.539359e-11 -1 1055.9055 365.9665)" class="st18" width="2.2" height="7.4"/>
									
										<rect x="548.5" y="179.3" transform="matrix(-1 -4.455293e-11 4.455293e-11 -1 1099.1827 365.9665)" class="st18" width="2.2" height="7.4"/>
									<ellipse class="st18" cx="539" cy="182.8" rx="3.9" ry="2.2"/>
								</g>
								<g>
									<g>
										<path class="st11" d="M609.2,210.9h-21.5c-0.8,0-1.4-0.6-1.4-1.4v-2.9c0-0.8,0.6-1.4,1.4-1.4h21.5c0.8,0,1.4,0.6,1.4,1.4
											v2.9C610.6,210.3,610,210.9,609.2,210.9z"/>
										<path class="st13" d="M610.9,210.9h-23.1c-0.8,0-1.4-0.6-1.4-1.4v-2.9c0-0.8,0.6-1.4,1.4-1.4h23.1"/>
									</g>
									<g>
										<path class="st11" d="M611.1,204.6h-21.5c-0.8,0-1.4-0.6-1.4-1.4v-2.9c0-0.8,0.6-1.4,1.4-1.4h21.5c0.8,0,1.4,0.6,1.4,1.4
											v2.9C612.5,204,611.9,204.6,611.1,204.6z"/>
										<path class="st14" d="M612.8,204.6h-23.1c-0.8,0-1.4-0.6-1.4-1.4v-2.9c0-0.8,0.6-1.4,1.4-1.4h23.1"/>
									</g>
									<g>
										<path class="st11" d="M587.9,198.3h21.5c0.8,0,1.4-0.6,1.4-1.4V194c0-0.8-0.6-1.4-1.4-1.4h-21.5c-0.8,0-1.4,0.6-1.4,1.4
											v2.9C586.6,197.7,587.2,198.3,587.9,198.3z"/>
										<path class="st12" d="M586.3,198.3h23.1c0.8,0,1.4-0.6,1.4-1.4V194c0-0.8-0.6-1.4-1.4-1.4h-23.1"/>
									</g>
									<g>
										<path class="st19" d="M612.4,192.3H591c-0.8,0-1.4-0.6-1.4-1.4V188c0-0.8,0.6-1.4,1.4-1.4h21.5c0.8,0,1.4,0.6,1.4,1.4v2.9
											C613.8,191.7,613.2,192.3,612.4,192.3z"/>
									</g>
									<rect x="609.3" y="186.7" class="st18" width="1.7" height="5.6"/>
									<rect x="592.7" y="186.7" class="st18" width="1.7" height="5.6"/>
									<ellipse class="st18" cx="601.6" cy="189.3" rx="3" ry="1.7"/>
								</g>
							</g>
						</g>
					</g>
					<g>
						<g>
							<defs>
								<path id="SVGID_4_" d="M634.8,188c-0.8-9.8-5.8-15.2-15.4-17.1l-31.5-3.9l-15-20.2c-2.8-4.2-7.5-6.8-12.6-6.8h-80
									c-5.9,0-11.4,2.7-15.1,7.2l-17.7,21.9c-1.9,2.4-3.2,5.2-3.8,8.2l-4.3,21.4c-0.7,3.3,0.9,6.7,3.9,8.3l0.2,0.1
									c2.6,1.4,5.5,2.3,8.4,2.8c-2.6-9.6,3.1-19.4,12.6-22c9.6-2.6,19.4,3.1,22,12.6c0.9,3.4,0.8,6.9-0.3,10.3l102.4,2
									c-2.9-9.5,2.5-19.4,12-22.3c9.5-2.9,19.4,2.5,22.3,12c1.1,3.5,1,7.3-0.1,10.7c7-1.2,12.1-7.2,12.1-14.3L634.8,188z"/>
							</defs>
							<clipPath id="SVGID_5_">
								<use xlink:href="#SVGID_4_"  style="overflow:visible;"/>
							</clipPath>
						</g>
					</g>
					<g>
						<g>
							<defs>
								<path id="SVGID_6_" d="M634.8,188c-0.8-9.8-5.8-15.2-15.4-17.1l-31.5-3.9l-15-20.2c-2.8-4.2-7.5-6.8-12.6-6.8h-80
									c-5.9,0-11.4,2.7-15.1,7.2l-17.7,21.9c-1.9,2.4-3.2,5.2-3.8,8.2l-4.3,21.4c-0.7,3.3,0.9,6.7,3.9,8.3l0.2,0.1
									c2.6,1.4,5.5,2.3,8.4,2.8c-2.6-9.6,3.1-19.4,12.6-22c9.6-2.6,19.4,3.1,22,12.6c0.9,3.4,0.8,6.9-0.3,10.3l102.4,2
									c-2.9-9.5,2.5-19.4,12-22.3c9.5-2.9,19.4,2.5,22.3,12c1.1,3.5,1,7.3-0.1,10.7c7-1.2,12.1-7.2,12.1-14.3L634.8,188z"/>
							</defs>
							<clipPath id="SVGID_7_">
								<use xlink:href="#SVGID_6_"  style="overflow:visible;"/>
							</clipPath>
							<g class="st20">
								<path class="st21" d="M438.3,172.5L593,183.4c0,0,38.5-12.4,47.3,9.7l-3.6,30c0,0-27.3,5.8-30.3,5.8s-89.5,0.6-94.3,0
									c-4.9-0.6-75.8-5.8-75.8-5.8l-7.9-30.6L438.3,172.5z"/>
								<path class="st1" d="M473.2,113.6l93.2,1.2c4.2,0.1,7.6,3.5,7.6,7.8l-0.2,15c-0.1,4.2-3.5,7.6-7.8,7.6l-93.3-1.1
									c-4.2-0.1-7.6-3.5-7.6-7.8l0.2-15C465.5,117,469,113.6,473.2,113.6z"/>
							</g>
						</g>
					</g>
				</g>
			</g>
			
				<linearGradient id="SVGID_8_" gradientUnits="userSpaceOnUse" x1="522.1" y1="716" x2="571.8145" y2="716" gradientTransform="matrix(1 0 0 1 0 -558)">
				<stop  offset="0" style="stop-color:#C9E7F9"/>
				<stop  offset="1" style="stop-color:#AAFFF9"/>
			</linearGradient>
			<path class="st22" d="M567,169.5l-40.3-0.9c-2.5-0.1-4.6-2.2-4.6-4.7v-12.7c0-2.6,2.1-4.7,4.7-4.7c0.1,0,0.1,0,0.2,0l31.3,1
				c1.5,0.1,2.8,0.8,3.7,2l9,12.6c1.5,2.1,1,5.1-1.1,6.6C569,169.2,568,169.5,567,169.5z"/>
			
				<linearGradient id="SVGID_9_" gradientUnits="userSpaceOnUse" x1="472.3522" y1="715.8018" x2="516.9507" y2="715.8018" gradientTransform="matrix(1 0 0 1 0 -558)">
				<stop  offset="0" style="stop-color:#C9E7F9"/>
				<stop  offset="1" style="stop-color:#AAFFF9"/>
			</linearGradient>
			<path class="st23" d="M476.7,168.1l35.6,1.2c2.5,0.1,4.6-1.9,4.6-4.4c0-0.1,0-0.1,0-0.2v-13.9c0-2.5-2-4.5-4.5-4.5l0,0h-29.6
				c-1.8,0-3.3,1-4.1,2.6l-5.9,12.7c-1.1,2.2-0.1,4.9,2.2,6C475.5,168,476.1,168.1,476.7,168.1z"/>
			
				<linearGradient id="SVGID_10_" gradientUnits="userSpaceOnUse" x1="567.8224" y1="714.7382" x2="587.8956" y2="714.7382" gradientTransform="matrix(1 0 0 1 0 -558)">
				<stop  offset="0" style="stop-color:#C9E7F9"/>
				<stop  offset="1" style="stop-color:#AAFFF9"/>
			</linearGradient>
			<path class="st24" d="M587.9,167l-4.8,0.8c-0.9,0.4-2,0.1-2.5-0.7l-12.4-18c-0.6-0.9-0.4-2.2,0.5-2.9c0.2-0.2,0.5-0.3,0.8-0.3
				l2.2-0.4L587.9,167z"/>
			
				<ellipse transform="matrix(4.205501e-02 -0.9991 0.9991 4.205501e-02 241.442 667.6108)" class="st25" cx="468.9" cy="207.9" rx="15.3" ry="15.4"/>
			
				<ellipse transform="matrix(4.205841e-02 -0.9991 0.9991 4.205841e-02 241.4405 667.6099)" class="st26" cx="468.9" cy="207.9" rx="14.9" ry="15"/>
			
				<ellipse transform="matrix(4.204569e-02 -0.9991 0.9991 4.204569e-02 241.446 667.613)" cx="468.9" cy="207.9" rx="11.2" ry="11.3"/>
			
				<ellipse transform="matrix(4.205841e-02 -0.9991 0.9991 4.205841e-02 241.4405 667.6099)" class="st1" cx="468.9" cy="207.9" rx="10.6" ry="10.7"/>
			
				<ellipse transform="matrix(4.205205e-02 -0.9991 0.9991 4.205205e-02 241.4432 667.6116)" class="st27" cx="468.9" cy="207.9" rx="10.1" ry="10.2"/>
			
				<ellipse transform="matrix(4.205201e-02 -0.9991 0.9991 4.205201e-02 241.4433 667.6116)" class="st28" cx="468.9" cy="207.9" rx="6.3" ry="6.3"/>
			
				<ellipse transform="matrix(4.207110e-02 -0.9991 0.9991 4.207110e-02 241.435 667.6071)" class="st29" cx="468.9" cy="207.9" rx="5.7" ry="5.8"/>
			
				<ellipse transform="matrix(4.205205e-02 -0.9991 0.9991 4.205205e-02 373.0394 804.9819)" class="st25" cx="606.3" cy="208" rx="15.3" ry="15.4"/>
			
				<ellipse transform="matrix(4.205205e-02 -0.9991 0.9991 4.205205e-02 373.0394 804.9819)" class="st26" cx="606.3" cy="208" rx="14.9" ry="15"/>
			
				<ellipse transform="matrix(4.205205e-02 -0.9991 0.9991 4.205205e-02 373.0394 804.9819)" cx="606.3" cy="208" rx="11.2" ry="11.3"/>
			
				<ellipse transform="matrix(4.205205e-02 -0.9991 0.9991 4.205205e-02 373.0394 804.9819)" class="st1" cx="606.3" cy="208" rx="10.6" ry="10.7"/>
			
				<ellipse transform="matrix(4.205205e-02 -0.9991 0.9991 4.205205e-02 373.0394 804.9819)" class="st27" cx="606.3" cy="208" rx="10.1" ry="10.2"/>
			
				<ellipse transform="matrix(4.205209e-02 -0.9991 0.9991 4.205209e-02 373.0393 804.9819)" class="st28" cx="606.3" cy="208" rx="6.3" ry="6.3"/>
			
				<ellipse transform="matrix(4.205205e-02 -0.9991 0.9991 4.205205e-02 373.0394 804.9819)" class="st29" cx="606.3" cy="208" rx="5.7" ry="5.8"/>
			
				<linearGradient id="SVGID_11_" gradientUnits="userSpaceOnUse" x1="437.1605" y1="758.6988" x2="447.1218" y2="758.6988" gradientTransform="matrix(1 0 0 1 -2.844527e-03 -557.9988)">
				<stop  offset="0" style="stop-color:#999999"/>
				<stop  offset="1" style="stop-color:#FFFFFF"/>
			</linearGradient>
			<path class="st30" d="M439.6,198.2l5.7,0.8c1.2,0.2,2,1.2,1.8,2.4l0,0c-0.2,1.2-1.2,2-2.4,1.8l-5.7-0.8c-1.2-0.2-2-1.2-1.8-2.4
				l0,0C437.3,198.8,438.4,198,439.6,198.2z"/>
			
				<linearGradient id="SVGID_12_" gradientUnits="userSpaceOnUse" x1="649.5684" y1="621.6104" x2="659.5485" y2="621.6104" gradientTransform="matrix(0.99 -7.000000e-02 0.13 0.51 -200.47 -95.92)">
				<stop  offset="0" style="stop-color:#999999"/>
				<stop  offset="1" style="stop-color:#FFFFFF"/>
			</linearGradient>
			<path class="st31" d="M523.9,174.5h8.4c0.4,0,0.8,0.4,0.8,0.8l0,0c0,0.4-0.4,0.8-0.8,0.8h-8.4c-0.4,0-0.8-0.4-0.8-0.8l0,0
				C523.1,174.9,523.5,174.5,523.9,174.5z"/>
			
				<linearGradient id="SVGID_13_" gradientUnits="userSpaceOnUse" x1="598.4621" y1="614.5959" x2="608.4423" y2="614.5959" gradientTransform="matrix(0.99 -7.000000e-02 0.13 0.51 -200.47 -95.92)">
				<stop  offset="0" style="stop-color:#999999"/>
				<stop  offset="1" style="stop-color:#FFFFFF"/>
			</linearGradient>
			<path class="st32" d="M472.4,174.5h8.4c0.4,0,0.8,0.4,0.8,0.8l0,0c0,0.4-0.4,0.8-0.8,0.8h-8.4c-0.4,0-0.8-0.4-0.8-0.8l0,0
				C471.6,174.9,471.9,174.5,472.4,174.5z"/>
			
				<linearGradient id="SVGID_14_" gradientUnits="userSpaceOnUse" x1="-2419.6885" y1="731.0038" x2="-2409.4646" y2="731.0038" gradientTransform="matrix(10.3005 8.573547e-02 1.3794 0.9991 24402.918 -315.5095)">
				<stop  offset="0" style="stop-color:#999999"/>
				<stop  offset="1" style="stop-color:#FFFFFF"/>
			</linearGradient>
			<path class="st33" d="M487.8,204.7l99.9,2.1c1.2,0,2.1,1,2,2.1l0,0c0,1.2-1,2.1-2.1,2l-99.9-2.1c-1.2,0-2.1-1-2-2.1l0,0
				C485.7,205.6,486.6,204.7,487.8,204.7z"/>
			
				<linearGradient id="SVGID_15_" gradientUnits="userSpaceOnUse" x1="625.5117" y1="762.2" x2="635.219" y2="762.2" gradientTransform="matrix(1 0 0 1 0 -558)">
				<stop  offset="0" style="stop-color:#999999"/>
				<stop  offset="1" style="stop-color:#FFFFFF"/>
			</linearGradient>
			<path class="st34" d="M627.5,202.2h5.8c1.1,0,2,0.9,2,2l0,0c0,1.1-0.9,2-2,2h-5.8c-1.1,0-2-0.9-2-2l0,0
				C625.5,203.1,626.4,202.2,627.5,202.2z"/>
			
				<linearGradient id="SVGID_16_" gradientUnits="userSpaceOnUse" x1="520.0475" y1="366.7185" x2="523.9911" y2="366.7185" gradientTransform="matrix(0.991 0.1342 -0.1342 0.991 166.6716 -231.1185)">
				<stop  offset="0" style="stop-color:#999999"/>
				<stop  offset="1" style="stop-color:#FFFFFF"/>
			</linearGradient>
			<path class="st35" d="M635.6,196.2L635.6,196.2c1.1,0.2,1.9,1.2,1.7,2.2l-1.2,8.4c-0.2,1.1-1.2,1.9-2.2,1.7l0,0
				c-1.1-0.2-1.9-1.2-1.7-2.2l1.2-8.4C633.5,196.8,634.5,196,635.6,196.2z"/>
			
				<linearGradient id="SVGID_17_" gradientUnits="userSpaceOnUse" x1="632.7915" y1="740.9098" x2="636.7351" y2="740.9887" gradientTransform="matrix(1 0 0 1 0 -558)">
				<stop  offset="0.55" style="stop-color:#FFFFFF"/>
				<stop  offset="1" style="stop-color:#FFF994"/>
			</linearGradient>
			<path class="st36" d="M634.8,176.7L634.8,176.7c1.1,0,2,0.9,2,2v8.5c0,1.1-0.9,2-2,2l0,0c-1.1,0-2-0.9-2-2v-8.5
				C632.8,177.6,633.7,176.7,634.8,176.7z"/>
			
				<linearGradient id="SVGID_18_" gradientUnits="userSpaceOnUse" x1="624.9" y1="740.9" x2="634.6" y2="740.9" gradientTransform="matrix(1 0 0 1 0 -558)">
				<stop  offset="0" style="stop-color:#FFFFFF"/>
				<stop  offset="1" style="stop-color:#A1A1A1"/>
			</linearGradient>
			<polygon class="st37" points="624.9,187 634.6,189.1 634.6,176.7 624.9,179.1 			"/>
			
				<linearGradient id="SVGID_19_" gradientUnits="userSpaceOnUse" x1="450.7791" y1="714.3" x2="467.7307" y2="714.3" gradientTransform="matrix(1 0 0 1 0 -558)">
				<stop  offset="0" style="stop-color:#C9E7F9"/>
				<stop  offset="1" style="stop-color:#AAFFF9"/>
			</linearGradient>
			<path class="st38" d="M465.9,146.4l0.5,0.1c1.1,0.5,1.5,1.7,1.1,2.7c-0.1,0.2-0.2,0.3-0.3,0.5l-12.7,15.7
				c-0.5,0.6-1.2,0.8-1.9,0.8l-1.9-1.1L465.9,146.4z"/>
		</g>
	</g>
</g>
<g>
	<g>
		<path class="st11" d="M260.9,219H147.2c-4,0-7.3-3.3-7.3-7.3v-15.3c0-4,3.3-7.3,7.3-7.3h113.7c4,0,7.3,3.3,7.3,7.3v15.3
			C268.2,215.7,264.9,219,260.9,219z"/>
		<path class="st12" d="M269.7,219H147.2c-4,0-7.3-3.3-7.3-7.3v-15.3c0-4,3.3-7.3,7.3-7.3h122.5"/>
	</g>
	<g>
		<path class="st11" d="M270.8,185.5H157.1c-4,0-7.3-3.3-7.3-7.3v-15.3c0-4,3.3-7.3,7.3-7.3h113.7c4,0,7.3,3.3,7.3,7.3v15.3
			C278.1,182.2,274.9,185.5,270.8,185.5z"/>
		<path class="st13" d="M279.6,185.5H157.1c-4,0-7.3-3.3-7.3-7.3v-15.3c0-4,3.3-7.3,7.3-7.3h122.5"/>
	</g>
	<g>
		<path class="st11" d="M148,152.1h113.7c4,0,7.3-3.3,7.3-7.3v-15.3c0-4-3.3-7.3-7.3-7.3H148c-4,0-7.3,3.3-7.3,7.3v15.3
			C140.7,148.8,144,152.1,148,152.1z"/>
		<path class="st14" d="M139.3,152.1h122.5c4,0,7.3-3.3,7.3-7.3v-15.3c0-4-3.3-7.3-7.3-7.3H139.3"/>
	</g>
	<g>
		<path class="st15" d="M277.9,120.4H164.1c-4,0-7.3-3.3-7.3-7.3V97.9c0-4,3.3-7.3,7.3-7.3h113.7c4,0,7.3,3.3,7.3,7.3v15.3
			C285.2,117.2,281.9,120.4,277.9,120.4z"/>
	</g>
	<rect x="261.1" y="90.7" class="st16" width="8.8" height="29.9"/>
	<rect x="173.2" y="90.7" class="st16" width="8.8" height="29.9"/>
	<ellipse class="st16" cx="220.7" cy="104.7" rx="15.8" ry="8.8"/>
</g>
<g>
	<g>
		<path class="st11" d="M64.4,219.1h91.9c3.3,0,5.9-2.6,5.9-5.9v-12.3c0-3.3-2.6-5.9-5.9-5.9H64.4c-3.3,0-5.9,2.6-5.9,5.9v12.3
			C58.5,216.5,61.1,219.1,64.4,219.1z"/>
		<path class="st13" d="M57.3,219.1h99c3.3,0,5.9-2.6,5.9-5.9v-12.3c0-3.3-2.6-5.9-5.9-5.9h-99"/>
	</g>
	<g>
		<path class="st11" d="M56.3,192h91.9c3.3,0,5.9-2.6,5.9-5.9v-12.3c0-3.3-2.6-5.9-5.9-5.9H56.3c-3.3,0-5.9,2.6-5.9,5.9v12.3
			C50.4,189.4,53.1,192,56.3,192z"/>
		<path class="st14" d="M49.2,192h99c3.3,0,5.9-2.6,5.9-5.9v-12.3c0-3.3-2.6-5.9-5.9-5.9h-99"/>
	</g>
	<g>
		<path class="st11" d="M155.6,165H63.7c-3.3,0-5.9-2.6-5.9-5.9v-12.3c0-3.3,2.6-5.9,5.9-5.9h91.9c3.3,0,5.9,2.6,5.9,5.9v12.3
			C161.5,162.4,158.8,165,155.6,165z"/>
		<path class="st12" d="M162.7,165h-99c-3.3,0-5.9-2.6-5.9-5.9v-12.3c0-3.3,2.6-5.9,5.9-5.9h99"/>
	</g>
	<g>
		<path class="st17" d="M50.7,139.4h91.9c3.3,0,5.9-2.6,5.9-5.9v-12.3c0-3.3-2.6-5.9-5.9-5.9H50.7c-3.3,0-5.9,2.6-5.9,5.9v12.3
			C44.8,136.8,47.4,139.4,50.7,139.4z"/>
	</g>
	
		<rect x="57.1" y="115.4" transform="matrix(-1 -4.506674e-11 4.506674e-11 -1 121.2149 254.9404)" class="st18" width="7.1" height="24.2"/>
	
		<rect x="128.1" y="115.4" transform="matrix(-1 -4.506674e-11 4.506674e-11 -1 263.2903 254.9404)" class="st18" width="7.1" height="24.2"/>
	<ellipse class="st18" cx="96.8" cy="126.8" rx="12.8" ry="7.1"/>
</g>
<g>
	<g>
		<path class="st11" d="M327.4,219.1H257c-2.5,0-4.5-2-4.5-4.5v-9.5c0-2.5,2-4.5,4.5-4.5h70.4c2.5,0,4.5,2,4.5,4.5v9.5
			C331.9,217.1,329.9,219.1,327.4,219.1z"/>
		<path class="st13" d="M332.8,219.1H257c-2.5,0-4.5-2-4.5-4.5v-9.5c0-2.5,2-4.5,4.5-4.5h75.9"/>
	</g>
	<g>
		<path class="st11" d="M333.6,198.3h-70.4c-2.5,0-4.5-2-4.5-4.5v-9.5c0-2.5,2-4.5,4.5-4.5h70.4c2.5,0,4.5,2,4.5,4.5v9.5
			C338.1,196.3,336.1,198.3,333.6,198.3z"/>
		<path class="st14" d="M339,198.3h-75.9c-2.5,0-4.5-2-4.5-4.5v-9.5c0-2.5,2-4.5,4.5-4.5H339"/>
	</g>
	<g>
		<path class="st11" d="M257.5,177.7H328c2.5,0,4.5-2,4.5-4.5v-9.5c0-2.5-2-4.5-4.5-4.5h-70.4c-2.5,0-4.5,2-4.5,4.5v9.5
			C253,175.6,255,177.7,257.5,177.7z"/>
		<path class="st12" d="M252.1,177.7H328c2.5,0,4.5-2,4.5-4.5v-9.5c0-2.5-2-4.5-4.5-4.5h-75.9"/>
	</g>
	<g>
		<path class="st19" d="M337.9,158.1h-70.4c-2.5,0-4.5-2-4.5-4.5v-9.5c0-2.5,2-4.5,4.5-4.5h70.4c2.5,0,4.5,2,4.5,4.5v9.5
			C342.4,156,340.4,158.1,337.9,158.1z"/>
	</g>
	<rect x="327.6" y="139.6" class="st18" width="5.4" height="18.5"/>
	<rect x="273.1" y="139.6" class="st18" width="5.4" height="18.5"/>
	<ellipse class="st18" cx="302.5" cy="148.3" rx="9.8" ry="5.4"/>
</g>
</svg>
