<?xml version="1.0" encoding="utf-8"?>
<!-- Generator: Adobe Illustrator 25.0.0, SVG Export Plug-In . SVG Version: 6.00 Build 0)  -->
<svg version="1.1" id="Layer_1" xmlns="http://www.w3.org/2000/svg" xmlns:xlink="http://www.w3.org/1999/xlink" x="0px" y="0px"
	 viewBox="0 0 800 250" style="enable-background:new 0 0 800 250;" xml:space="preserve">
<style type="text/css">
	.st0{fill:#222222;}
	.st1{opacity:0.8;fill:#FFFFFF;enable-background:new    ;}
	.st2{fill:#1C1C1C;}
	.st3{fill:#FFFFFF;}
	.st4{fill:#444444;}
	.st5{fill:#FF0000;}
	.st6{fill:#3B3B3B;}
	.st7{fill:url(#SVGID_1_);}
	.st8{fill:url(#SVGID_2_);}
	.st9{fill:#FFCE00;}
	.st10{fill:#DD0000;}
	.st11{fill:#4E514E;}
	.st12{opacity:0.25;fill:#FFFFFF;enable-background:new    ;}
	.st13{fill:#32323F;}
	.st14{fill:#474757;}
	.st15{fill:#DDDDDD;}
	.st16{fill:#BAC0D8;}
	.st17{fill:#ACAFBC;}
	.st18{fill:url(#SVGID_3_);}
	.st19{fill:url(#SVGID_4_);}
	.st20{fill:url(#SVGID_5_);}
	.st21{fill:url(#SVGID_6_);}
	.st22{fill:url(#SVGID_7_);}
	.st23{fill:url(#SVGID_8_);}
	.st24{fill:url(#SVGID_9_);}
	.st25{fill:url(#SVGID_10_);}
	.st26{fill:url(#SVGID_11_);}
	.st27{opacity:0.47;fill:url(#SVGID_12_);enable-background:new    ;}
</style>
<g id="Layer_1_1_">
	<rect class="st0" width="800" height="250"/>
</g>
<g id="Layer_7">
	<circle class="st1" cx="579.5" cy="72.5" r="3.5"/>
	<circle class="st1" cx="694.5" cy="30.5" r="3.5"/>
	<circle class="st1" cx="464.5" cy="34.5" r="3.5"/>
	<circle class="st1" cx="727.5" cy="125.5" r="3.5"/>
	<circle class="st1" cx="486.5" cy="130.5" r="3.5"/>
	<circle class="st1" cx="201.5" cy="20.5" r="3.5"/>
	<circle class="st1" cx="83.5" cy="34.5" r="3.5"/>
	<circle class="st1" cx="29.5" cy="98.5" r="3.5"/>
	<g>
		<g>
			<path class="st2" d="M306,155.5c-6.4,8.9-15.2,16.4-25.9,21.3c-21.5,9.8-45.4,7-63.6-5.3c-8.4,13.6-13.7,29.4-14.8,46.3h-0.2v28
				h203.3v-28h-0.2c-1.4-20.6-8.9-39.5-20.7-54.9c-2.4,1.5-4.9,2.8-7.5,4C352,178,324.4,172.6,306,155.5z"/>
			<path class="st3" d="M303.1,123c-36.6,0-68.7,19.4-86.6,48.5c18.2,12.3,42.2,15.1,63.6,5.3c10.7-4.9,19.5-12.3,25.9-21.3
				c18.4,17.1,46,22.5,70.3,11.4c2.6-1.2,5.1-2.5,7.5-4C365.2,138.6,336,123,303.1,123z"/>
		</g>
		<g>
			<path class="st4" d="M256.1,252.1c-1.9-28-15.1-52.9-35.1-70.1c-4.7,1.8-9.8,2.8-15.2,2.8c-10.6,0-20.2-3.9-27.7-10.3
				c-4.5,5.1-9.9,9.3-16,12.4c-6.2,29-31.9,50.8-62.8,50.8c-15.2,0-29.1-5.3-40.1-14c-3.3,9-5.4,18.5-6.1,28.5H53V250h203.3v2.1
				H256.1z"/>
			<path class="st3" d="M162.2,186.9c6.1-3.1,11.5-7.3,16-12.4c7.4,6.4,17.1,10.3,27.7,10.3c5.4,0,10.5-1,15.2-2.8
				c-17.8-15.4-41-24.7-66.4-24.7c-43.7,0-81,27.6-95.4,66.3c11,8.8,24.9,14,40.1,14C130.3,237.7,156,215.9,162.2,186.9z"/>
		</g>
	</g>
	<path class="st4" d="M565.5,231.1L565.5,231.1c-2.9,0-5.2-2.3-5.2-5.2V31.3c0-2.9,2.3-5.2,5.2-5.2l0,0c2.9,0,5.2,2.3,5.2,5.2v194.6
		C570.7,228.8,568.4,231.1,565.5,231.1z"/>
	<g>
		<g>
			<rect x="570.7" y="36.3" class="st3" width="33.7" height="33.7"/>
			<rect x="570.7" y="70" width="33.7" height="33.7"/>
			<rect x="604.5" y="70.1" class="st3" width="33.7" height="33.7"/>
			<rect x="604.5" y="36.3" width="33.7" height="33.7"/>
			<rect x="638.2" y="36.3" class="st3" width="33.7" height="33.7"/>
			<rect x="638.2" y="70" width="33.7" height="33.7"/>
			<rect x="672" y="70.1" class="st3" width="33.7" height="33.7"/>
			<rect x="672" y="36.3" width="33.7" height="33.7"/>
			<rect x="705.7" y="36.3" class="st3" width="33.7" height="33.7"/>
			<rect x="705.7" y="70" width="33.7" height="33.7"/>
			<rect x="739.5" y="70.1" class="st3" width="33.7" height="33.7"/>
			<rect x="739.5" y="36.3" width="33.7" height="33.7"/>
		</g>
		<g>
			<g>
				<g>
					<path class="st5" d="M620,84.1c-0.5,0-1.1,0-1.9-0.1c-0.8-0.1-1.6-0.2-2.4-0.4c-0.9-0.2-1.8-0.4-2.6-0.7
						c-0.9-0.3-1.7-0.6-2.5-1s-1.5-0.9-2-1.4c-0.6-0.7-0.9-1.4-0.9-2.3s0.3-1.7,1-2.4c0.7-0.7,1.5-1.1,2.4-1.1
						c0.6,0,1.1,0.1,1.6,0.4c0.6,0.3,1.2,0.6,1.8,0.9c0.6,0.2,1.2,0.4,1.8,0.6s1.2,0.3,1.8,0.4s1.3,0.1,2,0.1c0.4,0,1,0,1.6-0.1
						s1.1-0.2,1.6-0.3c0.5-0.2,0.8-0.4,1.2-0.7c0.1-0.1,0.3-0.3,0.3-0.8c0-0.3-0.1-0.7-0.7-1c-0.7-0.4-1.6-0.8-2.7-1.1
						c-1.1-0.4-2.4-0.7-3.7-1.1c-1.4-0.4-2.8-0.9-4-1.6c-1.3-0.7-2.3-1.6-3.2-2.7c-0.9-1.2-1.4-2.7-1.4-4.6c0-1.6,0.4-3,1.2-4.1
						c0.7-1.1,1.7-1.9,2.9-2.5c1.1-0.6,2.3-1,3.7-1.2c1.3-0.2,2.6-0.3,3.8-0.3c0.6,0,1.3,0,2.1,0.1s1.6,0.2,2.4,0.3
						c0.8,0.1,1.6,0.3,2.3,0.5c0.8,0.2,1.5,0.5,2.1,0.7c0.6,0.3,1.1,0.7,1.5,1.1c0.4,0.5,0.6,1.2,0.6,2c0,0.9-0.3,1.8-1,2.4
						s-1.5,1-2.4,1c-0.4,0-0.8-0.1-1.3-0.3c-1-0.4-2.1-0.7-3.1-0.9s-2.1-0.3-3.2-0.3c-0.4,0-0.9,0-1.5,0c-0.5,0-1.1,0.1-1.6,0.2
						c-0.4,0.1-0.8,0.3-1.1,0.5c-0.1,0.1-0.2,0.2-0.2,0.6c0,0.1,0,0.3,0.2,0.5c0.2,0.3,0.6,0.5,1,0.8c0.4,0.3,1,0.5,1.5,0.7
						c0.6,0.2,1.2,0.4,1.8,0.6s1.1,0.3,1.6,0.5c0.5,0.1,0.9,0.3,1.2,0.3c1,0.3,2,0.7,3,1.1s1.9,0.9,2.7,1.6c0.8,0.6,1.4,1.5,1.9,2.4
						c0.5,1,0.7,2.1,0.7,3.4c0,1.7-0.4,3.2-1.1,4.4c-0.7,1.1-1.7,2.1-2.9,2.8c-1.1,0.7-2.4,1.1-3.8,1.4
						C622.7,83.9,621.3,84.1,620,84.1z"/>
					<path d="M620.6,56c0.6,0,1.3,0,2.1,0.1s1.5,0.2,2.3,0.3s1.5,0.3,2.3,0.5c0.7,0.2,1.4,0.4,1.9,0.7c0.4,0.2,0.8,0.5,1.1,0.9
						s0.4,0.8,0.4,1.3c0,0.7-0.2,1.3-0.7,1.7c-0.5,0.5-1.1,0.7-1.7,0.7c-0.3,0-0.6-0.1-0.9-0.2c-1.1-0.4-2.2-0.7-3.2-0.9
						c-1.1-0.2-2.2-0.3-3.4-0.3c-0.4,0-0.9,0-1.5,0s-1.2,0.1-1.8,0.3s-1.1,0.4-1.5,0.7s-0.6,0.8-0.6,1.4c0,0.4,0.2,0.8,0.5,1.2
						s0.7,0.7,1.2,1s1.1,0.6,1.7,0.8c0.6,0.2,1.2,0.4,1.8,0.6s1.1,0.3,1.6,0.5c0.5,0.1,0.9,0.3,1.2,0.3c1,0.3,1.9,0.7,2.9,1
						c0.9,0.4,1.7,0.8,2.4,1.4s1.2,1.3,1.7,2.1c0.4,0.8,0.6,1.8,0.6,3c0,1.5-0.3,2.8-1,3.8s-1.5,1.8-2.5,2.4s-2.2,1-3.5,1.3
						c-1.3,0.2-2.6,0.4-3.9,0.4c-0.4,0-1,0-1.8-0.1c-0.7-0.1-1.5-0.2-2.3-0.4c-0.8-0.2-1.7-0.4-2.5-0.6c-0.8-0.3-1.6-0.6-2.3-0.9
						c-0.7-0.4-1.3-0.8-1.7-1.2c-0.4-0.5-0.7-1-0.7-1.6s0.2-1.2,0.7-1.7s1-0.7,1.7-0.7c0.4,0,0.8,0.1,1.1,0.3
						c0.7,0.4,1.3,0.7,1.9,0.9c0.6,0.3,1.3,0.5,1.9,0.6c0.6,0.2,1.3,0.3,1.9,0.4c0.7,0.1,1.4,0.1,2.1,0.1c0.5,0,1,0,1.7-0.1
						c0.6-0.1,1.3-0.2,1.8-0.4c0.6-0.2,1.1-0.5,1.5-0.9s0.6-0.9,0.6-1.5c0-0.8-0.4-1.4-1.2-1.9s-1.7-0.9-2.9-1.2
						c-1.1-0.4-2.4-0.7-3.8-1.1c-1.4-0.4-2.6-0.9-3.8-1.5c-1.1-0.6-2.1-1.4-2.9-2.5c-0.8-1-1.2-2.4-1.2-4c0-1.4,0.3-2.6,1-3.6
						s1.5-1.7,2.5-2.2s2.2-0.9,3.4-1.1C618.2,56.1,619.5,56,620.6,56 M620.6,54c-1.3,0-2.6,0.1-4,0.3c-1.5,0.2-2.8,0.7-4,1.3
						c-1.3,0.7-2.4,1.6-3.2,2.8c-0.9,1.3-1.3,2.9-1.3,4.7c0,2.1,0.5,3.9,1.6,5.2c0.9,1.2,2.1,2.3,3.5,3c1.3,0.7,2.7,1.3,4.2,1.7
						c1.3,0.4,2.6,0.7,3.7,1.1c1,0.3,1.8,0.6,2.4,1c0.1,0.1,0.2,0.1,0.2,0.1l0,0c0,0,0,0,0,0.1c-0.2,0.2-0.5,0.3-0.8,0.4
						c-0.4,0.1-0.9,0.2-1.4,0.3c-0.6,0.1-1.1,0.1-1.5,0.1c-0.7,0-1.3,0-1.9-0.1c-0.6-0.1-1.1-0.2-1.7-0.3c-0.5-0.1-1.1-0.3-1.6-0.6
						c-0.6-0.2-1.1-0.5-1.7-0.8c-0.7-0.4-1.4-0.6-2.1-0.6c-1.2,0-2.3,0.5-3.1,1.4s-1.3,1.9-1.3,3.1c0,1.1,0.4,2.1,1.2,2.9
						c0.6,0.6,1.4,1.2,2.2,1.6s1.7,0.8,2.6,1c0.9,0.3,1.8,0.5,2.7,0.7s1.7,0.3,2.5,0.4s1.5,0.1,2,0.1c1.4,0,2.8-0.1,4.2-0.4
						c1.5-0.3,2.9-0.8,4.1-1.5c1.3-0.8,2.4-1.8,3.2-3.1c0.9-1.3,1.3-3,1.3-4.9c0-1.5-0.3-2.8-0.8-3.9s-1.3-2-2.2-2.7
						c-0.8-0.7-1.8-1.3-2.9-1.7c-1-0.4-2-0.8-3-1.1l0,0l0,0c-0.3-0.1-0.7-0.2-1.2-0.3c-0.5-0.1-1-0.3-1.6-0.5
						c-0.5-0.2-1.1-0.4-1.7-0.6c-0.5-0.2-1-0.4-1.4-0.6c-0.2-0.1-0.4-0.3-0.6-0.4c0.1-0.1,0.3-0.1,0.5-0.2c0.4-0.1,0.9-0.2,1.3-0.2
						c0.6,0,1.1,0,1.5,0c1,0,2,0.1,3,0.3s2,0.5,3,0.8c0.6,0.2,1.1,0.3,1.6,0.3c1.2,0,2.3-0.5,3.2-1.3c0.9-0.9,1.3-1.9,1.3-3.2
						c0-1-0.3-1.9-0.9-2.6c-0.5-0.6-1.1-1.1-1.8-1.4c-0.7-0.3-1.4-0.6-2.3-0.8c-0.8-0.2-1.6-0.4-2.4-0.5c-0.8-0.2-1.7-0.3-2.5-0.3
						C622,54.1,621.3,54,620.6,54L620.6,54z"/>
				</g>
				<g>
					<path class="st5" d="M644.9,83.9c-1,0-1.9-0.4-2.6-1.1c-0.7-0.7-1-1.6-1-2.6V62.4h-6.2c-1,0-1.8-0.3-2.4-1s-1-1.5-1-2.4
						s0.3-1.8,1-2.4c0.7-0.7,1.5-1,2.4-1h19.6c0.9,0,1.8,0.3,2.4,1c0.7,0.7,1,1.5,1,2.4s-0.4,1.8-1,2.4c-0.7,0.7-1.5,1-2.4,1h-6.2
						v17.9c0,1-0.4,1.9-1.1,2.6C646.7,83.5,645.9,83.9,644.9,83.9z"/>
					<path d="M654.7,56.5c0.7,0,1.3,0.2,1.7,0.7c0.5,0.5,0.7,1.1,0.7,1.7c0,0.7-0.2,1.3-0.7,1.7c-0.5,0.5-1.1,0.7-1.7,0.7h-7.2v18.9
						c0,0.7-0.3,1.4-0.8,1.9s-1.1,0.8-1.9,0.8s-1.3-0.3-1.8-0.8s-0.7-1.1-0.7-1.9V61.4h-7.2c-0.7,0-1.3-0.2-1.7-0.7s-0.7-1-0.7-1.7
						s0.2-1.3,0.7-1.7s1-0.7,1.7-0.7L654.7,56.5 M654.7,54.5h-19.6c-1.2,0-2.3,0.5-3.2,1.3c-0.8,0.9-1.3,1.9-1.3,3.1
						c0,1.2,0.4,2.3,1.3,3.1c0.8,0.8,1.9,1.3,3.1,1.3h5.2v16.9c0,1.3,0.5,2.4,1.3,3.3c0.9,0.9,2,1.4,3.3,1.4s2.4-0.5,3.3-1.3
						c0.9-0.9,1.3-2,1.3-3.3V63.4h5.2c1.2,0,2.3-0.4,3.1-1.3c0.9-0.8,1.3-1.9,1.3-3.2c0-1.2-0.5-2.3-1.3-3.2
						C657,54.9,655.9,54.5,654.7,54.5L654.7,54.5z"/>
				</g>
				<g>
					<path class="st5" d="M680.2,83.9c-0.7,0-1.3-0.2-1.9-0.5c-0.5-0.3-1-0.8-1.2-1.4l-1.9-4.2h-10l-1.9,4.2
						c-0.3,0.6-0.7,1.1-1.3,1.5c-0.6,0.3-1.2,0.5-1.8,0.5c-1,0-1.8-0.3-2.4-1c-0.7-0.7-1-1.5-1-2.4c0-0.5,0.1-1,0.3-1.4l10-21.9
						c0.3-0.6,0.7-1.1,1.2-1.4c0.6-0.4,1.2-0.6,1.8-0.6s1.3,0.2,1.8,0.5c0.6,0.4,1,0.8,1.3,1.5l10,21.9c0.2,0.5,0.3,1,0.3,1.4
						c0,0.9-0.3,1.8-1,2.4C682,83.5,681.1,83.9,680.2,83.9z M672.3,71.3l-2.1-4.7l-2.1,4.7H672.3z"/>
					<path d="M670.1,56.1c0.5,0,0.9,0.1,1.3,0.4c0.4,0.2,0.7,0.6,0.9,1l10,21.9c0.1,0.3,0.2,0.7,0.2,1c0,0.7-0.2,1.3-0.7,1.7
						s-1,0.7-1.7,0.7c-0.5,0-0.9-0.1-1.3-0.4c-0.4-0.2-0.7-0.6-0.9-1l-2.2-4.8h-11.3l-2.2,4.8c-0.2,0.4-0.5,0.8-0.9,1
						s-0.8,0.4-1.3,0.4c-0.7,0-1.3-0.2-1.7-0.7c-0.5-0.5-0.7-1.1-0.7-1.7c0-0.3,0.1-0.7,0.2-1l10-21.9c0.2-0.4,0.5-0.8,0.9-1
						C669.2,56.3,669.6,56.1,670.1,56.1 M666.5,72.3h7.3l-3.7-8.1L666.5,72.3 M670.1,54.1c-0.9,0-1.7,0.2-2.4,0.7s-1.2,1.1-1.6,1.9
						l-10,21.8c-0.3,0.6-0.4,1.2-0.4,1.8c0,1.2,0.5,2.3,1.3,3.2c0.9,0.9,1.9,1.3,3.2,1.3c0.9,0,1.6-0.2,2.4-0.7
						c0.7-0.5,1.3-1.1,1.6-1.9l1.6-3.6h8.7l1.6,3.6c0.4,0.8,0.9,1.4,1.6,1.9c0.7,0.5,1.5,0.7,2.4,0.7c1.2,0,2.3-0.5,3.1-1.3
						s1.3-1.9,1.3-3.1c0-0.6-0.1-1.2-0.3-1.7v-0.1v-0.1l-10-21.9c-0.4-0.8-1-1.5-1.7-1.9C671.7,54.4,670.9,54.1,670.1,54.1
						L670.1,54.1z M669.6,70.3l0.6-1.3l0.6,1.3H669.6L669.6,70.3z"/>
				</g>
				<g>
					<path class="st5" d="M706.3,83.9c-0.7,0-1.3-0.2-1.8-0.5c-0.6-0.3-1-0.8-1.3-1.4c-0.1-0.2-0.3-0.5-0.5-1l-0.8-1.7
						c-0.4-0.8-0.7-1.5-1.1-2.3c-0.4-0.8-0.8-1.5-1.1-2.2c-0.3-0.6-0.6-1.2-0.8-1.6c0-0.1-0.1-0.1-0.1-0.2h-5.5v7.3
						c0,1-0.4,1.9-1.1,2.6c-0.7,0.7-1.6,1-2.5,1c-1,0-1.9-0.3-2.5-1c-0.7-0.7-1-1.5-1-2.5V59.1c0-1,0.3-1.9,1-2.5
						c0.7-0.7,1.5-1,2.5-1h9.7c1.3,0,2.7,0.1,3.9,0.4c1.3,0.3,2.4,0.8,3.4,1.5s1.8,1.7,2.4,2.8c0.6,1.1,0.9,2.5,0.9,4.1
						c0,1.7-0.4,3.3-1.2,4.6c-0.6,1.1-1.6,2-2.7,2.6c0,0.1,0.1,0.1,0.1,0.2c0.3,0.5,0.6,1.1,0.9,1.7c0.3,0.6,0.6,1.3,1,1.9
						c0.3,0.7,0.6,1.3,0.9,1.9c0.3,0.6,0.5,1.2,0.7,1.7c0.2,0.6,0.3,1,0.3,1.4c0,1-0.3,1.8-1,2.5C708.1,83.5,707.3,83.9,706.3,83.9z
						 M700.1,66.6c0.8,0,1.4-0.2,1.9-0.6c0.3-0.2,0.6-0.6,0.6-1.5c0-1-0.4-1.4-0.6-1.6c-0.5-0.4-1.1-0.6-1.9-0.6h-6.8v4.3
						C693.3,66.6,700.1,66.6,700.1,66.6z"/>
					<path d="M699.4,56.5c1.3,0,2.5,0.1,3.7,0.4c1.2,0.3,2.2,0.7,3,1.4c0.9,0.6,1.5,1.4,2.1,2.4s0.8,2.2,0.8,3.6
						c0,1.5-0.4,2.9-1.1,4.1c-0.7,1.2-1.8,2.1-3.2,2.7c0.1,0.3,0.3,0.6,0.6,1.1s0.5,1,0.9,1.7c0.3,0.6,0.6,1.3,1,1.9
						s0.6,1.3,0.9,1.9c0.3,0.6,0.5,1.1,0.7,1.6s0.3,0.8,0.3,1c0,0.7-0.2,1.3-0.7,1.8s-1.1,0.7-1.8,0.7c-0.5,0-0.9-0.1-1.3-0.4
						c-0.4-0.2-0.7-0.6-0.9-1c-0.1-0.1-0.2-0.5-0.5-1s-0.5-1.1-0.9-1.8c-0.3-0.7-0.7-1.4-1.1-2.2c-0.4-0.8-0.7-1.5-1.1-2.1
						c-0.3-0.7-0.6-1.2-0.8-1.6s-0.3-0.7-0.3-0.7h-7.2v8.3c0,0.7-0.3,1.3-0.8,1.8s-1.1,0.7-1.8,0.7s-1.3-0.2-1.8-0.7
						s-0.7-1.1-0.7-1.8V59.1c0-0.7,0.2-1.3,0.7-1.8s1.1-0.7,1.8-0.7L699.4,56.5 M692.3,67.6h7.8c1,0,1.8-0.3,2.5-0.8
						s1.1-1.3,1.1-2.3s-0.3-1.8-1-2.4c-0.7-0.5-1.5-0.8-2.5-0.8h-7.8L692.3,67.6 M699.4,54.5h-9.7c-1.3,0-2.4,0.5-3.3,1.3
						c-0.9,0.9-1.3,2-1.3,3.3v21.2c0,1.3,0.5,2.4,1.3,3.3c0.9,0.9,2,1.3,3.3,1.3c1.2,0,2.3-0.4,3.2-1.3s1.4-2,1.4-3.3V74h3.9
						c0.2,0.4,0.4,0.8,0.6,1.2c0.3,0.7,0.7,1.4,1.1,2.2c0.4,0.8,0.7,1.5,1.1,2.2v0.1l0.8,1.7c0.3,0.6,0.4,0.9,0.5,1
						c0.4,0.8,0.9,1.4,1.6,1.8c0.7,0.4,1.5,0.7,2.4,0.7c1.2,0,2.3-0.5,3.2-1.3c0.9-0.9,1.3-2,1.3-3.2c0-0.5-0.1-1-0.4-1.7
						c-0.2-0.5-0.4-1.1-0.7-1.7s-0.6-1.3-0.9-1.9c-0.3-0.7-0.7-1.3-1-2c-0.2-0.4-0.4-0.8-0.6-1.1c0.9-0.7,1.7-1.5,2.3-2.5
						c0.9-1.5,1.3-3.2,1.3-5.1c0-1.7-0.3-3.3-1-4.6s-1.5-2.3-2.7-3.1c-1.1-0.8-2.3-1.3-3.7-1.7C702.2,54.7,700.8,54.5,699.4,54.5
						L699.4,54.5z M694.3,63.3h5.8c0.7,0,1.1,0.2,1.3,0.4c0.1,0.1,0.3,0.2,0.3,0.8c0,0.5-0.2,0.7-0.2,0.7c-0.4,0.3-0.8,0.4-1.3,0.4
						h-5.8L694.3,63.3L694.3,63.3z"/>
				</g>
				<g>
					<path class="st5" d="M723.8,83.9c-1,0-1.9-0.4-2.6-1.1c-0.7-0.7-1-1.6-1-2.6V62.4H714c-1,0-1.8-0.3-2.4-1s-1-1.5-1-2.4
						s0.3-1.8,1-2.4c0.7-0.7,1.5-1,2.4-1h19.6c1,0,1.8,0.3,2.4,1c0.7,0.7,1,1.5,1,2.4s-0.4,1.8-1,2.4c-0.7,0.7-1.5,1-2.4,1h-6.2
						v17.9c0,1-0.4,1.9-1.1,2.6C725.7,83.5,724.8,83.9,723.8,83.9z"/>
					<path d="M733.6,56.5c0.7,0,1.3,0.2,1.7,0.7c0.5,0.5,0.7,1.1,0.7,1.7c0,0.7-0.2,1.3-0.7,1.7c-0.5,0.5-1.1,0.7-1.7,0.7h-7.2v18.9
						c0,0.7-0.3,1.4-0.8,1.9s-1.1,0.8-1.9,0.8s-1.3-0.3-1.8-0.8s-0.7-1.1-0.7-1.9V61.4H714c-0.7,0-1.3-0.2-1.7-0.7s-0.7-1-0.7-1.7
						s0.2-1.3,0.7-1.7s1-0.7,1.7-0.7L733.6,56.5 M733.6,54.5H714c-1.2,0-2.3,0.5-3.2,1.3c-0.8,0.9-1.3,1.9-1.3,3.1
						c0,1.2,0.4,2.3,1.3,3.1c0.8,0.8,1.9,1.3,3.1,1.3h5.2v16.9c0,1.3,0.5,2.4,1.3,3.3c0.9,0.9,2,1.4,3.3,1.4s2.4-0.5,3.3-1.3
						c0.9-0.9,1.3-2,1.3-3.3V63.4h5.2c1.2,0,2.3-0.4,3.1-1.3c0.9-0.8,1.3-1.9,1.3-3.2c0-1.2-0.5-2.3-1.3-3.2
						C735.9,54.9,734.8,54.5,733.6,54.5L733.6,54.5z"/>
				</g>
			</g>
		</g>
		<path class="st4" d="M778.4,231.1L778.4,231.1c-2.9,0-5.2-2.3-5.2-5.2V31.3c0-2.9,2.3-5.2,5.2-5.2l0,0c2.9,0,5.2,2.3,5.2,5.2
			v194.6C783.6,228.8,781.2,231.1,778.4,231.1z"/>
	</g>
</g>
<g id="Layer_5">
	<rect y="220" class="st6" width="800" height="30"/>
	<rect x="15" y="220" class="st3" width="99" height="6"/>
	<rect x="221" y="220" class="st3" width="99" height="6"/>
	<rect x="429" y="220" class="st3" width="99" height="6"/>
	<rect x="635" y="220" class="st3" width="99" height="6"/>
</g>
<g id="Layer_6">
</g>
<linearGradient id="SVGID_1_" gradientUnits="userSpaceOnUse" x1="664.3601" y1="185.9896" x2="710.2399" y2="185.9896">
	<stop  offset="0" style="stop-color:#FCEE21"/>
	<stop  offset="1" style="stop-color:#FCEE21;stop-opacity:0"/>
</linearGradient>
<polygon class="st7" points="710.2,210.9 664.4,192.8 664.4,180.5 710.2,161.1 "/>
<g id="Layer_2_1_">
	<g id="Layer_14_1_">
		<g id="flagcar-de">
			
				<radialGradient id="SVGID_2_" cx="476.9675" cy="97.1623" r="9.685" gradientTransform="matrix(1 0 0 -0.99 0 251.12)" gradientUnits="userSpaceOnUse">
				<stop  offset="0" style="stop-color:#DCDCDC"/>
				<stop  offset="0.69" style="stop-color:#A3A3A3"/>
				<stop  offset="1" style="stop-color:#878787"/>
			</radialGradient>
			<path class="st8" d="M481.8,151c-0.2,0.1-0.3,0.2-0.3,0.2s-7.5,0-12.9-0.7l7.7,8.3h10L481.8,151z"/>
			<path class="st9" d="M472.9,200v2.6l5.9,0.8c-0.2-1.1-0.2-2.3-0.2-3.4c0-3.6,0.8-7.2,2.4-10.4h-7.6L472.9,200z"/>
			<path class="st9" d="M655.8,189.6c2.7,5.5,3.2,11.9,1.2,17.8l14.2-0.1v-9.8c0,0-1.3-3.6-4.7-7.9H655.8z"/>
			<path class="st9" d="M671.3,197.5v-2.1c0-1.9-0.2-3.9-0.5-5.8h-0.1C671.1,192.2,671.3,194.8,671.3,197.5z"/>
			<path class="st9" d="M525.7,199.9c0,2.9-0.5,5.8-1.6,8.5l88.3-0.7c-2.1-6-1.7-12.5,1.1-18.2h-90.2
				C524.9,192.8,525.7,196.3,525.7,199.9z"/>
			<path d="M543.9,158l5.1-7.2c0,0,1.7-3,6.8-3.4c5.1-0.4,21.4,0,21.4,0s4.2-0.5,12.2,10.9h8l-5.3-6.7c0,0-2.6-2.6,0-3.8l7.3-0.4
				c-5.1-8.1-14.5-6.8-14.5-6.8s-29.9-1.3-34.2-0.8c-2.7,0.3-5.3,1-7.7,2.1l-32.7,16.4h33.3C543.8,158.1,543.9,158,543.9,158z"/>
			<path d="M481.8,151c1.5-1,7.8-5.6,1.4-11.3h-22.7c0,0,0,8.9,4.7,10.2c1.1,0.3,2.2,0.5,3.3,0.6c5.4,0.7,12.9,0.7,12.9,0.7
				S481.6,151.1,481.8,151z"/>
			<path class="st10" d="M670.8,189.6c-0.2-1.1-0.4-2.2-0.7-3.2C670.3,187.4,670.5,188.4,670.8,189.6L670.8,189.6z"/>
			<path class="st10" d="M549,163.1c-7.2-0.7-5.9-3.8-5.3-4.8h-33.3l-1.1,0.6c3.3,0,31.5,3.3,56.5,6.3
				C558.1,164.1,551.4,163.3,549,163.1z"/>
			<path class="st10" d="M473.3,189.6h7.6c5.8-11.7,20.1-16.4,31.8-10.6c4.6,2.3,8.3,6,10.6,10.6h90.2c5.8-11.7,20.1-16.4,31.8-10.6
				c4.6,2.3,8.3,6,10.6,10.6h10.7c-6.9-8.9-22.4-21.2-52.6-12.9l-149.6-8.3l0.1,12.6l8.9,8.4L473.3,189.6z"/>
			<path class="st10" d="M589.4,158.2c2.3,3.4,4.5,6.9,6.5,10.5l9.1,1.1l1-0.8l-8.5-10.8H589.4z"/>
			<path class="st10" d="M639.2,162.2c2.4,0.1,4.7,0.5,7,1C643.9,162.7,641.6,162.3,639.2,162.2z"/>
			<path class="st11" d="M524.1,208.5c-1.1,2.7-2.6,5.1-4.6,7.3h97.7c-2.1-2.3-3.8-5-4.8-8L524.1,208.5z"/>
			<path class="st11" d="M472.9,202.6V200l0.4-10.5v-0.2l-8.9-8.4l-0.1-0.1l0.2,19.1c-2.2,0-4,1.8-4,4c0,2.2,1.8,4,4,4c0,0,0,0,0,0
				l16.4,2.3c-1.1-2.2-1.9-4.6-2.2-7L472.9,202.6z"/>
			<path class="st11" d="M671.3,207.2l-14.2,0.1c-1,3.1-2.7,6-5,8.4h19.2c2.3,0.1,4.3-1.8,4.4-4.1c0.1-2.3-1.8-4.3-4.1-4.4
				C671.4,207.2,671.3,207.2,671.3,207.2L671.3,207.2z"/>
			<path class="st12" d="M637.9,162.2c0.4,0,0.8,0,1.3,0C638.4,162.2,637.9,162.2,637.9,162.2z"/>
			<path class="st12" d="M670,186.3c-3.8-15.7-15.6-21.2-23.8-23.1C657.7,166.2,666.8,175,670,186.3z"/>
			<path class="st12" d="M614.8,162.6l-0.2-0.2l0,0L614.8,162.6z"/>
			<path class="st9" d="M666.6,189.6c3.4,4.3,4.7,7.9,4.7,7.9c0-2.6-0.2-5.3-0.6-7.9H666.6z"/>
			<path class="st12" d="M666.6,189.6c3.4,4.3,4.7,7.9,4.7,7.9c0-2.6-0.2-5.3-0.6-7.9H666.6z"/>
			<path class="st10" d="M666.6,189.6h4.1c-0.2-1.1-0.4-2.2-0.6-3.2c-3.3-11.4-12.3-20.2-23.8-23.1c-2.3-0.5-4.7-0.9-7-1
				c-0.4,0-0.8,0-1.3,0h-23.1l-0.2,0.2l0.2,0.2l-0.3-0.2l-8.3,7l-0.3-0.4l-1,0.8l-9.1-1.1l0.2,0.3c0,0-16.6-2.2-30.3-3.9
				c-25-3-53.2-6.3-56.5-6.3H474c-5.3,0-9.6,4.2-9.6,9.5c0,0,0,0,0,0l149.6,8.3C644.2,168.4,659.7,180.6,666.6,189.6z"/>
			<path class="st12" d="M666.6,189.6h4.1c-0.2-1.1-0.4-2.2-0.6-3.2c-3.3-11.4-12.3-20.2-23.8-23.1c-2.3-0.5-4.7-0.9-7-1
				c-0.4,0-0.8,0-1.3,0h-23.1l-0.2,0.2l0.2,0.2l-0.3-0.2l-8.3,7l-0.3-0.4l-1,0.8l-9.1-1.1l0.2,0.3c0,0-16.6-2.2-30.3-3.9
				c-25-3-53.2-6.3-56.5-6.3H474c-5.3,0-9.6,4.2-9.6,9.5c0,0,0,0,0,0l149.6,8.3C644.2,168.4,659.7,180.6,666.6,189.6z"/>
			<path class="st13" d="M525.7,199.9c0-3.6-0.8-7.1-2.4-10.4c-5.8-11.7-20.1-16.4-31.8-10.6c-4.6,2.3-8.3,6-10.6,10.6
				c-1.6,3.2-2.4,6.8-2.4,10.4c0,1.1,0.1,2.3,0.2,3.4c0.4,2.4,1.1,4.8,2.2,7c5.8,11.7,20.1,16.4,31.7,10.5c5.2-2.6,9.3-7,11.4-12.5
				C525.2,205.7,525.7,202.8,525.7,199.9z M502.1,222.8c-12.7,0-23-10.2-23-22.8s10.3-22.8,23-22.8s23,10.2,23,22.8
				S514.8,222.8,502.1,222.8L502.1,222.8z"/>
			<path class="st14" d="M525.1,199.9c0-12.6-10.3-22.8-23-22.8s-23,10.2-23,22.8s10.3,22.8,23,22.8S525.1,212.5,525.1,199.9z
				 M484.8,199.9c-0.1-9.5,7.6-17.3,17.2-17.4c9.5-0.1,17.3,7.6,17.4,17.2s-7.6,17.3-17.2,17.4c0,0-0.1,0-0.1,0
				C492.6,217.1,484.9,209.4,484.8,199.9L484.8,199.9z"/>
			<path d="M519.4,199.9c0.1-9.5-7.6-17.3-17.2-17.4c-9.5-0.1-17.3,7.6-17.4,17.2s7.6,17.3,17.2,17.4c0,0,0.1,0,0.1,0
				C511.6,217.1,519.4,209.4,519.4,199.9z M485.7,199.9c-0.1-9.1,7.3-16.5,16.3-16.5s16.5,7.3,16.5,16.3c0.1,9.1-7.3,16.5-16.3,16.5
				c0,0-0.1,0-0.1,0C493.1,216.3,485.7,209,485.7,199.9C485.7,199.9,485.7,199.9,485.7,199.9z"/>
			<path class="st3" d="M518.6,199.9c0.1-9.1-7.3-16.5-16.3-16.5c-9.1-0.1-16.5,7.3-16.5,16.3c-0.1,9.1,7.3,16.5,16.3,16.5
				c0,0,0.1,0,0.1,0C511.2,216.3,518.5,209,518.6,199.9C518.6,199.9,518.6,199.9,518.6,199.9z M486.5,199.9
				c-0.1-8.6,6.9-15.6,15.5-15.7c8.6-0.1,15.6,6.9,15.7,15.5c0.1,8.6-6.9,15.6-15.5,15.7c0,0-0.1,0-0.1,0
				C493.5,215.5,486.6,208.5,486.5,199.9C486.5,199.9,486.5,199.9,486.5,199.9z"/>
			<path class="st15" d="M517.7,199.9c0.1-8.6-6.9-15.6-15.5-15.7c-8.6-0.1-15.6,6.9-15.7,15.5s6.9,15.6,15.5,15.7c0,0,0.1,0,0.1,0
				C510.7,215.5,517.7,208.5,517.7,199.9C517.7,199.9,517.7,199.9,517.7,199.9z M492.4,199.9c0-5.4,4.3-9.7,9.6-9.8
				c5.4,0,9.7,4.3,9.8,9.6c0,5.4-4.3,9.7-9.6,9.8c0,0,0,0-0.1,0C496.8,209.6,492.5,205.3,492.4,199.9
				C492.4,199.9,492.4,199.9,492.4,199.9z"/>
			<path class="st16" d="M502.1,209.6c5.3,0,9.6-4.4,9.6-9.7c0-5.3-4.4-9.6-9.7-9.6c-5.3,0-9.6,4.3-9.6,9.6
				C492.5,205.3,496.8,209.6,502.1,209.6C502.1,209.6,502.1,209.6,502.1,209.6z M493.3,199.9c0-4.9,3.9-8.9,8.8-8.9s8.9,3.9,8.9,8.8
				c0,4.9-3.9,8.9-8.8,8.9c0,0,0,0-0.1,0C497.3,208.7,493.3,204.8,493.3,199.9L493.3,199.9z"/>
			<ellipse class="st17" cx="502.1" cy="199.9" rx="8.9" ry="8.8"/>
			<path class="st13" d="M658.3,199.9c0-3.6-0.8-7.1-2.4-10.4c-5.8-11.7-20.1-16.4-31.8-10.6c-4.6,2.3-8.3,6-10.6,10.6
				c-2.8,5.7-3.2,12.2-1.1,18.2c4.3,12.3,17.8,18.7,30.1,14.4C651.9,218.8,658.2,209.9,658.3,199.9L658.3,199.9z M634.7,222.8
				c-12.7,0-23-10.2-23-22.8s10.3-22.8,23-22.8c12.7,0,23,10.2,23,22.8S647.4,222.8,634.7,222.8z"/>
			<path class="st14" d="M657.6,199.9c0-12.6-10.3-22.8-23-22.8s-23,10.2-23,22.8s10.3,22.8,23,22.8
				C647.3,222.8,657.6,212.5,657.6,199.9z M634.7,217.1c-9.5-0.1-17.1-7.8-17.1-17.3c0.1-9.5,7.8-17.1,17.3-17.1
				c9.4,0.1,17.1,7.7,17.1,17.2C651.9,209.4,644.2,217.1,634.7,217.1C634.7,217.1,634.7,217.1,634.7,217.1z"/>
			<path d="M651.9,199.9c0.1-9.5-7.6-17.3-17.2-17.4c-9.5-0.1-17.3,7.6-17.4,17.2c-0.1,9.5,7.6,17.3,17.2,17.4c0,0,0.1,0,0.1,0
				C644.2,217.1,651.9,209.4,651.9,199.9C651.9,199.9,651.9,199.9,651.9,199.9z M634.7,216.3c-9-0.1-16.3-7.4-16.2-16.4
				c0.1-9,7.4-16.3,16.4-16.2c9,0.1,16.2,7.4,16.2,16.3C651.1,209,643.7,216.3,634.7,216.3C634.7,216.3,634.7,216.3,634.7,216.3z"/>
			<path class="st3" d="M651.1,199.9c0.1-9.1-7.3-16.5-16.3-16.5c-9.1-0.1-16.5,7.3-16.5,16.3c-0.1,9.1,7.3,16.5,16.3,16.5
				c0,0,0.1,0,0.1,0C643.7,216.3,651.1,209,651.1,199.9C651.1,199.9,651.1,199.9,651.1,199.9z M634.7,215.4
				c-8.6-0.1-15.5-7-15.4-15.6c0.1-8.6,7-15.5,15.6-15.4c8.5,0.1,15.4,7,15.4,15.5C650.2,208.5,643.2,215.5,634.7,215.4z"/>
			<path class="st15" d="M650.3,199.9c0.1-8.6-6.9-15.6-15.5-15.7s-15.6,6.9-15.7,15.5c-0.1,8.6,6.9,15.6,15.5,15.7c0,0,0.1,0,0.1,0
				C643.2,215.5,650.2,208.5,650.3,199.9C650.3,199.9,650.3,199.9,650.3,199.9z M625,199.9c0-5.4,4.3-9.7,9.6-9.8
				c5.4,0,9.7,4.3,9.8,9.6c0,5.4-4.3,9.7-9.6,9.8c0,0,0,0-0.1,0C629.3,209.6,625,205.3,625,199.9z"/>
			<path class="st16" d="M644.4,199.9c0-5.4-4.3-9.7-9.6-9.8c-5.4,0-9.7,4.3-9.8,9.6c0,5.4,4.3,9.7,9.6,9.8c0,0,0,0,0.1,0
				C640,209.6,644.3,205.3,644.4,199.9C644.4,199.9,644.4,199.9,644.4,199.9z M625.8,199.9c0-4.9,3.9-8.9,8.8-8.9s8.9,3.9,8.9,8.8
				s-3.9,8.9-8.8,8.9c0,0-0.1,0-0.1,0C629.8,208.7,625.8,204.8,625.8,199.9L625.8,199.9z"/>
			<ellipse class="st17" cx="634.7" cy="199.9" rx="8.9" ry="8.8"/>
			<path d="M577.2,147.3c0,0-16.2-0.4-21.4,0c-5.1,0.4-6.8,3.4-6.8,3.4l-5.1,7.2c0,0-0.1,0.1-0.2,0.3h45.7
				C581.4,146.8,577.2,147.3,577.2,147.3z"/>
			
				<linearGradient id="SVGID_3_" gradientUnits="userSpaceOnUse" x1="543.2" y1="99.301" x2="596.0345" y2="99.301" gradientTransform="matrix(1 0 0 -1 0 252)">
				<stop  offset="0" style="stop-color:#C9E7F9"/>
				<stop  offset="1" style="stop-color:#AAFFF9"/>
			</linearGradient>
			<path class="st18" d="M577.2,147.3c0,0-16.2-0.4-21.4,0c-5.1,0.4-6.8,3.4-6.8,3.4l-5.1,7.2c0,0-0.1,0.1-0.2,0.3h45.7
				C581.4,146.8,577.2,147.3,577.2,147.3z"/>
			<path class="st10" d="M543.7,158.2c-0.6,1-1.9,4.1,5.3,4.8c2.4,0.2,9.1,1.1,16.7,2c11.8,1.4,22.8,2.7,30.1,3.6
				c-2-3.6-4.1-7.1-6.5-10.5H543.7z"/>
			
				<linearGradient id="SVGID_4_" gradientUnits="userSpaceOnUse" x1="543.2003" y1="88.5055" x2="596.0347" y2="88.5055" gradientTransform="matrix(1 0 0 -1 0 252)">
				<stop  offset="0" style="stop-color:#C9E7F9"/>
				<stop  offset="1" style="stop-color:#AAFFF9"/>
			</linearGradient>
			<path class="st19" d="M543.7,158.2c-0.6,1-1.9,4.1,5.3,4.8c2.4,0.2,9.1,1.1,16.7,2c11.8,1.4,22.8,2.7,30.1,3.6
				c-2-3.6-4.1-7.1-6.5-10.5H543.7z"/>
			<path class="st10" d="M596,169l-0.2-0.3c-7.3-0.9-18.4-2.2-30.1-3.6C579.4,166.8,596,169,596,169z"/>
			<path class="st12" d="M596,169l-0.2-0.3c-7.3-0.9-18.4-2.2-30.1-3.6C579.4,166.8,596,169,596,169z"/>
			
				<linearGradient id="SVGID_5_" gradientUnits="userSpaceOnUse" x1="543.2" y1="84.9539" x2="596.0345" y2="84.9539" gradientTransform="matrix(1 0 0 -1 0 252)">
				<stop  offset="0" style="stop-color:#C9E7F9"/>
				<stop  offset="1" style="stop-color:#AAFFF9"/>
			</linearGradient>
			<path class="st20" d="M596,169l-0.2-0.3c-7.3-0.9-18.4-2.2-30.1-3.6C579.4,166.8,596,169,596,169z"/>
			
				<linearGradient id="SVGID_6_" gradientUnits="userSpaceOnUse" x1="591.0466" y1="97.1967" x2="614.8453" y2="97.1967" gradientTransform="matrix(1 0 0 -1 0 252)">
				<stop  offset="0" style="stop-color:#C9E7F9"/>
				<stop  offset="1" style="stop-color:#AAFFF9"/>
			</linearGradient>
			<path class="st21" d="M609.3,158.2c2.2,2,4.1,3.4,5,4l0.1-0.1h0.4l-15.4-14.9C602.1,151.5,606.1,155.4,609.3,158.2z"/>
			<path d="M592.2,151.6l5.3,6.7h11.9c-3.3-2.8-7.3-6.8-9.9-10.9l-7.3,0.4C589.6,149,592.2,151.6,592.2,151.6z"/>
			
				<linearGradient id="SVGID_7_" gradientUnits="userSpaceOnUse" x1="591.0469" y1="99.2066" x2="614.8456" y2="99.2066" gradientTransform="matrix(1 0 0 -1 0 252)">
				<stop  offset="0" style="stop-color:#C9E7F9"/>
				<stop  offset="1" style="stop-color:#AAFFF9"/>
			</linearGradient>
			<path class="st22" d="M592.2,151.6l5.3,6.7h11.9c-3.3-2.8-7.3-6.8-9.9-10.9l-7.3,0.4C589.6,149,592.2,151.6,592.2,151.6z"/>
			<path class="st10" d="M609.3,158.2h-11.9l8.5,10.8l8.3-6.8C613.5,161.7,611.6,160.2,609.3,158.2z"/>
			
				<linearGradient id="SVGID_8_" gradientUnits="userSpaceOnUse" x1="591.0466" y1="88.3473" x2="614.8453" y2="88.3473" gradientTransform="matrix(1 0 0 -1 0 252)">
				<stop  offset="0" style="stop-color:#C9E7F9"/>
				<stop  offset="1" style="stop-color:#AAFFF9"/>
			</linearGradient>
			<path class="st23" d="M609.3,158.2h-11.9l8.5,10.8l8.3-6.8C613.5,161.7,611.6,160.2,609.3,158.2z"/>
			<path class="st12" d="M614.3,162.3l0.2,0.2l0,0L614.3,162.3L614.3,162.3z"/>
			
				<linearGradient id="SVGID_9_" gradientUnits="userSpaceOnUse" x1="591.0466" y1="89.6766" x2="614.8453" y2="89.6766" gradientTransform="matrix(1 0 0 -1 0 252)">
				<stop  offset="0" style="stop-color:#C9E7F9"/>
				<stop  offset="1" style="stop-color:#AAFFF9"/>
			</linearGradient>
			<path class="st24" d="M614.3,162.3l0.2,0.2l0,0L614.3,162.3L614.3,162.3z"/>
			<path class="st10" d="M606,169.1l0.3,0.4l8.3-7l-0.2-0.2L606,169.1z"/>
			<path class="st12" d="M606,169.1l0.3,0.4l8.3-7l-0.2-0.2L606,169.1z"/>
			
				<linearGradient id="SVGID_10_" gradientUnits="userSpaceOnUse" x1="591.0466" y1="86.1505" x2="614.8453" y2="86.1505" gradientTransform="matrix(1 0 0 -1 0 252)">
				<stop  offset="0" style="stop-color:#C9E7F9"/>
				<stop  offset="1" style="stop-color:#AAFFF9"/>
			</linearGradient>
			<path class="st25" d="M606,169.1l0.3,0.4l8.3-7l-0.2-0.2L606,169.1z"/>
			<polygon class="st10" points="614.6,162.4 614.8,162.2 614.4,162.2 			"/>
			<polygon class="st12" points="614.6,162.4 614.8,162.2 614.4,162.2 			"/>
			
				<linearGradient id="SVGID_11_" gradientUnits="userSpaceOnUse" x1="591.0466" y1="89.6941" x2="614.8453" y2="89.6941" gradientTransform="matrix(1 0 0 -1 0 252)">
				<stop  offset="0" style="stop-color:#C9E7F9"/>
				<stop  offset="1" style="stop-color:#AAFFF9"/>
			</linearGradient>
			<polygon class="st26" points="614.6,162.4 614.8,162.2 614.4,162.2 			"/>
		</g>
	</g>
</g>
<g id="Layer_8">
	
		<linearGradient id="SVGID_12_" gradientUnits="userSpaceOnUse" x1="400" y1="252" x2="400" y2="2" gradientTransform="matrix(1 0 0 -1 0 252)">
		<stop  offset="0" style="stop-color:#666666"/>
		<stop  offset="1" style="stop-color:#333333"/>
	</linearGradient>
	<rect class="st27" width="800" height="250"/>
</g>
</svg>
