<?xml version="1.0" encoding="utf-8"?>
<!-- Generator: Adobe Illustrator 25.0.0, SVG Export Plug-In . SVG Version: 6.00 Build 0)  -->
<svg version="1.1" id="Layer_1" xmlns="http://www.w3.org/2000/svg" xmlns:xlink="http://www.w3.org/1999/xlink" x="0px" y="0px"
	 viewBox="0 0 800 250" style="enable-background:new 0 0 800 250;" xml:space="preserve">
<style type="text/css">
	.st0{fill:#222222;}
	.st1{opacity:0.8;fill:#FFFFFF;enable-background:new    ;}
	.st2{fill:#1C1C1C;}
	.st3{fill:#FFFFFF;}
	.st4{fill:#444444;}
	.st5{fill:#FF0000;}
	.st6{fill:#3B3B3B;}
	.st7{fill:url(#SVGID_1_);}
	.st8{fill:#B5B5B5;}
	.st9{fill:#494949;}
	.st10{fill:#AAAAAA;}
	.st11{fill:#63401A;}
	.st12{clip-path:url(#SVGID_3_);}
	.st13{fill:#ADADAD;stroke:#777777;stroke-width:4;stroke-miterlimit:10;}
	.st14{fill:#BF1010;}
	.st15{fill:#9B9B9B;}
	.st16{fill:#5E5E5E;}
	.st17{fill:#777777;}
	.st18{fill:#191919;}
	.st19{fill:#32323F;}
	.st20{fill:#474757;}
	.st21{fill:#DDDDDD;}
	.st22{fill:#BAC0D8;}
	.st23{fill:#ACAFBC;}
	.st24{fill:#D8D8D8;}
	.st25{fill:#474747;}
	.st26{opacity:0.47;fill:url(#SVGID_4_);enable-background:new    ;}
</style>
<g id="Layer_1_1_">
	<rect class="st0" width="800" height="250"/>
</g>
<g id="Layer_7">
	<circle class="st1" cx="579.5" cy="72.5" r="3.5"/>
	<circle class="st1" cx="694.5" cy="30.5" r="3.5"/>
	<circle class="st1" cx="464.5" cy="34.5" r="3.5"/>
	<circle class="st1" cx="727.5" cy="125.5" r="3.5"/>
	<circle class="st1" cx="486.5" cy="130.5" r="3.5"/>
	<circle class="st1" cx="201.5" cy="20.5" r="3.5"/>
	<circle class="st1" cx="83.5" cy="34.5" r="3.5"/>
	<circle class="st1" cx="29.5" cy="98.5" r="3.5"/>
	<g>
		<g>
			<path class="st2" d="M306,155.5c-6.4,8.9-15.2,16.4-25.9,21.3c-21.5,9.8-45.4,7-63.6-5.3c-8.4,13.6-13.7,29.4-14.8,46.3h-0.2v28
				h203.3v-28h-0.2c-1.4-20.6-8.9-39.5-20.7-54.9c-2.4,1.5-4.9,2.8-7.5,4C352,178,324.4,172.6,306,155.5z"/>
			<path class="st3" d="M303.1,123c-36.6,0-68.7,19.4-86.6,48.5c18.2,12.3,42.2,15.1,63.6,5.3c10.7-4.9,19.5-12.3,25.9-21.3
				c18.4,17.1,46,22.5,70.3,11.4c2.6-1.2,5.1-2.5,7.5-4C365.2,138.6,336,123,303.1,123z"/>
		</g>
		<g>
			<path class="st4" d="M256.1,252.1c-1.9-28-15.1-52.9-35.1-70.1c-4.7,1.8-9.8,2.8-15.2,2.8c-10.6,0-20.2-3.9-27.7-10.3
				c-4.5,5.1-9.9,9.3-16,12.4c-6.2,29-31.9,50.8-62.8,50.8c-15.2,0-29.1-5.3-40.1-14c-3.3,9-5.4,18.5-6.1,28.5H53V250h203.3v2.1
				H256.1z"/>
			<path class="st3" d="M162.2,186.9c6.1-3.1,11.5-7.3,16-12.4c7.4,6.4,17.1,10.3,27.7,10.3c5.4,0,10.5-1,15.2-2.8
				c-17.8-15.4-41-24.7-66.4-24.7c-43.7,0-81,27.6-95.4,66.3c11,8.8,24.9,14,40.1,14C130.3,237.7,156,215.9,162.2,186.9z"/>
		</g>
	</g>
	<path class="st4" d="M565.5,231.1L565.5,231.1c-2.9,0-5.2-2.3-5.2-5.2V31.3c0-2.9,2.3-5.2,5.2-5.2l0,0c2.9,0,5.2,2.3,5.2,5.2v194.6
		C570.7,228.8,568.4,231.1,565.5,231.1z"/>
	<g>
		<g>
			<rect x="570.7" y="36.3" class="st3" width="33.7" height="33.7"/>
			<rect x="570.7" y="70" width="33.7" height="33.7"/>
			<rect x="604.5" y="70.1" class="st3" width="33.7" height="33.7"/>
			<rect x="604.5" y="36.3" width="33.7" height="33.7"/>
			<rect x="638.2" y="36.3" class="st3" width="33.7" height="33.7"/>
			<rect x="638.2" y="70" width="33.7" height="33.7"/>
			<rect x="672" y="70.1" class="st3" width="33.7" height="33.7"/>
			<rect x="672" y="36.3" width="33.7" height="33.7"/>
			<rect x="705.7" y="36.3" class="st3" width="33.7" height="33.7"/>
			<rect x="705.7" y="70" width="33.7" height="33.7"/>
			<rect x="739.5" y="70.1" class="st3" width="33.7" height="33.7"/>
			<rect x="739.5" y="36.3" width="33.7" height="33.7"/>
		</g>
		<g>
			<g>
				<g>
					<path class="st5" d="M620,84.1c-0.5,0-1.1,0-1.9-0.1c-0.8-0.1-1.6-0.2-2.4-0.4c-0.9-0.2-1.8-0.4-2.6-0.7
						c-0.9-0.3-1.7-0.6-2.5-1s-1.5-0.9-2-1.4c-0.6-0.7-0.9-1.4-0.9-2.3s0.3-1.7,1-2.4c0.7-0.7,1.5-1.1,2.4-1.1
						c0.6,0,1.1,0.1,1.6,0.4c0.6,0.3,1.2,0.6,1.8,0.9c0.6,0.2,1.2,0.4,1.8,0.6s1.2,0.3,1.8,0.4s1.3,0.1,2,0.1c0.4,0,1,0,1.6-0.1
						s1.1-0.2,1.6-0.3c0.5-0.2,0.8-0.4,1.2-0.7c0.1-0.1,0.3-0.3,0.3-0.8c0-0.3-0.1-0.7-0.7-1c-0.7-0.4-1.6-0.8-2.7-1.1
						c-1.1-0.4-2.4-0.7-3.7-1.1c-1.4-0.4-2.8-0.9-4-1.6c-1.3-0.7-2.3-1.6-3.2-2.7c-0.9-1.2-1.4-2.7-1.4-4.6c0-1.6,0.4-3,1.2-4.1
						c0.7-1.1,1.7-1.9,2.9-2.5c1.1-0.6,2.3-1,3.7-1.2c1.3-0.2,2.6-0.3,3.8-0.3c0.6,0,1.3,0,2.1,0.1s1.6,0.2,2.4,0.3
						c0.8,0.1,1.6,0.3,2.3,0.5c0.8,0.2,1.5,0.5,2.1,0.7c0.6,0.3,1.1,0.7,1.5,1.1c0.4,0.5,0.6,1.2,0.6,2c0,0.9-0.3,1.8-1,2.4
						s-1.5,1-2.4,1c-0.4,0-0.8-0.1-1.3-0.3c-1-0.4-2.1-0.7-3.1-0.9s-2.1-0.3-3.2-0.3c-0.4,0-0.9,0-1.5,0c-0.5,0-1.1,0.1-1.6,0.2
						c-0.4,0.1-0.8,0.3-1.1,0.5c-0.1,0.1-0.2,0.2-0.2,0.6c0,0.1,0,0.3,0.2,0.5c0.2,0.3,0.6,0.5,1,0.8c0.4,0.3,1,0.5,1.5,0.7
						c0.6,0.2,1.2,0.4,1.8,0.6s1.1,0.3,1.6,0.5c0.5,0.1,0.9,0.3,1.2,0.3c1,0.3,2,0.7,3,1.1s1.9,0.9,2.7,1.6c0.8,0.6,1.4,1.5,1.9,2.4
						c0.5,1,0.7,2.1,0.7,3.4c0,1.7-0.4,3.2-1.1,4.4c-0.7,1.1-1.7,2.1-2.9,2.8c-1.1,0.7-2.4,1.1-3.8,1.4
						C622.7,83.9,621.3,84.1,620,84.1z"/>
					<path d="M620.6,56c0.6,0,1.3,0,2.1,0.1s1.5,0.2,2.3,0.3s1.5,0.3,2.3,0.5c0.7,0.2,1.4,0.4,1.9,0.7c0.4,0.2,0.8,0.5,1.1,0.9
						s0.4,0.8,0.4,1.3c0,0.7-0.2,1.3-0.7,1.7c-0.5,0.5-1.1,0.7-1.7,0.7c-0.3,0-0.6-0.1-0.9-0.2c-1.1-0.4-2.2-0.7-3.2-0.9
						c-1.1-0.2-2.2-0.3-3.4-0.3c-0.4,0-0.9,0-1.5,0s-1.2,0.1-1.8,0.3s-1.1,0.4-1.5,0.7s-0.6,0.8-0.6,1.4c0,0.4,0.2,0.8,0.5,1.2
						s0.7,0.7,1.2,1s1.1,0.6,1.7,0.8c0.6,0.2,1.2,0.4,1.8,0.6s1.1,0.3,1.6,0.5c0.5,0.1,0.9,0.3,1.2,0.3c1,0.3,1.9,0.7,2.9,1
						c0.9,0.4,1.7,0.8,2.4,1.4s1.2,1.3,1.7,2.1c0.4,0.8,0.6,1.8,0.6,3c0,1.5-0.3,2.8-1,3.8s-1.5,1.8-2.5,2.4s-2.2,1-3.5,1.3
						c-1.3,0.2-2.6,0.4-3.9,0.4c-0.4,0-1,0-1.8-0.1c-0.7-0.1-1.5-0.2-2.3-0.4c-0.8-0.2-1.7-0.4-2.5-0.6c-0.8-0.3-1.6-0.6-2.3-0.9
						c-0.7-0.4-1.3-0.8-1.7-1.2c-0.4-0.5-0.7-1-0.7-1.6s0.2-1.2,0.7-1.7s1-0.7,1.7-0.7c0.4,0,0.8,0.1,1.1,0.3
						c0.7,0.4,1.3,0.7,1.9,0.9c0.6,0.3,1.3,0.5,1.9,0.6c0.6,0.2,1.3,0.3,1.9,0.4c0.7,0.1,1.4,0.1,2.1,0.1c0.5,0,1,0,1.7-0.1
						c0.6-0.1,1.3-0.2,1.8-0.4c0.6-0.2,1.1-0.5,1.5-0.9s0.6-0.9,0.6-1.5c0-0.8-0.4-1.4-1.2-1.9s-1.7-0.9-2.9-1.2
						c-1.1-0.4-2.4-0.7-3.8-1.1c-1.4-0.4-2.6-0.9-3.8-1.5c-1.1-0.6-2.1-1.4-2.9-2.5c-0.8-1-1.2-2.4-1.2-4c0-1.4,0.3-2.6,1-3.6
						s1.5-1.7,2.5-2.2s2.2-0.9,3.4-1.1C618.2,56.1,619.5,56,620.6,56 M620.6,54c-1.3,0-2.6,0.1-4,0.3c-1.5,0.2-2.8,0.7-4,1.3
						c-1.3,0.7-2.4,1.6-3.2,2.8c-0.9,1.3-1.3,2.9-1.3,4.7c0,2.1,0.5,3.9,1.6,5.2c0.9,1.2,2.1,2.3,3.5,3c1.3,0.7,2.7,1.3,4.2,1.7
						c1.3,0.4,2.6,0.7,3.7,1.1c1,0.3,1.8,0.6,2.4,1c0.1,0.1,0.2,0.1,0.2,0.1l0,0c0,0,0,0,0,0.1c-0.2,0.2-0.5,0.3-0.8,0.4
						c-0.4,0.1-0.9,0.2-1.4,0.3c-0.6,0.1-1.1,0.1-1.5,0.1c-0.7,0-1.3,0-1.9-0.1c-0.6-0.1-1.1-0.2-1.7-0.3c-0.5-0.1-1.1-0.3-1.6-0.6
						c-0.6-0.2-1.1-0.5-1.7-0.8c-0.7-0.4-1.4-0.6-2.1-0.6c-1.2,0-2.3,0.5-3.1,1.4s-1.3,1.9-1.3,3.1c0,1.1,0.4,2.1,1.2,2.9
						c0.6,0.6,1.4,1.2,2.2,1.6s1.7,0.8,2.6,1c0.9,0.3,1.8,0.5,2.7,0.7s1.7,0.3,2.5,0.4s1.5,0.1,2,0.1c1.4,0,2.8-0.1,4.2-0.4
						c1.5-0.3,2.9-0.8,4.1-1.5c1.3-0.8,2.4-1.8,3.2-3.1c0.9-1.3,1.3-3,1.3-4.9c0-1.5-0.3-2.8-0.8-3.9s-1.3-2-2.2-2.7
						c-0.8-0.7-1.8-1.3-2.9-1.7c-1-0.4-2-0.8-3-1.1l0,0l0,0c-0.3-0.1-0.7-0.2-1.2-0.3c-0.5-0.1-1-0.3-1.6-0.5
						c-0.5-0.2-1.1-0.4-1.7-0.6c-0.5-0.2-1-0.4-1.4-0.6c-0.2-0.1-0.4-0.3-0.6-0.4c0.1-0.1,0.3-0.1,0.5-0.2c0.4-0.1,0.9-0.2,1.3-0.2
						c0.6,0,1.1,0,1.5,0c1,0,2,0.1,3,0.3s2,0.5,3,0.8c0.6,0.2,1.1,0.3,1.6,0.3c1.2,0,2.3-0.5,3.2-1.3c0.9-0.9,1.3-1.9,1.3-3.2
						c0-1-0.3-1.9-0.9-2.6c-0.5-0.6-1.1-1.1-1.8-1.4c-0.7-0.3-1.4-0.6-2.3-0.8c-0.8-0.2-1.6-0.4-2.4-0.5c-0.8-0.2-1.7-0.3-2.5-0.3
						C622,54.1,621.3,54,620.6,54L620.6,54z"/>
				</g>
				<g>
					<path class="st5" d="M644.9,83.9c-1,0-1.9-0.4-2.6-1.1c-0.7-0.7-1-1.6-1-2.6V62.4h-6.2c-1,0-1.8-0.3-2.4-1s-1-1.5-1-2.4
						s0.3-1.8,1-2.4c0.7-0.7,1.5-1,2.4-1h19.6c0.9,0,1.8,0.3,2.4,1c0.7,0.7,1,1.5,1,2.4s-0.4,1.8-1,2.4c-0.7,0.7-1.5,1-2.4,1h-6.2
						v17.9c0,1-0.4,1.9-1.1,2.6C646.7,83.5,645.9,83.9,644.9,83.9z"/>
					<path d="M654.7,56.5c0.7,0,1.3,0.2,1.7,0.7c0.5,0.5,0.7,1.1,0.7,1.7c0,0.7-0.2,1.3-0.7,1.7c-0.5,0.5-1.1,0.7-1.7,0.7h-7.2v18.9
						c0,0.7-0.3,1.4-0.8,1.9s-1.1,0.8-1.9,0.8s-1.3-0.3-1.8-0.8s-0.7-1.1-0.7-1.9V61.4h-7.2c-0.7,0-1.3-0.2-1.7-0.7s-0.7-1-0.7-1.7
						s0.2-1.3,0.7-1.7s1-0.7,1.7-0.7L654.7,56.5 M654.7,54.5h-19.6c-1.2,0-2.3,0.5-3.2,1.3c-0.8,0.9-1.3,1.9-1.3,3.1
						c0,1.2,0.4,2.3,1.3,3.1c0.8,0.8,1.9,1.3,3.1,1.3h5.2v16.9c0,1.3,0.5,2.4,1.3,3.3c0.9,0.9,2,1.4,3.3,1.4s2.4-0.5,3.3-1.3
						c0.9-0.9,1.3-2,1.3-3.3V63.4h5.2c1.2,0,2.3-0.4,3.1-1.3c0.9-0.8,1.3-1.9,1.3-3.2c0-1.2-0.5-2.3-1.3-3.2
						C657,54.9,655.9,54.5,654.7,54.5L654.7,54.5z"/>
				</g>
				<g>
					<path class="st5" d="M680.2,83.9c-0.7,0-1.3-0.2-1.9-0.5c-0.5-0.3-1-0.8-1.2-1.4l-1.9-4.2h-10l-1.9,4.2
						c-0.3,0.6-0.7,1.1-1.3,1.5c-0.6,0.3-1.2,0.5-1.8,0.5c-1,0-1.8-0.3-2.4-1c-0.7-0.7-1-1.5-1-2.4c0-0.5,0.1-1,0.3-1.4l10-21.9
						c0.3-0.6,0.7-1.1,1.2-1.4c0.6-0.4,1.2-0.6,1.8-0.6s1.3,0.2,1.8,0.5c0.6,0.4,1,0.8,1.3,1.5l10,21.9c0.2,0.5,0.3,1,0.3,1.4
						c0,0.9-0.3,1.8-1,2.4C682,83.5,681.1,83.9,680.2,83.9z M672.3,71.3l-2.1-4.7l-2.1,4.7H672.3z"/>
					<path d="M670.1,56.1c0.5,0,0.9,0.1,1.3,0.4c0.4,0.2,0.7,0.6,0.9,1l10,21.9c0.1,0.3,0.2,0.7,0.2,1c0,0.7-0.2,1.3-0.7,1.7
						s-1,0.7-1.7,0.7c-0.5,0-0.9-0.1-1.3-0.4c-0.4-0.2-0.7-0.6-0.9-1l-2.2-4.8h-11.3l-2.2,4.8c-0.2,0.4-0.5,0.8-0.9,1
						s-0.8,0.4-1.3,0.4c-0.7,0-1.3-0.2-1.7-0.7c-0.5-0.5-0.7-1.1-0.7-1.7c0-0.3,0.1-0.7,0.2-1l10-21.9c0.2-0.4,0.5-0.8,0.9-1
						C669.2,56.3,669.6,56.1,670.1,56.1 M666.5,72.3h7.3l-3.7-8.1L666.5,72.3 M670.1,54.1c-0.9,0-1.7,0.2-2.4,0.7s-1.2,1.1-1.6,1.9
						l-10,21.8c-0.3,0.6-0.4,1.2-0.4,1.8c0,1.2,0.5,2.3,1.3,3.2c0.9,0.9,1.9,1.3,3.2,1.3c0.9,0,1.6-0.2,2.4-0.7
						c0.7-0.5,1.3-1.1,1.6-1.9l1.6-3.6h8.7l1.6,3.6c0.4,0.8,0.9,1.4,1.6,1.9c0.7,0.5,1.5,0.7,2.4,0.7c1.2,0,2.3-0.5,3.1-1.3
						s1.3-1.9,1.3-3.1c0-0.6-0.1-1.2-0.3-1.7v-0.1v-0.1l-10-21.9c-0.4-0.8-1-1.5-1.7-1.9C671.7,54.4,670.9,54.1,670.1,54.1
						L670.1,54.1z M669.6,70.3l0.6-1.3l0.6,1.3H669.6L669.6,70.3z"/>
				</g>
				<g>
					<path class="st5" d="M706.3,83.9c-0.7,0-1.3-0.2-1.8-0.5c-0.6-0.3-1-0.8-1.3-1.4c-0.1-0.2-0.3-0.5-0.5-1l-0.8-1.7
						c-0.4-0.8-0.7-1.5-1.1-2.3c-0.4-0.8-0.8-1.5-1.1-2.2c-0.3-0.6-0.6-1.2-0.8-1.6c0-0.1-0.1-0.1-0.1-0.2h-5.5v7.3
						c0,1-0.4,1.9-1.1,2.6c-0.7,0.7-1.6,1-2.5,1c-1,0-1.9-0.3-2.5-1c-0.7-0.7-1-1.5-1-2.5V59.1c0-1,0.3-1.9,1-2.5
						c0.7-0.7,1.5-1,2.5-1h9.7c1.3,0,2.7,0.1,3.9,0.4c1.3,0.3,2.4,0.8,3.4,1.5s1.8,1.7,2.4,2.8c0.6,1.1,0.9,2.5,0.9,4.1
						c0,1.7-0.4,3.3-1.2,4.6c-0.6,1.1-1.6,2-2.7,2.6c0,0.1,0.1,0.1,0.1,0.2c0.3,0.5,0.6,1.1,0.9,1.7c0.3,0.6,0.6,1.3,1,1.9
						c0.3,0.7,0.6,1.3,0.9,1.9c0.3,0.6,0.5,1.2,0.7,1.7c0.2,0.6,0.3,1,0.3,1.4c0,1-0.3,1.8-1,2.5C708.1,83.5,707.3,83.9,706.3,83.9z
						 M700.1,66.6c0.8,0,1.4-0.2,1.9-0.6c0.3-0.2,0.6-0.6,0.6-1.5c0-1-0.4-1.4-0.6-1.6c-0.5-0.4-1.1-0.6-1.9-0.6h-6.8v4.3
						C693.3,66.6,700.1,66.6,700.1,66.6z"/>
					<path d="M699.4,56.5c1.3,0,2.5,0.1,3.7,0.4c1.2,0.3,2.2,0.7,3,1.4c0.9,0.6,1.5,1.4,2.1,2.4s0.8,2.2,0.8,3.6
						c0,1.5-0.4,2.9-1.1,4.1c-0.7,1.2-1.8,2.1-3.2,2.7c0.1,0.3,0.3,0.6,0.6,1.1s0.5,1,0.9,1.7c0.3,0.6,0.6,1.3,1,1.9
						s0.6,1.3,0.9,1.9c0.3,0.6,0.5,1.1,0.7,1.6s0.3,0.8,0.3,1c0,0.7-0.2,1.3-0.7,1.8s-1.1,0.7-1.8,0.7c-0.5,0-0.9-0.1-1.3-0.4
						c-0.4-0.2-0.7-0.6-0.9-1c-0.1-0.1-0.2-0.5-0.5-1s-0.5-1.1-0.9-1.8c-0.3-0.7-0.7-1.4-1.1-2.2c-0.4-0.8-0.7-1.5-1.1-2.1
						c-0.3-0.7-0.6-1.2-0.8-1.6s-0.3-0.7-0.3-0.7h-7.2v8.3c0,0.7-0.3,1.3-0.8,1.8s-1.1,0.7-1.8,0.7s-1.3-0.2-1.8-0.7
						s-0.7-1.1-0.7-1.8V59.1c0-0.7,0.2-1.3,0.7-1.8s1.1-0.7,1.8-0.7L699.4,56.5 M692.3,67.6h7.8c1,0,1.8-0.3,2.5-0.8
						s1.1-1.3,1.1-2.3s-0.3-1.8-1-2.4c-0.7-0.5-1.5-0.8-2.5-0.8h-7.8L692.3,67.6 M699.4,54.5h-9.7c-1.3,0-2.4,0.5-3.3,1.3
						c-0.9,0.9-1.3,2-1.3,3.3v21.2c0,1.3,0.5,2.4,1.3,3.3c0.9,0.9,2,1.3,3.3,1.3c1.2,0,2.3-0.4,3.2-1.3s1.4-2,1.4-3.3V74h3.9
						c0.2,0.4,0.4,0.8,0.6,1.2c0.3,0.7,0.7,1.4,1.1,2.2c0.4,0.8,0.7,1.5,1.1,2.2v0.1l0.8,1.7c0.3,0.6,0.4,0.9,0.5,1
						c0.4,0.8,0.9,1.4,1.6,1.8c0.7,0.4,1.5,0.7,2.4,0.7c1.2,0,2.3-0.5,3.2-1.3c0.9-0.9,1.3-2,1.3-3.2c0-0.5-0.1-1-0.4-1.7
						c-0.2-0.5-0.4-1.1-0.7-1.7s-0.6-1.3-0.9-1.9c-0.3-0.7-0.7-1.3-1-2c-0.2-0.4-0.4-0.8-0.6-1.1c0.9-0.7,1.7-1.5,2.3-2.5
						c0.9-1.5,1.3-3.2,1.3-5.1c0-1.7-0.3-3.3-1-4.6s-1.5-2.3-2.7-3.1c-1.1-0.8-2.3-1.3-3.7-1.7C702.2,54.7,700.8,54.5,699.4,54.5
						L699.4,54.5z M694.3,63.3h5.8c0.7,0,1.1,0.2,1.3,0.4c0.1,0.1,0.3,0.2,0.3,0.8c0,0.5-0.2,0.7-0.2,0.7c-0.4,0.3-0.8,0.4-1.3,0.4
						h-5.8L694.3,63.3L694.3,63.3z"/>
				</g>
				<g>
					<path class="st5" d="M723.8,83.9c-1,0-1.9-0.4-2.6-1.1c-0.7-0.7-1-1.6-1-2.6V62.4H714c-1,0-1.8-0.3-2.4-1s-1-1.5-1-2.4
						s0.3-1.8,1-2.4c0.7-0.7,1.5-1,2.4-1h19.6c1,0,1.8,0.3,2.4,1c0.7,0.7,1,1.5,1,2.4s-0.4,1.8-1,2.4c-0.7,0.7-1.5,1-2.4,1h-6.2
						v17.9c0,1-0.4,1.9-1.1,2.6C725.7,83.5,724.8,83.9,723.8,83.9z"/>
					<path d="M733.6,56.5c0.7,0,1.3,0.2,1.7,0.7c0.5,0.5,0.7,1.1,0.7,1.7c0,0.7-0.2,1.3-0.7,1.7c-0.5,0.5-1.1,0.7-1.7,0.7h-7.2v18.9
						c0,0.7-0.3,1.4-0.8,1.9s-1.1,0.8-1.9,0.8s-1.3-0.3-1.8-0.8s-0.7-1.1-0.7-1.9V61.4H714c-0.7,0-1.3-0.2-1.7-0.7s-0.7-1-0.7-1.7
						s0.2-1.3,0.7-1.7s1-0.7,1.7-0.7L733.6,56.5 M733.6,54.5H714c-1.2,0-2.3,0.5-3.2,1.3c-0.8,0.9-1.3,1.9-1.3,3.1
						c0,1.2,0.4,2.3,1.3,3.1c0.8,0.8,1.9,1.3,3.1,1.3h5.2v16.9c0,1.3,0.5,2.4,1.3,3.3c0.9,0.9,2,1.4,3.3,1.4s2.4-0.5,3.3-1.3
						c0.9-0.9,1.3-2,1.3-3.3V63.4h5.2c1.2,0,2.3-0.4,3.1-1.3c0.9-0.8,1.3-1.9,1.3-3.2c0-1.2-0.5-2.3-1.3-3.2
						C735.9,54.9,734.8,54.5,733.6,54.5L733.6,54.5z"/>
				</g>
			</g>
		</g>
		<path class="st4" d="M778.4,231.1L778.4,231.1c-2.9,0-5.2-2.3-5.2-5.2V31.3c0-2.9,2.3-5.2,5.2-5.2l0,0c2.9,0,5.2,2.3,5.2,5.2
			v194.6C783.6,228.8,781.2,231.1,778.4,231.1z"/>
	</g>
</g>
<g id="Layer_5">
	<rect y="220" class="st6" width="800" height="30"/>
	<rect x="15" y="220" class="st3" width="99" height="6"/>
	<rect x="221" y="220" class="st3" width="99" height="6"/>
	<rect x="429" y="220" class="st3" width="99" height="6"/>
	<rect x="635" y="220" class="st3" width="99" height="6"/>
</g>
<g id="Layer_6">
</g>
<linearGradient id="SVGID_1_" gradientUnits="userSpaceOnUse" x1="630.4" y1="68" x2="676.2798" y2="68" gradientTransform="matrix(1 0 0 -1 0 252)">
	<stop  offset="0" style="stop-color:#FCEE21"/>
	<stop  offset="1" style="stop-color:#FCEE21;stop-opacity:0"/>
</linearGradient>
<polygon class="st7" points="676.2,208.9 630.4,190.8 630.4,178.5 676.2,159.1 "/>
<g id="Layer_2_1_">
	<g id="Premium">
		<g id="premium-mad-green">
			<polygon class="st8" points="533.2,158.9 533.2,136.2 527.9,133.3 498.2,126.2 493.5,131.9 492.6,151.9 			"/>
			
				<rect x="512" y="131.9" transform="matrix(0.2277 -0.9737 0.9737 0.2277 256.9613 611.414)" class="st9" width="3.8" height="23.6"/>
			
				<rect x="513.1" y="126.5" transform="matrix(0.2277 -0.9737 0.9737 0.2277 263.1031 608.2453)" class="st9" width="3.8" height="23.6"/>
			<circle class="st9" cx="521.2" cy="149.9" r="1.7"/>
			<circle class="st9" cx="513.3" cy="148.1" r="1.7"/>
			<circle class="st9" cx="505.4" cy="146.3" r="1.7"/>
			<path class="st9" d="M527.9,133.3l8.2-7l-16.6,5l9.1-7.1l-14.7,4.5l5.7-3.9l-12.5,2.7C507.1,127.6,521.6,132.1,527.9,133.3z"/>
			<path class="st10" d="M525.9,133.3l8.2-7l-16.6,5l9.1-7.1l-14.7,4.5l5.7-3.9l-12.5,2.7C505,127.6,519.5,132.1,525.9,133.3z"/>
			<rect x="576.2" y="178.6" transform="matrix(0.5 -0.866 0.866 0.5 124.667 596.2844)" class="st11" width="5" height="23.1"/>
			<rect x="600" y="187.7" transform="matrix(0.866 -0.5 0.5 0.866 -13.1484 331.2842)" class="st11" width="23.1" height="5"/>
			<path d="M630.6,184.3c1.4-1.2,2.3-2.9,2.4-4.7l0.2-5l1.4-5.7l-7.3,1.3l-56.5-2.4l-0.3,0l-34.3-1.4l-0.3-27c0.2-4-3-7.4-7-7.6
				l-29.6-7.4c-4-0.2-7.4,3-7.6,7l-1.7,40.1c0,0.1,0,0.1,0,0.2l-8.1-4.7l-1.1,5.6l-6.7-7.8l-0.1,8.2L462.7,159l4.2,41.7l70.5,3
				l0.4-9.3l6.6,0.3l9.8,0.4l-2.6,5.3l18.1-4.7c2.7,0.1,4.9-2,5-4.6c0,0,0,0,0,0l0.3-7.6l39.6,1.7l-0.4,20.6l-2.6,2.4l44.2,1.9
				l-20.2-11.7l-4.9-14L630.6,184.3z M531.3,156.3l-36.3-5.8l0.7-17.2c0,0,0.9-5.4,6.5-4.3l26,6.8c0,0,3.8,2.2,3.6,6.7L531.3,156.3z
				"/>
			<g>
				<defs>
					<path id="SVGID_2_" d="M630.6,184.3c1.4-1.2,2.3-2.9,2.4-4.7l0.2-5l1.4-5.7l-7.3,1.3l-56.5-2.4l-0.3,0l-34.3-1.4l-0.3-27
						c0.2-4-3-7.4-7-7.6l-29.6-7.4c-4-0.2-7.4,3-7.6,7l-1.7,40.1c0,0.1,0,0.1,0,0.2l-8.1-4.7l-1.1,5.6l-6.7-7.8l-0.1,8.2L462.7,159
						l4.2,41.7l70.5,3l0.4-9.3l6.6,0.3l9.8,0.4l-2.6,5.3l18.1-4.7c2.7,0.1,4.9-2,5-4.6c0,0,0,0,0,0l0.3-7.6l39.6,1.7l-0.4,20.6
						l-2.6,2.4l44.2,1.9l-20.2-11.7l-4.9-14L630.6,184.3z M531.3,156.3l-36.3-5.8l0.7-17.2c0,0,0.9-5.4,6.5-4.3l26,6.8
						c0,0,3.8,2.2,3.6,6.7L531.3,156.3z"/>
				</defs>
				<clipPath id="SVGID_3_">
					<use xlink:href="#SVGID_2_"  style="overflow:visible;"/>
				</clipPath>
				<g class="st12">
					<path class="st13" d="M614.1,205.8l5.4,0.2l11.3-21.3l17-2.9c0,0,17,19.3,17,20.4c0,1.1-7.9,18.4-10.2,17.7
						c-2.3-0.7-36.7-5.4-36.7-5.4S602.5,210.1,614.1,205.8z"/>
					<path class="st13" d="M622.5,168.6c0,0,5,0,11.6,6.1l2.9-8.6h-7L622.5,168.6z"/>
					<path class="st13" d="M553.8,195.6l2.3,5.2l-5.9,1.8C550.2,202.6,550.4,196.3,553.8,195.6z"/>
					<polygon class="st14" points="536.5,153.3 549.3,150.7 583.4,207.1 570.6,209.7 					"/>
				</g>
				<g class="st12">
					<path class="st3" d="M572.3,186.4c-0.8-0.3-1.7,0.1-2.1,0.8l-8-1.9l6.6-5.3c0.7,0.3,1.4,0.2,2-0.4c0.7-0.7,0.8-1.9,0.1-2.6
						c-0.2-0.2-0.5-0.4-0.8-0.5c-0.1-0.3-0.2-0.6-0.5-0.8c-0.7-0.7-1.9-0.8-2.6-0.1c-0.5,0.5-0.7,1.2-0.5,1.8l-8.6,6.8l-10.5-2.5
						c-0.1-0.7-0.6-1.2-1.2-1.5c-1-0.3-2,0.2-2.3,1.2c-0.1,0.3-0.1,0.6-0.1,0.9c-0.2,0.2-0.4,0.5-0.5,0.8c-0.3,1,0.2,2,1.2,2.3
						c0.7,0.2,1.4,0,1.9-0.4l8.1,1.9l-6.3,5c-0.7-0.4-1.6-0.3-2.2,0.3c-0.7,0.7-0.8,1.9-0.1,2.6c0.2,0.2,0.5,0.4,0.8,0.5
						c0.1,0.3,0.2,0.6,0.5,0.8c0.7,0.7,1.9,0.8,2.6,0.1c0.4-0.4,0.6-1,0.6-1.5l8.4-6.7l10.7,2.5c0.2,0.5,0.6,0.9,1.1,1
						c1,0.3,2-0.2,2.3-1.2c0.1-0.3,0.1-0.6,0.1-0.9c0.2-0.2,0.4-0.5,0.5-0.8C573.8,187.8,573.2,186.8,572.3,186.4z"/>
					<path class="st3" d="M552.7,179.3l0,1.4c0,0.7,0.6,1.3,1.2,1.1l0.6-0.1c0.1,0,0.2-0.2,0.2-0.3l-0.3-1.2c0-0.2,0.1-0.3,0.2-0.3
						c0.2,0,0.3,0.1,0.4,0.2l0.3,1.1c0,0.1,0.2,0.2,0.3,0.2l0.4-0.1c0.1,0,0.2-0.2,0.2-0.3l-0.3-1.2c0-0.2,0.1-0.3,0.2-0.4
						c0.2,0,0.3,0.1,0.4,0.2l0.3,1.2c0,0.1,0.2,0.2,0.3,0.2l0.4-0.1c0.1,0,0.2-0.2,0.2-0.3l-0.3-1.2c0-0.2,0.1-0.3,0.2-0.4
						c0.2,0,0.3,0.1,0.4,0.2l0.3,1.2c0,0.1,0.2,0.2,0.3,0.2l0.4-0.1c0.1,0,0.2-0.2,0.2-0.3l-0.3-1.2c0-0.2,0.1-0.3,0.2-0.4
						s0.3,0.1,0.4,0.2l0.3,1.2c0,0.1,0.2,0.2,0.3,0.2l0.6-0.1c0.6-0.1,0.9-0.9,0.6-1.5l-0.6-1.3c1.9-1.7,3-4.2,2.4-6.6
						c-0.8-3.7-4.9-6-9.1-5.1c-4.2,0.9-6.9,4.7-6.1,8.5C548.2,176.8,550.2,178.6,552.7,179.3z M558.1,171.1c0.9-0.2,1.9,0.4,2.1,1.3
						c0.2,0.9-0.4,1.9-1.3,2.1c-0.9,0.2-1.9-0.4-2.1-1.3S557.1,171.3,558.1,171.1z M552.1,172.5c0.9-0.2,1.9,0.4,2.1,1.3
						c0.2,0.9-0.4,1.9-1.3,2.1s-1.9-0.4-2.1-1.3C550.6,173.6,551.2,172.7,552.1,172.5z"/>
				</g>
			</g>
			<polygon class="st15" points="580.1,141.3 564.3,143.8 564.1,149.5 564.1,149.5 568.3,169.3 575.9,169.6 571.8,150.7 
				579.6,151.9 			"/>
			<polygon class="st15" points="594.2,155.3 582.2,155.2 581.6,158.3 578.7,157.8 578.2,169.1 591.8,169.7 593.3,160.5 
				589.6,159.8 			"/>
			<polygon class="st15" points="611.5,159.2 600.6,159.2 599.8,161.1 596.7,160.6 596.3,170.6 610.1,171.1 611.4,163 608.7,162.6 
							"/>
			
				<rect x="490.7" y="152.9" transform="matrix(0.9843 -0.1767 0.1767 0.9843 -19.461 89.8825)" class="st16" width="8.2" height="2.5"/>
			
				<rect x="491.9" y="159.6" transform="matrix(0.9843 -0.1767 0.1767 0.9843 -20.6255 90.2002)" class="st16" width="8.2" height="2.5"/>
			
				<rect x="492.6" y="89.4" transform="matrix(0.9843 -0.1767 0.1767 0.9843 -13.1443 89.4925)" class="st17" width="6.3" height="58.3"/>
			<circle class="st16" cx="490.8" cy="90.7" r="3.2"/>
			<circle class="st15" cx="490.6" cy="89.9" r="3.2"/>
			<circle class="st18" cx="490.6" cy="89.9" r="2.7"/>
			
				<rect x="497.8" y="135.4" transform="matrix(0.9843 -0.1767 0.1767 0.9843 -20.4031 91.4738)" class="st15" width="10.9" height="49.7"/>
			
				<rect x="478.3" y="92" transform="matrix(0.9843 -0.1767 0.1767 0.9843 -13.8227 87.008)" class="st17" width="6.3" height="58.3"/>
			<circle class="st16" cx="476.5" cy="93.3" r="3.2"/>
			<circle class="st15" cx="476.4" cy="92.4" r="3.2"/>
			<circle class="st18" cx="476.4" cy="92.4" r="2.7"/>
			
				<rect x="483.6" y="138" transform="matrix(0.9843 -0.1767 0.1767 0.9843 -21.0811 88.9897)" class="st15" width="10.9" height="49.7"/>
			
				<ellipse transform="matrix(4.205010e-02 -0.9991 0.9991 4.205010e-02 363.5266 787.8542)" class="st19" cx="592.6" cy="204.4" rx="19.2" ry="19.3"/>
			
				<ellipse transform="matrix(4.205010e-02 -0.9991 0.9991 4.205010e-02 363.5266 787.8542)" class="st20" cx="592.6" cy="204.4" rx="18.7" ry="18.8"/>
			
				<ellipse transform="matrix(4.205010e-02 -0.9991 0.9991 4.205010e-02 363.5266 787.8542)" cx="592.6" cy="204.4" rx="14" ry="14.1"/>
			
				<ellipse transform="matrix(4.205010e-02 -0.9991 0.9991 4.205010e-02 363.5266 787.8542)" class="st3" cx="592.6" cy="204.4" rx="13.4" ry="13.4"/>
			
				<ellipse transform="matrix(4.205010e-02 -0.9991 0.9991 4.205010e-02 363.5266 787.8542)" class="st21" cx="592.6" cy="204.4" rx="12.7" ry="12.8"/>
			
				<ellipse transform="matrix(4.205010e-02 -0.9991 0.9991 4.205010e-02 363.5266 787.8542)" class="st22" cx="592.6" cy="204.4" rx="7.9" ry="7.9"/>
			
				<ellipse transform="matrix(4.205010e-02 -0.9991 0.9991 4.205010e-02 363.5266 787.8542)" class="st23" cx="592.6" cy="204.4" rx="7.2" ry="7.2"/>
			
				<ellipse transform="matrix(4.205010e-02 -0.9991 0.9991 4.205010e-02 299.2252 714.1308)" class="st19" cx="522" cy="201" rx="22.9" ry="23"/>
			
				<ellipse transform="matrix(4.205010e-02 -0.9991 0.9991 4.205010e-02 299.2252 714.1308)" class="st20" cx="522" cy="201" rx="22.3" ry="22.4"/>
			
				<ellipse transform="matrix(3.996804e-02 -0.9992 0.9992 3.996804e-02 300.5437 714.2493)" cx="522" cy="200.7" rx="16.8" ry="16.9"/>
			
				<ellipse transform="matrix(4.205010e-02 -0.9991 0.9991 4.205010e-02 299.2252 714.1308)" class="st3" cx="522" cy="201" rx="15.9" ry="16"/>
			
				<ellipse transform="matrix(4.205010e-02 -0.9991 0.9991 4.205010e-02 299.2252 714.1308)" class="st21" cx="522" cy="201" rx="15.1" ry="15.2"/>
			
				<ellipse transform="matrix(4.205010e-02 -0.9991 0.9991 4.205010e-02 299.2252 714.1308)" class="st22" cx="522" cy="201" rx="9.4" ry="9.5"/>
			
				<ellipse transform="matrix(4.205010e-02 -0.9991 0.9991 4.205010e-02 299.2252 714.1308)" class="st23" cx="522" cy="201" rx="8.6" ry="8.6"/>
			
				<ellipse transform="matrix(4.205010e-02 -0.9991 0.9991 4.205010e-02 254.1001 661.1979)" class="st19" cx="471.9" cy="198.1" rx="25.8" ry="26"/>
			
				<ellipse transform="matrix(4.205010e-02 -0.9991 0.9991 4.205010e-02 254.1001 661.1979)" class="st20" cx="471.9" cy="198.1" rx="25.1" ry="25.3"/>
			
				<ellipse transform="matrix(4.204826e-02 -0.9991 0.9991 4.204826e-02 254.1009 661.1983)" cx="471.9" cy="198.1" rx="18.9" ry="19"/>
			
				<ellipse transform="matrix(4.205010e-02 -0.9991 0.9991 4.205010e-02 254.1001 661.1979)" class="st3" cx="471.9" cy="198.1" rx="18" ry="18.1"/>
			
				<ellipse transform="matrix(4.205209e-02 -0.9991 0.9991 4.205209e-02 254.0992 661.1974)" class="st21" cx="471.9" cy="198.1" rx="17.1" ry="17.2"/>
			
				<ellipse transform="matrix(4.205010e-02 -0.9991 0.9991 4.205010e-02 254.1001 661.1979)" class="st22" cx="471.9" cy="198.1" rx="10.6" ry="10.7"/>
			
				<ellipse transform="matrix(4.205010e-02 -0.9991 0.9991 4.205010e-02 254.1001 661.1979)" class="st23" cx="471.9" cy="198.1" rx="9.7" ry="9.7"/>
			<path class="st24" d="M578.7,157.8l10.9,2c0,0-6.3,0.2-11-1L578.7,157.8z"/>
			<path class="st24" d="M580.1,141.2c0,0-13.3,3.4-15.8,3.3l-0.1-0.8L580.1,141.2z"/>
			<path class="st24" d="M596.7,161.9c0,0,11.2,1.7,12.6,0.8l-12.7-2.2L596.7,161.9z"/>
			<path class="st25" d="M580.1,141.2l-0.5,10.7C579.6,151.9,576.2,146.6,580.1,141.2z"/>
			<path class="st25" d="M594.2,155.3l-4.5,4.5C589.6,159.8,589.8,157.1,594.2,155.3z"/>
			<path class="st25" d="M611.6,159.1l-2.9,3.5C608.7,162.6,608.4,160.5,611.6,159.1z"/>
			
				<rect x="568.8" y="154.1" transform="matrix(0.8988 -0.4384 0.4384 0.8988 -9.9305 265.6922)" class="st25" width="3.4" height="0.5"/>
			
				<rect x="568.3" y="152.5" transform="matrix(0.8988 -0.4384 0.4384 0.8988 -9.28 265.333)" class="st25" width="3.4" height="0.5"/>
			
				<rect x="569.2" y="155.9" transform="matrix(0.8988 -0.4384 0.4384 0.8988 -10.6804 266.0742)" class="st25" width="3.4" height="0.5"/>
			
				<rect x="587.9" y="164.7" transform="matrix(0.1575 -0.9875 0.9875 0.1575 329.8577 722.3289)" class="st25" width="0.7" height="6.3"/>
			
				<rect x="587.5" y="163.1" transform="matrix(0.1575 -0.9875 0.9875 0.1575 331.042 720.5435)" class="st25" width="0.7" height="6.3"/>
			
				<rect x="605.8" y="166.5" transform="matrix(0.1575 -0.9875 0.9875 0.1575 343.1582 741.5466)" class="st25" width="0.7" height="6.3"/>
			
				<rect x="605.6" y="164.9" transform="matrix(0.1575 -0.9875 0.9875 0.1575 344.5356 739.9864)" class="st25" width="0.7" height="6.3"/>
			<path class="st3" d="M635,199.2l16.3,9.3C651.3,208.5,639.3,204.5,635,199.2z"/>
			<path class="st17" d="M642.7,208.5l-21.1-1.1C621.6,207.4,636.1,206.5,642.7,208.5z"/>
		</g>
	</g>
</g>
<g id="Layer_8">
	
		<linearGradient id="SVGID_4_" gradientUnits="userSpaceOnUse" x1="400" y1="148" x2="400" y2="398" gradientTransform="matrix(1 0 0 1 0 -148)">
		<stop  offset="0" style="stop-color:#666666"/>
		<stop  offset="1" style="stop-color:#333333"/>
	</linearGradient>
	<rect class="st26" width="800" height="250"/>
</g>
</svg>
