<?xml version="1.0" encoding="utf-8"?>
<!-- Generator: Adobe Illustrator 25.0.0, SVG Export Plug-In . SVG Version: 6.00 Build 0)  -->
<svg version="1.1" id="Layer_1" xmlns="http://www.w3.org/2000/svg" xmlns:xlink="http://www.w3.org/1999/xlink" x="0px" y="0px"
	 viewBox="0 0 800 250" style="enable-background:new 0 0 800 250;" xml:space="preserve">
<style type="text/css">
	.st0{fill:#CDF5F9;}
	.st1{fill:#FFFFFF;}
	.st2{fill:#444444;}
	.st3{fill:#0F5E0F;}
	.st4{fill:#094909;}
	.st5{fill:#09890C;}
	.st6{fill:#0C440C;}
	.st7{fill:#3B3B3B;}
	.st8{display:none;}
	.st9{display:inline;opacity:0.47;fill:url(#SVGID_1_);enable-background:new    ;}
	.st10{fill:#FF0000;}
	.st11{fill:url(#SVGID_2_);}
	.st12{fill:#00267F;}
	.st13{fill:#F31830;}
	.st14{fill:#4E514E;}
	.st15{opacity:0.25;fill:#FFFFFF;enable-background:new    ;}
	.st16{fill:#32323F;}
	.st17{fill:#474757;}
	.st18{fill:#DDDDDD;}
	.st19{fill:#BAC0D8;}
	.st20{fill:#ACAFBC;}
	.st21{fill:url(#SVGID_3_);}
	.st22{fill:url(#SVGID_4_);}
	.st23{fill:url(#SVGID_5_);}
	.st24{fill:url(#SVGID_6_);}
	.st25{fill:url(#SVGID_7_);}
	.st26{fill:url(#SVGID_8_);}
	.st27{fill:url(#SVGID_9_);}
	.st28{fill:url(#SVGID_10_);}
</style>
<g>
	<g id="Layer_1_1_">
		<rect class="st0" width="800" height="250"/>
	</g>
	<g id="Layer_3">
		<g>
			<path class="st1" d="M713.8,64c-3-16.5-17.4-28.9-34.7-28.9c-4.8,0-9.4,1-13.6,2.7C658.7,28.2,647.6,22,635,22
				c-12.7,0-23.9,6.3-30.6,16c-4.7-3.3-10.3-5.3-16.5-5.3c-15.7,0-28.5,12.7-28.5,28.5c0,0.9,0,1.9,0.1,2.8H713.8z"/>
		</g>
		<g>
			<path class="st1" d="M414.4,94c2.2-12.1,12.8-21.4,25.6-21.4c3.6,0,7,0.7,10,2c5-7.1,13.2-11.7,22.5-11.7
				c9.4,0,17.6,4.7,22.6,11.8c3.4-2.4,7.6-3.9,12.2-3.9c11.6,0,21,9.4,21,21c0,0.7,0,1.4-0.1,2.1H414.4V94z"/>
		</g>
		<g>
			<path class="st1" d="M92.3,62.7c-6.2,0-11.8,2-16.5,5.3c-6.7-9.7-17.9-16-30.6-16c-12.6,0-23.7,6.2-30.5,15.8
				c-4.2-1.8-8.8-2.7-13.6-2.7c-0.4,0-0.7,0-1.1,0V94h120.6c0.1-0.9,0.1-1.9,0.1-2.8C120.8,75.5,108,62.7,92.3,62.7z"/>
		</g>
	</g>
	<path class="st2" d="M565.5,231.1L565.5,231.1c-2.9,0-5.2-2.3-5.2-5.2V31.3c0-2.9,2.3-5.2,5.2-5.2l0,0c2.9,0,5.2,2.3,5.2,5.2v194.6
		C570.7,228.8,568.4,231.1,565.5,231.1z"/>
	<g>
		<g>
			<path class="st3" d="M306,155.5c-6.4,8.9-15.2,16.4-25.9,21.3c-21.5,9.8-45.4,7-63.6-5.3c-8.4,13.6-13.7,29.4-14.8,46.3h-0.2V250
				h203.3v-32.2h-0.2c-1.4-20.6-8.9-39.5-20.7-54.9c-2.4,1.5-4.9,2.8-7.5,4C352,178,324.4,172.6,306,155.5z"/>
			<path class="st4" d="M303.1,123c-36.6,0-68.7,19.4-86.6,48.5c18.2,12.3,42.2,15.1,63.6,5.3c10.7-4.9,19.5-12.3,25.9-21.3
				c18.4,17.1,46,22.5,70.3,11.4c2.6-1.2,5.1-2.5,7.5-4C365.2,138.6,336,123,303.1,123z"/>
		</g>
		<g>
			<path class="st5" d="M254.6,245.9c-1.9-28-13.6-46.7-33.6-63.9c-4.7,1.8-9.8,2.8-15.2,2.8c-10.6,0-20.2-3.9-27.7-10.3
				c-4.5,5.1-9.9,9.3-16,12.4c-6.2,29-31.9,50.8-62.8,50.8c-15.2,0-29.1-5.3-40.1-14c-3.3,9-5.5,6.9-6.2,16.9l0,0l0,0h203.3l1.2,1.8
				l-0.5,3.8L254.6,245.9z"/>
			<path class="st6" d="M162.2,186.9c6.1-3.1,11.5-7.3,16-12.4c7.4,6.4,17.1,10.3,27.7,10.3c5.4,0,10.5-1,15.2-2.8
				c-17.8-15.4-41-24.7-66.4-24.7c-43.7,0-81,27.6-95.4,66.3c11,8.8,24.9,14,40.1,14C130.3,237.7,156,215.9,162.2,186.9z"/>
		</g>
	</g>
	<g id="Layer_5">
		<rect y="220" class="st7" width="800" height="30"/>
		<rect x="15" y="220" class="st1" width="99" height="6"/>
		<rect x="221" y="220" class="st1" width="99" height="6"/>
		<rect x="429" y="220" class="st1" width="99" height="6"/>
		<rect x="635" y="220" class="st1" width="99" height="6"/>
	</g>
	<g id="Layer_6">
	</g>
	<g id="Layer_8" class="st8">
		
			<linearGradient id="SVGID_1_" gradientUnits="userSpaceOnUse" x1="400" y1="296" x2="400" y2="546" gradientTransform="matrix(1 0 0 1 0 -296)">
			<stop  offset="0" style="stop-color:#666666"/>
			<stop  offset="1" style="stop-color:#333333"/>
		</linearGradient>
		<rect class="st9" width="800" height="250"/>
	</g>
	<g>
		<g>
			<rect x="570.7" y="36.3" class="st1" width="33.7" height="33.7"/>
			<rect x="570.7" y="70" width="33.7" height="33.7"/>
			<rect x="604.5" y="70.1" class="st1" width="33.7" height="33.7"/>
			<rect x="604.5" y="36.3" width="33.7" height="33.7"/>
			<rect x="638.2" y="36.3" class="st1" width="33.7" height="33.7"/>
			<rect x="638.2" y="70" width="33.7" height="33.7"/>
			<rect x="672" y="70.1" class="st1" width="33.7" height="33.7"/>
			<rect x="672" y="36.3" width="33.7" height="33.7"/>
			<rect x="705.7" y="36.3" class="st1" width="33.7" height="33.7"/>
			<rect x="705.7" y="70" width="33.7" height="33.7"/>
			<rect x="739.5" y="70.1" class="st1" width="33.7" height="33.7"/>
			<rect x="739.5" y="36.3" width="33.7" height="33.7"/>
		</g>
		<g>
			<g>
				<g>
					<path class="st10" d="M620,84.1c-0.5,0-1.1,0-1.9-0.1c-0.8-0.1-1.6-0.2-2.4-0.4c-0.9-0.2-1.8-0.4-2.6-0.7
						c-0.9-0.3-1.7-0.6-2.5-1s-1.5-0.9-2-1.4c-0.6-0.7-0.9-1.4-0.9-2.3s0.3-1.7,1-2.4c0.7-0.7,1.5-1.1,2.4-1.1
						c0.6,0,1.1,0.1,1.6,0.4c0.6,0.3,1.2,0.6,1.8,0.9c0.6,0.2,1.2,0.4,1.8,0.6s1.2,0.3,1.8,0.4s1.3,0.1,2,0.1c0.4,0,1,0,1.6-0.1
						s1.1-0.2,1.6-0.3c0.5-0.2,0.8-0.4,1.2-0.7c0.1-0.1,0.3-0.3,0.3-0.8c0-0.3-0.1-0.7-0.7-1c-0.7-0.4-1.6-0.8-2.7-1.1
						c-1.1-0.4-2.4-0.7-3.7-1.1c-1.4-0.4-2.8-0.9-4-1.6c-1.3-0.7-2.3-1.6-3.2-2.7c-0.9-1.2-1.4-2.7-1.4-4.6c0-1.6,0.4-3,1.2-4.1
						c0.7-1.1,1.7-1.9,2.9-2.5c1.1-0.6,2.3-1,3.7-1.2c1.3-0.2,2.6-0.3,3.8-0.3c0.6,0,1.3,0,2.1,0.1s1.6,0.2,2.4,0.3
						c0.8,0.1,1.6,0.3,2.3,0.5c0.8,0.2,1.5,0.5,2.1,0.7c0.6,0.3,1.1,0.7,1.5,1.1c0.4,0.5,0.6,1.2,0.6,2c0,0.9-0.3,1.8-1,2.4
						s-1.5,1-2.4,1c-0.4,0-0.8-0.1-1.3-0.3c-1-0.4-2.1-0.7-3.1-0.9s-2.1-0.3-3.2-0.3c-0.4,0-0.9,0-1.5,0c-0.5,0-1.1,0.1-1.6,0.2
						c-0.4,0.1-0.8,0.3-1.1,0.5c-0.1,0.1-0.2,0.2-0.2,0.6c0,0.1,0,0.3,0.2,0.5c0.2,0.3,0.6,0.5,1,0.8c0.4,0.3,1,0.5,1.5,0.7
						c0.6,0.2,1.2,0.4,1.8,0.6s1.1,0.3,1.6,0.5c0.5,0.1,0.9,0.3,1.2,0.3c1,0.3,2,0.7,3,1.1s1.9,0.9,2.7,1.6c0.8,0.6,1.4,1.5,1.9,2.4
						c0.5,1,0.7,2.1,0.7,3.4c0,1.7-0.4,3.2-1.1,4.4c-0.7,1.1-1.7,2.1-2.9,2.8c-1.1,0.7-2.4,1.1-3.8,1.4
						C622.7,83.9,621.3,84.1,620,84.1z"/>
					<path d="M620.6,56c0.6,0,1.3,0,2.1,0.1s1.5,0.2,2.3,0.3s1.5,0.3,2.3,0.5c0.7,0.2,1.4,0.4,1.9,0.7c0.4,0.2,0.8,0.5,1.1,0.9
						s0.4,0.8,0.4,1.3c0,0.7-0.2,1.3-0.7,1.7c-0.5,0.5-1.1,0.7-1.7,0.7c-0.3,0-0.6-0.1-0.9-0.2c-1.1-0.4-2.2-0.7-3.2-0.9
						c-1.1-0.2-2.2-0.3-3.4-0.3c-0.4,0-0.9,0-1.5,0s-1.2,0.1-1.8,0.3s-1.1,0.4-1.5,0.7s-0.6,0.8-0.6,1.4c0,0.4,0.2,0.8,0.5,1.2
						s0.7,0.7,1.2,1s1.1,0.6,1.7,0.8c0.6,0.2,1.2,0.4,1.8,0.6s1.1,0.3,1.6,0.5c0.5,0.1,0.9,0.3,1.2,0.3c1,0.3,1.9,0.7,2.9,1
						c0.9,0.4,1.7,0.8,2.4,1.4s1.2,1.3,1.7,2.1c0.4,0.8,0.6,1.8,0.6,3c0,1.5-0.3,2.8-1,3.8s-1.5,1.8-2.5,2.4s-2.2,1-3.5,1.3
						c-1.3,0.2-2.6,0.4-3.9,0.4c-0.4,0-1,0-1.8-0.1c-0.7-0.1-1.5-0.2-2.3-0.4c-0.8-0.2-1.7-0.4-2.5-0.6c-0.8-0.3-1.6-0.6-2.3-0.9
						c-0.7-0.4-1.3-0.8-1.7-1.2c-0.4-0.5-0.7-1-0.7-1.6s0.2-1.2,0.7-1.7s1-0.7,1.7-0.7c0.4,0,0.8,0.1,1.1,0.3
						c0.7,0.4,1.3,0.7,1.9,0.9c0.6,0.3,1.3,0.5,1.9,0.6c0.6,0.2,1.3,0.3,1.9,0.4c0.7,0.1,1.4,0.1,2.1,0.1c0.5,0,1,0,1.7-0.1
						c0.6-0.1,1.3-0.2,1.8-0.4c0.6-0.2,1.1-0.5,1.5-0.9s0.6-0.9,0.6-1.5c0-0.8-0.4-1.4-1.2-1.9s-1.7-0.9-2.9-1.2
						c-1.1-0.4-2.4-0.7-3.8-1.1c-1.4-0.4-2.6-0.9-3.8-1.5c-1.1-0.6-2.1-1.4-2.9-2.5c-0.8-1-1.2-2.4-1.2-4c0-1.4,0.3-2.6,1-3.6
						s1.5-1.7,2.5-2.2s2.2-0.9,3.4-1.1C618.2,56.1,619.5,56,620.6,56 M620.6,54c-1.3,0-2.6,0.1-4,0.3c-1.5,0.2-2.8,0.7-4,1.3
						c-1.3,0.7-2.4,1.6-3.2,2.8c-0.9,1.3-1.3,2.9-1.3,4.7c0,2.1,0.5,3.9,1.6,5.2c0.9,1.2,2.1,2.3,3.5,3c1.3,0.7,2.7,1.3,4.2,1.7
						c1.3,0.4,2.6,0.7,3.7,1.1c1,0.3,1.8,0.6,2.4,1c0.1,0.1,0.2,0.1,0.2,0.1l0,0c0,0,0,0,0,0.1c-0.2,0.2-0.5,0.3-0.8,0.4
						c-0.4,0.1-0.9,0.2-1.4,0.3c-0.6,0.1-1.1,0.1-1.5,0.1c-0.7,0-1.3,0-1.9-0.1c-0.6-0.1-1.1-0.2-1.7-0.3c-0.5-0.1-1.1-0.3-1.6-0.6
						c-0.6-0.2-1.1-0.5-1.7-0.8c-0.7-0.4-1.4-0.6-2.1-0.6c-1.2,0-2.3,0.5-3.1,1.4s-1.3,1.9-1.3,3.1c0,1.1,0.4,2.1,1.2,2.9
						c0.6,0.6,1.4,1.2,2.2,1.6s1.7,0.8,2.6,1c0.9,0.3,1.8,0.5,2.7,0.7s1.7,0.3,2.5,0.4s1.5,0.1,2,0.1c1.4,0,2.8-0.1,4.2-0.4
						c1.5-0.3,2.9-0.8,4.1-1.5c1.3-0.8,2.4-1.8,3.2-3.1c0.9-1.3,1.3-3,1.3-4.9c0-1.5-0.3-2.8-0.8-3.9s-1.3-2-2.2-2.7
						c-0.8-0.7-1.8-1.3-2.9-1.7c-1-0.4-2-0.8-3-1.1l0,0l0,0c-0.3-0.1-0.7-0.2-1.2-0.3c-0.5-0.1-1-0.3-1.6-0.5
						c-0.5-0.2-1.1-0.4-1.7-0.6c-0.5-0.2-1-0.4-1.4-0.6c-0.2-0.1-0.4-0.3-0.6-0.4c0.1-0.1,0.3-0.1,0.5-0.2c0.4-0.1,0.9-0.2,1.3-0.2
						c0.6,0,1.1,0,1.5,0c1,0,2,0.1,3,0.3s2,0.5,3,0.8c0.6,0.2,1.1,0.3,1.6,0.3c1.2,0,2.3-0.5,3.2-1.3c0.9-0.9,1.3-1.9,1.3-3.2
						c0-1-0.3-1.9-0.9-2.6c-0.5-0.6-1.1-1.1-1.8-1.4c-0.7-0.3-1.4-0.6-2.3-0.8c-0.8-0.2-1.6-0.4-2.4-0.5c-0.8-0.2-1.7-0.3-2.5-0.3
						C622,54.1,621.3,54,620.6,54L620.6,54z"/>
				</g>
				<g>
					<path class="st10" d="M644.9,83.9c-1,0-1.9-0.4-2.6-1.1c-0.7-0.7-1-1.6-1-2.6V62.4h-6.2c-1,0-1.8-0.3-2.4-1s-1-1.5-1-2.4
						s0.3-1.8,1-2.4c0.7-0.7,1.5-1,2.4-1h19.6c0.9,0,1.8,0.3,2.4,1c0.7,0.7,1,1.5,1,2.4s-0.4,1.8-1,2.4c-0.7,0.7-1.5,1-2.4,1h-6.2
						v17.9c0,1-0.4,1.9-1.1,2.6C646.7,83.5,645.9,83.9,644.9,83.9z"/>
					<path d="M654.7,56.5c0.7,0,1.3,0.2,1.7,0.7c0.5,0.5,0.7,1.1,0.7,1.7c0,0.7-0.2,1.3-0.7,1.7c-0.5,0.5-1.1,0.7-1.7,0.7h-7.2v18.9
						c0,0.7-0.3,1.4-0.8,1.9s-1.1,0.8-1.9,0.8s-1.3-0.3-1.8-0.8s-0.7-1.1-0.7-1.9V61.4h-7.2c-0.7,0-1.3-0.2-1.7-0.7s-0.7-1-0.7-1.7
						s0.2-1.3,0.7-1.7s1-0.7,1.7-0.7L654.7,56.5 M654.7,54.5h-19.6c-1.2,0-2.3,0.5-3.2,1.3c-0.8,0.9-1.3,1.9-1.3,3.1
						c0,1.2,0.4,2.3,1.3,3.1c0.8,0.8,1.9,1.3,3.1,1.3h5.2v16.9c0,1.3,0.5,2.4,1.3,3.3c0.9,0.9,2,1.4,3.3,1.4s2.4-0.5,3.3-1.3
						c0.9-0.9,1.3-2,1.3-3.3V63.4h5.2c1.2,0,2.3-0.4,3.1-1.3c0.9-0.8,1.3-1.9,1.3-3.2c0-1.2-0.5-2.3-1.3-3.2
						C657,54.9,655.9,54.5,654.7,54.5L654.7,54.5z"/>
				</g>
				<g>
					<path class="st10" d="M680.2,83.9c-0.7,0-1.3-0.2-1.9-0.5c-0.5-0.3-1-0.8-1.2-1.4l-1.9-4.2h-10l-1.9,4.2
						c-0.3,0.6-0.7,1.1-1.3,1.5c-0.6,0.3-1.2,0.5-1.8,0.5c-1,0-1.8-0.3-2.4-1c-0.7-0.7-1-1.5-1-2.4c0-0.5,0.1-1,0.3-1.4l10-21.9
						c0.3-0.6,0.7-1.1,1.2-1.4c0.6-0.4,1.2-0.6,1.8-0.6s1.3,0.2,1.8,0.5c0.6,0.4,1,0.8,1.3,1.5l10,21.9c0.2,0.5,0.3,1,0.3,1.4
						c0,0.9-0.3,1.8-1,2.4C682,83.5,681.1,83.9,680.2,83.9z M672.3,71.3l-2.1-4.7l-2.1,4.7H672.3z"/>
					<path d="M670.1,56.1c0.5,0,0.9,0.1,1.3,0.4c0.4,0.2,0.7,0.6,0.9,1l10,21.9c0.1,0.3,0.2,0.7,0.2,1c0,0.7-0.2,1.3-0.7,1.7
						s-1,0.7-1.7,0.7c-0.5,0-0.9-0.1-1.3-0.4c-0.4-0.2-0.7-0.6-0.9-1l-2.2-4.8h-11.3l-2.2,4.8c-0.2,0.4-0.5,0.8-0.9,1
						s-0.8,0.4-1.3,0.4c-0.7,0-1.3-0.2-1.7-0.7c-0.5-0.5-0.7-1.1-0.7-1.7c0-0.3,0.1-0.7,0.2-1l10-21.9c0.2-0.4,0.5-0.8,0.9-1
						C669.2,56.3,669.6,56.1,670.1,56.1 M666.5,72.3h7.3l-3.7-8.1L666.5,72.3 M670.1,54.1c-0.9,0-1.7,0.2-2.4,0.7s-1.2,1.1-1.6,1.9
						l-10,21.8c-0.3,0.6-0.4,1.2-0.4,1.8c0,1.2,0.5,2.3,1.3,3.2c0.9,0.9,1.9,1.3,3.2,1.3c0.9,0,1.6-0.2,2.4-0.7
						c0.7-0.5,1.3-1.1,1.6-1.9l1.6-3.6h8.7l1.6,3.6c0.4,0.8,0.9,1.4,1.6,1.9c0.7,0.5,1.5,0.7,2.4,0.7c1.2,0,2.3-0.5,3.1-1.3
						s1.3-1.9,1.3-3.1c0-0.6-0.1-1.2-0.3-1.7v-0.1v-0.1l-10-21.9c-0.4-0.8-1-1.5-1.7-1.9C671.7,54.4,670.9,54.1,670.1,54.1
						L670.1,54.1z M669.6,70.3l0.6-1.3l0.6,1.3H669.6L669.6,70.3z"/>
				</g>
				<g>
					<path class="st10" d="M706.3,83.9c-0.7,0-1.3-0.2-1.8-0.5c-0.6-0.3-1-0.8-1.3-1.4c-0.1-0.2-0.3-0.5-0.5-1l-0.8-1.7
						c-0.4-0.8-0.7-1.5-1.1-2.3c-0.4-0.8-0.8-1.5-1.1-2.2c-0.3-0.6-0.6-1.2-0.8-1.6c0-0.1-0.1-0.1-0.1-0.2h-5.5v7.3
						c0,1-0.4,1.9-1.1,2.6c-0.7,0.7-1.6,1-2.5,1c-1,0-1.9-0.3-2.5-1c-0.7-0.7-1-1.5-1-2.5V59.1c0-1,0.3-1.9,1-2.5
						c0.7-0.7,1.5-1,2.5-1h9.7c1.3,0,2.7,0.1,3.9,0.4c1.3,0.3,2.4,0.8,3.4,1.5s1.8,1.7,2.4,2.8c0.6,1.1,0.9,2.5,0.9,4.1
						c0,1.7-0.4,3.3-1.2,4.6c-0.6,1.1-1.6,2-2.7,2.6c0,0.1,0.1,0.1,0.1,0.2c0.3,0.5,0.6,1.1,0.9,1.7c0.3,0.6,0.6,1.3,1,1.9
						c0.3,0.7,0.6,1.3,0.9,1.9c0.3,0.6,0.5,1.2,0.7,1.7c0.2,0.6,0.3,1,0.3,1.4c0,1-0.3,1.8-1,2.5C708.1,83.5,707.3,83.9,706.3,83.9z
						 M700.1,66.6c0.8,0,1.4-0.2,1.9-0.6c0.3-0.2,0.6-0.6,0.6-1.5c0-1-0.4-1.4-0.6-1.6c-0.5-0.4-1.1-0.6-1.9-0.6h-6.8v4.3
						C693.3,66.6,700.1,66.6,700.1,66.6z"/>
					<path d="M699.4,56.5c1.3,0,2.5,0.1,3.7,0.4c1.2,0.3,2.2,0.7,3,1.4c0.9,0.6,1.5,1.4,2.1,2.4s0.8,2.2,0.8,3.6
						c0,1.5-0.4,2.9-1.1,4.1c-0.7,1.2-1.8,2.1-3.2,2.7c0.1,0.3,0.3,0.6,0.6,1.1s0.5,1,0.9,1.7c0.3,0.6,0.6,1.3,1,1.9
						s0.6,1.3,0.9,1.9c0.3,0.6,0.5,1.1,0.7,1.6s0.3,0.8,0.3,1c0,0.7-0.2,1.3-0.7,1.8s-1.1,0.7-1.8,0.7c-0.5,0-0.9-0.1-1.3-0.4
						c-0.4-0.2-0.7-0.6-0.9-1c-0.1-0.1-0.2-0.5-0.5-1s-0.5-1.1-0.9-1.8c-0.3-0.7-0.7-1.4-1.1-2.2c-0.4-0.8-0.7-1.5-1.1-2.1
						c-0.3-0.7-0.6-1.2-0.8-1.6s-0.3-0.7-0.3-0.7h-7.2v8.3c0,0.7-0.3,1.3-0.8,1.8s-1.1,0.7-1.8,0.7s-1.3-0.2-1.8-0.7
						s-0.7-1.1-0.7-1.8V59.1c0-0.7,0.2-1.3,0.7-1.8s1.1-0.7,1.8-0.7L699.4,56.5 M692.3,67.6h7.8c1,0,1.8-0.3,2.5-0.8
						s1.1-1.3,1.1-2.3s-0.3-1.8-1-2.4c-0.7-0.5-1.5-0.8-2.5-0.8h-7.8L692.3,67.6 M699.4,54.5h-9.7c-1.3,0-2.4,0.5-3.3,1.3
						c-0.9,0.9-1.3,2-1.3,3.3v21.2c0,1.3,0.5,2.4,1.3,3.3c0.9,0.9,2,1.3,3.3,1.3c1.2,0,2.3-0.4,3.2-1.3s1.4-2,1.4-3.3V74h3.9
						c0.2,0.4,0.4,0.8,0.6,1.2c0.3,0.7,0.7,1.4,1.1,2.2c0.4,0.8,0.7,1.5,1.1,2.2v0.1l0.8,1.7c0.3,0.6,0.4,0.9,0.5,1
						c0.4,0.8,0.9,1.4,1.6,1.8c0.7,0.4,1.5,0.7,2.4,0.7c1.2,0,2.3-0.5,3.2-1.3c0.9-0.9,1.3-2,1.3-3.2c0-0.5-0.1-1-0.4-1.7
						c-0.2-0.5-0.4-1.1-0.7-1.7s-0.6-1.3-0.9-1.9c-0.3-0.7-0.7-1.3-1-2c-0.2-0.4-0.4-0.8-0.6-1.1c0.9-0.7,1.7-1.5,2.3-2.5
						c0.9-1.5,1.3-3.2,1.3-5.1c0-1.7-0.3-3.3-1-4.6s-1.5-2.3-2.7-3.1c-1.1-0.8-2.3-1.3-3.7-1.7C702.2,54.7,700.8,54.5,699.4,54.5
						L699.4,54.5z M694.3,63.3h5.8c0.7,0,1.1,0.2,1.3,0.4c0.1,0.1,0.3,0.2,0.3,0.8c0,0.5-0.2,0.7-0.2,0.7c-0.4,0.3-0.8,0.4-1.3,0.4
						h-5.8L694.3,63.3L694.3,63.3z"/>
				</g>
				<g>
					<path class="st10" d="M723.8,83.9c-1,0-1.9-0.4-2.6-1.1c-0.7-0.7-1-1.6-1-2.6V62.4H714c-1,0-1.8-0.3-2.4-1s-1-1.5-1-2.4
						s0.3-1.8,1-2.4c0.7-0.7,1.5-1,2.4-1h19.6c1,0,1.8,0.3,2.4,1c0.7,0.7,1,1.5,1,2.4s-0.4,1.8-1,2.4c-0.7,0.7-1.5,1-2.4,1h-6.2
						v17.9c0,1-0.4,1.9-1.1,2.6C725.7,83.5,724.8,83.9,723.8,83.9z"/>
					<path d="M733.6,56.5c0.7,0,1.3,0.2,1.7,0.7c0.5,0.5,0.7,1.1,0.7,1.7c0,0.7-0.2,1.3-0.7,1.7c-0.5,0.5-1.1,0.7-1.7,0.7h-7.2v18.9
						c0,0.7-0.3,1.4-0.8,1.9s-1.1,0.8-1.9,0.8s-1.3-0.3-1.8-0.8s-0.7-1.1-0.7-1.9V61.4H714c-0.7,0-1.3-0.2-1.7-0.7s-0.7-1-0.7-1.7
						s0.2-1.3,0.7-1.7s1-0.7,1.7-0.7L733.6,56.5 M733.6,54.5H714c-1.2,0-2.3,0.5-3.2,1.3c-0.8,0.9-1.3,1.9-1.3,3.1
						c0,1.2,0.4,2.3,1.3,3.1c0.8,0.8,1.9,1.3,3.1,1.3h5.2v16.9c0,1.3,0.5,2.4,1.3,3.3c0.9,0.9,2,1.4,3.3,1.4s2.4-0.5,3.3-1.3
						c0.9-0.9,1.3-2,1.3-3.3V63.4h5.2c1.2,0,2.3-0.4,3.1-1.3c0.9-0.8,1.3-1.9,1.3-3.2c0-1.2-0.5-2.3-1.3-3.2
						C735.9,54.9,734.8,54.5,733.6,54.5L733.6,54.5z"/>
				</g>
			</g>
		</g>
		<path class="st2" d="M778.4,231.1L778.4,231.1c-2.9,0-5.2-2.3-5.2-5.2V31.3c0-2.9,2.3-5.2,5.2-5.2l0,0c2.9,0,5.2,2.3,5.2,5.2
			v194.6C783.6,228.8,781.2,231.1,778.4,231.1z"/>
	</g>
</g>
<g id="Layer_2_2_">
	<g id="Layer_14">
		<g id="flagcar-fr">
			
				<radialGradient id="SVGID_2_" cx="476.7413" cy="111.9323" r="9.7013" gradientTransform="matrix(1 0 0 -0.99 0 265.36)" gradientUnits="userSpaceOnUse">
				<stop  offset="0" style="stop-color:#DCDCDC"/>
				<stop  offset="0.69" style="stop-color:#A3A3A3"/>
				<stop  offset="1" style="stop-color:#878787"/>
			</radialGradient>
			<path class="st11" d="M481.6,150.6c-0.2,0.1-0.3,0.2-0.3,0.2s-7.6,0-12.9-0.7l7.7,8.3h10L481.6,150.6z"/>
			<polygon class="st1" points="526.6,171.4 526.6,208.1 601.3,207.5 601.3,175.6 			"/>
			<path class="st1" d="M565.7,164.7c-7.6-1-14.3-1.8-16.8-2c-8.6-0.9-5.1-5.1-5.1-5.1l5.2-7.2c0,0,1.7-3,6.9-3.4
				c5.1-0.4,21.4,0,21.4,0s6.4-0.8,18.7,21.4l5.4,0.7v-6.3l-9.2-11.6c0,0-2.6-2.6,0-3.8l7.3-0.4c-5.1-8.1-14.6-6.8-14.6-6.8
				s-30-1.3-34.2-0.9c-2.7,0.3-5.3,1-7.7,2.1l-16.3,8.2v10.6C537.6,161.4,552.1,163.1,565.7,164.7z"/>
			<path class="st12" d="M472.7,199.7v2.6l5.9,0.8c-0.2-1.1-0.2-2.3-0.2-3.4c0-13,10.6-23.5,23.6-23.5s23.6,10.5,23.6,23.5
				c0,2.9-0.5,5.8-1.6,8.6l2.6,0v-36.7l-62.5-3.5l0.1,12.6l8.9,8.4L472.7,199.7z"/>
			<path class="st12" d="M526.6,149.6l-17.5,8.8c1.5,0,8.3,0.7,17.5,1.7V149.6z"/>
			<path class="st12" d="M481.6,150.6c1.5-1,7.8-5.6,1.4-11.3h-22.7c0,0,0,8.9,4.7,10.2c1.1,0.3,2.2,0.5,3.3,0.6
				c5.4,0.7,12.9,0.7,12.9,0.7S481.4,150.7,481.6,150.6z"/>
			<path class="st13" d="M639.2,161.8c2.4,0.1,4.7,0.5,7,1C644,162.3,641.6,161.9,639.2,161.8z"/>
			<path class="st13" d="M671.4,195c0-3.1-0.4-6.1-1.2-9c0.9,3.7,1.3,7.4,1.2,11.2V195z"/>
			<path class="st13" d="M606,168.7l-4.7-5.9v6.3l3.7,0.5L606,168.7z"/>
			<path class="st13" d="M614,176.3l-12.7-0.7v31.9l11.1-0.1c-0.9-2.5-1.3-5.2-1.3-7.8c0-13,10.6-23.5,23.6-23.5
				c13.1,0,23.6,10.5,23.6,23.5c0,2.5-0.4,5-1.2,7.4l14.2-0.1v-9.8C671.4,197.1,659,163.9,614,176.3z"/>
			<path class="st14" d="M472.7,202.2v-2.6l0.4-10.6l-8.9-8.4l-0.1-0.1l0.2,19.2c-2.2,0-4,1.8-4,4c0,2.2,1.8,4,4,4c0,0,0,0,0,0
				l16.5,2.3c-1.1-2.2-1.9-4.6-2.2-7L472.7,202.2z"/>
			<path class="st14" d="M601.3,207.5l-74.7,0.6l-2.6,0c-1.1,2.7-2.6,5.2-4.6,7.3h97.8c-2.1-2.3-3.8-5.1-4.8-8L601.3,207.5z"/>
			<path class="st14" d="M671.4,206.9l-14.2,0.1c-1,3.1-2.7,6-5,8.4h19.2c2.4,0.1,4.3-1.8,4.4-4.1c0.1-2.4-1.8-4.3-4.1-4.4
				C671.5,206.9,671.4,206.9,671.4,206.9L671.4,206.9z"/>
			<path class="st15" d="M614.8,162.2l-0.2-0.2l0,0L614.8,162.2z"/>
			<path class="st15" d="M670.1,186c-3.8-15.7-15.7-21.2-23.8-23.1C657.8,165.8,666.9,174.6,670.1,186z"/>
			<path class="st15" d="M638,161.8c0.4,0,0.8,0,1.3,0C638.4,161.8,638,161.8,638,161.8z"/>
			<path class="st1" d="M601.3,169l-5.4-0.7l0.2,0.3c0,0-16.6-2.2-30.3-3.9c-13.6-1.6-28.1-3.3-39.1-4.6v11.3l74.7,4.1V169z"/>
			<path class="st15" d="M601.3,169l-5.4-0.7l0.2,0.3c0,0-16.6-2.2-30.3-3.9c-13.6-1.6-28.1-3.3-39.1-4.6v11.3l74.7,4.1V169z"/>
			<path class="st12" d="M526.6,160.1c-9.3-1-16-1.7-17.5-1.7h-35.3c-5.3,0-9.6,4.3-9.6,9.6c0,0,0,0,0,0l62.5,3.5V160.1z"/>
			<path class="st15" d="M526.6,160.1c-9.3-1-16-1.7-17.5-1.7h-35.3c-5.3,0-9.6,4.3-9.6,9.6c0,0,0,0,0,0l62.5,3.5V160.1z"/>
			<path class="st13" d="M614.8,162.2l-0.3-0.2l-8.3,7l-0.3-0.4l-1,0.8l-3.7-0.5v6.6l12.7,0.7c45-12.3,57.4,20.9,57.4,20.9
				c0-3.8-0.4-7.5-1.2-11.2c-3.3-11.4-12.4-20.2-23.8-23.1c-2.3-0.5-4.7-0.9-7-1c-0.4,0-0.8,0-1.3,0h-23.1l-0.2,0.2L614.8,162.2z"/>
			<path class="st15" d="M614.8,162.2l-0.3-0.2l-8.3,7l-0.3-0.4l-1,0.8l-3.7-0.5v6.6l12.7,0.7c45-12.3,57.4,20.9,57.4,20.9
				c0-3.8-0.4-7.5-1.2-11.2c-3.3-11.4-12.4-20.2-23.8-23.1c-2.3-0.5-4.7-0.9-7-1c-0.4,0-0.8,0-1.3,0h-23.1l-0.2,0.2L614.8,162.2z"/>
			<path class="st16" d="M525.6,199.6c0-13-10.6-23.5-23.6-23.5c-13.1,0-23.6,10.5-23.6,23.5c0,1.1,0.1,2.3,0.2,3.4
				c0.4,2.5,1.1,4.8,2.2,7c5.9,11.7,20.1,16.4,31.8,10.6c5.2-2.6,9.3-7.1,11.4-12.5C525.1,205.4,525.6,202.5,525.6,199.6z
				 M501.9,222.5c-12.7,0-23-10.2-23-22.9s10.3-22.9,23-22.9s23,10.2,23,22.9S514.7,222.5,501.9,222.5L501.9,222.5z"/>
			<path class="st17" d="M525,199.6c0-12.6-10.3-22.9-23-22.9c-12.7,0-23,10.2-23,22.9s10.3,22.9,23,22.9S525,212.2,525,199.6z
				 M484.6,199.6c-0.1-9.6,7.6-17.4,17.2-17.4s17.4,7.6,17.4,17.2c0.1,9.6-7.6,17.4-17.2,17.4c0,0-0.1,0-0.1,0
				C492.4,216.8,484.7,209.1,484.6,199.6L484.6,199.6z"/>
			<path d="M519.3,199.6c0.1-9.6-7.6-17.4-17.2-17.4s-17.4,7.6-17.4,17.2c-0.1,9.6,7.6,17.4,17.2,17.4c0,0,0.1,0,0.1,0
				C511.5,216.8,519.2,209.1,519.3,199.6z M485.5,199.6c-0.1-9.1,7.3-16.5,16.4-16.6c9.1-0.1,16.5,7.3,16.6,16.4
				c0.1,9.1-7.3,16.5-16.4,16.6c0,0-0.1,0-0.1,0C492.9,216,485.5,208.7,485.5,199.6C485.5,199.6,485.5,199.6,485.5,199.6z"/>
			<path class="st1" d="M518.4,199.6c0.1-9.1-7.3-16.5-16.4-16.6c-9.1-0.1-16.5,7.3-16.6,16.4c-0.1,9.1,7.3,16.5,16.4,16.6
				c0,0,0.1,0,0.1,0C511,216,518.4,208.7,518.4,199.6C518.4,199.6,518.4,199.6,518.4,199.6z M486.3,199.6
				c-0.1-8.6,6.9-15.7,15.5-15.7c8.6-0.1,15.7,6.9,15.7,15.5s-6.9,15.7-15.5,15.7c0,0-0.1,0-0.1,0
				C493.3,215.2,486.4,208.2,486.3,199.6C486.3,199.6,486.3,199.6,486.3,199.6z"/>
			<path class="st18" d="M517.6,199.6c0.1-8.6-6.9-15.7-15.5-15.7c-8.6-0.1-15.7,6.9-15.7,15.5s6.9,15.7,15.5,15.7c0,0,0.1,0,0.1,0
				C510.5,215.2,517.5,208.2,517.6,199.6C517.6,199.6,517.6,199.6,517.6,199.6z M492.2,199.6c0-5.4,4.3-9.7,9.6-9.8s9.7,4.3,9.8,9.6
				c0,5.4-4.3,9.7-9.6,9.8c0,0,0,0-0.1,0C496.6,209.3,492.3,205,492.2,199.6C492.2,199.6,492.2,199.6,492.2,199.6z"/>
			<path class="st19" d="M501.9,209.3c5.3,0,9.6-4.4,9.6-9.7c0-5.3-4.4-9.6-9.7-9.6c-5.3,0-9.6,4.3-9.6,9.6
				C492.3,204.9,496.6,209.3,501.9,209.3C501.9,209.3,501.9,209.3,501.9,209.3z M493.1,199.6c0-4.9,3.9-8.9,8.8-8.9
				c4.9,0,8.9,3.9,8.9,8.8c0,4.9-3.9,8.9-8.8,8.9c0,0,0,0-0.1,0C497.1,208.4,493.1,204.5,493.1,199.6L493.1,199.6z"/>
			<ellipse class="st20" cx="501.9" cy="199.6" rx="8.9" ry="8.8"/>
			<path class="st16" d="M658.3,199.6c0-13-10.6-23.5-23.6-23.5c-13.1,0-23.6,10.5-23.6,23.5c0,5.9,2.2,11.5,6.2,15.8
				c8.9,9.6,23.9,10.3,33.6,1.4c0.5-0.4,0.9-0.9,1.4-1.4C656.1,211.1,658.3,205.5,658.3,199.6z M634.7,222.5
				c-12.7,0-23-10.2-23-22.9s10.3-22.9,23-22.9s23,10.2,23,22.9S647.4,222.5,634.7,222.5z"/>
			<path class="st17" d="M657.7,199.6c0-12.6-10.3-22.9-23-22.9c-12.7,0-23,10.2-23,22.9s10.3,22.9,23,22.9S657.7,212.2,657.7,199.6
				z M634.7,216.8c-9.5-0.1-17.2-7.8-17.1-17.3s7.8-17.2,17.3-17.1c9.5,0.1,17.1,7.7,17.1,17.2C652,209.1,644.2,216.8,634.7,216.8
				C634.7,216.8,634.7,216.8,634.7,216.8z"/>
			<path d="M652,199.6c0.1-9.6-7.6-17.4-17.2-17.4c-9.6-0.1-17.4,7.6-17.4,17.2c-0.1,9.6,7.6,17.4,17.2,17.4c0,0,0.1,0,0.1,0
				C644.2,216.8,652,209.1,652,199.6C652,199.6,652,199.6,652,199.6z M634.7,216c-9-0.1-16.3-7.4-16.3-16.5
				c0.1-9,7.4-16.3,16.5-16.3c9,0.1,16.3,7.4,16.3,16.4C651.1,208.7,643.8,216,634.7,216C634.7,216,634.7,216,634.7,216z"/>
			<path class="st1" d="M651.2,199.6c0.1-9.1-7.3-16.5-16.4-16.6c-9.1-0.1-16.5,7.3-16.6,16.4s7.3,16.5,16.4,16.6c0,0,0.1,0,0.1,0
				C643.8,216,651.1,208.7,651.2,199.6C651.2,199.6,651.2,199.6,651.2,199.6z M634.7,215.1c-8.6-0.1-15.5-7-15.4-15.6
				c0.1-8.6,7-15.5,15.6-15.4c8.5,0.1,15.4,7,15.4,15.5C650.3,208.2,643.3,215.2,634.7,215.1z"/>
			<path class="st18" d="M650.3,199.6c0.1-8.6-6.9-15.7-15.5-15.7s-15.7,6.9-15.7,15.5c-0.1,8.6,6.9,15.7,15.5,15.7c0,0,0.1,0,0.1,0
				C643.3,215.2,650.3,208.2,650.3,199.6C650.3,199.6,650.3,199.6,650.3,199.6z M625,199.6c0-5.4,4.3-9.7,9.6-9.8
				c5.4,0,9.7,4.3,9.8,9.6c0,5.4-4.3,9.7-9.6,9.8c0,0,0,0-0.1,0C629.3,209.3,625,204.9,625,199.6z"/>
			<path class="st19" d="M644.4,199.6c0-5.4-4.3-9.7-9.6-9.8s-9.7,4.3-9.8,9.6c0,5.4,4.3,9.7,9.6,9.8c0,0,0,0,0.1,0
				C640,209.3,644.4,205,644.4,199.6C644.4,199.6,644.4,199.6,644.4,199.6z M625.8,199.6c0-4.9,3.9-8.9,8.8-8.9
				c4.9,0,8.9,3.9,8.9,8.8s-3.9,8.9-8.8,8.9c0,0-0.1,0-0.1,0C629.8,208.4,625.9,204.5,625.8,199.6L625.8,199.6z"/>
			<path class="st20" d="M643.6,199.6c0-4.9-3.9-8.9-8.8-8.9c-4.9,0-8.9,3.9-8.9,8.8s3.9,8.9,8.8,8.9c0,0,0,0,0,0
				C639.6,208.4,643.6,204.5,643.6,199.6C643.6,199.6,643.6,199.6,643.6,199.6z"/>
			<path class="st1" d="M577.2,146.9c0,0-16.3-0.4-21.4,0c-5.1,0.4-6.8,3.4-6.8,3.4l-5.2,7.2c0,0-3.4,4.3,5.1,5.1
				c2.4,0.2,9.2,1.1,16.8,2c11.8,1.4,22.8,2.8,30.2,3.7C583.5,146.1,577.2,146.9,577.2,146.9z"/>
			
				<linearGradient id="SVGID_3_" gradientUnits="userSpaceOnUse" x1="543.0842" y1="94.447" x2="596.0076" y2="94.447" gradientTransform="matrix(1 0 0 -1 0 252)">
				<stop  offset="0" style="stop-color:#C9E7F9"/>
				<stop  offset="1" style="stop-color:#AAFFF9"/>
			</linearGradient>
			<path class="st21" d="M577.2,146.9c0,0-16.3-0.4-21.4,0c-5.1,0.4-6.8,3.4-6.8,3.4l-5.2,7.2c0,0-3.4,4.3,5.1,5.1
				c2.4,0.2,9.2,1.1,16.8,2c11.8,1.4,22.8,2.8,30.2,3.7C583.5,146.1,577.2,146.9,577.2,146.9z"/>
			<path class="st1" d="M595.9,168.4c-7.4-0.9-18.4-2.2-30.2-3.7c13.7,1.7,30.3,3.9,30.3,3.9L595.9,168.4z"/>
			<path class="st15" d="M595.9,168.4c-7.4-0.9-18.4-2.2-30.2-3.7c13.7,1.7,30.3,3.9,30.3,3.9L595.9,168.4z"/>
			
				<linearGradient id="SVGID_4_" gradientUnits="userSpaceOnUse" x1="543.0851" y1="85.3345" x2="596.0084" y2="85.3345" gradientTransform="matrix(1 0 0 -1 0 252)">
				<stop  offset="0" style="stop-color:#C9E7F9"/>
				<stop  offset="1" style="stop-color:#AAFFF9"/>
			</linearGradient>
			<path class="st22" d="M595.9,168.4c-7.4-0.9-18.4-2.2-30.2-3.7c13.7,1.7,30.3,3.9,30.3,3.9L595.9,168.4z"/>
			
				<linearGradient id="SVGID_5_" gradientUnits="userSpaceOnUse" x1="591.0121" y1="97.5995" x2="614.8509" y2="97.5995" gradientTransform="matrix(1 0 0 -1 0 252)">
				<stop  offset="0" style="stop-color:#C9E7F9"/>
				<stop  offset="1" style="stop-color:#AAFFF9"/>
			</linearGradient>
			<path class="st23" d="M614.3,161.9L614.3,161.9l0.5-0.1l-15.4-14.9c0.6,0.9,1.2,1.8,1.9,2.6C605.9,155.5,612.5,160.5,614.3,161.9
				z"/>
			<path class="st1" d="M592.2,151.2l9.2,11.6v-13.2c-0.7-0.9-1.3-1.7-1.9-2.6l-7.3,0.4C589.6,148.6,592.2,151.2,592.2,151.2z"/>
			
				<linearGradient id="SVGID_6_" gradientUnits="userSpaceOnUse" x1="591.0125" y1="97.161" x2="614.8512" y2="97.161" gradientTransform="matrix(1 0 0 -1 0 252)">
				<stop  offset="0" style="stop-color:#C9E7F9"/>
				<stop  offset="1" style="stop-color:#AAFFF9"/>
			</linearGradient>
			<path class="st24" d="M592.2,151.2l9.2,11.6v-13.2c-0.7-0.9-1.3-1.7-1.9-2.6l-7.3,0.4C589.6,148.6,592.2,151.2,592.2,151.2z"/>
			<path class="st13" d="M614.3,161.9c-1.8-1.4-8.4-6.4-13-12.3v13.2l4.7,5.9L614.3,161.9z"/>
			
				<linearGradient id="SVGID_7_" gradientUnits="userSpaceOnUse" x1="591.0121" y1="92.8801" x2="614.8509" y2="92.8801" gradientTransform="matrix(1 0 0 -1 0 252)">
				<stop  offset="0" style="stop-color:#C9E7F9"/>
				<stop  offset="1" style="stop-color:#AAFFF9"/>
			</linearGradient>
			<path class="st25" d="M614.3,161.9c-1.8-1.4-8.4-6.4-13-12.3v13.2l4.7,5.9L614.3,161.9z"/>
			<path class="st15" d="M614.6,162l-0.2-0.2l-0.1,0.1L614.6,162L614.6,162z"/>
			
				<linearGradient id="SVGID_8_" gradientUnits="userSpaceOnUse" x1="591.0121" y1="90.0667" x2="614.8509" y2="90.0667" gradientTransform="matrix(1 0 0 -1 0 252)">
				<stop  offset="0" style="stop-color:#C9E7F9"/>
				<stop  offset="1" style="stop-color:#AAFFF9"/>
			</linearGradient>
			<path class="st26" d="M614.6,162l-0.2-0.2l-0.1,0.1L614.6,162L614.6,162z"/>
			<path class="st13" d="M606.3,169.1l8.3-7l-0.2-0.2l-8.4,6.8L606.3,169.1z"/>
			<path class="st15" d="M606.3,169.1l8.3-7l-0.2-0.2l-8.4,6.8L606.3,169.1z"/>
			
				<linearGradient id="SVGID_9_" gradientUnits="userSpaceOnUse" x1="591.0121" y1="86.5348" x2="614.8509" y2="86.5348" gradientTransform="matrix(1 0 0 -1 0 252)">
				<stop  offset="0" style="stop-color:#C9E7F9"/>
				<stop  offset="1" style="stop-color:#AAFFF9"/>
			</linearGradient>
			<path class="st27" d="M606.3,169.1l8.3-7l-0.2-0.2l-8.4,6.8L606.3,169.1z"/>
			<polygon class="st13" points="614.6,162 614.9,161.8 614.4,161.8 			"/>
			<polygon class="st15" points="614.6,162 614.9,161.8 614.4,161.8 			"/>
			
				<linearGradient id="SVGID_10_" gradientUnits="userSpaceOnUse" x1="591.0121" y1="90.0843" x2="614.8509" y2="90.0843" gradientTransform="matrix(1 0 0 -1 0 252)">
				<stop  offset="0" style="stop-color:#C9E7F9"/>
				<stop  offset="1" style="stop-color:#AAFFF9"/>
			</linearGradient>
			<polygon class="st28" points="614.6,162 614.9,161.8 614.4,161.8 			"/>
		</g>
	</g>
</g>
</svg>
