<?xml version="1.0" encoding="utf-8"?>
<!-- Generator: Adobe Illustrator 25.0.1, SVG Export Plug-In . SVG Version: 6.00 Build 0)  -->
<svg version="1.1" id="Layer_1" xmlns="http://www.w3.org/2000/svg" xmlns:xlink="http://www.w3.org/1999/xlink" x="0px" y="0px"
	 viewBox="0 0 800 250" style="enable-background:new 0 0 800 250;" xml:space="preserve">
<style type="text/css">
	.st0{fill:#CDF5F9;}
	.st1{fill:#FFFFFF;}
	.st2{fill:#444444;}
	.st3{fill:#3B3B3B;}
	.st4{display:none;}
	.st5{display:inline;opacity:0.47;fill:url(#SVGID_1_);enable-background:new    ;}
	.st6{fill:#FF0000;}
	.st7{fill:#666666;}
	.st8{fill:#333333;}
	.st9{fill:#232323;}
	.st10{fill:#4F4F4F;}
	.st11{fill:none;}
	.st12{fill:#3F3F3F;}
	.st13{fill:#BFBAB6;}
	.st14{fill:#A39F9B;}
	.st15{fill:#E2DBD5;}
	.st16{fill:#918C88;}
	.st17{clip-path:url(#SVGID_3_);fill:#918C88;}
	.st18{fill:#D1651C;}
	.st19{fill:#C4B5A9;}
	.st20{fill:#CC3300;}
	.st21{clip-path:url(#SVGID_5_);fill:#918C88;}
	.st22{clip-path:url(#SVGID_7_);fill:#918C88;}
	.st23{display:inline;fill:none;}
</style>
<g id="Layer_1_2_">
	<g>
		<g id="Layer_1_1_">
			<rect class="st0" width="800" height="250"/>
		</g>
		<g id="Layer_3">
			<g>
				<path class="st1" d="M713.8,64c-3-16.5-17.4-28.9-34.7-28.9c-4.8,0-9.4,1-13.6,2.7C658.7,28.2,647.6,22,635,22
					c-12.7,0-23.9,6.3-30.6,16c-4.7-3.3-10.3-5.3-16.5-5.3c-15.7,0-28.5,12.7-28.5,28.5c0,0.9,0,1.9,0.1,2.8H713.8z"/>
			</g>
			<g>
				<path class="st1" d="M414.4,94c2.2-12.1,12.8-21.4,25.6-21.4c3.6,0,7,0.7,10,2c5-7.1,13.2-11.7,22.5-11.7
					c9.4,0,17.6,4.7,22.6,11.8c3.4-2.4,7.6-3.9,12.2-3.9c11.6,0,21,9.4,21,21c0,0.7,0,1.4-0.1,2.1H414.4V94z"/>
			</g>
			<g>
				<path class="st1" d="M92.3,62.7c-6.2,0-11.8,2-16.5,5.3c-6.7-9.7-17.9-16-30.6-16c-12.6,0-23.7,6.2-30.5,15.8
					c-4.2-1.8-8.8-2.7-13.6-2.7c-0.4,0-0.7,0-1.1,0V94h120.6c0.1-0.9,0.1-1.9,0.1-2.8C120.8,75.5,108,62.7,92.3,62.7z"/>
			</g>
		</g>
		<path class="st2" d="M565.5,231.1L565.5,231.1c-2.9,0-5.2-2.3-5.2-5.2V31.3c0-2.9,2.3-5.2,5.2-5.2l0,0c2.9,0,5.2,2.3,5.2,5.2
			v194.6C570.7,228.8,568.4,231.1,565.5,231.1z"/>
		<g id="Layer_5">
			<rect y="220" class="st3" width="800" height="30"/>
			<rect x="15" y="220" class="st1" width="99" height="6"/>
			<rect x="221" y="220" class="st1" width="99" height="6"/>
			<rect x="429" y="220" class="st1" width="99" height="6"/>
			<rect x="635" y="220" class="st1" width="99" height="6"/>
		</g>
		<g id="Layer_6">
		</g>
		<g id="Layer_8" class="st4">
			
				<linearGradient id="SVGID_1_" gradientUnits="userSpaceOnUse" x1="400" y1="1060" x2="400" y2="1310" gradientTransform="matrix(1 0 0 1 0 -1060)">
				<stop  offset="0" style="stop-color:#666666"/>
				<stop  offset="1" style="stop-color:#333333"/>
			</linearGradient>
			<rect class="st5" width="800" height="250"/>
		</g>
		<g>
			<g>
				<rect x="570.7" y="36.3" class="st1" width="33.7" height="33.7"/>
				<rect x="570.7" y="70" width="33.7" height="33.7"/>
				<rect x="604.5" y="70.1" class="st1" width="33.7" height="33.7"/>
				<rect x="604.5" y="36.3" width="33.7" height="33.7"/>
				<rect x="638.2" y="36.3" class="st1" width="33.7" height="33.7"/>
				<rect x="638.2" y="70" width="33.7" height="33.7"/>
				<rect x="672" y="70.1" class="st1" width="33.7" height="33.7"/>
				<rect x="672" y="36.3" width="33.7" height="33.7"/>
				<rect x="705.7" y="36.3" class="st1" width="33.7" height="33.7"/>
				<rect x="705.7" y="70" width="33.7" height="33.7"/>
				<rect x="739.5" y="70.1" class="st1" width="33.7" height="33.7"/>
				<rect x="739.5" y="36.3" width="33.7" height="33.7"/>
			</g>
			<g>
				<g>
					<g>
						<path class="st6" d="M620,84.1c-0.5,0-1.1,0-1.9-0.1c-0.8-0.1-1.6-0.2-2.4-0.4c-0.9-0.2-1.8-0.4-2.6-0.7
							c-0.9-0.3-1.7-0.6-2.5-1s-1.5-0.9-2-1.4c-0.6-0.7-0.9-1.4-0.9-2.3s0.3-1.7,1-2.4c0.7-0.7,1.5-1.1,2.4-1.1
							c0.6,0,1.1,0.1,1.6,0.4c0.6,0.3,1.2,0.6,1.8,0.9c0.6,0.2,1.2,0.4,1.8,0.6s1.2,0.3,1.8,0.4s1.3,0.1,2,0.1c0.4,0,1,0,1.6-0.1
							s1.1-0.2,1.6-0.3c0.5-0.2,0.8-0.4,1.2-0.7c0.1-0.1,0.3-0.3,0.3-0.8c0-0.3-0.1-0.7-0.7-1c-0.7-0.4-1.6-0.8-2.7-1.1
							c-1.1-0.4-2.4-0.7-3.7-1.1c-1.4-0.4-2.8-0.9-4-1.6c-1.3-0.7-2.3-1.6-3.2-2.7c-0.9-1.2-1.4-2.7-1.4-4.6c0-1.6,0.4-3,1.2-4.1
							c0.7-1.1,1.7-1.9,2.9-2.5c1.1-0.6,2.3-1,3.7-1.2c1.3-0.2,2.6-0.3,3.8-0.3c0.6,0,1.3,0,2.1,0.1s1.6,0.2,2.4,0.3
							c0.8,0.1,1.6,0.3,2.3,0.5c0.8,0.2,1.5,0.5,2.1,0.7c0.6,0.3,1.1,0.7,1.5,1.1c0.4,0.5,0.6,1.2,0.6,2c0,0.9-0.3,1.8-1,2.4
							s-1.5,1-2.4,1c-0.4,0-0.8-0.1-1.3-0.3c-1-0.4-2.1-0.7-3.1-0.9s-2.1-0.3-3.2-0.3c-0.4,0-0.9,0-1.5,0c-0.5,0-1.1,0.1-1.6,0.2
							c-0.4,0.1-0.8,0.3-1.1,0.5c-0.1,0.1-0.2,0.2-0.2,0.6c0,0.1,0,0.3,0.2,0.5c0.2,0.3,0.6,0.5,1,0.8c0.4,0.3,1,0.5,1.5,0.7
							c0.6,0.2,1.2,0.4,1.8,0.6s1.1,0.3,1.6,0.5c0.5,0.1,0.9,0.3,1.2,0.3c1,0.3,2,0.7,3,1.1s1.9,0.9,2.7,1.6
							c0.8,0.6,1.4,1.5,1.9,2.4c0.5,1,0.7,2.1,0.7,3.4c0,1.7-0.4,3.2-1.1,4.4c-0.7,1.1-1.7,2.1-2.9,2.8c-1.1,0.7-2.4,1.1-3.8,1.4
							C622.7,83.9,621.3,84.1,620,84.1z"/>
						<path d="M620.6,56c0.6,0,1.3,0,2.1,0.1s1.5,0.2,2.3,0.3s1.5,0.3,2.3,0.5c0.7,0.2,1.4,0.4,1.9,0.7c0.4,0.2,0.8,0.5,1.1,0.9
							s0.4,0.8,0.4,1.3c0,0.7-0.2,1.3-0.7,1.7c-0.5,0.5-1.1,0.7-1.7,0.7c-0.3,0-0.6-0.1-0.9-0.2c-1.1-0.4-2.2-0.7-3.2-0.9
							c-1.1-0.2-2.2-0.3-3.4-0.3c-0.4,0-0.9,0-1.5,0s-1.2,0.1-1.8,0.3s-1.1,0.4-1.5,0.7s-0.6,0.8-0.6,1.4c0,0.4,0.2,0.8,0.5,1.2
							s0.7,0.7,1.2,1s1.1,0.6,1.7,0.8c0.6,0.2,1.2,0.4,1.8,0.6s1.1,0.3,1.6,0.5c0.5,0.1,0.9,0.3,1.2,0.3c1,0.3,1.9,0.7,2.9,1
							c0.9,0.4,1.7,0.8,2.4,1.4s1.2,1.3,1.7,2.1c0.4,0.8,0.6,1.8,0.6,3c0,1.5-0.3,2.8-1,3.8s-1.5,1.8-2.5,2.4s-2.2,1-3.5,1.3
							c-1.3,0.2-2.6,0.4-3.9,0.4c-0.4,0-1,0-1.8-0.1c-0.7-0.1-1.5-0.2-2.3-0.4c-0.8-0.2-1.7-0.4-2.5-0.6c-0.8-0.3-1.6-0.6-2.3-0.9
							c-0.7-0.4-1.3-0.8-1.7-1.2c-0.4-0.5-0.7-1-0.7-1.6s0.2-1.2,0.7-1.7s1-0.7,1.7-0.7c0.4,0,0.8,0.1,1.1,0.3
							c0.7,0.4,1.3,0.7,1.9,0.9c0.6,0.3,1.3,0.5,1.9,0.6c0.6,0.2,1.3,0.3,1.9,0.4c0.7,0.1,1.4,0.1,2.1,0.1c0.5,0,1,0,1.7-0.1
							c0.6-0.1,1.3-0.2,1.8-0.4c0.6-0.2,1.1-0.5,1.5-0.9s0.6-0.9,0.6-1.5c0-0.8-0.4-1.4-1.2-1.9s-1.7-0.9-2.9-1.2
							c-1.1-0.4-2.4-0.7-3.8-1.1c-1.4-0.4-2.6-0.9-3.8-1.5c-1.1-0.6-2.1-1.4-2.9-2.5c-0.8-1-1.2-2.4-1.2-4c0-1.4,0.3-2.6,1-3.6
							s1.5-1.7,2.5-2.2s2.2-0.9,3.4-1.1C618.2,56.1,619.5,56,620.6,56 M620.6,54c-1.3,0-2.6,0.1-4,0.3c-1.5,0.2-2.8,0.7-4,1.3
							c-1.3,0.7-2.4,1.6-3.2,2.8c-0.9,1.3-1.3,2.9-1.3,4.7c0,2.1,0.5,3.9,1.6,5.2c0.9,1.2,2.1,2.3,3.5,3c1.3,0.7,2.7,1.3,4.2,1.7
							c1.3,0.4,2.6,0.7,3.7,1.1c1,0.3,1.8,0.6,2.4,1c0.1,0.1,0.2,0.1,0.2,0.1l0,0c0,0,0,0,0,0.1c-0.2,0.2-0.5,0.3-0.8,0.4
							c-0.4,0.1-0.9,0.2-1.4,0.3c-0.6,0.1-1.1,0.1-1.5,0.1c-0.7,0-1.3,0-1.9-0.1c-0.6-0.1-1.1-0.2-1.7-0.3c-0.5-0.1-1.1-0.3-1.6-0.6
							c-0.6-0.2-1.1-0.5-1.7-0.8c-0.7-0.4-1.4-0.6-2.1-0.6c-1.2,0-2.3,0.5-3.1,1.4s-1.3,1.9-1.3,3.1c0,1.1,0.4,2.1,1.2,2.9
							c0.6,0.6,1.4,1.2,2.2,1.6s1.7,0.8,2.6,1c0.9,0.3,1.8,0.5,2.7,0.7s1.7,0.3,2.5,0.4s1.5,0.1,2,0.1c1.4,0,2.8-0.1,4.2-0.4
							c1.5-0.3,2.9-0.8,4.1-1.5c1.3-0.8,2.4-1.8,3.2-3.1c0.9-1.3,1.3-3,1.3-4.9c0-1.5-0.3-2.8-0.8-3.9s-1.3-2-2.2-2.7
							c-0.8-0.7-1.8-1.3-2.9-1.7c-1-0.4-2-0.8-3-1.1l0,0l0,0c-0.3-0.1-0.7-0.2-1.2-0.3c-0.5-0.1-1-0.3-1.6-0.5
							c-0.5-0.2-1.1-0.4-1.7-0.6c-0.5-0.2-1-0.4-1.4-0.6c-0.2-0.1-0.4-0.3-0.6-0.4c0.1-0.1,0.3-0.1,0.5-0.2c0.4-0.1,0.9-0.2,1.3-0.2
							c0.6,0,1.1,0,1.5,0c1,0,2,0.1,3,0.3s2,0.5,3,0.8c0.6,0.2,1.1,0.3,1.6,0.3c1.2,0,2.3-0.5,3.2-1.3c0.9-0.9,1.3-1.9,1.3-3.2
							c0-1-0.3-1.9-0.9-2.6c-0.5-0.6-1.1-1.1-1.8-1.4c-0.7-0.3-1.4-0.6-2.3-0.8c-0.8-0.2-1.6-0.4-2.4-0.5c-0.8-0.2-1.7-0.3-2.5-0.3
							C622,54.1,621.3,54,620.6,54L620.6,54z"/>
					</g>
					<g>
						<path class="st6" d="M644.9,83.9c-1,0-1.9-0.4-2.6-1.1c-0.7-0.7-1-1.6-1-2.6V62.4h-6.2c-1,0-1.8-0.3-2.4-1s-1-1.5-1-2.4
							s0.3-1.8,1-2.4c0.7-0.7,1.5-1,2.4-1h19.6c0.9,0,1.8,0.3,2.4,1c0.7,0.7,1,1.5,1,2.4s-0.4,1.8-1,2.4c-0.7,0.7-1.5,1-2.4,1h-6.2
							v17.9c0,1-0.4,1.9-1.1,2.6C646.7,83.5,645.9,83.9,644.9,83.9z"/>
						<path d="M654.7,56.5c0.7,0,1.3,0.2,1.7,0.7c0.5,0.5,0.7,1.1,0.7,1.7c0,0.7-0.2,1.3-0.7,1.7c-0.5,0.5-1.1,0.7-1.7,0.7h-7.2
							v18.9c0,0.7-0.3,1.4-0.8,1.9s-1.1,0.8-1.9,0.8s-1.3-0.3-1.8-0.8s-0.7-1.1-0.7-1.9V61.4h-7.2c-0.7,0-1.3-0.2-1.7-0.7
							s-0.7-1-0.7-1.7s0.2-1.3,0.7-1.7s1-0.7,1.7-0.7L654.7,56.5 M654.7,54.5h-19.6c-1.2,0-2.3,0.5-3.2,1.3
							c-0.8,0.9-1.3,1.9-1.3,3.1c0,1.2,0.4,2.3,1.3,3.1c0.8,0.8,1.9,1.3,3.1,1.3h5.2v16.9c0,1.3,0.5,2.4,1.3,3.3
							c0.9,0.9,2,1.4,3.3,1.4s2.4-0.5,3.3-1.3c0.9-0.9,1.3-2,1.3-3.3V63.4h5.2c1.2,0,2.3-0.4,3.1-1.3c0.9-0.8,1.3-1.9,1.3-3.2
							c0-1.2-0.5-2.3-1.3-3.2C657,54.9,655.9,54.5,654.7,54.5L654.7,54.5z"/>
					</g>
					<g>
						<path class="st6" d="M680.2,83.9c-0.7,0-1.3-0.2-1.9-0.5c-0.5-0.3-1-0.8-1.2-1.4l-1.9-4.2h-10l-1.9,4.2
							c-0.3,0.6-0.7,1.1-1.3,1.5c-0.6,0.3-1.2,0.5-1.8,0.5c-1,0-1.8-0.3-2.4-1c-0.7-0.7-1-1.5-1-2.4c0-0.5,0.1-1,0.3-1.4l10-21.9
							c0.3-0.6,0.7-1.1,1.2-1.4c0.6-0.4,1.2-0.6,1.8-0.6s1.3,0.2,1.8,0.5c0.6,0.4,1,0.8,1.3,1.5l10,21.9c0.2,0.5,0.3,1,0.3,1.4
							c0,0.9-0.3,1.8-1,2.4C682,83.5,681.1,83.9,680.2,83.9z M672.3,71.3l-2.1-4.7l-2.1,4.7H672.3z"/>
						<path d="M670.1,56.1c0.5,0,0.9,0.1,1.3,0.4c0.4,0.2,0.7,0.6,0.9,1l10,21.9c0.1,0.3,0.2,0.7,0.2,1c0,0.7-0.2,1.3-0.7,1.7
							s-1,0.7-1.7,0.7c-0.5,0-0.9-0.1-1.3-0.4c-0.4-0.2-0.7-0.6-0.9-1l-2.2-4.8h-11.3l-2.2,4.8c-0.2,0.4-0.5,0.8-0.9,1
							s-0.8,0.4-1.3,0.4c-0.7,0-1.3-0.2-1.7-0.7c-0.5-0.5-0.7-1.1-0.7-1.7c0-0.3,0.1-0.7,0.2-1l10-21.9c0.2-0.4,0.5-0.8,0.9-1
							C669.2,56.3,669.6,56.1,670.1,56.1 M666.5,72.3h7.3l-3.7-8.1L666.5,72.3 M670.1,54.1c-0.9,0-1.7,0.2-2.4,0.7s-1.2,1.1-1.6,1.9
							l-10,21.8c-0.3,0.6-0.4,1.2-0.4,1.8c0,1.2,0.5,2.3,1.3,3.2c0.9,0.9,1.9,1.3,3.2,1.3c0.9,0,1.6-0.2,2.4-0.7
							c0.7-0.5,1.3-1.1,1.6-1.9l1.6-3.6h8.7l1.6,3.6c0.4,0.8,0.9,1.4,1.6,1.9c0.7,0.5,1.5,0.7,2.4,0.7c1.2,0,2.3-0.5,3.1-1.3
							s1.3-1.9,1.3-3.1c0-0.6-0.1-1.2-0.3-1.7v-0.1v-0.1l-10-21.9c-0.4-0.8-1-1.5-1.7-1.9C671.7,54.4,670.9,54.1,670.1,54.1
							L670.1,54.1z M669.6,70.3l0.6-1.3l0.6,1.3H669.6L669.6,70.3z"/>
					</g>
					<g>
						<path class="st6" d="M706.3,83.9c-0.7,0-1.3-0.2-1.8-0.5c-0.6-0.3-1-0.8-1.3-1.4c-0.1-0.2-0.3-0.5-0.5-1l-0.8-1.7
							c-0.4-0.8-0.7-1.5-1.1-2.3c-0.4-0.8-0.8-1.5-1.1-2.2c-0.3-0.6-0.6-1.2-0.8-1.6c0-0.1-0.1-0.1-0.1-0.2h-5.5v7.3
							c0,1-0.4,1.9-1.1,2.6c-0.7,0.7-1.6,1-2.5,1c-1,0-1.9-0.3-2.5-1c-0.7-0.7-1-1.5-1-2.5V59.1c0-1,0.3-1.9,1-2.5
							c0.7-0.7,1.5-1,2.5-1h9.7c1.3,0,2.7,0.1,3.9,0.4c1.3,0.3,2.4,0.8,3.4,1.5s1.8,1.7,2.4,2.8c0.6,1.1,0.9,2.5,0.9,4.1
							c0,1.7-0.4,3.3-1.2,4.6c-0.6,1.1-1.6,2-2.7,2.6c0,0.1,0.1,0.1,0.1,0.2c0.3,0.5,0.6,1.1,0.9,1.7c0.3,0.6,0.6,1.3,1,1.9
							c0.3,0.7,0.6,1.3,0.9,1.9c0.3,0.6,0.5,1.2,0.7,1.7c0.2,0.6,0.3,1,0.3,1.4c0,1-0.3,1.8-1,2.5C708.1,83.5,707.3,83.9,706.3,83.9
							z M700.1,66.6c0.8,0,1.4-0.2,1.9-0.6c0.3-0.2,0.6-0.6,0.6-1.5c0-1-0.4-1.4-0.6-1.6c-0.5-0.4-1.1-0.6-1.9-0.6h-6.8v4.3
							C693.3,66.6,700.1,66.6,700.1,66.6z"/>
						<path d="M699.4,56.5c1.3,0,2.5,0.1,3.7,0.4c1.2,0.3,2.2,0.7,3,1.4c0.9,0.6,1.5,1.4,2.1,2.4s0.8,2.2,0.8,3.6
							c0,1.5-0.4,2.9-1.1,4.1c-0.7,1.2-1.8,2.1-3.2,2.7c0.1,0.3,0.3,0.6,0.6,1.1s0.5,1,0.9,1.7c0.3,0.6,0.6,1.3,1,1.9
							s0.6,1.3,0.9,1.9c0.3,0.6,0.5,1.1,0.7,1.6s0.3,0.8,0.3,1c0,0.7-0.2,1.3-0.7,1.8s-1.1,0.7-1.8,0.7c-0.5,0-0.9-0.1-1.3-0.4
							c-0.4-0.2-0.7-0.6-0.9-1c-0.1-0.1-0.2-0.5-0.5-1s-0.5-1.1-0.9-1.8c-0.3-0.7-0.7-1.4-1.1-2.2c-0.4-0.8-0.7-1.5-1.1-2.1
							c-0.3-0.7-0.6-1.2-0.8-1.6s-0.3-0.7-0.3-0.7h-7.2v8.3c0,0.7-0.3,1.3-0.8,1.8s-1.1,0.7-1.8,0.7s-1.3-0.2-1.8-0.7
							s-0.7-1.1-0.7-1.8V59.1c0-0.7,0.2-1.3,0.7-1.8s1.1-0.7,1.8-0.7L699.4,56.5 M692.3,67.6h7.8c1,0,1.8-0.3,2.5-0.8
							s1.1-1.3,1.1-2.3s-0.3-1.8-1-2.4c-0.7-0.5-1.5-0.8-2.5-0.8h-7.8L692.3,67.6 M699.4,54.5h-9.7c-1.3,0-2.4,0.5-3.3,1.3
							c-0.9,0.9-1.3,2-1.3,3.3v21.2c0,1.3,0.5,2.4,1.3,3.3c0.9,0.9,2,1.3,3.3,1.3c1.2,0,2.3-0.4,3.2-1.3s1.4-2,1.4-3.3V74h3.9
							c0.2,0.4,0.4,0.8,0.6,1.2c0.3,0.7,0.7,1.4,1.1,2.2c0.4,0.8,0.7,1.5,1.1,2.2v0.1l0.8,1.7c0.3,0.6,0.4,0.9,0.5,1
							c0.4,0.8,0.9,1.4,1.6,1.8c0.7,0.4,1.5,0.7,2.4,0.7c1.2,0,2.3-0.5,3.2-1.3c0.9-0.9,1.3-2,1.3-3.2c0-0.5-0.1-1-0.4-1.7
							c-0.2-0.5-0.4-1.1-0.7-1.7s-0.6-1.3-0.9-1.9c-0.3-0.7-0.7-1.3-1-2c-0.2-0.4-0.4-0.8-0.6-1.1c0.9-0.7,1.7-1.5,2.3-2.5
							c0.9-1.5,1.3-3.2,1.3-5.1c0-1.7-0.3-3.3-1-4.6s-1.5-2.3-2.7-3.1c-1.1-0.8-2.3-1.3-3.7-1.7C702.2,54.7,700.8,54.5,699.4,54.5
							L699.4,54.5z M694.3,63.3h5.8c0.7,0,1.1,0.2,1.3,0.4c0.1,0.1,0.3,0.2,0.3,0.8c0,0.5-0.2,0.7-0.2,0.7c-0.4,0.3-0.8,0.4-1.3,0.4
							h-5.8L694.3,63.3L694.3,63.3z"/>
					</g>
					<g>
						<path class="st6" d="M723.8,83.9c-1,0-1.9-0.4-2.6-1.1c-0.7-0.7-1-1.6-1-2.6V62.4H714c-1,0-1.8-0.3-2.4-1s-1-1.5-1-2.4
							s0.3-1.8,1-2.4c0.7-0.7,1.5-1,2.4-1h19.6c1,0,1.8,0.3,2.4,1c0.7,0.7,1,1.5,1,2.4s-0.4,1.8-1,2.4c-0.7,0.7-1.5,1-2.4,1h-6.2
							v17.9c0,1-0.4,1.9-1.1,2.6C725.7,83.5,724.8,83.9,723.8,83.9z"/>
						<path d="M733.6,56.5c0.7,0,1.3,0.2,1.7,0.7c0.5,0.5,0.7,1.1,0.7,1.7c0,0.7-0.2,1.3-0.7,1.7c-0.5,0.5-1.1,0.7-1.7,0.7h-7.2
							v18.9c0,0.7-0.3,1.4-0.8,1.9s-1.1,0.8-1.9,0.8s-1.3-0.3-1.8-0.8s-0.7-1.1-0.7-1.9V61.4H714c-0.7,0-1.3-0.2-1.7-0.7
							s-0.7-1-0.7-1.7s0.2-1.3,0.7-1.7s1-0.7,1.7-0.7L733.6,56.5 M733.6,54.5H714c-1.2,0-2.3,0.5-3.2,1.3c-0.8,0.9-1.3,1.9-1.3,3.1
							c0,1.2,0.4,2.3,1.3,3.1c0.8,0.8,1.9,1.3,3.1,1.3h5.2v16.9c0,1.3,0.5,2.4,1.3,3.3c0.9,0.9,2,1.4,3.3,1.4s2.4-0.5,3.3-1.3
							c0.9-0.9,1.3-2,1.3-3.3V63.4h5.2c1.2,0,2.3-0.4,3.1-1.3c0.9-0.8,1.3-1.9,1.3-3.2c0-1.2-0.5-2.3-1.3-3.2
							C735.9,54.9,734.8,54.5,733.6,54.5L733.6,54.5z"/>
					</g>
				</g>
			</g>
			<path class="st2" d="M778.4,231.1L778.4,231.1c-2.9,0-5.2-2.3-5.2-5.2V31.3c0-2.9,2.3-5.2,5.2-5.2l0,0c2.9,0,5.2,2.3,5.2,5.2
				v194.6C783.6,228.8,781.2,231.1,778.4,231.1z"/>
		</g>
	</g>
	<g>
		<polygon class="st7" points="610.4,109.1 605.7,110.5 605.8,115.5 612.2,116 612.2,119.3 600.1,120.3 597.2,123.1 586.6,123.1 
			583.3,120.2 582.7,123.1 574.4,123.1 572.1,118.4 564.1,118.4 564.1,91.4 598.7,97.7 602.2,100.3 608.8,105.1 		"/>
		<rect x="612.2" y="116.6" class="st7" width="12.5" height="1.8"/>
		<rect x="542.5" y="94.2" class="st8" width="21.6" height="17.4"/>
		<rect x="432.1" y="79.4" class="st8" width="113.3" height="37.3"/>
		<g>
			<path class="st8" d="M524.9,174.6l12.1,12.1l11.7-11.7c3.4-3.4,3.4-8.8,0-12.1l0,0c-3.4-3.4-8.8-3.4-12.1,0L524.9,174.6z"/>
			<path class="st8" d="M533.6,168.2l15.8-6.9l-17.3-39.7c-1.9-4.3-6.9-6.3-11.3-4.5l0,0c-4.3,1.9-6.3,6.9-4.5,11.3L533.6,168.2z"/>
			<polygon class="st9" points="511.6,185.8 524.9,199.8 532,195.2 535.3,186.7 525.3,176.1 516.5,178.9 			"/>
			
				<rect x="503.9" y="183.3" transform="matrix(0.7663 -0.6425 0.6425 0.7663 -13.3567 372.0992)" class="st8" width="1.8" height="42.3"/>
			<polygon class="st8" points="494.9,193.9 513.3,215.9 519.3,207.9 503.9,189.5 			"/>
			<polygon class="st8" points="512.7,186.9 523.2,198 516.4,204.5 506.3,192.4 			"/>
		</g>
		<path class="st7" d="M518.7,117.4h24.7c1.5,0,2.8-1.3,2.8-2.8V82.1c0-1.2-0.8-2.2-1.9-2.6l-21.2-7.2c-1.7-0.6-3.5,0.6-3.6,2.4
			l-3.5,39.7C515.9,116,517.2,117.4,518.7,117.4z"/>
		<path class="st7" d="M474.8,115.9h36.7c1.5,0,2.7-1.2,2.7-2.7V66.7c0-1.5-1.2-2.7-2.7-2.7h-36.7c-1.5,0-2.7,1.2-2.7,2.7v46.4
			C472.2,114.6,473.3,115.9,474.8,115.9z"/>
		<path class="st8" d="M462.8,168.3l16.4-5l-12.8-41.4c-1.4-4.5-6.2-7.1-10.7-5.7l0,0c-4.5,1.4-7.1,6.2-5.7,10.7L462.8,168.3z"/>
		<path class="st9" d="M427,96.9l6.7-3.9c1.7-1,4,0.1,4.3,2.1l2.8,21.6h96.8c1.3,0,2.1,1.4,1.5,2.5l-8.3,14.7
			c-0.3,0.6-0.9,0.9-1.5,0.9h-91.5c-0.9,0-1.7-0.8-1.7-1.7v-6.5h-1.6c-1.3,0-2.4-0.9-2.8-2.2l-5.9-24.3
			C425.4,98.8,425.9,97.6,427,96.9z"/>
		<path class="st8" d="M467.7,188.9l13.9-0.9l-1.3-19.8c-0.6-4.7-5-8-9.7-7.3l0,0c-4.7,0.6-8,5-7.3,9.7L467.7,188.9z"/>
		<g>
			<path class="st7" d="M524.6,187.2l17.1-1l-3.7-60.7c-0.3-4.7-4.3-8.4-9.1-8l0,0c-4.7,0.3-8.4,4.3-8,9.1L524.6,187.2z"/>
			<rect x="513.8" y="220.1" class="st7" width="42.3" height="1.8"/>
			<polygon class="st7" points="520.6,221.9 549.3,221.9 546.9,212.2 523,212.2 			"/>
			<polygon class="st7" points="526.7,203.7 541.8,202.8 542.5,212.2 526.7,212.2 			"/>
			<polygon class="st10" points="524.2,205.2 544.6,203.8 546.5,192.5 542.1,184.5 524.1,185 522.5,194.1 			"/>
		</g>
		<polygon class="st9" points="466.1,203.8 485.4,202.6 486.4,194.3 482,186.2 467.4,187.2 464,195.6 		"/>
		<rect x="454.8" y="220.1" class="st8" width="42.3" height="1.8"/>
		<polygon class="st8" points="461.6,221.9 490.3,221.9 487.9,212.2 464,212.2 		"/>
		<polygon class="st8" points="467.7,203.7 482.9,202.8 483.6,212.2 467.7,212.2 		"/>
		<g>
			<path class="st7" d="M458.9,186.4l-17.1-1l3.7-60.7c0.3-4.7,4.3-8.4,9.1-8l0,0c4.7,0.3,8.4,4.3,8,9.1L458.9,186.4z"/>
			<polygon class="st10" points="458.5,203.8 439.2,202.6 438.1,194.3 441,184 459.8,185.1 460.6,195.6 			"/>
			<rect x="427.5" y="220.2" class="st7" width="42.3" height="1.8"/>
			<polygon class="st7" points="462.9,221.9 434.3,221.9 436.6,212.2 460.6,212.2 			"/>
			<polygon class="st7" points="456.9,203.7 441.7,202.8 441,212.2 456.9,212.2 			"/>
		</g>
		<path class="st7" d="M434.7,115.9h32.1c1.4,0,2.5-1.1,2.5-2.5V70.2c0-1.7-1.7-2.9-3.3-2.4L433.9,78c-1,0.3-1.8,1.3-1.8,2.4v32.8
			C432.1,114.7,433.3,115.9,434.7,115.9z"/>
		<path class="st8" d="M595.1,99.2c3.8,0,6.9,3.1,6.9,6.9c0,1.7-0.6,3.2-1.6,4.3H614v2.5h-18.9c-3.8,0-6.9-3.1-6.9-6.9
			S591.2,99.2,595.1,99.2z"/>
		<path class="st8" d="M542.5,113.2L542.5,113.2c0.8,0,1.4-0.6,1.4-1.4V83.7c0-0.8-0.6-1.4-1.4-1.4l0,0c-0.8,0-1.4,0.6-1.4,1.4v28
			C541.1,112.6,541.7,113.2,542.5,113.2z"/>
		<path class="st8" d="M538.4,113.2L538.4,113.2c0.8,0,1.4-0.6,1.4-1.4V83.7c0-0.8-0.6-1.4-1.4-1.4l0,0c-0.8,0-1.4,0.6-1.4,1.4v28
			C537,112.6,537.6,113.2,538.4,113.2z"/>
		<path class="st8" d="M508.6,111.6L508.6,111.6c0-0.8-0.6-1.4-1.4-1.4h-28.1c-0.8,0-1.4,0.6-1.4,1.4l0,0c0,0.8,0.6,1.4,1.4,1.4h28
			C508,113,508.6,112.4,508.6,111.6z"/>
		<path class="st8" d="M508.6,107.3L508.6,107.3c0-0.8-0.6-1.4-1.4-1.4h-28.1c-0.8,0-1.4,0.6-1.4,1.4l0,0c0,0.8,0.6,1.4,1.4,1.4h28
			C508,108.7,508.6,108.1,508.6,107.3z"/>
		<path class="st8" d="M508.6,102.9L508.6,102.9c0-0.8-0.6-1.4-1.4-1.4h-28.1c-0.8,0-1.4,0.6-1.4,1.4l0,0c0,0.8,0.6,1.4,1.4,1.4h28
			C508,104.3,508.6,103.7,508.6,102.9z"/>
		<path class="st8" d="M454.2,112.9h10c1.4,0,2.6-1.2,2.6-2.6V95.1c0-1.4-1.2-2.6-2.6-2.6h-10c-1.4,0-2.6,1.2-2.6,2.6v15.3
			C451.6,111.7,452.8,112.9,454.2,112.9z"/>
	</g>
	<g>
		<polygon class="st7" points="336.4,128 332.5,129.1 332.6,133.3 337.9,133.8 337.9,136.5 327.9,137.3 325.4,139.7 316.6,139.7 
			313.9,137.2 313.4,139.7 306.5,139.7 304.5,135.7 297.9,135.7 297.9,113.3 326.7,118.5 329.6,120.7 335,124.7 		"/>
		<rect x="337.9" y="134.2" class="st7" width="10.4" height="1.5"/>
		<rect x="279.8" y="115.6" class="st8" width="18" height="14.5"/>
		<rect x="188" y="103.2" class="st8" width="94.3" height="31"/>
		<g>
			<path class="st8" d="M265.2,182.5l10.1,10.1l9.8-9.8c2.8-2.8,2.8-7.3,0-10.1l0,0c-2.8-2.8-7.3-2.8-10.1,0L265.2,182.5z"/>
			<path class="st8" d="M272.5,177.2l13.1-5.7l-14.4-33.1c-1.6-3.6-5.8-5.3-9.4-3.7l0,0c-3.6,1.6-5.3,5.8-3.7,9.4L272.5,177.2z"/>
			<polygon class="st9" points="254.2,191.8 265.2,203.5 271.2,199.7 273.9,192.6 265.5,183.7 258.3,186.1 			"/>
			
				<rect x="247.8" y="189.7" transform="matrix(0.7663 -0.6425 0.6425 0.7663 -75.0917 208.1088)" class="st8" width="1.5" height="35.2"/>
			<polygon class="st8" points="240.3,198.7 255.6,216.9 260.6,210.2 247.7,194.9 			"/>
			<polygon class="st8" points="255.1,192.8 263.8,202 258.2,207.4 249.7,197.3 			"/>
		</g>
		<path class="st7" d="M260.1,134.9h20.6c1.3,0,2.3-1,2.3-2.3v-27.1c0-1-0.6-1.8-1.5-2.2l-17.6-5.9c-1.4-0.5-2.9,0.5-3,2l-3,33.1
			C257.7,133.8,258.8,134.9,260.1,134.9z"/>
		<path class="st7" d="M223.6,133.6h30.5c1.2,0,2.2-1,2.2-2.2V92.7c0-1.2-1-2.2-2.2-2.2h-30.5c-1.2,0-2.2,1-2.2,2.2v38.7
			C221.4,132.6,222.4,133.6,223.6,133.6z"/>
		<path class="st8" d="M213.6,177.3l13.7-4.2l-10.6-34.4c-1.2-3.8-5.2-5.9-8.9-4.7l0,0c-3.8,1.2-5.9,5.2-4.7,8.9L213.6,177.3z"/>
		<path class="st9" d="M183.8,117.8l5.6-3.3c1.5-0.9,3.3,0.1,3.6,1.7l2.3,18h80.5c1.1,0,1.8,1.2,1.2,2.1l-6.9,12.3
			c-0.3,0.5-0.7,0.7-1.2,0.7h-76.2c-0.8,0-1.4-0.6-1.4-1.4v-5.5H190c-1.1,0-2-0.7-2.3-1.8l-4.9-20.2
			C182.4,119.4,182.9,118.4,183.8,117.8z"/>
		<path class="st8" d="M217.6,194.4l11.6-0.8l-1.1-16.4c-0.5-3.9-4.1-6.6-8-6.1l0,0c-3.9,0.5-6.6,4.1-6.1,8L217.6,194.4z"/>
		<g>
			<path class="st7" d="M265,193l14.3-0.9l-3.1-50.5c-0.2-3.9-3.6-6.9-7.6-6.7l0,0c-3.9,0.2-6.9,3.6-6.7,7.6L265,193z"/>
			<rect x="256" y="220.4" class="st7" width="35.2" height="1.5"/>
			<polygon class="st7" points="261.7,221.9 285.5,221.9 283.6,213.8 263.6,213.8 			"/>
			<polygon class="st7" points="266.7,206.7 279.3,206 279.9,213.8 266.7,213.8 			"/>
			<polygon class="st10" points="264.6,208 281.6,206.8 283.2,197.4 279.6,190.7 264.6,191.2 263.2,198.8 			"/>
		</g>
		<polygon class="st9" points="216.3,206.8 232.3,205.9 233.2,198.9 229.5,192.2 217.4,192.9 214.6,200 		"/>
		<rect x="206.9" y="220.4" class="st8" width="35.2" height="1.5"/>
		<polygon class="st8" points="212.6,221.9 236.4,221.9 234.5,213.8 214.6,213.8 		"/>
		<polygon class="st8" points="217.6,206.7 230.3,206 230.8,213.8 217.6,213.8 		"/>
		<g>
			<path class="st7" d="M210.3,192.3l-14.3-0.9l3.1-50.5c0.2-3.9,3.6-6.9,7.6-6.7l0,0c3.9,0.2,6.9,3.6,6.7,7.6L210.3,192.3z"/>
			<polygon class="st10" points="210,206.8 193.9,205.9 193,198.9 195.4,190.4 211.1,191.3 211.7,200 			"/>
			<rect x="184.1" y="220.4" class="st7" width="35.2" height="1.5"/>
			<polygon class="st7" points="213.7,221.9 189.8,221.9 191.8,213.8 211.7,213.8 			"/>
			<polygon class="st7" points="208.6,206.7 196,206 195.4,213.8 208.6,213.8 			"/>
		</g>
		<path class="st7" d="M190.2,133.6H217c1.2,0,2.1-1,2.1-2.1V95.6c0-1.4-1.4-2.5-2.8-2l-26.8,8.5c-0.9,0.3-1.5,1.1-1.5,2v27.3
			C188,132.6,189,133.6,190.2,133.6z"/>
		<path class="st8" d="M323.6,119.8c3.2,0,5.8,2.6,5.8,5.8c0,1.4-0.5,2.6-1.3,3.6h11.3v2.1h-15.8c-3.2,0-5.8-2.6-5.8-5.8
			C317.9,122.3,320.4,119.8,323.6,119.8z"/>
		<path class="st8" d="M279.9,131.4L279.9,131.4c0.7,0,1.2-0.5,1.2-1.2v-23.3c0-0.7-0.5-1.2-1.2-1.2l0,0c-0.7,0-1.2,0.5-1.2,1.2
			v23.3C278.7,130.9,279.2,131.4,279.9,131.4z"/>
		<path class="st8" d="M276.5,131.4L276.5,131.4c0.7,0,1.2-0.5,1.2-1.2v-23.3c0-0.7-0.5-1.2-1.2-1.2l0,0c-0.7,0-1.2,0.5-1.2,1.2
			v23.3C275.3,130.9,275.8,131.4,276.5,131.4z"/>
		<path class="st8" d="M251.7,130.1L251.7,130.1c0-0.7-0.5-1.2-1.2-1.2h-23.3c-0.7,0-1.2,0.5-1.2,1.2l0,0c0,0.7,0.5,1.2,1.2,1.2
			h23.3C251.2,131.2,251.7,130.7,251.7,130.1z"/>
		<path class="st8" d="M251.7,126.5L251.7,126.5c0-0.7-0.5-1.2-1.2-1.2h-23.3c-0.7,0-1.2,0.5-1.2,1.2l0,0c0,0.7,0.5,1.2,1.2,1.2
			h23.3C251.2,127.7,251.7,127.2,251.7,126.5z"/>
		<path class="st8" d="M251.7,122.8L251.7,122.8c0-0.7-0.5-1.2-1.2-1.2h-23.3c-0.7,0-1.2,0.5-1.2,1.2l0,0c0,0.7,0.5,1.2,1.2,1.2
			h23.3C251.2,124,251.7,123.5,251.7,122.8z"/>
		<path class="st8" d="M206.4,131.1h8.3c1.2,0,2.2-1,2.2-2.2v-12.7c0-1.2-1-2.2-2.2-2.2h-8.3c-1.2,0-2.2,1-2.2,2.2V129
			C204.2,130.2,205.2,131.1,206.4,131.1z"/>
	</g>
	<g>
		<polygon class="st11" points="0,146.9 0,212.6 2.1,215.1 9.7,208.6 14,213.2 8.4,207.2 14.2,199.1 23,196.3 20.5,154.5 
			17.2,146.9 		"/>
		<polygon class="st11" points="17.4,233.4 11.7,241.3 17.2,247.8 17,247.9 19.6,247.9 21.8,238.5 26.2,238.5 26.2,230.1 
			23.2,230.2 21.9,221.8 14.1,229.4 		"/>
		<path class="st7" d="M127.4,125.4v-0.7l-7.6-0.7l-0.1-2.9h-12.6c-4.6,0-8.2-3.7-8.2-8.2c0-4.6,3.7-8.2,8.2-8.2
			c4.5,0,8.2,3.7,8.2,8.2c0,2-0.7,3.7-1.8,5.1h6.2l0,0l5.4-1.7l-1.9-4.7l-7.7-5.6l-4.2-3.2l-40.9-7.4v3.2v20.7v8.1h9.4l2.8,5.6h9.8
			l0.7-3.5l4,3.6h12.6l3.5-3.4l14.2-1.1v-1h14.8v-2.1L127.4,125.4L127.4,125.4z"/>
		<rect x="49.3" y="98.9" class="st8" width="21.1" height="20.7"/>
		<path class="st8" d="M8.3,124.5H0v1h14.6c-0.7-0.7-1-1.6-1-2.6l3.7-41.5h-5.9v40C11.5,123.1,10,124.5,8.3,124.5z"/>
		<path class="st8" d="M48.4,125.4L48.4,125.4L48.4,125.4L48.4,125.4z"/>
		<polygon class="st8" points="20.5,154.5 20.1,146.9 17.2,146.9 		"/>
		<path class="st8" d="M52.3,180.1L52.3,180.1c-0.4-0.4-0.7-0.7-1.1-1l1.8-0.8l-12.4-28.7l1.7,27.8l0.3,5.4l1.2,20.1l8.5-8.5
			C56.2,190.5,56.2,184.1,52.3,180.1z"/>
		<polygon class="st9" points="21.2,217.1 23.2,206.4 23.7,206.3 23,196.3 14.2,199.1 8.4,207.2 14,213.2 21.9,221.5 		"/>
		<path class="st8" d="M0,230.6l1.3,1.5L0,230.6z"/>
		<polygon class="st8" points="14.1,229.4 21.9,221.8 21.9,221.5 14,213.2 9.7,208.6 2.1,215.1 0,212.6 0,227.3 0,230.6 1.3,232.1 
			14.6,247.9 17,247.9 17.2,247.8 11.7,241.3 17.4,233.4 		"/>
		<path class="st8" d="M21.9,221.5l-7.9-8.3L21.9,221.5z"/>
		<path class="st7" d="M40.7,126.4h5.4c0.9,0,1.7-0.4,2.3-1H39C39.8,125.4,40.4,125.8,40.7,126.4z"/>
		<path class="st7" d="M48.4,125.4c0.6-0.6,1-1.4,1-2.3v-3.7h-1V125.4z"/>
		<path class="st7" d="M48.4,82.3c-0.4-0.4-0.8-0.7-1.2-0.8l-0.6-0.2l-24.6-8.2c-2-0.7-4,0.7-4.3,2.8l-0.5,5.5l-3.7,41.5
			c-0.1,1,0.3,1.9,1,2.6h7c1.2-0.2,2.4-0.2,3.5,0h14h9.4l0,0v-5.9h1V98.9V84.6C49.3,83.7,49,82.9,48.4,82.3z M41.8,119.7
			c0,1-0.7,1.7-1.7,1.7c-1,0-1.7-0.7-1.7-1.7V86.5c0-1,0.7-1.7,1.7-1.7c1,0,1.7,0.7,1.7,1.7V119.7z M46.6,98.9v20.7v0.2
			c0,1-0.7,1.7-1.7,1.7c-1,0-1.7-0.7-1.7-1.7V86.5c0-1,0.7-1.7,1.7-1.7c1,0,1.7,0.7,1.7,1.7V98.9z"/>
		<path class="st7" d="M21.5,125.4H25C23.9,125.2,22.7,125.2,21.5,125.4z"/>
		<path class="st9" d="M28.4,126.4h-0.7c0.1,0,0.1,0.1,0.1,0.1C28.2,126.4,28.3,126.4,28.4,126.4z"/>
		<path class="st9" d="M40.7,126.4c-0.4-0.5-1-1-1.7-1h-14h-3.5h-7H0v21.5h17.2H20l-0.6-9.9c-0.3-5.2,3.5-9.8,8.5-10.6
			c-0.1,0-0.1-0.1-0.1-0.1h0.7c0.1,0,0.3-0.1,0.5-0.1l0,0c0.6,0,1.2,0,1.8,0.1c3.5,0.4,6.5,2.6,8,5.7l2.1-3.6
			C41.2,127.7,41.1,126.9,40.7,126.4z"/>
		<path class="st7" d="M43.7,203l-1.2-20.1l-0.3-5.4l-1.7-27.8l-0.9-13.9c-0.1-1.3-0.4-2.6-1-3.7c-1.5-3.1-4.5-5.3-8-5.7h-2.3
			c-0.1,0-0.4,0-0.5,0.1c-5.1,0.8-8.8,5.4-8.5,10.7L20,147l0.4,7.6l2.5,41.8l0.6,10.1l10.6-0.3l1.8-0.1l4.9-0.1l3-0.1V203z"/>
		<path class="st7" d="M29,126.3L29,126.3c-0.1,0-0.3,0.1-0.5,0.1h2.3C30.1,126.3,29.6,126.3,29,126.3z"/>
		<polygon class="st7" points="52.5,247.9 50.1,238.5 45,238.5 26.2,238.5 21.8,238.5 19.6,247.9 17,247.9 14.6,247.9 11,247.9 
			11,250 19,250 52.9,250 61,250 61,247.9 		"/>
		<polygon class="st7" points="26.2,238.5 45,238.5 44.3,228.8 26.2,230.1 		"/>
		<polygon class="st10" points="38.4,208.3 38.7,208 38.1,208 		"/>
		<polygon class="st10" points="21.9,221.8 22.1,221.7 21.9,221.5 		"/>
		<polygon class="st10" points="21.8,221.6 22.1,221.6 22.1,221.6 		"/>
		<path class="st10" d="M44.5,205.7H44l-3,0.1l-4.9,0.1l-1.8,0.1l-10.6,0.3h-0.5l-1.9,10.7l0.7,4.3l0.1,0.1l-0.1,0.1l1.2,8.5l3-0.2
			l18-1.2l3.1-0.2l2.4-13.4L44.5,205.7z M38.7,208l-0.4,0.4l-0.3-0.3L38.7,208z"/>
		<path class="st8" d="M119.8,118.2h-6.2c1.2-1.4,1.8-3.2,1.8-5.1c0-4.6-3.7-8.2-8.2-8.2S99,108.6,99,113c0,4.6,3.7,8.2,8.2,8.2
			h12.6h9.7v-3H119.8z"/>
		<path class="st8" d="M44.9,84.9c-1,0-1.7,0.7-1.7,1.7v33.2c0,1,0.7,1.7,1.7,1.7s1.7-0.7,1.7-1.7v-0.2V98.9V86.5
			C46.6,85.6,45.9,84.9,44.9,84.9z"/>
		<path class="st8" d="M40.1,84.9c-1,0-1.7,0.7-1.7,1.7v33.2c0,1,0.7,1.7,1.7,1.7c1,0,1.7-0.7,1.7-1.7V86.5
			C41.8,85.6,41,84.9,40.1,84.9z"/>
		<path class="st8" d="M3.2,121.1c1,0,1.7-0.7,1.7-1.7s-0.7-1.7-1.7-1.7H0v3.4C0,121.1,3.2,121.1,3.2,121.1z"/>
		<path class="st8" d="M3.2,116.1c1,0,1.7-0.7,1.7-1.7l0,0c0-1-0.7-1.7-1.7-1.7H0v3.4H3.2z"/>
		<path class="st8" d="M3.2,110.8c1,0,1.7-0.7,1.7-1.7s-0.7-1.7-1.7-1.7H0v3.4H3.2z"/>
	</g>
	<path class="st7" d="M11.4,66.2H0v15.1v26.2h3.2c1,0,1.7,0.7,1.7,1.7s-0.7,1.7-1.7,1.7H0v1.9h3.2c1,0,1.7,0.7,1.7,1.7l0,0
		c0,1-0.7,1.7-1.7,1.7H0v1.7h3.2c1,0,1.7,0.7,1.7,1.7s-0.7,1.7-1.7,1.7H0v3.3h8.3c1.8,0,3.2-1.4,3.2-3.2V81.4v-15
		C11.5,66.4,11.4,66.3,11.4,66.2z"/>
</g>
<g id="Layer_2_1_">
	<g>
		<path class="st12" d="M658.6,176.1h-5.2l-3.3,2l7.9,5.5l17.7-2.9l2-1.4L658.6,176.1z M657.5,180.4l-3.9-2.6l0.5-0.9h3.4V180.4z
			 M659.4,180.4l-0.3-3.2l13,2.3L659.4,180.4z"/>
		<g>
			<g>
				<polygon class="st13" points="640.1,187.1 618.7,187.1 616.9,176 635.5,176 				"/>
				<rect x="618.5" y="174.5" class="st14" width="15.2" height="1.6"/>
				<path class="st15" d="M685.9,172.5h-19.7c-0.3,0-0.6,0.3-0.6,0.6v0.1c0,0.3,0.3,0.6,0.6,0.6h19.7c0.3,0,0.6-0.3,0.6-0.6v-0.1
					C686.5,172.8,686.2,172.5,685.9,172.5z"/>
				<path class="st13" d="M666.7,172.1h-46.8c-0.6,0-1.1,0.5-1.1,1.1l0,0c0,0.6,0.5,1.1,1.1,1.1h46.8c0.6,0,1.1-0.5,1.1-1.1l0,0
					C667.8,172.6,667.3,172.1,666.7,172.1z"/>
				<path class="st14" d="M643.9,171.1h-29.4c-0.5,0-0.9,0.4-0.9,0.9v2.4c0,0.5,0.4,0.9,0.9,0.9h29.4c0.5,0,0.9-0.4,0.9-0.9V172
					C644.8,171.5,644.4,171.1,643.9,171.1z"/>
			</g>
			<g>
				<polygon class="st13" points="640.1,187.1 618.7,187.1 616.9,198.1 635.5,198.1 				"/>
				<rect x="618.5" y="198.1" class="st14" width="15.2" height="1.6"/>
				<path class="st15" d="M685.9,201.6h-19.7c-0.3,0-0.6-0.3-0.6-0.6v-0.1c0-0.3,0.3-0.6,0.6-0.6h19.7c0.3,0,0.6,0.3,0.6,0.6v0.1
					C686.5,201.4,686.2,201.6,685.9,201.6z"/>
				<path class="st13" d="M666.7,202h-46.8c-0.6,0-1.1-0.5-1.1-1.1l0,0c0-0.6,0.5-1.1,1.1-1.1h46.8c0.6,0,1.1,0.5,1.1,1.1l0,0
					C667.8,201.5,667.3,202,666.7,202z"/>
				<path class="st14" d="M643.9,203h-29.4c-0.5,0-0.9-0.4-0.9-0.9v-2.4c0-0.5,0.4-0.9,0.9-0.9h29.4c0.5,0,0.9,0.4,0.9,0.9v2.4
					C644.8,202.6,644.4,203,643.9,203z"/>
			</g>
		</g>
		<path class="st16" d="M613.7,182.9H593c-1.2,0-2.2-1-2.2-2.2v-2.5c0-1.2,1-2.2,2.2-2.2h20.7c1.2,0,2.2,1,2.2,2.2v2.5
			C615.9,182,614.9,182.9,613.7,182.9z"/>
		<path class="st16" d="M613.7,194.6H593c-1.2,0-2.2-1-2.2-2.2v-2.5c0-1.2,1-2.2,2.2-2.2h20.7c1.2,0,2.2,1,2.2,2.2v2.5
			C615.9,193.6,614.9,194.6,613.7,194.6z"/>
		<path class="st15" d="M719,182.3l-41.3-2.9l-18.6,3.1l-8.5-5.3l-9.9-4.2H610l-1.3,9.6c-0.5,3.9-0.4,7.8,0.3,11.7l0.7,3.8
			c0.2,0.9,1.1,1.6,2,1.4l28.9-4.2l18.6-4h21.4l42.8-2.2L719,182.3z"/>
		<g>
			<g>
				<defs>
					<polygon id="SVGID_2_" points="605.6,192.6 657.5,185.9 718.9,187.7 717.3,191.6 652.4,195.2 608.3,203 					"/>
				</defs>
				<clipPath id="SVGID_3_">
					<use xlink:href="#SVGID_2_"  style="overflow:visible;"/>
				</clipPath>
				<path class="st17" d="M719,182.3l-41.3-2.9l-18.6,3.1l-8.5-5.3l-9.9-4.2H610l-1.3,9.6c-0.5,3.9-0.4,7.8,0.3,11.7l0.7,3.8
					c0.2,0.9,1.1,1.6,2,1.4l28.9-4.2l18.6-4h21.4l42.8-2.2L719,182.3z"/>
			</g>
		</g>
		<polygon class="st18" points="720.9,188.2 705.3,188.2 706.4,185.9 721.8,185.9 		"/>
		<path class="st19" d="M714.6,189.4l2.4-1.3l0.9-6.4c0.1-0.2,0.2-0.3,0.4-0.3c1.7,0.2,9.7,1.1,14.5,4.6c0,0-3.1,3.6-17.8,3.9
			C714.7,190,714.5,189.7,714.6,189.4z"/>
		<g>
			<polygon class="st13" points="636.5,187.7 612.4,190.7 610.6,203.7 630.9,203.7 			"/>
			<rect x="612.4" y="203.7" class="st14" width="16.7" height="2.1"/>
			<path class="st15" d="M686.1,208.4h-21.5c-0.4,0-0.7-0.3-0.7-0.7v-0.3c0-0.4,0.3-0.7,0.7-0.7h21.5c0.4,0,0.7,0.3,0.7,0.7v0.3
				C686.8,208.1,686.5,208.4,686.1,208.4z"/>
			<path class="st13" d="M664.9,208.9H614c-0.8,0-1.4-0.6-1.4-1.4l0,0c0-0.8,0.6-1.4,1.4-1.4h50.9c0.8,0,1.4,0.6,1.4,1.4l0,0
				C666.3,208.3,665.7,208.9,664.9,208.9z"/>
			<path class="st14" d="M640.1,210.3h-32c-0.6,0-1-0.5-1-1v-3.4c0-0.6,0.5-1,1-1h32c0.6,0,1,0.5,1,1v3.4
				C641.2,209.8,640.7,210.3,640.1,210.3z"/>
		</g>
		<g>
			<polygon class="st13" points="636,176.9 612.6,176.9 610.6,164.8 630.9,164.8 			"/>
			<rect x="612.4" y="163.1" class="st14" width="16.7" height="1.7"/>
			<path class="st15" d="M686.2,161h-21.6c-0.4,0-0.7,0.3-0.7,0.7v0.1c0,0.4,0.3,0.7,0.7,0.7h21.6c0.4,0,0.7-0.3,0.7-0.7v-0.1
				C686.8,161.3,686.5,161,686.2,161z"/>
			<path class="st13" d="M665.2,160.5h-51.3c-0.6,0-1.2,0.5-1.2,1.2l0,0c0,0.6,0.5,1.2,1.2,1.2h51.3c0.6,0,1.2-0.5,1.2-1.2l0,0
				C666.3,161.1,665.8,160.5,665.2,160.5z"/>
			<path class="st14" d="M640.2,159.4H608c-0.5,0-0.9,0.4-0.9,0.9v2.7c0,0.5,0.4,0.9,0.9,0.9h32.2c0.5,0,0.9-0.4,0.9-0.9v-2.7
				C641.2,159.8,640.7,159.4,640.2,159.4z"/>
		</g>
		<polygon class="st20" points="695.1,187.7 675.4,187.7 676.8,184 696.2,184 		"/>
		<path class="st12" d="M648.6,179.8h-35.7c-0.3,0-0.5-0.2-0.5-0.5l0,0c0-0.3,0.2-0.5,0.5-0.5h35.7c0.3,0,0.5,0.2,0.5,0.5l0,0
			C649.1,179.6,648.8,179.8,648.6,179.8z"/>
		<path class="st12" d="M639.6,181.6h-26.7c-0.3,0-0.5-0.2-0.5-0.5l0,0c0-0.3,0.2-0.5,0.5-0.5h26.7c0.3,0,0.5,0.2,0.5,0.5l0,0
			C640.1,181.3,639.9,181.6,639.6,181.6z"/>
		<path class="st12" d="M630.2,183.2h-17.4c-0.3,0-0.5-0.2-0.5-0.5l0,0c0-0.3,0.2-0.5,0.5-0.5h17.4c0.3,0,0.5,0.2,0.5,0.5l0,0
			C630.7,183,630.5,183.2,630.2,183.2z"/>
	</g>
	<g>
		<path class="st12" d="M305.1,68.9h-2.4l-1.5,0.9l3.7,2.6l8.3-1.3l0.9-0.6L305.1,68.9z M304.6,70.9l-1.8-1.2l0.3-0.4h1.6v1.6H304.6
			z M305.5,70.9l-0.1-1.5l6.1,1.1L305.5,70.9z"/>
		<g>
			<g>
				<polygon class="st13" points="296.4,74 286.4,74 285.6,68.9 294.2,68.9 				"/>
				<rect x="286.3" y="68.1" class="st14" width="7.1" height="0.7"/>
				<path class="st15" d="M317.9,67.2h-9.3c-0.2,0-0.3,0.1-0.3,0.3v0.1c0,0.2,0.1,0.3,0.3,0.3h9.3c0.2,0,0.3-0.1,0.3-0.3v-0.1
					C318.2,67.3,318.1,67.2,317.9,67.2z"/>
				<path class="st13" d="M308.9,67h-22c-0.3,0-0.5,0.2-0.5,0.5l0,0c0,0.3,0.2,0.5,0.5,0.5h22c0.3,0,0.5-0.2,0.5-0.5l0,0
					C309.4,67.3,309.2,67,308.9,67z"/>
				<path class="st14" d="M298.2,66.6h-13.8c-0.2,0-0.4,0.2-0.4,0.4v1.1c0,0.2,0.2,0.4,0.4,0.4h13.8c0.2,0,0.4-0.2,0.4-0.4V67
					C298.6,66.7,298.5,66.6,298.2,66.6z"/>
			</g>
			<g>
				<polygon class="st13" points="296.4,74 286.4,74 285.6,79.2 294.2,79.2 				"/>
				<rect x="286.3" y="79.2" class="st14" width="7.1" height="0.7"/>
				<path class="st15" d="M317.9,80.9h-9.3c-0.2,0-0.3-0.1-0.3-0.3v-0.1c0-0.2,0.1-0.3,0.3-0.3h9.3c0.2,0,0.3,0.1,0.3,0.3v0.1
					C318.2,80.8,318.1,80.9,317.9,80.9z"/>
				<path class="st13" d="M308.9,81.1h-22c-0.3,0-0.5-0.2-0.5-0.5l0,0c0-0.3,0.2-0.5,0.5-0.5h22c0.3,0,0.5,0.2,0.5,0.5l0,0
					C309.4,80.8,309.2,81.1,308.9,81.1z"/>
				<path class="st14" d="M298.2,81.5h-13.8c-0.2,0-0.4-0.2-0.4-0.4V80c0-0.2,0.2-0.4,0.4-0.4h13.8c0.2,0,0.4,0.2,0.4,0.4v1.1
					C298.6,81.4,298.5,81.5,298.2,81.5z"/>
			</g>
		</g>
		<path class="st16" d="M284,72.1h-9.7c-0.6,0-1-0.5-1-1v-1.2c0-0.6,0.5-1,1-1h9.7c0.6,0,1,0.5,1,1v1.2
			C285.1,71.6,284.6,72.1,284,72.1z"/>
		<path class="st16" d="M284,77.6h-9.7c-0.6,0-1-0.5-1-1v-1.2c0-0.6,0.5-1,1-1h9.7c0.6,0,1,0.5,1,1v1.2
			C285.1,77.1,284.6,77.6,284,77.6z"/>
		<path class="st15" d="M333.5,71.8l-19.4-1.4l-8.8,1.4l-4-2.5l-4.6-2h-14.4l-0.6,4.5c-0.3,1.8-0.2,3.7,0.1,5.5l0.3,1.8
			c0.1,0.4,0.5,0.7,0.9,0.7l13.6-2l8.7-1.9h10l20.1-1L333.5,71.8z"/>
		<g>
			<g>
				<defs>
					<polygon id="SVGID_4_" points="280.2,76.6 304.6,73.5 333.5,74.4 332.7,76.2 302.2,77.9 281.5,81.5 					"/>
				</defs>
				<clipPath id="SVGID_5_">
					<use xlink:href="#SVGID_4_"  style="overflow:visible;"/>
				</clipPath>
				<path class="st21" d="M333.5,71.8l-19.4-1.4l-8.8,1.4l-4-2.5l-4.6-2h-14.4l-0.6,4.5c-0.3,1.8-0.2,3.7,0.1,5.5l0.3,1.8
					c0.1,0.4,0.5,0.7,0.9,0.7l13.6-2l8.7-1.9h10l20.1-1L333.5,71.8z"/>
			</g>
		</g>
		<polygon class="st18" points="334.4,74.6 327.1,74.6 327.6,73.5 334.8,73.5 		"/>
		<path class="st19" d="M331.4,75.2l1.1-0.6l0.4-3c0-0.1,0.1-0.1,0.2-0.1c0.8,0.1,4.6,0.5,6.8,2.2c0,0-1.5,1.7-8.3,1.8
			C331.5,75.4,331.4,75.3,331.4,75.2z"/>
		<g>
			<polygon class="st13" points="294.7,74.4 283.4,75.7 282.6,81.9 292.1,81.9 			"/>
			<rect x="283.4" y="81.9" class="st14" width="7.8" height="1"/>
			<path class="st15" d="M318,84.1h-10c-0.2,0-0.3-0.2-0.3-0.3v-0.1c0-0.2,0.2-0.3,0.3-0.3h10c0.2,0,0.3,0.2,0.3,0.3v0.1
				C318.4,83.9,318.2,84.1,318,84.1z"/>
			<path class="st13" d="M308.1,84.3h-23.9c-0.4,0-0.7-0.3-0.7-0.7l0,0c0-0.4,0.3-0.7,0.7-0.7h23.9c0.4,0,0.7,0.3,0.7,0.7l0,0
				C308.8,84,308.5,84.3,308.1,84.3z"/>
			<path class="st14" d="M296.4,84.9h-15c-0.3,0-0.5-0.2-0.5-0.5v-1.6c0-0.3,0.2-0.5,0.5-0.5h15c0.3,0,0.5,0.2,0.5,0.5v1.6
				C296.9,84.7,296.7,84.9,296.4,84.9z"/>
		</g>
		<g>
			<polygon class="st13" points="294.5,69.3 283.5,69.3 282.6,63.6 292.1,63.6 			"/>
			<rect x="283.4" y="62.8" class="st14" width="7.8" height="0.8"/>
			<path class="st15" d="M318.1,61.8H308c-0.2,0-0.3,0.1-0.3,0.3v0.1c0,0.2,0.1,0.3,0.3,0.3h10.1c0.2,0,0.3-0.1,0.3-0.3v-0.1
				C318.4,61.9,318.2,61.8,318.1,61.8z"/>
			<path class="st13" d="M308.2,61.6h-24.1c-0.3,0-0.5,0.2-0.5,0.5l0,0c0,0.3,0.2,0.5,0.5,0.5h24.1c0.3,0,0.5-0.2,0.5-0.5l0,0
				C308.8,61.8,308.5,61.6,308.2,61.6z"/>
			<path class="st14" d="M296.5,61.1h-15.1c-0.2,0-0.4,0.2-0.4,0.4v1.3c0,0.2,0.2,0.4,0.4,0.4h15.1c0.2,0,0.4-0.2,0.4-0.4v-1.3
				C296.9,61.3,296.7,61.1,296.5,61.1z"/>
		</g>
		<polygon class="st18" points="322.3,74.4 313,74.4 313.7,72.6 322.8,72.6 		"/>
		<path class="st12" d="M300.4,70.6h-16.8c-0.1,0-0.2-0.1-0.2-0.2l0,0c0-0.1,0.1-0.2,0.2-0.2h16.8c0.1,0,0.2,0.1,0.2,0.2l0,0
			C300.6,70.5,300.5,70.6,300.4,70.6z"/>
		<path class="st12" d="M296.2,71.5h-12.5c-0.1,0-0.2-0.1-0.2-0.2l0,0c0-0.1,0.1-0.2,0.2-0.2h12.5c0.1,0,0.2,0.1,0.2,0.2l0,0
			C296.4,71.4,296.3,71.5,296.2,71.5z"/>
		<path class="st12" d="M291.8,72.2h-8.2c-0.1,0-0.2-0.1-0.2-0.2l0,0c0-0.1,0.1-0.2,0.2-0.2h8.2c0.1,0,0.2,0.1,0.2,0.2l0,0
			C292,72.1,291.9,72.2,291.8,72.2z"/>
	</g>
	<g>
		<path class="st12" d="M126.3,146.9h-2.2l-1.4,0.8l3.4,2.3l7.5-1.2l0.8-0.6L126.3,146.9z M125.8,148.7l-1.7-1.1l0.2-0.4h1.4
			L125.8,148.7L125.8,148.7z M126.6,148.7l-0.1-1.3l5.5,1L126.6,148.7z"/>
		<g>
			<g>
				<polygon class="st13" points="118.5,151.5 109.5,151.5 108.7,146.8 116.5,146.8 				"/>
				<rect x="109.4" y="146.2" class="st14" width="6.4" height="0.7"/>
				<path class="st15" d="M137.8,145.4h-8.3c-0.1,0-0.3,0.1-0.3,0.3v0.1c0,0.1,0.1,0.3,0.3,0.3h8.3c0.1,0,0.3-0.1,0.3-0.3v-0.1
					C138,145.5,137.9,145.4,137.8,145.4z"/>
				<path class="st13" d="M129.7,145.2h-19.8c-0.2,0-0.4,0.2-0.4,0.4l0,0c0,0.2,0.2,0.4,0.4,0.4h19.8c0.2,0,0.4-0.2,0.4-0.4l0,0
					C130.1,145.4,129.9,145.2,129.7,145.2z"/>
				<path class="st14" d="M120.1,144.8h-12.4c-0.2,0-0.4,0.2-0.4,0.4v1c0,0.2,0.2,0.4,0.4,0.4h12.4c0.2,0,0.4-0.2,0.4-0.4v-1
					C120.5,144.9,120.3,144.8,120.1,144.8z"/>
			</g>
			<g>
				<polygon class="st13" points="118.5,151.5 109.5,151.5 108.7,156.2 116.5,156.2 				"/>
				<rect x="109.4" y="156.2" class="st14" width="6.4" height="0.7"/>
				<path class="st15" d="M137.8,157.6h-8.3c-0.1,0-0.3-0.1-0.3-0.3v-0.1c0-0.1,0.1-0.3,0.3-0.3h8.3c0.1,0,0.3,0.1,0.3,0.3v0.1
					C138,157.5,137.9,157.6,137.8,157.6z"/>
				<path class="st13" d="M129.7,157.8h-19.8c-0.2,0-0.4-0.2-0.4-0.4l0,0c0-0.2,0.2-0.4,0.4-0.4h19.8c0.2,0,0.4,0.2,0.4,0.4l0,0
					C130.1,157.6,129.9,157.8,129.7,157.8z"/>
				<path class="st14" d="M120.1,158.2h-12.4c-0.2,0-0.4-0.2-0.4-0.4v-1c0-0.2,0.2-0.4,0.4-0.4h12.4c0.2,0,0.4,0.2,0.4,0.4v1
					C120.5,158.1,120.3,158.2,120.1,158.2z"/>
			</g>
		</g>
		<path class="st16" d="M107.3,149.8h-8.7c-0.5,0-0.9-0.4-0.9-0.9v-1.1c0-0.5,0.4-0.9,0.9-0.9h8.7c0.5,0,0.9,0.4,0.9,0.9v1.1
			C108.3,149.3,107.8,149.8,107.3,149.8z"/>
		<path class="st16" d="M107.3,154.7h-8.7c-0.5,0-0.9-0.4-0.9-0.9v-1.1c0-0.5,0.4-0.9,0.9-0.9h8.7c0.5,0,0.9,0.4,0.9,0.9v1.1
			C108.3,154.3,107.8,154.7,107.3,154.7z"/>
		<path class="st15" d="M151.8,149.5l-17.4-1.2l-7.9,1.3l-3.6-2.2l-4.2-1.8h-13l-0.6,4.1c-0.2,1.6-0.2,3.3,0.1,4.9l0.3,1.6
			c0.1,0.4,0.4,0.7,0.8,0.6l12.2-1.8l7.8-1.7h9l18.1-0.9L151.8,149.5z"/>
		<g>
			<g>
				<defs>
					<polygon id="SVGID_6_" points="103.9,153.8 125.8,151 151.7,151.8 151,153.4 123.6,154.9 105.1,158.2 					"/>
				</defs>
				<clipPath id="SVGID_7_">
					<use xlink:href="#SVGID_6_"  style="overflow:visible;"/>
				</clipPath>
				<path class="st22" d="M151.8,149.5l-17.4-1.2l-7.9,1.3l-3.6-2.2l-4.2-1.8h-13l-0.6,4.1c-0.2,1.6-0.2,3.3,0.1,4.9l0.3,1.6
					c0.1,0.4,0.4,0.7,0.8,0.6l12.2-1.8l7.8-1.7h9l18.1-0.9L151.8,149.5z"/>
			</g>
		</g>
		<polygon class="st18" points="152.6,152 146,152 146.5,151 153,151 		"/>
		<path class="st19" d="M149.9,152.5l1-0.5l0.4-2.7c0-0.1,0.1-0.1,0.2-0.1c0.7,0.1,4.1,0.5,6.1,2c0,0-1.3,1.5-7.5,1.6
			C150,152.8,149.9,152.6,149.9,152.5z"/>
		<g>
			<polygon class="st13" points="116.9,151.8 106.8,153 106,158.5 114.6,158.5 			"/>
			<rect x="106.8" y="158.5" class="st14" width="7" height="0.9"/>
			<path class="st15" d="M137.9,160.5h-9.1c-0.2,0-0.3-0.1-0.3-0.3v-0.1c0-0.2,0.1-0.3,0.3-0.3h9.1c0.2,0,0.3,0.1,0.3,0.3v0.1
				C138.2,160.4,138.1,160.5,137.9,160.5z"/>
			<path class="st13" d="M129,160.7h-21.5c-0.3,0-0.6-0.3-0.6-0.6l0,0c0-0.3,0.3-0.6,0.6-0.6H129c0.3,0,0.6,0.3,0.6,0.6l0,0
				C129.5,160.5,129.3,160.7,129,160.7z"/>
			<path class="st14" d="M118.5,161.3H105c-0.2,0-0.4-0.2-0.4-0.4v-1.4c0-0.2,0.2-0.4,0.4-0.4h13.5c0.2,0,0.4,0.2,0.4,0.4v1.4
				C118.9,161.1,118.7,161.3,118.5,161.3z"/>
		</g>
		<g>
			<polygon class="st13" points="116.7,147.2 106.9,147.2 106,142.1 114.6,142.1 			"/>
			<rect x="106.8" y="141.4" class="st14" width="7" height="0.7"/>
			<path class="st15" d="M137.9,140.5h-9.1c-0.2,0-0.3,0.1-0.3,0.3v0.1c0,0.2,0.1,0.3,0.3,0.3h9.1c0.2,0,0.3-0.1,0.3-0.3v-0.1
				C138.2,140.6,138.1,140.5,137.9,140.5z"/>
			<path class="st13" d="M129.1,140.3h-21.7c-0.3,0-0.5,0.2-0.5,0.5l0,0c0,0.3,0.2,0.5,0.5,0.5h21.7c0.3,0,0.5-0.2,0.5-0.5l0,0
				C129.5,140.5,129.3,140.3,129.1,140.3z"/>
			<path class="st14" d="M118.5,139.8h-13.6c-0.2,0-0.4,0.2-0.4,0.4v1.1c0,0.2,0.2,0.4,0.4,0.4h13.6c0.2,0,0.4-0.2,0.4-0.4v-1.1
				C118.9,140,118.7,139.8,118.5,139.8z"/>
		</g>
		<polygon class="st18" points="141.7,151.8 133.4,151.8 133.9,150.2 142.1,150.2 		"/>
		<path class="st12" d="M122,148.4h-15c-0.1,0-0.2-0.1-0.2-0.2l0,0c0-0.1,0.1-0.2,0.2-0.2h15c0.1,0,0.2,0.1,0.2,0.2l0,0
			C122.3,148.4,122.2,148.4,122,148.4z"/>
		<path class="st12" d="M118.3,149.2H107c-0.1,0-0.2-0.1-0.2-0.2l0,0c0-0.1,0.1-0.2,0.2-0.2h11.3c0.1,0,0.2,0.1,0.2,0.2l0,0
			C118.5,149.1,118.4,149.2,118.3,149.2z"/>
		<path class="st12" d="M114.3,149.9H107c-0.1,0-0.2-0.1-0.2-0.2l0,0c0-0.1,0.1-0.2,0.2-0.2h7.3c0.1,0,0.2,0.1,0.2,0.2l0,0
			C114.5,149.8,114.4,149.9,114.3,149.9z"/>
	</g>
</g>
<g id="Layer_3_1_" class="st4">
	<line class="st23" x1="261.2" y1="1052.1" x2="398.4" y2="1042.5"/>
</g>
</svg>
