<?xml version="1.0" encoding="utf-8"?>
<!-- Generator: Adobe Illustrator 25.0.1, SVG Export Plug-In . SVG Version: 6.00 Build 0)  -->
<svg version="1.1" id="Layer_1" xmlns="http://www.w3.org/2000/svg" xmlns:xlink="http://www.w3.org/1999/xlink" x="0px" y="0px"
	 viewBox="0 0 800 250" style="enable-background:new 0 0 800 250;" xml:space="preserve">
<style type="text/css">
	.st0{fill:#222222;}
	.st1{opacity:0.8;fill:#FFFFFF;enable-background:new    ;}
	.st2{fill:#444444;}
	.st3{fill:#FFFFFF;}
	.st4{fill:#FF0000;}
	.st5{fill:#3B3B3B;}
	.st6{fill:#666666;}
	.st7{fill:#333333;}
	.st8{fill:#232323;}
	.st9{fill:#4F4F4F;}
	.st10{fill:none;}
	.st11{fill:#3F3F3F;}
	.st12{fill:#BFBAB6;}
	.st13{fill:#A39F9B;}
	.st14{fill:#E2DBD5;}
	.st15{fill:#918C88;}
	.st16{clip-path:url(#SVGID_2_);fill:#918C88;}
	.st17{fill:#D1651C;}
	.st18{fill:#C4B5A9;}
	.st19{clip-path:url(#SVGID_4_);fill:#918C88;}
	.st20{clip-path:url(#SVGID_6_);fill:#918C88;}
	.st21{opacity:0.47;fill:url(#SVGID_7_);enable-background:new    ;}
</style>
<g id="Layer_1_1_">
	<rect class="st0" width="800" height="250"/>
</g>
<g id="Layer_7">
	<circle class="st1" cx="579.5" cy="72.5" r="3.5"/>
	<circle class="st1" cx="694.5" cy="30.5" r="3.5"/>
	<circle class="st1" cx="464.5" cy="34.5" r="3.5"/>
	<circle class="st1" cx="727.5" cy="125.5" r="3.5"/>
	<circle class="st1" cx="486.5" cy="130.5" r="3.5"/>
	<circle class="st1" cx="201.5" cy="20.5" r="3.5"/>
	<circle class="st1" cx="83.5" cy="34.5" r="3.5"/>
	<circle class="st1" cx="29.5" cy="98.5" r="3.5"/>
	<path class="st2" d="M565.5,231.1L565.5,231.1c-2.9,0-5.2-2.3-5.2-5.2V31.3c0-2.9,2.3-5.2,5.2-5.2l0,0c2.9,0,5.2,2.3,5.2,5.2v194.6
		C570.7,228.8,568.4,231.1,565.5,231.1z"/>
	<g>
		<g>
			<rect x="570.7" y="36.3" class="st3" width="33.7" height="33.7"/>
			<rect x="570.7" y="70" width="33.7" height="33.7"/>
			<rect x="604.5" y="70.1" class="st3" width="33.7" height="33.7"/>
			<rect x="604.5" y="36.3" width="33.7" height="33.7"/>
			<rect x="638.2" y="36.3" class="st3" width="33.7" height="33.7"/>
			<rect x="638.2" y="70" width="33.7" height="33.7"/>
			<rect x="672" y="70.1" class="st3" width="33.7" height="33.7"/>
			<rect x="672" y="36.3" width="33.7" height="33.7"/>
			<rect x="705.7" y="36.3" class="st3" width="33.7" height="33.7"/>
			<rect x="705.7" y="70" width="33.7" height="33.7"/>
			<rect x="739.5" y="70.1" class="st3" width="33.7" height="33.7"/>
			<rect x="739.5" y="36.3" width="33.7" height="33.7"/>
		</g>
		<g>
			<g>
				<g>
					<path class="st4" d="M620,84.1c-0.5,0-1.1,0-1.9-0.1c-0.8-0.1-1.6-0.2-2.4-0.4c-0.9-0.2-1.8-0.4-2.6-0.7
						c-0.9-0.3-1.7-0.6-2.5-1s-1.5-0.9-2-1.4c-0.6-0.7-0.9-1.4-0.9-2.3s0.3-1.7,1-2.4c0.7-0.7,1.5-1.1,2.4-1.1
						c0.6,0,1.1,0.1,1.6,0.4c0.6,0.3,1.2,0.6,1.8,0.9c0.6,0.2,1.2,0.4,1.8,0.6s1.2,0.3,1.8,0.4s1.3,0.1,2,0.1c0.4,0,1,0,1.6-0.1
						s1.1-0.2,1.6-0.3c0.5-0.2,0.8-0.4,1.2-0.7c0.1-0.1,0.3-0.3,0.3-0.8c0-0.3-0.1-0.7-0.7-1c-0.7-0.4-1.6-0.8-2.7-1.1
						c-1.1-0.4-2.4-0.7-3.7-1.1c-1.4-0.4-2.8-0.9-4-1.6c-1.3-0.7-2.3-1.6-3.2-2.7c-0.9-1.2-1.4-2.7-1.4-4.6c0-1.6,0.4-3,1.2-4.1
						c0.7-1.1,1.7-1.9,2.9-2.5c1.1-0.6,2.3-1,3.7-1.2c1.3-0.2,2.6-0.3,3.8-0.3c0.6,0,1.3,0,2.1,0.1s1.6,0.2,2.4,0.3
						c0.8,0.1,1.6,0.3,2.3,0.5c0.8,0.2,1.5,0.5,2.1,0.7c0.6,0.3,1.1,0.7,1.5,1.1c0.4,0.5,0.6,1.2,0.6,2c0,0.9-0.3,1.8-1,2.4
						s-1.5,1-2.4,1c-0.4,0-0.8-0.1-1.3-0.3c-1-0.4-2.1-0.7-3.1-0.9s-2.1-0.3-3.2-0.3c-0.4,0-0.9,0-1.5,0c-0.5,0-1.1,0.1-1.6,0.2
						c-0.4,0.1-0.8,0.3-1.1,0.5c-0.1,0.1-0.2,0.2-0.2,0.6c0,0.1,0,0.3,0.2,0.5c0.2,0.3,0.6,0.5,1,0.8c0.4,0.3,1,0.5,1.5,0.7
						c0.6,0.2,1.2,0.4,1.8,0.6s1.1,0.3,1.6,0.5c0.5,0.1,0.9,0.3,1.2,0.3c1,0.3,2,0.7,3,1.1s1.9,0.9,2.7,1.6c0.8,0.6,1.4,1.5,1.9,2.4
						c0.5,1,0.7,2.1,0.7,3.4c0,1.7-0.4,3.2-1.1,4.4c-0.7,1.1-1.7,2.1-2.9,2.8c-1.1,0.7-2.4,1.1-3.8,1.4
						C622.7,83.9,621.3,84.1,620,84.1z"/>
					<path d="M620.6,56c0.6,0,1.3,0,2.1,0.1s1.5,0.2,2.3,0.3s1.5,0.3,2.3,0.5c0.7,0.2,1.4,0.4,1.9,0.7c0.4,0.2,0.8,0.5,1.1,0.9
						s0.4,0.8,0.4,1.3c0,0.7-0.2,1.3-0.7,1.7c-0.5,0.5-1.1,0.7-1.7,0.7c-0.3,0-0.6-0.1-0.9-0.2c-1.1-0.4-2.2-0.7-3.2-0.9
						c-1.1-0.2-2.2-0.3-3.4-0.3c-0.4,0-0.9,0-1.5,0s-1.2,0.1-1.8,0.3s-1.1,0.4-1.5,0.7s-0.6,0.8-0.6,1.4c0,0.4,0.2,0.8,0.5,1.2
						s0.7,0.7,1.2,1s1.1,0.6,1.7,0.8c0.6,0.2,1.2,0.4,1.8,0.6s1.1,0.3,1.6,0.5c0.5,0.1,0.9,0.3,1.2,0.3c1,0.3,1.9,0.7,2.9,1
						c0.9,0.4,1.7,0.8,2.4,1.4s1.2,1.3,1.7,2.1c0.4,0.8,0.6,1.8,0.6,3c0,1.5-0.3,2.8-1,3.8s-1.5,1.8-2.5,2.4s-2.2,1-3.5,1.3
						c-1.3,0.2-2.6,0.4-3.9,0.4c-0.4,0-1,0-1.8-0.1c-0.7-0.1-1.5-0.2-2.3-0.4c-0.8-0.2-1.7-0.4-2.5-0.6c-0.8-0.3-1.6-0.6-2.3-0.9
						c-0.7-0.4-1.3-0.8-1.7-1.2c-0.4-0.5-0.7-1-0.7-1.6s0.2-1.2,0.7-1.7s1-0.7,1.7-0.7c0.4,0,0.8,0.1,1.1,0.3
						c0.7,0.4,1.3,0.7,1.9,0.9c0.6,0.3,1.3,0.5,1.9,0.6c0.6,0.2,1.3,0.3,1.9,0.4c0.7,0.1,1.4,0.1,2.1,0.1c0.5,0,1,0,1.7-0.1
						c0.6-0.1,1.3-0.2,1.8-0.4c0.6-0.2,1.1-0.5,1.5-0.9s0.6-0.9,0.6-1.5c0-0.8-0.4-1.4-1.2-1.9s-1.7-0.9-2.9-1.2
						c-1.1-0.4-2.4-0.7-3.8-1.1c-1.4-0.4-2.6-0.9-3.8-1.5c-1.1-0.6-2.1-1.4-2.9-2.5c-0.8-1-1.2-2.4-1.2-4c0-1.4,0.3-2.6,1-3.6
						s1.5-1.7,2.5-2.2s2.2-0.9,3.4-1.1C618.2,56.1,619.5,56,620.6,56 M620.6,54c-1.3,0-2.6,0.1-4,0.3c-1.5,0.2-2.8,0.7-4,1.3
						c-1.3,0.7-2.4,1.6-3.2,2.8c-0.9,1.3-1.3,2.9-1.3,4.7c0,2.1,0.5,3.9,1.6,5.2c0.9,1.2,2.1,2.3,3.5,3c1.3,0.7,2.7,1.3,4.2,1.7
						c1.3,0.4,2.6,0.7,3.7,1.1c1,0.3,1.8,0.6,2.4,1c0.1,0.1,0.2,0.1,0.2,0.1l0,0c0,0,0,0,0,0.1c-0.2,0.2-0.5,0.3-0.8,0.4
						c-0.4,0.1-0.9,0.2-1.4,0.3c-0.6,0.1-1.1,0.1-1.5,0.1c-0.7,0-1.3,0-1.9-0.1c-0.6-0.1-1.1-0.2-1.7-0.3c-0.5-0.1-1.1-0.3-1.6-0.6
						c-0.6-0.2-1.1-0.5-1.7-0.8c-0.7-0.4-1.4-0.6-2.1-0.6c-1.2,0-2.3,0.5-3.1,1.4s-1.3,1.9-1.3,3.1c0,1.1,0.4,2.1,1.2,2.9
						c0.6,0.6,1.4,1.2,2.2,1.6s1.7,0.8,2.6,1c0.9,0.3,1.8,0.5,2.7,0.7s1.7,0.3,2.5,0.4s1.5,0.1,2,0.1c1.4,0,2.8-0.1,4.2-0.4
						c1.5-0.3,2.9-0.8,4.1-1.5c1.3-0.8,2.4-1.8,3.2-3.1c0.9-1.3,1.3-3,1.3-4.9c0-1.5-0.3-2.8-0.8-3.9s-1.3-2-2.2-2.7
						c-0.8-0.7-1.8-1.3-2.9-1.7c-1-0.4-2-0.8-3-1.1l0,0l0,0c-0.3-0.1-0.7-0.2-1.2-0.3c-0.5-0.1-1-0.3-1.6-0.5
						c-0.5-0.2-1.1-0.4-1.7-0.6c-0.5-0.2-1-0.4-1.4-0.6c-0.2-0.1-0.4-0.3-0.6-0.4c0.1-0.1,0.3-0.1,0.5-0.2c0.4-0.1,0.9-0.2,1.3-0.2
						c0.6,0,1.1,0,1.5,0c1,0,2,0.1,3,0.3s2,0.5,3,0.8c0.6,0.2,1.1,0.3,1.6,0.3c1.2,0,2.3-0.5,3.2-1.3c0.9-0.9,1.3-1.9,1.3-3.2
						c0-1-0.3-1.9-0.9-2.6c-0.5-0.6-1.1-1.1-1.8-1.4c-0.7-0.3-1.4-0.6-2.3-0.8c-0.8-0.2-1.6-0.4-2.4-0.5c-0.8-0.2-1.7-0.3-2.5-0.3
						C622,54.1,621.3,54,620.6,54L620.6,54z"/>
				</g>
				<g>
					<path class="st4" d="M644.9,83.9c-1,0-1.9-0.4-2.6-1.1c-0.7-0.7-1-1.6-1-2.6V62.4h-6.2c-1,0-1.8-0.3-2.4-1s-1-1.5-1-2.4
						s0.3-1.8,1-2.4c0.7-0.7,1.5-1,2.4-1h19.6c0.9,0,1.8,0.3,2.4,1c0.7,0.7,1,1.5,1,2.4s-0.4,1.8-1,2.4c-0.7,0.7-1.5,1-2.4,1h-6.2
						v17.9c0,1-0.4,1.9-1.1,2.6C646.7,83.5,645.9,83.9,644.9,83.9z"/>
					<path d="M654.7,56.5c0.7,0,1.3,0.2,1.7,0.7c0.5,0.5,0.7,1.1,0.7,1.7c0,0.7-0.2,1.3-0.7,1.7c-0.5,0.5-1.1,0.7-1.7,0.7h-7.2v18.9
						c0,0.7-0.3,1.4-0.8,1.9s-1.1,0.8-1.9,0.8s-1.3-0.3-1.8-0.8s-0.7-1.1-0.7-1.9V61.4h-7.2c-0.7,0-1.3-0.2-1.7-0.7s-0.7-1-0.7-1.7
						s0.2-1.3,0.7-1.7s1-0.7,1.7-0.7L654.7,56.5 M654.7,54.5h-19.6c-1.2,0-2.3,0.5-3.2,1.3c-0.8,0.9-1.3,1.9-1.3,3.1
						c0,1.2,0.4,2.3,1.3,3.1c0.8,0.8,1.9,1.3,3.1,1.3h5.2v16.9c0,1.3,0.5,2.4,1.3,3.3c0.9,0.9,2,1.4,3.3,1.4s2.4-0.5,3.3-1.3
						c0.9-0.9,1.3-2,1.3-3.3V63.4h5.2c1.2,0,2.3-0.4,3.1-1.3c0.9-0.8,1.3-1.9,1.3-3.2c0-1.2-0.5-2.3-1.3-3.2
						C657,54.9,655.9,54.5,654.7,54.5L654.7,54.5z"/>
				</g>
				<g>
					<path class="st4" d="M680.2,83.9c-0.7,0-1.3-0.2-1.9-0.5c-0.5-0.3-1-0.8-1.2-1.4l-1.9-4.2h-10l-1.9,4.2
						c-0.3,0.6-0.7,1.1-1.3,1.5c-0.6,0.3-1.2,0.5-1.8,0.5c-1,0-1.8-0.3-2.4-1c-0.7-0.7-1-1.5-1-2.4c0-0.5,0.1-1,0.3-1.4l10-21.9
						c0.3-0.6,0.7-1.1,1.2-1.4c0.6-0.4,1.2-0.6,1.8-0.6s1.3,0.2,1.8,0.5c0.6,0.4,1,0.8,1.3,1.5l10,21.9c0.2,0.5,0.3,1,0.3,1.4
						c0,0.9-0.3,1.8-1,2.4C682,83.5,681.1,83.9,680.2,83.9z M672.3,71.3l-2.1-4.7l-2.1,4.7H672.3z"/>
					<path d="M670.1,56.1c0.5,0,0.9,0.1,1.3,0.4c0.4,0.2,0.7,0.6,0.9,1l10,21.9c0.1,0.3,0.2,0.7,0.2,1c0,0.7-0.2,1.3-0.7,1.7
						s-1,0.7-1.7,0.7c-0.5,0-0.9-0.1-1.3-0.4c-0.4-0.2-0.7-0.6-0.9-1l-2.2-4.8h-11.3l-2.2,4.8c-0.2,0.4-0.5,0.8-0.9,1
						s-0.8,0.4-1.3,0.4c-0.7,0-1.3-0.2-1.7-0.7c-0.5-0.5-0.7-1.1-0.7-1.7c0-0.3,0.1-0.7,0.2-1l10-21.9c0.2-0.4,0.5-0.8,0.9-1
						C669.2,56.3,669.6,56.1,670.1,56.1 M666.5,72.3h7.3l-3.7-8.1L666.5,72.3 M670.1,54.1c-0.9,0-1.7,0.2-2.4,0.7s-1.2,1.1-1.6,1.9
						l-10,21.8c-0.3,0.6-0.4,1.2-0.4,1.8c0,1.2,0.5,2.3,1.3,3.2c0.9,0.9,1.9,1.3,3.2,1.3c0.9,0,1.6-0.2,2.4-0.7
						c0.7-0.5,1.3-1.1,1.6-1.9l1.6-3.6h8.7l1.6,3.6c0.4,0.8,0.9,1.4,1.6,1.9c0.7,0.5,1.5,0.7,2.4,0.7c1.2,0,2.3-0.5,3.1-1.3
						s1.3-1.9,1.3-3.1c0-0.6-0.1-1.2-0.3-1.7v-0.1v-0.1l-10-21.9c-0.4-0.8-1-1.5-1.7-1.9C671.7,54.4,670.9,54.1,670.1,54.1
						L670.1,54.1z M669.6,70.3l0.6-1.3l0.6,1.3H669.6L669.6,70.3z"/>
				</g>
				<g>
					<path class="st4" d="M706.3,83.9c-0.7,0-1.3-0.2-1.8-0.5c-0.6-0.3-1-0.8-1.3-1.4c-0.1-0.2-0.3-0.5-0.5-1l-0.8-1.7
						c-0.4-0.8-0.7-1.5-1.1-2.3c-0.4-0.8-0.8-1.5-1.1-2.2c-0.3-0.6-0.6-1.2-0.8-1.6c0-0.1-0.1-0.1-0.1-0.2h-5.5v7.3
						c0,1-0.4,1.9-1.1,2.6c-0.7,0.7-1.6,1-2.5,1c-1,0-1.9-0.3-2.5-1c-0.7-0.7-1-1.5-1-2.5V59.1c0-1,0.3-1.9,1-2.5
						c0.7-0.7,1.5-1,2.5-1h9.7c1.3,0,2.7,0.1,3.9,0.4c1.3,0.3,2.4,0.8,3.4,1.5s1.8,1.7,2.4,2.8c0.6,1.1,0.9,2.5,0.9,4.1
						c0,1.7-0.4,3.3-1.2,4.6c-0.6,1.1-1.6,2-2.7,2.6c0,0.1,0.1,0.1,0.1,0.2c0.3,0.5,0.6,1.1,0.9,1.7c0.3,0.6,0.6,1.3,1,1.9
						c0.3,0.7,0.6,1.3,0.9,1.9c0.3,0.6,0.5,1.2,0.7,1.7c0.2,0.6,0.3,1,0.3,1.4c0,1-0.3,1.8-1,2.5C708.1,83.5,707.3,83.9,706.3,83.9z
						 M700.1,66.6c0.8,0,1.4-0.2,1.9-0.6c0.3-0.2,0.6-0.6,0.6-1.5c0-1-0.4-1.4-0.6-1.6c-0.5-0.4-1.1-0.6-1.9-0.6h-6.8v4.3
						C693.3,66.6,700.1,66.6,700.1,66.6z"/>
					<path d="M699.4,56.5c1.3,0,2.5,0.1,3.7,0.4c1.2,0.3,2.2,0.7,3,1.4c0.9,0.6,1.5,1.4,2.1,2.4s0.8,2.2,0.8,3.6
						c0,1.5-0.4,2.9-1.1,4.1c-0.7,1.2-1.8,2.1-3.2,2.7c0.1,0.3,0.3,0.6,0.6,1.1s0.5,1,0.9,1.7c0.3,0.6,0.6,1.3,1,1.9
						s0.6,1.3,0.9,1.9c0.3,0.6,0.5,1.1,0.7,1.6s0.3,0.8,0.3,1c0,0.7-0.2,1.3-0.7,1.8s-1.1,0.7-1.8,0.7c-0.5,0-0.9-0.1-1.3-0.4
						c-0.4-0.2-0.7-0.6-0.9-1c-0.1-0.1-0.2-0.5-0.5-1s-0.5-1.1-0.9-1.8c-0.3-0.7-0.7-1.4-1.1-2.2c-0.4-0.8-0.7-1.5-1.1-2.1
						c-0.3-0.7-0.6-1.2-0.8-1.6s-0.3-0.7-0.3-0.7h-7.2v8.3c0,0.7-0.3,1.3-0.8,1.8s-1.1,0.7-1.8,0.7s-1.3-0.2-1.8-0.7
						s-0.7-1.1-0.7-1.8V59.1c0-0.7,0.2-1.3,0.7-1.8s1.1-0.7,1.8-0.7L699.4,56.5 M692.3,67.6h7.8c1,0,1.8-0.3,2.5-0.8
						s1.1-1.3,1.1-2.3s-0.3-1.8-1-2.4c-0.7-0.5-1.5-0.8-2.5-0.8h-7.8L692.3,67.6 M699.4,54.5h-9.7c-1.3,0-2.4,0.5-3.3,1.3
						c-0.9,0.9-1.3,2-1.3,3.3v21.2c0,1.3,0.5,2.4,1.3,3.3c0.9,0.9,2,1.3,3.3,1.3c1.2,0,2.3-0.4,3.2-1.3s1.4-2,1.4-3.3V74h3.9
						c0.2,0.4,0.4,0.8,0.6,1.2c0.3,0.7,0.7,1.4,1.1,2.2c0.4,0.8,0.7,1.5,1.1,2.2v0.1l0.8,1.7c0.3,0.6,0.4,0.9,0.5,1
						c0.4,0.8,0.9,1.4,1.6,1.8c0.7,0.4,1.5,0.7,2.4,0.7c1.2,0,2.3-0.5,3.2-1.3c0.9-0.9,1.3-2,1.3-3.2c0-0.5-0.1-1-0.4-1.7
						c-0.2-0.5-0.4-1.1-0.7-1.7s-0.6-1.3-0.9-1.9c-0.3-0.7-0.7-1.3-1-2c-0.2-0.4-0.4-0.8-0.6-1.1c0.9-0.7,1.7-1.5,2.3-2.5
						c0.9-1.5,1.3-3.2,1.3-5.1c0-1.7-0.3-3.3-1-4.6s-1.5-2.3-2.7-3.1c-1.1-0.8-2.3-1.3-3.7-1.7C702.2,54.7,700.8,54.5,699.4,54.5
						L699.4,54.5z M694.3,63.3h5.8c0.7,0,1.1,0.2,1.3,0.4c0.1,0.1,0.3,0.2,0.3,0.8c0,0.5-0.2,0.7-0.2,0.7c-0.4,0.3-0.8,0.4-1.3,0.4
						h-5.8L694.3,63.3L694.3,63.3z"/>
				</g>
				<g>
					<path class="st4" d="M723.8,83.9c-1,0-1.9-0.4-2.6-1.1c-0.7-0.7-1-1.6-1-2.6V62.4H714c-1,0-1.8-0.3-2.4-1s-1-1.5-1-2.4
						s0.3-1.8,1-2.4c0.7-0.7,1.5-1,2.4-1h19.6c1,0,1.8,0.3,2.4,1c0.7,0.7,1,1.5,1,2.4s-0.4,1.8-1,2.4c-0.7,0.7-1.5,1-2.4,1h-6.2
						v17.9c0,1-0.4,1.9-1.1,2.6C725.7,83.5,724.8,83.9,723.8,83.9z"/>
					<path d="M733.6,56.5c0.7,0,1.3,0.2,1.7,0.7c0.5,0.5,0.7,1.1,0.7,1.7c0,0.7-0.2,1.3-0.7,1.7c-0.5,0.5-1.1,0.7-1.7,0.7h-7.2v18.9
						c0,0.7-0.3,1.4-0.8,1.9s-1.1,0.8-1.9,0.8s-1.3-0.3-1.8-0.8s-0.7-1.1-0.7-1.9V61.4H714c-0.7,0-1.3-0.2-1.7-0.7s-0.7-1-0.7-1.7
						s0.2-1.3,0.7-1.7s1-0.7,1.7-0.7L733.6,56.5 M733.6,54.5H714c-1.2,0-2.3,0.5-3.2,1.3c-0.8,0.9-1.3,1.9-1.3,3.1
						c0,1.2,0.4,2.3,1.3,3.1c0.8,0.8,1.9,1.3,3.1,1.3h5.2v16.9c0,1.3,0.5,2.4,1.3,3.3c0.9,0.9,2,1.4,3.3,1.4s2.4-0.5,3.3-1.3
						c0.9-0.9,1.3-2,1.3-3.3V63.4h5.2c1.2,0,2.3-0.4,3.1-1.3c0.9-0.8,1.3-1.9,1.3-3.2c0-1.2-0.5-2.3-1.3-3.2
						C735.9,54.9,734.8,54.5,733.6,54.5L733.6,54.5z"/>
				</g>
			</g>
		</g>
		<path class="st2" d="M778.4,231.1L778.4,231.1c-2.9,0-5.2-2.3-5.2-5.2V31.3c0-2.9,2.3-5.2,5.2-5.2l0,0c2.9,0,5.2,2.3,5.2,5.2
			v194.6C783.6,228.8,781.2,231.1,778.4,231.1z"/>
	</g>
</g>
<g id="Layer_5">
	<rect y="220" class="st5" width="800" height="30"/>
	<rect x="15" y="220" class="st3" width="99" height="6"/>
	<rect x="221" y="220" class="st3" width="99" height="6"/>
	<rect x="429" y="220" class="st3" width="99" height="6"/>
	<rect x="635" y="220" class="st3" width="99" height="6"/>
</g>
<g id="Layer_6">
</g>
<g>
	<polygon class="st6" points="586.5,78.7 580.6,80.5 580.7,86.8 588.8,87.5 588.8,91.6 573.5,92.9 569.8,96.5 556.3,96.5 
		552.2,92.8 551.4,96.5 540.9,96.5 537.9,90.5 527.8,90.5 527.8,56.3 571.7,64.2 576.2,67.6 584.5,73.6 	"/>
	
		<rect x="588.8" y="88.3" transform="matrix(-1 -4.493795e-11 4.493795e-11 -1 1193.5211 178.7712)" class="st6" width="15.9" height="2.3"/>
	
		<rect x="500.4" y="59.7" transform="matrix(-1 -4.490198e-11 4.490198e-11 -1 1028.1248 141.6053)" class="st7" width="27.4" height="22.1"/>
	<rect x="360.3" y="41" class="st7" width="143.8" height="47.3"/>
	<g>
		<path class="st7" d="M478,161.8l15.4,15.4l14.9-14.9c4.3-4.3,4.3-11.2,0-15.4v0c-4.3-4.3-11.2-4.3-15.4,0L478,161.8z"/>
		<path class="st7" d="M489.1,153.7l20-8.7l-21.9-50.4c-2.4-5.5-8.8-8-14.3-5.7v0c-5.5,2.4-8,8.8-5.7,14.3L489.1,153.7z"/>
		<polygon class="st8" points="461.2,176 478,193.8 487,188 491.2,177.2 478.5,163.7 467.4,167.3 		"/>
		
			<rect x="425.6" y="198.5" transform="matrix(-0.6425 -0.7663 0.7663 -0.6425 590.2252 674.6625)" class="st7" width="53.7" height="2.3"/>
		<polygon class="st7" points="439.9,186.4 463.3,214.3 470.9,204.1 451.4,180.8 		"/>
		<polygon class="st7" points="462.6,177.5 475.9,191.5 467.3,199.8 454.4,184.4 		"/>
	</g>
	<path class="st6" d="M470.2,89.3h31.4c1.9,0,3.5-1.6,3.5-3.5V44.4c0-1.5-1-2.8-2.4-3.3l-26.9-9.1c-2.1-0.7-4.4,0.7-4.6,3l-4.5,50.4
		C466.6,87.5,468.2,89.3,470.2,89.3z"/>
	<path class="st6" d="M414.5,87.3h46.6c1.9,0,3.4-1.5,3.4-3.4V24.9c0-1.9-1.5-3.4-3.4-3.4h-46.6c-1.9,0-3.4,1.5-3.4,3.4v58.9
		C411.1,85.7,412.6,87.3,414.5,87.3z"/>
	<path class="st7" d="M399.2,153.9l20.8-6.4l-16.2-52.5c-1.8-5.7-7.9-9-13.6-7.2v0c-5.7,1.8-9,7.9-7.2,13.6L399.2,153.9z"/>
	<path class="st8" d="M353.8,63.2l8.5-5c2.2-1.3,5.1,0.1,5.4,2.7l3.5,27.4H494c1.7,0,2.7,1.8,1.9,3.2l-10.5,18.7
		c-0.4,0.7-1.1,1.1-1.9,1.1H367.4c-1.2,0-2.2-1-2.2-2.2v-8.3h-2c-1.7,0-3.1-1.1-3.5-2.8l-7.5-30.9C351.8,65.7,352.4,64.1,353.8,63.2
		z"/>
	<path class="st7" d="M405.5,180l17.7-1.2l-1.7-25.1c-0.8-6-6.3-10.1-12.3-9.3h0c-6,0.8-10.1,6.3-9.3,12.3L405.5,180z"/>
	<g>
		<path class="st6" d="M477.7,177.8l21.7-1.3l-4.7-77.1c-0.4-6-5.5-10.6-11.5-10.2h0c-6,0.4-10.6,5.5-10.2,11.5L477.7,177.8z"/>
		
			<rect x="463.9" y="219.7" transform="matrix(-1 -4.489532e-11 4.489532e-11 -1 981.5735 441.5602)" class="st6" width="53.7" height="2.3"/>
		<polygon class="st6" points="472.6,221.9 509,221.9 506,209.5 475.6,209.5 		"/>
		<polygon class="st6" points="480.3,198.8 499.5,197.6 500.4,209.5 480.3,209.5 		"/>
		<polygon class="st9" points="477.1,200.7 503,198.9 505.5,184.6 499.9,174.4 477,175.1 475,186.6 		"/>
	</g>
	<polygon class="st8" points="403.4,198.9 427.9,197.4 429.2,186.8 423.6,176.6 405.1,177.8 400.7,188.5 	"/>
	
		<rect x="389.1" y="219.7" transform="matrix(-1 -4.489532e-11 4.489532e-11 -1 831.8548 441.5602)" class="st7" width="53.7" height="2.3"/>
	<polygon class="st7" points="397.7,221.9 434.1,221.9 431.1,209.5 400.7,209.5 	"/>
	<polygon class="st7" points="405.5,198.8 424.7,197.6 425.6,209.5 405.5,209.5 	"/>
	<g>
		<path class="st6" d="M394.3,176.8l-21.7-1.3l4.7-77.1c0.4-6,5.5-10.6,11.5-10.2h0c6,0.4,10.6,5.5,10.2,11.5L394.3,176.8z"/>
		<polygon class="st9" points="393.8,198.9 369.3,197.4 367.9,186.8 371.6,173.8 395.4,175.2 396.4,188.5 		"/>
		<rect x="354.4" y="219.7" class="st6" width="53.7" height="2.3"/>
		<polygon class="st6" points="399.4,221.9 363,221.9 366,209.5 396.4,209.5 		"/>
		<polygon class="st6" points="391.7,198.8 372.4,197.6 371.6,209.5 391.7,209.5 		"/>
	</g>
	<path class="st6" d="M363.6,87.3h40.8c1.8,0,3.2-1.4,3.2-3.2V29.4c0-2.2-2.1-3.7-4.2-3.1l-40.8,13c-1.3,0.4-2.3,1.7-2.3,3.1V84
		C360.3,85.8,361.8,87.3,363.6,87.3z"/>
	<path class="st7" d="M567.1,66.2c4.8,0,8.8,3.9,8.8,8.8c0,2.1-0.7,4-2,5.5h17.2v3.2h-24c-4.8,0-8.8-3.9-8.8-8.8
		S562.2,66.2,567.1,66.2z"/>
	<path class="st7" d="M500.4,83.9L500.4,83.9c1,0,1.8-0.8,1.8-1.8V46.5c0-1-0.8-1.8-1.8-1.8l0,0c-1,0-1.8,0.8-1.8,1.8v35.5
		C498.6,83.1,499.4,83.9,500.4,83.9z"/>
	<path class="st7" d="M495.2,83.9L495.2,83.9c1,0,1.8-0.8,1.8-1.8V46.5c0-1-0.8-1.8-1.8-1.8l0,0c-1,0-1.8,0.8-1.8,1.8v35.5
		C493.4,83.1,494.2,83.9,495.2,83.9z"/>
	<path class="st7" d="M457.4,81.9L457.4,81.9c0-1-0.8-1.8-1.8-1.8H420c-1,0-1.8,0.8-1.8,1.8l0,0c0,1,0.8,1.8,1.8,1.8h35.5
		C456.6,83.7,457.4,82.9,457.4,81.9z"/>
	<path class="st7" d="M457.4,76.4L457.4,76.4c0-1-0.8-1.8-1.8-1.8H420c-1,0-1.8,0.8-1.8,1.8l0,0c0,1,0.8,1.8,1.8,1.8h35.5
		C456.6,78.2,457.4,77.4,457.4,76.4z"/>
	<path class="st7" d="M457.4,70.8L457.4,70.8c0-1-0.8-1.8-1.8-1.8H420c-1,0-1.8,0.8-1.8,1.8v0c0,1,0.8,1.8,1.8,1.8h35.5
		C456.6,72.6,457.4,71.8,457.4,70.8z"/>
	<path class="st7" d="M388.3,83.5H401c1.8,0,3.3-1.5,3.3-3.3V60.9c0-1.8-1.5-3.3-3.3-3.3h-12.7c-1.8,0-3.3,1.5-3.3,3.3v19.4
		C385,82,386.5,83.5,388.3,83.5z"/>
</g>
<g>
	<polygon class="st6" points="336.4,128 332.5,129.1 332.6,133.3 337.9,133.8 337.9,136.5 327.9,137.3 325.4,139.7 316.6,139.7 
		313.9,137.2 313.4,139.7 306.5,139.7 304.5,135.7 297.9,135.7 297.9,113.3 326.7,118.5 329.6,120.7 335,124.7 	"/>
	
		<rect x="337.9" y="134.3" transform="matrix(-1 -4.492507e-11 4.492507e-11 -1 686.2121 269.9869)" class="st6" width="10.4" height="1.5"/>
	
		<rect x="279.9" y="115.5" transform="matrix(-1 -4.493484e-11 4.493484e-11 -1 577.7379 245.6119)" class="st7" width="18" height="14.5"/>
	<rect x="188" y="103.2" class="st7" width="94.3" height="31"/>
	<g>
		<path class="st7" d="M265.2,182.5l10.1,10.1l9.8-9.8c2.8-2.8,2.8-7.3,0-10.1l0,0c-2.8-2.8-7.3-2.8-10.1,0L265.2,182.5z"/>
		<path class="st7" d="M272.5,177.2l13.1-5.7l-14.4-33.1c-1.6-3.6-5.8-5.3-9.4-3.7l0,0c-3.6,1.6-5.3,5.8-3.7,9.4L272.5,177.2z"/>
		<polygon class="st8" points="254.2,191.8 265.2,203.5 271.2,199.7 273.9,192.6 265.5,183.7 258.3,186.1 		"/>
		
			<rect x="230.9" y="206.6" transform="matrix(-0.6425 -0.7663 0.7663 -0.6425 249.2814 530.9204)" class="st7" width="35.2" height="1.5"/>
		<polygon class="st7" points="240.3,198.7 255.6,216.9 260.6,210.2 247.7,194.9 		"/>
		<polygon class="st7" points="255.1,192.8 263.8,202 258.2,207.4 249.7,197.3 		"/>
	</g>
	<path class="st6" d="M260.1,134.9h20.6c1.3,0,2.3-1,2.3-2.3v-27.1c0-1-0.6-1.8-1.5-2.2l-17.6-5.9c-1.4-0.5-2.9,0.5-3,2l-3,33.1
		C257.7,133.8,258.8,134.9,260.1,134.9z"/>
	<path class="st6" d="M223.6,133.6h30.5c1.2,0,2.2-1,2.2-2.2V92.7c0-1.2-1-2.2-2.2-2.2h-30.5c-1.2,0-2.2,1-2.2,2.2v38.7
		C221.4,132.6,222.4,133.6,223.6,133.6z"/>
	<path class="st7" d="M213.6,177.3l13.7-4.2l-10.6-34.4c-1.2-3.8-5.2-5.9-8.9-4.7l0,0c-3.8,1.2-5.9,5.2-4.7,8.9L213.6,177.3z"/>
	<path class="st8" d="M183.8,117.8l5.6-3.3c1.5-0.9,3.3,0.1,3.6,1.7l2.3,18h80.5c1.1,0,1.8,1.2,1.2,2.1l-6.9,12.3
		c-0.3,0.5-0.7,0.7-1.2,0.7h-76.2c-0.8,0-1.4-0.6-1.4-1.4v-5.5h-1.3c-1.1,0-2-0.7-2.3-1.8l-4.9-20.2
		C182.4,119.4,182.9,118.4,183.8,117.8z"/>
	<path class="st7" d="M217.6,194.4l11.6-0.8l-1.1-16.4c-0.5-3.9-4.1-6.6-8-6.1h0c-3.9,0.5-6.6,4.1-6.1,8L217.6,194.4z"/>
	<g>
		<path class="st6" d="M265,193l14.3-0.9l-3.1-50.5c-0.2-3.9-3.6-6.9-7.6-6.7l0,0c-3.9,0.2-6.9,3.6-6.7,7.6L265,193z"/>
		
			<rect x="256" y="220.4" transform="matrix(-1 -4.489576e-11 4.489576e-11 -1 547.2076 442.3354)" class="st6" width="35.2" height="1.5"/>
		<polygon class="st6" points="261.7,221.9 285.5,221.9 283.6,213.8 263.6,213.8 		"/>
		<polygon class="st6" points="266.7,206.7 279.3,206 279.9,213.8 266.7,213.8 		"/>
		<polygon class="st9" points="264.6,208 281.6,206.8 283.2,197.4 279.6,190.7 264.6,191.2 263.2,198.8 		"/>
	</g>
	<polygon class="st8" points="216.3,206.8 232.3,205.9 233.2,198.9 229.5,192.2 217.4,192.9 214.6,200 	"/>
	
		<rect x="206.9" y="220.4" transform="matrix(-1 -4.489576e-11 4.489576e-11 -1 449.0155 442.3354)" class="st7" width="35.2" height="1.5"/>
	<polygon class="st7" points="212.6,221.9 236.4,221.9 234.5,213.8 214.6,213.8 	"/>
	<polygon class="st7" points="217.6,206.7 230.3,206 230.8,213.8 217.6,213.8 	"/>
	<g>
		<path class="st6" d="M210.3,192.3l-14.3-0.9l3.1-50.5c0.2-3.9,3.6-6.9,7.6-6.7h0c3.9,0.2,6.9,3.6,6.7,7.6L210.3,192.3z"/>
		<polygon class="st9" points="210,206.8 193.9,205.9 193,198.9 195.4,190.4 211.1,191.3 211.7,200 		"/>
		<rect x="184.1" y="220.4" class="st6" width="35.2" height="1.5"/>
		<polygon class="st6" points="213.7,221.9 189.8,221.9 191.8,213.8 211.7,213.8 		"/>
		<polygon class="st6" points="208.6,206.7 196,206 195.4,213.8 208.6,213.8 		"/>
	</g>
	<path class="st6" d="M190.2,133.6h26.8c1.2,0,2.1-1,2.1-2.1V95.6c0-1.4-1.4-2.5-2.8-2l-26.8,8.5c-0.9,0.3-1.5,1.1-1.5,2v27.3
		C188,132.6,189,133.6,190.2,133.6z"/>
	<path class="st7" d="M323.6,119.8c3.2,0,5.8,2.6,5.8,5.8c0,1.4-0.5,2.6-1.3,3.6h11.3v2.1h-15.8c-3.2,0-5.8-2.6-5.8-5.8
		C317.9,122.3,320.4,119.8,323.6,119.8z"/>
	<path class="st7" d="M279.9,131.4L279.9,131.4c0.7,0,1.2-0.5,1.2-1.2v-23.3c0-0.7-0.5-1.2-1.2-1.2l0,0c-0.7,0-1.2,0.5-1.2,1.2v23.3
		C278.7,130.9,279.2,131.4,279.9,131.4z"/>
	<path class="st7" d="M276.5,131.4L276.5,131.4c0.7,0,1.2-0.5,1.2-1.2v-23.3c0-0.7-0.5-1.2-1.2-1.2l0,0c-0.7,0-1.2,0.5-1.2,1.2v23.3
		C275.3,130.9,275.8,131.4,276.5,131.4z"/>
	<path class="st7" d="M251.7,130.1L251.7,130.1c0-0.7-0.5-1.2-1.2-1.2h-23.3c-0.7,0-1.2,0.5-1.2,1.2l0,0c0,0.7,0.5,1.2,1.2,1.2h23.3
		C251.2,131.2,251.7,130.7,251.7,130.1z"/>
	<path class="st7" d="M251.7,126.5L251.7,126.5c0-0.7-0.5-1.2-1.2-1.2h-23.3c-0.7,0-1.2,0.5-1.2,1.2l0,0c0,0.7,0.5,1.2,1.2,1.2h23.3
		C251.2,127.7,251.7,127.2,251.7,126.5z"/>
	<path class="st7" d="M251.7,122.8L251.7,122.8c0-0.7-0.5-1.2-1.2-1.2h-23.3c-0.7,0-1.2,0.5-1.2,1.2v0c0,0.7,0.5,1.2,1.2,1.2h23.3
		C251.2,124,251.7,123.5,251.7,122.8z"/>
	<path class="st7" d="M206.4,131.1h8.3c1.2,0,2.2-1,2.2-2.2v-12.7c0-1.2-1-2.2-2.2-2.2h-8.3c-1.2,0-2.2,1-2.2,2.2V129
		C204.2,130.2,205.2,131.1,206.4,131.1z"/>
</g>
<g>
	<polygon class="st10" points="0,109.8 0,199.1 2.8,202.5 13.2,193.7 19,199.9 11.4,191.8 19.3,180.8 31.3,176.9 27.9,120.1 
		23.4,109.8 	"/>
	<polygon class="st10" points="23.7,227.4 15.9,238.1 23.4,247 23.1,247.2 26.6,247.2 29.7,234.3 35.7,234.3 35.7,222.9 31.6,223.1 
		29.8,211.6 19.2,222 	"/>
	<path class="st6" d="M173.3,80.5v-1l-10.3-1l-0.1-3.9h-17.2c-6.2,0-11.1-5-11.1-11.1c0-6.2,5-11.1,11.1-11.1s11.1,5,11.1,11.1
		c0,2.7-0.9,5.1-2.5,7h8.5l0,0l7.4-2.3l-2.6-6.4l-10.5-7.6l-5.7-4.3l-55.7-10v4.3v28.1v11h12.8l3.8,7.6h13.3l1-4.8L132,91h17.1
		l4.7-4.6l19.3-1.5v-1.4h20.2v-2.9H173.3z"/>
	<rect x="67.1" y="44.4" class="st7" width="28.7" height="28.1"/>
	<path class="st7" d="M11.3,79.3H0v1.3h19.8c-0.9-0.9-1.4-2.2-1.3-3.5l5.1-56.5h-8V75C15.6,77.4,13.6,79.3,11.3,79.3z"/>
	<path class="st7" d="M65.8,80.5L65.8,80.5L65.8,80.5C65.8,80.5,65.8,80.5,65.8,80.5z"/>
	<polygon class="st7" points="27.9,120.1 27.3,109.8 23.4,109.8 	"/>
	<path class="st7" d="M71.1,154.9L71.1,154.9c-0.5-0.5-1-0.9-1.5-1.3l2.5-1.1l-16.9-39l2.3,37.8l0.4,7.3l1.6,27.3l11.6-11.6
		C76.5,169,76.5,160.3,71.1,154.9z"/>
	<polygon class="st8" points="28.9,205.3 31.5,190.7 32.2,190.6 31.3,176.9 19.3,180.8 11.4,191.8 19,199.9 29.8,211.2 	"/>
	<polygon class="st7" points="0,223.6 1.8,225.7 0,223.6 	"/>
	<polygon class="st7" points="19.2,222 29.8,211.6 29.8,211.2 19,199.9 13.2,193.7 2.8,202.5 0,199.1 0,219.1 0,223.6 1.8,225.7 
		19.8,247.2 23.1,247.2 23.4,247 15.9,238.1 23.7,227.4 	"/>
	<polygon class="st7" points="29.8,211.2 19,199.9 29.8,211.2 	"/>
	<path class="st6" d="M55.4,81.8h7.4c1.2,0,2.3-0.5,3.1-1.3H53.1C54.1,80.5,54.9,81.1,55.4,81.8z"/>
	<path class="st6" d="M65.9,80.5c0.8-0.8,1.3-1.9,1.3-3.1v-5h-1.3V80.5z"/>
	<path class="st6" d="M65.9,21.9c-0.5-0.5-1.1-0.9-1.7-1.1l-0.8-0.3L30,9.3c-2.7-0.9-5.5,0.9-5.8,3.8l-0.7,7.5L18.5,77
		c-0.1,1.4,0.4,2.6,1.3,3.5h9.5c1.6-0.3,3.2-0.3,4.7,0h19h12.8c0,0,0,0,0,0v-8h1.3V44.4V25C67.1,23.8,66.7,22.7,65.9,21.9z
		 M56.8,72.7c0,1.3-1,2.3-2.3,2.3s-2.3-1-2.3-2.3V27.6c0-1.3,1-2.3,2.3-2.3s2.3,1,2.3,2.3V72.7z M63.4,44.4v28.1v0.3
		c0,1.3-1,2.3-2.3,2.3c-1.3,0-2.3-1-2.3-2.3V27.6c0-1.3,1-2.3,2.3-2.3c1.3,0,2.3,1,2.3,2.3V44.4z"/>
	<path class="st6" d="M29.3,80.5h4.7C32.5,80.3,30.9,80.3,29.3,80.5z"/>
	<path class="st8" d="M38.7,81.8h-0.9c0.1,0,0.1,0.1,0.1,0.1C38.3,81.9,38.5,81.8,38.7,81.8z"/>
	<path class="st8" d="M55.4,81.8c-0.5-0.7-1.3-1.3-2.3-1.3h-19h-4.7h-9.5H0v29.3h23.4h3.8l-0.8-13.5C26,89.2,31.1,83,38,81.9
		c-0.1,0-0.1-0.1-0.1-0.1h0.9c0.2,0,0.4-0.1,0.7-0.1h0c0.8,0,1.6,0,2.4,0.1c4.8,0.5,8.9,3.5,10.9,7.8l2.8-4.9
		C56,83.7,55.9,82.6,55.4,81.8z"/>
	<path class="st6" d="M59.5,186l-1.6-27.3l-0.4-7.3l-2.3-37.8L54,94.7c-0.1-1.8-0.6-3.6-1.3-5.1c-2-4.2-6.1-7.2-10.9-7.8h-3.1
		c-0.2,0-0.5,0-0.7,0.1c-6.9,1.1-12,7.3-11.6,14.5l0.8,13.5l0.6,10.3l3.4,56.8l0.8,13.7l14.4-0.4l2.4-0.1l6.6-0.2l4.1-0.1L59.5,186z
		"/>
	<path class="st6" d="M39.4,81.7L39.4,81.7c-0.2,0-0.4,0.1-0.7,0.1h3.1C41,81.7,40.2,81.7,39.4,81.7z"/>
	<polygon class="st6" points="71.4,247.2 68.2,234.3 61.2,234.3 35.7,234.3 29.7,234.3 26.6,247.2 23.1,247.2 19.8,247.2 
		14.9,247.2 14.9,250 25.9,250 72,250 83,250 83,247.2 	"/>
	<polygon class="st6" points="35.7,234.3 61.2,234.3 60.2,221.2 35.7,222.9 	"/>
	<polygon class="st9" points="52.2,193.3 52.7,192.9 51.8,192.9 	"/>
	<polygon class="st9" points="29.8,211.6 30,211.5 29.8,211.2 	"/>
	<rect x="29.7" y="211.3" class="st9" width="0.3" height="0"/>
	<path class="st9" d="M60.5,189.8l-0.7,0l-4.1,0.1l-6.6,0.2l-2.4,0.1l-14.4,0.4l-0.7,0l-2.6,14.6l0.9,5.9l0.2,0.2l-0.2,0.2l1.7,11.5
		l4.1-0.3l24.5-1.7l4.2-0.3l3.2-18.2L60.5,189.8z M52.7,192.9l-0.5,0.5l-0.4-0.4L52.7,192.9z"/>
	<path class="st7" d="M162.9,70.7h-8.5c1.6-1.9,2.5-4.4,2.5-7c0-6.2-5-11.1-11.1-11.1s-11.1,5-11.1,11.1c0,6.2,5,11.1,11.1,11.1
		h17.2h13.2v-4.1H162.9z"/>
	<path class="st7" d="M61.1,25.4c-1.3,0-2.3,1-2.3,2.3v45.1c0,1.3,1,2.3,2.3,2.3c1.3,0,2.3-1,2.3-2.3v-0.3V44.4V27.6
		C63.4,26.4,62.4,25.4,61.1,25.4z"/>
	<path class="st7" d="M54.5,25.4c-1.3,0-2.3,1-2.3,2.3v45.1c0,1.3,1,2.3,2.3,2.3s2.3-1,2.3-2.3V27.6C56.8,26.4,55.8,25.4,54.5,25.4z
		"/>
	<path class="st7" d="M4.3,74.7c1.3,0,2.3-1,2.3-2.3c0-1.3-1-2.3-2.3-2.3H0v4.6H4.3z"/>
	<path class="st7" d="M4.3,67.8c1.3,0,2.3-1,2.3-2.3v0c0-1.3-1-2.3-2.3-2.3H0v4.6H4.3z"/>
	<path class="st7" d="M4.3,60.7c1.3,0,2.3-1,2.3-2.3s-1-2.3-2.3-2.3H0v4.6H4.3z"/>
</g>
<g>
	<path class="st11" d="M598.6,176.1h-5.2l-3.3,2l7.9,5.5l17.7-2.9l2-1.4L598.6,176.1z M597.5,180.4l-3.9-2.6l0.5-0.9h3.4V180.4z
		 M599.4,180.4l-0.3-3.2l13,2.3L599.4,180.4z"/>
	<g>
		<g>
			<polygon class="st12" points="580.1,187.1 558.7,187.1 556.9,176 575.5,176 			"/>
			<rect x="558.5" y="174.5" class="st13" width="15.2" height="1.6"/>
			<path class="st14" d="M625.9,172.5h-19.7c-0.3,0-0.6,0.3-0.6,0.6v0.1c0,0.3,0.3,0.6,0.6,0.6h19.7c0.3,0,0.6-0.3,0.6-0.6v-0.1
				C626.5,172.8,626.2,172.5,625.9,172.5z"/>
			<path class="st12" d="M606.7,172.1h-46.8c-0.6,0-1.1,0.5-1.1,1.1l0,0c0,0.6,0.5,1.1,1.1,1.1h46.8c0.6,0,1.1-0.5,1.1-1.1l0,0
				C607.8,172.6,607.3,172.1,606.7,172.1z"/>
			<path class="st13" d="M583.9,171.1h-29.4c-0.5,0-0.9,0.4-0.9,0.9v2.4c0,0.5,0.4,0.9,0.9,0.9h29.4c0.5,0,0.9-0.4,0.9-0.9V172
				C584.8,171.5,584.4,171.1,583.9,171.1z"/>
		</g>
		<g>
			<polygon class="st12" points="580.1,187.1 558.7,187.1 556.9,198.1 575.5,198.1 			"/>
			<rect x="558.5" y="198.1" class="st13" width="15.2" height="1.6"/>
			<path class="st14" d="M625.9,201.6h-19.7c-0.3,0-0.6-0.3-0.6-0.6v-0.1c0-0.3,0.3-0.6,0.6-0.6h19.7c0.3,0,0.6,0.3,0.6,0.6v0.1
				C626.5,201.4,626.2,201.6,625.9,201.6z"/>
			<path class="st12" d="M606.7,202h-46.8c-0.6,0-1.1-0.5-1.1-1.1l0,0c0-0.6,0.5-1.1,1.1-1.1h46.8c0.6,0,1.1,0.5,1.1,1.1l0,0
				C607.8,201.5,607.3,202,606.7,202z"/>
			<path class="st13" d="M583.9,203h-29.4c-0.5,0-0.9-0.4-0.9-0.9v-2.4c0-0.5,0.4-0.9,0.9-0.9h29.4c0.5,0,0.9,0.4,0.9,0.9v2.4
				C584.8,202.6,584.4,203,583.9,203z"/>
		</g>
	</g>
	<path class="st15" d="M553.7,182.9h-20.7c-1.2,0-2.2-1-2.2-2.2v-2.5c0-1.2,1-2.2,2.2-2.2h20.7c1.2,0,2.2,1,2.2,2.2v2.5
		C555.9,182,554.9,182.9,553.7,182.9z"/>
	<path class="st15" d="M553.7,194.6h-20.7c-1.2,0-2.2-1-2.2-2.2v-2.5c0-1.2,1-2.2,2.2-2.2h20.7c1.2,0,2.2,1,2.2,2.2v2.5
		C555.9,193.6,554.9,194.6,553.7,194.6z"/>
	<path class="st14" d="M659,182.3l-41.3-2.9l-18.6,3.1l-8.5-5.3l-9.9-4.2H550l-1.3,9.6c-0.5,3.9-0.4,7.8,0.3,11.7l0.7,3.8
		c0.2,0.9,1.1,1.6,2,1.4l28.9-4.2l18.6-4h21.4l42.8-2.2L659,182.3z"/>
	<g>
		<defs>
			<polygon id="SVGID_1_" points="545.6,192.6 597.5,185.9 658.9,187.7 657.3,191.6 592.4,195.2 548.3,203 			"/>
		</defs>
		<clipPath id="SVGID_2_">
			<use xlink:href="#SVGID_1_"  style="overflow:visible;"/>
		</clipPath>
		<path class="st16" d="M659,182.3l-41.3-2.9l-18.6,3.1l-8.5-5.3l-9.9-4.2H550l-1.3,9.6c-0.5,3.9-0.4,7.8,0.3,11.7l0.7,3.8
			c0.2,0.9,1.1,1.6,2,1.4l28.9-4.2l18.6-4h21.4l42.8-2.2L659,182.3z"/>
	</g>
	<polygon class="st17" points="660.9,188.2 645.3,188.2 646.4,185.9 661.8,185.9 	"/>
	<path class="st18" d="M654.6,189.4l2.4-1.3l0.9-6.4c0.1-0.2,0.2-0.3,0.4-0.3c1.7,0.2,9.7,1.1,14.5,4.6c0,0-3.1,3.6-17.8,3.9
		C654.7,190,654.5,189.7,654.6,189.4z"/>
	<g>
		<polygon class="st12" points="576.5,187.7 552.4,190.7 550.6,203.7 570.9,203.7 		"/>
		<rect x="552.4" y="203.7" class="st13" width="16.7" height="2.1"/>
		<path class="st14" d="M626.1,208.4h-21.5c-0.4,0-0.7-0.3-0.7-0.7v-0.3c0-0.4,0.3-0.7,0.7-0.7h21.5c0.4,0,0.7,0.3,0.7,0.7v0.3
			C626.8,208.1,626.5,208.4,626.1,208.4z"/>
		<path class="st12" d="M604.9,208.9h-50.9c-0.8,0-1.4-0.6-1.4-1.4l0,0c0-0.8,0.6-1.4,1.4-1.4h50.9c0.8,0,1.4,0.6,1.4,1.4l0,0
			C606.3,208.3,605.7,208.9,604.9,208.9z"/>
		<path class="st13" d="M580.1,210.3h-32c-0.6,0-1-0.5-1-1v-3.4c0-0.6,0.5-1,1-1h32c0.6,0,1,0.5,1,1v3.4
			C581.2,209.8,580.7,210.3,580.1,210.3z"/>
	</g>
	<g>
		<polygon class="st12" points="576,176.9 552.6,176.9 550.6,164.8 570.9,164.8 		"/>
		<rect x="552.4" y="163.1" class="st13" width="16.7" height="1.7"/>
		<path class="st14" d="M626.2,161h-21.6c-0.4,0-0.7,0.3-0.7,0.7v0.1c0,0.4,0.3,0.7,0.7,0.7h21.6c0.4,0,0.7-0.3,0.7-0.7v-0.1
			C626.8,161.3,626.5,161,626.2,161z"/>
		<path class="st12" d="M605.2,160.5h-51.3c-0.6,0-1.2,0.5-1.2,1.2l0,0c0,0.6,0.5,1.2,1.2,1.2h51.3c0.6,0,1.2-0.5,1.2-1.2l0,0
			C606.3,161.1,605.8,160.5,605.2,160.5z"/>
		<path class="st13" d="M580.2,159.4H548c-0.5,0-0.9,0.4-0.9,0.9v2.7c0,0.5,0.4,0.9,0.9,0.9h32.2c0.5,0,0.9-0.4,0.9-0.9v-2.7
			C581.2,159.8,580.7,159.4,580.2,159.4z"/>
	</g>
	<polygon class="st17" points="635.1,187.7 615.4,187.7 616.8,184 636.2,184 	"/>
	<path class="st11" d="M588.6,179.8h-35.7c-0.3,0-0.5-0.2-0.5-0.5l0,0c0-0.3,0.2-0.5,0.5-0.5h35.7c0.3,0,0.5,0.2,0.5,0.5l0,0
		C589.1,179.6,588.8,179.8,588.6,179.8z"/>
	<path class="st11" d="M579.6,181.6h-26.7c-0.3,0-0.5-0.2-0.5-0.5l0,0c0-0.3,0.2-0.5,0.5-0.5h26.7c0.3,0,0.5,0.2,0.5,0.5l0,0
		C580.1,181.3,579.9,181.6,579.6,181.6z"/>
	<path class="st11" d="M570.2,183.2h-17.4c-0.3,0-0.5-0.2-0.5-0.5l0,0c0-0.3,0.2-0.5,0.5-0.5h17.4c0.3,0,0.5,0.2,0.5,0.5l0,0
		C570.7,183,570.5,183.2,570.2,183.2z"/>
</g>
<g>
	<path class="st11" d="M305.1,68.9h-2.4l-1.5,0.9l3.7,2.6l8.3-1.3l0.9-0.6L305.1,68.9z M304.6,70.9l-1.8-1.2l0.3-0.4h1.6V70.9z
		 M305.5,70.9l-0.1-1.5l6.1,1.1L305.5,70.9z"/>
	<g>
		<g>
			<polygon class="st12" points="296.4,74 286.4,74 285.6,68.9 294.2,68.9 			"/>
			<rect x="286.3" y="68.1" class="st13" width="7.1" height="0.7"/>
			<path class="st14" d="M317.9,67.2h-9.3c-0.2,0-0.3,0.1-0.3,0.3v0.1c0,0.2,0.1,0.3,0.3,0.3h9.3c0.2,0,0.3-0.1,0.3-0.3v-0.1
				C318.2,67.3,318.1,67.2,317.9,67.2z"/>
			<path class="st12" d="M308.9,67h-22c-0.3,0-0.5,0.2-0.5,0.5l0,0c0,0.3,0.2,0.5,0.5,0.5h22c0.3,0,0.5-0.2,0.5-0.5l0,0
				C309.4,67.3,309.2,67,308.9,67z"/>
			<path class="st13" d="M298.2,66.6h-13.8c-0.2,0-0.4,0.2-0.4,0.4v1.1c0,0.2,0.2,0.4,0.4,0.4h13.8c0.2,0,0.4-0.2,0.4-0.4V67
				C298.6,66.7,298.5,66.6,298.2,66.6z"/>
		</g>
		<g>
			<polygon class="st12" points="296.4,74 286.4,74 285.6,79.2 294.2,79.2 			"/>
			<rect x="286.3" y="79.2" class="st13" width="7.1" height="0.7"/>
			<path class="st14" d="M317.9,80.9h-9.3c-0.2,0-0.3-0.1-0.3-0.3v-0.1c0-0.2,0.1-0.3,0.3-0.3h9.3c0.2,0,0.3,0.1,0.3,0.3v0.1
				C318.2,80.8,318.1,80.9,317.9,80.9z"/>
			<path class="st12" d="M308.9,81.1h-22c-0.3,0-0.5-0.2-0.5-0.5l0,0c0-0.3,0.2-0.5,0.5-0.5h22c0.3,0,0.5,0.2,0.5,0.5l0,0
				C309.4,80.8,309.2,81.1,308.9,81.1z"/>
			<path class="st13" d="M298.2,81.5h-13.8c-0.2,0-0.4-0.2-0.4-0.4V80c0-0.2,0.2-0.4,0.4-0.4h13.8c0.2,0,0.4,0.2,0.4,0.4v1.1
				C298.6,81.4,298.5,81.5,298.2,81.5z"/>
		</g>
	</g>
	<path class="st15" d="M284,72.1h-9.7c-0.6,0-1-0.5-1-1v-1.2c0-0.6,0.5-1,1-1h9.7c0.6,0,1,0.5,1,1v1.2
		C285.1,71.6,284.6,72.1,284,72.1z"/>
	<path class="st15" d="M284,77.6h-9.7c-0.6,0-1-0.5-1-1v-1.2c0-0.6,0.5-1,1-1h9.7c0.6,0,1,0.5,1,1v1.2
		C285.1,77.1,284.6,77.6,284,77.6z"/>
	<path class="st14" d="M333.5,71.8l-19.4-1.4l-8.8,1.4l-4-2.5l-4.6-2h-14.4l-0.6,4.5c-0.3,1.8-0.2,3.7,0.1,5.5l0.3,1.8
		c0.1,0.4,0.5,0.7,0.9,0.7l13.6-2l8.7-1.9h10l20.1-1L333.5,71.8z"/>
	<g>
		<defs>
			<polygon id="SVGID_3_" points="280.2,76.6 304.6,73.5 333.5,74.4 332.7,76.2 302.2,77.9 281.5,81.5 			"/>
		</defs>
		<clipPath id="SVGID_4_">
			<use xlink:href="#SVGID_3_"  style="overflow:visible;"/>
		</clipPath>
		<path class="st19" d="M333.5,71.8l-19.4-1.4l-8.8,1.4l-4-2.5l-4.6-2h-14.4l-0.6,4.5c-0.3,1.8-0.2,3.7,0.1,5.5l0.3,1.8
			c0.1,0.4,0.5,0.7,0.9,0.7l13.6-2l8.7-1.9h10l20.1-1L333.5,71.8z"/>
	</g>
	<polygon class="st17" points="334.4,74.6 327.1,74.6 327.6,73.5 334.8,73.5 	"/>
	<path class="st18" d="M331.4,75.2l1.1-0.6l0.4-3c0-0.1,0.1-0.1,0.2-0.1c0.8,0.1,4.6,0.5,6.8,2.2c0,0-1.5,1.7-8.3,1.8
		C331.5,75.4,331.4,75.3,331.4,75.2z"/>
	<g>
		<polygon class="st12" points="294.7,74.4 283.4,75.7 282.6,81.9 292.1,81.9 		"/>
		<rect x="283.4" y="81.9" class="st13" width="7.8" height="1"/>
		<path class="st14" d="M318,84.1H308c-0.2,0-0.3-0.2-0.3-0.3v-0.1c0-0.2,0.2-0.3,0.3-0.3H318c0.2,0,0.3,0.2,0.3,0.3v0.1
			C318.4,83.9,318.2,84.1,318,84.1z"/>
		<path class="st12" d="M308.1,84.3h-23.9c-0.4,0-0.7-0.3-0.7-0.7l0,0c0-0.4,0.3-0.7,0.7-0.7h23.9c0.4,0,0.7,0.3,0.7,0.7l0,0
			C308.8,84,308.5,84.3,308.1,84.3z"/>
		<path class="st13" d="M296.4,84.9h-15c-0.3,0-0.5-0.2-0.5-0.5v-1.6c0-0.3,0.2-0.5,0.5-0.5h15c0.3,0,0.5,0.2,0.5,0.5v1.6
			C296.9,84.7,296.7,84.9,296.4,84.9z"/>
	</g>
	<g>
		<polygon class="st12" points="294.5,69.3 283.5,69.3 282.6,63.6 292.1,63.6 		"/>
		<rect x="283.4" y="62.8" class="st13" width="7.8" height="0.8"/>
		<path class="st14" d="M318.1,61.8h-10.1c-0.2,0-0.3,0.1-0.3,0.3v0.1c0,0.2,0.1,0.3,0.3,0.3h10.1c0.2,0,0.3-0.1,0.3-0.3v-0.1
			C318.4,61.9,318.2,61.8,318.1,61.8z"/>
		<path class="st12" d="M308.2,61.6h-24.1c-0.3,0-0.5,0.2-0.5,0.5l0,0c0,0.3,0.2,0.5,0.5,0.5h24.1c0.3,0,0.5-0.2,0.5-0.5l0,0
			C308.8,61.8,308.5,61.6,308.2,61.6z"/>
		<path class="st13" d="M296.5,61.1h-15.1c-0.2,0-0.4,0.2-0.4,0.4v1.3c0,0.2,0.2,0.4,0.4,0.4h15.1c0.2,0,0.4-0.2,0.4-0.4v-1.3
			C296.9,61.3,296.7,61.1,296.5,61.1z"/>
	</g>
	<polygon class="st17" points="322.3,74.4 313,74.4 313.7,72.6 322.8,72.6 	"/>
	<path class="st11" d="M300.4,70.6h-16.8c-0.1,0-0.2-0.1-0.2-0.2l0,0c0-0.1,0.1-0.2,0.2-0.2h16.8c0.1,0,0.2,0.1,0.2,0.2l0,0
		C300.6,70.5,300.5,70.6,300.4,70.6z"/>
	<path class="st11" d="M296.2,71.5h-12.5c-0.1,0-0.2-0.1-0.2-0.2l0,0c0-0.1,0.1-0.2,0.2-0.2h12.5c0.1,0,0.2,0.1,0.2,0.2l0,0
		C296.4,71.4,296.3,71.5,296.2,71.5z"/>
	<path class="st11" d="M291.8,72.2h-8.2c-0.1,0-0.2-0.1-0.2-0.2l0,0c0-0.1,0.1-0.2,0.2-0.2h8.2c0.1,0,0.2,0.1,0.2,0.2l0,0
		C292,72.1,291.9,72.2,291.8,72.2z"/>
</g>
<g>
	<path class="st11" d="M126.3,146.9h-2.2l-1.4,0.8l3.4,2.3l7.5-1.2l0.8-0.6L126.3,146.9z M125.8,148.7l-1.7-1.1l0.2-0.4h1.4V148.7z
		 M126.6,148.7l-0.1-1.3l5.5,1L126.6,148.7z"/>
	<g>
		<g>
			<polygon class="st12" points="118.5,151.5 109.5,151.5 108.7,146.8 116.5,146.8 			"/>
			<rect x="109.4" y="146.2" class="st13" width="6.4" height="0.7"/>
			<path class="st14" d="M137.8,145.4h-8.3c-0.1,0-0.3,0.1-0.3,0.3v0.1c0,0.1,0.1,0.3,0.3,0.3h8.3c0.1,0,0.3-0.1,0.3-0.3v-0.1
				C138,145.5,137.9,145.4,137.8,145.4z"/>
			<path class="st12" d="M129.7,145.2h-19.8c-0.2,0-0.4,0.2-0.4,0.4l0,0c0,0.2,0.2,0.4,0.4,0.4h19.8c0.2,0,0.4-0.2,0.4-0.4l0,0
				C130.1,145.4,129.9,145.2,129.7,145.2z"/>
			<path class="st13" d="M120.1,144.8h-12.4c-0.2,0-0.4,0.2-0.4,0.4v1c0,0.2,0.2,0.4,0.4,0.4h12.4c0.2,0,0.4-0.2,0.4-0.4v-1
				C120.5,144.9,120.3,144.8,120.1,144.8z"/>
		</g>
		<g>
			<polygon class="st12" points="118.5,151.5 109.5,151.5 108.7,156.2 116.5,156.2 			"/>
			<rect x="109.4" y="156.2" class="st13" width="6.4" height="0.7"/>
			<path class="st14" d="M137.8,157.6h-8.3c-0.1,0-0.3-0.1-0.3-0.3v-0.1c0-0.1,0.1-0.3,0.3-0.3h8.3c0.1,0,0.3,0.1,0.3,0.3v0.1
				C138,157.5,137.9,157.6,137.8,157.6z"/>
			<path class="st12" d="M129.7,157.8h-19.8c-0.2,0-0.4-0.2-0.4-0.4l0,0c0-0.2,0.2-0.4,0.4-0.4h19.8c0.2,0,0.4,0.2,0.4,0.4l0,0
				C130.1,157.6,129.9,157.8,129.7,157.8z"/>
			<path class="st13" d="M120.1,158.2h-12.4c-0.2,0-0.4-0.2-0.4-0.4v-1c0-0.2,0.2-0.4,0.4-0.4h12.4c0.2,0,0.4,0.2,0.4,0.4v1
				C120.5,158.1,120.3,158.2,120.1,158.2z"/>
		</g>
	</g>
	<path class="st15" d="M107.3,149.8h-8.7c-0.5,0-0.9-0.4-0.9-0.9v-1.1c0-0.5,0.4-0.9,0.9-0.9h8.7c0.5,0,0.9,0.4,0.9,0.9v1.1
		C108.3,149.3,107.8,149.8,107.3,149.8z"/>
	<path class="st15" d="M107.3,154.7h-8.7c-0.5,0-0.9-0.4-0.9-0.9v-1.1c0-0.5,0.4-0.9,0.9-0.9h8.7c0.5,0,0.9,0.4,0.9,0.9v1.1
		C108.3,154.3,107.8,154.7,107.3,154.7z"/>
	<path class="st14" d="M151.8,149.5l-17.4-1.2l-7.9,1.3l-3.6-2.2l-4.2-1.8h-13l-0.6,4.1c-0.2,1.6-0.2,3.3,0.1,4.9l0.3,1.6
		c0.1,0.4,0.4,0.7,0.8,0.6l12.2-1.8l7.8-1.7h9l18.1-0.9L151.8,149.5z"/>
	<g>
		<defs>
			<polygon id="SVGID_5_" points="103.9,153.8 125.8,151 151.7,151.8 151,153.4 123.6,154.9 105.1,158.2 			"/>
		</defs>
		<clipPath id="SVGID_6_">
			<use xlink:href="#SVGID_5_"  style="overflow:visible;"/>
		</clipPath>
		<path class="st20" d="M151.8,149.5l-17.4-1.2l-7.9,1.3l-3.6-2.2l-4.2-1.8h-13l-0.6,4.1c-0.2,1.6-0.2,3.3,0.1,4.9l0.3,1.6
			c0.1,0.4,0.4,0.7,0.8,0.6l12.2-1.8l7.8-1.7h9l18.1-0.9L151.8,149.5z"/>
	</g>
	<polygon class="st17" points="152.6,152 146,152 146.5,151 153,151 	"/>
	<path class="st18" d="M149.9,152.5l1-0.5l0.4-2.7c0-0.1,0.1-0.1,0.2-0.1c0.7,0.1,4.1,0.5,6.1,2c0,0-1.3,1.5-7.5,1.6
		C150,152.8,149.9,152.6,149.9,152.5z"/>
	<g>
		<polygon class="st12" points="116.9,151.8 106.8,153 106,158.5 114.6,158.5 		"/>
		<rect x="106.8" y="158.5" class="st13" width="7" height="0.9"/>
		<path class="st14" d="M137.9,160.5h-9.1c-0.2,0-0.3-0.1-0.3-0.3v-0.1c0-0.2,0.1-0.3,0.3-0.3h9.1c0.2,0,0.3,0.1,0.3,0.3v0.1
			C138.2,160.4,138.1,160.5,137.9,160.5z"/>
		<path class="st12" d="M129,160.7h-21.5c-0.3,0-0.6-0.3-0.6-0.6l0,0c0-0.3,0.3-0.6,0.6-0.6H129c0.3,0,0.6,0.3,0.6,0.6l0,0
			C129.5,160.5,129.3,160.7,129,160.7z"/>
		<path class="st13" d="M118.5,161.3H105c-0.2,0-0.4-0.2-0.4-0.4v-1.4c0-0.2,0.2-0.4,0.4-0.4h13.5c0.2,0,0.4,0.2,0.4,0.4v1.4
			C118.9,161.1,118.7,161.3,118.5,161.3z"/>
	</g>
	<g>
		<polygon class="st12" points="116.7,147.2 106.9,147.2 106,142.1 114.6,142.1 		"/>
		<rect x="106.8" y="141.4" class="st13" width="7" height="0.7"/>
		<path class="st14" d="M137.9,140.5h-9.1c-0.2,0-0.3,0.1-0.3,0.3v0.1c0,0.2,0.1,0.3,0.3,0.3h9.1c0.2,0,0.3-0.1,0.3-0.3v-0.1
			C138.2,140.6,138.1,140.5,137.9,140.5z"/>
		<path class="st12" d="M129.1,140.3h-21.7c-0.3,0-0.5,0.2-0.5,0.5l0,0c0,0.3,0.2,0.5,0.5,0.5h21.7c0.3,0,0.5-0.2,0.5-0.5l0,0
			C129.5,140.5,129.3,140.3,129.1,140.3z"/>
		<path class="st13" d="M118.5,139.8h-13.6c-0.2,0-0.4,0.2-0.4,0.4v1.1c0,0.2,0.2,0.4,0.4,0.4h13.6c0.2,0,0.4-0.2,0.4-0.4v-1.1
			C118.9,140,118.7,139.8,118.5,139.8z"/>
	</g>
	<polygon class="st17" points="141.7,151.8 133.4,151.8 133.9,150.2 142.1,150.2 	"/>
	<path class="st11" d="M122,148.4H107c-0.1,0-0.2-0.1-0.2-0.2l0,0c0-0.1,0.1-0.2,0.2-0.2H122c0.1,0,0.2,0.1,0.2,0.2l0,0
		C122.3,148.4,122.2,148.4,122,148.4z"/>
	<path class="st11" d="M118.3,149.2H107c-0.1,0-0.2-0.1-0.2-0.2l0,0c0-0.1,0.1-0.2,0.2-0.2h11.3c0.1,0,0.2,0.1,0.2,0.2l0,0
		C118.5,149.1,118.4,149.2,118.3,149.2z"/>
	<path class="st11" d="M114.3,149.9H107c-0.1,0-0.2-0.1-0.2-0.2l0,0c0-0.1,0.1-0.2,0.2-0.2h7.3c0.1,0,0.2,0.1,0.2,0.2l0,0
		C114.5,149.8,114.4,149.9,114.3,149.9z"/>
</g>
<g id="Layer_8">
	
		<linearGradient id="SVGID_7_" gradientUnits="userSpaceOnUse" x1="400" y1="516" x2="400" y2="766" gradientTransform="matrix(1 0 0 1 0 -516)">
		<stop  offset="0" style="stop-color:#666666"/>
		<stop  offset="1" style="stop-color:#333333"/>
	</linearGradient>
	<rect class="st21" width="800" height="250"/>
</g>
</svg>
