<svg xmlns="http://www.w3.org/2000/svg" width="313" height="316.927" viewBox="0 0 313 316.927">
  <g id="Layer_2" data-name="Layer 2">
    <g id="Layer_4" data-name="Layer 4">
      <g>
        <g>
          <g>
            <path d="M177.5,281.427v-95.5a65.5,65.5,0,1,1,131,0v95.5Z" fill="#fff"/>
            <path d="M243,121.927a64.072,64.072,0,0,1,64,64v94H179v-94a64.072,64.072,0,0,1,64-64m0-3a67,67,0,0,0-67,67v97H310v-97a67,67,0,0,0-67-67Z"/>
          </g>
          <g>
            <path d="M225.934,170.036l-.771-4.436L221,125.927l-9.845,3,6.264,36.8L179,173.025v5.513l42.889-3.3a4.45,4.45,0,0,0,3.91-3.132h.056l-.014-.133A4.432,4.432,0,0,0,225.934,170.036Z"/>
            <path d="M269.581,165.546l6.264-36.8-9.845-3-4.163,39.673-.771,4.436a4.432,4.432,0,0,0,.093,1.938l-.014.133h.056a4.45,4.45,0,0,0,3.91,3.132l42.889,3.3v-5.513Z"/>
            <path d="M236,159.927a2,2,0,0,0,2-2v-15a2,2,0,0,0-4,0v15A2,2,0,0,0,236,159.927Z"/>
            <path d="M243.5,159.927a2,2,0,0,0,2-2v-15a2,2,0,0,0-4,0v15A2,2,0,0,0,243.5,159.927Z"/>
            <path d="M251,159.927a2,2,0,0,0,2-2v-15a2,2,0,0,0-4,0v15A2,2,0,0,0,251,159.927Z"/>
            <path d="M213.929,182.427h-6.858A6.579,6.579,0,0,0,200.5,189v25.858a6.579,6.579,0,0,0,6.571,6.571h6.858a6.579,6.579,0,0,0,6.571-6.571V189A6.579,6.579,0,0,0,213.929,182.427Zm3.571,32.429a3.576,3.576,0,0,1-3.571,3.571h-6.858a3.576,3.576,0,0,1-3.571-3.571V189a3.575,3.575,0,0,1,3.571-3.571h6.858A3.575,3.575,0,0,1,217.5,189Z"/>
            <path d="M247.179,182.927h-6.858a6.579,6.579,0,0,0-6.571,6.571v25.858a6.579,6.579,0,0,0,6.571,6.571h6.858a6.579,6.579,0,0,0,6.571-6.571V189.5A6.579,6.579,0,0,0,247.179,182.927Zm3.571,32.429a3.576,3.576,0,0,1-3.571,3.571h-6.858a3.576,3.576,0,0,1-3.571-3.571V189.5a3.575,3.575,0,0,1,3.571-3.571h6.858a3.576,3.576,0,0,1,3.571,3.571Z"/>
            <path d="M280.429,182.927h-6.858A6.579,6.579,0,0,0,267,189.5v25.858a6.579,6.579,0,0,0,6.571,6.571h6.858A6.579,6.579,0,0,0,287,215.356V189.5A6.579,6.579,0,0,0,280.429,182.927ZM284,215.356a3.576,3.576,0,0,1-3.571,3.571h-6.858A3.576,3.576,0,0,1,270,215.356V189.5a3.576,3.576,0,0,1,3.571-3.571h6.858A3.576,3.576,0,0,1,284,189.5Z"/>
          </g>
          <g>
            <path d="M300.462,100.559,293.044,84.33V51.441A49.755,49.755,0,0,0,243.289,1.687h0a49.755,49.755,0,0,0-49.755,49.754V84.33l-7.8,16.054a9.352,9.352,0,0,0-.336,7.391l5.5,14.564a9.351,9.351,0,0,0,10.011,5.961l42.1-5.74,42.517,5.732a9.35,9.35,0,0,0,10.06-6.134l5.184-14.579A9.352,9.352,0,0,0,300.462,100.559Z" fill="#fff"/>
            <rect x="194.658" y="45.538" width="97.823" height="5.622" fill="#666"/>
            <g>
              <path d="M302,99.858l-7.266-15.9V51.441a51.442,51.442,0,0,0-102.883,0v32.5l-7.628,15.706a11.085,11.085,0,0,0-.4,8.723l5.5,14.565a10.979,10.979,0,0,0,10.295,7.139,11.208,11.208,0,0,0,1.522-.1l41.868-5.709,42.291,5.7a11.088,11.088,0,0,0,11.874-7.241l5.184-14.578A10.98,10.98,0,0,0,302,99.858ZM291.35,51.16H195.228a48.281,48.281,0,0,1,.368-5.622h95.385A48.063,48.063,0,0,1,291.35,51.16ZM221.363,74.21c8.744,0,16.543-3.343,21.645-8.567,5.1,5.224,12.9,8.567,21.644,8.567a30.733,30.733,0,0,0,20.113-7.128l-24.31,36.1a.016.016,0,0,1-.024,0L244.093,89.457c-.007,0-.014-.008-.02-.013a1.646,1.646,0,0,0-.156-.106c-.042-.027-.082-.058-.126-.081a1.533,1.533,0,0,0-.145-.061c-.054-.022-.106-.047-.162-.064s-.086-.017-.13-.026a1.727,1.727,0,0,0-.188-.035c-.045,0-.09,0-.136,0a1.631,1.631,0,0,0-.185,0,1.484,1.484,0,0,0-.148.028,1.579,1.579,0,0,0-.169.034c-.048.014-.093.037-.139.055a1.422,1.422,0,0,0-.166.07c-.041.021-.079.05-.118.075a1.8,1.8,0,0,0-.163.111l-.019.013-16.347,13.734a.017.017,0,0,1-.024,0L200.437,66.347A30.482,30.482,0,0,0,221.363,74.21Zm69.994-16.565v.248c-.032.011-.065.021-.1.034C291.3,57.834,291.324,57.739,291.357,57.645ZM243.289,3.373a48.138,48.138,0,0,1,47.262,39.354H196.027A48.137,48.137,0,0,1,243.289,3.373ZM299.18,107.015,294,121.593a7.7,7.7,0,0,1-8.245,5.028l-42.518-5.733-.227-.03-42.321,5.771a7.631,7.631,0,0,1-8.205-4.886l-5.5-14.565a7.7,7.7,0,0,1,.275-6.057l7.968-16.4V64.683l28.6,41.961a1.68,1.68,0,0,0,1.163.72,1.627,1.627,0,0,0,.23.016,1.683,1.683,0,0,0,1.085-.395L243,92.96a.017.017,0,0,1,.021,0l16.693,14.025a1.687,1.687,0,0,0,1.085.395,1.791,1.791,0,0,0,.77-.179,1.7,1.7,0,0,0,.652-.6l29.139-43.269V84.7l7.572,16.563A7.634,7.634,0,0,1,299.18,107.015Z"/>
              <path d="M199.517,97.588a3.092,3.092,0,0,0-5.865,1.961l5.705,17.062a3.092,3.092,0,1,0,5.865-1.961Z"/>
              <path d="M207.614,105.532a1.766,1.766,0,0,0-3.349,1.12l3.257,9.741a1.766,1.766,0,0,0,3.349-1.12Z"/>
              <path d="M289.849,95.636a3.091,3.091,0,0,0-3.913,1.952l-5.7,17.062a3.092,3.092,0,1,0,5.865,1.961l5.7-17.062A3.093,3.093,0,0,0,289.849,95.636Z"/>
            </g>
          </g>
        </g>
        <g>
          <g>
            <path d="M4.5,281.427v-95.5a65.5,65.5,0,0,1,131,0v95.5Z" fill="#fff"/>
            <path d="M70,121.927a64.072,64.072,0,0,1,64,64v94H6v-94a64.072,64.072,0,0,1,64-64m0-3a67,67,0,0,0-67,67v97H137v-97a67,67,0,0,0-67-67Z"/>
          </g>
          <g>
            <path d="M52.934,170.036l-.771-4.436L48,125.927l-9.845,3,6.264,36.8L6,173.025v5.513l42.889-3.3a4.45,4.45,0,0,0,3.91-3.132h.056l-.014-.133A4.432,4.432,0,0,0,52.934,170.036Z"/>
            <path d="M96.581,165.546l6.264-36.8-9.845-3L88.837,165.42l-.771,4.436a4.432,4.432,0,0,0,.093,1.938l-.014.133H88.2a4.45,4.45,0,0,0,3.91,3.132l42.889,3.3v-5.513Z"/>
            <path d="M63,159.927a2,2,0,0,0,2-2v-15a2,2,0,0,0-4,0v15A2,2,0,0,0,63,159.927Z"/>
            <path d="M70.5,159.927a2,2,0,0,0,2-2v-15a2,2,0,0,0-4,0v15A2,2,0,0,0,70.5,159.927Z"/>
            <path d="M78,159.927a2,2,0,0,0,2-2v-15a2,2,0,0,0-4,0v15A2,2,0,0,0,78,159.927Z"/>
            <path d="M40.929,182.427H34.071A6.579,6.579,0,0,0,27.5,189v25.858a6.579,6.579,0,0,0,6.571,6.571h6.858a6.579,6.579,0,0,0,6.571-6.571V189A6.579,6.579,0,0,0,40.929,182.427ZM44.5,214.856a3.576,3.576,0,0,1-3.571,3.571H34.071a3.576,3.576,0,0,1-3.571-3.571V189a3.575,3.575,0,0,1,3.571-3.571h6.858A3.575,3.575,0,0,1,44.5,189Z"/>
            <path d="M74.179,182.927H67.321A6.579,6.579,0,0,0,60.75,189.5v25.858a6.579,6.579,0,0,0,6.571,6.571h6.858a6.579,6.579,0,0,0,6.571-6.571V189.5A6.579,6.579,0,0,0,74.179,182.927Zm3.571,32.429a3.576,3.576,0,0,1-3.571,3.571H67.321a3.576,3.576,0,0,1-3.571-3.571V189.5a3.575,3.575,0,0,1,3.571-3.571h6.858A3.576,3.576,0,0,1,77.75,189.5Z"/>
            <path d="M107.429,182.927h-6.858A6.579,6.579,0,0,0,94,189.5v25.858a6.579,6.579,0,0,0,6.571,6.571h6.858A6.579,6.579,0,0,0,114,215.356V189.5A6.579,6.579,0,0,0,107.429,182.927ZM111,215.356a3.576,3.576,0,0,1-3.571,3.571h-6.858A3.576,3.576,0,0,1,97,215.356V189.5a3.576,3.576,0,0,1,3.571-3.571h6.858A3.576,3.576,0,0,1,111,189.5Z"/>
          </g>
          <g>
            <path d="M127.462,100.559,120.044,84.33V51.441A49.755,49.755,0,0,0,70.289,1.687h0A49.755,49.755,0,0,0,20.534,51.441V84.33l-7.8,16.054a9.352,9.352,0,0,0-.336,7.391l5.5,14.564A9.351,9.351,0,0,0,27.913,128.3l42.1-5.74,42.517,5.732a9.35,9.35,0,0,0,10.06-6.134l5.184-14.579A9.352,9.352,0,0,0,127.462,100.559Z" fill="#fff"/>
            <rect x="21.658" y="45.538" width="97.823" height="5.622" fill="#666"/>
            <g>
              <path d="M129,99.858l-7.266-15.9V51.441a51.442,51.442,0,0,0-102.883,0v32.5L11.219,99.648a11.085,11.085,0,0,0-.4,8.723l5.5,14.565a10.979,10.979,0,0,0,10.295,7.139,11.208,11.208,0,0,0,1.522-.1l41.868-5.709,42.291,5.7a11.088,11.088,0,0,0,11.874-7.241l5.184-14.578A10.98,10.98,0,0,0,129,99.858ZM118.35,51.16H22.228a48.281,48.281,0,0,1,.368-5.622h95.385A48.063,48.063,0,0,1,118.35,51.16ZM48.363,74.21c8.744,0,16.543-3.343,21.645-8.567,5.1,5.224,12.9,8.567,21.644,8.567a30.733,30.733,0,0,0,20.113-7.128l-24.31,36.1a.016.016,0,0,1-.024,0L71.093,89.457c-.007,0-.014-.008-.02-.013a1.646,1.646,0,0,0-.156-.106c-.042-.027-.082-.058-.126-.081a1.533,1.533,0,0,0-.145-.061c-.054-.022-.106-.047-.162-.064s-.086-.017-.13-.026a1.727,1.727,0,0,0-.188-.035c-.045,0-.09,0-.136,0a1.631,1.631,0,0,0-.185,0,1.484,1.484,0,0,0-.148.028,1.579,1.579,0,0,0-.169.034c-.048.014-.093.037-.139.055a1.422,1.422,0,0,0-.166.07c-.041.021-.079.05-.118.075a1.8,1.8,0,0,0-.163.111l-.019.013L52.576,103.191a.017.017,0,0,1-.024,0L27.437,66.347A30.482,30.482,0,0,0,48.363,74.21Zm69.994-16.565v.248c-.032.011-.065.021-.1.034C118.3,57.834,118.324,57.739,118.357,57.645ZM70.289,3.373a48.138,48.138,0,0,1,47.262,39.354H23.027A48.137,48.137,0,0,1,70.289,3.373ZM126.18,107.015,121,121.593a7.7,7.7,0,0,1-8.245,5.028l-42.518-5.733-.227-.03-42.321,5.771a7.631,7.631,0,0,1-8.2-4.886l-5.5-14.565a7.7,7.7,0,0,1,.275-6.057l7.968-16.4V64.683l28.605,41.961a1.68,1.68,0,0,0,1.163.72,1.627,1.627,0,0,0,.23.016,1.683,1.683,0,0,0,1.085-.395L70,92.96a.017.017,0,0,1,.021,0l16.693,14.025a1.687,1.687,0,0,0,1.085.395,1.791,1.791,0,0,0,.77-.179,1.7,1.7,0,0,0,.652-.6l29.139-43.269V84.7l7.572,16.563A7.634,7.634,0,0,1,126.18,107.015Z"/>
              <path d="M26.517,97.588a3.092,3.092,0,1,0-5.865,1.961l5.7,17.062a3.092,3.092,0,1,0,5.865-1.961Z"/>
              <path d="M34.614,105.532a1.766,1.766,0,0,0-3.349,1.12l3.257,9.741a1.766,1.766,0,0,0,3.349-1.12Z"/>
              <path d="M116.849,95.636a3.091,3.091,0,0,0-3.913,1.952l-5.705,17.062a3.092,3.092,0,0,0,5.865,1.961l5.7-17.062A3.093,3.093,0,0,0,116.849,95.636Z"/>
            </g>
          </g>
        </g>
        <g>
          <g>
            <path d="M91.5,315.427v-95.5a65.5,65.5,0,0,1,131,0v95.5Z" fill="#fff"/>
            <path d="M157,155.927a64.072,64.072,0,0,1,64,64v94H93v-94a64.072,64.072,0,0,1,64-64m0-3a67,67,0,0,0-67,67v97H224v-97a67,67,0,0,0-67-67Z"/>
          </g>
          <g>
            <path d="M139.934,204.036l-.771-4.436L135,159.927l-9.845,3,6.264,36.8L93,207.025v5.513l42.889-3.3a4.45,4.45,0,0,0,3.91-3.132h.056l-.014-.133A4.432,4.432,0,0,0,139.934,204.036Z"/>
            <path d="M183.581,199.546l6.264-36.8-9.845-3-4.163,39.673-.771,4.436a4.432,4.432,0,0,0,.093,1.938l-.014.133h.056a4.45,4.45,0,0,0,3.91,3.132l42.889,3.3v-5.513Z"/>
            <path d="M150,193.927a2,2,0,0,0,2-2v-15a2,2,0,0,0-4,0v15A2,2,0,0,0,150,193.927Z"/>
            <path d="M157.5,193.927a2,2,0,0,0,2-2v-15a2,2,0,0,0-4,0v15A2,2,0,0,0,157.5,193.927Z"/>
            <path d="M165,193.927a2,2,0,0,0,2-2v-15a2,2,0,0,0-4,0v15A2,2,0,0,0,165,193.927Z"/>
            <path d="M127.929,216.427h-6.858A6.579,6.579,0,0,0,114.5,223v25.858a6.579,6.579,0,0,0,6.571,6.571h6.858a6.579,6.579,0,0,0,6.571-6.571V223A6.579,6.579,0,0,0,127.929,216.427Zm3.571,32.429a3.576,3.576,0,0,1-3.571,3.571h-6.858a3.576,3.576,0,0,1-3.571-3.571V223a3.575,3.575,0,0,1,3.571-3.571h6.858A3.575,3.575,0,0,1,131.5,223Z"/>
            <path d="M161.179,216.927h-6.858a6.579,6.579,0,0,0-6.571,6.571v25.858a6.579,6.579,0,0,0,6.571,6.571h6.858a6.579,6.579,0,0,0,6.571-6.571V223.5A6.579,6.579,0,0,0,161.179,216.927Zm3.571,32.429a3.576,3.576,0,0,1-3.571,3.571h-6.858a3.576,3.576,0,0,1-3.571-3.571V223.5a3.575,3.575,0,0,1,3.571-3.571h6.858a3.576,3.576,0,0,1,3.571,3.571Z"/>
            <path d="M194.429,216.927h-6.858A6.579,6.579,0,0,0,181,223.5v25.858a6.579,6.579,0,0,0,6.571,6.571h6.858A6.579,6.579,0,0,0,201,249.356V223.5A6.579,6.579,0,0,0,194.429,216.927ZM198,249.356a3.576,3.576,0,0,1-3.571,3.571h-6.858A3.576,3.576,0,0,1,184,249.356V223.5a3.576,3.576,0,0,1,3.571-3.571h6.858A3.576,3.576,0,0,1,198,223.5Z"/>
          </g>
          <g>
            <path d="M214.462,134.559l-7.418-16.229V85.441a49.755,49.755,0,0,0-49.755-49.754h0a49.755,49.755,0,0,0-49.755,49.754V118.33l-7.8,16.054a9.352,9.352,0,0,0-.336,7.391l5.5,14.564a9.351,9.351,0,0,0,10.011,5.961l42.1-5.74,42.517,5.732a9.35,9.35,0,0,0,10.06-6.134l5.184-14.579A9.352,9.352,0,0,0,214.462,134.559Z" fill="#fff"/>
            <rect x="108.658" y="79.538" width="97.823" height="5.622" fill="#666"/>
            <g>
              <path d="M216,133.858l-7.266-15.9V85.441a51.442,51.442,0,0,0-102.883,0v32.5l-7.628,15.706a11.085,11.085,0,0,0-.4,8.723l5.5,14.565a10.979,10.979,0,0,0,10.3,7.139,11.208,11.208,0,0,0,1.522-.1l41.868-5.709,42.291,5.7a11.088,11.088,0,0,0,11.874-7.241l5.184-14.578A10.98,10.98,0,0,0,216,133.858ZM205.35,85.16H109.228a48.281,48.281,0,0,1,.368-5.622h95.385A48.063,48.063,0,0,1,205.35,85.16Zm-69.987,23.05c8.744,0,16.543-3.343,21.645-8.567,5.1,5.224,12.9,8.567,21.644,8.567a30.733,30.733,0,0,0,20.113-7.128l-24.31,36.1a.016.016,0,0,1-.024,0l-16.338-13.727c-.007,0-.014-.008-.02-.013a1.646,1.646,0,0,0-.156-.106c-.042-.027-.082-.058-.126-.081a1.533,1.533,0,0,0-.145-.061c-.054-.022-.106-.047-.162-.064s-.086-.017-.13-.026a1.727,1.727,0,0,0-.188-.035c-.045,0-.09,0-.136,0a1.631,1.631,0,0,0-.185,0,1.484,1.484,0,0,0-.148.028,1.579,1.579,0,0,0-.169.034c-.048.014-.093.037-.139.055a1.422,1.422,0,0,0-.166.07c-.041.021-.079.05-.118.075a1.8,1.8,0,0,0-.163.111l-.019.013-16.347,13.734a.017.017,0,0,1-.024,0l-25.115-36.841A30.482,30.482,0,0,0,135.363,108.21Zm69.994-16.565v.248c-.032.011-.065.021-.1.034C205.3,91.834,205.324,91.739,205.357,91.645ZM157.289,37.373a48.138,48.138,0,0,1,47.262,39.354H110.027A48.137,48.137,0,0,1,157.289,37.373ZM213.18,141.015,208,155.593a7.7,7.7,0,0,1-8.245,5.028l-42.518-5.733-.227-.03-42.321,5.771a7.631,7.631,0,0,1-8.2-4.886l-5.5-14.565a7.7,7.7,0,0,1,.275-6.057l7.968-16.4V98.683l28.6,41.961a1.68,1.68,0,0,0,1.163.72,1.627,1.627,0,0,0,.23.016,1.683,1.683,0,0,0,1.085-.395L157,126.96a.017.017,0,0,1,.021,0l16.693,14.025a1.687,1.687,0,0,0,1.085.395,1.791,1.791,0,0,0,.77-.179,1.7,1.7,0,0,0,.652-.6l29.139-43.269V118.7l7.572,16.563A7.634,7.634,0,0,1,213.18,141.015Z"/>
              <path d="M113.517,131.588a3.092,3.092,0,0,0-5.865,1.961l5.7,17.062a3.092,3.092,0,1,0,5.865-1.961Z"/>
              <path d="M121.614,139.532a1.766,1.766,0,0,0-3.349,1.12l3.257,9.741a1.766,1.766,0,0,0,3.349-1.12Z"/>
              <path d="M203.849,129.636a3.091,3.091,0,0,0-3.913,1.952l-5.705,17.062a3.092,3.092,0,0,0,5.865,1.961l5.7-17.062A3.093,3.093,0,0,0,203.849,129.636Z"/>
            </g>
          </g>
        </g>
        <g>
          <g>
            <path d="M1.5,315.427v-36.8a54.5,54.5,0,0,1,109,0v36.8Z" fill="#fff"/>
            <path d="M56,225.627a53.06,53.06,0,0,1,53,53v35.3H3v-35.3a53.06,53.06,0,0,1,53-53m0-3a56,56,0,0,0-56,56v38.3H112v-38.3a56,56,0,0,0-56-56Z"/>
          </g>
          <g>
            <path d="M41.736,265.345l-.645-3.708-3.479-33.159-8.228,2.507,5.235,30.757-32.112,6.1v4.607l35.848-2.758a3.717,3.717,0,0,0,3.268-2.617h.047l-.012-.111A3.711,3.711,0,0,0,41.736,265.345Z"/>
            <path d="M78.217,261.592l5.235-30.757-8.228-2.508-3.479,33.16L71.1,265.2a3.7,3.7,0,0,0,.078,1.62l-.012.11h.047a3.718,3.718,0,0,0,3.268,2.618l35.847,2.758v-4.608Z"/>
            <path d="M50.149,256.9a1.672,1.672,0,0,0,1.672-1.671V242.687a1.672,1.672,0,1,0-3.343,0v12.537A1.671,1.671,0,0,0,50.149,256.9Z"/>
            <path d="M56.418,256.9a1.672,1.672,0,0,0,1.672-1.671V242.687a1.672,1.672,0,1,0-3.344,0v12.537A1.672,1.672,0,0,0,56.418,256.9Z"/>
            <path d="M62.687,256.9a1.671,1.671,0,0,0,1.671-1.671V242.687a1.672,1.672,0,1,0-3.343,0v12.537A1.671,1.671,0,0,0,62.687,256.9Z"/>
            <path d="M31.7,275.7H25.97a5.5,5.5,0,0,0-5.492,5.493v21.612A5.5,5.5,0,0,0,25.97,308.3H31.7a5.5,5.5,0,0,0,5.492-5.492V281.194A5.5,5.5,0,0,0,31.7,275.7Zm2.985,27.1a2.988,2.988,0,0,1-2.985,2.985H25.97a2.988,2.988,0,0,1-2.985-2.985V281.194a2.988,2.988,0,0,1,2.985-2.985H31.7a2.988,2.988,0,0,1,2.985,2.985Z"/>
            <path d="M59.493,276.119H53.761a5.5,5.5,0,0,0-5.492,5.493v21.612a5.5,5.5,0,0,0,5.492,5.492h5.732a5.5,5.5,0,0,0,5.492-5.492V281.612A5.5,5.5,0,0,0,59.493,276.119Zm2.985,27.1a2.99,2.99,0,0,1-2.985,2.985H53.761a2.989,2.989,0,0,1-2.985-2.985V281.612a2.988,2.988,0,0,1,2.985-2.985h5.732a2.989,2.989,0,0,1,2.985,2.985Z"/>
            <path d="M87.284,276.119H81.552a5.5,5.5,0,0,0-5.492,5.493v21.612a5.5,5.5,0,0,0,5.492,5.492h5.732a5.5,5.5,0,0,0,5.492-5.492V281.612A5.5,5.5,0,0,0,87.284,276.119Zm2.985,27.1a2.99,2.99,0,0,1-2.985,2.985H81.552a2.99,2.99,0,0,1-2.985-2.985V281.612a2.989,2.989,0,0,1,2.985-2.985h5.732a2.989,2.989,0,0,1,2.985,2.985Z"/>
          </g>
          <g>
            <path d="M104.028,207.275l-6.2-13.565V166.221a41.586,41.586,0,0,0-41.586-41.586h0a41.586,41.586,0,0,0-41.586,41.586V193.71L8.138,207.129a7.813,7.813,0,0,0-.281,6.177l4.6,12.173a7.815,7.815,0,0,0,8.367,4.982l35.183-4.8,35.537,4.792a7.816,7.816,0,0,0,8.409-5.127l4.332-12.186A7.813,7.813,0,0,0,104.028,207.275Z" fill="#fff"/>
            <rect x="15.595" y="161.287" width="81.762" height="4.699" fill="#666"/>
            <g>
              <path d="M105.31,206.689,99.237,193.4V166.221a43,43,0,1,0-85.991,0v27.165L6.87,206.513a9.262,9.262,0,0,0-.332,7.291l4.6,12.174a9.175,9.175,0,0,0,8.6,5.967,9.441,9.441,0,0,0,1.272-.087l35-4.772,35.347,4.766a9.268,9.268,0,0,0,9.925-6.052l4.333-12.185A9.177,9.177,0,0,0,105.31,206.689Zm-8.9-40.7H16.071a40.26,40.26,0,0,1,.308-4.7H96.1A40.26,40.26,0,0,1,96.412,165.986Zm-58.5,19.266a25.281,25.281,0,0,0,18.091-7.161A25.285,25.285,0,0,0,74.1,185.252a25.688,25.688,0,0,0,16.81-5.958L70.589,209.466a.014.014,0,0,1-.02,0L56.913,198l-.016-.012a1.562,1.562,0,0,0-.13-.088c-.036-.023-.069-.049-.106-.068s-.08-.034-.121-.051-.089-.039-.135-.053-.073-.015-.109-.022a1.4,1.4,0,0,0-.157-.029,1.084,1.084,0,0,0-.114,0,1.337,1.337,0,0,0-.155,0c-.041,0-.082.015-.123.023a1.374,1.374,0,0,0-.142.029c-.039.012-.077.03-.116.045a1.413,1.413,0,0,0-.139.059c-.034.018-.065.042-.1.063a1.363,1.363,0,0,0-.136.093L55.1,198,41.437,209.475a.013.013,0,0,1-.02,0L20.425,178.679A25.476,25.476,0,0,0,37.915,185.252Zm58.5-13.846v.207c-.027.01-.055.018-.081.029C96.366,171.564,96.39,171.485,96.418,171.406ZM56.241,126.045a40.234,40.234,0,0,1,39.5,32.893h-79A40.234,40.234,0,0,1,56.241,126.045Zm46.715,86.625-4.332,12.185a6.441,6.441,0,0,1-6.892,4.2L56.2,224.266l-.19-.025-35.372,4.823a6.378,6.378,0,0,1-6.859-4.083l-4.6-12.174a6.433,6.433,0,0,1,.231-5.062l6.659-13.71V177.289L39.974,212.36a1.409,1.409,0,0,0,2.071.286L56,200.924a.012.012,0,0,1,.017,0l13.953,11.722a1.411,1.411,0,0,0,.906.33,1.491,1.491,0,0,0,.644-.15,1.418,1.418,0,0,0,.545-.5l24.355-36.166v17.858l6.328,13.844A6.374,6.374,0,0,1,102.956,212.67Z"/>
              <path d="M19.656,204.791a2.584,2.584,0,0,0-4.9,1.639l4.768,14.261a2.584,2.584,0,1,0,4.9-1.639Z"/>
              <path d="M26.423,211.431a1.475,1.475,0,1,0-2.8.936l2.722,8.142a1.476,1.476,0,0,0,2.8-.936Z"/>
              <path d="M95.157,203.16a2.583,2.583,0,0,0-3.27,1.631l-4.768,14.261a2.584,2.584,0,1,0,4.9,1.639l4.768-14.261A2.584,2.584,0,0,0,95.157,203.16Z"/>
            </g>
          </g>
        </g>
        <g>
          <g>
            <path d="M202.5,315.427v-36.8a54.5,54.5,0,1,1,109,0v36.8Z" fill="#fff"/>
            <path d="M257,225.627a53.06,53.06,0,0,1,53,53v35.3H204v-35.3a53.06,53.06,0,0,1,53-53m0-3a56,56,0,0,0-56,56v38.3H313v-38.3a56,56,0,0,0-56-56Z"/>
          </g>
          <g>
            <path d="M242.736,265.345l-.645-3.708-3.479-33.159-8.228,2.507,5.235,30.757-32.112,6.1v4.607l35.848-2.758a3.717,3.717,0,0,0,3.268-2.617h.047l-.012-.111A3.711,3.711,0,0,0,242.736,265.345Z"/>
            <path d="M279.217,261.592l5.235-30.757-8.228-2.508-3.479,33.16L272.1,265.2a3.7,3.7,0,0,0,.078,1.62l-.012.11h.047a3.718,3.718,0,0,0,3.268,2.618l35.847,2.758v-4.608Z"/>
            <path d="M251.149,256.9a1.672,1.672,0,0,0,1.672-1.671V242.687a1.672,1.672,0,1,0-3.343,0v12.537A1.671,1.671,0,0,0,251.149,256.9Z"/>
            <path d="M257.418,256.9a1.672,1.672,0,0,0,1.672-1.671V242.687a1.672,1.672,0,0,0-3.344,0v12.537A1.672,1.672,0,0,0,257.418,256.9Z"/>
            <path d="M263.687,256.9a1.671,1.671,0,0,0,1.671-1.671V242.687a1.672,1.672,0,1,0-3.343,0v12.537A1.671,1.671,0,0,0,263.687,256.9Z"/>
            <path d="M232.7,275.7H226.97a5.5,5.5,0,0,0-5.492,5.493v21.612a5.5,5.5,0,0,0,5.492,5.492H232.7a5.5,5.5,0,0,0,5.492-5.492V281.194A5.5,5.5,0,0,0,232.7,275.7Zm2.985,27.1a2.988,2.988,0,0,1-2.985,2.985H226.97a2.988,2.988,0,0,1-2.985-2.985V281.194a2.988,2.988,0,0,1,2.985-2.985H232.7a2.988,2.988,0,0,1,2.985,2.985Z"/>
            <path d="M260.493,276.119h-5.732a5.5,5.5,0,0,0-5.492,5.493v21.612a5.5,5.5,0,0,0,5.492,5.492h5.732a5.5,5.5,0,0,0,5.492-5.492V281.612A5.5,5.5,0,0,0,260.493,276.119Zm2.985,27.1a2.99,2.99,0,0,1-2.985,2.985h-5.732a2.989,2.989,0,0,1-2.985-2.985V281.612a2.988,2.988,0,0,1,2.985-2.985h5.732a2.989,2.989,0,0,1,2.985,2.985Z"/>
            <path d="M288.284,276.119h-5.732a5.5,5.5,0,0,0-5.492,5.493v21.612a5.5,5.5,0,0,0,5.492,5.492h5.732a5.5,5.5,0,0,0,5.492-5.492V281.612A5.5,5.5,0,0,0,288.284,276.119Zm2.985,27.1a2.99,2.99,0,0,1-2.985,2.985h-5.732a2.99,2.99,0,0,1-2.985-2.985V281.612a2.989,2.989,0,0,1,2.985-2.985h5.732a2.989,2.989,0,0,1,2.985,2.985Z"/>
          </g>
          <g>
            <path d="M305.028,207.275l-6.2-13.565V166.221a41.586,41.586,0,0,0-41.586-41.586h0a41.586,41.586,0,0,0-41.586,41.586V193.71l-6.517,13.419a7.813,7.813,0,0,0-.281,6.177l4.6,12.173a7.815,7.815,0,0,0,8.367,4.982l35.183-4.8,35.537,4.792a7.816,7.816,0,0,0,8.409-5.127l4.332-12.186A7.813,7.813,0,0,0,305.028,207.275Z" fill="#fff"/>
            <rect x="216.595" y="161.287" width="81.762" height="4.699" fill="#666"/>
            <g>
              <path d="M306.31,206.689,300.237,193.4V166.221a43,43,0,1,0-85.991,0v27.165l-6.376,13.127a9.262,9.262,0,0,0-.332,7.291l4.6,12.174a9.175,9.175,0,0,0,8.6,5.967,9.441,9.441,0,0,0,1.272-.087l34.995-4.772,35.347,4.766a9.268,9.268,0,0,0,9.925-6.052l4.333-12.185A9.177,9.177,0,0,0,306.31,206.689Zm-8.9-40.7H217.071a40.26,40.26,0,0,1,.308-4.7H297.1A40.26,40.26,0,0,1,297.412,165.986Zm-58.5,19.266a25.281,25.281,0,0,0,18.091-7.161,25.285,25.285,0,0,0,18.092,7.161,25.688,25.688,0,0,0,16.81-5.958l-20.319,30.172a.014.014,0,0,1-.02,0L257.913,198l-.016-.012a1.562,1.562,0,0,0-.13-.088c-.036-.023-.069-.049-.106-.068s-.08-.034-.121-.051-.089-.039-.135-.053-.073-.015-.109-.022a1.4,1.4,0,0,0-.157-.029,1.084,1.084,0,0,0-.114,0,1.337,1.337,0,0,0-.155,0c-.041,0-.082.015-.123.023a1.374,1.374,0,0,0-.142.029c-.039.012-.077.03-.116.045a1.413,1.413,0,0,0-.139.059c-.034.018-.065.042-.1.063a1.363,1.363,0,0,0-.136.093L256.1,198l-13.663,11.479a.013.013,0,0,1-.02,0l-20.992-30.793A25.476,25.476,0,0,0,238.915,185.252Zm58.5-13.846v.207c-.027.01-.055.018-.081.029C297.366,171.564,297.39,171.485,297.418,171.406Zm-40.177-45.361a40.234,40.234,0,0,1,39.5,32.893H217.739A40.234,40.234,0,0,1,257.241,126.045Zm46.715,86.625-4.332,12.185a6.441,6.441,0,0,1-6.892,4.2L257.2,224.266l-.19-.025-35.372,4.823a6.378,6.378,0,0,1-6.859-4.083l-4.6-12.174a6.433,6.433,0,0,1,.231-5.062l6.659-13.71V177.289l23.909,35.071a1.409,1.409,0,0,0,2.071.286L257,200.924a.012.012,0,0,1,.017,0l13.953,11.722a1.411,1.411,0,0,0,.906.33,1.491,1.491,0,0,0,.644-.15,1.418,1.418,0,0,0,.545-.5l24.355-36.166v17.858l6.328,13.844A6.374,6.374,0,0,1,303.956,212.67Z"/>
              <path d="M220.656,204.791a2.584,2.584,0,0,0-4.9,1.639l4.768,14.261a2.584,2.584,0,1,0,4.9-1.639Z"/>
              <path d="M227.423,211.431a1.475,1.475,0,1,0-2.8.936l2.722,8.142a1.476,1.476,0,0,0,2.8-.936Z"/>
              <path d="M296.157,203.16a2.583,2.583,0,0,0-3.27,1.631l-4.768,14.261a2.584,2.584,0,1,0,4.9,1.639l4.768-14.261A2.584,2.584,0,0,0,296.157,203.16Z"/>
            </g>
          </g>
        </g>
      </g>
    </g>
  </g>
</svg>
