<?xml version="1.0" encoding="utf-8"?>
<!-- Generator: Adobe Illustrator 25.0.0, SVG Export Plug-In . SVG Version: 6.00 Build 0)  -->
<svg version="1.1" id="Layer_1" xmlns="http://www.w3.org/2000/svg" xmlns:xlink="http://www.w3.org/1999/xlink" x="0px" y="0px"
	 viewBox="0 0 800 250" style="enable-background:new 0 0 800 250;" xml:space="preserve">
<style type="text/css">
	.st0{fill:#CDF5F9;}
	.st1{fill:#FFFFFF;}
	.st2{fill:#444444;}
	.st3{fill:#0F5E0F;}
	.st4{fill:#094909;}
	.st5{fill:#09890C;}
	.st6{fill:#0C440C;}
	.st7{fill:#3B3B3B;}
	.st8{display:none;}
	.st9{display:inline;opacity:0.47;fill:url(#SVGID_1_);enable-background:new    ;}
	.st10{fill:#FF0000;}
	.st11{fill:#2D2D2D;}
	.st12{fill:#FF0303;}
	.st13{fill:#0098FF;}
	.st14{fill:#2CC900;}
	.st15{fill:#FFE000;}
	.st16{clip-path:url(#SVGID_3_);}
	.st17{opacity:0.15;enable-background:new    ;}
	.st18{fill:url(#SVGID_4_);}
	.st19{fill:url(#SVGID_5_);}
	.st20{fill:url(#SVGID_6_);}
	.st21{fill:#32323F;}
	.st22{fill:#474757;}
	.st23{fill:#DDDDDD;}
	.st24{fill:#BAC0D8;}
	.st25{fill:#ACAFBC;}
	.st26{fill:url(#SVGID_7_);}
	.st27{fill:url(#SVGID_8_);}
	.st28{fill:url(#SVGID_9_);}
	.st29{fill:url(#SVGID_10_);}
	.st30{fill:url(#SVGID_11_);}
	.st31{fill:url(#SVGID_12_);}
	.st32{fill:url(#SVGID_13_);}
	.st33{fill:url(#SVGID_14_);}
	.st34{fill:url(#SVGID_15_);}
</style>
<g>
	<g id="Layer_1_1_">
		<rect class="st0" width="800" height="250"/>
	</g>
	<g id="Layer_3">
		<g>
			<path class="st1" d="M713.8,64c-3-16.5-17.4-28.9-34.7-28.9c-4.8,0-9.4,1-13.6,2.7C658.7,28.2,647.6,22,635,22
				c-12.7,0-23.9,6.3-30.6,16c-4.7-3.3-10.3-5.3-16.5-5.3c-15.7,0-28.5,12.7-28.5,28.5c0,0.9,0,1.9,0.1,2.8H713.8z"/>
		</g>
		<g>
			<path class="st1" d="M414.4,94c2.2-12.1,12.8-21.4,25.6-21.4c3.6,0,7,0.7,10,2c5-7.1,13.2-11.7,22.5-11.7
				c9.4,0,17.6,4.7,22.6,11.8c3.4-2.4,7.6-3.9,12.2-3.9c11.6,0,21,9.4,21,21c0,0.7,0,1.4-0.1,2.1H414.4V94z"/>
		</g>
		<g>
			<path class="st1" d="M92.3,62.7c-6.2,0-11.8,2-16.5,5.3c-6.7-9.7-17.9-16-30.6-16c-12.6,0-23.7,6.2-30.5,15.8
				c-4.2-1.8-8.8-2.7-13.6-2.7c-0.4,0-0.7,0-1.1,0V94h120.6c0.1-0.9,0.1-1.9,0.1-2.8C120.8,75.5,108,62.7,92.3,62.7z"/>
		</g>
	</g>
	<path class="st2" d="M565.5,231.1L565.5,231.1c-2.9,0-5.2-2.3-5.2-5.2V31.3c0-2.9,2.3-5.2,5.2-5.2l0,0c2.9,0,5.2,2.3,5.2,5.2v194.6
		C570.7,228.8,568.4,231.1,565.5,231.1z"/>
	<g>
		<g>
			<path class="st3" d="M306,155.5c-6.4,8.9-15.2,16.4-25.9,21.3c-21.5,9.8-45.4,7-63.6-5.3c-8.4,13.6-13.7,29.4-14.8,46.3h-0.2V250
				h203.3v-32.2h-0.2c-1.4-20.6-8.9-39.5-20.7-54.9c-2.4,1.5-4.9,2.8-7.5,4C352,178,324.4,172.6,306,155.5z"/>
			<path class="st4" d="M303.1,123c-36.6,0-68.7,19.4-86.6,48.5c18.2,12.3,42.2,15.1,63.6,5.3c10.7-4.9,19.5-12.3,25.9-21.3
				c18.4,17.1,46,22.5,70.3,11.4c2.6-1.2,5.1-2.5,7.5-4C365.2,138.6,336,123,303.1,123z"/>
		</g>
		<g>
			<path class="st5" d="M254.6,245.9c-1.9-28-13.6-46.7-33.6-63.9c-4.7,1.8-9.8,2.8-15.2,2.8c-10.6,0-20.2-3.9-27.7-10.3
				c-4.5,5.1-9.9,9.3-16,12.4c-6.2,29-31.9,50.8-62.8,50.8c-15.2,0-29.1-5.3-40.1-14c-3.3,9-5.5,6.9-6.2,16.9l0,0l0,0h203.3l1.2,1.8
				l-0.5,3.8L254.6,245.9z"/>
			<path class="st6" d="M162.2,186.9c6.1-3.1,11.5-7.3,16-12.4c7.4,6.4,17.1,10.3,27.7,10.3c5.4,0,10.5-1,15.2-2.8
				c-17.8-15.4-41-24.7-66.4-24.7c-43.7,0-81,27.6-95.4,66.3c11,8.8,24.9,14,40.1,14C130.3,237.7,156,215.9,162.2,186.9z"/>
		</g>
	</g>
	<g id="Layer_5">
		<rect y="220" class="st7" width="800" height="30"/>
		<rect x="15" y="220" class="st1" width="99" height="6"/>
		<rect x="221" y="220" class="st1" width="99" height="6"/>
		<rect x="429" y="220" class="st1" width="99" height="6"/>
		<rect x="635" y="220" class="st1" width="99" height="6"/>
	</g>
	<g id="Layer_6">
	</g>
	<g id="Layer_8" class="st8">
		
			<linearGradient id="SVGID_1_" gradientUnits="userSpaceOnUse" x1="400" y1="-44" x2="400" y2="-294" gradientTransform="matrix(1 0 0 -1 0 -44)">
			<stop  offset="0" style="stop-color:#666666"/>
			<stop  offset="1" style="stop-color:#333333"/>
		</linearGradient>
		<rect class="st9" width="800" height="250"/>
	</g>
	<g>
		<g>
			<rect x="570.7" y="36.3" class="st1" width="33.7" height="33.7"/>
			<rect x="570.7" y="70" width="33.7" height="33.7"/>
			<rect x="604.5" y="70.1" class="st1" width="33.7" height="33.7"/>
			<rect x="604.5" y="36.3" width="33.7" height="33.7"/>
			<rect x="638.2" y="36.3" class="st1" width="33.7" height="33.7"/>
			<rect x="638.2" y="70" width="33.7" height="33.7"/>
			<rect x="672" y="70.1" class="st1" width="33.7" height="33.7"/>
			<rect x="672" y="36.3" width="33.7" height="33.7"/>
			<rect x="705.7" y="36.3" class="st1" width="33.7" height="33.7"/>
			<rect x="705.7" y="70" width="33.7" height="33.7"/>
			<rect x="739.5" y="70.1" class="st1" width="33.7" height="33.7"/>
			<rect x="739.5" y="36.3" width="33.7" height="33.7"/>
		</g>
		<g>
			<g>
				<g>
					<path class="st10" d="M620,84.1c-0.5,0-1.1,0-1.9-0.1c-0.8-0.1-1.6-0.2-2.4-0.4c-0.9-0.2-1.8-0.4-2.6-0.7
						c-0.9-0.3-1.7-0.6-2.5-1s-1.5-0.9-2-1.4c-0.6-0.7-0.9-1.4-0.9-2.3s0.3-1.7,1-2.4c0.7-0.7,1.5-1.1,2.4-1.1
						c0.6,0,1.1,0.1,1.6,0.4c0.6,0.3,1.2,0.6,1.8,0.9c0.6,0.2,1.2,0.4,1.8,0.6s1.2,0.3,1.8,0.4s1.3,0.1,2,0.1c0.4,0,1,0,1.6-0.1
						s1.1-0.2,1.6-0.3c0.5-0.2,0.8-0.4,1.2-0.7c0.1-0.1,0.3-0.3,0.3-0.8c0-0.3-0.1-0.7-0.7-1c-0.7-0.4-1.6-0.8-2.7-1.1
						c-1.1-0.4-2.4-0.7-3.7-1.1c-1.4-0.4-2.8-0.9-4-1.6c-1.3-0.7-2.3-1.6-3.2-2.7c-0.9-1.2-1.4-2.7-1.4-4.6c0-1.6,0.4-3,1.2-4.1
						c0.7-1.1,1.7-1.9,2.9-2.5c1.1-0.6,2.3-1,3.7-1.2c1.3-0.2,2.6-0.3,3.8-0.3c0.6,0,1.3,0,2.1,0.1s1.6,0.2,2.4,0.3
						c0.8,0.1,1.6,0.3,2.3,0.5c0.8,0.2,1.5,0.5,2.1,0.7c0.6,0.3,1.1,0.7,1.5,1.1c0.4,0.5,0.6,1.2,0.6,2c0,0.9-0.3,1.8-1,2.4
						s-1.5,1-2.4,1c-0.4,0-0.8-0.1-1.3-0.3c-1-0.4-2.1-0.7-3.1-0.9s-2.1-0.3-3.2-0.3c-0.4,0-0.9,0-1.5,0c-0.5,0-1.1,0.1-1.6,0.2
						c-0.4,0.1-0.8,0.3-1.1,0.5c-0.1,0.1-0.2,0.2-0.2,0.6c0,0.1,0,0.3,0.2,0.5c0.2,0.3,0.6,0.5,1,0.8c0.4,0.3,1,0.5,1.5,0.7
						c0.6,0.2,1.2,0.4,1.8,0.6s1.1,0.3,1.6,0.5c0.5,0.1,0.9,0.3,1.2,0.3c1,0.3,2,0.7,3,1.1s1.9,0.9,2.7,1.6c0.8,0.6,1.4,1.5,1.9,2.4
						c0.5,1,0.7,2.1,0.7,3.4c0,1.7-0.4,3.2-1.1,4.4c-0.7,1.1-1.7,2.1-2.9,2.8c-1.1,0.7-2.4,1.1-3.8,1.4
						C622.7,83.9,621.3,84.1,620,84.1z"/>
					<path d="M620.6,56c0.6,0,1.3,0,2.1,0.1s1.5,0.2,2.3,0.3s1.5,0.3,2.3,0.5c0.7,0.2,1.4,0.4,1.9,0.7c0.4,0.2,0.8,0.5,1.1,0.9
						s0.4,0.8,0.4,1.3c0,0.7-0.2,1.3-0.7,1.7c-0.5,0.5-1.1,0.7-1.7,0.7c-0.3,0-0.6-0.1-0.9-0.2c-1.1-0.4-2.2-0.7-3.2-0.9
						c-1.1-0.2-2.2-0.3-3.4-0.3c-0.4,0-0.9,0-1.5,0s-1.2,0.1-1.8,0.3s-1.1,0.4-1.5,0.7s-0.6,0.8-0.6,1.4c0,0.4,0.2,0.8,0.5,1.2
						s0.7,0.7,1.2,1s1.1,0.6,1.7,0.8c0.6,0.2,1.2,0.4,1.8,0.6s1.1,0.3,1.6,0.5c0.5,0.1,0.9,0.3,1.2,0.3c1,0.3,1.9,0.7,2.9,1
						c0.9,0.4,1.7,0.8,2.4,1.4s1.2,1.3,1.7,2.1c0.4,0.8,0.6,1.8,0.6,3c0,1.5-0.3,2.8-1,3.8s-1.5,1.8-2.5,2.4s-2.2,1-3.5,1.3
						c-1.3,0.2-2.6,0.4-3.9,0.4c-0.4,0-1,0-1.8-0.1c-0.7-0.1-1.5-0.2-2.3-0.4c-0.8-0.2-1.7-0.4-2.5-0.6c-0.8-0.3-1.6-0.6-2.3-0.9
						c-0.7-0.4-1.3-0.8-1.7-1.2c-0.4-0.5-0.7-1-0.7-1.6s0.2-1.2,0.7-1.7s1-0.7,1.7-0.7c0.4,0,0.8,0.1,1.1,0.3
						c0.7,0.4,1.3,0.7,1.9,0.9c0.6,0.3,1.3,0.5,1.9,0.6c0.6,0.2,1.3,0.3,1.9,0.4c0.7,0.1,1.4,0.1,2.1,0.1c0.5,0,1,0,1.7-0.1
						c0.6-0.1,1.3-0.2,1.8-0.4c0.6-0.2,1.1-0.5,1.5-0.9s0.6-0.9,0.6-1.5c0-0.8-0.4-1.4-1.2-1.9s-1.7-0.9-2.9-1.2
						c-1.1-0.4-2.4-0.7-3.8-1.1c-1.4-0.4-2.6-0.9-3.8-1.5c-1.1-0.6-2.1-1.4-2.9-2.5c-0.8-1-1.2-2.4-1.2-4c0-1.4,0.3-2.6,1-3.6
						s1.5-1.7,2.5-2.2s2.2-0.9,3.4-1.1C618.2,56.1,619.5,56,620.6,56 M620.6,54c-1.3,0-2.6,0.1-4,0.3c-1.5,0.2-2.8,0.7-4,1.3
						c-1.3,0.7-2.4,1.6-3.2,2.8c-0.9,1.3-1.3,2.9-1.3,4.7c0,2.1,0.5,3.9,1.6,5.2c0.9,1.2,2.1,2.3,3.5,3c1.3,0.7,2.7,1.3,4.2,1.7
						c1.3,0.4,2.6,0.7,3.7,1.1c1,0.3,1.8,0.6,2.4,1c0.1,0.1,0.2,0.1,0.2,0.1l0,0c0,0,0,0,0,0.1c-0.2,0.2-0.5,0.3-0.8,0.4
						c-0.4,0.1-0.9,0.2-1.4,0.3c-0.6,0.1-1.1,0.1-1.5,0.1c-0.7,0-1.3,0-1.9-0.1c-0.6-0.1-1.1-0.2-1.7-0.3c-0.5-0.1-1.1-0.3-1.6-0.6
						c-0.6-0.2-1.1-0.5-1.7-0.8c-0.7-0.4-1.4-0.6-2.1-0.6c-1.2,0-2.3,0.5-3.1,1.4s-1.3,1.9-1.3,3.1c0,1.1,0.4,2.1,1.2,2.9
						c0.6,0.6,1.4,1.2,2.2,1.6s1.7,0.8,2.6,1c0.9,0.3,1.8,0.5,2.7,0.7s1.7,0.3,2.5,0.4s1.5,0.1,2,0.1c1.4,0,2.8-0.1,4.2-0.4
						c1.5-0.3,2.9-0.8,4.1-1.5c1.3-0.8,2.4-1.8,3.2-3.1c0.9-1.3,1.3-3,1.3-4.9c0-1.5-0.3-2.8-0.8-3.9s-1.3-2-2.2-2.7
						c-0.8-0.7-1.8-1.3-2.9-1.7c-1-0.4-2-0.8-3-1.1l0,0l0,0c-0.3-0.1-0.7-0.2-1.2-0.3c-0.5-0.1-1-0.3-1.6-0.5
						c-0.5-0.2-1.1-0.4-1.7-0.6c-0.5-0.2-1-0.4-1.4-0.6c-0.2-0.1-0.4-0.3-0.6-0.4c0.1-0.1,0.3-0.1,0.5-0.2c0.4-0.1,0.9-0.2,1.3-0.2
						c0.6,0,1.1,0,1.5,0c1,0,2,0.1,3,0.3s2,0.5,3,0.8c0.6,0.2,1.1,0.3,1.6,0.3c1.2,0,2.3-0.5,3.2-1.3c0.9-0.9,1.3-1.9,1.3-3.2
						c0-1-0.3-1.9-0.9-2.6c-0.5-0.6-1.1-1.1-1.8-1.4c-0.7-0.3-1.4-0.6-2.3-0.8c-0.8-0.2-1.6-0.4-2.4-0.5c-0.8-0.2-1.7-0.3-2.5-0.3
						C622,54.1,621.3,54,620.6,54L620.6,54z"/>
				</g>
				<g>
					<path class="st10" d="M644.9,83.9c-1,0-1.9-0.4-2.6-1.1c-0.7-0.7-1-1.6-1-2.6V62.4h-6.2c-1,0-1.8-0.3-2.4-1s-1-1.5-1-2.4
						s0.3-1.8,1-2.4c0.7-0.7,1.5-1,2.4-1h19.6c0.9,0,1.8,0.3,2.4,1c0.7,0.7,1,1.5,1,2.4s-0.4,1.8-1,2.4c-0.7,0.7-1.5,1-2.4,1h-6.2
						v17.9c0,1-0.4,1.9-1.1,2.6C646.7,83.5,645.9,83.9,644.9,83.9z"/>
					<path d="M654.7,56.5c0.7,0,1.3,0.2,1.7,0.7c0.5,0.5,0.7,1.1,0.7,1.7c0,0.7-0.2,1.3-0.7,1.7c-0.5,0.5-1.1,0.7-1.7,0.7h-7.2v18.9
						c0,0.7-0.3,1.4-0.8,1.9s-1.1,0.8-1.9,0.8s-1.3-0.3-1.8-0.8s-0.7-1.1-0.7-1.9V61.4h-7.2c-0.7,0-1.3-0.2-1.7-0.7s-0.7-1-0.7-1.7
						s0.2-1.3,0.7-1.7s1-0.7,1.7-0.7L654.7,56.5 M654.7,54.5h-19.6c-1.2,0-2.3,0.5-3.2,1.3c-0.8,0.9-1.3,1.9-1.3,3.1
						c0,1.2,0.4,2.3,1.3,3.1c0.8,0.8,1.9,1.3,3.1,1.3h5.2v16.9c0,1.3,0.5,2.4,1.3,3.3c0.9,0.9,2,1.4,3.3,1.4s2.4-0.5,3.3-1.3
						c0.9-0.9,1.3-2,1.3-3.3V63.4h5.2c1.2,0,2.3-0.4,3.1-1.3c0.9-0.8,1.3-1.9,1.3-3.2c0-1.2-0.5-2.3-1.3-3.2
						C657,54.9,655.9,54.5,654.7,54.5L654.7,54.5z"/>
				</g>
				<g>
					<path class="st10" d="M680.2,83.9c-0.7,0-1.3-0.2-1.9-0.5c-0.5-0.3-1-0.8-1.2-1.4l-1.9-4.2h-10l-1.9,4.2
						c-0.3,0.6-0.7,1.1-1.3,1.5c-0.6,0.3-1.2,0.5-1.8,0.5c-1,0-1.8-0.3-2.4-1c-0.7-0.7-1-1.5-1-2.4c0-0.5,0.1-1,0.3-1.4l10-21.9
						c0.3-0.6,0.7-1.1,1.2-1.4c0.6-0.4,1.2-0.6,1.8-0.6s1.3,0.2,1.8,0.5c0.6,0.4,1,0.8,1.3,1.5l10,21.9c0.2,0.5,0.3,1,0.3,1.4
						c0,0.9-0.3,1.8-1,2.4C682,83.5,681.1,83.9,680.2,83.9z M672.3,71.3l-2.1-4.7l-2.1,4.7H672.3z"/>
					<path d="M670.1,56.1c0.5,0,0.9,0.1,1.3,0.4c0.4,0.2,0.7,0.6,0.9,1l10,21.9c0.1,0.3,0.2,0.7,0.2,1c0,0.7-0.2,1.3-0.7,1.7
						s-1,0.7-1.7,0.7c-0.5,0-0.9-0.1-1.3-0.4c-0.4-0.2-0.7-0.6-0.9-1l-2.2-4.8h-11.3l-2.2,4.8c-0.2,0.4-0.5,0.8-0.9,1
						s-0.8,0.4-1.3,0.4c-0.7,0-1.3-0.2-1.7-0.7c-0.5-0.5-0.7-1.1-0.7-1.7c0-0.3,0.1-0.7,0.2-1l10-21.9c0.2-0.4,0.5-0.8,0.9-1
						C669.2,56.3,669.6,56.1,670.1,56.1 M666.5,72.3h7.3l-3.7-8.1L666.5,72.3 M670.1,54.1c-0.9,0-1.7,0.2-2.4,0.7s-1.2,1.1-1.6,1.9
						l-10,21.8c-0.3,0.6-0.4,1.2-0.4,1.8c0,1.2,0.5,2.3,1.3,3.2c0.9,0.9,1.9,1.3,3.2,1.3c0.9,0,1.6-0.2,2.4-0.7
						c0.7-0.5,1.3-1.1,1.6-1.9l1.6-3.6h8.7l1.6,3.6c0.4,0.8,0.9,1.4,1.6,1.9c0.7,0.5,1.5,0.7,2.4,0.7c1.2,0,2.3-0.5,3.1-1.3
						s1.3-1.9,1.3-3.1c0-0.6-0.1-1.2-0.3-1.7v-0.1v-0.1l-10-21.9c-0.4-0.8-1-1.5-1.7-1.9C671.7,54.4,670.9,54.1,670.1,54.1
						L670.1,54.1z M669.6,70.3l0.6-1.3l0.6,1.3H669.6L669.6,70.3z"/>
				</g>
				<g>
					<path class="st10" d="M706.3,83.9c-0.7,0-1.3-0.2-1.8-0.5c-0.6-0.3-1-0.8-1.3-1.4c-0.1-0.2-0.3-0.5-0.5-1l-0.8-1.7
						c-0.4-0.8-0.7-1.5-1.1-2.3c-0.4-0.8-0.8-1.5-1.1-2.2c-0.3-0.6-0.6-1.2-0.8-1.6c0-0.1-0.1-0.1-0.1-0.2h-5.5v7.3
						c0,1-0.4,1.9-1.1,2.6c-0.7,0.7-1.6,1-2.5,1c-1,0-1.9-0.3-2.5-1c-0.7-0.7-1-1.5-1-2.5V59.1c0-1,0.3-1.9,1-2.5
						c0.7-0.7,1.5-1,2.5-1h9.7c1.3,0,2.7,0.1,3.9,0.4c1.3,0.3,2.4,0.8,3.4,1.5s1.8,1.7,2.4,2.8c0.6,1.1,0.9,2.5,0.9,4.1
						c0,1.7-0.4,3.3-1.2,4.6c-0.6,1.1-1.6,2-2.7,2.6c0,0.1,0.1,0.1,0.1,0.2c0.3,0.5,0.6,1.1,0.9,1.7c0.3,0.6,0.6,1.3,1,1.9
						c0.3,0.7,0.6,1.3,0.9,1.9c0.3,0.6,0.5,1.2,0.7,1.7c0.2,0.6,0.3,1,0.3,1.4c0,1-0.3,1.8-1,2.5C708.1,83.5,707.3,83.9,706.3,83.9z
						 M700.1,66.6c0.8,0,1.4-0.2,1.9-0.6c0.3-0.2,0.6-0.6,0.6-1.5c0-1-0.4-1.4-0.6-1.6c-0.5-0.4-1.1-0.6-1.9-0.6h-6.8v4.3
						C693.3,66.6,700.1,66.6,700.1,66.6z"/>
					<path d="M699.4,56.5c1.3,0,2.5,0.1,3.7,0.4c1.2,0.3,2.2,0.7,3,1.4c0.9,0.6,1.5,1.4,2.1,2.4s0.8,2.2,0.8,3.6
						c0,1.5-0.4,2.9-1.1,4.1c-0.7,1.2-1.8,2.1-3.2,2.7c0.1,0.3,0.3,0.6,0.6,1.1s0.5,1,0.9,1.7c0.3,0.6,0.6,1.3,1,1.9
						s0.6,1.3,0.9,1.9c0.3,0.6,0.5,1.1,0.7,1.6s0.3,0.8,0.3,1c0,0.7-0.2,1.3-0.7,1.8s-1.1,0.7-1.8,0.7c-0.5,0-0.9-0.1-1.3-0.4
						c-0.4-0.2-0.7-0.6-0.9-1c-0.1-0.1-0.2-0.5-0.5-1s-0.5-1.1-0.9-1.8c-0.3-0.7-0.7-1.4-1.1-2.2c-0.4-0.8-0.7-1.5-1.1-2.1
						c-0.3-0.7-0.6-1.2-0.8-1.6s-0.3-0.7-0.3-0.7h-7.2v8.3c0,0.7-0.3,1.3-0.8,1.8s-1.1,0.7-1.8,0.7s-1.3-0.2-1.8-0.7
						s-0.7-1.1-0.7-1.8V59.1c0-0.7,0.2-1.3,0.7-1.8s1.1-0.7,1.8-0.7L699.4,56.5 M692.3,67.6h7.8c1,0,1.8-0.3,2.5-0.8
						s1.1-1.3,1.1-2.3s-0.3-1.8-1-2.4c-0.7-0.5-1.5-0.8-2.5-0.8h-7.8L692.3,67.6 M699.4,54.5h-9.7c-1.3,0-2.4,0.5-3.3,1.3
						c-0.9,0.9-1.3,2-1.3,3.3v21.2c0,1.3,0.5,2.4,1.3,3.3c0.9,0.9,2,1.3,3.3,1.3c1.2,0,2.3-0.4,3.2-1.3s1.4-2,1.4-3.3V74h3.9
						c0.2,0.4,0.4,0.8,0.6,1.2c0.3,0.7,0.7,1.4,1.1,2.2c0.4,0.8,0.7,1.5,1.1,2.2v0.1l0.8,1.7c0.3,0.6,0.4,0.9,0.5,1
						c0.4,0.8,0.9,1.4,1.6,1.8c0.7,0.4,1.5,0.7,2.4,0.7c1.2,0,2.3-0.5,3.2-1.3c0.9-0.9,1.3-2,1.3-3.2c0-0.5-0.1-1-0.4-1.7
						c-0.2-0.5-0.4-1.1-0.7-1.7s-0.6-1.3-0.9-1.9c-0.3-0.7-0.7-1.3-1-2c-0.2-0.4-0.4-0.8-0.6-1.1c0.9-0.7,1.7-1.5,2.3-2.5
						c0.9-1.5,1.3-3.2,1.3-5.1c0-1.7-0.3-3.3-1-4.6s-1.5-2.3-2.7-3.1c-1.1-0.8-2.3-1.3-3.7-1.7C702.2,54.7,700.8,54.5,699.4,54.5
						L699.4,54.5z M694.3,63.3h5.8c0.7,0,1.1,0.2,1.3,0.4c0.1,0.1,0.3,0.2,0.3,0.8c0,0.5-0.2,0.7-0.2,0.7c-0.4,0.3-0.8,0.4-1.3,0.4
						h-5.8L694.3,63.3L694.3,63.3z"/>
				</g>
				<g>
					<path class="st10" d="M723.8,83.9c-1,0-1.9-0.4-2.6-1.1c-0.7-0.7-1-1.6-1-2.6V62.4H714c-1,0-1.8-0.3-2.4-1s-1-1.5-1-2.4
						s0.3-1.8,1-2.4c0.7-0.7,1.5-1,2.4-1h19.6c1,0,1.8,0.3,2.4,1c0.7,0.7,1,1.5,1,2.4s-0.4,1.8-1,2.4c-0.7,0.7-1.5,1-2.4,1h-6.2
						v17.9c0,1-0.4,1.9-1.1,2.6C725.7,83.5,724.8,83.9,723.8,83.9z"/>
					<path d="M733.6,56.5c0.7,0,1.3,0.2,1.7,0.7c0.5,0.5,0.7,1.1,0.7,1.7c0,0.7-0.2,1.3-0.7,1.7c-0.5,0.5-1.1,0.7-1.7,0.7h-7.2v18.9
						c0,0.7-0.3,1.4-0.8,1.9s-1.1,0.8-1.9,0.8s-1.3-0.3-1.8-0.8s-0.7-1.1-0.7-1.9V61.4H714c-0.7,0-1.3-0.2-1.7-0.7s-0.7-1-0.7-1.7
						s0.2-1.3,0.7-1.7s1-0.7,1.7-0.7L733.6,56.5 M733.6,54.5H714c-1.2,0-2.3,0.5-3.2,1.3c-0.8,0.9-1.3,1.9-1.3,3.1
						c0,1.2,0.4,2.3,1.3,3.1c0.8,0.8,1.9,1.3,3.1,1.3h5.2v16.9c0,1.3,0.5,2.4,1.3,3.3c0.9,0.9,2,1.4,3.3,1.4s2.4-0.5,3.3-1.3
						c0.9-0.9,1.3-2,1.3-3.3V63.4h5.2c1.2,0,2.3-0.4,3.1-1.3c0.9-0.8,1.3-1.9,1.3-3.2c0-1.2-0.5-2.3-1.3-3.2
						C735.9,54.9,734.8,54.5,733.6,54.5L733.6,54.5z"/>
				</g>
			</g>
		</g>
		<path class="st2" d="M778.4,231.1L778.4,231.1c-2.9,0-5.2-2.3-5.2-5.2V31.3c0-2.9,2.3-5.2,5.2-5.2l0,0c2.9,0,5.2,2.3,5.2,5.2
			v194.6C783.6,228.8,781.2,231.1,778.4,231.1z"/>
	</g>
</g>
<g id="Layer_2_1_">
	<g id="Premium">
		<g id="premium-mini-red">
			
				<rect x="500.3" y="170.4" transform="matrix(4.205010e-02 -0.9991 0.9991 4.205010e-02 292.0604 700.9655)" class="st11" width="22.6" height="55.5"/>
			<rect x="608.1" y="189.3" class="st11" width="55.5" height="22.6"/>
			<path class="st12" d="M672.3,188.8c-0.8-9.7-5.8-15.1-15.3-17l-31.4-3.9l-14.9-20.1c-2.8-4.2-7.5-6.7-12.5-6.7h-79.6
				c-5.8,0-11.4,2.6-15,7.2L486.1,170c-1.9,2.4-3.2,5.2-3.8,8.2l-4.3,21.2c-0.7,3.3,0.9,6.7,3.9,8.2l0.2,0.1
				c2.6,1.4,5.4,2.3,8.3,2.8c-2.6-9.5,3-19.3,12.5-21.8c9.5-2.6,19.3,3,21.8,12.5c0.9,3.4,0.8,6.9-0.3,10.2l101.8,2
				c-2.8-9.4,2.5-19.3,11.9-22.2c9.4-2.8,19.3,2.5,22.2,11.9c1.1,3.5,1,7.2-0.1,10.7c6.9-1.1,12-7.1,12-14.2L672.3,188.8z"/>
			<g>
				<g>
					<path class="st13" d="M552.4,205.1c-0.6,0.4-1.2,0.5-1.9,0.4c-0.5-0.1-0.9-0.3-1.3-0.6c-0.3-0.3-0.6-0.7-0.7-1.2l-1.2-5.3
						l-11.5-2.2l-3.1,4.4c-0.3,0.4-0.7,0.7-1.1,0.9c-0.4,0.2-0.9,0.2-1.4,0.1c-0.7-0.1-1.2-0.5-1.6-1.1c-0.4-0.6-0.5-1.2-0.4-1.9
						c0.1-0.3,0.2-0.7,0.4-0.9l14.4-20.2c0.3-0.4,0.6-0.7,1.1-0.9c0.4-0.2,0.9-0.2,1.4-0.1c0.5,0.1,0.9,0.3,1.3,0.6
						c0.4,0.3,0.6,0.7,0.7,1.2l5.8,24.1c0.1,0.4,0.1,0.7,0,1.1C553.3,204.1,553,204.7,552.4,205.1z M544.1,184.5l-5.3,7.5l7.4,1.4
						L544.1,184.5z"/>
				</g>
				<g>
					<path class="st14" d="M583.6,196.8c-0.3,1-0.8,1.9-1.5,2.7c-0.7,0.8-1.6,1.5-2.8,2.1c-1.1,0.6-2.5,1-4,1.2l-9.5,1.5
						c-0.7,0.1-1.4,0-2-0.5c-0.6-0.4-0.9-1-1.1-1.8l-3.3-21.3c-0.1-0.7,0-1.4,0.5-2c0.4-0.6,1-0.9,1.8-1.1l9.2-1.4
						c2.7-0.4,4.9-0.2,6.6,0.8c1.7,1,2.7,2.4,3,4.3c0.2,1.4,0.1,2.6-0.4,3.7c-0.5,1.1-1.2,2-2.2,2.7c1.7,0.2,3.1,0.9,4.1,2
						c1,1.1,1.6,2.4,1.9,3.9C584,194.8,583.9,195.8,583.6,196.8z M574.3,181.5c-0.5-0.4-1.3-0.6-2.3-0.4l-7,1.1l0.8,5.2l7-1.1
						c1-0.2,1.6-0.5,2-1.2c0.4-0.6,0.5-1.3,0.4-2C575.2,182.5,574.9,182,574.3,181.5z M578,192.6c-0.2-0.4-0.5-0.7-0.8-1
						c-0.4-0.3-0.8-0.4-1.3-0.6c-0.5-0.1-1.1-0.1-1.7,0l-7.5,1.2l1.1,6.7l7.5-1.2c0.6-0.1,1.2-0.3,1.6-0.6c0.4-0.3,0.8-0.6,1-1
						c0.3-0.4,0.4-0.8,0.5-1.2c0.1-0.4,0.1-0.8,0-1.2C578.3,193.4,578.2,193,578,192.6z"/>
				</g>
				<g>
					<path class="st15" d="M614.1,199.2c-0.1,0.2-0.3,0.4-0.5,0.6c-1.4,1.4-3.1,2.5-5,3.1c-1.9,0.6-3.9,0.9-5.9,0.6
						c-1.9-0.2-3.7-0.7-5.3-1.6c-1.6-0.9-2.9-2-4-3.4c-1.1-1.4-1.9-3-2.5-4.7c-0.5-1.8-0.7-3.6-0.5-5.5c0.2-1.9,0.7-3.7,1.6-5.3
						c0.9-1.6,2-3,3.4-4.1c1.4-1.1,2.9-2,4.7-2.5c1.7-0.5,3.6-0.7,5.5-0.5c0.8,0.1,1.6,0.2,2.4,0.4c0.8,0.2,1.6,0.5,2.3,0.8
						c0.7,0.3,1.4,0.8,2.1,1.3c0.7,0.5,1.2,1.1,1.7,1.7c0.5,0.6,0.7,1.3,0.6,2c-0.1,0.7-0.4,1.2-0.9,1.6c-0.5,0.4-1.1,0.6-1.8,0.5
						c-0.5,0-0.9-0.2-1.3-0.6c-0.4-0.3-0.9-0.7-1.4-1.1c-0.5-0.4-1.1-0.8-1.8-1.1c-0.7-0.4-1.5-0.6-2.5-0.7c-1.3-0.1-2.4,0-3.5,0.3
						c-1.1,0.4-2,0.9-2.8,1.7c-0.8,0.7-1.5,1.6-2,2.7c-0.5,1-0.8,2.2-1,3.4c-0.1,1.2,0,2.4,0.2,3.5c0.3,1.1,0.8,2.1,1.4,3
						c0.6,0.9,1.4,1.6,2.4,2.2c1,0.6,2.1,0.9,3.4,1.1c1.3,0.1,2.3,0,3.2-0.3c0.9-0.3,1.6-0.7,2.2-1.1c0.6-0.4,1.2-0.8,1.7-1.2
						c0.5-0.4,1-0.5,1.6-0.5c0.7,0.1,1.3,0.4,1.8,1c0.5,0.6,0.7,1.2,0.6,1.9C614.3,198.7,614.2,199,614.1,199.2z"/>
				</g>
			</g>
			<g>
				<defs>
					<path id="SVGID_2_" d="M672.3,188.8c-0.8-9.7-5.8-15.1-15.3-17l-31.4-3.9l-14.9-20.1c-2.8-4.2-7.5-6.7-12.5-6.7h-79.6
						c-5.8,0-11.4,2.6-15,7.2L486.1,170c-1.9,2.4-3.2,5.2-3.8,8.2l-4.3,21.2c-0.7,3.3,0.9,6.7,3.9,8.2l0.2,0.1
						c2.6,1.4,5.4,2.3,8.3,2.8c-2.6-9.5,3-19.3,12.5-21.8c9.5-2.6,19.3,3,21.8,12.5c0.9,3.4,0.8,6.9-0.3,10.2l101.8,2
						c-2.8-9.4,2.5-19.3,11.9-22.2c9.4-2.8,19.3,2.5,22.2,11.9c1.1,3.5,1,7.2-0.1,10.7c6.9-1.1,12-7.1,12-14.2L672.3,188.8z"/>
				</defs>
				<clipPath id="SVGID_3_">
					<use xlink:href="#SVGID_2_"  style="overflow:visible;"/>
				</clipPath>
				<g class="st16">
					<path class="st17" d="M476.9,173.3l153.9,10.9c0,0,38.3-12.4,47.1,9.7l-3.6,29.9c0,0-27.2,5.7-30.2,5.7s-89,0.6-93.8,0
						c-4.8-0.6-75.4-5.7-75.4-5.7l-7.8-30.5L476.9,173.3z"/>
					<path class="st1" d="M511.6,114.8l92.7,1.1c4.2,0.1,7.6,3.5,7.6,7.7l-0.2,14.9c-0.1,4.2-3.5,7.6-7.7,7.6l-92.7-1.1
						c-4.2-0.1-7.6-3.5-7.6-7.7l0.2-14.9C503.9,118.1,507.3,114.7,511.6,114.8z"/>
				</g>
			</g>
			
				<linearGradient id="SVGID_4_" gradientUnits="userSpaceOnUse" x1="560.1519" y1="93.0752" x2="609.618" y2="93.0752" gradientTransform="matrix(1 0 0 -1 0 252)">
				<stop  offset="0" style="stop-color:#C9E7F9"/>
				<stop  offset="1" style="stop-color:#AAFFF9"/>
			</linearGradient>
			<path class="st18" d="M604.8,170.4l-40.1-0.9c-2.5-0.1-4.6-2.1-4.6-4.7v-12.6c0-2.6,2.1-4.7,4.7-4.7c0.1,0,0.1,0,0.2,0l31.2,1
				c1.5,0,2.8,0.8,3.7,2l8.9,12.5c1.5,2.1,1,5-1.1,6.5C606.8,170.1,605.8,170.4,604.8,170.4z"/>
			
				<linearGradient id="SVGID_5_" gradientUnits="userSpaceOnUse" x1="510.6859" y1="93.271" x2="555.0226" y2="93.271" gradientTransform="matrix(1 0 0 -1 0 252)">
				<stop  offset="0" style="stop-color:#C9E7F9"/>
				<stop  offset="1" style="stop-color:#AAFFF9"/>
			</linearGradient>
			<path class="st19" d="M515,169l35.4,1.1c2.5,0.1,4.5-1.9,4.6-4.3c0,0,0-0.1,0-0.1v-13.8c0-2.5-2-4.5-4.5-4.5l0,0h-29.5
				c-1.7,0-3.3,1-4.1,2.6l-5.9,12.7c-1,2.2-0.1,4.9,2.2,6C513.8,168.8,514.4,169,515,169z"/>
			
				<linearGradient id="SVGID_6_" gradientUnits="userSpaceOnUse" x1="605.6717" y1="94.3485" x2="625.6259" y2="94.3485" gradientTransform="matrix(1 0 0 -1 0 252)">
				<stop  offset="0" style="stop-color:#C9E7F9"/>
				<stop  offset="1" style="stop-color:#AAFFF9"/>
			</linearGradient>
			<path class="st20" d="M625.6,167.9l-4.8,0.9c-0.9,0.4-2,0.1-2.5-0.7L606,150c-0.6-0.9-0.4-2.2,0.5-2.9c0.2-0.2,0.5-0.3,0.8-0.3
				l2.2-0.4L625.6,167.9z"/>
			
				<ellipse transform="matrix(4.205308e-02 -0.9991 0.9991 4.205308e-02 277.5542 706.5851)" class="st21" cx="507.3" cy="208.6" rx="15.2" ry="15.3"/>
			
				<ellipse transform="matrix(4.205010e-02 -0.9991 0.9991 4.205010e-02 277.5557 706.5858)" class="st22" cx="507.3" cy="208.6" rx="14.8" ry="14.9"/>
			
				<ellipse transform="matrix(4.205010e-02 -0.9991 0.9991 4.205010e-02 277.5557 706.5858)" cx="507.3" cy="208.6" rx="11.1" ry="11.2"/>
			
				<ellipse transform="matrix(4.205010e-02 -0.9991 0.9991 4.205010e-02 277.5557 706.5858)" class="st1" cx="507.3" cy="208.6" rx="10.6" ry="10.7"/>
			
				<ellipse transform="matrix(4.205010e-02 -0.9991 0.9991 4.205010e-02 277.5557 706.5858)" class="st23" cx="507.3" cy="208.6" rx="10.1" ry="10.1"/>
			
				<ellipse transform="matrix(4.205010e-02 -0.9991 0.9991 4.205010e-02 277.5557 706.5858)" class="st24" cx="507.3" cy="208.6" rx="6.3" ry="6.3"/>
			
				<ellipse transform="matrix(4.205010e-02 -0.9991 0.9991 4.205010e-02 277.5557 706.5858)" class="st25" cx="507.3" cy="208.6" rx="5.7" ry="5.7"/>
			
				<ellipse transform="matrix(4.205010e-02 -0.9991 0.9991 4.205010e-02 408.4912 843.1484)" class="st21" cx="643.9" cy="208.6" rx="15.2" ry="15.3"/>
			
				<ellipse transform="matrix(4.205010e-02 -0.9991 0.9991 4.205010e-02 408.4912 843.1484)" class="st22" cx="643.9" cy="208.6" rx="14.8" ry="14.9"/>
			
				<ellipse transform="matrix(4.205010e-02 -0.9991 0.9991 4.205010e-02 408.4912 843.1484)" cx="643.9" cy="208.6" rx="11.1" ry="11.2"/>
			
				<ellipse transform="matrix(4.205010e-02 -0.9991 0.9991 4.205010e-02 408.4912 843.1484)" class="st1" cx="643.9" cy="208.6" rx="10.6" ry="10.7"/>
			
				<ellipse transform="matrix(4.205010e-02 -0.9991 0.9991 4.205010e-02 408.4912 843.1484)" class="st23" cx="643.9" cy="208.6" rx="10.1" ry="10.1"/>
			
				<ellipse transform="matrix(4.205010e-02 -0.9991 0.9991 4.205010e-02 408.4912 843.1484)" class="st24" cx="643.9" cy="208.6" rx="6.3" ry="6.3"/>
			
				<ellipse transform="matrix(4.205010e-02 -0.9991 0.9991 4.205010e-02 408.4912 843.1484)" class="st25" cx="643.9" cy="208.6" rx="5.7" ry="5.7"/>
			
				<linearGradient id="SVGID_7_" gradientUnits="userSpaceOnUse" x1="475.7016" y1="50.6563" x2="485.6071" y2="50.6563" gradientTransform="matrix(1 0 0 -1 -2.844527e-03 252.0012)">
				<stop  offset="0" style="stop-color:#999999"/>
				<stop  offset="1" style="stop-color:#FFFFFF"/>
			</linearGradient>
			<path class="st26" d="M478.1,198.9l5.7,0.8c1.2,0.2,2,1.2,1.8,2.4l0,0c-0.2,1.2-1.2,2-2.4,1.8l-5.7-0.8c-1.2-0.2-2-1.2-1.8-2.4
				l0,0C475.9,199.5,476.9,198.7,478.1,198.9z"/>
			
				<linearGradient id="SVGID_8_" gradientUnits="userSpaceOnUse" x1="987.0732" y1="1263.1285" x2="997.0029" y2="1263.1285" gradientTransform="matrix(0.99 -7.000000e-02 -0.13 -0.51 -250.52 889.67)">
				<stop  offset="0" style="stop-color:#999999"/>
				<stop  offset="1" style="stop-color:#FFFFFF"/>
			</linearGradient>
			<path class="st27" d="M562,175.3h8.4c0.4,0,0.8,0.4,0.8,0.8l0,0c0,0.4-0.4,0.8-0.8,0.8H562c-0.4,0-0.8-0.4-0.8-0.8l0,0
				C561.2,175.7,561.6,175.3,562,175.3z"/>
			
				<linearGradient id="SVGID_9_" gradientUnits="userSpaceOnUse" x1="936.2419" y1="1270.114" x2="946.1716" y2="1270.114" gradientTransform="matrix(0.99 -7.000000e-02 -0.13 -0.51 -250.52 889.67)">
				<stop  offset="0" style="stop-color:#999999"/>
				<stop  offset="1" style="stop-color:#FFFFFF"/>
			</linearGradient>
			<path class="st28" d="M510.7,175.3h8.4c0.4,0,0.8,0.4,0.8,0.8l0,0c0,0.4-0.4,0.8-0.8,0.8h-8.4c-0.4,0-0.8-0.4-0.8-0.8l0,0
				C509.9,175.7,510.3,175.3,510.7,175.3z"/>
			
				<linearGradient id="SVGID_10_" gradientUnits="userSpaceOnUse" x1="-2253.1042" y1="91.176" x2="-2242.9375" y2="91.176" gradientTransform="matrix(10.3026 7.600001e-02 -1.3806 -0.998 23864.3496 470.2656)">
				<stop  offset="0" style="stop-color:#999999"/>
				<stop  offset="1" style="stop-color:#FFFFFF"/>
			</linearGradient>
			<path class="st29" d="M526.1,205.3l99.3,2c1.1,0,2.1,1,2,2.1l0,0c0,1.1-1,2.1-2.1,2l-99.3-2c-1.1,0-2.1-1-2-2.1l0,0
				C524,206.2,525,205.3,526.1,205.3z"/>
			
				<linearGradient id="SVGID_11_" gradientUnits="userSpaceOnUse" x1="663.0396" y1="47.1855" x2="672.6947" y2="47.1855" gradientTransform="matrix(1 0 0 -1 0 252)">
				<stop  offset="0" style="stop-color:#999999"/>
				<stop  offset="1" style="stop-color:#FFFFFF"/>
			</linearGradient>
			<path class="st30" d="M665,202.9h5.7c1.1,0,2,0.9,2,2l0,0c0,1.1-0.9,2-2,2H665c-1.1,0-2-0.9-2-2l0,0
				C663,203.7,663.9,202.9,665,202.9z"/>
			
				<linearGradient id="SVGID_12_" gradientUnits="userSpaceOnUse" x1="400.751" y1="436.3107" x2="404.6734" y2="436.3107" gradientTransform="matrix(0.991 0.1342 0.1342 -0.991 214.6427 581.3315)">
				<stop  offset="0" style="stop-color:#999999"/>
				<stop  offset="1" style="stop-color:#FFFFFF"/>
			</linearGradient>
			<path class="st31" d="M673.1,196.9L673.1,196.9c1.1,0.1,1.8,1.1,1.7,2.2l-1.1,8.4c-0.1,1.1-1.1,1.8-2.2,1.7l0,0
				c-1.1-0.1-1.8-1.1-1.7-2.2l1.1-8.4C671,197.5,672,196.7,673.1,196.9z"/>
			
				<linearGradient id="SVGID_13_" gradientUnits="userSpaceOnUse" x1="670.2809" y1="68.3454" x2="674.2033" y2="68.2669" gradientTransform="matrix(1 0 0 -1 0 252)">
				<stop  offset="0.55" style="stop-color:#FFFFFF"/>
				<stop  offset="1" style="stop-color:#FFF994"/>
			</linearGradient>
			<path class="st32" d="M672.2,177.5L672.2,177.5c1.1,0,2,0.9,2,2v8.4c0,1.1-0.9,2-2,2l0,0c-1.1,0-2-0.9-2-2v-8.4
				C670.3,178.4,671.2,177.5,672.2,177.5z"/>
			
				<linearGradient id="SVGID_14_" gradientUnits="userSpaceOnUse" x1="662.4361" y1="68.3061" x2="672.0912" y2="68.3061" gradientTransform="matrix(1 0 0 -1 0 252)">
				<stop  offset="0" style="stop-color:#FFFFFF"/>
				<stop  offset="1" style="stop-color:#A1A1A1"/>
			</linearGradient>
			<polygon class="st33" points="662.4,187.8 672.1,189.9 672.1,177.5 662.4,179.9 			"/>
			
				<linearGradient id="SVGID_15_" gradientUnits="userSpaceOnUse" x1="489.2469" y1="94.7736" x2="506.0901" y2="94.7736" gradientTransform="matrix(1 0 0 -1 0 252)">
				<stop  offset="0" style="stop-color:#C9E7F9"/>
				<stop  offset="1" style="stop-color:#AAFFF9"/>
			</linearGradient>
			<path class="st34" d="M504.3,147.3l0.5,0.1c1.1,0.5,1.5,1.7,1.1,2.7c-0.1,0.2-0.2,0.3-0.3,0.5L493,166.3
				c-0.5,0.6-1.2,0.8-1.9,0.8l-1.9-1.1L504.3,147.3z"/>
		</g>
	</g>
</g>
</svg>
