<?xml version="1.0" encoding="utf-8"?>
<!-- Generator: Adobe Illustrator 25.0.1, SVG Export Plug-In . SVG Version: 6.00 Build 0)  -->
<svg version="1.1" id="Layer_1" xmlns="http://www.w3.org/2000/svg" xmlns:xlink="http://www.w3.org/1999/xlink" x="0px" y="0px"
	 viewBox="0 0 800 250" style="enable-background:new 0 0 800 250;" xml:space="preserve">
<style type="text/css">
	.st0{fill:#222222;}
	.st1{opacity:0.8;fill:#FFFFFF;enable-background:new    ;}
	.st2{fill:#1C1C1C;}
	.st3{fill:#FFFFFF;}
	.st4{fill:#444444;}
	.st5{fill:#FF0000;}
	.st6{fill:#3B3B3B;}
	.st7{fill:url(#SVGID_1_);}
	.st8{fill:url(#SVGID_2_);}
	.st9{fill:#EC0015;}
	.st10{fill:#FFFF00;}
	.st11{fill:#4E514E;}
	.st12{opacity:0.25;fill:#FFFFFF;enable-background:new    ;}
	.st13{fill:#32323F;}
	.st14{fill:#474757;}
	.st15{fill:#DDDDDD;}
	.st16{fill:#BAC0D8;}
	.st17{fill:#ACAFBC;}
	.st18{fill:url(#SVGID_3_);}
	.st19{fill:url(#SVGID_4_);}
	.st20{fill:url(#SVGID_5_);}
	.st21{fill:url(#SVGID_6_);}
	.st22{fill:url(#SVGID_7_);}
	.st23{fill:url(#SVGID_8_);}
	.st24{fill:url(#SVGID_9_);}
	.st25{fill:url(#SVGID_10_);}
	.st26{fill:url(#SVGID_11_);}
	.st27{fill:url(#SVGID_12_);}
	.st28{opacity:0.47;fill:url(#SVGID_13_);enable-background:new    ;}
</style>
<g id="Layer_1_1_">
	<rect class="st0" width="800" height="250"/>
</g>
<g id="Layer_7">
	<circle class="st1" cx="579.5" cy="72.5" r="3.5"/>
	<circle class="st1" cx="694.5" cy="30.5" r="3.5"/>
	<circle class="st1" cx="464.5" cy="34.5" r="3.5"/>
	<circle class="st1" cx="727.5" cy="125.5" r="3.5"/>
	<circle class="st1" cx="486.5" cy="130.5" r="3.5"/>
	<circle class="st1" cx="201.5" cy="20.5" r="3.5"/>
	<circle class="st1" cx="83.5" cy="34.5" r="3.5"/>
	<circle class="st1" cx="29.5" cy="98.5" r="3.5"/>
	<g>
		<g>
			<path class="st2" d="M306,155.5c-6.4,8.9-15.2,16.4-25.9,21.3c-21.5,9.8-45.4,7-63.6-5.3c-8.4,13.6-13.7,29.4-14.8,46.3h-0.2v28
				h203.3v-28h-0.2c-1.4-20.6-8.9-39.5-20.7-54.9c-2.4,1.5-4.9,2.8-7.5,4C352,178,324.4,172.6,306,155.5z"/>
			<path class="st3" d="M303.1,123c-36.6,0-68.7,19.4-86.6,48.5c18.2,12.3,42.2,15.1,63.6,5.3c10.7-4.9,19.5-12.3,25.9-21.3
				c18.4,17.1,46,22.5,70.3,11.4c2.6-1.2,5.1-2.5,7.5-4C365.2,138.6,336,123,303.1,123z"/>
		</g>
		<g>
			<path class="st4" d="M256.1,252.1c-1.9-28-15.1-52.9-35.1-70.1c-4.7,1.8-9.8,2.8-15.2,2.8c-10.6,0-20.2-3.9-27.7-10.3
				c-4.5,5.1-9.9,9.3-16,12.4c-6.2,29-31.9,50.8-62.8,50.8c-15.2,0-29.1-5.3-40.1-14c-3.3,9-5.4,18.5-6.1,28.5H53V250h203.3v2.1
				H256.1z"/>
			<path class="st3" d="M162.2,186.9c6.1-3.1,11.5-7.3,16-12.4c7.4,6.4,17.1,10.3,27.7,10.3c5.4,0,10.5-1,15.2-2.8
				c-17.8-15.4-41-24.7-66.4-24.7c-43.7,0-81,27.6-95.4,66.3c11,8.8,24.9,14,40.1,14C130.3,237.7,156,215.9,162.2,186.9z"/>
		</g>
	</g>
	<path class="st4" d="M565.5,231.1L565.5,231.1c-2.9,0-5.2-2.3-5.2-5.2V31.3c0-2.9,2.3-5.2,5.2-5.2l0,0c2.9,0,5.2,2.3,5.2,5.2v194.6
		C570.7,228.8,568.4,231.1,565.5,231.1z"/>
	<g>
		<g>
			<rect x="570.7" y="36.3" class="st3" width="33.7" height="33.7"/>
			<rect x="570.7" y="70" width="33.7" height="33.7"/>
			<rect x="604.5" y="70.1" class="st3" width="33.7" height="33.7"/>
			<rect x="604.5" y="36.3" width="33.7" height="33.7"/>
			<rect x="638.2" y="36.3" class="st3" width="33.7" height="33.7"/>
			<rect x="638.2" y="70" width="33.7" height="33.7"/>
			<rect x="672" y="70.1" class="st3" width="33.7" height="33.7"/>
			<rect x="672" y="36.3" width="33.7" height="33.7"/>
			<rect x="705.7" y="36.3" class="st3" width="33.7" height="33.7"/>
			<rect x="705.7" y="70" width="33.7" height="33.7"/>
			<rect x="739.5" y="70.1" class="st3" width="33.7" height="33.7"/>
			<rect x="739.5" y="36.3" width="33.7" height="33.7"/>
		</g>
		<g>
			<g>
				<g>
					<path class="st5" d="M620,84.1c-0.5,0-1.1,0-1.9-0.1c-0.8-0.1-1.6-0.2-2.4-0.4c-0.9-0.2-1.8-0.4-2.6-0.7
						c-0.9-0.3-1.7-0.6-2.5-1s-1.5-0.9-2-1.4c-0.6-0.7-0.9-1.4-0.9-2.3s0.3-1.7,1-2.4c0.7-0.7,1.5-1.1,2.4-1.1
						c0.6,0,1.1,0.1,1.6,0.4c0.6,0.3,1.2,0.6,1.8,0.9c0.6,0.2,1.2,0.4,1.8,0.6s1.2,0.3,1.8,0.4s1.3,0.1,2,0.1c0.4,0,1,0,1.6-0.1
						s1.1-0.2,1.6-0.3c0.5-0.2,0.8-0.4,1.2-0.7c0.1-0.1,0.3-0.3,0.3-0.8c0-0.3-0.1-0.7-0.7-1c-0.7-0.4-1.6-0.8-2.7-1.1
						c-1.1-0.4-2.4-0.7-3.7-1.1c-1.4-0.4-2.8-0.9-4-1.6c-1.3-0.7-2.3-1.6-3.2-2.7c-0.9-1.2-1.4-2.7-1.4-4.6c0-1.6,0.4-3,1.2-4.1
						c0.7-1.1,1.7-1.9,2.9-2.5c1.1-0.6,2.3-1,3.7-1.2c1.3-0.2,2.6-0.3,3.8-0.3c0.6,0,1.3,0,2.1,0.1s1.6,0.2,2.4,0.3
						c0.8,0.1,1.6,0.3,2.3,0.5c0.8,0.2,1.5,0.5,2.1,0.7c0.6,0.3,1.1,0.7,1.5,1.1c0.4,0.5,0.6,1.2,0.6,2c0,0.9-0.3,1.8-1,2.4
						s-1.5,1-2.4,1c-0.4,0-0.8-0.1-1.3-0.3c-1-0.4-2.1-0.7-3.1-0.9s-2.1-0.3-3.2-0.3c-0.4,0-0.9,0-1.5,0c-0.5,0-1.1,0.1-1.6,0.2
						c-0.4,0.1-0.8,0.3-1.1,0.5c-0.1,0.1-0.2,0.2-0.2,0.6c0,0.1,0,0.3,0.2,0.5c0.2,0.3,0.6,0.5,1,0.8c0.4,0.3,1,0.5,1.5,0.7
						c0.6,0.2,1.2,0.4,1.8,0.6s1.1,0.3,1.6,0.5c0.5,0.1,0.9,0.3,1.2,0.3c1,0.3,2,0.7,3,1.1s1.9,0.9,2.7,1.6c0.8,0.6,1.4,1.5,1.9,2.4
						c0.5,1,0.7,2.1,0.7,3.4c0,1.7-0.4,3.2-1.1,4.4c-0.7,1.1-1.7,2.1-2.9,2.8c-1.1,0.7-2.4,1.1-3.8,1.4
						C622.7,83.9,621.3,84.1,620,84.1z"/>
					<path d="M620.6,56c0.6,0,1.3,0,2.1,0.1s1.5,0.2,2.3,0.3s1.5,0.3,2.3,0.5c0.7,0.2,1.4,0.4,1.9,0.7c0.4,0.2,0.8,0.5,1.1,0.9
						s0.4,0.8,0.4,1.3c0,0.7-0.2,1.3-0.7,1.7c-0.5,0.5-1.1,0.7-1.7,0.7c-0.3,0-0.6-0.1-0.9-0.2c-1.1-0.4-2.2-0.7-3.2-0.9
						c-1.1-0.2-2.2-0.3-3.4-0.3c-0.4,0-0.9,0-1.5,0s-1.2,0.1-1.8,0.3s-1.1,0.4-1.5,0.7s-0.6,0.8-0.6,1.4c0,0.4,0.2,0.8,0.5,1.2
						s0.7,0.7,1.2,1s1.1,0.6,1.7,0.8c0.6,0.2,1.2,0.4,1.8,0.6s1.1,0.3,1.6,0.5c0.5,0.1,0.9,0.3,1.2,0.3c1,0.3,1.9,0.7,2.9,1
						c0.9,0.4,1.7,0.8,2.4,1.4s1.2,1.3,1.7,2.1c0.4,0.8,0.6,1.8,0.6,3c0,1.5-0.3,2.8-1,3.8s-1.5,1.8-2.5,2.4s-2.2,1-3.5,1.3
						c-1.3,0.2-2.6,0.4-3.9,0.4c-0.4,0-1,0-1.8-0.1c-0.7-0.1-1.5-0.2-2.3-0.4c-0.8-0.2-1.7-0.4-2.5-0.6c-0.8-0.3-1.6-0.6-2.3-0.9
						c-0.7-0.4-1.3-0.8-1.7-1.2c-0.4-0.5-0.7-1-0.7-1.6s0.2-1.2,0.7-1.7s1-0.7,1.7-0.7c0.4,0,0.8,0.1,1.1,0.3
						c0.7,0.4,1.3,0.7,1.9,0.9c0.6,0.3,1.3,0.5,1.9,0.6c0.6,0.2,1.3,0.3,1.9,0.4c0.7,0.1,1.4,0.1,2.1,0.1c0.5,0,1,0,1.7-0.1
						c0.6-0.1,1.3-0.2,1.8-0.4c0.6-0.2,1.1-0.5,1.5-0.9s0.6-0.9,0.6-1.5c0-0.8-0.4-1.4-1.2-1.9s-1.7-0.9-2.9-1.2
						c-1.1-0.4-2.4-0.7-3.8-1.1c-1.4-0.4-2.6-0.9-3.8-1.5c-1.1-0.6-2.1-1.4-2.9-2.5c-0.8-1-1.2-2.4-1.2-4c0-1.4,0.3-2.6,1-3.6
						s1.5-1.7,2.5-2.2s2.2-0.9,3.4-1.1C618.2,56.1,619.5,56,620.6,56 M620.6,54c-1.3,0-2.6,0.1-4,0.3c-1.5,0.2-2.8,0.7-4,1.3
						c-1.3,0.7-2.4,1.6-3.2,2.8c-0.9,1.3-1.3,2.9-1.3,4.7c0,2.1,0.5,3.9,1.6,5.2c0.9,1.2,2.1,2.3,3.5,3c1.3,0.7,2.7,1.3,4.2,1.7
						c1.3,0.4,2.6,0.7,3.7,1.1c1,0.3,1.8,0.6,2.4,1c0.1,0.1,0.2,0.1,0.2,0.1l0,0c0,0,0,0,0,0.1c-0.2,0.2-0.5,0.3-0.8,0.4
						c-0.4,0.1-0.9,0.2-1.4,0.3c-0.6,0.1-1.1,0.1-1.5,0.1c-0.7,0-1.3,0-1.9-0.1c-0.6-0.1-1.1-0.2-1.7-0.3c-0.5-0.1-1.1-0.3-1.6-0.6
						c-0.6-0.2-1.1-0.5-1.7-0.8c-0.7-0.4-1.4-0.6-2.1-0.6c-1.2,0-2.3,0.5-3.1,1.4s-1.3,1.9-1.3,3.1c0,1.1,0.4,2.1,1.2,2.9
						c0.6,0.6,1.4,1.2,2.2,1.6s1.7,0.8,2.6,1c0.9,0.3,1.8,0.5,2.7,0.7s1.7,0.3,2.5,0.4s1.5,0.1,2,0.1c1.4,0,2.8-0.1,4.2-0.4
						c1.5-0.3,2.9-0.8,4.1-1.5c1.3-0.8,2.4-1.8,3.2-3.1c0.9-1.3,1.3-3,1.3-4.9c0-1.5-0.3-2.8-0.8-3.9s-1.3-2-2.2-2.7
						c-0.8-0.7-1.8-1.3-2.9-1.7c-1-0.4-2-0.8-3-1.1l0,0l0,0c-0.3-0.1-0.7-0.2-1.2-0.3c-0.5-0.1-1-0.3-1.6-0.5
						c-0.5-0.2-1.1-0.4-1.7-0.6c-0.5-0.2-1-0.4-1.4-0.6c-0.2-0.1-0.4-0.3-0.6-0.4c0.1-0.1,0.3-0.1,0.5-0.2c0.4-0.1,0.9-0.2,1.3-0.2
						c0.6,0,1.1,0,1.5,0c1,0,2,0.1,3,0.3s2,0.5,3,0.8c0.6,0.2,1.1,0.3,1.6,0.3c1.2,0,2.3-0.5,3.2-1.3c0.9-0.9,1.3-1.9,1.3-3.2
						c0-1-0.3-1.9-0.9-2.6c-0.5-0.6-1.1-1.1-1.8-1.4c-0.7-0.3-1.4-0.6-2.3-0.8c-0.8-0.2-1.6-0.4-2.4-0.5c-0.8-0.2-1.7-0.3-2.5-0.3
						C622,54.1,621.3,54,620.6,54L620.6,54z"/>
				</g>
				<g>
					<path class="st5" d="M644.9,83.9c-1,0-1.9-0.4-2.6-1.1c-0.7-0.7-1-1.6-1-2.6V62.4h-6.2c-1,0-1.8-0.3-2.4-1s-1-1.5-1-2.4
						s0.3-1.8,1-2.4c0.7-0.7,1.5-1,2.4-1h19.6c0.9,0,1.8,0.3,2.4,1c0.7,0.7,1,1.5,1,2.4s-0.4,1.8-1,2.4c-0.7,0.7-1.5,1-2.4,1h-6.2
						v17.9c0,1-0.4,1.9-1.1,2.6C646.7,83.5,645.9,83.9,644.9,83.9z"/>
					<path d="M654.7,56.5c0.7,0,1.3,0.2,1.7,0.7c0.5,0.5,0.7,1.1,0.7,1.7c0,0.7-0.2,1.3-0.7,1.7c-0.5,0.5-1.1,0.7-1.7,0.7h-7.2v18.9
						c0,0.7-0.3,1.4-0.8,1.9s-1.1,0.8-1.9,0.8s-1.3-0.3-1.8-0.8s-0.7-1.1-0.7-1.9V61.4h-7.2c-0.7,0-1.3-0.2-1.7-0.7s-0.7-1-0.7-1.7
						s0.2-1.3,0.7-1.7s1-0.7,1.7-0.7L654.7,56.5 M654.7,54.5h-19.6c-1.2,0-2.3,0.5-3.2,1.3c-0.8,0.9-1.3,1.9-1.3,3.1
						c0,1.2,0.4,2.3,1.3,3.1c0.8,0.8,1.9,1.3,3.1,1.3h5.2v16.9c0,1.3,0.5,2.4,1.3,3.3c0.9,0.9,2,1.4,3.3,1.4s2.4-0.5,3.3-1.3
						c0.9-0.9,1.3-2,1.3-3.3V63.4h5.2c1.2,0,2.3-0.4,3.1-1.3c0.9-0.8,1.3-1.9,1.3-3.2c0-1.2-0.5-2.3-1.3-3.2
						C657,54.9,655.9,54.5,654.7,54.5L654.7,54.5z"/>
				</g>
				<g>
					<path class="st5" d="M680.2,83.9c-0.7,0-1.3-0.2-1.9-0.5c-0.5-0.3-1-0.8-1.2-1.4l-1.9-4.2h-10l-1.9,4.2
						c-0.3,0.6-0.7,1.1-1.3,1.5c-0.6,0.3-1.2,0.5-1.8,0.5c-1,0-1.8-0.3-2.4-1c-0.7-0.7-1-1.5-1-2.4c0-0.5,0.1-1,0.3-1.4l10-21.9
						c0.3-0.6,0.7-1.1,1.2-1.4c0.6-0.4,1.2-0.6,1.8-0.6s1.3,0.2,1.8,0.5c0.6,0.4,1,0.8,1.3,1.5l10,21.9c0.2,0.5,0.3,1,0.3,1.4
						c0,0.9-0.3,1.8-1,2.4C682,83.5,681.1,83.9,680.2,83.9z M672.3,71.3l-2.1-4.7l-2.1,4.7H672.3z"/>
					<path d="M670.1,56.1c0.5,0,0.9,0.1,1.3,0.4c0.4,0.2,0.7,0.6,0.9,1l10,21.9c0.1,0.3,0.2,0.7,0.2,1c0,0.7-0.2,1.3-0.7,1.7
						s-1,0.7-1.7,0.7c-0.5,0-0.9-0.1-1.3-0.4c-0.4-0.2-0.7-0.6-0.9-1l-2.2-4.8h-11.3l-2.2,4.8c-0.2,0.4-0.5,0.8-0.9,1
						s-0.8,0.4-1.3,0.4c-0.7,0-1.3-0.2-1.7-0.7c-0.5-0.5-0.7-1.1-0.7-1.7c0-0.3,0.1-0.7,0.2-1l10-21.9c0.2-0.4,0.5-0.8,0.9-1
						C669.2,56.3,669.6,56.1,670.1,56.1 M666.5,72.3h7.3l-3.7-8.1L666.5,72.3 M670.1,54.1c-0.9,0-1.7,0.2-2.4,0.7s-1.2,1.1-1.6,1.9
						l-10,21.8c-0.3,0.6-0.4,1.2-0.4,1.8c0,1.2,0.5,2.3,1.3,3.2c0.9,0.9,1.9,1.3,3.2,1.3c0.9,0,1.6-0.2,2.4-0.7
						c0.7-0.5,1.3-1.1,1.6-1.9l1.6-3.6h8.7l1.6,3.6c0.4,0.8,0.9,1.4,1.6,1.9c0.7,0.5,1.5,0.7,2.4,0.7c1.2,0,2.3-0.5,3.1-1.3
						s1.3-1.9,1.3-3.1c0-0.6-0.1-1.2-0.3-1.7v-0.1v-0.1l-10-21.9c-0.4-0.8-1-1.5-1.7-1.9C671.7,54.4,670.9,54.1,670.1,54.1
						L670.1,54.1z M669.6,70.3l0.6-1.3l0.6,1.3H669.6L669.6,70.3z"/>
				</g>
				<g>
					<path class="st5" d="M706.3,83.9c-0.7,0-1.3-0.2-1.8-0.5c-0.6-0.3-1-0.8-1.3-1.4c-0.1-0.2-0.3-0.5-0.5-1l-0.8-1.7
						c-0.4-0.8-0.7-1.5-1.1-2.3c-0.4-0.8-0.8-1.5-1.1-2.2c-0.3-0.6-0.6-1.2-0.8-1.6c0-0.1-0.1-0.1-0.1-0.2h-5.5v7.3
						c0,1-0.4,1.9-1.1,2.6c-0.7,0.7-1.6,1-2.5,1c-1,0-1.9-0.3-2.5-1c-0.7-0.7-1-1.5-1-2.5V59.1c0-1,0.3-1.9,1-2.5
						c0.7-0.7,1.5-1,2.5-1h9.7c1.3,0,2.7,0.1,3.9,0.4c1.3,0.3,2.4,0.8,3.4,1.5s1.8,1.7,2.4,2.8c0.6,1.1,0.9,2.5,0.9,4.1
						c0,1.7-0.4,3.3-1.2,4.6c-0.6,1.1-1.6,2-2.7,2.6c0,0.1,0.1,0.1,0.1,0.2c0.3,0.5,0.6,1.1,0.9,1.7c0.3,0.6,0.6,1.3,1,1.9
						c0.3,0.7,0.6,1.3,0.9,1.9c0.3,0.6,0.5,1.2,0.7,1.7c0.2,0.6,0.3,1,0.3,1.4c0,1-0.3,1.8-1,2.5C708.1,83.5,707.3,83.9,706.3,83.9z
						 M700.1,66.6c0.8,0,1.4-0.2,1.9-0.6c0.3-0.2,0.6-0.6,0.6-1.5c0-1-0.4-1.4-0.6-1.6c-0.5-0.4-1.1-0.6-1.9-0.6h-6.8v4.3
						C693.3,66.6,700.1,66.6,700.1,66.6z"/>
					<path d="M699.4,56.5c1.3,0,2.5,0.1,3.7,0.4c1.2,0.3,2.2,0.7,3,1.4c0.9,0.6,1.5,1.4,2.1,2.4s0.8,2.2,0.8,3.6
						c0,1.5-0.4,2.9-1.1,4.1c-0.7,1.2-1.8,2.1-3.2,2.7c0.1,0.3,0.3,0.6,0.6,1.1s0.5,1,0.9,1.7c0.3,0.6,0.6,1.3,1,1.9
						s0.6,1.3,0.9,1.9c0.3,0.6,0.5,1.1,0.7,1.6s0.3,0.8,0.3,1c0,0.7-0.2,1.3-0.7,1.8s-1.1,0.7-1.8,0.7c-0.5,0-0.9-0.1-1.3-0.4
						c-0.4-0.2-0.7-0.6-0.9-1c-0.1-0.1-0.2-0.5-0.5-1s-0.5-1.1-0.9-1.8c-0.3-0.7-0.7-1.4-1.1-2.2c-0.4-0.8-0.7-1.5-1.1-2.1
						c-0.3-0.7-0.6-1.2-0.8-1.6s-0.3-0.7-0.3-0.7h-7.2v8.3c0,0.7-0.3,1.3-0.8,1.8s-1.1,0.7-1.8,0.7s-1.3-0.2-1.8-0.7
						s-0.7-1.1-0.7-1.8V59.1c0-0.7,0.2-1.3,0.7-1.8s1.1-0.7,1.8-0.7L699.4,56.5 M692.3,67.6h7.8c1,0,1.8-0.3,2.5-0.8
						s1.1-1.3,1.1-2.3s-0.3-1.8-1-2.4c-0.7-0.5-1.5-0.8-2.5-0.8h-7.8L692.3,67.6 M699.4,54.5h-9.7c-1.3,0-2.4,0.5-3.3,1.3
						c-0.9,0.9-1.3,2-1.3,3.3v21.2c0,1.3,0.5,2.4,1.3,3.3c0.9,0.9,2,1.3,3.3,1.3c1.2,0,2.3-0.4,3.2-1.3s1.4-2,1.4-3.3V74h3.9
						c0.2,0.4,0.4,0.8,0.6,1.2c0.3,0.7,0.7,1.4,1.1,2.2c0.4,0.8,0.7,1.5,1.1,2.2v0.1l0.8,1.7c0.3,0.6,0.4,0.9,0.5,1
						c0.4,0.8,0.9,1.4,1.6,1.8c0.7,0.4,1.5,0.7,2.4,0.7c1.2,0,2.3-0.5,3.2-1.3c0.9-0.9,1.3-2,1.3-3.2c0-0.5-0.1-1-0.4-1.7
						c-0.2-0.5-0.4-1.1-0.7-1.7s-0.6-1.3-0.9-1.9c-0.3-0.7-0.7-1.3-1-2c-0.2-0.4-0.4-0.8-0.6-1.1c0.9-0.7,1.7-1.5,2.3-2.5
						c0.9-1.5,1.3-3.2,1.3-5.1c0-1.7-0.3-3.3-1-4.6s-1.5-2.3-2.7-3.1c-1.1-0.8-2.3-1.3-3.7-1.7C702.2,54.7,700.8,54.5,699.4,54.5
						L699.4,54.5z M694.3,63.3h5.8c0.7,0,1.1,0.2,1.3,0.4c0.1,0.1,0.3,0.2,0.3,0.8c0,0.5-0.2,0.7-0.2,0.7c-0.4,0.3-0.8,0.4-1.3,0.4
						h-5.8L694.3,63.3L694.3,63.3z"/>
				</g>
				<g>
					<path class="st5" d="M723.8,83.9c-1,0-1.9-0.4-2.6-1.1c-0.7-0.7-1-1.6-1-2.6V62.4H714c-1,0-1.8-0.3-2.4-1s-1-1.5-1-2.4
						s0.3-1.8,1-2.4c0.7-0.7,1.5-1,2.4-1h19.6c1,0,1.8,0.3,2.4,1c0.7,0.7,1,1.5,1,2.4s-0.4,1.8-1,2.4c-0.7,0.7-1.5,1-2.4,1h-6.2
						v17.9c0,1-0.4,1.9-1.1,2.6C725.7,83.5,724.8,83.9,723.8,83.9z"/>
					<path d="M733.6,56.5c0.7,0,1.3,0.2,1.7,0.7c0.5,0.5,0.7,1.1,0.7,1.7c0,0.7-0.2,1.3-0.7,1.7c-0.5,0.5-1.1,0.7-1.7,0.7h-7.2v18.9
						c0,0.7-0.3,1.4-0.8,1.9s-1.1,0.8-1.9,0.8s-1.3-0.3-1.8-0.8s-0.7-1.1-0.7-1.9V61.4H714c-0.7,0-1.3-0.2-1.7-0.7s-0.7-1-0.7-1.7
						s0.2-1.3,0.7-1.7s1-0.7,1.7-0.7L733.6,56.5 M733.6,54.5H714c-1.2,0-2.3,0.5-3.2,1.3c-0.8,0.9-1.3,1.9-1.3,3.1
						c0,1.2,0.4,2.3,1.3,3.1c0.8,0.8,1.9,1.3,3.1,1.3h5.2v16.9c0,1.3,0.5,2.4,1.3,3.3c0.9,0.9,2,1.4,3.3,1.4s2.4-0.5,3.3-1.3
						c0.9-0.9,1.3-2,1.3-3.3V63.4h5.2c1.2,0,2.3-0.4,3.1-1.3c0.9-0.8,1.3-1.9,1.3-3.2c0-1.2-0.5-2.3-1.3-3.2
						C735.9,54.9,734.8,54.5,733.6,54.5L733.6,54.5z"/>
				</g>
			</g>
		</g>
		<path class="st4" d="M778.4,231.1L778.4,231.1c-2.9,0-5.2-2.3-5.2-5.2V31.3c0-2.9,2.3-5.2,5.2-5.2l0,0c2.9,0,5.2,2.3,5.2,5.2
			v194.6C783.6,228.8,781.2,231.1,778.4,231.1z"/>
	</g>
</g>
<g id="Layer_5">
	<rect y="220" class="st6" width="800" height="30"/>
	<rect x="15" y="220" class="st3" width="99" height="6"/>
	<rect x="221" y="220" class="st3" width="99" height="6"/>
	<rect x="429" y="220" class="st3" width="99" height="6"/>
	<rect x="635" y="220" class="st3" width="99" height="6"/>
</g>
<g id="Layer_6">
</g>
<linearGradient id="SVGID_1_" gradientUnits="userSpaceOnUse" x1="664.4" y1="66" x2="710.2798" y2="66" gradientTransform="matrix(1 0 0 -1 0 252)">
	<stop  offset="0" style="stop-color:#FCEE21"/>
	<stop  offset="1" style="stop-color:#FCEE21;stop-opacity:0"/>
</linearGradient>
<polygon class="st7" points="710.2,210.9 664.4,192.8 664.4,180.5 710.2,161.1 "/>
<g id="Layer_2_1_">
	<g id="Layer_14_1_">
		<g id="flagcar-vn">
			
				<radialGradient id="SVGID_2_" cx="477.368" cy="105.589" r="9.6028" gradientTransform="matrix(1 0 0 -0.99 0 259.03)" gradientUnits="userSpaceOnUse">
				<stop  offset="0" style="stop-color:#DCDCDC"/>
				<stop  offset="0.69" style="stop-color:#A3A3A3"/>
				<stop  offset="1" style="stop-color:#878787"/>
			</radialGradient>
			<path class="st8" d="M482.1,150.6c-0.2,0.1-0.3,0.2-0.3,0.2s-7.5,0-12.8-0.7l7.6,8.2h9.9L482.1,150.6z"/>
			<path class="st9" d="M604.3,169.3l1-0.8l-2-2.5l-3.8,2.7L604.3,169.3z"/>
			<path class="st9" d="M613.2,176l-22.3-1.3l-9.9,7.1l8.4,25.2l22.3-0.2c-0.9-2.5-1.3-5.1-1.3-7.7c0-12.8,10.5-23.3,23.4-23.3
				s23.4,10.4,23.4,23.3c0,2.5-0.4,5-1.2,7.4l14.1-0.1v-9.7C670,196.7,657.7,163.8,613.2,176z"/>
			<polygon class="st9" points="544.7,207.4 581.3,207.1 563.1,194.6 			"/>
			<path class="st9" d="M638.2,161.7c2.3,0.1,4.7,0.5,7,1C642.9,162.1,640.6,161.8,638.2,161.7z"/>
			<path class="st9" d="M670,194.6c0-3-0.4-6-1.2-8.9c0.9,3.6,1.3,7.3,1.2,11V194.6z"/>
			<path class="st9" d="M473.3,199.2v2.5l5.8,0.8c-0.2-1.1-0.2-2.2-0.2-3.4c0-12.8,10.5-23.3,23.4-23.3c12.9,0,23.4,10.4,23.4,23.3
				c0,2.9-0.5,5.8-1.6,8.5l12.6-0.1L545,182l-15.1-10.6l-65.1-3.6l0.1,12.5l8.8,8.3L473.3,199.2z"/>
			<path class="st9" d="M545.5,161.9c-4.2-1.5-1.8-4.4-1.8-4.4l5.1-7.2c0,0,1.7-2.9,6.8-3.4c0.4,0,0.8-0.1,1.3-0.1l2.5-7.5
				c-4.2-0.1-7.7-0.1-8.9,0c-2.6,0.3-5.2,1-7.6,2.1l-33.5,16.9c2.3,0,16.6,1.6,33.5,3.6H545.5z"/>
			<path class="st9" d="M576.8,147c0,0,5-0.7,14.6,14.6h8.4l-8.2-10.4c0,0-2.5-2.5,0-3.8l7.2-0.4c-5.1-8-14.4-6.7-14.4-6.7
				s-9.1-0.4-18-0.7l2.5,7.3C573.2,146.9,576.8,147,576.8,147z"/>
			<path class="st9" d="M482.1,150.6c1.5-1,7.8-5.6,1.4-11.2H461c0,0,0,8.8,4.7,10.1c1.1,0.3,2.2,0.5,3.3,0.6
				c5.3,0.7,12.8,0.7,12.8,0.7S481.9,150.7,482.1,150.6z"/>
			<path class="st10" d="M568.9,146.8l-2.5-7.3c-2.4-0.1-4.8-0.1-7-0.2l-2.5,7.5C559.9,146.7,564.7,146.8,568.9,146.8z"/>
			<path class="st10" d="M599.5,168.7l3.8-2.7l-3.5-4.4h-8.4c1.2,1.9,2.5,4.1,3.9,6.6L599.5,168.7z"/>
			<polygon class="st10" points="590.9,174.8 529.9,171.4 545,182 536.7,207.5 544.7,207.4 563.1,194.6 581.3,207.1 589.4,207 
				581,181.9 			"/>
			<path class="st10" d="M548.8,162.5c-1.1-0.1-2.2-0.3-3.3-0.6h-2.7c7.3,0.9,15.1,1.8,22.5,2.7
				C557.9,163.6,551.2,162.8,548.8,162.5z"/>
			<path class="st11" d="M670,206.4l-14.1,0.1c-1,3.1-2.7,5.9-4.9,8.3h19c2.3,0.1,4.3-1.8,4.3-4.1c0.1-2.3-1.8-4.3-4.1-4.3
				C670.2,206.4,670.1,206.4,670,206.4L670,206.4z"/>
			<path class="st11" d="M473.3,201.7v-2.5l0.4-10.5l-8.8-8.3l-0.1-0.1l0.2,19c-2.2,0-4,1.8-4,4c0,2.2,1.8,4,4,4c0,0,0,0,0,0
				l16.3,2.3c-1.1-2.2-1.9-4.5-2.2-7L473.3,201.7z"/>
			<path class="st11" d="M589.4,207l-8.1,0.1l-36.6,0.3l-8,0.1l-12.6,0.1c-1,2.7-2.6,5.1-4.5,7.2h96.8c-2.1-2.3-3.7-5-4.8-7.9
				L589.4,207z"/>
			<path class="st12" d="M614.1,162.1l-0.2-0.2l0,0L614.1,162.1z"/>
			<path class="st12" d="M668.8,185.6c-3.8-15.5-15.5-21-23.6-22.9C656.6,165.6,665.6,174.3,668.8,185.6z"/>
			<path class="st12" d="M637,161.7c0.4,0,0.8,0,1.2,0C637.4,161.7,637,161.7,637,161.7z"/>
			<path class="st9" d="M614.1,162.1l-0.3-0.2l-8.2,6.9l-0.3-0.4l-1,0.8l-4.9-0.6l-8.6,6.1l22.3,1.3c44.5-12.2,56.8,20.6,56.8,20.6
				c0-3.7-0.4-7.4-1.2-11c-3.2-11.3-12.2-20-23.6-22.9c-2.3-0.5-4.6-0.9-7-1c-0.4,0-0.8,0-1.2,0h-22.9l-0.2,0.2L614.1,162.1z"/>
			<path class="st12" d="M614.1,162.1l-0.3-0.2l-8.2,6.9l-0.3-0.4l-1,0.8l-4.9-0.6l-8.6,6.1l22.3,1.3c44.5-12.2,56.8,20.6,56.8,20.6
				c0-3.7-0.4-7.4-1.2-11c-3.2-11.3-12.2-20-23.6-22.9c-2.3-0.5-4.6-0.9-7-1c-0.4,0-0.8,0-1.2,0h-22.9l-0.2,0.2L614.1,162.1z"/>
			<path class="st9" d="M516.4,161.9h26.5c-16.9-2-31.2-3.6-33.5-3.6h-35c-5.2,0-9.5,4.2-9.6,9.5c0,0,0,0,0,0l65.1,3.6L516.4,161.9z
				"/>
			<path class="st12" d="M516.4,161.9h26.5c-16.9-2-31.2-3.6-33.5-3.6h-35c-5.2,0-9.5,4.2-9.6,9.5c0,0,0,0,0,0l65.1,3.6L516.4,161.9
				z"/>
			<path class="st10" d="M599.5,168.7l-4.2-0.5l0.1,0.3c0,0-16.5-2.2-30-3.9c-7.5-0.9-15.2-1.8-22.5-2.7h-26.5l13.6,9.5l61,3.4
				L599.5,168.7z"/>
			<path class="st12" d="M599.5,168.7l-4.2-0.5l0.1,0.3c0,0-16.5-2.2-30-3.9c-7.5-0.9-15.2-1.8-22.5-2.7h-26.5l13.6,9.5l61,3.4
				L599.5,168.7z"/>
			<path class="st13" d="M525.7,199.1c0-12.8-10.5-23.3-23.4-23.3s-23.4,10.4-23.4,23.3c0,1.1,0.1,2.3,0.2,3.4
				c0.4,2.4,1.1,4.8,2.2,7c5.8,11.6,19.9,16.3,31.5,10.5c5.2-2.6,9.2-7,11.3-12.4C525.2,204.9,525.7,202,525.7,199.1z M502.3,221.7
				c-12.6,0-22.8-10.1-22.8-22.6s10.2-22.6,22.8-22.6c12.6,0,22.8,10.1,22.8,22.6S514.9,221.7,502.3,221.7L502.3,221.7z"/>
			<path class="st14" d="M525.1,199.1c0-12.5-10.2-22.6-22.8-22.6c-12.6,0-22.8,10.1-22.8,22.6s10.2,22.6,22.8,22.6
				C514.9,221.7,525.1,211.6,525.1,199.1z M485.2,199.1c-0.1-9.5,7.6-17.2,17-17.2c9.5-0.1,17.2,7.6,17.2,17
				c0.1,9.5-7.6,17.2-17,17.2c0,0-0.1,0-0.1,0C492.9,216.2,485.2,208.5,485.2,199.1L485.2,199.1z"/>
			<path d="M519.5,199.1c0.1-9.5-7.6-17.2-17-17.2c-9.5-0.1-17.2,7.6-17.2,17c-0.1,9.5,7.6,17.2,17,17.2c0,0,0.1,0,0.1,0
				C511.8,216.2,519.4,208.5,519.5,199.1z M486,199.1c-0.1-9,7.2-16.3,16.2-16.4c9-0.1,16.3,7.2,16.4,16.2c0.1,9-7.2,16.3-16.2,16.4
				c0,0-0.1,0-0.1,0C493.3,215.3,486,208.1,486,199.1C486,199.1,486,199.1,486,199.1z"/>
			<path class="st3" d="M518.6,199.1c0.1-9-7.2-16.3-16.2-16.4c-9-0.1-16.3,7.2-16.4,16.2c-0.1,9,7.2,16.3,16.2,16.4
				c0,0,0.1,0,0.1,0C511.3,215.3,518.6,208.1,518.6,199.1C518.6,199.1,518.6,199.1,518.6,199.1z M486.9,199.1
				c-0.1-8.5,6.8-15.5,15.4-15.6c8.5-0.1,15.5,6.8,15.6,15.4s-6.8,15.5-15.4,15.6c0,0-0.1,0-0.1,0
				C493.8,214.5,486.9,207.6,486.9,199.1C486.9,199.1,486.9,199.1,486.9,199.1z"/>
			<path class="st15" d="M517.8,199.1c0.1-8.5-6.8-15.5-15.4-15.6c-8.5-0.1-15.5,6.8-15.6,15.4s6.8,15.5,15.4,15.6c0,0,0.1,0,0.1,0
				C510.8,214.5,517.8,207.6,517.8,199.1C517.8,199.1,517.8,199.1,517.8,199.1z M492.7,199.1c0-5.3,4.2-9.6,9.6-9.7
				c5.3,0,9.6,4.2,9.7,9.6s-4.2,9.6-9.6,9.7c0,0,0,0-0.1,0C497,208.7,492.7,204.4,492.7,199.1C492.7,199.1,492.7,199.1,492.7,199.1z
				"/>
			<path class="st16" d="M502.3,208.7c5.3,0,9.5-4.3,9.5-9.6s-4.3-9.5-9.6-9.5c-5.3,0-9.5,4.3-9.5,9.6
				C492.7,204.4,497,208.7,502.3,208.7C502.3,208.7,502.3,208.7,502.3,208.7z M493.5,199.1c0-4.8,3.9-8.8,8.7-8.8s8.8,3.9,8.8,8.7
				c0,4.8-3.9,8.8-8.7,8.8c0,0,0,0-0.1,0C497.5,207.8,493.6,203.9,493.5,199.1L493.5,199.1z"/>
			<ellipse class="st17" cx="502.3" cy="199.1" rx="8.8" ry="8.7"/>
			<path class="st13" d="M657.1,199.1c0-12.8-10.5-23.3-23.4-23.3c-12.9,0-23.4,10.4-23.4,23.3c0,5.8,2.2,11.4,6.1,15.7
				c8.8,9.5,23.7,10.2,33.2,1.4c0.5-0.4,0.9-0.9,1.4-1.4C654.9,210.5,657.1,204.9,657.1,199.1z M633.7,221.7
				c-12.6,0-22.8-10.1-22.8-22.6s10.2-22.6,22.8-22.6s22.8,10.1,22.8,22.6S646.3,221.7,633.7,221.7z"/>
			<path class="st14" d="M656.5,199.1c0-12.5-10.2-22.6-22.8-22.6c-12.6,0-22.8,10.1-22.8,22.6s10.2,22.6,22.8,22.6
				S656.5,211.6,656.5,199.1z M633.7,216.1c-9.4-0.1-17-7.7-16.9-17.1c0.1-9.4,7.7-17,17.1-16.9c9.4,0.1,16.9,7.7,16.9,17
				C650.8,208.5,643.2,216.2,633.7,216.1C633.7,216.1,633.7,216.1,633.7,216.1z"/>
			<path d="M650.9,199.1c0.1-9.5-7.6-17.2-17-17.2c-9.5-0.1-17.2,7.6-17.2,17c-0.1,9.5,7.6,17.2,17,17.2c0,0,0.1,0,0.1,0
				C643.2,216.2,650.8,208.5,650.9,199.1C650.9,199.1,650.9,199.1,650.9,199.1z M633.7,215.3c-8.9-0.1-16.2-7.4-16.1-16.3
				c0.1-8.9,7.4-16.2,16.3-16.1c8.9,0.1,16.1,7.3,16.1,16.2C650,208.1,642.7,215.3,633.7,215.3C633.7,215.3,633.7,215.3,633.7,215.3
				z"/>
			<path class="st3" d="M650,199.1c0.1-9-7.2-16.3-16.2-16.4c-9-0.1-16.3,7.2-16.4,16.2c-0.1,9,7.2,16.3,16.2,16.4c0,0,0.1,0,0.1,0
				C642.7,215.3,650,208.1,650,199.1C650,199.1,650,199.1,650,199.1z M633.7,214.5c-8.5-0.1-15.3-7-15.3-15.5s7-15.3,15.5-15.3
				c8.5,0.1,15.3,6.9,15.3,15.4C649.2,207.6,642.2,214.5,633.7,214.5z"/>
			<path class="st15" d="M649.2,199.1c0.1-8.5-6.8-15.5-15.4-15.6c-8.5-0.1-15.5,6.8-15.6,15.4c-0.1,8.5,6.8,15.5,15.4,15.6
				c0,0,0.1,0,0.1,0C642.2,214.5,649.2,207.6,649.2,199.1C649.2,199.1,649.2,199.1,649.2,199.1z M624.1,199.1c0-5.3,4.2-9.6,9.6-9.7
				c5.3,0,9.6,4.2,9.7,9.6s-4.2,9.6-9.6,9.7c0,0,0,0-0.1,0C628.4,208.7,624.1,204.4,624.1,199.1z"/>
			<path class="st16" d="M643.3,199.1c0-5.3-4.2-9.6-9.6-9.7s-9.6,4.2-9.7,9.6c0,5.3,4.2,9.6,9.6,9.7c0,0,0,0,0.1,0
				C639,208.7,643.3,204.4,643.3,199.1C643.3,199.1,643.3,199.1,643.3,199.1z M625,199.1c0-4.8,3.9-8.8,8.7-8.8
				c4.8,0,8.8,3.9,8.8,8.7c0,4.8-3.9,8.8-8.7,8.8c0,0-0.1,0-0.1,0C628.9,207.8,625,203.9,625,199.1L625,199.1z"/>
			<ellipse class="st17" cx="633.7" cy="199.1" rx="8.8" ry="8.7"/>
			<path class="st9" d="M591.4,161.6c-9.6-15.3-14.6-14.6-14.6-14.6s-3.6-0.1-7.9-0.1l5.1,14.8H591.4z"/>
			
				<linearGradient id="SVGID_3_" gradientUnits="userSpaceOnUse" x1="543.0381" y1="97.8049" x2="595.424" y2="97.8049" gradientTransform="matrix(1 0 0 -1 0 252)">
				<stop  offset="0" style="stop-color:#C9E7F9"/>
				<stop  offset="1" style="stop-color:#AAFFF9"/>
			</linearGradient>
			<path class="st18" d="M591.4,161.6c-9.6-15.3-14.6-14.6-14.6-14.6s-3.6-0.1-7.9-0.1l5.1,14.8H591.4z"/>
			<path class="st9" d="M556.9,146.9c-0.5,0-0.9,0.1-1.3,0.1c-5.1,0.4-6.8,3.4-6.8,3.4l-5.1,7.2c0,0-2.4,2.9,1.8,4.4h6.3
				L556.9,146.9z"/>
			
				<linearGradient id="SVGID_4_" gradientUnits="userSpaceOnUse" x1="543.0405" y1="97.6053" x2="595.4264" y2="97.6053" gradientTransform="matrix(1 0 0 -1 0 252)">
				<stop  offset="0" style="stop-color:#C9E7F9"/>
				<stop  offset="1" style="stop-color:#AAFFF9"/>
			</linearGradient>
			<path class="st19" d="M556.9,146.9c-0.5,0-0.9,0.1-1.3,0.1c-5.1,0.4-6.8,3.4-6.8,3.4l-5.1,7.2c0,0-2.4,2.9,1.8,4.4h6.3
				L556.9,146.9z"/>
			<path class="st10" d="M565.4,164.6c11.7,1.4,22.6,2.7,29.9,3.6c-1.4-2.5-2.7-4.7-3.9-6.6H574l-5.1-14.8
				c-4.2-0.1-9.1-0.1-12.1,0.1l-5.1,15h-6.3c1.1,0.3,2.2,0.6,3.3,0.6C551.2,162.8,557.9,163.6,565.4,164.6z"/>
			
				<linearGradient id="SVGID_5_" gradientUnits="userSpaceOnUse" x1="543.0381" y1="94.5254" x2="595.424" y2="94.5254" gradientTransform="matrix(1 0 0 -1 0 252)">
				<stop  offset="0" style="stop-color:#C9E7F9"/>
				<stop  offset="1" style="stop-color:#AAFFF9"/>
			</linearGradient>
			<path class="st20" d="M565.4,164.6c11.7,1.4,22.6,2.7,29.9,3.6c-1.4-2.5-2.7-4.7-3.9-6.6H574l-5.1-14.8
				c-4.2-0.1-9.1-0.1-12.1,0.1l-5.1,15h-6.3c1.1,0.3,2.2,0.6,3.3,0.6C551.2,162.8,557.9,163.6,565.4,164.6z"/>
			<path class="st10" d="M595.4,168.4l-0.1-0.3c-7.3-0.9-18.2-2.2-29.9-3.6C579,166.3,595.4,168.4,595.4,168.4z"/>
			<path class="st12" d="M595.4,168.4l-0.1-0.3c-7.3-0.9-18.2-2.2-29.9-3.6C579,166.3,595.4,168.4,595.4,168.4z"/>
			
				<linearGradient id="SVGID_6_" gradientUnits="userSpaceOnUse" x1="543.0381" y1="85.5012" x2="595.424" y2="85.5012" gradientTransform="matrix(1 0 0 -1 0 252)">
				<stop  offset="0" style="stop-color:#C9E7F9"/>
				<stop  offset="1" style="stop-color:#AAFFF9"/>
			</linearGradient>
			<path class="st21" d="M595.4,168.4l-0.1-0.3c-7.3-0.9-18.2-2.2-29.9-3.6C579,166.3,595.4,168.4,595.4,168.4z"/>
			
				<linearGradient id="SVGID_7_" gradientUnits="userSpaceOnUse" x1="590.4785" y1="97.6401" x2="614.0751" y2="97.6401" gradientTransform="matrix(1 0 0 -1 0 252)">
				<stop  offset="0" style="stop-color:#C9E7F9"/>
				<stop  offset="1" style="stop-color:#AAFFF9"/>
			</linearGradient>
			<path class="st22" d="M613.6,161.8L613.6,161.8l0.5-0.1L598.8,147C603.2,153.9,611.5,160.2,613.6,161.8z"/>
			<path class="st9" d="M591.6,151.2l8.2,10.4h9.6l-6.2,4.4l2,2.5l8.3-6.7c-2.1-1.5-10.3-7.9-14.8-14.8l-7.2,0.4
				C589.1,148.6,591.6,151.2,591.6,151.2z"/>
			
				<linearGradient id="SVGID_8_" gradientUnits="userSpaceOnUse" x1="590.4789" y1="94.2755" x2="614.0755" y2="94.2755" gradientTransform="matrix(1 0 0 -1 0 252)">
				<stop  offset="0" style="stop-color:#C9E7F9"/>
				<stop  offset="1" style="stop-color:#AAFFF9"/>
			</linearGradient>
			<path class="st23" d="M591.6,151.2l8.2,10.4h9.6l-6.2,4.4l2,2.5l8.3-6.7c-2.1-1.5-10.3-7.9-14.8-14.8l-7.2,0.4
				C589.1,148.6,591.6,151.2,591.6,151.2z"/>
			<polygon class="st10" points="609.5,161.6 599.8,161.6 603.3,166 			"/>
			
				<linearGradient id="SVGID_9_" gradientUnits="userSpaceOnUse" x1="590.4785" y1="88.2322" x2="614.0751" y2="88.2322" gradientTransform="matrix(1 0 0 -1 0 252)">
				<stop  offset="0" style="stop-color:#C9E7F9"/>
				<stop  offset="1" style="stop-color:#AAFFF9"/>
			</linearGradient>
			<polygon class="st24" points="609.5,161.6 599.8,161.6 603.3,166 			"/>
			<path class="st12" d="M613.8,161.9l-0.2-0.2l-0.1,0.1L613.8,161.9L613.8,161.9z"/>
			
				<linearGradient id="SVGID_10_" gradientUnits="userSpaceOnUse" x1="590.4785" y1="90.1838" x2="614.0751" y2="90.1838" gradientTransform="matrix(1 0 0 -1 0 252)">
				<stop  offset="0" style="stop-color:#C9E7F9"/>
				<stop  offset="1" style="stop-color:#AAFFF9"/>
			</linearGradient>
			<path class="st25" d="M613.8,161.9l-0.2-0.2l-0.1,0.1L613.8,161.9L613.8,161.9z"/>
			<path class="st9" d="M613.8,161.9l-0.2-0.2l-8.3,6.7l0.3,0.4L613.8,161.9z"/>
			<path class="st12" d="M613.8,161.9l-0.2-0.2l-8.3,6.7l0.3,0.4L613.8,161.9z"/>
			
				<linearGradient id="SVGID_11_" gradientUnits="userSpaceOnUse" x1="590.4785" y1="86.6877" x2="614.0751" y2="86.6877" gradientTransform="matrix(1 0 0 -1 0 252)">
				<stop  offset="0" style="stop-color:#C9E7F9"/>
				<stop  offset="1" style="stop-color:#AAFFF9"/>
			</linearGradient>
			<path class="st26" d="M613.8,161.9l-0.2-0.2l-8.3,6.7l0.3,0.4L613.8,161.9z"/>
			<polygon class="st9" points="613.8,161.9 614.1,161.7 613.7,161.7 			"/>
			<polygon class="st12" points="613.8,161.9 614.1,161.7 613.7,161.7 			"/>
			
				<linearGradient id="SVGID_12_" gradientUnits="userSpaceOnUse" x1="590.4785" y1="90.2012" x2="614.0751" y2="90.2012" gradientTransform="matrix(1 0 0 -1 0 252)">
				<stop  offset="0" style="stop-color:#C9E7F9"/>
				<stop  offset="1" style="stop-color:#AAFFF9"/>
			</linearGradient>
			<polygon class="st27" points="613.8,161.9 614.1,161.7 613.7,161.7 			"/>
		</g>
	</g>
</g>
<g id="Layer_8">
	
		<linearGradient id="SVGID_13_" gradientUnits="userSpaceOnUse" x1="400" y1="516" x2="400" y2="766" gradientTransform="matrix(1 0 0 1 0 -516)">
		<stop  offset="0" style="stop-color:#666666"/>
		<stop  offset="1" style="stop-color:#333333"/>
	</linearGradient>
	<rect class="st28" width="800" height="250"/>
</g>
</svg>
