<?xml version="1.0" encoding="utf-8"?>
<!-- Generator: Adobe Illustrator 25.0.0, SVG Export Plug-In . SVG Version: 6.00 Build 0)  -->
<svg version="1.1" id="Layer_1" xmlns="http://www.w3.org/2000/svg" xmlns:xlink="http://www.w3.org/1999/xlink" x="0px" y="0px"
	 viewBox="0 0 800 250" style="enable-background:new 0 0 800 250;" xml:space="preserve">
<style type="text/css">
	.st0{fill:#222222;}
	.st1{fill:#09890C;}
	.st2{fill:#42A542;}
	.st3{fill:#E5D400;}
	.st4{fill:#C976FF;}
	.st5{fill:#FFA5A1;}
	.st6{fill:#B6B6FF;}
	.st7{opacity:0.8;fill:#FFFFFF;enable-background:new    ;}
	.st8{fill:#444444;}
	.st9{fill:#FFFFFF;}
	.st10{fill:#FF0000;}
	.st11{fill:#3B3B3B;}
	.st12{fill:url(#SVGID_1_);}
	.st13{fill:url(#SVGID_2_);}
	.st14{fill:#D00000;stroke:#D00000;stroke-miterlimit:10;}
	.st15{clip-path:url(#SVGID_4_);}
	.st16{fill:#FFFFFF;stroke:#D00000;stroke-linejoin:round;stroke-miterlimit:10;}
	.st17{opacity:0.13;enable-background:new    ;}
	.st18{fill:#32323F;}
	.st19{fill:#474757;}
	.st20{fill:#DDDDDD;}
	.st21{fill:#BAC0D8;}
	.st22{fill:#ACAFBC;}
	.st23{fill:url(#SVGID_5_);}
	.st24{fill:url(#SVGID_6_);}
	.st25{fill:#FFFFFF;stroke:#D00000;stroke-miterlimit:10;}
	.st26{clip-path:url(#SVGID_8_);}
	.st27{opacity:0.34;fill:#02A39F;}
	.st28{fill:url(#SVGID_9_);}
	.st29{fill:#02A39F;}
	.st30{fill:#F7A42B;}
	.st31{opacity:0.47;fill:url(#SVGID_10_);enable-background:new    ;}
</style>
<g id="Layer_1_1_">
	<rect class="st0" width="800" height="250"/>
</g>
<g id="Layer_7">
	<g>
		<path class="st1" d="M38.2,238c0,0-25.4-37.2,14.8-47.1c0,0,10.6-43.1,55.2-24.6c0,0,30.3-39.9,81-4.6c0,0,28.7-39,66.1-9.3
			c0,0,72.5-56.4,120.9,17.5c0,0,37.9-3.3,28.5,33.1c0,0,41.9-5.6,38,35H38.2z"/>
		<path class="st2" d="M82.5,238c0,0-19.8-28.9,11.5-36.6c0,0,8.2-33.5,42.9-19.1c0,0,23.6-31,62.9-3.6c0,0,22.3-30.3,51.4-7.2
			c0,0,56.4-43.8,93.9,13.6c0,0,29.4-2.5,22.1,25.7c0,0,32.5-4.3,29.5,27.2H82.5z"/>
		<path class="st3" d="M111.9,199.2c2.5-9.6,8.4-39.7-7-67.7c-0.9-1.6-0.2-3.5,1.4-4.3l0,0c1.6-0.8,3.5-0.1,4.2,1.6
			c4.6,10.9,19.3,48.9,11.2,73.1c-0.5,1.5-2.1,2.3-3.6,2l-3.8-0.9C112.5,202.6,111.4,200.9,111.9,199.2z"/>
		<path class="st3" d="M225,190.8c4.3-8.3,11.8-29-3.1-51c-1.4-2.1-0.2-4.9,2.3-5.4l0,0c1.5-0.3,3,0.4,3.7,1.7
			c4.9,8.7,21.6,41.4,8.8,59.7c-0.8,1.2-2.3,1.7-3.7,1.3l-5.7-1.4C225.1,195.3,224,192.8,225,190.8z"/>
		<path class="st3" d="M358.6,200.9c-2.5-9.6-8.4-39.7,7-67.7c0.9-1.6,0.2-3.5-1.4-4.3l0,0c-1.6-0.8-3.5-0.1-4.2,1.6
			c-4.6,10.9-19.3,48.9-11.2,73.1c0.5,1.5,2.1,2.3,3.6,2l3.8-0.9C357.9,204.4,359,202.6,358.6,200.9z"/>
		<g>
			<path class="st4" d="M372.7,148C372.7,148,372.7,148,372.7,148c-0.1-3-2.1-2.3-4.6,1.1c0,0,0,0,0,0c-3,4.2-5.9,3.8-4.5,0
				c0,0,0,0,0,0c1-3.2-0.7-3.3-3.5-1c0,0,0,0,0,0c-3.4,2.9-5,1.4-3-1.6c0,0,0,0,0,0c1.6-2.6,0.1-3.2-2.4-1.7c0,0,0,0,0,0
				c-3,1.7-4.3,0.3-2.6-1.9c0,0,0,0,0,0c1.5-1.9-0.1-2.7-2.8-1.9c0,0,0,0,0,0c-3.1,1-5.2-0.7-3.5-2.4c0,0,0,0,0,0
				c1.5-1.5-0.3-2.7-3.6-2.8c0,0,0,0,0,0c-3.9,0-6.5-2.7-3.9-3.8c0,0,0,0,0,0c2.1-1,0.6-2.9-3.2-4.2c0,0,0,0,0,0
				c-4.6-1.6-6.1-5-2.5-5l0,0c3-0.1,2.3-2.1-1.1-4.6c0,0,0,0,0,0c-4.2-3-3.8-5.9,0-4.5c0,0,0,0,0,0c3.2,1,3.3-0.7,1-3.5c0,0,0,0,0,0
				c-2.9-3.4-1.4-5,1.6-3c0,0,0,0,0,0c2.6,1.6,3.2,0.1,1.7-2.4c0,0,0,0,0,0c-1.7-3-0.3-4.3,1.9-2.6c0,0,0,0,0,0
				c1.9,1.5,2.7-0.1,1.9-2.8c0,0,0,0,0,0c-1-3.1,0.7-5.2,2.4-3.5c0,0,0,0,0,0c1.5,1.5,2.7-0.3,2.8-3.6l0,0c0-3.9,2.7-6.5,3.8-3.9
				c0,0,0,0,0,0c1,2.1,2.9,0.6,4.2-3.2c0,0,0,0,0,0c1.6-4.6,5-6.1,5-2.5l0,0c0.1,3,2.1,2.3,4.6-1.1c0,0,0,0,0,0c3-4.2,5.9-3.8,4.5,0
				c0,0,0,0,0,0c-1,3.2,0.7,3.3,3.5,1l0,0c3.4-2.9,5-1.4,3,1.6c0,0,0,0,0,0c-1.6,2.6-0.1,3.2,2.4,1.7c0,0,0,0,0,0
				c3-1.7,4.3-0.3,2.6,1.9c0,0,0,0,0,0c-1.5,1.9,0.1,2.7,2.8,1.9c0,0,0,0,0,0c3.1-1,5.2,0.7,3.5,2.4c0,0,0,0,0,0
				c-1.5,1.5,0.3,2.7,3.6,2.8l0,0c3.9,0,6.5,2.7,3.9,3.8c0,0,0,0,0,0c-2.1,1-0.6,2.9,3.2,4.2c0,0,0,0,0,0c4.6,1.6,6.1,5,2.5,5l0,0
				c-3,0.1-2.3,2.1,1.1,4.6c0,0,0,0,0,0c4.2,3,3.8,5.9,0,4.5c0,0,0,0,0,0c-3.2-1-3.3,0.7-1,3.5c0,0,0,0,0,0c2.9,3.4,1.4,5-1.6,3
				c0,0,0,0,0,0c-2.6-1.6-3.2-0.1-1.7,2.4c0,0,0,0,0,0c1.7,3,0.3,4.3-1.9,2.6c0,0,0,0,0,0c-1.9-1.5-2.7,0.1-1.9,2.8c0,0,0,0,0,0
				c1,3.1-0.7,5.2-2.4,3.5c0,0,0,0,0,0c-1.5-1.5-2.7,0.3-2.8,3.6c0,0,0,0,0,0c0,3.9-2.7,6.5-3.8,3.9c0,0,0,0,0,0
				c-1-2.1-2.9-0.6-4.2,3.2c0,0,0,0,0,0C376.1,150.1,372.6,151.7,372.7,148z"/>
		</g>
		<g>
			<path class="st5" d="M220.8,144C220.8,144,220.8,144,220.8,144c0-1.7-1.2-1.3-2.7,0.6c0,0,0,0,0,0c-1.7,2.4-3.4,2.2-2.6,0
				c0,0,0,0,0,0c0.6-1.9-0.4-1.9-2-0.6c0,0,0,0,0,0c-2,1.7-2.9,0.8-1.8-0.9c0,0,0,0,0,0c0.9-1.5,0.1-1.9-1.4-1c0,0,0,0,0,0
				c-1.8,1-2.5,0.1-1.5-1.1c0,0,0,0,0,0c0.9-1.1,0-1.6-1.6-1.1c0,0,0,0,0,0c-1.8,0.6-3-0.4-2-1.4c0,0,0,0,0,0
				c0.9-0.9-0.2-1.6-2.1-1.6l0,0c-2.3,0-3.8-1.6-2.3-2.2c0,0,0,0,0,0c1.2-0.6,0.4-1.7-1.9-2.5c0,0,0,0,0,0c-2.7-0.9-3.6-2.9-1.4-2.9
				c0,0,0,0,0,0c1.7,0,1.3-1.2-0.6-2.7c0,0,0,0,0,0c-2.4-1.7-2.2-3.4,0-2.6c0,0,0,0,0,0c1.9,0.6,1.9-0.4,0.6-2c0,0,0,0,0,0
				c-1.7-2-0.8-2.9,0.9-1.8c0,0,0,0,0,0c1.5,0.9,1.9,0.1,1-1.4c0,0,0,0,0,0c-1-1.8-0.1-2.5,1.1-1.5c0,0,0,0,0,0
				c1.1,0.9,1.6,0,1.1-1.6c0,0,0,0,0,0c-0.6-1.8,0.4-3,1.4-2c0,0,0,0,0,0c0.9,0.9,1.6-0.2,1.6-2.1l0,0c0-2.3,1.6-3.8,2.2-2.3
				c0,0,0,0,0,0c0.6,1.2,1.7,0.4,2.5-1.9l0,0c0.9-2.7,2.9-3.6,2.9-1.4l0,0c0,1.7,1.2,1.3,2.7-0.6c0,0,0,0,0,0c1.7-2.4,3.4-2.2,2.6,0
				c0,0,0,0,0,0c-0.6,1.9,0.4,1.9,2,0.6c0,0,0,0,0,0c2-1.7,2.9-0.8,1.8,0.9c0,0,0,0,0,0c-0.9,1.5-0.1,1.9,1.4,1c0,0,0,0,0,0
				c1.8-1,2.5-0.1,1.5,1.1c0,0,0,0,0,0c-0.9,1.1,0,1.6,1.6,1.1c0,0,0,0,0,0c1.8-0.6,3,0.4,2,1.4c0,0,0,0,0,0
				c-0.9,0.9,0.2,1.6,2.1,1.6c0,0,0,0,0,0c2.3,0,3.8,1.6,2.3,2.2c0,0,0,0,0,0c-1.2,0.6-0.4,1.7,1.9,2.5c0,0,0,0,0,0
				c2.7,0.9,3.6,2.9,1.4,2.9c0,0,0,0,0,0c-1.7,0-1.3,1.2,0.6,2.7c0,0,0,0,0,0c2.4,1.7,2.2,3.4,0,2.6c0,0,0,0,0,0
				c-1.9-0.6-1.9,0.4-0.6,2c0,0,0,0,0,0c1.7,2,0.8,2.9-0.9,1.8l0,0c-1.5-0.9-1.9-0.1-1,1.4c0,0,0,0,0,0c1,1.8,0.1,2.5-1.1,1.5
				c0,0,0,0,0,0c-1.1-0.9-1.6,0-1.1,1.6c0,0,0,0,0,0c0.6,1.8-0.4,3-1.4,2c0,0,0,0,0,0c-0.9-0.9-1.6,0.2-1.6,2.1c0,0,0,0,0,0
				c0,2.3-1.6,3.8-2.2,2.3c0,0,0,0,0,0c-0.6-1.2-1.7-0.4-2.5,1.9c0,0,0,0,0,0C222.8,145.3,220.8,146.2,220.8,144z"/>
		</g>
		<g>
			<path class="st6" d="M95.6,156.5C95.6,156.5,95.6,156.5,95.6,156.5c-0.1-2.9-2.1-2.2-4.4,1.1c0,0,0,0,0,0c-2.9,4-5.7,3.6-4.3,0
				c0,0,0,0,0,0c1-3.1-0.7-3.2-3.3-0.9c0,0,0,0,0,0c-3.2,2.8-4.8,1.4-2.9-1.6c0,0,0,0,0,0c1.5-2.5,0.1-3.1-2.3-1.7c0,0,0,0,0,0
				c-2.9,1.7-4.1,0.2-2.5-1.8c0,0,0,0,0,0c1.4-1.9-0.1-2.6-2.7-1.8c0,0,0,0,0,0c-3,0.9-5-0.7-3.4-2.3c0,0,0,0,0,0
				c1.4-1.4-0.3-2.6-3.5-2.7c0,0,0,0,0,0c-3.8,0-6.3-2.6-3.8-3.7c0,0,0,0,0,0c2.1-1,0.6-2.8-3.1-4.1c0,0,0,0,0,0
				c-4.4-1.5-5.9-4.9-2.4-4.8c0,0,0,0,0,0c2.9-0.1,2.2-2.1-1.1-4.4c0,0,0,0,0,0c-4-2.9-3.6-5.7,0-4.3c0,0,0,0,0,0
				c3.1,1,3.2-0.7,0.9-3.3c0,0,0,0,0,0c-2.8-3.2-1.4-4.8,1.6-2.9c0,0,0,0,0,0c2.5,1.5,3.1,0.1,1.7-2.3c0,0,0,0,0,0
				c-1.7-2.9-0.2-4.1,1.8-2.5c0,0,0,0,0,0c1.9,1.4,2.6-0.1,1.8-2.7c0,0,0,0,0,0c-0.9-3,0.7-5,2.3-3.4c0,0,0,0,0,0
				c1.4,1.4,2.6-0.3,2.7-3.5c0,0,0,0,0,0c0-3.8,2.6-6.3,3.7-3.8c0,0,0,0,0,0c1,2.1,2.8,0.6,4.1-3.1c0,0,0,0,0,0
				c1.5-4.4,4.9-5.9,4.8-2.4c0,0,0,0,0,0c0.1,2.9,2.1,2.2,4.4-1.1c0,0,0,0,0,0c2.9-4,5.7-3.6,4.3,0c0,0,0,0,0,0
				c-1,3.1,0.7,3.2,3.3,0.9c0,0,0,0,0,0c3.2-2.8,4.8-1.4,2.9,1.6c0,0,0,0,0,0c-1.5,2.5-0.1,3.1,2.3,1.7c0,0,0,0,0,0
				c2.9-1.7,4.1-0.2,2.5,1.8c0,0,0,0,0,0c-1.4,1.9,0.1,2.6,2.7,1.8c0,0,0,0,0,0c3-0.9,5,0.7,3.4,2.3c0,0,0,0,0,0
				c-1.4,1.4,0.3,2.6,3.5,2.7c0,0,0,0,0,0c3.8,0,6.3,2.6,3.8,3.7c0,0,0,0,0,0c-2.1,1-0.6,2.8,3.1,4.1c0,0,0,0,0,0
				c4.4,1.5,5.9,4.9,2.4,4.8c0,0,0,0,0,0c-2.9,0.1-2.2,2.1,1.1,4.4c0,0,0,0,0,0c4,2.9,3.6,5.7,0,4.3c0,0,0,0,0,0
				c-3.1-1-3.2,0.7-0.9,3.3c0,0,0,0,0,0c2.8,3.2,1.4,4.8-1.6,2.9c0,0,0,0,0,0c-2.5-1.5-3.1-0.1-1.7,2.3c0,0,0,0,0,0
				c1.7,2.9,0.2,4.1-1.8,2.5c0,0,0,0,0,0c-1.9-1.4-2.6,0.1-1.8,2.7c0,0,0,0,0,0c0.9,3-0.7,5-2.3,3.4c0,0,0,0,0,0
				c-1.4-1.4-2.6,0.3-2.7,3.5c0,0,0,0,0,0c0,3.8-2.6,6.3-3.7,3.8c0,0,0,0,0,0c-1-2.1-2.8-0.6-4.1,3.1c0,0,0,0,0,0
				C98.8,158.6,95.5,160.1,95.6,156.5z"/>
		</g>
	</g>
	<circle class="st7" cx="579.5" cy="72.5" r="3.5"/>
	<circle class="st7" cx="694.5" cy="30.5" r="3.5"/>
	<circle class="st7" cx="464.5" cy="34.5" r="3.5"/>
	<circle class="st7" cx="727.5" cy="125.5" r="3.5"/>
	<circle class="st7" cx="486.5" cy="130.5" r="3.5"/>
	<circle class="st7" cx="201.5" cy="20.5" r="3.5"/>
	<circle class="st7" cx="83.5" cy="34.5" r="3.5"/>
	<circle class="st7" cx="29.5" cy="98.5" r="3.5"/>
	<path class="st8" d="M565.5,231.1L565.5,231.1c-2.9,0-5.2-2.3-5.2-5.2V31.3c0-2.9,2.3-5.2,5.2-5.2l0,0c2.9,0,5.2,2.3,5.2,5.2v194.6
		C570.7,228.8,568.4,231.1,565.5,231.1z"/>
	<g>
		<g>
			<rect x="570.7" y="36.3" class="st9" width="33.7" height="33.7"/>
			<rect x="570.7" y="70" width="33.7" height="33.7"/>
			<rect x="604.5" y="70.1" class="st9" width="33.7" height="33.7"/>
			<rect x="604.5" y="36.3" width="33.7" height="33.7"/>
			<rect x="638.2" y="36.3" class="st9" width="33.7" height="33.7"/>
			<rect x="638.2" y="70" width="33.7" height="33.7"/>
			<rect x="672" y="70.1" class="st9" width="33.7" height="33.7"/>
			<rect x="672" y="36.3" width="33.7" height="33.7"/>
			<rect x="705.7" y="36.3" class="st9" width="33.7" height="33.7"/>
			<rect x="705.7" y="70" width="33.7" height="33.7"/>
			<rect x="739.5" y="70.1" class="st9" width="33.7" height="33.7"/>
			<rect x="739.5" y="36.3" width="33.7" height="33.7"/>
		</g>
		<g>
			<g>
				<g>
					<path class="st10" d="M620,84.1c-0.5,0-1.1,0-1.9-0.1c-0.8-0.1-1.6-0.2-2.4-0.4c-0.9-0.2-1.8-0.4-2.6-0.7
						c-0.9-0.3-1.7-0.6-2.5-1s-1.5-0.9-2-1.4c-0.6-0.7-0.9-1.4-0.9-2.3s0.3-1.7,1-2.4c0.7-0.7,1.5-1.1,2.4-1.1
						c0.6,0,1.1,0.1,1.6,0.4c0.6,0.3,1.2,0.6,1.8,0.9c0.6,0.2,1.2,0.4,1.8,0.6s1.2,0.3,1.8,0.4s1.3,0.1,2,0.1c0.4,0,1,0,1.6-0.1
						s1.1-0.2,1.6-0.3c0.5-0.2,0.8-0.4,1.2-0.7c0.1-0.1,0.3-0.3,0.3-0.8c0-0.3-0.1-0.7-0.7-1c-0.7-0.4-1.6-0.8-2.7-1.1
						c-1.1-0.4-2.4-0.7-3.7-1.1c-1.4-0.4-2.8-0.9-4-1.6c-1.3-0.7-2.3-1.6-3.2-2.7c-0.9-1.2-1.4-2.7-1.4-4.6c0-1.6,0.4-3,1.2-4.1
						c0.7-1.1,1.7-1.9,2.9-2.5c1.1-0.6,2.3-1,3.7-1.2c1.3-0.2,2.6-0.3,3.8-0.3c0.6,0,1.3,0,2.1,0.1s1.6,0.2,2.4,0.3
						c0.8,0.1,1.6,0.3,2.3,0.5c0.8,0.2,1.5,0.5,2.1,0.7c0.6,0.3,1.1,0.7,1.5,1.1c0.4,0.5,0.6,1.2,0.6,2c0,0.9-0.3,1.8-1,2.4
						s-1.5,1-2.4,1c-0.4,0-0.8-0.1-1.3-0.3c-1-0.4-2.1-0.7-3.1-0.9s-2.1-0.3-3.2-0.3c-0.4,0-0.9,0-1.5,0c-0.5,0-1.1,0.1-1.6,0.2
						c-0.4,0.1-0.8,0.3-1.1,0.5c-0.1,0.1-0.2,0.2-0.2,0.6c0,0.1,0,0.3,0.2,0.5c0.2,0.3,0.6,0.5,1,0.8c0.4,0.3,1,0.5,1.5,0.7
						c0.6,0.2,1.2,0.4,1.8,0.6s1.1,0.3,1.6,0.5c0.5,0.1,0.9,0.3,1.2,0.3c1,0.3,2,0.7,3,1.1s1.9,0.9,2.7,1.6c0.8,0.6,1.4,1.5,1.9,2.4
						c0.5,1,0.7,2.1,0.7,3.4c0,1.7-0.4,3.2-1.1,4.4c-0.7,1.1-1.7,2.1-2.9,2.8c-1.1,0.7-2.4,1.1-3.8,1.4
						C622.7,83.9,621.3,84.1,620,84.1z"/>
					<path d="M620.6,56c0.6,0,1.3,0,2.1,0.1s1.5,0.2,2.3,0.3s1.5,0.3,2.3,0.5c0.7,0.2,1.4,0.4,1.9,0.7c0.4,0.2,0.8,0.5,1.1,0.9
						s0.4,0.8,0.4,1.3c0,0.7-0.2,1.3-0.7,1.7c-0.5,0.5-1.1,0.7-1.7,0.7c-0.3,0-0.6-0.1-0.9-0.2c-1.1-0.4-2.2-0.7-3.2-0.9
						c-1.1-0.2-2.2-0.3-3.4-0.3c-0.4,0-0.9,0-1.5,0s-1.2,0.1-1.8,0.3s-1.1,0.4-1.5,0.7s-0.6,0.8-0.6,1.4c0,0.4,0.2,0.8,0.5,1.2
						s0.7,0.7,1.2,1s1.1,0.6,1.7,0.8c0.6,0.2,1.2,0.4,1.8,0.6s1.1,0.3,1.6,0.5c0.5,0.1,0.9,0.3,1.2,0.3c1,0.3,1.9,0.7,2.9,1
						c0.9,0.4,1.7,0.8,2.4,1.4s1.2,1.3,1.7,2.1c0.4,0.8,0.6,1.8,0.6,3c0,1.5-0.3,2.8-1,3.8s-1.5,1.8-2.5,2.4s-2.2,1-3.5,1.3
						c-1.3,0.2-2.6,0.4-3.9,0.4c-0.4,0-1,0-1.8-0.1c-0.7-0.1-1.5-0.2-2.3-0.4c-0.8-0.2-1.7-0.4-2.5-0.6c-0.8-0.3-1.6-0.6-2.3-0.9
						c-0.7-0.4-1.3-0.8-1.7-1.2c-0.4-0.5-0.7-1-0.7-1.6s0.2-1.2,0.7-1.7s1-0.7,1.7-0.7c0.4,0,0.8,0.1,1.1,0.3
						c0.7,0.4,1.3,0.7,1.9,0.9c0.6,0.3,1.3,0.5,1.9,0.6c0.6,0.2,1.3,0.3,1.9,0.4c0.7,0.1,1.4,0.1,2.1,0.1c0.5,0,1,0,1.7-0.1
						c0.6-0.1,1.3-0.2,1.8-0.4c0.6-0.2,1.1-0.5,1.5-0.9s0.6-0.9,0.6-1.5c0-0.8-0.4-1.4-1.2-1.9s-1.7-0.9-2.9-1.2
						c-1.1-0.4-2.4-0.7-3.8-1.1c-1.4-0.4-2.6-0.9-3.8-1.5c-1.1-0.6-2.1-1.4-2.9-2.5c-0.8-1-1.2-2.4-1.2-4c0-1.4,0.3-2.6,1-3.6
						s1.5-1.7,2.5-2.2s2.2-0.9,3.4-1.1C618.2,56.1,619.5,56,620.6,56 M620.6,54c-1.3,0-2.6,0.1-4,0.3c-1.5,0.2-2.8,0.7-4,1.3
						c-1.3,0.7-2.4,1.6-3.2,2.8c-0.9,1.3-1.3,2.9-1.3,4.7c0,2.1,0.5,3.9,1.6,5.2c0.9,1.2,2.1,2.3,3.5,3c1.3,0.7,2.7,1.3,4.2,1.7
						c1.3,0.4,2.6,0.7,3.7,1.1c1,0.3,1.8,0.6,2.4,1c0.1,0.1,0.2,0.1,0.2,0.1l0,0c0,0,0,0,0,0.1c-0.2,0.2-0.5,0.3-0.8,0.4
						c-0.4,0.1-0.9,0.2-1.4,0.3c-0.6,0.1-1.1,0.1-1.5,0.1c-0.7,0-1.3,0-1.9-0.1c-0.6-0.1-1.1-0.2-1.7-0.3c-0.5-0.1-1.1-0.3-1.6-0.6
						c-0.6-0.2-1.1-0.5-1.7-0.8c-0.7-0.4-1.4-0.6-2.1-0.6c-1.2,0-2.3,0.5-3.1,1.4s-1.3,1.9-1.3,3.1c0,1.1,0.4,2.1,1.2,2.9
						c0.6,0.6,1.4,1.2,2.2,1.6s1.7,0.8,2.6,1c0.9,0.3,1.8,0.5,2.7,0.7s1.7,0.3,2.5,0.4s1.5,0.1,2,0.1c1.4,0,2.8-0.1,4.2-0.4
						c1.5-0.3,2.9-0.8,4.1-1.5c1.3-0.8,2.4-1.8,3.2-3.1c0.9-1.3,1.3-3,1.3-4.9c0-1.5-0.3-2.8-0.8-3.9s-1.3-2-2.2-2.7
						c-0.8-0.7-1.8-1.3-2.9-1.7c-1-0.4-2-0.8-3-1.1l0,0l0,0c-0.3-0.1-0.7-0.2-1.2-0.3c-0.5-0.1-1-0.3-1.6-0.5
						c-0.5-0.2-1.1-0.4-1.7-0.6c-0.5-0.2-1-0.4-1.4-0.6c-0.2-0.1-0.4-0.3-0.6-0.4c0.1-0.1,0.3-0.1,0.5-0.2c0.4-0.1,0.9-0.2,1.3-0.2
						c0.6,0,1.1,0,1.5,0c1,0,2,0.1,3,0.3s2,0.5,3,0.8c0.6,0.2,1.1,0.3,1.6,0.3c1.2,0,2.3-0.5,3.2-1.3c0.9-0.9,1.3-1.9,1.3-3.2
						c0-1-0.3-1.9-0.9-2.6c-0.5-0.6-1.1-1.1-1.8-1.4c-0.7-0.3-1.4-0.6-2.3-0.8c-0.8-0.2-1.6-0.4-2.4-0.5c-0.8-0.2-1.7-0.3-2.5-0.3
						C622,54.1,621.3,54,620.6,54L620.6,54z"/>
				</g>
				<g>
					<path class="st10" d="M644.9,83.9c-1,0-1.9-0.4-2.6-1.1c-0.7-0.7-1-1.6-1-2.6V62.4h-6.2c-1,0-1.8-0.3-2.4-1s-1-1.5-1-2.4
						s0.3-1.8,1-2.4c0.7-0.7,1.5-1,2.4-1h19.6c0.9,0,1.8,0.3,2.4,1c0.7,0.7,1,1.5,1,2.4s-0.4,1.8-1,2.4c-0.7,0.7-1.5,1-2.4,1h-6.2
						v17.9c0,1-0.4,1.9-1.1,2.6C646.7,83.5,645.9,83.9,644.9,83.9z"/>
					<path d="M654.7,56.5c0.7,0,1.3,0.2,1.7,0.7c0.5,0.5,0.7,1.1,0.7,1.7c0,0.7-0.2,1.3-0.7,1.7c-0.5,0.5-1.1,0.7-1.7,0.7h-7.2v18.9
						c0,0.7-0.3,1.4-0.8,1.9s-1.1,0.8-1.9,0.8s-1.3-0.3-1.8-0.8s-0.7-1.1-0.7-1.9V61.4h-7.2c-0.7,0-1.3-0.2-1.7-0.7s-0.7-1-0.7-1.7
						s0.2-1.3,0.7-1.7s1-0.7,1.7-0.7L654.7,56.5 M654.7,54.5h-19.6c-1.2,0-2.3,0.5-3.2,1.3c-0.8,0.9-1.3,1.9-1.3,3.1
						c0,1.2,0.4,2.3,1.3,3.1c0.8,0.8,1.9,1.3,3.1,1.3h5.2v16.9c0,1.3,0.5,2.4,1.3,3.3c0.9,0.9,2,1.4,3.3,1.4s2.4-0.5,3.3-1.3
						c0.9-0.9,1.3-2,1.3-3.3V63.4h5.2c1.2,0,2.3-0.4,3.1-1.3c0.9-0.8,1.3-1.9,1.3-3.2c0-1.2-0.5-2.3-1.3-3.2
						C657,54.9,655.9,54.5,654.7,54.5L654.7,54.5z"/>
				</g>
				<g>
					<path class="st10" d="M680.2,83.9c-0.7,0-1.3-0.2-1.9-0.5c-0.5-0.3-1-0.8-1.2-1.4l-1.9-4.2h-10l-1.9,4.2
						c-0.3,0.6-0.7,1.1-1.3,1.5c-0.6,0.3-1.2,0.5-1.8,0.5c-1,0-1.8-0.3-2.4-1c-0.7-0.7-1-1.5-1-2.4c0-0.5,0.1-1,0.3-1.4l10-21.9
						c0.3-0.6,0.7-1.1,1.2-1.4c0.6-0.4,1.2-0.6,1.8-0.6s1.3,0.2,1.8,0.5c0.6,0.4,1,0.8,1.3,1.5l10,21.9c0.2,0.5,0.3,1,0.3,1.4
						c0,0.9-0.3,1.8-1,2.4C682,83.5,681.1,83.9,680.2,83.9z M672.3,71.3l-2.1-4.7l-2.1,4.7H672.3z"/>
					<path d="M670.1,56.1c0.5,0,0.9,0.1,1.3,0.4c0.4,0.2,0.7,0.6,0.9,1l10,21.9c0.1,0.3,0.2,0.7,0.2,1c0,0.7-0.2,1.3-0.7,1.7
						s-1,0.7-1.7,0.7c-0.5,0-0.9-0.1-1.3-0.4c-0.4-0.2-0.7-0.6-0.9-1l-2.2-4.8h-11.3l-2.2,4.8c-0.2,0.4-0.5,0.8-0.9,1
						s-0.8,0.4-1.3,0.4c-0.7,0-1.3-0.2-1.7-0.7c-0.5-0.5-0.7-1.1-0.7-1.7c0-0.3,0.1-0.7,0.2-1l10-21.9c0.2-0.4,0.5-0.8,0.9-1
						C669.2,56.3,669.6,56.1,670.1,56.1 M666.5,72.3h7.3l-3.7-8.1L666.5,72.3 M670.1,54.1c-0.9,0-1.7,0.2-2.4,0.7s-1.2,1.1-1.6,1.9
						l-10,21.8c-0.3,0.6-0.4,1.2-0.4,1.8c0,1.2,0.5,2.3,1.3,3.2c0.9,0.9,1.9,1.3,3.2,1.3c0.9,0,1.6-0.2,2.4-0.7
						c0.7-0.5,1.3-1.1,1.6-1.9l1.6-3.6h8.7l1.6,3.6c0.4,0.8,0.9,1.4,1.6,1.9c0.7,0.5,1.5,0.7,2.4,0.7c1.2,0,2.3-0.5,3.1-1.3
						s1.3-1.9,1.3-3.1c0-0.6-0.1-1.2-0.3-1.7v-0.1v-0.1l-10-21.9c-0.4-0.8-1-1.5-1.7-1.9C671.7,54.4,670.9,54.1,670.1,54.1
						L670.1,54.1z M669.6,70.3l0.6-1.3l0.6,1.3H669.6L669.6,70.3z"/>
				</g>
				<g>
					<path class="st10" d="M706.3,83.9c-0.7,0-1.3-0.2-1.8-0.5c-0.6-0.3-1-0.8-1.3-1.4c-0.1-0.2-0.3-0.5-0.5-1l-0.8-1.7
						c-0.4-0.8-0.7-1.5-1.1-2.3c-0.4-0.8-0.8-1.5-1.1-2.2c-0.3-0.6-0.6-1.2-0.8-1.6c0-0.1-0.1-0.1-0.1-0.2h-5.5v7.3
						c0,1-0.4,1.9-1.1,2.6c-0.7,0.7-1.6,1-2.5,1c-1,0-1.9-0.3-2.5-1c-0.7-0.7-1-1.5-1-2.5V59.1c0-1,0.3-1.9,1-2.5
						c0.7-0.7,1.5-1,2.5-1h9.7c1.3,0,2.7,0.1,3.9,0.4c1.3,0.3,2.4,0.8,3.4,1.5s1.8,1.7,2.4,2.8c0.6,1.1,0.9,2.5,0.9,4.1
						c0,1.7-0.4,3.3-1.2,4.6c-0.6,1.1-1.6,2-2.7,2.6c0,0.1,0.1,0.1,0.1,0.2c0.3,0.5,0.6,1.1,0.9,1.7c0.3,0.6,0.6,1.3,1,1.9
						c0.3,0.7,0.6,1.3,0.9,1.9c0.3,0.6,0.5,1.2,0.7,1.7c0.2,0.6,0.3,1,0.3,1.4c0,1-0.3,1.8-1,2.5C708.1,83.5,707.3,83.9,706.3,83.9z
						 M700.1,66.6c0.8,0,1.4-0.2,1.9-0.6c0.3-0.2,0.6-0.6,0.6-1.5c0-1-0.4-1.4-0.6-1.6c-0.5-0.4-1.1-0.6-1.9-0.6h-6.8v4.3
						C693.3,66.6,700.1,66.6,700.1,66.6z"/>
					<path d="M699.4,56.5c1.3,0,2.5,0.1,3.7,0.4c1.2,0.3,2.2,0.7,3,1.4c0.9,0.6,1.5,1.4,2.1,2.4s0.8,2.2,0.8,3.6
						c0,1.5-0.4,2.9-1.1,4.1c-0.7,1.2-1.8,2.1-3.2,2.7c0.1,0.3,0.3,0.6,0.6,1.1s0.5,1,0.9,1.7c0.3,0.6,0.6,1.3,1,1.9
						s0.6,1.3,0.9,1.9c0.3,0.6,0.5,1.1,0.7,1.6s0.3,0.8,0.3,1c0,0.7-0.2,1.3-0.7,1.8s-1.1,0.7-1.8,0.7c-0.5,0-0.9-0.1-1.3-0.4
						c-0.4-0.2-0.7-0.6-0.9-1c-0.1-0.1-0.2-0.5-0.5-1s-0.5-1.1-0.9-1.8c-0.3-0.7-0.7-1.4-1.1-2.2c-0.4-0.8-0.7-1.5-1.1-2.1
						c-0.3-0.7-0.6-1.2-0.8-1.6s-0.3-0.7-0.3-0.7h-7.2v8.3c0,0.7-0.3,1.3-0.8,1.8s-1.1,0.7-1.8,0.7s-1.3-0.2-1.8-0.7
						s-0.7-1.1-0.7-1.8V59.1c0-0.7,0.2-1.3,0.7-1.8s1.1-0.7,1.8-0.7L699.4,56.5 M692.3,67.6h7.8c1,0,1.8-0.3,2.5-0.8
						s1.1-1.3,1.1-2.3s-0.3-1.8-1-2.4c-0.7-0.5-1.5-0.8-2.5-0.8h-7.8L692.3,67.6 M699.4,54.5h-9.7c-1.3,0-2.4,0.5-3.3,1.3
						c-0.9,0.9-1.3,2-1.3,3.3v21.2c0,1.3,0.5,2.4,1.3,3.3c0.9,0.9,2,1.3,3.3,1.3c1.2,0,2.3-0.4,3.2-1.3s1.4-2,1.4-3.3V74h3.9
						c0.2,0.4,0.4,0.8,0.6,1.2c0.3,0.7,0.7,1.4,1.1,2.2c0.4,0.8,0.7,1.5,1.1,2.2v0.1l0.8,1.7c0.3,0.6,0.4,0.9,0.5,1
						c0.4,0.8,0.9,1.4,1.6,1.8c0.7,0.4,1.5,0.7,2.4,0.7c1.2,0,2.3-0.5,3.2-1.3c0.9-0.9,1.3-2,1.3-3.2c0-0.5-0.1-1-0.4-1.7
						c-0.2-0.5-0.4-1.1-0.7-1.7s-0.6-1.3-0.9-1.9c-0.3-0.7-0.7-1.3-1-2c-0.2-0.4-0.4-0.8-0.6-1.1c0.9-0.7,1.7-1.5,2.3-2.5
						c0.9-1.5,1.3-3.2,1.3-5.1c0-1.7-0.3-3.3-1-4.6s-1.5-2.3-2.7-3.1c-1.1-0.8-2.3-1.3-3.7-1.7C702.2,54.7,700.8,54.5,699.4,54.5
						L699.4,54.5z M694.3,63.3h5.8c0.7,0,1.1,0.2,1.3,0.4c0.1,0.1,0.3,0.2,0.3,0.8c0,0.5-0.2,0.7-0.2,0.7c-0.4,0.3-0.8,0.4-1.3,0.4
						h-5.8L694.3,63.3L694.3,63.3z"/>
				</g>
				<g>
					<path class="st10" d="M723.8,83.9c-1,0-1.9-0.4-2.6-1.1c-0.7-0.7-1-1.6-1-2.6V62.4H714c-1,0-1.8-0.3-2.4-1s-1-1.5-1-2.4
						s0.3-1.8,1-2.4c0.7-0.7,1.5-1,2.4-1h19.6c1,0,1.8,0.3,2.4,1c0.7,0.7,1,1.5,1,2.4s-0.4,1.8-1,2.4c-0.7,0.7-1.5,1-2.4,1h-6.2
						v17.9c0,1-0.4,1.9-1.1,2.6C725.7,83.5,724.8,83.9,723.8,83.9z"/>
					<path d="M733.6,56.5c0.7,0,1.3,0.2,1.7,0.7c0.5,0.5,0.7,1.1,0.7,1.7c0,0.7-0.2,1.3-0.7,1.7c-0.5,0.5-1.1,0.7-1.7,0.7h-7.2v18.9
						c0,0.7-0.3,1.4-0.8,1.9s-1.1,0.8-1.9,0.8s-1.3-0.3-1.8-0.8s-0.7-1.1-0.7-1.9V61.4H714c-0.7,0-1.3-0.2-1.7-0.7s-0.7-1-0.7-1.7
						s0.2-1.3,0.7-1.7s1-0.7,1.7-0.7L733.6,56.5 M733.6,54.5H714c-1.2,0-2.3,0.5-3.2,1.3c-0.8,0.9-1.3,1.9-1.3,3.1
						c0,1.2,0.4,2.3,1.3,3.1c0.8,0.8,1.9,1.3,3.1,1.3h5.2v16.9c0,1.3,0.5,2.4,1.3,3.3c0.9,0.9,2,1.4,3.3,1.4s2.4-0.5,3.3-1.3
						c0.9-0.9,1.3-2,1.3-3.3V63.4h5.2c1.2,0,2.3-0.4,3.1-1.3c0.9-0.8,1.3-1.9,1.3-3.2c0-1.2-0.5-2.3-1.3-3.2
						C735.9,54.9,734.8,54.5,733.6,54.5L733.6,54.5z"/>
				</g>
			</g>
		</g>
		<path class="st8" d="M778.4,231.1L778.4,231.1c-2.9,0-5.2-2.3-5.2-5.2V31.3c0-2.9,2.3-5.2,5.2-5.2l0,0c2.9,0,5.2,2.3,5.2,5.2
			v194.6C783.6,228.8,781.2,231.1,778.4,231.1z"/>
	</g>
</g>
<g id="Layer_5">
	<rect y="220" class="st11" width="800" height="30"/>
	<rect x="15" y="220" class="st9" width="99" height="6"/>
	<rect x="221" y="220" class="st9" width="99" height="6"/>
	<rect x="429" y="220" class="st9" width="99" height="6"/>
	<rect x="635" y="220" class="st9" width="99" height="6"/>
</g>
<g id="Layer_6">
</g>
<linearGradient id="SVGID_1_" gradientUnits="userSpaceOnUse" x1="664.3601" y1="185.9896" x2="710.2399" y2="185.9896">
	<stop  offset="0" style="stop-color:#FCEE21"/>
	<stop  offset="1" style="stop-color:#FCEE21;stop-opacity:0"/>
</linearGradient>
<polygon class="st12" points="710.2,210.9 664.4,192.8 664.4,180.5 710.2,161.1 "/>
<g>
	<g>
		<g>
			<g id="Layer_2_2_">
				<g id="Premium">
					<g id="premium-air">
						
							<radialGradient id="SVGID_2_" cx="577.6865" cy="245.4064" r="9.4285" gradientTransform="matrix(1.03 0.1 0.11 -1.13 -138.69 355.39)" gradientUnits="userSpaceOnUse">
							<stop  offset="0" style="stop-color:#DCDCDC"/>
							<stop  offset="0.69" style="stop-color:#A3A3A3"/>
							<stop  offset="1" style="stop-color:#878787"/>
						</radialGradient>
						<polygon class="st13" points="485.4,144.7 472.9,126.4 487.1,127.8 494,145.6 						"/>
						<path class="st14" d="M620.8,157.7l23.6,2.3c18.5,1.8,31.9,19.7,29.9,39.9L673,213c2.4,0.2,4.1,2.5,3.8,5.1s-2.4,4.5-4.8,4.3
							l-152.5-15.2l-54.4-13.9c-2.3-0.2-3.9-2.4-3.6-4.9c0.2-2.5,2.3-4.3,4.5-4l3.3-34.9c0.6-5.8,5.4-10.1,10.7-9.6l35.5,3.5
							l35.8-15.4c2.5-1,5.2-1.5,8-1.6c4.4,0,34.3,4.4,34.3,4.4s9.6-0.5,13.9,8.9c4.3,9.4,13.8,18.4,13.8,18.4"/>
						<g>
							<defs>
								<path id="SVGID_3_" d="M620.8,157.7l23.6,2.3c18.5,1.8,31.9,19.7,29.9,39.9L673,213c2.4,0.2,4.1,2.5,3.8,5.1
									s-2.4,4.5-4.8,4.3l-152.5-15.2l-54.4-13.9c-2.3-0.2-3.9-2.4-3.6-4.9c0.2-2.5,2.3-4.3,4.5-4l3.3-34.9
									c0.6-5.8,5.4-10.1,10.7-9.6l35.5,3.5l35.8-15.4c2.5-1,5.2-1.5,8-1.6c4.4,0,34.3,4.4,34.3,4.4s9.6-0.5,13.9,8.9
									c4.3,9.4,13.8,18.4,13.8,18.4"/>
							</defs>
							<clipPath id="SVGID_4_">
								<use xlink:href="#SVGID_3_"  style="overflow:visible;"/>
							</clipPath>
							<g class="st15">
								
									<rect x="481.4" y="84.9" transform="matrix(0.7207 0.6933 -0.6933 0.7207 245.3018 -295.5533)" class="st9" width="16" height="143.5"/>
								
									<rect x="527.4" y="91.6" transform="matrix(0.7207 0.6933 -0.6933 0.7207 262.8033 -325.5663)" class="st9" width="16" height="143.5"/>
								
									<rect x="566.7" y="99.3" transform="matrix(0.7207 0.6933 -0.6933 0.7207 279.1098 -350.61)" class="st9" width="16" height="143.5"/>
								
									<rect x="609.3" y="106" transform="matrix(0.7207 0.6933 -0.6933 0.7207 295.6255 -378.2948)" class="st9" width="16" height="143.5"/>
								
									<rect x="646.3" y="115.2" transform="matrix(0.7207 0.6933 -0.6933 0.7207 312.3661 -401.3559)" class="st9" width="16" height="143.5"/>
							</g>
						</g>
						<path class="st16" d="M673,213c2.4,0.2,4.1,2.5,3.8,5.1s-2.4,4.5-4.8,4.3l-152.5-15.2l-54.4-13.9c-2.3-0.2-3.9-2.4-3.6-4.9
							c0.2-2.5,2.3-4.3,4.5-4l1.9-21.1l8.1,10.3l-1.6,11.7l-0.3,2.8l44.9,11.1L673,213z"/>
						<path class="st17" d="M674.1,202.3c0,0-8.8-37.8-55.3-28.7l-149.5-24.1c0.6-5.8,5.4-10.1,10.7-9.6l35.5,3.5
							c6,0.6,95,21.7,95,21.7l10.3-7.5l23.6,2.3C644.5,160,678.1,162.4,674.1,202.3z"/>
						<ellipse class="st18" cx="503.4" cy="196.2" rx="30.4" ry="30.2"/>
						<ellipse class="st19" cx="503.4" cy="196.2" rx="29.5" ry="29.4"/>
						<ellipse cx="503.4" cy="196.2" rx="22.2" ry="22.1"/>
						<ellipse class="st9" cx="503.4" cy="196.2" rx="21.1" ry="21"/>
						<ellipse class="st20" cx="503.4" cy="196.2" rx="20.1" ry="19.9"/>
						<ellipse class="st21" cx="503.4" cy="196.2" rx="12.5" ry="12.4"/>
						<ellipse class="st22" cx="503.4" cy="196.2" rx="11.4" ry="11.3"/>
						<ellipse class="st18" cx="641.7" cy="207.7" rx="23" ry="22.8"/>
						<ellipse class="st19" cx="641.7" cy="207.7" rx="22.4" ry="22.2"/>
						<ellipse cx="641.7" cy="207.7" rx="16.8" ry="16.7"/>
						<ellipse class="st9" cx="641.7" cy="207.7" rx="16" ry="15.9"/>
						<ellipse class="st20" cx="641.7" cy="207.7" rx="15.2" ry="15.1"/>
						<ellipse class="st21" cx="641.7" cy="207.7" rx="9.4" ry="9.4"/>
						<ellipse class="st22" cx="641.7" cy="207.7" rx="8.6" ry="8.6"/>
						
							<linearGradient id="SVGID_5_" gradientUnits="userSpaceOnUse" x1="634.5799" y1="129.1721" x2="687.9468" y2="129.1721" gradientTransform="matrix(1 0.1 0.1 -1 -97.2 211.77)">
							<stop  offset="0" style="stop-color:#C9E7F9"/>
							<stop  offset="1" style="stop-color:#AAFFF9"/>
						</linearGradient>
						<path class="st23" d="M601.6,163.4c-10-26.1-16.5-25.8-16.5-25.8s-16.3-2.1-21.5-2.1s-7.2,3.1-7.2,3.1l-5.9,7.5
							c0,0-3.9,4.4,4.6,6.1C561.8,153.5,601.6,163.4,601.6,163.4z"/>
						
							<linearGradient id="SVGID_6_" gradientUnits="userSpaceOnUse" x1="682.9075" y1="128.8546" x2="706.9469" y2="128.8546" gradientTransform="matrix(1 0.1 0.1 -1 -97.2 211.77)">
							<stop  offset="0" style="stop-color:#C9E7F9"/>
							<stop  offset="1" style="stop-color:#AAFFF9"/>
						</linearGradient>
						<path class="st24" d="M607.4,139.8l13.8,17.9l-9.4,7.1l-12.2-21.1c0,0-2.3-3.1,0.4-4.2L607.4,139.8z"/>
					</g>
				</g>
			</g>
		</g>
	</g>
	<g>
		
			<ellipse transform="matrix(0.9787 -0.2054 0.2054 0.9787 -16.5737 101.8078)" class="st25" cx="482.1" cy="130.7" rx="17.6" ry="3.9"/>
		<path class="st14" d="M472.8,131.8c0,0,3.1-18.8-12-24.3c0,0-7.5-1.6-6.6-6.4c0,0,2.3-9.8,8.8-12.9c0,0,4.6-3.7,8.1,3.4
			c0,0,3.2,5.1,4,5.5c0,0,15.8,8,13,21.3c0,0,0,8.2,2.5,9.1C490.6,127.5,481.9,135,472.8,131.8z"/>
		<g>
			<defs>
				<path id="SVGID_7_" d="M472.8,131.8c0,0,3.1-18.8-12-24.3c0,0-7.5-1.6-6.6-6.4c0,0,2.3-9.8,8.8-12.9c0,0,4.6-3.7,8.1,3.4
					c0,0,3.2,5.1,4,5.5c0,0,15.8,8,13,21.3c0,0,0,8.2,2.5,9.1C490.6,127.5,481.9,135,472.8,131.8z"/>
			</defs>
			<clipPath id="SVGID_8_">
				<use xlink:href="#SVGID_7_"  style="overflow:visible;"/>
			</clipPath>
			<g class="st26">
				
					<rect x="450.3" y="96.5" transform="matrix(0.6596 -0.7516 0.7516 0.6596 84.1517 384.9795)" class="st9" width="33.7" height="6.2"/>
				
					<rect x="458.2" y="106.5" transform="matrix(0.7174 -0.6966 0.6966 0.7174 57.8804 361.8848)" class="st9" width="33.7" height="6.2"/>
				
					<rect x="463.3" y="118.6" transform="matrix(0.8864 -0.463 0.463 0.8864 -1.7661 236.1326)" class="st9" width="33.7" height="6.2"/>
			</g>
		</g>
	</g>
	<ellipse transform="matrix(0.1025 -0.9947 0.9947 0.1025 386.224 690.9066)" class="st27" cx="576" cy="131.4" rx="3" ry="15.5"/>
	<g>
		
			<linearGradient id="SVGID_9_" gradientUnits="userSpaceOnUse" x1="502.6184" y1="139.849" x2="529.6442" y2="139.849" gradientTransform="matrix(0.9787 -0.2054 0.2054 0.9787 45.3882 89.1507)">
			<stop  offset="0" style="stop-color:#C9E7F9"/>
			<stop  offset="1" style="stop-color:#AAFFF9"/>
		</linearGradient>
		<path class="st28" d="M585.8,109.8c1.3-0.7,2-1.3,1.9-1.8c-0.3-1.2-5.2-1.2-11,0s-10.3,3.2-10,4.4c0.1,0.5,1,0.8,2.5,0.9
			c-2.6,2.7-3.8,6.4-3,10c1.3,6.3,8.3,10.2,15.6,8.7c7.3-1.5,12.1-7.9,10.8-14.3C591.8,114.1,589.2,111.3,585.8,109.8z"/>
		
			<ellipse transform="matrix(0.9787 -0.2054 0.2054 0.9787 -10.168 120.8518)" class="st29" cx="577" cy="109.4" rx="8.2" ry="1.4"/>
		<path class="st30" d="M579,115.7c-2.9,1-4.9,3.3-5,5.5c-0.3,0-0.5,0.1-0.8,0.2c-1.3,0.4-2.1,1.6-1.8,2.6c0.3,1,1.7,1.4,3,1
			c0.4-0.1,0.7-0.3,1-0.5c1.6,1.3,4.2,1.7,6.8,0.9c3.5-1.2,5.7-4.3,4.8-6.9C586.1,115.7,582.6,114.5,579,115.7z"/>
	</g>
</g>
<g id="Layer_8">
	
		<linearGradient id="SVGID_10_" gradientUnits="userSpaceOnUse" x1="400" y1="252" x2="400" y2="2" gradientTransform="matrix(1 0 0 -1 0 252)">
		<stop  offset="0" style="stop-color:#666666"/>
		<stop  offset="1" style="stop-color:#333333"/>
	</linearGradient>
	<rect class="st31" width="800" height="250"/>
</g>
</svg>
