<?xml version="1.0" encoding="utf-8"?>
<!-- Generator: Adobe Illustrator 25.0.0, SVG Export Plug-In . SVG Version: 6.00 Build 0)  -->
<svg version="1.1" id="Layer_1" xmlns="http://www.w3.org/2000/svg" xmlns:xlink="http://www.w3.org/1999/xlink" x="0px" y="0px"
	 viewBox="0 0 800 250" style="enable-background:new 0 0 800 250;" xml:space="preserve">
<style type="text/css">
	.st0{fill:#222222;}
	.st1{opacity:0.8;fill:#FFFFFF;enable-background:new    ;}
	.st2{fill:#1C1C1C;}
	.st3{fill:#FFFFFF;}
	.st4{fill:#444444;}
	.st5{fill:#FF0000;}
	.st6{fill:#3B3B3B;}
	.st7{fill:url(#SVGID_1_);}
	.st8{fill:#2D2D2D;}
	.st9{fill:#1813E5;}
	.st10{fill:#35CCEF;}
	.st11{clip-path:url(#SVGID_3_);fill:#FF9700;}
	.st12{clip-path:url(#SVGID_3_);}
	.st13{opacity:0.15;enable-background:new    ;}
	.st14{fill:url(#SVGID_4_);}
	.st15{fill:url(#SVGID_5_);}
	.st16{fill:url(#SVGID_6_);}
	.st17{fill:#32323F;}
	.st18{fill:#474757;}
	.st19{fill:#DDDDDD;}
	.st20{fill:#BAC0D8;}
	.st21{fill:#ACAFBC;}
	.st22{fill:url(#SVGID_7_);}
	.st23{fill:url(#SVGID_8_);}
	.st24{fill:url(#SVGID_9_);}
	.st25{fill:url(#SVGID_10_);}
	.st26{fill:url(#SVGID_11_);}
	.st27{fill:url(#SVGID_12_);}
	.st28{fill:url(#SVGID_13_);}
	.st29{fill:url(#SVGID_14_);}
	.st30{fill:url(#SVGID_15_);}
	.st31{enable-background:new    ;}
	.st32{fill:#AD4905;}
	.st33{opacity:0.47;fill:url(#SVGID_16_);enable-background:new    ;}
</style>
<g id="Layer_1_1_">
	<rect class="st0" width="800" height="250"/>
</g>
<g id="Layer_7">
	<circle class="st1" cx="579.5" cy="72.5" r="3.5"/>
	<circle class="st1" cx="694.5" cy="30.5" r="3.5"/>
	<circle class="st1" cx="464.5" cy="34.5" r="3.5"/>
	<circle class="st1" cx="727.5" cy="125.5" r="3.5"/>
	<circle class="st1" cx="486.5" cy="130.5" r="3.5"/>
	<circle class="st1" cx="201.5" cy="20.5" r="3.5"/>
	<circle class="st1" cx="83.5" cy="34.5" r="3.5"/>
	<circle class="st1" cx="29.5" cy="98.5" r="3.5"/>
	<g>
		<g>
			<path class="st2" d="M306,155.5c-6.4,8.9-15.2,16.4-25.9,21.3c-21.5,9.8-45.4,7-63.6-5.3c-8.4,13.6-13.7,29.4-14.8,46.3h-0.2v28
				h203.3v-28h-0.2c-1.4-20.6-8.9-39.5-20.7-54.9c-2.4,1.5-4.9,2.8-7.5,4C352,178,324.4,172.6,306,155.5z"/>
			<path class="st3" d="M303.1,123c-36.6,0-68.7,19.4-86.6,48.5c18.2,12.3,42.2,15.1,63.6,5.3c10.7-4.9,19.5-12.3,25.9-21.3
				c18.4,17.1,46,22.5,70.3,11.4c2.6-1.2,5.1-2.5,7.5-4C365.2,138.6,336,123,303.1,123z"/>
		</g>
		<g>
			<path class="st4" d="M256.1,252.1c-1.9-28-15.1-52.9-35.1-70.1c-4.7,1.8-9.8,2.8-15.2,2.8c-10.6,0-20.2-3.9-27.7-10.3
				c-4.5,5.1-9.9,9.3-16,12.4c-6.2,29-31.9,50.8-62.8,50.8c-15.2,0-29.1-5.3-40.1-14c-3.3,9-5.4,18.5-6.1,28.5H53V250h203.3v2.1
				H256.1z"/>
			<path class="st3" d="M162.2,186.9c6.1-3.1,11.5-7.3,16-12.4c7.4,6.4,17.1,10.3,27.7,10.3c5.4,0,10.5-1,15.2-2.8
				c-17.8-15.4-41-24.7-66.4-24.7c-43.7,0-81,27.6-95.4,66.3c11,8.8,24.9,14,40.1,14C130.3,237.7,156,215.9,162.2,186.9z"/>
		</g>
	</g>
	<path class="st4" d="M565.5,231.1L565.5,231.1c-2.9,0-5.2-2.3-5.2-5.2V31.3c0-2.9,2.3-5.2,5.2-5.2l0,0c2.9,0,5.2,2.3,5.2,5.2v194.6
		C570.7,228.8,568.4,231.1,565.5,231.1z"/>
	<g>
		<g>
			<rect x="570.7" y="36.3" class="st3" width="33.7" height="33.7"/>
			<rect x="570.7" y="70" width="33.7" height="33.7"/>
			<rect x="604.5" y="70.1" class="st3" width="33.7" height="33.7"/>
			<rect x="604.5" y="36.3" width="33.7" height="33.7"/>
			<rect x="638.2" y="36.3" class="st3" width="33.7" height="33.7"/>
			<rect x="638.2" y="70" width="33.7" height="33.7"/>
			<rect x="672" y="70.1" class="st3" width="33.7" height="33.7"/>
			<rect x="672" y="36.3" width="33.7" height="33.7"/>
			<rect x="705.7" y="36.3" class="st3" width="33.7" height="33.7"/>
			<rect x="705.7" y="70" width="33.7" height="33.7"/>
			<rect x="739.5" y="70.1" class="st3" width="33.7" height="33.7"/>
			<rect x="739.5" y="36.3" width="33.7" height="33.7"/>
		</g>
		<g>
			<g>
				<g>
					<path class="st5" d="M620,84.1c-0.5,0-1.1,0-1.9-0.1c-0.8-0.1-1.6-0.2-2.4-0.4c-0.9-0.2-1.8-0.4-2.6-0.7
						c-0.9-0.3-1.7-0.6-2.5-1s-1.5-0.9-2-1.4c-0.6-0.7-0.9-1.4-0.9-2.3s0.3-1.7,1-2.4c0.7-0.7,1.5-1.1,2.4-1.1
						c0.6,0,1.1,0.1,1.6,0.4c0.6,0.3,1.2,0.6,1.8,0.9c0.6,0.2,1.2,0.4,1.8,0.6s1.2,0.3,1.8,0.4s1.3,0.1,2,0.1c0.4,0,1,0,1.6-0.1
						s1.1-0.2,1.6-0.3c0.5-0.2,0.8-0.4,1.2-0.7c0.1-0.1,0.3-0.3,0.3-0.8c0-0.3-0.1-0.7-0.7-1c-0.7-0.4-1.6-0.8-2.7-1.1
						c-1.1-0.4-2.4-0.7-3.7-1.1c-1.4-0.4-2.8-0.9-4-1.6c-1.3-0.7-2.3-1.6-3.2-2.7c-0.9-1.2-1.4-2.7-1.4-4.6c0-1.6,0.4-3,1.2-4.1
						c0.7-1.1,1.7-1.9,2.9-2.5c1.1-0.6,2.3-1,3.7-1.2c1.3-0.2,2.6-0.3,3.8-0.3c0.6,0,1.3,0,2.1,0.1s1.6,0.2,2.4,0.3
						c0.8,0.1,1.6,0.3,2.3,0.5c0.8,0.2,1.5,0.5,2.1,0.7c0.6,0.3,1.1,0.7,1.5,1.1c0.4,0.5,0.6,1.2,0.6,2c0,0.9-0.3,1.8-1,2.4
						s-1.5,1-2.4,1c-0.4,0-0.8-0.1-1.3-0.3c-1-0.4-2.1-0.7-3.1-0.9s-2.1-0.3-3.2-0.3c-0.4,0-0.9,0-1.5,0c-0.5,0-1.1,0.1-1.6,0.2
						c-0.4,0.1-0.8,0.3-1.1,0.5c-0.1,0.1-0.2,0.2-0.2,0.6c0,0.1,0,0.3,0.2,0.5c0.2,0.3,0.6,0.5,1,0.8c0.4,0.3,1,0.5,1.5,0.7
						c0.6,0.2,1.2,0.4,1.8,0.6s1.1,0.3,1.6,0.5c0.5,0.1,0.9,0.3,1.2,0.3c1,0.3,2,0.7,3,1.1s1.9,0.9,2.7,1.6c0.8,0.6,1.4,1.5,1.9,2.4
						c0.5,1,0.7,2.1,0.7,3.4c0,1.7-0.4,3.2-1.1,4.4c-0.7,1.1-1.7,2.1-2.9,2.8c-1.1,0.7-2.4,1.1-3.8,1.4
						C622.7,83.9,621.3,84.1,620,84.1z"/>
					<path d="M620.6,56c0.6,0,1.3,0,2.1,0.1s1.5,0.2,2.3,0.3s1.5,0.3,2.3,0.5c0.7,0.2,1.4,0.4,1.9,0.7c0.4,0.2,0.8,0.5,1.1,0.9
						s0.4,0.8,0.4,1.3c0,0.7-0.2,1.3-0.7,1.7c-0.5,0.5-1.1,0.7-1.7,0.7c-0.3,0-0.6-0.1-0.9-0.2c-1.1-0.4-2.2-0.7-3.2-0.9
						c-1.1-0.2-2.2-0.3-3.4-0.3c-0.4,0-0.9,0-1.5,0s-1.2,0.1-1.8,0.3s-1.1,0.4-1.5,0.7s-0.6,0.8-0.6,1.4c0,0.4,0.2,0.8,0.5,1.2
						s0.7,0.7,1.2,1s1.1,0.6,1.7,0.8c0.6,0.2,1.2,0.4,1.8,0.6s1.1,0.3,1.6,0.5c0.5,0.1,0.9,0.3,1.2,0.3c1,0.3,1.9,0.7,2.9,1
						c0.9,0.4,1.7,0.8,2.4,1.4s1.2,1.3,1.7,2.1c0.4,0.8,0.6,1.8,0.6,3c0,1.5-0.3,2.8-1,3.8s-1.5,1.8-2.5,2.4s-2.2,1-3.5,1.3
						c-1.3,0.2-2.6,0.4-3.9,0.4c-0.4,0-1,0-1.8-0.1c-0.7-0.1-1.5-0.2-2.3-0.4c-0.8-0.2-1.7-0.4-2.5-0.6c-0.8-0.3-1.6-0.6-2.3-0.9
						c-0.7-0.4-1.3-0.8-1.7-1.2c-0.4-0.5-0.7-1-0.7-1.6s0.2-1.2,0.7-1.7s1-0.7,1.7-0.7c0.4,0,0.8,0.1,1.1,0.3
						c0.7,0.4,1.3,0.7,1.9,0.9c0.6,0.3,1.3,0.5,1.9,0.6c0.6,0.2,1.3,0.3,1.9,0.4c0.7,0.1,1.4,0.1,2.1,0.1c0.5,0,1,0,1.7-0.1
						c0.6-0.1,1.3-0.2,1.8-0.4c0.6-0.2,1.1-0.5,1.5-0.9s0.6-0.9,0.6-1.5c0-0.8-0.4-1.4-1.2-1.9s-1.7-0.9-2.9-1.2
						c-1.1-0.4-2.4-0.7-3.8-1.1c-1.4-0.4-2.6-0.9-3.8-1.5c-1.1-0.6-2.1-1.4-2.9-2.5c-0.8-1-1.2-2.4-1.2-4c0-1.4,0.3-2.6,1-3.6
						s1.5-1.7,2.5-2.2s2.2-0.9,3.4-1.1C618.2,56.1,619.5,56,620.6,56 M620.6,54c-1.3,0-2.6,0.1-4,0.3c-1.5,0.2-2.8,0.7-4,1.3
						c-1.3,0.7-2.4,1.6-3.2,2.8c-0.9,1.3-1.3,2.9-1.3,4.7c0,2.1,0.5,3.9,1.6,5.2c0.9,1.2,2.1,2.3,3.5,3c1.3,0.7,2.7,1.3,4.2,1.7
						c1.3,0.4,2.6,0.7,3.7,1.1c1,0.3,1.8,0.6,2.4,1c0.1,0.1,0.2,0.1,0.2,0.1l0,0c0,0,0,0,0,0.1c-0.2,0.2-0.5,0.3-0.8,0.4
						c-0.4,0.1-0.9,0.2-1.4,0.3c-0.6,0.1-1.1,0.1-1.5,0.1c-0.7,0-1.3,0-1.9-0.1c-0.6-0.1-1.1-0.2-1.7-0.3c-0.5-0.1-1.1-0.3-1.6-0.6
						c-0.6-0.2-1.1-0.5-1.7-0.8c-0.7-0.4-1.4-0.6-2.1-0.6c-1.2,0-2.3,0.5-3.1,1.4s-1.3,1.9-1.3,3.1c0,1.1,0.4,2.1,1.2,2.9
						c0.6,0.6,1.4,1.2,2.2,1.6s1.7,0.8,2.6,1c0.9,0.3,1.8,0.5,2.7,0.7s1.7,0.3,2.5,0.4s1.5,0.1,2,0.1c1.4,0,2.8-0.1,4.2-0.4
						c1.5-0.3,2.9-0.8,4.1-1.5c1.3-0.8,2.4-1.8,3.2-3.1c0.9-1.3,1.3-3,1.3-4.9c0-1.5-0.3-2.8-0.8-3.9s-1.3-2-2.2-2.7
						c-0.8-0.7-1.8-1.3-2.9-1.7c-1-0.4-2-0.8-3-1.1l0,0l0,0c-0.3-0.1-0.7-0.2-1.2-0.3c-0.5-0.1-1-0.3-1.6-0.5
						c-0.5-0.2-1.1-0.4-1.7-0.6c-0.5-0.2-1-0.4-1.4-0.6c-0.2-0.1-0.4-0.3-0.6-0.4c0.1-0.1,0.3-0.1,0.5-0.2c0.4-0.1,0.9-0.2,1.3-0.2
						c0.6,0,1.1,0,1.5,0c1,0,2,0.1,3,0.3s2,0.5,3,0.8c0.6,0.2,1.1,0.3,1.6,0.3c1.2,0,2.3-0.5,3.2-1.3c0.9-0.9,1.3-1.9,1.3-3.2
						c0-1-0.3-1.9-0.9-2.6c-0.5-0.6-1.1-1.1-1.8-1.4c-0.7-0.3-1.4-0.6-2.3-0.8c-0.8-0.2-1.6-0.4-2.4-0.5c-0.8-0.2-1.7-0.3-2.5-0.3
						C622,54.1,621.3,54,620.6,54L620.6,54z"/>
				</g>
				<g>
					<path class="st5" d="M644.9,83.9c-1,0-1.9-0.4-2.6-1.1c-0.7-0.7-1-1.6-1-2.6V62.4h-6.2c-1,0-1.8-0.3-2.4-1s-1-1.5-1-2.4
						s0.3-1.8,1-2.4c0.7-0.7,1.5-1,2.4-1h19.6c0.9,0,1.8,0.3,2.4,1c0.7,0.7,1,1.5,1,2.4s-0.4,1.8-1,2.4c-0.7,0.7-1.5,1-2.4,1h-6.2
						v17.9c0,1-0.4,1.9-1.1,2.6C646.7,83.5,645.9,83.9,644.9,83.9z"/>
					<path d="M654.7,56.5c0.7,0,1.3,0.2,1.7,0.7c0.5,0.5,0.7,1.1,0.7,1.7c0,0.7-0.2,1.3-0.7,1.7c-0.5,0.5-1.1,0.7-1.7,0.7h-7.2v18.9
						c0,0.7-0.3,1.4-0.8,1.9s-1.1,0.8-1.9,0.8s-1.3-0.3-1.8-0.8s-0.7-1.1-0.7-1.9V61.4h-7.2c-0.7,0-1.3-0.2-1.7-0.7s-0.7-1-0.7-1.7
						s0.2-1.3,0.7-1.7s1-0.7,1.7-0.7L654.7,56.5 M654.7,54.5h-19.6c-1.2,0-2.3,0.5-3.2,1.3c-0.8,0.9-1.3,1.9-1.3,3.1
						c0,1.2,0.4,2.3,1.3,3.1c0.8,0.8,1.9,1.3,3.1,1.3h5.2v16.9c0,1.3,0.5,2.4,1.3,3.3c0.9,0.9,2,1.4,3.3,1.4s2.4-0.5,3.3-1.3
						c0.9-0.9,1.3-2,1.3-3.3V63.4h5.2c1.2,0,2.3-0.4,3.1-1.3c0.9-0.8,1.3-1.9,1.3-3.2c0-1.2-0.5-2.3-1.3-3.2
						C657,54.9,655.9,54.5,654.7,54.5L654.7,54.5z"/>
				</g>
				<g>
					<path class="st5" d="M680.2,83.9c-0.7,0-1.3-0.2-1.9-0.5c-0.5-0.3-1-0.8-1.2-1.4l-1.9-4.2h-10l-1.9,4.2
						c-0.3,0.6-0.7,1.1-1.3,1.5c-0.6,0.3-1.2,0.5-1.8,0.5c-1,0-1.8-0.3-2.4-1c-0.7-0.7-1-1.5-1-2.4c0-0.5,0.1-1,0.3-1.4l10-21.9
						c0.3-0.6,0.7-1.1,1.2-1.4c0.6-0.4,1.2-0.6,1.8-0.6s1.3,0.2,1.8,0.5c0.6,0.4,1,0.8,1.3,1.5l10,21.9c0.2,0.5,0.3,1,0.3,1.4
						c0,0.9-0.3,1.8-1,2.4C682,83.5,681.1,83.9,680.2,83.9z M672.3,71.3l-2.1-4.7l-2.1,4.7H672.3z"/>
					<path d="M670.1,56.1c0.5,0,0.9,0.1,1.3,0.4c0.4,0.2,0.7,0.6,0.9,1l10,21.9c0.1,0.3,0.2,0.7,0.2,1c0,0.7-0.2,1.3-0.7,1.7
						s-1,0.7-1.7,0.7c-0.5,0-0.9-0.1-1.3-0.4c-0.4-0.2-0.7-0.6-0.9-1l-2.2-4.8h-11.3l-2.2,4.8c-0.2,0.4-0.5,0.8-0.9,1
						s-0.8,0.4-1.3,0.4c-0.7,0-1.3-0.2-1.7-0.7c-0.5-0.5-0.7-1.1-0.7-1.7c0-0.3,0.1-0.7,0.2-1l10-21.9c0.2-0.4,0.5-0.8,0.9-1
						C669.2,56.3,669.6,56.1,670.1,56.1 M666.5,72.3h7.3l-3.7-8.1L666.5,72.3 M670.1,54.1c-0.9,0-1.7,0.2-2.4,0.7s-1.2,1.1-1.6,1.9
						l-10,21.8c-0.3,0.6-0.4,1.2-0.4,1.8c0,1.2,0.5,2.3,1.3,3.2c0.9,0.9,1.9,1.3,3.2,1.3c0.9,0,1.6-0.2,2.4-0.7
						c0.7-0.5,1.3-1.1,1.6-1.9l1.6-3.6h8.7l1.6,3.6c0.4,0.8,0.9,1.4,1.6,1.9c0.7,0.5,1.5,0.7,2.4,0.7c1.2,0,2.3-0.5,3.1-1.3
						s1.3-1.9,1.3-3.1c0-0.6-0.1-1.2-0.3-1.7v-0.1v-0.1l-10-21.9c-0.4-0.8-1-1.5-1.7-1.9C671.7,54.4,670.9,54.1,670.1,54.1
						L670.1,54.1z M669.6,70.3l0.6-1.3l0.6,1.3H669.6L669.6,70.3z"/>
				</g>
				<g>
					<path class="st5" d="M706.3,83.9c-0.7,0-1.3-0.2-1.8-0.5c-0.6-0.3-1-0.8-1.3-1.4c-0.1-0.2-0.3-0.5-0.5-1l-0.8-1.7
						c-0.4-0.8-0.7-1.5-1.1-2.3c-0.4-0.8-0.8-1.5-1.1-2.2c-0.3-0.6-0.6-1.2-0.8-1.6c0-0.1-0.1-0.1-0.1-0.2h-5.5v7.3
						c0,1-0.4,1.9-1.1,2.6c-0.7,0.7-1.6,1-2.5,1c-1,0-1.9-0.3-2.5-1c-0.7-0.7-1-1.5-1-2.5V59.1c0-1,0.3-1.9,1-2.5
						c0.7-0.7,1.5-1,2.5-1h9.7c1.3,0,2.7,0.1,3.9,0.4c1.3,0.3,2.4,0.8,3.4,1.5s1.8,1.7,2.4,2.8c0.6,1.1,0.9,2.5,0.9,4.1
						c0,1.7-0.4,3.3-1.2,4.6c-0.6,1.1-1.6,2-2.7,2.6c0,0.1,0.1,0.1,0.1,0.2c0.3,0.5,0.6,1.1,0.9,1.7c0.3,0.6,0.6,1.3,1,1.9
						c0.3,0.7,0.6,1.3,0.9,1.9c0.3,0.6,0.5,1.2,0.7,1.7c0.2,0.6,0.3,1,0.3,1.4c0,1-0.3,1.8-1,2.5C708.1,83.5,707.3,83.9,706.3,83.9z
						 M700.1,66.6c0.8,0,1.4-0.2,1.9-0.6c0.3-0.2,0.6-0.6,0.6-1.5c0-1-0.4-1.4-0.6-1.6c-0.5-0.4-1.1-0.6-1.9-0.6h-6.8v4.3
						C693.3,66.6,700.1,66.6,700.1,66.6z"/>
					<path d="M699.4,56.5c1.3,0,2.5,0.1,3.7,0.4c1.2,0.3,2.2,0.7,3,1.4c0.9,0.6,1.5,1.4,2.1,2.4s0.8,2.2,0.8,3.6
						c0,1.5-0.4,2.9-1.1,4.1c-0.7,1.2-1.8,2.1-3.2,2.7c0.1,0.3,0.3,0.6,0.6,1.1s0.5,1,0.9,1.7c0.3,0.6,0.6,1.3,1,1.9
						s0.6,1.3,0.9,1.9c0.3,0.6,0.5,1.1,0.7,1.6s0.3,0.8,0.3,1c0,0.7-0.2,1.3-0.7,1.8s-1.1,0.7-1.8,0.7c-0.5,0-0.9-0.1-1.3-0.4
						c-0.4-0.2-0.7-0.6-0.9-1c-0.1-0.1-0.2-0.5-0.5-1s-0.5-1.1-0.9-1.8c-0.3-0.7-0.7-1.4-1.1-2.2c-0.4-0.8-0.7-1.5-1.1-2.1
						c-0.3-0.7-0.6-1.2-0.8-1.6s-0.3-0.7-0.3-0.7h-7.2v8.3c0,0.7-0.3,1.3-0.8,1.8s-1.1,0.7-1.8,0.7s-1.3-0.2-1.8-0.7
						s-0.7-1.1-0.7-1.8V59.1c0-0.7,0.2-1.3,0.7-1.8s1.1-0.7,1.8-0.7L699.4,56.5 M692.3,67.6h7.8c1,0,1.8-0.3,2.5-0.8
						s1.1-1.3,1.1-2.3s-0.3-1.8-1-2.4c-0.7-0.5-1.5-0.8-2.5-0.8h-7.8L692.3,67.6 M699.4,54.5h-9.7c-1.3,0-2.4,0.5-3.3,1.3
						c-0.9,0.9-1.3,2-1.3,3.3v21.2c0,1.3,0.5,2.4,1.3,3.3c0.9,0.9,2,1.3,3.3,1.3c1.2,0,2.3-0.4,3.2-1.3s1.4-2,1.4-3.3V74h3.9
						c0.2,0.4,0.4,0.8,0.6,1.2c0.3,0.7,0.7,1.4,1.1,2.2c0.4,0.8,0.7,1.5,1.1,2.2v0.1l0.8,1.7c0.3,0.6,0.4,0.9,0.5,1
						c0.4,0.8,0.9,1.4,1.6,1.8c0.7,0.4,1.5,0.7,2.4,0.7c1.2,0,2.3-0.5,3.2-1.3c0.9-0.9,1.3-2,1.3-3.2c0-0.5-0.1-1-0.4-1.7
						c-0.2-0.5-0.4-1.1-0.7-1.7s-0.6-1.3-0.9-1.9c-0.3-0.7-0.7-1.3-1-2c-0.2-0.4-0.4-0.8-0.6-1.1c0.9-0.7,1.7-1.5,2.3-2.5
						c0.9-1.5,1.3-3.2,1.3-5.1c0-1.7-0.3-3.3-1-4.6s-1.5-2.3-2.7-3.1c-1.1-0.8-2.3-1.3-3.7-1.7C702.2,54.7,700.8,54.5,699.4,54.5
						L699.4,54.5z M694.3,63.3h5.8c0.7,0,1.1,0.2,1.3,0.4c0.1,0.1,0.3,0.2,0.3,0.8c0,0.5-0.2,0.7-0.2,0.7c-0.4,0.3-0.8,0.4-1.3,0.4
						h-5.8L694.3,63.3L694.3,63.3z"/>
				</g>
				<g>
					<path class="st5" d="M723.8,83.9c-1,0-1.9-0.4-2.6-1.1c-0.7-0.7-1-1.6-1-2.6V62.4H714c-1,0-1.8-0.3-2.4-1s-1-1.5-1-2.4
						s0.3-1.8,1-2.4c0.7-0.7,1.5-1,2.4-1h19.6c1,0,1.8,0.3,2.4,1c0.7,0.7,1,1.5,1,2.4s-0.4,1.8-1,2.4c-0.7,0.7-1.5,1-2.4,1h-6.2
						v17.9c0,1-0.4,1.9-1.1,2.6C725.7,83.5,724.8,83.9,723.8,83.9z"/>
					<path d="M733.6,56.5c0.7,0,1.3,0.2,1.7,0.7c0.5,0.5,0.7,1.1,0.7,1.7c0,0.7-0.2,1.3-0.7,1.7c-0.5,0.5-1.1,0.7-1.7,0.7h-7.2v18.9
						c0,0.7-0.3,1.4-0.8,1.9s-1.1,0.8-1.9,0.8s-1.3-0.3-1.8-0.8s-0.7-1.1-0.7-1.9V61.4H714c-0.7,0-1.3-0.2-1.7-0.7s-0.7-1-0.7-1.7
						s0.2-1.3,0.7-1.7s1-0.7,1.7-0.7L733.6,56.5 M733.6,54.5H714c-1.2,0-2.3,0.5-3.2,1.3c-0.8,0.9-1.3,1.9-1.3,3.1
						c0,1.2,0.4,2.3,1.3,3.1c0.8,0.8,1.9,1.3,3.1,1.3h5.2v16.9c0,1.3,0.5,2.4,1.3,3.3c0.9,0.9,2,1.4,3.3,1.4s2.4-0.5,3.3-1.3
						c0.9-0.9,1.3-2,1.3-3.3V63.4h5.2c1.2,0,2.3-0.4,3.1-1.3c0.9-0.8,1.3-1.9,1.3-3.2c0-1.2-0.5-2.3-1.3-3.2
						C735.9,54.9,734.8,54.5,733.6,54.5L733.6,54.5z"/>
				</g>
			</g>
		</g>
		<path class="st4" d="M778.4,231.1L778.4,231.1c-2.9,0-5.2-2.3-5.2-5.2V31.3c0-2.9,2.3-5.2,5.2-5.2l0,0c2.9,0,5.2,2.3,5.2,5.2
			v194.6C783.6,228.8,781.2,231.1,778.4,231.1z"/>
	</g>
</g>
<g id="Layer_5">
	<rect y="220" class="st6" width="800" height="30"/>
	<rect x="15" y="220" class="st3" width="99" height="6"/>
	<rect x="221" y="220" class="st3" width="99" height="6"/>
	<rect x="429" y="220" class="st3" width="99" height="6"/>
	<rect x="635" y="220" class="st3" width="99" height="6"/>
</g>
<g id="Layer_6">
</g>
<linearGradient id="SVGID_1_" gradientUnits="userSpaceOnUse" x1="652.4" y1="72" x2="698.2798" y2="72" gradientTransform="matrix(1 0 0 -1 0 252)">
	<stop  offset="0" style="stop-color:#FCEE21"/>
	<stop  offset="1" style="stop-color:#FCEE21;stop-opacity:0"/>
</linearGradient>
<polygon class="st7" points="698.2,204.9 652.4,186.8 652.4,174.5 698.2,155.1 "/>
<g>
	<g id="Layer_2_1_">
		<g id="Premium">
			<g id="premium-mini-blue">
				
					<rect x="467" y="166.4" transform="matrix(4.205010e-02 -0.9991 0.9991 4.205010e-02 262.8579 666.9286)" class="st8" width="24.4" height="60"/>
				<rect x="583.5" y="186.8" class="st8" width="60" height="24.4"/>
				<path class="st9" d="M652.9,186.2c-0.9-10.5-6.2-16.4-16.5-18.4l-33.9-4.2l-16.1-21.7c-3-4.5-8.1-7.3-13.5-7.3h-86
					c-6.3,0-12.3,2.9-16.2,7.8l-19,23.5c-2.1,2.6-3.5,5.6-4.1,8.8l-4.6,22.9c-0.7,3.6,1,7.2,4.2,8.9l0.2,0.1c2.8,1.5,5.9,2.5,9,3
					c-2.8-10.3,3.3-20.8,13.5-23.6s20.8,3.3,23.6,13.5c1,3.6,0.9,7.5-0.3,11l110,2.2c-3.1-10.2,2.7-20.9,12.9-24
					c10.2-3.1,20.9,2.7,24,12.9c1.1,3.8,1.1,7.8-0.1,11.5c7.5-1.2,13-7.7,13-15.3L652.9,186.2z"/>
				<path class="st10" d="M652.9,186.2c-0.9-10.5-6.2-16.4-16.5-18.4l-33.9-4.2l-16.1-21.7c-3-4.5-8.1-7.3-13.5-7.3h-86
					c-6.3,0-12.3,2.9-16.2,7.8l-19,23.5c-2.1,2.6-3.5,5.6-4.1,8.8l-4.6,22.9c-0.7,3.6,1,7.2,4.2,8.9l0.2,0.1c2.8,1.5,5.9,2.5,9,3
					c-2.8-10.3,3.3-20.8,13.5-23.6s20.8,3.3,23.6,13.5c1,3.6,0.9,7.5-0.3,11l110,2.2c-3.1-10.2,2.7-20.9,12.9-24
					c10.2-3.1,20.9,2.7,24,12.9c1.1,3.8,1.1,7.8-0.1,11.5c7.5-1.2,13-7.7,13-15.3L652.9,186.2z"/>
				<g>
					<defs>
						<path id="SVGID_2_" d="M652.9,186.2c-0.9-10.5-6.2-16.4-16.5-18.4l-33.9-4.2l-16.1-21.7c-3-4.5-8.1-7.3-13.5-7.3h-86
							c-6.3,0-12.3,2.9-16.2,7.8l-19,23.5c-2.1,2.6-3.5,5.6-4.1,8.8l-4.6,22.9c-0.7,3.6,1,7.2,4.2,8.9l0.2,0.1c2.8,1.5,5.9,2.5,9,3
							c-2.8-10.3,3.3-20.8,13.5-23.6s20.8,3.3,23.6,13.5c1,3.6,0.9,7.5-0.3,11l110,2.2c-3.1-10.2,2.7-20.9,12.9-24
							c10.2-3.1,20.9,2.7,24,12.9c1.1,3.8,1.1,7.8-0.1,11.5c7.5-1.2,13-7.7,13-15.3L652.9,186.2z"/>
					</defs>
					<clipPath id="SVGID_3_">
						<use xlink:href="#SVGID_2_"  style="overflow:visible;"/>
					</clipPath>
					<polygon class="st11" points="639.7,204 546,214 635.1,244.5 543,225 618.3,281.5 536.7,234.5 590.8,311.6 527.7,241.6 
						555.4,331.7 517,245.6 515.5,339.8 505.6,246.2 475.1,335.3 494.6,243.1 438,318.4 485.1,236.8 408,291 477.9,227.9 
						387.9,255.6 473.9,217.2 379.7,215.7 473.4,205.8 384.3,175.2 476.4,194.8 401.1,138.2 482.7,185.2 428.6,108.1 491.7,178.1 
						464,88 502.4,174.1 503.9,79.9 513.8,173.6 544.3,84.4 524.8,176.6 581.4,101.3 534.3,182.9 611.4,128.7 541.5,191.8 
						631.5,164.2 545.5,202.5 					"/>
					<g class="st12">
						<path class="st13" d="M441.7,169.5L608,181.2c0,0,41.4-13.4,50.9,10.4l-3.9,32.3c0,0-29.3,6.2-32.6,6.2
							c-3.3,0-96.2,0.7-101.4,0c-5.2-0.7-81.5-6.2-81.5-6.2L431,191L441.7,169.5z"/>
						<path class="st3" d="M479.2,106.3l100.2,1.2c4.6,0.1,8.2,3.8,8.2,8.4l-0.2,16.1c-0.1,4.6-3.8,8.2-8.4,8.2l-100.2-1.2
							c-4.6-0.1-8.2-3.8-8.2-8.4l0.2-16.1C470.9,109.9,474.7,106.2,479.2,106.3z"/>
					</g>
				</g>
				
					<linearGradient id="SVGID_4_" gradientUnits="userSpaceOnUse" x1="531.7048" y1="98.0195" x2="585.1462" y2="98.0195" gradientTransform="matrix(1 0 0 -1 0 252)">
					<stop  offset="0" style="stop-color:#C9E7F9"/>
					<stop  offset="1" style="stop-color:#AAFFF9"/>
				</linearGradient>
				<path class="st14" d="M580,166.3l-43.3-1c-2.7-0.1-4.9-2.3-4.9-5v-13.6c0-2.8,2.3-5.1,5.1-5.1c0.1,0,0.1,0,0.2,0l33.7,1.1
					c1.6,0,3,0.8,4,2.1l9.6,13.5c1.6,2.3,1.1,5.4-1.2,7.1C582.1,166,581.1,166.4,580,166.3z"/>
				
					<linearGradient id="SVGID_5_" gradientUnits="userSpaceOnUse" x1="478.2635" y1="98.231" x2="526.1633" y2="98.231" gradientTransform="matrix(1 0 0 -1 0 252)">
					<stop  offset="0" style="stop-color:#C9E7F9"/>
					<stop  offset="1" style="stop-color:#AAFFF9"/>
				</linearGradient>
				<path class="st15" d="M483,164.8l38.2,1.2c2.7,0.1,4.9-2,5-4.7c0-0.1,0-0.1,0-0.2v-14.9c0-2.7-2.2-4.8-4.8-4.8l0,0h-31.8
					c-1.9,0-3.6,1.1-4.4,2.8l-6.4,13.7c-1.1,2.4-0.1,5.3,2.3,6.4C481.6,164.7,482.3,164.8,483,164.8z"/>
				
					<linearGradient id="SVGID_6_" gradientUnits="userSpaceOnUse" x1="580.8828" y1="99.3951" x2="602.4405" y2="99.3951" gradientTransform="matrix(1 0 0 -1 0 252)">
					<stop  offset="0" style="stop-color:#C9E7F9"/>
					<stop  offset="1" style="stop-color:#AAFFF9"/>
				</linearGradient>
				<path class="st16" d="M602.4,163.6l-5.2,0.9c-1,0.4-2.1,0.1-2.7-0.8l-13.3-19.4c-0.7-1-0.4-2.4,0.6-3.1c0.3-0.2,0.6-0.3,0.9-0.4
					l2.4-0.4L602.4,163.6z"/>
				
					<ellipse transform="matrix(4.205308e-02 -0.9991 0.9991 4.205308e-02 247.1862 672.9999)" class="st17" cx="474.6" cy="207.6" rx="16.4" ry="16.6"/>
				
					<ellipse transform="matrix(4.205010e-02 -0.9991 0.9991 4.205010e-02 247.1876 673.0006)" class="st18" cx="474.6" cy="207.6" rx="16" ry="16.1"/>
				
					<ellipse transform="matrix(4.205010e-02 -0.9991 0.9991 4.205010e-02 247.1876 673.0006)" cx="474.6" cy="207.6" rx="12" ry="12.1"/>
				
					<ellipse transform="matrix(4.205010e-02 -0.9991 0.9991 4.205010e-02 247.1876 673.0006)" class="st3" cx="474.6" cy="207.6" rx="11.5" ry="11.5"/>
				
					<ellipse transform="matrix(4.205010e-02 -0.9991 0.9991 4.205010e-02 247.1876 673.0006)" class="st19" cx="474.6" cy="207.6" rx="10.9" ry="10.9"/>
				
					<ellipse transform="matrix(4.205010e-02 -0.9991 0.9991 4.205010e-02 247.1876 673.0006)" class="st20" cx="474.6" cy="207.6" rx="6.8" ry="6.8"/>
				
					<ellipse transform="matrix(4.205010e-02 -0.9991 0.9991 4.205010e-02 247.1876 673.0006)" class="st21" cx="474.6" cy="207.6" rx="6.2" ry="6.2"/>
				
					<ellipse transform="matrix(4.205010e-02 -0.9991 0.9991 4.205010e-02 388.6456 820.5379)" class="st17" cx="622.2" cy="207.6" rx="16.4" ry="16.6"/>
				
					<ellipse transform="matrix(4.205010e-02 -0.9991 0.9991 4.205010e-02 388.6456 820.5379)" class="st18" cx="622.2" cy="207.6" rx="16" ry="16.1"/>
				
					<ellipse transform="matrix(4.205010e-02 -0.9991 0.9991 4.205010e-02 388.6456 820.5379)" cx="622.2" cy="207.6" rx="12" ry="12.1"/>
				
					<ellipse transform="matrix(4.205010e-02 -0.9991 0.9991 4.205010e-02 388.6456 820.5379)" class="st3" cx="622.2" cy="207.6" rx="11.5" ry="11.5"/>
				
					<ellipse transform="matrix(4.205010e-02 -0.9991 0.9991 4.205010e-02 388.6456 820.5379)" class="st19" cx="622.2" cy="207.6" rx="10.9" ry="10.9"/>
				
					<ellipse transform="matrix(4.205010e-02 -0.9991 0.9991 4.205010e-02 388.6456 820.5379)" class="st20" cx="622.2" cy="207.6" rx="6.8" ry="6.8"/>
				
					<ellipse transform="matrix(4.205010e-02 -0.9991 0.9991 4.205010e-02 388.6456 820.5379)" class="st21" cx="622.2" cy="207.6" rx="6.2" ry="6.2"/>
				
					<linearGradient id="SVGID_7_" gradientUnits="userSpaceOnUse" x1="440.4675" y1="52.1915" x2="451.1691" y2="52.1915" gradientTransform="matrix(1 0 0 -1 -2.844527e-03 252.0012)">
					<stop  offset="0" style="stop-color:#999999"/>
					<stop  offset="1" style="stop-color:#FFFFFF"/>
				</linearGradient>
				<path class="st22" d="M443.1,197.1l6.1,0.8c1.2,0.2,2.1,1.3,2,2.6l0,0c-0.2,1.2-1.3,2.1-2.6,2l-6.1-0.8c-1.2-0.2-2.1-1.3-2-2.6
					l0,0C440.7,197.8,441.8,197,443.1,197.1z"/>
				
					<linearGradient id="SVGID_8_" gradientUnits="userSpaceOnUse" x1="732.8047" y1="459.8246" x2="743.5325" y2="459.8246" gradientTransform="matrix(0.99 -7.000000e-02 -0.13 -0.51 -132.55 458.72)">
					<stop  offset="0" style="stop-color:#999999"/>
					<stop  offset="1" style="stop-color:#FFFFFF"/>
				</linearGradient>
				<path class="st23" d="M533.7,171.7h9c0.5,0,0.9,0.4,0.9,0.9l0,0c0,0.5-0.4,0.9-0.9,0.9h-9c-0.5,0-0.9-0.4-0.9-0.9l0,0
					C532.9,172.1,533.2,171.7,533.7,171.7z"/>
				
					<linearGradient id="SVGID_9_" gradientUnits="userSpaceOnUse" x1="677.8884" y1="467.3714" x2="688.6161" y2="467.3714" gradientTransform="matrix(0.99 -7.000000e-02 -0.13 -0.51 -132.55 458.72)">
					<stop  offset="0" style="stop-color:#999999"/>
					<stop  offset="1" style="stop-color:#FFFFFF"/>
				</linearGradient>
				<path class="st24" d="M478.3,171.7h9c0.5,0,0.9,0.4,0.9,0.9l0,0c0,0.5-0.4,0.9-0.9,0.9h-9c-0.5,0-0.9-0.4-0.9-0.9l0,0
					C477.4,172.1,477.8,171.7,478.3,171.7z"/>
				
					<linearGradient id="SVGID_10_" gradientUnits="userSpaceOnUse" x1="-2374.4932" y1="82.9251" x2="-2363.5095" y2="82.9251" gradientTransform="matrix(10.3005 8.573547e-02 -1.3794 -0.9991 25067.1641 493.5059)">
					<stop  offset="0" style="stop-color:#999999"/>
					<stop  offset="1" style="stop-color:#FFFFFF"/>
				</linearGradient>
				<path class="st25" d="M494.8,204.2l107.3,2.2c1.2,0,2.2,1,2.2,2.3v0c0,1.2-1,2.2-2.3,2.2l-107.3-2.2c-1.2,0-2.2-1-2.2-2.3v0
					C492.6,205.1,493.6,204.1,494.8,204.2z"/>
				
					<linearGradient id="SVGID_11_" gradientUnits="userSpaceOnUse" x1="642.8609" y1="48.4419" x2="653.292" y2="48.4419" gradientTransform="matrix(1 0 0 -1 0 252)">
					<stop  offset="0" style="stop-color:#999999"/>
					<stop  offset="1" style="stop-color:#FFFFFF"/>
				</linearGradient>
				<path class="st26" d="M645,201.4h6.2c1.2,0,2.1,0.9,2.1,2.1l0,0c0,1.2-0.9,2.1-2.1,2.1H645c-1.2,0-2.1-0.9-2.1-2.1l0,0
					C642.9,202.4,643.8,201.4,645,201.4z"/>
				
					<linearGradient id="SVGID_12_" gradientUnits="userSpaceOnUse" x1="499.1124" y1="443.0429" x2="503.35" y2="443.0429" gradientTransform="matrix(0.991 0.1342 0.1342 -0.991 96.6726 573.3829)">
					<stop  offset="0" style="stop-color:#999999"/>
					<stop  offset="1" style="stop-color:#FFFFFF"/>
				</linearGradient>
				<path class="st27" d="M653.7,195L653.7,195c1.2,0.2,2,1.2,1.8,2.4l-1.2,9c-0.2,1.2-1.2,2-2.4,1.8l0,0c-1.2-0.2-2-1.2-1.8-2.4
					l1.2-9C651.5,195.6,652.5,194.8,653.7,195z"/>
				
					<linearGradient id="SVGID_13_" gradientUnits="userSpaceOnUse" x1="650.6842" y1="71.3022" x2="654.9218" y2="71.2175" gradientTransform="matrix(1 0 0 -1 0 252)">
					<stop  offset="0.55" style="stop-color:#FFFFFF"/>
					<stop  offset="1" style="stop-color:#FFF994"/>
				</linearGradient>
				<path class="st28" d="M652.8,174.1L652.8,174.1c1.2,0,2.1,0.9,2.1,2.1v9.1c0,1.2-0.9,2.1-2.1,2.1l0,0c-1.2,0-2.1-0.9-2.1-2.1
					v-9.1C650.7,175,651.6,174.1,652.8,174.1z"/>
				
					<linearGradient id="SVGID_14_" gradientUnits="userSpaceOnUse" x1="642.209" y1="71.2599" x2="652.64" y2="71.2599" gradientTransform="matrix(1 0 0 -1 0 252)">
					<stop  offset="0" style="stop-color:#FFFFFF"/>
					<stop  offset="1" style="stop-color:#A1A1A1"/>
				</linearGradient>
				<polygon class="st29" points="642.2,185.1 652.6,187.4 652.6,174.1 642.2,176.7 				"/>
				
					<linearGradient id="SVGID_15_" gradientUnits="userSpaceOnUse" x1="455.1016" y1="99.8543" x2="473.2984" y2="99.8543" gradientTransform="matrix(1 0 0 -1 0 252)">
					<stop  offset="0" style="stop-color:#C9E7F9"/>
					<stop  offset="1" style="stop-color:#AAFFF9"/>
				</linearGradient>
				<path class="st30" d="M471.4,141.5l0.5,0.1c1.1,0.5,1.7,1.8,1.2,2.9c-0.1,0.2-0.2,0.4-0.3,0.5L459.2,162c-0.5,0.6-1.3,0.9-2,0.8
					l-2-1.1L471.4,141.5z"/>
			</g>
		</g>
	</g>
	<g class="st31">
		<path class="st32" d="M505.9,170.5c-1.7,0-4.8,1.2-4.8,4.5c0,1,0.2,1.5,0.4,1.9c2.4,0,4.9,2.3,4.9,5.5c0,3.4-2.9,6.5-6.8,6.5
			c-4.2,0-6.8-3.3-6.8-8.4c0-5.8,3.3-11.8,9.1-11.8C504.3,168.6,505.9,169.8,505.9,170.5z M522.1,170.5c-1.7,0-4.8,1.2-4.8,4.5
			c0,1,0.2,1.5,0.4,1.9c2.4,0,4.9,2.3,4.9,5.5c0,3.4-2.9,6.5-6.8,6.5c-4.2,0-6.8-3.3-6.8-8.4c0-5.8,3.3-11.8,9.1-11.8
			C520.4,168.6,522.1,169.8,522.1,170.5z"/>
		<path class="st32" d="M535.5,199.8c1.7,0,4.8-1.2,4.8-4.5c0-1-0.2-1.5-0.4-1.8c-2.4,0-4.9-2.3-4.9-5.5c0-3.4,2.9-6.4,6.9-6.4
			c4.1,0,6.8,3.3,6.8,8.4c0,5.8-3.4,11.8-9.1,11.8C537.2,201.7,535.5,200.4,535.5,199.8z M551.7,199.8c1.7,0,4.8-1.2,4.8-4.5
			c0-1-0.2-1.5-0.4-1.8c-2.4,0-4.9-2.3-4.9-5.5c0-3.4,2.9-6.4,6.9-6.4c4.1,0,6.8,3.3,6.8,8.4c0,5.8-3.4,11.8-9.1,11.8
			C553.4,201.7,551.7,200.4,551.7,199.8z"/>
	</g>
</g>
<g id="Layer_8">
	
		<linearGradient id="SVGID_16_" gradientUnits="userSpaceOnUse" x1="400" y1="148" x2="400" y2="398" gradientTransform="matrix(1 0 0 1 0 -148)">
		<stop  offset="0" style="stop-color:#666666"/>
		<stop  offset="1" style="stop-color:#333333"/>
	</linearGradient>
	<rect class="st33" width="800" height="250"/>
</g>
</svg>
