<?xml version="1.0" encoding="utf-8"?>
<!-- Generator: Adobe Illustrator 25.0.0, SVG Export Plug-In . SVG Version: 6.00 Build 0)  -->
<svg version="1.1" id="Layer_1" xmlns="http://www.w3.org/2000/svg" xmlns:xlink="http://www.w3.org/1999/xlink" x="0px" y="0px"
	 viewBox="0 0 800 250" style="enable-background:new 0 0 800 250;" xml:space="preserve">
<style type="text/css">
	.st0{fill:#222222;}
	.st1{opacity:0.8;fill:#FFFFFF;enable-background:new    ;}
	.st2{fill:#1C1C1C;}
	.st3{fill:#FFFFFF;}
	.st4{fill:#444444;}
	.st5{fill:#FF0000;}
	.st6{fill:#3B3B3B;}
	.st7{fill:url(#SVGID_1_);}
	.st8{fill:#2D2D2D;}
	.st9{fill:#1813E5;}
	.st10{fill:#35CCEF;}
	.st11{clip-path:url(#SVGID_3_);}
	.st12{fill:#FFCE00;}
	.st13{clip-path:url(#SVGID_5_);}
	.st14{clip-path:url(#SVGID_7_);}
	.st15{opacity:0.15;enable-background:new    ;}
	.st16{fill:url(#SVGID_8_);}
	.st17{fill:url(#SVGID_9_);}
	.st18{fill:url(#SVGID_10_);}
	.st19{fill:#32323F;}
	.st20{fill:#474757;}
	.st21{fill:#DDDDDD;}
	.st22{fill:#BAC0D8;}
	.st23{fill:#ACAFBC;}
	.st24{fill:url(#SVGID_11_);}
	.st25{fill:url(#SVGID_12_);}
	.st26{fill:url(#SVGID_13_);}
	.st27{fill:url(#SVGID_14_);}
	.st28{fill:url(#SVGID_15_);}
	.st29{fill:url(#SVGID_16_);}
	.st30{fill:url(#SVGID_17_);}
	.st31{fill:url(#SVGID_18_);}
	.st32{fill:url(#SVGID_19_);}
	.st33{opacity:0.47;fill:url(#SVGID_20_);enable-background:new    ;}
</style>
<g id="Layer_1_1_">
	<rect class="st0" width="800" height="250"/>
</g>
<g id="Layer_7">
	<circle class="st1" cx="579.5" cy="72.5" r="3.5"/>
	<circle class="st1" cx="694.5" cy="30.5" r="3.5"/>
	<circle class="st1" cx="464.5" cy="34.5" r="3.5"/>
	<circle class="st1" cx="727.5" cy="125.5" r="3.5"/>
	<circle class="st1" cx="486.5" cy="130.5" r="3.5"/>
	<circle class="st1" cx="201.5" cy="20.5" r="3.5"/>
	<circle class="st1" cx="83.5" cy="34.5" r="3.5"/>
	<circle class="st1" cx="29.5" cy="98.5" r="3.5"/>
	<g>
		<g>
			<path class="st2" d="M306,155.5c-6.4,8.9-15.2,16.4-25.9,21.3c-21.5,9.8-45.4,7-63.6-5.3c-8.4,13.6-13.7,29.4-14.8,46.3h-0.2v28
				h203.3v-28h-0.2c-1.4-20.6-8.9-39.5-20.7-54.9c-2.4,1.5-4.9,2.8-7.5,4C352,178,324.4,172.6,306,155.5z"/>
			<path class="st3" d="M303.1,123c-36.6,0-68.7,19.4-86.6,48.5c18.2,12.3,42.2,15.1,63.6,5.3c10.7-4.9,19.5-12.3,25.9-21.3
				c18.4,17.1,46,22.5,70.3,11.4c2.6-1.2,5.1-2.5,7.5-4C365.2,138.6,336,123,303.1,123z"/>
		</g>
		<g>
			<path class="st4" d="M256.1,252.1c-1.9-28-15.1-52.9-35.1-70.1c-4.7,1.8-9.8,2.8-15.2,2.8c-10.6,0-20.2-3.9-27.7-10.3
				c-4.5,5.1-9.9,9.3-16,12.4c-6.2,29-31.9,50.8-62.8,50.8c-15.2,0-29.1-5.3-40.1-14c-3.3,9-5.4,18.5-6.1,28.5H53V250h203.3v2.1
				H256.1z"/>
			<path class="st3" d="M162.2,186.9c6.1-3.1,11.5-7.3,16-12.4c7.4,6.4,17.1,10.3,27.7,10.3c5.4,0,10.5-1,15.2-2.8
				c-17.8-15.4-41-24.7-66.4-24.7c-43.7,0-81,27.6-95.4,66.3c11,8.8,24.9,14,40.1,14C130.3,237.7,156,215.9,162.2,186.9z"/>
		</g>
	</g>
	<path class="st4" d="M565.5,231.1L565.5,231.1c-2.9,0-5.2-2.3-5.2-5.2V31.3c0-2.9,2.3-5.2,5.2-5.2l0,0c2.9,0,5.2,2.3,5.2,5.2v194.6
		C570.7,228.8,568.4,231.1,565.5,231.1z"/>
	<g>
		<g>
			<rect x="570.7" y="36.3" class="st3" width="33.7" height="33.7"/>
			<rect x="570.7" y="70" width="33.7" height="33.7"/>
			<rect x="604.5" y="70.1" class="st3" width="33.7" height="33.7"/>
			<rect x="604.5" y="36.3" width="33.7" height="33.7"/>
			<rect x="638.2" y="36.3" class="st3" width="33.7" height="33.7"/>
			<rect x="638.2" y="70" width="33.7" height="33.7"/>
			<rect x="672" y="70.1" class="st3" width="33.7" height="33.7"/>
			<rect x="672" y="36.3" width="33.7" height="33.7"/>
			<rect x="705.7" y="36.3" class="st3" width="33.7" height="33.7"/>
			<rect x="705.7" y="70" width="33.7" height="33.7"/>
			<rect x="739.5" y="70.1" class="st3" width="33.7" height="33.7"/>
			<rect x="739.5" y="36.3" width="33.7" height="33.7"/>
		</g>
		<g>
			<g>
				<g>
					<path class="st5" d="M620,84.1c-0.5,0-1.1,0-1.9-0.1c-0.8-0.1-1.6-0.2-2.4-0.4c-0.9-0.2-1.8-0.4-2.6-0.7
						c-0.9-0.3-1.7-0.6-2.5-1s-1.5-0.9-2-1.4c-0.6-0.7-0.9-1.4-0.9-2.3s0.3-1.7,1-2.4c0.7-0.7,1.5-1.1,2.4-1.1
						c0.6,0,1.1,0.1,1.6,0.4c0.6,0.3,1.2,0.6,1.8,0.9c0.6,0.2,1.2,0.4,1.8,0.6s1.2,0.3,1.8,0.4s1.3,0.1,2,0.1c0.4,0,1,0,1.6-0.1
						s1.1-0.2,1.6-0.3c0.5-0.2,0.8-0.4,1.2-0.7c0.1-0.1,0.3-0.3,0.3-0.8c0-0.3-0.1-0.7-0.7-1c-0.7-0.4-1.6-0.8-2.7-1.1
						c-1.1-0.4-2.4-0.7-3.7-1.1c-1.4-0.4-2.8-0.9-4-1.6c-1.3-0.7-2.3-1.6-3.2-2.7c-0.9-1.2-1.4-2.7-1.4-4.6c0-1.6,0.4-3,1.2-4.1
						c0.7-1.1,1.7-1.9,2.9-2.5c1.1-0.6,2.3-1,3.7-1.2c1.3-0.2,2.6-0.3,3.8-0.3c0.6,0,1.3,0,2.1,0.1s1.6,0.2,2.4,0.3
						c0.8,0.1,1.6,0.3,2.3,0.5c0.8,0.2,1.5,0.5,2.1,0.7c0.6,0.3,1.1,0.7,1.5,1.1c0.4,0.5,0.6,1.2,0.6,2c0,0.9-0.3,1.8-1,2.4
						s-1.5,1-2.4,1c-0.4,0-0.8-0.1-1.3-0.3c-1-0.4-2.1-0.7-3.1-0.9s-2.1-0.3-3.2-0.3c-0.4,0-0.9,0-1.5,0c-0.5,0-1.1,0.1-1.6,0.2
						c-0.4,0.1-0.8,0.3-1.1,0.5c-0.1,0.1-0.2,0.2-0.2,0.6c0,0.1,0,0.3,0.2,0.5c0.2,0.3,0.6,0.5,1,0.8c0.4,0.3,1,0.5,1.5,0.7
						c0.6,0.2,1.2,0.4,1.8,0.6s1.1,0.3,1.6,0.5c0.5,0.1,0.9,0.3,1.2,0.3c1,0.3,2,0.7,3,1.1s1.9,0.9,2.7,1.6c0.8,0.6,1.4,1.5,1.9,2.4
						c0.5,1,0.7,2.1,0.7,3.4c0,1.7-0.4,3.2-1.1,4.4c-0.7,1.1-1.7,2.1-2.9,2.8c-1.1,0.7-2.4,1.1-3.8,1.4
						C622.7,83.9,621.3,84.1,620,84.1z"/>
					<path d="M620.6,56c0.6,0,1.3,0,2.1,0.1s1.5,0.2,2.3,0.3s1.5,0.3,2.3,0.5c0.7,0.2,1.4,0.4,1.9,0.7c0.4,0.2,0.8,0.5,1.1,0.9
						s0.4,0.8,0.4,1.3c0,0.7-0.2,1.3-0.7,1.7c-0.5,0.5-1.1,0.7-1.7,0.7c-0.3,0-0.6-0.1-0.9-0.2c-1.1-0.4-2.2-0.7-3.2-0.9
						c-1.1-0.2-2.2-0.3-3.4-0.3c-0.4,0-0.9,0-1.5,0s-1.2,0.1-1.8,0.3s-1.1,0.4-1.5,0.7s-0.6,0.8-0.6,1.4c0,0.4,0.2,0.8,0.5,1.2
						s0.7,0.7,1.2,1s1.1,0.6,1.7,0.8c0.6,0.2,1.2,0.4,1.8,0.6s1.1,0.3,1.6,0.5c0.5,0.1,0.9,0.3,1.2,0.3c1,0.3,1.9,0.7,2.9,1
						c0.9,0.4,1.7,0.8,2.4,1.4s1.2,1.3,1.7,2.1c0.4,0.8,0.6,1.8,0.6,3c0,1.5-0.3,2.8-1,3.8s-1.5,1.8-2.5,2.4s-2.2,1-3.5,1.3
						c-1.3,0.2-2.6,0.4-3.9,0.4c-0.4,0-1,0-1.8-0.1c-0.7-0.1-1.5-0.2-2.3-0.4c-0.8-0.2-1.7-0.4-2.5-0.6c-0.8-0.3-1.6-0.6-2.3-0.9
						c-0.7-0.4-1.3-0.8-1.7-1.2c-0.4-0.5-0.7-1-0.7-1.6s0.2-1.2,0.7-1.7s1-0.7,1.7-0.7c0.4,0,0.8,0.1,1.1,0.3
						c0.7,0.4,1.3,0.7,1.9,0.9c0.6,0.3,1.3,0.5,1.9,0.6c0.6,0.2,1.3,0.3,1.9,0.4c0.7,0.1,1.4,0.1,2.1,0.1c0.5,0,1,0,1.7-0.1
						c0.6-0.1,1.3-0.2,1.8-0.4c0.6-0.2,1.1-0.5,1.5-0.9s0.6-0.9,0.6-1.5c0-0.8-0.4-1.4-1.2-1.9s-1.7-0.9-2.9-1.2
						c-1.1-0.4-2.4-0.7-3.8-1.1c-1.4-0.4-2.6-0.9-3.8-1.5c-1.1-0.6-2.1-1.4-2.9-2.5c-0.8-1-1.2-2.4-1.2-4c0-1.4,0.3-2.6,1-3.6
						s1.5-1.7,2.5-2.2s2.2-0.9,3.4-1.1C618.2,56.1,619.5,56,620.6,56 M620.6,54c-1.3,0-2.6,0.1-4,0.3c-1.5,0.2-2.8,0.7-4,1.3
						c-1.3,0.7-2.4,1.6-3.2,2.8c-0.9,1.3-1.3,2.9-1.3,4.7c0,2.1,0.5,3.9,1.6,5.2c0.9,1.2,2.1,2.3,3.5,3c1.3,0.7,2.7,1.3,4.2,1.7
						c1.3,0.4,2.6,0.7,3.7,1.1c1,0.3,1.8,0.6,2.4,1c0.1,0.1,0.2,0.1,0.2,0.1l0,0c0,0,0,0,0,0.1c-0.2,0.2-0.5,0.3-0.8,0.4
						c-0.4,0.1-0.9,0.2-1.4,0.3c-0.6,0.1-1.1,0.1-1.5,0.1c-0.7,0-1.3,0-1.9-0.1c-0.6-0.1-1.1-0.2-1.7-0.3c-0.5-0.1-1.1-0.3-1.6-0.6
						c-0.6-0.2-1.1-0.5-1.7-0.8c-0.7-0.4-1.4-0.6-2.1-0.6c-1.2,0-2.3,0.5-3.1,1.4s-1.3,1.9-1.3,3.1c0,1.1,0.4,2.1,1.2,2.9
						c0.6,0.6,1.4,1.2,2.2,1.6s1.7,0.8,2.6,1c0.9,0.3,1.8,0.5,2.7,0.7s1.7,0.3,2.5,0.4s1.5,0.1,2,0.1c1.4,0,2.8-0.1,4.2-0.4
						c1.5-0.3,2.9-0.8,4.1-1.5c1.3-0.8,2.4-1.8,3.2-3.1c0.9-1.3,1.3-3,1.3-4.9c0-1.5-0.3-2.8-0.8-3.9s-1.3-2-2.2-2.7
						c-0.8-0.7-1.8-1.3-2.9-1.7c-1-0.4-2-0.8-3-1.1l0,0l0,0c-0.3-0.1-0.7-0.2-1.2-0.3c-0.5-0.1-1-0.3-1.6-0.5
						c-0.5-0.2-1.1-0.4-1.7-0.6c-0.5-0.2-1-0.4-1.4-0.6c-0.2-0.1-0.4-0.3-0.6-0.4c0.1-0.1,0.3-0.1,0.5-0.2c0.4-0.1,0.9-0.2,1.3-0.2
						c0.6,0,1.1,0,1.5,0c1,0,2,0.1,3,0.3s2,0.5,3,0.8c0.6,0.2,1.1,0.3,1.6,0.3c1.2,0,2.3-0.5,3.2-1.3c0.9-0.9,1.3-1.9,1.3-3.2
						c0-1-0.3-1.9-0.9-2.6c-0.5-0.6-1.1-1.1-1.8-1.4c-0.7-0.3-1.4-0.6-2.3-0.8c-0.8-0.2-1.6-0.4-2.4-0.5c-0.8-0.2-1.7-0.3-2.5-0.3
						C622,54.1,621.3,54,620.6,54L620.6,54z"/>
				</g>
				<g>
					<path class="st5" d="M644.9,83.9c-1,0-1.9-0.4-2.6-1.1c-0.7-0.7-1-1.6-1-2.6V62.4h-6.2c-1,0-1.8-0.3-2.4-1s-1-1.5-1-2.4
						s0.3-1.8,1-2.4c0.7-0.7,1.5-1,2.4-1h19.6c0.9,0,1.8,0.3,2.4,1c0.7,0.7,1,1.5,1,2.4s-0.4,1.8-1,2.4c-0.7,0.7-1.5,1-2.4,1h-6.2
						v17.9c0,1-0.4,1.9-1.1,2.6C646.7,83.5,645.9,83.9,644.9,83.9z"/>
					<path d="M654.7,56.5c0.7,0,1.3,0.2,1.7,0.7c0.5,0.5,0.7,1.1,0.7,1.7c0,0.7-0.2,1.3-0.7,1.7c-0.5,0.5-1.1,0.7-1.7,0.7h-7.2v18.9
						c0,0.7-0.3,1.4-0.8,1.9s-1.1,0.8-1.9,0.8s-1.3-0.3-1.8-0.8s-0.7-1.1-0.7-1.9V61.4h-7.2c-0.7,0-1.3-0.2-1.7-0.7s-0.7-1-0.7-1.7
						s0.2-1.3,0.7-1.7s1-0.7,1.7-0.7L654.7,56.5 M654.7,54.5h-19.6c-1.2,0-2.3,0.5-3.2,1.3c-0.8,0.9-1.3,1.9-1.3,3.1
						c0,1.2,0.4,2.3,1.3,3.1c0.8,0.8,1.9,1.3,3.1,1.3h5.2v16.9c0,1.3,0.5,2.4,1.3,3.3c0.9,0.9,2,1.4,3.3,1.4s2.4-0.5,3.3-1.3
						c0.9-0.9,1.3-2,1.3-3.3V63.4h5.2c1.2,0,2.3-0.4,3.1-1.3c0.9-0.8,1.3-1.9,1.3-3.2c0-1.2-0.5-2.3-1.3-3.2
						C657,54.9,655.9,54.5,654.7,54.5L654.7,54.5z"/>
				</g>
				<g>
					<path class="st5" d="M680.2,83.9c-0.7,0-1.3-0.2-1.9-0.5c-0.5-0.3-1-0.8-1.2-1.4l-1.9-4.2h-10l-1.9,4.2
						c-0.3,0.6-0.7,1.1-1.3,1.5c-0.6,0.3-1.2,0.5-1.8,0.5c-1,0-1.8-0.3-2.4-1c-0.7-0.7-1-1.5-1-2.4c0-0.5,0.1-1,0.3-1.4l10-21.9
						c0.3-0.6,0.7-1.1,1.2-1.4c0.6-0.4,1.2-0.6,1.8-0.6s1.3,0.2,1.8,0.5c0.6,0.4,1,0.8,1.3,1.5l10,21.9c0.2,0.5,0.3,1,0.3,1.4
						c0,0.9-0.3,1.8-1,2.4C682,83.5,681.1,83.9,680.2,83.9z M672.3,71.3l-2.1-4.7l-2.1,4.7H672.3z"/>
					<path d="M670.1,56.1c0.5,0,0.9,0.1,1.3,0.4c0.4,0.2,0.7,0.6,0.9,1l10,21.9c0.1,0.3,0.2,0.7,0.2,1c0,0.7-0.2,1.3-0.7,1.7
						s-1,0.7-1.7,0.7c-0.5,0-0.9-0.1-1.3-0.4c-0.4-0.2-0.7-0.6-0.9-1l-2.2-4.8h-11.3l-2.2,4.8c-0.2,0.4-0.5,0.8-0.9,1
						s-0.8,0.4-1.3,0.4c-0.7,0-1.3-0.2-1.7-0.7c-0.5-0.5-0.7-1.1-0.7-1.7c0-0.3,0.1-0.7,0.2-1l10-21.9c0.2-0.4,0.5-0.8,0.9-1
						C669.2,56.3,669.6,56.1,670.1,56.1 M666.5,72.3h7.3l-3.7-8.1L666.5,72.3 M670.1,54.1c-0.9,0-1.7,0.2-2.4,0.7s-1.2,1.1-1.6,1.9
						l-10,21.8c-0.3,0.6-0.4,1.2-0.4,1.8c0,1.2,0.5,2.3,1.3,3.2c0.9,0.9,1.9,1.3,3.2,1.3c0.9,0,1.6-0.2,2.4-0.7
						c0.7-0.5,1.3-1.1,1.6-1.9l1.6-3.6h8.7l1.6,3.6c0.4,0.8,0.9,1.4,1.6,1.9c0.7,0.5,1.5,0.7,2.4,0.7c1.2,0,2.3-0.5,3.1-1.3
						s1.3-1.9,1.3-3.1c0-0.6-0.1-1.2-0.3-1.7v-0.1v-0.1l-10-21.9c-0.4-0.8-1-1.5-1.7-1.9C671.7,54.4,670.9,54.1,670.1,54.1
						L670.1,54.1z M669.6,70.3l0.6-1.3l0.6,1.3H669.6L669.6,70.3z"/>
				</g>
				<g>
					<path class="st5" d="M706.3,83.9c-0.7,0-1.3-0.2-1.8-0.5c-0.6-0.3-1-0.8-1.3-1.4c-0.1-0.2-0.3-0.5-0.5-1l-0.8-1.7
						c-0.4-0.8-0.7-1.5-1.1-2.3c-0.4-0.8-0.8-1.5-1.1-2.2c-0.3-0.6-0.6-1.2-0.8-1.6c0-0.1-0.1-0.1-0.1-0.2h-5.5v7.3
						c0,1-0.4,1.9-1.1,2.6c-0.7,0.7-1.6,1-2.5,1c-1,0-1.9-0.3-2.5-1c-0.7-0.7-1-1.5-1-2.5V59.1c0-1,0.3-1.9,1-2.5
						c0.7-0.7,1.5-1,2.5-1h9.7c1.3,0,2.7,0.1,3.9,0.4c1.3,0.3,2.4,0.8,3.4,1.5s1.8,1.7,2.4,2.8c0.6,1.1,0.9,2.5,0.9,4.1
						c0,1.7-0.4,3.3-1.2,4.6c-0.6,1.1-1.6,2-2.7,2.6c0,0.1,0.1,0.1,0.1,0.2c0.3,0.5,0.6,1.1,0.9,1.7c0.3,0.6,0.6,1.3,1,1.9
						c0.3,0.7,0.6,1.3,0.9,1.9c0.3,0.6,0.5,1.2,0.7,1.7c0.2,0.6,0.3,1,0.3,1.4c0,1-0.3,1.8-1,2.5C708.1,83.5,707.3,83.9,706.3,83.9z
						 M700.1,66.6c0.8,0,1.4-0.2,1.9-0.6c0.3-0.2,0.6-0.6,0.6-1.5c0-1-0.4-1.4-0.6-1.6c-0.5-0.4-1.1-0.6-1.9-0.6h-6.8v4.3
						C693.3,66.6,700.1,66.6,700.1,66.6z"/>
					<path d="M699.4,56.5c1.3,0,2.5,0.1,3.7,0.4c1.2,0.3,2.2,0.7,3,1.4c0.9,0.6,1.5,1.4,2.1,2.4s0.8,2.2,0.8,3.6
						c0,1.5-0.4,2.9-1.1,4.1c-0.7,1.2-1.8,2.1-3.2,2.7c0.1,0.3,0.3,0.6,0.6,1.1s0.5,1,0.9,1.7c0.3,0.6,0.6,1.3,1,1.9
						s0.6,1.3,0.9,1.9c0.3,0.6,0.5,1.1,0.7,1.6s0.3,0.8,0.3,1c0,0.7-0.2,1.3-0.7,1.8s-1.1,0.7-1.8,0.7c-0.5,0-0.9-0.1-1.3-0.4
						c-0.4-0.2-0.7-0.6-0.9-1c-0.1-0.1-0.2-0.5-0.5-1s-0.5-1.1-0.9-1.8c-0.3-0.7-0.7-1.4-1.1-2.2c-0.4-0.8-0.7-1.5-1.1-2.1
						c-0.3-0.7-0.6-1.2-0.8-1.6s-0.3-0.7-0.3-0.7h-7.2v8.3c0,0.7-0.3,1.3-0.8,1.8s-1.1,0.7-1.8,0.7s-1.3-0.2-1.8-0.7
						s-0.7-1.1-0.7-1.8V59.1c0-0.7,0.2-1.3,0.7-1.8s1.1-0.7,1.8-0.7L699.4,56.5 M692.3,67.6h7.8c1,0,1.8-0.3,2.5-0.8
						s1.1-1.3,1.1-2.3s-0.3-1.8-1-2.4c-0.7-0.5-1.5-0.8-2.5-0.8h-7.8L692.3,67.6 M699.4,54.5h-9.7c-1.3,0-2.4,0.5-3.3,1.3
						c-0.9,0.9-1.3,2-1.3,3.3v21.2c0,1.3,0.5,2.4,1.3,3.3c0.9,0.9,2,1.3,3.3,1.3c1.2,0,2.3-0.4,3.2-1.3s1.4-2,1.4-3.3V74h3.9
						c0.2,0.4,0.4,0.8,0.6,1.2c0.3,0.7,0.7,1.4,1.1,2.2c0.4,0.8,0.7,1.5,1.1,2.2v0.1l0.8,1.7c0.3,0.6,0.4,0.9,0.5,1
						c0.4,0.8,0.9,1.4,1.6,1.8c0.7,0.4,1.5,0.7,2.4,0.7c1.2,0,2.3-0.5,3.2-1.3c0.9-0.9,1.3-2,1.3-3.2c0-0.5-0.1-1-0.4-1.7
						c-0.2-0.5-0.4-1.1-0.7-1.7s-0.6-1.3-0.9-1.9c-0.3-0.7-0.7-1.3-1-2c-0.2-0.4-0.4-0.8-0.6-1.1c0.9-0.7,1.7-1.5,2.3-2.5
						c0.9-1.5,1.3-3.2,1.3-5.1c0-1.7-0.3-3.3-1-4.6s-1.5-2.3-2.7-3.1c-1.1-0.8-2.3-1.3-3.7-1.7C702.2,54.7,700.8,54.5,699.4,54.5
						L699.4,54.5z M694.3,63.3h5.8c0.7,0,1.1,0.2,1.3,0.4c0.1,0.1,0.3,0.2,0.3,0.8c0,0.5-0.2,0.7-0.2,0.7c-0.4,0.3-0.8,0.4-1.3,0.4
						h-5.8L694.3,63.3L694.3,63.3z"/>
				</g>
				<g>
					<path class="st5" d="M723.8,83.9c-1,0-1.9-0.4-2.6-1.1c-0.7-0.7-1-1.6-1-2.6V62.4H714c-1,0-1.8-0.3-2.4-1s-1-1.5-1-2.4
						s0.3-1.8,1-2.4c0.7-0.7,1.5-1,2.4-1h19.6c1,0,1.8,0.3,2.4,1c0.7,0.7,1,1.5,1,2.4s-0.4,1.8-1,2.4c-0.7,0.7-1.5,1-2.4,1h-6.2
						v17.9c0,1-0.4,1.9-1.1,2.6C725.7,83.5,724.8,83.9,723.8,83.9z"/>
					<path d="M733.6,56.5c0.7,0,1.3,0.2,1.7,0.7c0.5,0.5,0.7,1.1,0.7,1.7c0,0.7-0.2,1.3-0.7,1.7c-0.5,0.5-1.1,0.7-1.7,0.7h-7.2v18.9
						c0,0.7-0.3,1.4-0.8,1.9s-1.1,0.8-1.9,0.8s-1.3-0.3-1.8-0.8s-0.7-1.1-0.7-1.9V61.4H714c-0.7,0-1.3-0.2-1.7-0.7s-0.7-1-0.7-1.7
						s0.2-1.3,0.7-1.7s1-0.7,1.7-0.7L733.6,56.5 M733.6,54.5H714c-1.2,0-2.3,0.5-3.2,1.3c-0.8,0.9-1.3,1.9-1.3,3.1
						c0,1.2,0.4,2.3,1.3,3.1c0.8,0.8,1.9,1.3,3.1,1.3h5.2v16.9c0,1.3,0.5,2.4,1.3,3.3c0.9,0.9,2,1.4,3.3,1.4s2.4-0.5,3.3-1.3
						c0.9-0.9,1.3-2,1.3-3.3V63.4h5.2c1.2,0,2.3-0.4,3.1-1.3c0.9-0.8,1.3-1.9,1.3-3.2c0-1.2-0.5-2.3-1.3-3.2
						C735.9,54.9,734.8,54.5,733.6,54.5L733.6,54.5z"/>
				</g>
			</g>
		</g>
		<path class="st4" d="M778.4,231.1L778.4,231.1c-2.9,0-5.2-2.3-5.2-5.2V31.3c0-2.9,2.3-5.2,5.2-5.2l0,0c2.9,0,5.2,2.3,5.2,5.2
			v194.6C783.6,228.8,781.2,231.1,778.4,231.1z"/>
	</g>
</g>
<g id="Layer_5">
	<rect y="220" class="st6" width="800" height="30"/>
	<rect x="15" y="220" class="st3" width="99" height="6"/>
	<rect x="221" y="220" class="st3" width="99" height="6"/>
	<rect x="429" y="220" class="st3" width="99" height="6"/>
	<rect x="635" y="220" class="st3" width="99" height="6"/>
</g>
<g id="Layer_6">
</g>
<linearGradient id="SVGID_1_" gradientUnits="userSpaceOnUse" x1="635.4" y1="70" x2="681.2798" y2="70" gradientTransform="matrix(1 0 0 -1 0 252)">
	<stop  offset="0" style="stop-color:#FCEE21"/>
	<stop  offset="1" style="stop-color:#FCEE21;stop-opacity:0"/>
</linearGradient>
<polygon class="st7" points="681.2,206.9 635.4,188.8 635.4,176.5 681.2,157.1 "/>
<g id="Layer_2_1_">
	<g id="Premium">
		<g id="premium-mini-blue">
			
				<rect x="461.9" y="169.6" transform="matrix(4.205140e-02 -0.9991 0.9991 4.205140e-02 256.0285 662.0031)" class="st8" width="22.8" height="55.8"/>
			<rect x="570.3" y="188.5" class="st8" width="55.8" height="22.8"/>
			<path class="st9" d="M634.8,188c-0.8-9.8-5.8-15.2-15.4-17.1l-31.5-3.9l-15-20.2c-2.8-4.2-7.5-6.8-12.6-6.8h-80
				c-5.9,0-11.4,2.7-15.1,7.2l-17.7,21.9c-1.9,2.4-3.2,5.2-3.8,8.2l-4.3,21.4c-0.7,3.3,0.9,6.7,3.9,8.3l0.2,0.1
				c2.6,1.4,5.5,2.3,8.4,2.8c-2.6-9.6,3.1-19.4,12.6-22c9.6-2.6,19.4,3.1,22,12.6c0.9,3.4,0.8,6.9-0.3,10.3l102.4,2
				c-2.9-9.5,2.5-19.4,12-22.3c9.5-2.9,19.4,2.5,22.3,12c1.1,3.5,1,7.3-0.1,10.7c7-1.2,12.1-7.2,12.1-14.3L634.8,188z"/>
			<path class="st10" d="M634.8,188c-0.8-9.8-5.8-15.2-15.4-17.1l-31.5-3.9l-15-20.2c-2.8-4.2-7.5-6.8-12.6-6.8h-80
				c-5.9,0-11.4,2.7-15.1,7.2l-17.7,21.9c-1.9,2.4-3.2,5.2-3.8,8.2l-4.3,21.4c-0.7,3.3,0.9,6.7,3.9,8.3l0.2,0.1
				c2.6,1.4,5.5,2.3,8.4,2.8c-2.6-9.6,3.1-19.4,12.6-22c9.6-2.6,19.4,3.1,22,12.6c0.9,3.4,0.8,6.9-0.3,10.3l102.4,2
				c-2.9-9.5,2.5-19.4,12-22.3c9.5-2.9,19.4,2.5,22.3,12c1.1,3.5,1,7.3-0.1,10.7c7-1.2,12.1-7.2,12.1-14.3L634.8,188z"/>
			<g>
				<g>
					<g>
						<defs>
							<path id="SVGID_2_" d="M634.8,188c-0.8-9.8-5.8-15.2-15.4-17.1l-31.5-3.9l-15-20.2c-2.8-4.2-7.5-6.8-12.6-6.8h-80
								c-5.9,0-11.4,2.7-15.1,7.2l-17.7,21.9c-1.9,2.4-3.2,5.2-3.8,8.2l-4.3,21.4c-0.7,3.3,0.9,6.7,3.9,8.3l0.2,0.1
								c2.6,1.4,5.5,2.3,8.4,2.8c-2.6-9.6,3.1-19.4,12.6-22c9.6-2.6,19.4,3.1,22,12.6c0.9,3.4,0.8,6.9-0.3,10.3l102.4,2
								c-2.9-9.5,2.5-19.4,12-22.3c9.5-2.9,19.4,2.5,22.3,12c1.1,3.5,1,7.3-0.1,10.7c7-1.2,12.1-7.2,12.1-14.3L634.8,188z"/>
						</defs>
						<clipPath id="SVGID_3_">
							<use xlink:href="#SVGID_2_"  style="overflow:visible;"/>
						</clipPath>
						<g class="st11">
							<path class="st12" d="M513,214.5c-7.2,0-14.3-2.9-19.4-7.9c-0.2-0.2-0.2-0.4-0.1-0.5c0.9-1.6,1.8-3.5,2.7-5.7
								c0.5-1.1,0.3-2.5-0.3-3.6c-0.4-0.7-1.3-1.7-3-1.9c-2-0.2-3.7-0.3-5.3-0.3c-0.3,0-0.7,0-1,0l0,0c-0.2,0-0.4-0.1-0.4-0.3
								c-3.4-12.1,1.7-25.1,12.5-31.5c4.3-2.6,9.2-3.9,14.2-3.9c7.3,0,14.2,2.8,19.4,7.9c0.2,0.2,0.2,0.4,0.1,0.5
								c-0.9,1.6-1.8,3.5-2.7,5.7c-0.5,1.1-0.3,2.5,0.3,3.6c0.4,0.7,1.3,1.7,3,1.9c2,0.2,3.8,0.3,5.3,0.3c0.3,0,0.7,0,1,0l0,0
								c0.2,0,0.4,0.1,0.4,0.3c3.4,12.1-1.7,25.1-12.5,31.5C522.9,213.1,517.9,214.5,513,214.5z M529.6,185.7c-0.4,0-0.7,0.2-1,0.5
								c-2.4,2.7-6.3,5.8-10.9,8.5s-9.2,4.8-12.7,5.6c-0.5,0.1-0.8,0.4-0.9,0.8c-0.2,0.4-0.1,0.9,0.2,1.2c1.2,1.3,2.8,2.3,4.8,2.8
								c1.2,0.3,2.4,0.4,3.7,0.4c3.4,0,7-1,9.8-2.6c7-4.2,9.9-12,8.2-16.4C530.6,185.9,530,185.7,529.6,185.7z M496.8,183
								c-0.5,0-0.8,0.4-0.8,0.7c-0.1,0.3,0.1,0.8,0.6,1l5.5,1.9c0.2,0.1,0.3,0.3,0.3,0.5l-0.9,5.7c-0.1,0.3,0.1,0.5,0.2,0.7
								c0.2,0.2,0.4,0.3,0.7,0.3c0.2,0,0.5-0.1,0.7-0.5l4.9-9.1c0.2-0.3,0.2-0.6,0-0.8c-0.2-0.3-0.4-0.4-0.7-0.4L496.8,183
								L496.8,183z M518.1,170.3c-0.2,0-0.5,0.1-0.7,0.5l-4.9,9.1c-0.2,0.3-0.2,0.6,0,0.8c0.2,0.3,0.4,0.4,0.8,0.4l10.3,0
								c0.5,0,0.8-0.4,0.8-0.7s-0.1-0.8-0.6-1l-5.5-1.9c-0.2-0.1-0.3-0.3-0.3-0.5l0.9-5.7c0.1-0.3-0.1-0.5-0.2-0.7
								C518.6,170.4,518.3,170.3,518.1,170.3z M485.3,209.1c-2.1,0-4.1-1.1-5.2-2.9c-1.7-2.9-0.8-6.5,2-8.2c0.9-0.6,2.7-0.8,5.2-0.8
								c2.1,0,4.2,0.2,5.2,0.3c0.5,0.1,0.8,0.3,1.1,0.7c0.2,0.4,0.2,0.8,0.1,1.2c-1.4,3.5-3.5,7.8-5.5,8.9
								C487.4,208.8,486.4,209.1,485.3,209.1L485.3,209.1z M538.4,176.1c-2.1,0-4.2-0.2-5.2-0.3c-0.5-0.1-0.8-0.3-1.1-0.7
								c-0.2-0.4-0.2-0.8-0.1-1.2c1.4-3.5,3.5-7.8,5.5-8.9c0.9-0.5,1.9-0.8,3-0.8c2.1,0,4.1,1.1,5.2,2.9c1.7,2.9,0.8,6.5-2,8.2
								C542.7,175.8,541,176.1,538.4,176.1L538.4,176.1z"/>
							<path class="st3" d="M512.8,159.2c7,0,14,2.7,19.1,7.8c-0.8,1.4-1.8,3.3-2.8,5.7c-0.9,2.1,0,5.6,3.7,6.1
								c2.2,0.2,3.9,0.3,5.4,0.3c0.3,0,0.7,0,1,0c3.3,11.6-1.4,24.5-12.3,31c-4.4,2.6-9.2,3.9-14,3.9c-7,0-14-2.7-19.1-7.8
								c0.8-1.4,1.8-3.3,2.8-5.7c0.9-2.1,0-5.6-3.7-6.1c-2.2-0.2-3.9-0.3-5.3-0.3c-0.4,0-0.7,0-1,0c-3.3-11.6,1.4-24.5,12.3-31
								C503.2,160.5,508.1,159.2,512.8,159.2 M523.5,181.6c1.5,0,1.9-2.1,0.5-2.6l-5.5-1.9l0.9-5.7c0.2-0.9-0.6-1.5-1.3-1.5
								c-0.4,0-0.9,0.2-1.2,0.7l0,0l-4.9,9.1c-0.5,0.8,0.2,1.9,1.2,1.9L523.5,181.6L523.5,181.6 M502.3,194.3c0.5,0,0.9-0.2,1.2-0.7
								l4.9-9.1c0.5-0.9-0.2-1.9-1.2-1.9l-10.3,0l0,0c-1.5,0-1.9,2.1-0.5,2.6l5.5,1.9l-0.9,5.7C500.8,193.7,501.6,194.3,502.3,194.3
								 M512.8,206c3.5,0,7.2-1,10-2.7l0,0c5.7-3.4,10.6-11.3,8.4-17c-0.3-0.7-1-1.1-1.6-1.1c-0.5,0-1,0.2-1.3,0.6
								c-2.3,2.6-6.3,5.7-10.8,8.4c-4.6,2.7-9.1,4.7-12.5,5.5c-1.3,0.3-1.8,1.9-0.9,2.9c1.3,1.5,3,2.5,5.1,2.9
								C510.2,205.9,511.5,206,512.8,206 M540.5,164.6c1.9,0,3.7,1,4.8,2.7c1.6,2.6,0.8,6-1.8,7.6c-1,0.6-3,0.8-5,0.8
								c-1.9,0-3.9-0.2-5.2-0.3c-0.6-0.1-1-0.7-0.8-1.3c1-2.3,3.3-7.6,5.2-8.7C538.6,164.8,539.5,164.6,540.5,164.6 M487.4,197.6
								c1.9,0,3.9,0.2,5.2,0.3c0.6,0.1,1,0.7,0.8,1.3c-1,2.3-3.3,7.6-5.2,8.7c-0.8,0.5-1.8,0.8-2.7,0.8c-1.9,0-3.7-1-4.8-2.7
								c-1.6-2.6-0.8-6,1.8-7.6C483.4,197.8,485.3,197.6,487.4,197.6 M512.8,158.3L512.8,158.3c-5.1,0-10.1,1.4-14.4,4
								c-11,6.6-16.2,19.7-12.7,32c0.1,0.4,0.5,0.7,0.9,0.7h0c0.3,0,0.6,0,1,0c1.5,0,3.2,0.1,5.2,0.3c1.2,0.2,2.1,0.7,2.7,1.7
								c0.5,0.9,0.7,2.2,0.2,3.2c-0.9,2.2-1.8,4-2.7,5.6c-0.2,0.4-0.2,0.8,0.2,1.1c5.3,5.2,12.3,8,19.8,8c5.1,0,10.1-1.4,14.4-4
								c11-6.6,16.2-19.7,12.7-32c-0.1-0.4-0.5-0.7-0.9-0.7h0c-0.3,0-0.6,0-1,0c-1.5,0-3.3-0.1-5.2-0.3c-1.2-0.2-2.1-0.7-2.7-1.7
								s-0.7-2.2-0.3-3.2c0.9-2.2,1.8-4,2.7-5.6c0.2-0.4,0.2-0.8-0.2-1.1C527.3,161.2,520.3,158.3,512.8,158.3L512.8,158.3z
								 M523.5,180.7l-10.3,0c-0.2,0-0.3-0.1-0.4-0.2c0-0.1-0.1-0.2,0-0.4l4.9-9.1c0.1-0.2,0.2-0.2,0.3-0.2s0.3,0.1,0.4,0.2
								c0.1,0.1,0.1,0.2,0.1,0.3l-0.9,5.7c-0.1,0.4,0.2,0.8,0.6,1l5.5,1.9c0.3,0.1,0.3,0.3,0.3,0.5
								C523.9,180.5,523.8,180.7,523.5,180.7L523.5,180.7z M502.3,193.4c-0.1,0-0.3-0.1-0.4-0.2c-0.1-0.1-0.1-0.2-0.1-0.3l0.9-5.7
								c0.1-0.4-0.2-0.8-0.6-1l-5.5-1.9c-0.3-0.1-0.3-0.3-0.3-0.5c0-0.1,0.1-0.4,0.4-0.4l10.3,0c0.2,0,0.3,0.1,0.4,0.2
								c0,0.1,0.1,0.2,0,0.4l-4.9,9.1C502.5,193.3,502.4,193.4,502.3,193.4L502.3,193.4z M512.8,205.1c-1.3,0-2.5-0.2-3.6-0.4
								c-2-0.5-3.5-1.4-4.6-2.7c-0.3-0.3-0.2-0.7-0.2-0.8c0.1-0.2,0.2-0.5,0.6-0.5c3.5-0.8,8.2-2.9,12.8-5.6s8.6-5.9,11-8.6
								c0.2-0.2,0.5-0.3,0.6-0.3l0,0c0.3,0,0.6,0.2,0.8,0.5c0.9,2.4,0.5,5.5-1.2,8.6c-1.5,2.9-4.1,5.6-6.8,7.3
								C519.7,204.2,516.1,205.1,512.8,205.1L512.8,205.1z M540.5,163.7c-1.1,0-2.2,0.3-3.2,0.9c-2,1.2-4.2,5.6-5.6,9.2
								c-0.2,0.5-0.2,1.1,0.1,1.6s0.8,0.8,1.4,0.9c1.1,0.1,3.2,0.3,5.3,0.3c2.6,0,4.4-0.3,5.5-0.9c1.5-0.9,2.5-2.3,2.9-3.9
								c0.4-1.7,0.1-3.4-0.8-4.9C544.9,164.9,542.7,163.7,540.5,163.7L540.5,163.7z M487.4,196.7c-2.6,0-4.4,0.3-5.5,0.9
								c-1.5,0.9-2.5,2.3-2.9,3.9c-0.4,1.7-0.1,3.4,0.8,4.9c1.2,2,3.3,3.2,5.6,3.2c1.1,0,2.2-0.3,3.2-0.9c2-1.2,4.2-5.6,5.6-9.2
								c0.2-0.5,0.2-1.1-0.1-1.6c-0.3-0.5-0.8-0.8-1.4-0.9C491.5,196.9,489.4,196.7,487.4,196.7L487.4,196.7z"/>
						</g>
					</g>
					<g>
						<defs>
							<path id="SVGID_4_" d="M634.8,188c-0.8-9.8-5.8-15.2-15.4-17.1l-31.5-3.9l-15-20.2c-2.8-4.2-7.5-6.8-12.6-6.8h-80
								c-5.9,0-11.4,2.7-15.1,7.2l-17.7,21.9c-1.9,2.4-3.2,5.2-3.8,8.2l-4.3,21.4c-0.7,3.3,0.9,6.7,3.9,8.3l0.2,0.1
								c2.6,1.4,5.5,2.3,8.4,2.8c-2.6-9.6,3.1-19.4,12.6-22c9.6-2.6,19.4,3.1,22,12.6c0.9,3.4,0.8,6.9-0.3,10.3l102.4,2
								c-2.9-9.5,2.5-19.4,12-22.3c9.5-2.9,19.4,2.5,22.3,12c1.1,3.5,1,7.3-0.1,10.7c7-1.2,12.1-7.2,12.1-14.3L634.8,188z"/>
						</defs>
						<clipPath id="SVGID_5_">
							<use xlink:href="#SVGID_4_"  style="overflow:visible;"/>
						</clipPath>
						<g class="st13">
							<g>
								<path class="st12" d="M549.2,199.5c-0.2,0-0.5-0.1-0.7-0.2c-0.4-0.2-0.6-0.5-0.7-0.9l-2.5-8.4c-0.1-0.4-0.1-0.8,0.1-1.2
									s0.5-0.6,0.9-0.7c0.2,0,0.3-0.1,0.5-0.1c0.2,0,0.5,0.1,0.7,0.2c0.4,0.2,0.6,0.5,0.7,0.9l0.8,2.7l3.8-1.1l-0.8-2.7
									c-0.1-0.4-0.1-0.8,0.1-1.2c0.2-0.4,0.5-0.6,0.9-0.7c0.2-0.1,0.3-0.1,0.5-0.1c0.2,0,0.5,0.1,0.7,0.2c0.4,0.2,0.6,0.5,0.7,0.9
									l2.5,8.4c0.1,0.4,0.1,0.8-0.1,1.2c-0.2,0.4-0.5,0.6-0.9,0.7c-0.2,0.1-0.3,0.1-0.5,0.1c-0.2,0-0.5-0.1-0.7-0.2
									c-0.4-0.2-0.6-0.5-0.7-0.9l-0.9-3l-3.8,1.1l0.9,3c0.1,0.4,0.1,0.8-0.1,1.2c-0.2,0.4-0.5,0.6-0.9,0.7
									C549.5,199.5,549.3,199.5,549.2,199.5z"/>
								<path class="st3" d="M553.3,186.4c0.2,0,0.3,0,0.5,0.1c0.2,0.2,0.4,0.4,0.5,0.6l2.5,8.4c0.1,0.3,0.1,0.5-0.1,0.8
									c-0.1,0.2-0.3,0.4-0.6,0.5c-0.1,0-0.2,0.1-0.3,0.1c-0.2,0-0.3,0-0.5-0.1c-0.3-0.2-0.4-0.4-0.5-0.6l-1-3.4l-4.6,1.4l1,3.4
									c0.1,0.3,0.1,0.5-0.1,0.8c-0.1,0.2-0.3,0.4-0.6,0.5c-0.1,0-0.2,0.1-0.3,0.1c-0.2,0-0.3,0-0.5-0.1c-0.3-0.2-0.4-0.4-0.5-0.6
									l-2.5-8.4c-0.1-0.3-0.1-0.5,0.1-0.8c0.2-0.3,0.4-0.4,0.6-0.5c0.1,0,0.2-0.1,0.3-0.1c0.2,0,0.3,0,0.5,0.1
									c0.2,0.2,0.4,0.4,0.5,0.6l0.9,3.1l4.6-1.4l-0.9-3.1c-0.1-0.3-0.1-0.5,0.1-0.8c0.2-0.3,0.4-0.4,0.6-0.5
									C553.1,186.5,553.3,186.4,553.3,186.4 M553.3,185.5c-0.2,0-0.4,0-0.6,0.1c-0.5,0.2-0.9,0.5-1.2,1c-0.2,0.5-0.3,1-0.2,1.5
									l0.7,2.2l-2.9,0.9l-0.7-2.2c-0.2-0.5-0.5-0.9-0.9-1.2c-0.3-0.2-0.6-0.2-0.9-0.2c-0.2,0-0.4,0-0.6,0.1
									c-0.5,0.2-0.9,0.5-1.2,1c-0.2,0.5-0.3,1-0.2,1.5l2.5,8.4c0.2,0.5,0.5,0.9,1,1.2c0.3,0.2,0.6,0.2,0.9,0.2
									c0.2,0,0.4,0,0.6-0.1c0.5-0.2,0.9-0.5,1.2-1c0.2-0.5,0.3-1,0.1-1.5l-0.8-2.5l2.9-0.9l0.8,2.5c0.2,0.5,0.5,0.9,1,1.2
									c0.3,0.2,0.6,0.2,0.9,0.2c0.2,0,0.4,0,0.6-0.1c0.5-0.2,0.9-0.5,1.2-1c0.2-0.5,0.3-1,0.1-1.5l-2.5-8.4
									c-0.2-0.5-0.5-0.9-0.9-1.2C554,185.6,553.7,185.5,553.3,185.5L553.3,185.5z"/>
							</g>
							<g>
								<path class="st12" d="M559.6,196.3c-0.2,0-0.5-0.1-0.7-0.2c-0.4-0.2-0.6-0.5-0.7-0.9c-0.1-0.2-0.1-0.4,0-0.6l1.3-9.7
									c0-0.3,0.2-0.5,0.3-0.7c0.2-0.2,0.4-0.4,0.7-0.5c0.2,0,0.3-0.1,0.4-0.1c0.1,0,0.2,0,0.4,0.1c0.3,0.1,0.5,0.2,0.7,0.4
									l6.5,7.4c0.2,0.2,0.2,0.4,0.3,0.5c0.1,0.4,0.1,0.8-0.1,1.1c-0.2,0.3-0.5,0.6-0.8,0.7c-0.2,0-0.3,0.1-0.4,0.1s-0.3,0-0.4-0.1
									c-0.3-0.1-0.5-0.2-0.7-0.4l-1.2-1.4l-3.9,1.2l-0.2,1.8c0,0.3-0.2,0.5-0.3,0.8s-0.4,0.4-0.7,0.4
									C559.9,196.3,559.8,196.3,559.6,196.3z M561.7,190.3l1.5-0.5l-1.3-1.5L561.7,190.3z"/>
								<path class="st3" d="M561,184.2c0.1,0,0.2,0,0.3,0c0.2,0.1,0.4,0.2,0.5,0.3l6.5,7.4c0.1,0.1,0.2,0.2,0.2,0.4
									c0.1,0.3,0.1,0.5-0.1,0.8c-0.1,0.2-0.3,0.4-0.6,0.5c-0.1,0-0.2,0.1-0.3,0.1s-0.2,0-0.2,0c-0.2-0.1-0.3-0.2-0.5-0.3l-1.4-1.6
									l-4.4,1.3l-0.3,2.1c0,0.2-0.1,0.4-0.2,0.5c-0.1,0.2-0.3,0.2-0.5,0.3c-0.1,0-0.2,0-0.3,0c-0.2,0-0.3,0-0.5-0.1
									c-0.2-0.1-0.4-0.3-0.5-0.6c0-0.1-0.1-0.3,0-0.4l1.3-9.7c0-0.2,0.1-0.4,0.2-0.5c0.1-0.2,0.3-0.2,0.5-0.3
									C560.8,184.2,560.9,184.2,561,184.2 M561.2,190.9l2.9-0.8l-2.4-2.8L561.2,190.9 M561,183.3c-0.2,0-0.4,0-0.6,0.1
									c-0.4,0.1-0.7,0.3-0.9,0.6c-0.2,0.3-0.4,0.6-0.4,1l-1.3,9.7c0,0.3,0,0.5,0.1,0.8c0.2,0.5,0.5,0.9,0.9,1.1
									c0.3,0.2,0.6,0.2,0.9,0.2c0.2,0,0.4,0,0.5-0.1c0.4-0.1,0.6-0.3,0.9-0.6c0.2-0.3,0.4-0.6,0.5-1l0.2-1.5l3.3-1l1,1.2
									c0.2,0.3,0.5,0.5,0.9,0.6c0.2,0.1,0.3,0.1,0.5,0.1s0.4,0,0.6-0.1c0.5-0.2,0.9-0.5,1.1-0.9s0.3-0.9,0.1-1.4
									c-0.1-0.2-0.2-0.5-0.4-0.7l0,0l-6.5-7.4c-0.3-0.3-0.6-0.5-0.9-0.6C561.3,183.3,561.1,183.3,561,183.3L561,183.3z
									 M562.2,189.7l0-0.2l0.2,0.2L562.2,189.7L562.2,189.7z"/>
							</g>
							<g>
								<path class="st12" d="M575.8,191.5c-0.2,0-0.5-0.1-0.7-0.2c-0.4-0.2-0.6-0.5-0.7-0.9l-2.5-8.4c-0.1-0.4-0.1-0.8,0.1-1.2
									c0.2-0.4,0.5-0.6,0.9-0.7c0.2,0,0.3-0.1,0.5-0.1c0.2,0,0.5,0.1,0.7,0.2c0.4,0.2,0.6,0.5,0.7,0.9l0.8,2.7l3.8-1.1l-0.8-2.7
									c-0.1-0.4-0.1-0.8,0.1-1.2s0.5-0.6,0.9-0.7c0.2,0,0.3-0.1,0.5-0.1c0.2,0,0.5,0.1,0.7,0.2c0.4,0.2,0.6,0.5,0.7,0.9l2.5,8.4
									c0.1,0.4,0.1,0.8-0.1,1.2s-0.5,0.6-0.9,0.7c-0.2,0.1-0.3,0.1-0.5,0.1c-0.2,0-0.5-0.1-0.7-0.2c-0.4-0.2-0.6-0.5-0.7-0.9
									l-0.9-3l-3.8,1.1l0.9,3c0.1,0.4,0.1,0.8-0.1,1.2c-0.2,0.4-0.5,0.6-0.9,0.7C576.1,191.4,575.9,191.5,575.8,191.5z"/>
								<path class="st3" d="M579.9,178.5c0.2,0,0.3,0,0.5,0.1c0.2,0.2,0.4,0.4,0.5,0.6l2.5,8.4c0.1,0.3,0.1,0.5-0.1,0.8
									c-0.1,0.2-0.3,0.4-0.6,0.5c-0.1,0-0.2,0.1-0.3,0.1c-0.2,0-0.3,0-0.5-0.1c-0.3-0.2-0.4-0.4-0.5-0.6l-1-3.4l-4.6,1.4l1,3.4
									c0.1,0.3,0.1,0.5-0.1,0.8c-0.1,0.2-0.3,0.4-0.6,0.5c-0.1,0-0.2,0.1-0.3,0.1c-0.2,0-0.3,0-0.5-0.1c-0.3-0.2-0.4-0.4-0.5-0.6
									l-2.5-8.4c-0.1-0.3-0.1-0.5,0.1-0.8c0.2-0.3,0.4-0.4,0.6-0.5c0.1,0,0.2-0.1,0.3-0.1c0.2,0,0.3,0,0.5,0.1
									c0.2,0.2,0.4,0.4,0.5,0.6l0.9,3.1l4.6-1.4l-0.9-3.1c-0.1-0.3-0.1-0.5,0.1-0.8c0.2-0.3,0.4-0.4,0.6-0.5
									C579.7,178.5,579.8,178.5,579.9,178.5 M579.9,177.6c-0.2,0-0.4,0-0.6,0.1c-0.5,0.2-0.9,0.5-1.2,1c-0.2,0.5-0.3,1-0.2,1.5
									l0.7,2.2l-2.9,0.9l-0.7-2.2c-0.2-0.5-0.5-0.9-0.9-1.2c-0.3-0.2-0.6-0.2-0.9-0.2c-0.2,0-0.4,0-0.6,0.1
									c-0.5,0.2-0.9,0.5-1.2,1c-0.2,0.5-0.3,1-0.2,1.5l2.5,8.4c0.2,0.5,0.5,0.9,1,1.2c0.3,0.2,0.6,0.2,0.9,0.2
									c0.2,0,0.4,0,0.6-0.1c0.5-0.2,0.9-0.5,1.2-1c0.2-0.5,0.3-1,0.1-1.5l-0.8-2.5l2.9-0.9l0.8,2.5c0.2,0.5,0.5,0.9,1,1.2
									c0.3,0.2,0.6,0.2,0.9,0.2c0.2,0,0.4,0,0.6-0.1c0.5-0.2,0.9-0.5,1.2-1c0.2-0.5,0.3-1,0.1-1.5l-2.5-8.4
									c-0.2-0.5-0.5-0.9-0.9-1.2C580.6,177.6,580.2,177.6,579.9,177.6L579.9,177.6z"/>
							</g>
							<g>
								<path class="st12" d="M586.2,188.3c-0.2,0-0.5-0.1-0.7-0.2c-0.4-0.2-0.6-0.5-0.7-0.9c-0.1-0.2-0.1-0.4,0-0.6l1.3-9.7
									c0-0.3,0.2-0.5,0.3-0.7c0.2-0.2,0.4-0.4,0.7-0.5c0.2,0,0.3-0.1,0.4-0.1c0.1,0,0.2,0,0.4,0.1c0.3,0.1,0.5,0.2,0.7,0.4
									l6.5,7.4c0.2,0.2,0.2,0.4,0.3,0.5c0.1,0.4,0.1,0.8-0.1,1.1s-0.5,0.6-0.8,0.7c-0.2,0-0.3,0.1-0.4,0.1c-0.1,0-0.3,0-0.4-0.1
									c-0.3-0.1-0.5-0.2-0.7-0.4l-1.2-1.4l-3.9,1.2l-0.2,1.8c0,0.3-0.2,0.5-0.3,0.8c-0.2,0.2-0.4,0.4-0.7,0.4
									C586.5,188.3,586.3,188.3,586.2,188.3z M588.3,182.3l1.5-0.5l-1.3-1.5L588.3,182.3z"/>
								<path class="st3" d="M587.5,176.2c0.1,0,0.2,0,0.3,0c0.2,0.1,0.4,0.2,0.5,0.3l6.5,7.4c0.1,0.1,0.2,0.2,0.2,0.4
									c0.1,0.3,0.1,0.5-0.1,0.8c-0.1,0.2-0.3,0.4-0.6,0.5c-0.1,0-0.2,0.1-0.3,0.1s-0.2,0-0.2,0c-0.2-0.1-0.3-0.2-0.5-0.3l-1.4-1.6
									l-4.4,1.3l-0.3,2.1c0,0.2-0.1,0.4-0.2,0.5c-0.1,0.2-0.3,0.2-0.5,0.3c-0.1,0-0.2,0-0.3,0c-0.2,0-0.3,0-0.5-0.1
									c-0.2-0.1-0.4-0.3-0.5-0.6c0-0.1-0.1-0.3,0-0.4l1.3-9.7c0-0.2,0.1-0.4,0.2-0.5c0.1-0.2,0.3-0.2,0.5-0.3
									C587.3,176.2,587.4,176.2,587.5,176.2 M587.7,182.9l2.9-0.8l-2.4-2.8L587.7,182.9 M587.5,175.2c-0.2,0-0.4,0-0.6,0.1
									c-0.4,0.1-0.7,0.3-0.9,0.6c-0.2,0.3-0.4,0.6-0.4,1l-1.3,9.7c0,0.3,0,0.5,0.1,0.8c0.2,0.5,0.5,0.9,0.9,1.1
									c0.3,0.2,0.6,0.2,0.9,0.2c0.2,0,0.4,0,0.5-0.1c0.4-0.1,0.6-0.3,0.9-0.6c0.2-0.3,0.4-0.6,0.5-1l0.2-1.5l3.3-1l1,1.2
									c0.2,0.3,0.5,0.5,0.9,0.6c0.2,0.1,0.3,0.1,0.5,0.1s0.4,0,0.6-0.1c0.5-0.2,0.9-0.5,1.1-0.9s0.3-0.9,0.1-1.4
									c-0.1-0.2-0.2-0.5-0.4-0.7l0,0l-6.5-7.4c-0.3-0.3-0.6-0.5-0.9-0.6C587.8,175.3,587.7,175.2,587.5,175.2L587.5,175.2z
									 M588.8,181.7l0-0.2l0.2,0.2L588.8,181.7L588.8,181.7z"/>
							</g>
						</g>
					</g>
					<g>
						<defs>
							<path id="SVGID_6_" d="M634.8,188c-0.8-9.8-5.8-15.2-15.4-17.1l-31.5-3.9l-15-20.2c-2.8-4.2-7.5-6.8-12.6-6.8h-80
								c-5.9,0-11.4,2.7-15.1,7.2l-17.7,21.9c-1.9,2.4-3.2,5.2-3.8,8.2l-4.3,21.4c-0.7,3.3,0.9,6.7,3.9,8.3l0.2,0.1
								c2.6,1.4,5.5,2.3,8.4,2.8c-2.6-9.6,3.1-19.4,12.6-22c9.6-2.6,19.4,3.1,22,12.6c0.9,3.4,0.8,6.9-0.3,10.3l102.4,2
								c-2.9-9.5,2.5-19.4,12-22.3c9.5-2.9,19.4,2.5,22.3,12c1.1,3.5,1,7.3-0.1,10.7c7-1.2,12.1-7.2,12.1-14.3L634.8,188z"/>
						</defs>
						<clipPath id="SVGID_7_">
							<use xlink:href="#SVGID_6_"  style="overflow:visible;"/>
						</clipPath>
						<g class="st14">
							<path class="st15" d="M438.3,172.5l154.7,10.9c0,0,38.5-12.4,47.3,9.7l-3.6,30c0,0-27.3,5.8-30.3,5.8s-89.5,0.6-94.3,0
								c-4.9-0.6-75.8-5.8-75.8-5.8l-7.9-30.6L438.3,172.5z"/>
							<path class="st3" d="M473.2,113.6l93.2,1.2c4.2,0.1,7.6,3.5,7.6,7.8l-0.2,15c-0.1,4.2-3.5,7.6-7.8,7.6l-93.3-1.1
								c-4.2-0.1-7.6-3.5-7.6-7.8l0.2-15C465.5,117,469,113.6,473.2,113.6z"/>
						</g>
					</g>
				</g>
			</g>
			
				<linearGradient id="SVGID_8_" gradientUnits="userSpaceOnUse" x1="522.0675" y1="75.9798" x2="571.7819" y2="75.9798" gradientTransform="matrix(1 0 0 -1 0 234)">
				<stop  offset="0" style="stop-color:#C9E7F9"/>
				<stop  offset="1" style="stop-color:#AAFFF9"/>
			</linearGradient>
			<path class="st16" d="M567,169.5l-40.3-0.9c-2.5-0.1-4.6-2.2-4.6-4.7v-12.7c0-2.6,2.1-4.7,4.7-4.7c0.1,0,0.1,0,0.2,0l31.3,1
				c1.5,0.1,2.8,0.8,3.7,2l9,12.6c1.5,2.1,1,5.1-1.1,6.6C569,169.2,568,169.5,567,169.5z"/>
			
				<linearGradient id="SVGID_9_" gradientUnits="userSpaceOnUse" x1="472.334" y1="76.1764" x2="516.9325" y2="76.1764" gradientTransform="matrix(1 0 0 -1 0 234)">
				<stop  offset="0" style="stop-color:#C9E7F9"/>
				<stop  offset="1" style="stop-color:#AAFFF9"/>
			</linearGradient>
			<path class="st17" d="M476.7,168.1l35.6,1.2c2.5,0.1,4.6-1.9,4.6-4.4c0-0.1,0-0.1,0-0.2v-13.9c0-2.5-2-4.5-4.5-4.5l0,0h-29.6
				c-1.8,0-3.3,1-4.1,2.6l-5.9,12.7c-1.1,2.2-0.1,4.9,2.2,6C475.5,168,476.1,168.1,476.7,168.1z"/>
			
				<linearGradient id="SVGID_10_" gradientUnits="userSpaceOnUse" x1="567.8224" y1="77.2476" x2="587.8956" y2="77.2476" gradientTransform="matrix(1 0 0 -1 0 234)">
				<stop  offset="0" style="stop-color:#C9E7F9"/>
				<stop  offset="1" style="stop-color:#AAFFF9"/>
			</linearGradient>
			<path class="st18" d="M587.9,167l-4.8,0.8c-0.9,0.4-2,0.1-2.5-0.7l-12.4-18c-0.6-0.9-0.4-2.2,0.5-2.9c0.2-0.2,0.5-0.3,0.8-0.3
				l2.2-0.4L587.9,167z"/>
			
				<ellipse transform="matrix(4.205437e-02 -0.9991 0.9991 4.205437e-02 241.4404 667.631)" class="st19" cx="468.9" cy="207.9" rx="15.3" ry="15.4"/>
			
				<ellipse transform="matrix(4.205777e-02 -0.9991 0.9991 4.205777e-02 241.4388 667.6302)" class="st20" cx="468.9" cy="207.9" rx="14.9" ry="15"/>
			
				<ellipse transform="matrix(4.204503e-02 -0.9991 0.9991 4.204503e-02 241.4447 667.6331)" cx="468.9" cy="207.9" rx="11.2" ry="11.3"/>
			
				<ellipse transform="matrix(4.205777e-02 -0.9991 0.9991 4.205777e-02 241.4388 667.6302)" class="st3" cx="468.9" cy="207.9" rx="10.6" ry="10.7"/>
			
				<ellipse transform="matrix(4.205140e-02 -0.9991 0.9991 4.205140e-02 241.4418 667.6317)" class="st21" cx="468.9" cy="207.9" rx="10.1" ry="10.2"/>
			
				<ellipse transform="matrix(4.205140e-02 -0.9991 0.9991 4.205140e-02 241.4418 667.6317)" class="st22" cx="468.9" cy="207.9" rx="6.3" ry="6.3"/>
			
				<ellipse transform="matrix(4.207049e-02 -0.9991 0.9991 4.207049e-02 241.433 667.6274)" class="st23" cx="468.9" cy="207.9" rx="5.7" ry="5.8"/>
			
				<ellipse transform="matrix(4.205140e-02 -0.9991 0.9991 4.205140e-02 373.0989 804.9675)" class="st19" cx="606.3" cy="207.9" rx="15.3" ry="15.4"/>
			
				<ellipse transform="matrix(4.205140e-02 -0.9991 0.9991 4.205140e-02 373.0989 804.9675)" class="st20" cx="606.3" cy="207.9" rx="14.9" ry="15"/>
			
				<ellipse transform="matrix(4.205140e-02 -0.9991 0.9991 4.205140e-02 373.0989 804.9675)" cx="606.3" cy="207.9" rx="11.2" ry="11.3"/>
			
				<ellipse transform="matrix(4.205140e-02 -0.9991 0.9991 4.205140e-02 373.0989 804.9675)" class="st3" cx="606.3" cy="207.9" rx="10.6" ry="10.7"/>
			
				<ellipse transform="matrix(4.205140e-02 -0.9991 0.9991 4.205140e-02 373.0989 804.9675)" class="st21" cx="606.3" cy="207.9" rx="10.1" ry="10.2"/>
			
				<ellipse transform="matrix(4.205140e-02 -0.9991 0.9991 4.205140e-02 373.0989 804.9675)" class="st22" cx="606.3" cy="207.9" rx="6.3" ry="6.3"/>
			
				<ellipse transform="matrix(4.205140e-02 -0.9991 0.9991 4.205140e-02 373.0989 804.9675)" class="st23" cx="606.3" cy="207.9" rx="5.7" ry="5.8"/>
			
				<linearGradient id="SVGID_11_" gradientUnits="userSpaceOnUse" x1="437.1605" y1="33.3338" x2="447.1164" y2="33.3338" gradientTransform="matrix(1 0 0 -1 -2.844527e-03 234.0012)">
				<stop  offset="0" style="stop-color:#999999"/>
				<stop  offset="1" style="stop-color:#FFFFFF"/>
			</linearGradient>
			<path class="st24" d="M439.6,198.2l5.7,0.8c1.2,0.2,2,1.2,1.8,2.4l0,0c-0.2,1.2-1.2,2-2.4,1.8l-5.7-0.8c-1.2-0.2-2-1.2-1.8-2.4
				l0,0C437.3,198.8,438.4,198,439.6,198.2z"/>
			
				<linearGradient id="SVGID_12_" gradientUnits="userSpaceOnUse" x1="717.1248" y1="407.6566" x2="727.1049" y2="407.6566" gradientTransform="matrix(0.99 -7.000000e-02 -0.13 -0.51 -133.55 433.72)">
				<stop  offset="0" style="stop-color:#999999"/>
				<stop  offset="1" style="stop-color:#FFFFFF"/>
			</linearGradient>
			<path class="st25" d="M523.9,174.5h8.4c0.4,0,0.8,0.4,0.8,0.8l0,0c0,0.4-0.4,0.8-0.8,0.8h-8.4c-0.4,0-0.8-0.4-0.8-0.8l0,0
				C523.1,174.9,523.5,174.5,523.9,174.5z"/>
			
				<linearGradient id="SVGID_13_" gradientUnits="userSpaceOnUse" x1="666.0185" y1="414.6797" x2="675.9987" y2="414.6797" gradientTransform="matrix(0.99 -7.000000e-02 -0.13 -0.51 -133.55 433.72)">
				<stop  offset="0" style="stop-color:#999999"/>
				<stop  offset="1" style="stop-color:#FFFFFF"/>
			</linearGradient>
			<path class="st26" d="M472.4,174.5h8.4c0.4,0,0.8,0.4,0.8,0.8l0,0c0,0.4-0.4,0.8-0.8,0.8h-8.4c-0.4,0-0.8-0.4-0.8-0.8l0,0
				C471.6,174.9,471.9,174.5,472.4,174.5z"/>
			
				<linearGradient id="SVGID_14_" gradientUnits="userSpaceOnUse" x1="-2467.8459" y1="65.1452" x2="-2457.6213" y2="65.1452" gradientTransform="matrix(10.3005 8.573547e-02 -1.3794 -0.9991 25997.2109 484.0799)">
				<stop  offset="0" style="stop-color:#999999"/>
				<stop  offset="1" style="stop-color:#FFFFFF"/>
			</linearGradient>
			<path class="st27" d="M487.8,204.7l99.9,2.1c1.2,0,2.1,1,2,2.1l0,0c0,1.2-1,2.1-2.1,2l-99.9-2.1c-1.2,0-2.1-1-2-2.1l0,0
				C485.7,205.6,486.6,204.7,487.8,204.7z"/>
			
				<linearGradient id="SVGID_15_" gradientUnits="userSpaceOnUse" x1="625.5117" y1="29.8404" x2="635.219" y2="29.8404" gradientTransform="matrix(1 0 0 -1 0 234)">
				<stop  offset="0" style="stop-color:#999999"/>
				<stop  offset="1" style="stop-color:#FFFFFF"/>
			</linearGradient>
			<path class="st28" d="M627.5,202.2h5.8c1.1,0,2,0.9,2,2l0,0c0,1.1-0.9,2-2,2h-5.8c-1.1,0-2-0.9-2-2l0,0
				C625.5,203.1,626.4,202.2,627.5,202.2z"/>
			
				<linearGradient id="SVGID_16_" gradientUnits="userSpaceOnUse" x1="482.9623" y1="435.4859" x2="486.9059" y2="435.4859" gradientTransform="matrix(0.991 0.1342 0.1342 -0.991 95.7732 568.7983)">
				<stop  offset="0" style="stop-color:#999999"/>
				<stop  offset="1" style="stop-color:#FFFFFF"/>
			</linearGradient>
			<path class="st29" d="M635.6,196.2L635.6,196.2c1.1,0.2,1.9,1.2,1.7,2.2l-1.2,8.4c-0.2,1.1-1.2,1.9-2.2,1.7l0,0
				c-1.1-0.2-1.9-1.2-1.7-2.2l1.2-8.4C633.5,196.8,634.5,196,635.6,196.2z"/>
			
				<linearGradient id="SVGID_17_" gradientUnits="userSpaceOnUse" x1="632.792" y1="51.1147" x2="636.7356" y2="51.0358" gradientTransform="matrix(1 0 0 -1 0 234)">
				<stop  offset="0.55" style="stop-color:#FFFFFF"/>
				<stop  offset="1" style="stop-color:#FFF994"/>
			</linearGradient>
			<path class="st30" d="M634.8,176.7L634.8,176.7c1.1,0,2,0.9,2,2v8.5c0,1.1-0.9,2-2,2l0,0c-1.1,0-2-0.9-2-2v-8.5
				C632.8,177.6,633.7,176.7,634.8,176.7z"/>
			
				<linearGradient id="SVGID_18_" gradientUnits="userSpaceOnUse" x1="624.9049" y1="51.0752" x2="634.6123" y2="51.0752" gradientTransform="matrix(1 0 0 -1 0 234)">
				<stop  offset="0" style="stop-color:#FFFFFF"/>
				<stop  offset="1" style="stop-color:#A1A1A1"/>
			</linearGradient>
			<polygon class="st31" points="624.9,187 634.6,189.1 634.6,176.7 624.9,179.1 			"/>
			
				<linearGradient id="SVGID_19_" gradientUnits="userSpaceOnUse" x1="450.7791" y1="77.7012" x2="467.7253" y2="77.7012" gradientTransform="matrix(1 0 0 -1 0 234)">
				<stop  offset="0" style="stop-color:#C9E7F9"/>
				<stop  offset="1" style="stop-color:#AAFFF9"/>
			</linearGradient>
			<path class="st32" d="M465.9,146.4l0.5,0.1c1.1,0.5,1.5,1.7,1.1,2.7c-0.1,0.2-0.2,0.3-0.3,0.5l-12.7,15.7
				c-0.5,0.6-1.2,0.8-1.9,0.8l-1.9-1.1L465.9,146.4z"/>
		</g>
	</g>
</g>
<g id="Layer_8">
	
		<linearGradient id="SVGID_20_" gradientUnits="userSpaceOnUse" x1="400" y1="148" x2="400" y2="398" gradientTransform="matrix(1 0 0 1 0 -148)">
		<stop  offset="0" style="stop-color:#666666"/>
		<stop  offset="1" style="stop-color:#333333"/>
	</linearGradient>
	<rect class="st33" width="800" height="250"/>
</g>
</svg>
