<?xml version="1.0" encoding="utf-8"?>
<!-- Generator: Adobe Illustrator 25.0.1, SVG Export Plug-In . SVG Version: 6.00 Build 0)  -->
<svg version="1.1" id="Layer_1" xmlns="http://www.w3.org/2000/svg" xmlns:xlink="http://www.w3.org/1999/xlink" x="0px" y="0px"
	 viewBox="0 0 800 250" style="enable-background:new 0 0 800 250;" xml:space="preserve">
<style type="text/css">
	.st0{fill:#CDF5F9;}
	.st1{fill:#FFFFFF;}
	.st2{fill:#444444;}
	.st3{fill:#0F5E0F;}
	.st4{fill:#094909;}
	.st5{fill:#09890C;}
	.st6{fill:#0C440C;}
	.st7{fill:#3B3B3B;}
	.st8{display:none;}
	.st9{display:inline;opacity:0.47;fill:url(#SVGID_1_);enable-background:new    ;}
	.st10{fill:#FF0000;}
	.st11{fill:#ACAFBC;}
	.st12{fill:#003E60;}
	.st13{fill:#0061C3;}
	.st14{clip-path:url(#SVGID_3_);fill:#AAFFF9;}
	.st15{fill:#ED1414;}
	.st16{clip-path:url(#SVGID_5_);fill:#AAFFF9;}
	.st17{fill:#474757;}
	.st18{opacity:0.8;}
	.st19{fill:#BA4424;}
	.st20{fill:#D8950F;}
	.st21{fill:#282828;}
	.st22{opacity:0.2;}
	.st23{fill:#32323F;}
	.st24{fill:#DDDDDD;}
	.st25{fill:#BAC0D8;}
</style>
<g>
	<g id="Layer_1_1_">
		<rect class="st0" width="800" height="250"/>
	</g>
	<g id="Layer_3">
		<g>
			<path class="st1" d="M713.8,64c-3-16.5-17.4-28.9-34.7-28.9c-4.8,0-9.4,1-13.6,2.7C658.7,28.2,647.6,22,635,22
				c-12.7,0-23.9,6.3-30.6,16c-4.7-3.3-10.3-5.3-16.5-5.3c-15.7,0-28.5,12.7-28.5,28.5c0,0.9,0,1.9,0.1,2.8H713.8z"/>
		</g>
		<g>
			<path class="st1" d="M414.4,94c2.2-12.1,12.8-21.4,25.6-21.4c3.6,0,7,0.7,10,2c5-7.1,13.2-11.7,22.5-11.7
				c9.4,0,17.6,4.7,22.6,11.8c3.4-2.4,7.6-3.9,12.2-3.9c11.6,0,21,9.4,21,21c0,0.7,0,1.4-0.1,2.1H414.4V94z"/>
		</g>
		<g>
			<path class="st1" d="M92.3,62.7c-6.2,0-11.8,2-16.5,5.3c-6.7-9.7-17.9-16-30.6-16c-12.6,0-23.7,6.2-30.5,15.8
				c-4.2-1.8-8.8-2.7-13.6-2.7c-0.4,0-0.7,0-1.1,0V94h120.6c0.1-0.9,0.1-1.9,0.1-2.8C120.8,75.5,108,62.7,92.3,62.7z"/>
		</g>
	</g>
	<path class="st2" d="M565.5,231.1L565.5,231.1c-2.9,0-5.2-2.3-5.2-5.2V31.3c0-2.9,2.3-5.2,5.2-5.2l0,0c2.9,0,5.2,2.3,5.2,5.2v194.6
		C570.7,228.8,568.4,231.1,565.5,231.1z"/>
	<g>
		<g>
			<path class="st3" d="M306,155.5c-6.4,8.9-15.2,16.4-25.9,21.3c-21.5,9.8-45.4,7-63.6-5.3c-8.4,13.6-13.7,29.4-14.8,46.3h-0.2V250
				h203.3v-32.2h-0.2c-1.4-20.6-8.9-39.5-20.7-54.9c-2.4,1.5-4.9,2.8-7.5,4C352,178,324.4,172.6,306,155.5z"/>
			<path class="st4" d="M303.1,123c-36.6,0-68.7,19.4-86.6,48.5c18.2,12.3,42.2,15.1,63.6,5.3c10.7-4.9,19.5-12.3,25.9-21.3
				c18.4,17.1,46,22.5,70.3,11.4c2.6-1.2,5.1-2.5,7.5-4C365.2,138.6,336,123,303.1,123z"/>
		</g>
		<g>
			<path class="st5" d="M254.6,245.9c-1.9-28-13.6-46.7-33.6-63.9c-4.7,1.8-9.8,2.8-15.2,2.8c-10.6,0-20.2-3.9-27.7-10.3
				c-4.5,5.1-9.9,9.3-16,12.4c-6.2,29-31.9,50.8-62.8,50.8c-15.2,0-29.1-5.3-40.1-14c-3.3,9-5.5,6.9-6.2,16.9l0,0l0,0h203.3l1.2,1.8
				l-0.5,3.8L254.6,245.9z"/>
			<path class="st6" d="M162.2,186.9c6.1-3.1,11.5-7.3,16-12.4c7.4,6.4,17.1,10.3,27.7,10.3c5.4,0,10.5-1,15.2-2.8
				c-17.8-15.4-41-24.7-66.4-24.7c-43.7,0-81,27.6-95.4,66.3c11,8.8,24.9,14,40.1,14C130.3,237.7,156,215.9,162.2,186.9z"/>
		</g>
	</g>
	<g id="Layer_5">
		<rect y="220" class="st7" width="800" height="30"/>
		<rect x="15" y="220" class="st1" width="99" height="6"/>
		<rect x="221" y="220" class="st1" width="99" height="6"/>
		<rect x="429" y="220" class="st1" width="99" height="6"/>
		<rect x="635" y="220" class="st1" width="99" height="6"/>
	</g>
	<g id="Layer_6">
	</g>
	<g id="Layer_8" class="st8">
		
			<linearGradient id="SVGID_1_" gradientUnits="userSpaceOnUse" x1="400" y1="-44" x2="400" y2="-294" gradientTransform="matrix(1 0 0 -1 0 -44)">
			<stop  offset="0" style="stop-color:#666666"/>
			<stop  offset="1" style="stop-color:#333333"/>
		</linearGradient>
		<rect class="st9" width="800" height="250"/>
	</g>
	<g>
		<g>
			<rect x="570.7" y="36.3" class="st1" width="33.7" height="33.7"/>
			<rect x="570.7" y="70" width="33.7" height="33.7"/>
			<rect x="604.5" y="70.1" class="st1" width="33.7" height="33.7"/>
			<rect x="604.5" y="36.3" width="33.7" height="33.7"/>
			<rect x="638.2" y="36.3" class="st1" width="33.7" height="33.7"/>
			<rect x="638.2" y="70" width="33.7" height="33.7"/>
			<rect x="672" y="70.1" class="st1" width="33.7" height="33.7"/>
			<rect x="672" y="36.3" width="33.7" height="33.7"/>
			<rect x="705.7" y="36.3" class="st1" width="33.7" height="33.7"/>
			<rect x="705.7" y="70" width="33.7" height="33.7"/>
			<rect x="739.5" y="70.1" class="st1" width="33.7" height="33.7"/>
			<rect x="739.5" y="36.3" width="33.7" height="33.7"/>
		</g>
		<g>
			<g>
				<g>
					<path class="st10" d="M620,84.1c-0.5,0-1.1,0-1.9-0.1c-0.8-0.1-1.6-0.2-2.4-0.4c-0.9-0.2-1.8-0.4-2.6-0.7
						c-0.9-0.3-1.7-0.6-2.5-1s-1.5-0.9-2-1.4c-0.6-0.7-0.9-1.4-0.9-2.3s0.3-1.7,1-2.4c0.7-0.7,1.5-1.1,2.4-1.1
						c0.6,0,1.1,0.1,1.6,0.4c0.6,0.3,1.2,0.6,1.8,0.9c0.6,0.2,1.2,0.4,1.8,0.6s1.2,0.3,1.8,0.4s1.3,0.1,2,0.1c0.4,0,1,0,1.6-0.1
						s1.1-0.2,1.6-0.3c0.5-0.2,0.8-0.4,1.2-0.7c0.1-0.1,0.3-0.3,0.3-0.8c0-0.3-0.1-0.7-0.7-1c-0.7-0.4-1.6-0.8-2.7-1.1
						c-1.1-0.4-2.4-0.7-3.7-1.1c-1.4-0.4-2.8-0.9-4-1.6c-1.3-0.7-2.3-1.6-3.2-2.7c-0.9-1.2-1.4-2.7-1.4-4.6c0-1.6,0.4-3,1.2-4.1
						c0.7-1.1,1.7-1.9,2.9-2.5c1.1-0.6,2.3-1,3.7-1.2c1.3-0.2,2.6-0.3,3.8-0.3c0.6,0,1.3,0,2.1,0.1s1.6,0.2,2.4,0.3
						c0.8,0.1,1.6,0.3,2.3,0.5c0.8,0.2,1.5,0.5,2.1,0.7c0.6,0.3,1.1,0.7,1.5,1.1c0.4,0.5,0.6,1.2,0.6,2c0,0.9-0.3,1.8-1,2.4
						s-1.5,1-2.4,1c-0.4,0-0.8-0.1-1.3-0.3c-1-0.4-2.1-0.7-3.1-0.9s-2.1-0.3-3.2-0.3c-0.4,0-0.9,0-1.5,0c-0.5,0-1.1,0.1-1.6,0.2
						c-0.4,0.1-0.8,0.3-1.1,0.5c-0.1,0.1-0.2,0.2-0.2,0.6c0,0.1,0,0.3,0.2,0.5c0.2,0.3,0.6,0.5,1,0.8c0.4,0.3,1,0.5,1.5,0.7
						c0.6,0.2,1.2,0.4,1.8,0.6s1.1,0.3,1.6,0.5c0.5,0.1,0.9,0.3,1.2,0.3c1,0.3,2,0.7,3,1.1s1.9,0.9,2.7,1.6c0.8,0.6,1.4,1.5,1.9,2.4
						c0.5,1,0.7,2.1,0.7,3.4c0,1.7-0.4,3.2-1.1,4.4c-0.7,1.1-1.7,2.1-2.9,2.8c-1.1,0.7-2.4,1.1-3.8,1.4
						C622.7,83.9,621.3,84.1,620,84.1z"/>
					<path d="M620.6,56c0.6,0,1.3,0,2.1,0.1s1.5,0.2,2.3,0.3s1.5,0.3,2.3,0.5c0.7,0.2,1.4,0.4,1.9,0.7c0.4,0.2,0.8,0.5,1.1,0.9
						s0.4,0.8,0.4,1.3c0,0.7-0.2,1.3-0.7,1.7c-0.5,0.5-1.1,0.7-1.7,0.7c-0.3,0-0.6-0.1-0.9-0.2c-1.1-0.4-2.2-0.7-3.2-0.9
						c-1.1-0.2-2.2-0.3-3.4-0.3c-0.4,0-0.9,0-1.5,0s-1.2,0.1-1.8,0.3s-1.1,0.4-1.5,0.7s-0.6,0.8-0.6,1.4c0,0.4,0.2,0.8,0.5,1.2
						s0.7,0.7,1.2,1s1.1,0.6,1.7,0.8c0.6,0.2,1.2,0.4,1.8,0.6s1.1,0.3,1.6,0.5c0.5,0.1,0.9,0.3,1.2,0.3c1,0.3,1.9,0.7,2.9,1
						c0.9,0.4,1.7,0.8,2.4,1.4s1.2,1.3,1.7,2.1c0.4,0.8,0.6,1.8,0.6,3c0,1.5-0.3,2.8-1,3.8s-1.5,1.8-2.5,2.4s-2.2,1-3.5,1.3
						c-1.3,0.2-2.6,0.4-3.9,0.4c-0.4,0-1,0-1.8-0.1c-0.7-0.1-1.5-0.2-2.3-0.4c-0.8-0.2-1.7-0.4-2.5-0.6c-0.8-0.3-1.6-0.6-2.3-0.9
						c-0.7-0.4-1.3-0.8-1.7-1.2c-0.4-0.5-0.7-1-0.7-1.6s0.2-1.2,0.7-1.7s1-0.7,1.7-0.7c0.4,0,0.8,0.1,1.1,0.3
						c0.7,0.4,1.3,0.7,1.9,0.9c0.6,0.3,1.3,0.5,1.9,0.6c0.6,0.2,1.3,0.3,1.9,0.4c0.7,0.1,1.4,0.1,2.1,0.1c0.5,0,1,0,1.7-0.1
						c0.6-0.1,1.3-0.2,1.8-0.4c0.6-0.2,1.1-0.5,1.5-0.9s0.6-0.9,0.6-1.5c0-0.8-0.4-1.4-1.2-1.9s-1.7-0.9-2.9-1.2
						c-1.1-0.4-2.4-0.7-3.8-1.1c-1.4-0.4-2.6-0.9-3.8-1.5c-1.1-0.6-2.1-1.4-2.9-2.5c-0.8-1-1.2-2.4-1.2-4c0-1.4,0.3-2.6,1-3.6
						s1.5-1.7,2.5-2.2s2.2-0.9,3.4-1.1C618.2,56.1,619.5,56,620.6,56 M620.6,54c-1.3,0-2.6,0.1-4,0.3c-1.5,0.2-2.8,0.7-4,1.3
						c-1.3,0.7-2.4,1.6-3.2,2.8c-0.9,1.3-1.3,2.9-1.3,4.7c0,2.1,0.5,3.9,1.6,5.2c0.9,1.2,2.1,2.3,3.5,3c1.3,0.7,2.7,1.3,4.2,1.7
						c1.3,0.4,2.6,0.7,3.7,1.1c1,0.3,1.8,0.6,2.4,1c0.1,0.1,0.2,0.1,0.2,0.1l0,0c0,0,0,0,0,0.1c-0.2,0.2-0.5,0.3-0.8,0.4
						c-0.4,0.1-0.9,0.2-1.4,0.3c-0.6,0.1-1.1,0.1-1.5,0.1c-0.7,0-1.3,0-1.9-0.1c-0.6-0.1-1.1-0.2-1.7-0.3c-0.5-0.1-1.1-0.3-1.6-0.6
						c-0.6-0.2-1.1-0.5-1.7-0.8c-0.7-0.4-1.4-0.6-2.1-0.6c-1.2,0-2.3,0.5-3.1,1.4s-1.3,1.9-1.3,3.1c0,1.1,0.4,2.1,1.2,2.9
						c0.6,0.6,1.4,1.2,2.2,1.6s1.7,0.8,2.6,1c0.9,0.3,1.8,0.5,2.7,0.7s1.7,0.3,2.5,0.4s1.5,0.1,2,0.1c1.4,0,2.8-0.1,4.2-0.4
						c1.5-0.3,2.9-0.8,4.1-1.5c1.3-0.8,2.4-1.8,3.2-3.1c0.9-1.3,1.3-3,1.3-4.9c0-1.5-0.3-2.8-0.8-3.9s-1.3-2-2.2-2.7
						c-0.8-0.7-1.8-1.3-2.9-1.7c-1-0.4-2-0.8-3-1.1l0,0l0,0c-0.3-0.1-0.7-0.2-1.2-0.3c-0.5-0.1-1-0.3-1.6-0.5
						c-0.5-0.2-1.1-0.4-1.7-0.6c-0.5-0.2-1-0.4-1.4-0.6c-0.2-0.1-0.4-0.3-0.6-0.4c0.1-0.1,0.3-0.1,0.5-0.2c0.4-0.1,0.9-0.2,1.3-0.2
						c0.6,0,1.1,0,1.5,0c1,0,2,0.1,3,0.3s2,0.5,3,0.8c0.6,0.2,1.1,0.3,1.6,0.3c1.2,0,2.3-0.5,3.2-1.3c0.9-0.9,1.3-1.9,1.3-3.2
						c0-1-0.3-1.9-0.9-2.6c-0.5-0.6-1.1-1.1-1.8-1.4c-0.7-0.3-1.4-0.6-2.3-0.8c-0.8-0.2-1.6-0.4-2.4-0.5c-0.8-0.2-1.7-0.3-2.5-0.3
						C622,54.1,621.3,54,620.6,54L620.6,54z"/>
				</g>
				<g>
					<path class="st10" d="M644.9,83.9c-1,0-1.9-0.4-2.6-1.1c-0.7-0.7-1-1.6-1-2.6V62.4h-6.2c-1,0-1.8-0.3-2.4-1s-1-1.5-1-2.4
						s0.3-1.8,1-2.4c0.7-0.7,1.5-1,2.4-1h19.6c0.9,0,1.8,0.3,2.4,1c0.7,0.7,1,1.5,1,2.4s-0.4,1.8-1,2.4c-0.7,0.7-1.5,1-2.4,1h-6.2
						v17.9c0,1-0.4,1.9-1.1,2.6C646.7,83.5,645.9,83.9,644.9,83.9z"/>
					<path d="M654.7,56.5c0.7,0,1.3,0.2,1.7,0.7c0.5,0.5,0.7,1.1,0.7,1.7c0,0.7-0.2,1.3-0.7,1.7c-0.5,0.5-1.1,0.7-1.7,0.7h-7.2v18.9
						c0,0.7-0.3,1.4-0.8,1.9s-1.1,0.8-1.9,0.8s-1.3-0.3-1.8-0.8s-0.7-1.1-0.7-1.9V61.4h-7.2c-0.7,0-1.3-0.2-1.7-0.7s-0.7-1-0.7-1.7
						s0.2-1.3,0.7-1.7s1-0.7,1.7-0.7L654.7,56.5 M654.7,54.5h-19.6c-1.2,0-2.3,0.5-3.2,1.3c-0.8,0.9-1.3,1.9-1.3,3.1
						c0,1.2,0.4,2.3,1.3,3.1c0.8,0.8,1.9,1.3,3.1,1.3h5.2v16.9c0,1.3,0.5,2.4,1.3,3.3c0.9,0.9,2,1.4,3.3,1.4s2.4-0.5,3.3-1.3
						c0.9-0.9,1.3-2,1.3-3.3V63.4h5.2c1.2,0,2.3-0.4,3.1-1.3c0.9-0.8,1.3-1.9,1.3-3.2c0-1.2-0.5-2.3-1.3-3.2
						C657,54.9,655.9,54.5,654.7,54.5L654.7,54.5z"/>
				</g>
				<g>
					<path class="st10" d="M680.2,83.9c-0.7,0-1.3-0.2-1.9-0.5c-0.5-0.3-1-0.8-1.2-1.4l-1.9-4.2h-10l-1.9,4.2
						c-0.3,0.6-0.7,1.1-1.3,1.5c-0.6,0.3-1.2,0.5-1.8,0.5c-1,0-1.8-0.3-2.4-1c-0.7-0.7-1-1.5-1-2.4c0-0.5,0.1-1,0.3-1.4l10-21.9
						c0.3-0.6,0.7-1.1,1.2-1.4c0.6-0.4,1.2-0.6,1.8-0.6s1.3,0.2,1.8,0.5c0.6,0.4,1,0.8,1.3,1.5l10,21.9c0.2,0.5,0.3,1,0.3,1.4
						c0,0.9-0.3,1.8-1,2.4C682,83.5,681.1,83.9,680.2,83.9z M672.3,71.3l-2.1-4.7l-2.1,4.7H672.3z"/>
					<path d="M670.1,56.1c0.5,0,0.9,0.1,1.3,0.4c0.4,0.2,0.7,0.6,0.9,1l10,21.9c0.1,0.3,0.2,0.7,0.2,1c0,0.7-0.2,1.3-0.7,1.7
						s-1,0.7-1.7,0.7c-0.5,0-0.9-0.1-1.3-0.4c-0.4-0.2-0.7-0.6-0.9-1l-2.2-4.8h-11.3l-2.2,4.8c-0.2,0.4-0.5,0.8-0.9,1
						s-0.8,0.4-1.3,0.4c-0.7,0-1.3-0.2-1.7-0.7c-0.5-0.5-0.7-1.1-0.7-1.7c0-0.3,0.1-0.7,0.2-1l10-21.9c0.2-0.4,0.5-0.8,0.9-1
						C669.2,56.3,669.6,56.1,670.1,56.1 M666.5,72.3h7.3l-3.7-8.1L666.5,72.3 M670.1,54.1c-0.9,0-1.7,0.2-2.4,0.7s-1.2,1.1-1.6,1.9
						l-10,21.8c-0.3,0.6-0.4,1.2-0.4,1.8c0,1.2,0.5,2.3,1.3,3.2c0.9,0.9,1.9,1.3,3.2,1.3c0.9,0,1.6-0.2,2.4-0.7
						c0.7-0.5,1.3-1.1,1.6-1.9l1.6-3.6h8.7l1.6,3.6c0.4,0.8,0.9,1.4,1.6,1.9c0.7,0.5,1.5,0.7,2.4,0.7c1.2,0,2.3-0.5,3.1-1.3
						s1.3-1.9,1.3-3.1c0-0.6-0.1-1.2-0.3-1.7v-0.1v-0.1l-10-21.9c-0.4-0.8-1-1.5-1.7-1.9C671.7,54.4,670.9,54.1,670.1,54.1
						L670.1,54.1z M669.6,70.3l0.6-1.3l0.6,1.3H669.6L669.6,70.3z"/>
				</g>
				<g>
					<path class="st10" d="M706.3,83.9c-0.7,0-1.3-0.2-1.8-0.5c-0.6-0.3-1-0.8-1.3-1.4c-0.1-0.2-0.3-0.5-0.5-1l-0.8-1.7
						c-0.4-0.8-0.7-1.5-1.1-2.3c-0.4-0.8-0.8-1.5-1.1-2.2c-0.3-0.6-0.6-1.2-0.8-1.6c0-0.1-0.1-0.1-0.1-0.2h-5.5v7.3
						c0,1-0.4,1.9-1.1,2.6c-0.7,0.7-1.6,1-2.5,1c-1,0-1.9-0.3-2.5-1c-0.7-0.7-1-1.5-1-2.5V59.1c0-1,0.3-1.9,1-2.5
						c0.7-0.7,1.5-1,2.5-1h9.7c1.3,0,2.7,0.1,3.9,0.4c1.3,0.3,2.4,0.8,3.4,1.5s1.8,1.7,2.4,2.8c0.6,1.1,0.9,2.5,0.9,4.1
						c0,1.7-0.4,3.3-1.2,4.6c-0.6,1.1-1.6,2-2.7,2.6c0,0.1,0.1,0.1,0.1,0.2c0.3,0.5,0.6,1.1,0.9,1.7c0.3,0.6,0.6,1.3,1,1.9
						c0.3,0.7,0.6,1.3,0.9,1.9c0.3,0.6,0.5,1.2,0.7,1.7c0.2,0.6,0.3,1,0.3,1.4c0,1-0.3,1.8-1,2.5C708.1,83.5,707.3,83.9,706.3,83.9z
						 M700.1,66.6c0.8,0,1.4-0.2,1.9-0.6c0.3-0.2,0.6-0.6,0.6-1.5c0-1-0.4-1.4-0.6-1.6c-0.5-0.4-1.1-0.6-1.9-0.6h-6.8v4.3
						C693.3,66.6,700.1,66.6,700.1,66.6z"/>
					<path d="M699.4,56.5c1.3,0,2.5,0.1,3.7,0.4c1.2,0.3,2.2,0.7,3,1.4c0.9,0.6,1.5,1.4,2.1,2.4s0.8,2.2,0.8,3.6
						c0,1.5-0.4,2.9-1.1,4.1c-0.7,1.2-1.8,2.1-3.2,2.7c0.1,0.3,0.3,0.6,0.6,1.1s0.5,1,0.9,1.7c0.3,0.6,0.6,1.3,1,1.9
						s0.6,1.3,0.9,1.9c0.3,0.6,0.5,1.1,0.7,1.6s0.3,0.8,0.3,1c0,0.7-0.2,1.3-0.7,1.8s-1.1,0.7-1.8,0.7c-0.5,0-0.9-0.1-1.3-0.4
						c-0.4-0.2-0.7-0.6-0.9-1c-0.1-0.1-0.2-0.5-0.5-1s-0.5-1.1-0.9-1.8c-0.3-0.7-0.7-1.4-1.1-2.2c-0.4-0.8-0.7-1.5-1.1-2.1
						c-0.3-0.7-0.6-1.2-0.8-1.6s-0.3-0.7-0.3-0.7h-7.2v8.3c0,0.7-0.3,1.3-0.8,1.8s-1.1,0.7-1.8,0.7s-1.3-0.2-1.8-0.7
						s-0.7-1.1-0.7-1.8V59.1c0-0.7,0.2-1.3,0.7-1.8s1.1-0.7,1.8-0.7L699.4,56.5 M692.3,67.6h7.8c1,0,1.8-0.3,2.5-0.8
						s1.1-1.3,1.1-2.3s-0.3-1.8-1-2.4c-0.7-0.5-1.5-0.8-2.5-0.8h-7.8L692.3,67.6 M699.4,54.5h-9.7c-1.3,0-2.4,0.5-3.3,1.3
						c-0.9,0.9-1.3,2-1.3,3.3v21.2c0,1.3,0.5,2.4,1.3,3.3c0.9,0.9,2,1.3,3.3,1.3c1.2,0,2.3-0.4,3.2-1.3s1.4-2,1.4-3.3V74h3.9
						c0.2,0.4,0.4,0.8,0.6,1.2c0.3,0.7,0.7,1.4,1.1,2.2c0.4,0.8,0.7,1.5,1.1,2.2v0.1l0.8,1.7c0.3,0.6,0.4,0.9,0.5,1
						c0.4,0.8,0.9,1.4,1.6,1.8c0.7,0.4,1.5,0.7,2.4,0.7c1.2,0,2.3-0.5,3.2-1.3c0.9-0.9,1.3-2,1.3-3.2c0-0.5-0.1-1-0.4-1.7
						c-0.2-0.5-0.4-1.1-0.7-1.7s-0.6-1.3-0.9-1.9c-0.3-0.7-0.7-1.3-1-2c-0.2-0.4-0.4-0.8-0.6-1.1c0.9-0.7,1.7-1.5,2.3-2.5
						c0.9-1.5,1.3-3.2,1.3-5.1c0-1.7-0.3-3.3-1-4.6s-1.5-2.3-2.7-3.1c-1.1-0.8-2.3-1.3-3.7-1.7C702.2,54.7,700.8,54.5,699.4,54.5
						L699.4,54.5z M694.3,63.3h5.8c0.7,0,1.1,0.2,1.3,0.4c0.1,0.1,0.3,0.2,0.3,0.8c0,0.5-0.2,0.7-0.2,0.7c-0.4,0.3-0.8,0.4-1.3,0.4
						h-5.8L694.3,63.3L694.3,63.3z"/>
				</g>
				<g>
					<path class="st10" d="M723.8,83.9c-1,0-1.9-0.4-2.6-1.1c-0.7-0.7-1-1.6-1-2.6V62.4H714c-1,0-1.8-0.3-2.4-1s-1-1.5-1-2.4
						s0.3-1.8,1-2.4c0.7-0.7,1.5-1,2.4-1h19.6c1,0,1.8,0.3,2.4,1c0.7,0.7,1,1.5,1,2.4s-0.4,1.8-1,2.4c-0.7,0.7-1.5,1-2.4,1h-6.2
						v17.9c0,1-0.4,1.9-1.1,2.6C725.7,83.5,724.8,83.9,723.8,83.9z"/>
					<path d="M733.6,56.5c0.7,0,1.3,0.2,1.7,0.7c0.5,0.5,0.7,1.1,0.7,1.7c0,0.7-0.2,1.3-0.7,1.7c-0.5,0.5-1.1,0.7-1.7,0.7h-7.2v18.9
						c0,0.7-0.3,1.4-0.8,1.9s-1.1,0.8-1.9,0.8s-1.3-0.3-1.8-0.8s-0.7-1.1-0.7-1.9V61.4H714c-0.7,0-1.3-0.2-1.7-0.7s-0.7-1-0.7-1.7
						s0.2-1.3,0.7-1.7s1-0.7,1.7-0.7L733.6,56.5 M733.6,54.5H714c-1.2,0-2.3,0.5-3.2,1.3c-0.8,0.9-1.3,1.9-1.3,3.1
						c0,1.2,0.4,2.3,1.3,3.1c0.8,0.8,1.9,1.3,3.1,1.3h5.2v16.9c0,1.3,0.5,2.4,1.3,3.3c0.9,0.9,2,1.4,3.3,1.4s2.4-0.5,3.3-1.3
						c0.9-0.9,1.3-2,1.3-3.3V63.4h5.2c1.2,0,2.3-0.4,3.1-1.3c0.9-0.8,1.3-1.9,1.3-3.2c0-1.2-0.5-2.3-1.3-3.2
						C735.9,54.9,734.8,54.5,733.6,54.5L733.6,54.5z"/>
				</g>
			</g>
		</g>
		<path class="st2" d="M778.4,231.1L778.4,231.1c-2.9,0-5.2-2.3-5.2-5.2V31.3c0-2.9,2.3-5.2,5.2-5.2l0,0c2.9,0,5.2,2.3,5.2,5.2
			v194.6C783.6,228.8,781.2,231.1,778.4,231.1z"/>
	</g>
</g>
<g id="Premium_Rally">
	<g>
		<path class="st11" d="M468.8,197.1h-16.6c-0.9,0-1.6-0.7-1.6-1.6v-2.9c0-0.9,0.7-1.6,1.6-1.6h16.6c0.9,0,1.6,0.7,1.6,1.6v2.9
			C470.5,196.4,469.7,197.1,468.8,197.1z"/>
	</g>
	<g>
		<path class="st12" d="M456.8,194.2v-14.8c0-1,0.3-1.9,0.8-2.7l6-8.9c0.5-0.8,0.8-1.7,0.8-2.7l0,0c0-2.7,2.2-4.9,4.9-4.9h21
			c0.8,0,1.6-0.2,2.3-0.6L512,149c0.7-0.4,1.5-0.6,2.3-0.6h53.5c0.8,0,1.5,0.2,2.2,0.5l30.5,15.7c0.6,0.3,1.3,0.5,2,0.5l25.5,1.4
			c0.6,0,1.1,0.2,1.7,0.4l22.9,10c0.5,0.2,0.9,0.5,1.3,0.8l11.5,10.2c1,0.9,1.6,2.2,1.6,3.6v3.8c0,1.4-0.6,2.7-1.6,3.6l-3.1,2.9
			c-0.9,0.8-2.1,1.3-3.3,1.3H504.2c-0.2,0-0.3,0-0.5,0l-42.6-4.1C458.7,198.8,456.8,196.7,456.8,194.2z"/>
	</g>
	<g>
		<path class="st13" d="M665.3,186.5l-11.5-10.2c-0.4-0.3-0.8-0.6-1.3-0.8l-22.9-10c-0.5-0.2-1.1-0.4-1.7-0.4l-25.5-1.4
			c-0.7,0-1.3-0.2-2-0.5L570,147.4c-0.7-0.4-1.5-0.5-2.2-0.5h-53.5c-0.8,0-1.6,0.2-2.3,0.6l-19.4,10.7c-0.7,0.4-1.5,0.6-2.3,0.6h-21
			c-2.7,0-4.9,2.2-4.9,4.9c0,1-0.3,1.9-0.8,2.7l-6,8.9c-0.5,0.8-0.8,1.7-0.8,2.7v14.8c0,2.5,1.9,4.6,4.4,4.8l26.2,2.5
			c0.8-11.1,10.1-19.8,21.4-19.8c11.8,0,21.5,9.6,21.5,21.5h66.5c0-11.8,9.6-21.5,21.5-21.5c11.8,0,21.5,9.6,21.5,21.5h19.4
			c1.2,0,2.4-0.5,3.3-1.3l3.1-2.9c1-0.9,1.6-2.2,1.6-3.6v-3.8C666.9,188.7,666.3,187.4,665.3,186.5z"/>
	</g>
	<g>
		<g>
			<defs>
				<path id="SVGID_2_" d="M537.4,150.6l-1.4,13.6c0,0.5,0.3,0.9,0.8,0.9h55.8c0.8,0,1.1-1.1,0.4-1.5l-25-13.6
					c-0.1-0.1-0.3-0.1-0.4-0.1h-29.5C537.8,149.9,537.4,150.2,537.4,150.6z"/>
			</defs>
			<clipPath id="SVGID_3_">
				<use xlink:href="#SVGID_2_"  style="overflow:visible;"/>
			</clipPath>
			<path class="st14" d="M593.5,149.9c-19.2,0-38.4,0-57.5,0v15.2c19.3,0,38.6,0,57.9,0v-15.2H593.5z"/>
		</g>
	</g>
	<g>
		<path class="st15" d="M460.9,175.8H458c-0.5,0-0.9-0.6-0.6-1.1l5.3-9.2c0.1-0.2,0.4-0.4,0.6-0.4h2.9c0.5,0,0.9,0.6,0.6,1.1
			l-5.3,9.2C461.4,175.6,461.2,175.8,460.9,175.8z"/>
	</g>
	<g>
		<g>
			<defs>
				<path id="SVGID_4_" d="M535.1,151.8l-1.7,11.9c-0.1,0.8-0.8,1.4-1.6,1.4h-10c-0.4,0-0.7-0.1-1-0.3l-8-5.9
					c-0.9-0.7-0.9-2.1,0.1-2.7l9-6c0.3-0.2,0.6-0.3,0.9-0.3h10.6C534.5,149.9,535.3,150.8,535.1,151.8z"/>
			</defs>
			<clipPath id="SVGID_5_">
				<use xlink:href="#SVGID_4_"  style="overflow:visible;"/>
			</clipPath>
			<path class="st16" d="M535.1,149.9c-7.7,0-15.5,0-23.2,0v15.2c7.8,0,15.6,0,23.4,0v-15.2H535.1z"/>
		</g>
	</g>
	<g>
		<path class="st17" d="M484.6,203.2l-25.8-2.4c-2.1-0.2-3.6-2-3.4-4.1v0c0.2-2.1,2-3.6,4.1-3.4l25.8,2.4c2.1,0.2,3.6,2,3.4,4.1v0
			C488.6,201.8,486.7,203.4,484.6,203.2z"/>
	</g>
	<g class="st18">
		<path class="st1" d="M543.2,190.5c-1.2,4.4-5.4,7.3-9.9,7.3c-3,0-5.6-1.4-6.4-4.5l4.9-1.9c0.5,1,1.3,1.5,2.4,1.5
			c1.4,0,2.9-0.8,3.4-2.5c0.4-1.6-0.6-2.4-2.2-2.4c-1.3,0-3,0.5-4,1.3l-2.1-1.3l4.5-10.7h11.1l-1.3,4.8h-7.3l-0.9,2.2
			c0.8-0.4,1.9-0.6,2.9-0.6C542.3,183.6,544.2,186.6,543.2,190.5z"/>
		<path class="st1" d="M546.3,185.4H557l-1.2,4.4h-10.7L546.3,185.4z"/>
		<path class="st1" d="M575.5,177.2l-0.2,0.9l-12.9,19.4h-5.6l10-15.4h-7.4l1.3-5H575.5z"/>
		<path class="st1" d="M572.6,185.4h10.7l-1.2,4.4h-10.7L572.6,185.4z"/>
		<path class="st1" d="M599.3,190.5c-1.2,4.4-5.4,7.3-9.9,7.3c-3,0-5.6-1.4-6.4-4.5l4.9-1.9c0.5,1,1.3,1.5,2.4,1.5
			c1.4,0,2.9-0.8,3.4-2.5c0.4-1.6-0.6-2.4-2.2-2.4c-1.3,0-3,0.5-4,1.3l-2.1-1.3l4.5-10.7H601l-1.3,4.8h-7.3l-0.9,2.2
			c0.8-0.4,1.9-0.6,2.9-0.6C598.4,183.6,600.3,186.6,599.3,190.5z"/>
	</g>
	<g id="Layer_2_2_">
		<g id="Layer_22">
			<g>
				<g>
					<path d="M480.2,177.2L480.2,177.2L480.2,177.2C480.2,177.2,480.2,177.2,480.2,177.2z"/>
					<path class="st19" d="M493.4,171.2L493.4,171.2c1-1,1-2.6,0-3.6l-3.2-3.2c-1-1-2.6-1-3.6,0l-2.5,2.5l0,0
						c-0.2,0.2-0.2,0.7,0,0.9l5.9,5.9l0,0c0.2,0.2,0.7,0.2,0.9,0L493.4,171.2z"/>
				</g>
				<g>
					<path class="st20" d="M468.1,182.8l-1.2,6.7c0,0.1,0,0.3,0,0.5c0.1,0.7,0.8,1.2,1.5,1.1l6.7-1.2l14.4-14.4l0,0
						c0.3-0.2,0.3-0.7,0-0.9l-6.1-6.1c-0.3-0.3-0.7-0.3-0.9,0L468.1,182.8z M473.7,181.6L473.7,181.6c-0.3-0.3-0.3-0.8,0-1.1
						l8.5-8.5c0.3-0.3,0.8-0.3,1.1,0c0.3,0.3,0.3,0.8,0,1.1l-8.5,8.5l0,0C474.5,181.9,474,181.9,473.7,181.6L473.7,181.6z
						 M471.7,186.2h2.6v2l-3.5,0.6l-1.7-1.7l0.6-3.5h2V186.2z"/>
				</g>
				<path class="st21" d="M466.9,189.6c0,0.1,0,0.3,0,0.4c0.1,0.7,0.8,1.2,1.5,1.1l3.7-0.7l-4.6-4.6L466.9,189.6z"/>
			</g>
		</g>
	</g>
	<g>
		<path class="st17" d="M594.6,204.7H532c-2.1,0-3.8-1.7-3.8-3.8v0c0-2.1,1.7-3.8,3.8-3.8h62.6c2.1,0,3.8,1.7,3.8,3.8v0
			C598.4,203,596.7,204.7,594.6,204.7z"/>
	</g>
	<g>
		<path class="st17" d="M666.4,203.7l-24.5,1.8c-2.1,0.2-3.9-1.4-4.1-3.5v0c-0.2-2.1,1.4-3.9,3.5-4.1l24.5-1.8
			c2.1-0.2,3.9,1.4,4.1,3.5v0C670.1,201.7,668.5,203.6,666.4,203.7z"/>
	</g>
	<g class="st22">
		<path d="M638.2,174.2H472.5c-0.9,0-1.5-1-1.1-1.8l1.8-3.6c0.2-0.4,0.6-0.7,1.1-0.7h155.8c0.2,0,0.3,0,0.5,0.1l8.1,3.6
			C640,172.4,639.6,174.2,638.2,174.2z"/>
	</g>
	<g class="st22">
		<path d="M471.1,162.1h40.2c0.2,0,0.4,0.1,0.5,0.2l3.7,2.8c0.7,0.5,0.3,1.6-0.5,1.6h-44.8c-0.6,0-1.1-0.6-0.9-1.2l0.9-2.8
			C470.4,162.3,470.7,162.1,471.1,162.1z"/>
	</g>
	<g class="st22">
		<path d="M520.6,149.4l-18,11.1c-0.1,0.1-0.2,0.1-0.3,0.1h-8.5c-0.6,0-0.8-0.7-0.3-1l19.4-11.1c0.1,0,0.2-0.1,0.3-0.1h7.1
			C520.9,148.3,521.1,149.1,520.6,149.4z"/>
	</g>
	<g>
		<path class="st1" d="M660.1,191h-16.8c-1.3,0-2.3-1-2.3-2.3l0,0c0-1.3,1-2.3,2.3-2.3h16.8c1.3,0,2.3,1,2.3,2.3l0,0
			C662.3,190,661.3,191,660.1,191z"/>
	</g>
	<g>
		<g>
			<ellipse class="st23" cx="508.1" cy="202.3" rx="19" ry="18.9"/>
		</g>
		<g>
			<ellipse class="st17" cx="508.1" cy="202.3" rx="18.5" ry="18.4"/>
		</g>
		<g>
			<ellipse cx="508.1" cy="202.3" rx="13.9" ry="13.9"/>
		</g>
		<g>
			<ellipse class="st1" cx="508.1" cy="202.3" rx="13.3" ry="13.2"/>
		</g>
		<g>
			<ellipse class="st24" cx="508.1" cy="202.3" rx="12.6" ry="12.5"/>
		</g>
		<g>
			<ellipse class="st25" cx="508.1" cy="202.3" rx="7.8" ry="7.8"/>
		</g>
		<g>
			<ellipse class="st11" cx="508.1" cy="202.3" rx="7.1" ry="7.1"/>
		</g>
	</g>
	<g>
		<g>
			<ellipse class="st23" cx="617.8" cy="203.5" rx="19.4" ry="19.3"/>
		</g>
		<g>
			<ellipse class="st17" cx="617.8" cy="203.5" rx="18.9" ry="18.7"/>
		</g>
		<g>
			<ellipse cx="617.8" cy="203.5" rx="14.2" ry="14.1"/>
		</g>
		<g>
			<ellipse class="st1" cx="617.8" cy="203.5" rx="13.5" ry="13.4"/>
		</g>
		<g>
			<ellipse class="st24" cx="617.8" cy="203.5" rx="12.8" ry="12.7"/>
		</g>
		<g>
			<ellipse class="st25" cx="617.8" cy="203.5" rx="8" ry="7.9"/>
		</g>
		<g>
			<ellipse class="st11" cx="617.8" cy="203.5" rx="7.3" ry="7.2"/>
		</g>
	</g>
</g>
</svg>
