<?xml version="1.0" encoding="utf-8"?>
<!-- Generator: Adobe Illustrator 25.0.1, SVG Export Plug-In . SVG Version: 6.00 Build 0)  -->
<svg version="1.1" id="Layer_1" xmlns="http://www.w3.org/2000/svg" xmlns:xlink="http://www.w3.org/1999/xlink" x="0px" y="0px"
	 viewBox="0 0 800 250" style="enable-background:new 0 0 800 250;" xml:space="preserve">
<style type="text/css">
	.st0{fill:#222222;}
	.st1{opacity:0.8;fill:#FFFFFF;enable-background:new    ;}
	.st2{fill:#1C1C1C;}
	.st3{fill:#FFFFFF;}
	.st4{fill:#444444;}
	.st5{fill:#FF0000;}
	.st6{fill:#3B3B3B;}
	.st7{fill:url(#SVGID_1_);}
	.st8{fill:#ACAFBC;}
	.st9{fill:#003E60;}
	.st10{fill:#0061C3;}
	.st11{clip-path:url(#SVGID_3_);fill:#AAFFF9;}
	.st12{fill:#ED1414;}
	.st13{clip-path:url(#SVGID_5_);fill:#AAFFF9;}
	.st14{fill:#474757;}
	.st15{opacity:0.8;}
	.st16{fill:#BA4424;}
	.st17{fill:#D8950F;}
	.st18{fill:#282828;}
	.st19{opacity:0.2;}
	.st20{fill:#32323F;}
	.st21{fill:#DDDDDD;}
	.st22{fill:#BAC0D8;}
	.st23{opacity:0.47;fill:url(#SVGID_6_);enable-background:new    ;}
</style>
<g id="Layer_1_1_">
	<rect class="st0" width="800" height="250"/>
</g>
<g id="Layer_7">
	<circle class="st1" cx="579.5" cy="72.5" r="3.5"/>
	<circle class="st1" cx="694.5" cy="30.5" r="3.5"/>
	<circle class="st1" cx="464.5" cy="34.5" r="3.5"/>
	<circle class="st1" cx="727.5" cy="125.5" r="3.5"/>
	<circle class="st1" cx="486.5" cy="130.5" r="3.5"/>
	<circle class="st1" cx="201.5" cy="20.5" r="3.5"/>
	<circle class="st1" cx="83.5" cy="34.5" r="3.5"/>
	<circle class="st1" cx="29.5" cy="98.5" r="3.5"/>
	<g>
		<g>
			<path class="st2" d="M306,155.5c-6.4,8.9-15.2,16.4-25.9,21.3c-21.5,9.8-45.4,7-63.6-5.3c-8.4,13.6-13.7,29.4-14.8,46.3h-0.2v28
				h203.3v-28h-0.2c-1.4-20.6-8.9-39.5-20.7-54.9c-2.4,1.5-4.9,2.8-7.5,4C352,178,324.4,172.6,306,155.5z"/>
			<path class="st3" d="M303.1,123c-36.6,0-68.7,19.4-86.6,48.5c18.2,12.3,42.2,15.1,63.6,5.3c10.7-4.9,19.5-12.3,25.9-21.3
				c18.4,17.1,46,22.5,70.3,11.4c2.6-1.2,5.1-2.5,7.5-4C365.2,138.6,336,123,303.1,123z"/>
		</g>
		<g>
			<path class="st4" d="M256.1,252.1c-1.9-28-15.1-52.9-35.1-70.1c-4.7,1.8-9.8,2.8-15.2,2.8c-10.6,0-20.2-3.9-27.7-10.3
				c-4.5,5.1-9.9,9.3-16,12.4c-6.2,29-31.9,50.8-62.8,50.8c-15.2,0-29.1-5.3-40.1-14c-3.3,9-5.4,18.5-6.1,28.5H53V250h203.3v2.1
				H256.1z"/>
			<path class="st3" d="M162.2,186.9c6.1-3.1,11.5-7.3,16-12.4c7.4,6.4,17.1,10.3,27.7,10.3c5.4,0,10.5-1,15.2-2.8
				c-17.8-15.4-41-24.7-66.4-24.7c-43.7,0-81,27.6-95.4,66.3c11,8.8,24.9,14,40.1,14C130.3,237.7,156,215.9,162.2,186.9z"/>
		</g>
	</g>
	<path class="st4" d="M565.5,231.1L565.5,231.1c-2.9,0-5.2-2.3-5.2-5.2V31.3c0-2.9,2.3-5.2,5.2-5.2l0,0c2.9,0,5.2,2.3,5.2,5.2v194.6
		C570.7,228.8,568.4,231.1,565.5,231.1z"/>
	<g>
		<g>
			<rect x="570.7" y="36.3" class="st3" width="33.7" height="33.7"/>
			<rect x="570.7" y="70" width="33.7" height="33.7"/>
			<rect x="604.5" y="70.1" class="st3" width="33.7" height="33.7"/>
			<rect x="604.5" y="36.3" width="33.7" height="33.7"/>
			<rect x="638.2" y="36.3" class="st3" width="33.7" height="33.7"/>
			<rect x="638.2" y="70" width="33.7" height="33.7"/>
			<rect x="672" y="70.1" class="st3" width="33.7" height="33.7"/>
			<rect x="672" y="36.3" width="33.7" height="33.7"/>
			<rect x="705.7" y="36.3" class="st3" width="33.7" height="33.7"/>
			<rect x="705.7" y="70" width="33.7" height="33.7"/>
			<rect x="739.5" y="70.1" class="st3" width="33.7" height="33.7"/>
			<rect x="739.5" y="36.3" width="33.7" height="33.7"/>
		</g>
		<g>
			<g>
				<g>
					<path class="st5" d="M620,84.1c-0.5,0-1.1,0-1.9-0.1c-0.8-0.1-1.6-0.2-2.4-0.4c-0.9-0.2-1.8-0.4-2.6-0.7
						c-0.9-0.3-1.7-0.6-2.5-1s-1.5-0.9-2-1.4c-0.6-0.7-0.9-1.4-0.9-2.3s0.3-1.7,1-2.4c0.7-0.7,1.5-1.1,2.4-1.1
						c0.6,0,1.1,0.1,1.6,0.4c0.6,0.3,1.2,0.6,1.8,0.9c0.6,0.2,1.2,0.4,1.8,0.6s1.2,0.3,1.8,0.4s1.3,0.1,2,0.1c0.4,0,1,0,1.6-0.1
						s1.1-0.2,1.6-0.3c0.5-0.2,0.8-0.4,1.2-0.7c0.1-0.1,0.3-0.3,0.3-0.8c0-0.3-0.1-0.7-0.7-1c-0.7-0.4-1.6-0.8-2.7-1.1
						c-1.1-0.4-2.4-0.7-3.7-1.1c-1.4-0.4-2.8-0.9-4-1.6c-1.3-0.7-2.3-1.6-3.2-2.7c-0.9-1.2-1.4-2.7-1.4-4.6c0-1.6,0.4-3,1.2-4.1
						c0.7-1.1,1.7-1.9,2.9-2.5c1.1-0.6,2.3-1,3.7-1.2c1.3-0.2,2.6-0.3,3.8-0.3c0.6,0,1.3,0,2.1,0.1s1.6,0.2,2.4,0.3
						c0.8,0.1,1.6,0.3,2.3,0.5c0.8,0.2,1.5,0.5,2.1,0.7c0.6,0.3,1.1,0.7,1.5,1.1c0.4,0.5,0.6,1.2,0.6,2c0,0.9-0.3,1.8-1,2.4
						s-1.5,1-2.4,1c-0.4,0-0.8-0.1-1.3-0.3c-1-0.4-2.1-0.7-3.1-0.9s-2.1-0.3-3.2-0.3c-0.4,0-0.9,0-1.5,0c-0.5,0-1.1,0.1-1.6,0.2
						c-0.4,0.1-0.8,0.3-1.1,0.5c-0.1,0.1-0.2,0.2-0.2,0.6c0,0.1,0,0.3,0.2,0.5c0.2,0.3,0.6,0.5,1,0.8c0.4,0.3,1,0.5,1.5,0.7
						c0.6,0.2,1.2,0.4,1.8,0.6s1.1,0.3,1.6,0.5c0.5,0.1,0.9,0.3,1.2,0.3c1,0.3,2,0.7,3,1.1s1.9,0.9,2.7,1.6c0.8,0.6,1.4,1.5,1.9,2.4
						c0.5,1,0.7,2.1,0.7,3.4c0,1.7-0.4,3.2-1.1,4.4c-0.7,1.1-1.7,2.1-2.9,2.8c-1.1,0.7-2.4,1.1-3.8,1.4
						C622.7,83.9,621.3,84.1,620,84.1z"/>
					<path d="M620.6,56c0.6,0,1.3,0,2.1,0.1s1.5,0.2,2.3,0.3s1.5,0.3,2.3,0.5c0.7,0.2,1.4,0.4,1.9,0.7c0.4,0.2,0.8,0.5,1.1,0.9
						s0.4,0.8,0.4,1.3c0,0.7-0.2,1.3-0.7,1.7c-0.5,0.5-1.1,0.7-1.7,0.7c-0.3,0-0.6-0.1-0.9-0.2c-1.1-0.4-2.2-0.7-3.2-0.9
						c-1.1-0.2-2.2-0.3-3.4-0.3c-0.4,0-0.9,0-1.5,0s-1.2,0.1-1.8,0.3s-1.1,0.4-1.5,0.7s-0.6,0.8-0.6,1.4c0,0.4,0.2,0.8,0.5,1.2
						s0.7,0.7,1.2,1s1.1,0.6,1.7,0.8c0.6,0.2,1.2,0.4,1.8,0.6s1.1,0.3,1.6,0.5c0.5,0.1,0.9,0.3,1.2,0.3c1,0.3,1.9,0.7,2.9,1
						c0.9,0.4,1.7,0.8,2.4,1.4s1.2,1.3,1.7,2.1c0.4,0.8,0.6,1.8,0.6,3c0,1.5-0.3,2.8-1,3.8s-1.5,1.8-2.5,2.4s-2.2,1-3.5,1.3
						c-1.3,0.2-2.6,0.4-3.9,0.4c-0.4,0-1,0-1.8-0.1c-0.7-0.1-1.5-0.2-2.3-0.4c-0.8-0.2-1.7-0.4-2.5-0.6c-0.8-0.3-1.6-0.6-2.3-0.9
						c-0.7-0.4-1.3-0.8-1.7-1.2c-0.4-0.5-0.7-1-0.7-1.6s0.2-1.2,0.7-1.7s1-0.7,1.7-0.7c0.4,0,0.8,0.1,1.1,0.3
						c0.7,0.4,1.3,0.7,1.9,0.9c0.6,0.3,1.3,0.5,1.9,0.6c0.6,0.2,1.3,0.3,1.9,0.4c0.7,0.1,1.4,0.1,2.1,0.1c0.5,0,1,0,1.7-0.1
						c0.6-0.1,1.3-0.2,1.8-0.4c0.6-0.2,1.1-0.5,1.5-0.9s0.6-0.9,0.6-1.5c0-0.8-0.4-1.4-1.2-1.9s-1.7-0.9-2.9-1.2
						c-1.1-0.4-2.4-0.7-3.8-1.1c-1.4-0.4-2.6-0.9-3.8-1.5c-1.1-0.6-2.1-1.4-2.9-2.5c-0.8-1-1.2-2.4-1.2-4c0-1.4,0.3-2.6,1-3.6
						s1.5-1.7,2.5-2.2s2.2-0.9,3.4-1.1C618.2,56.1,619.5,56,620.6,56 M620.6,54c-1.3,0-2.6,0.1-4,0.3c-1.5,0.2-2.8,0.7-4,1.3
						c-1.3,0.7-2.4,1.6-3.2,2.8c-0.9,1.3-1.3,2.9-1.3,4.7c0,2.1,0.5,3.9,1.6,5.2c0.9,1.2,2.1,2.3,3.5,3c1.3,0.7,2.7,1.3,4.2,1.7
						c1.3,0.4,2.6,0.7,3.7,1.1c1,0.3,1.8,0.6,2.4,1c0.1,0.1,0.2,0.1,0.2,0.1l0,0c0,0,0,0,0,0.1c-0.2,0.2-0.5,0.3-0.8,0.4
						c-0.4,0.1-0.9,0.2-1.4,0.3c-0.6,0.1-1.1,0.1-1.5,0.1c-0.7,0-1.3,0-1.9-0.1c-0.6-0.1-1.1-0.2-1.7-0.3c-0.5-0.1-1.1-0.3-1.6-0.6
						c-0.6-0.2-1.1-0.5-1.7-0.8c-0.7-0.4-1.4-0.6-2.1-0.6c-1.2,0-2.3,0.5-3.1,1.4s-1.3,1.9-1.3,3.1c0,1.1,0.4,2.1,1.2,2.9
						c0.6,0.6,1.4,1.2,2.2,1.6s1.7,0.8,2.6,1c0.9,0.3,1.8,0.5,2.7,0.7s1.7,0.3,2.5,0.4s1.5,0.1,2,0.1c1.4,0,2.8-0.1,4.2-0.4
						c1.5-0.3,2.9-0.8,4.1-1.5c1.3-0.8,2.4-1.8,3.2-3.1c0.9-1.3,1.3-3,1.3-4.9c0-1.5-0.3-2.8-0.8-3.9s-1.3-2-2.2-2.7
						c-0.8-0.7-1.8-1.3-2.9-1.7c-1-0.4-2-0.8-3-1.1l0,0l0,0c-0.3-0.1-0.7-0.2-1.2-0.3c-0.5-0.1-1-0.3-1.6-0.5
						c-0.5-0.2-1.1-0.4-1.7-0.6c-0.5-0.2-1-0.4-1.4-0.6c-0.2-0.1-0.4-0.3-0.6-0.4c0.1-0.1,0.3-0.1,0.5-0.2c0.4-0.1,0.9-0.2,1.3-0.2
						c0.6,0,1.1,0,1.5,0c1,0,2,0.1,3,0.3s2,0.5,3,0.8c0.6,0.2,1.1,0.3,1.6,0.3c1.2,0,2.3-0.5,3.2-1.3c0.9-0.9,1.3-1.9,1.3-3.2
						c0-1-0.3-1.9-0.9-2.6c-0.5-0.6-1.1-1.1-1.8-1.4c-0.7-0.3-1.4-0.6-2.3-0.8c-0.8-0.2-1.6-0.4-2.4-0.5c-0.8-0.2-1.7-0.3-2.5-0.3
						C622,54.1,621.3,54,620.6,54L620.6,54z"/>
				</g>
				<g>
					<path class="st5" d="M644.9,83.9c-1,0-1.9-0.4-2.6-1.1c-0.7-0.7-1-1.6-1-2.6V62.4h-6.2c-1,0-1.8-0.3-2.4-1s-1-1.5-1-2.4
						s0.3-1.8,1-2.4c0.7-0.7,1.5-1,2.4-1h19.6c0.9,0,1.8,0.3,2.4,1c0.7,0.7,1,1.5,1,2.4s-0.4,1.8-1,2.4c-0.7,0.7-1.5,1-2.4,1h-6.2
						v17.9c0,1-0.4,1.9-1.1,2.6C646.7,83.5,645.9,83.9,644.9,83.9z"/>
					<path d="M654.7,56.5c0.7,0,1.3,0.2,1.7,0.7c0.5,0.5,0.7,1.1,0.7,1.7c0,0.7-0.2,1.3-0.7,1.7c-0.5,0.5-1.1,0.7-1.7,0.7h-7.2v18.9
						c0,0.7-0.3,1.4-0.8,1.9s-1.1,0.8-1.9,0.8s-1.3-0.3-1.8-0.8s-0.7-1.1-0.7-1.9V61.4h-7.2c-0.7,0-1.3-0.2-1.7-0.7s-0.7-1-0.7-1.7
						s0.2-1.3,0.7-1.7s1-0.7,1.7-0.7L654.7,56.5 M654.7,54.5h-19.6c-1.2,0-2.3,0.5-3.2,1.3c-0.8,0.9-1.3,1.9-1.3,3.1
						c0,1.2,0.4,2.3,1.3,3.1c0.8,0.8,1.9,1.3,3.1,1.3h5.2v16.9c0,1.3,0.5,2.4,1.3,3.3c0.9,0.9,2,1.4,3.3,1.4s2.4-0.5,3.3-1.3
						c0.9-0.9,1.3-2,1.3-3.3V63.4h5.2c1.2,0,2.3-0.4,3.1-1.3c0.9-0.8,1.3-1.9,1.3-3.2c0-1.2-0.5-2.3-1.3-3.2
						C657,54.9,655.9,54.5,654.7,54.5L654.7,54.5z"/>
				</g>
				<g>
					<path class="st5" d="M680.2,83.9c-0.7,0-1.3-0.2-1.9-0.5c-0.5-0.3-1-0.8-1.2-1.4l-1.9-4.2h-10l-1.9,4.2
						c-0.3,0.6-0.7,1.1-1.3,1.5c-0.6,0.3-1.2,0.5-1.8,0.5c-1,0-1.8-0.3-2.4-1c-0.7-0.7-1-1.5-1-2.4c0-0.5,0.1-1,0.3-1.4l10-21.9
						c0.3-0.6,0.7-1.1,1.2-1.4c0.6-0.4,1.2-0.6,1.8-0.6s1.3,0.2,1.8,0.5c0.6,0.4,1,0.8,1.3,1.5l10,21.9c0.2,0.5,0.3,1,0.3,1.4
						c0,0.9-0.3,1.8-1,2.4C682,83.5,681.1,83.9,680.2,83.9z M672.3,71.3l-2.1-4.7l-2.1,4.7H672.3z"/>
					<path d="M670.1,56.1c0.5,0,0.9,0.1,1.3,0.4c0.4,0.2,0.7,0.6,0.9,1l10,21.9c0.1,0.3,0.2,0.7,0.2,1c0,0.7-0.2,1.3-0.7,1.7
						s-1,0.7-1.7,0.7c-0.5,0-0.9-0.1-1.3-0.4c-0.4-0.2-0.7-0.6-0.9-1l-2.2-4.8h-11.3l-2.2,4.8c-0.2,0.4-0.5,0.8-0.9,1
						s-0.8,0.4-1.3,0.4c-0.7,0-1.3-0.2-1.7-0.7c-0.5-0.5-0.7-1.1-0.7-1.7c0-0.3,0.1-0.7,0.2-1l10-21.9c0.2-0.4,0.5-0.8,0.9-1
						C669.2,56.3,669.6,56.1,670.1,56.1 M666.5,72.3h7.3l-3.7-8.1L666.5,72.3 M670.1,54.1c-0.9,0-1.7,0.2-2.4,0.7s-1.2,1.1-1.6,1.9
						l-10,21.8c-0.3,0.6-0.4,1.2-0.4,1.8c0,1.2,0.5,2.3,1.3,3.2c0.9,0.9,1.9,1.3,3.2,1.3c0.9,0,1.6-0.2,2.4-0.7
						c0.7-0.5,1.3-1.1,1.6-1.9l1.6-3.6h8.7l1.6,3.6c0.4,0.8,0.9,1.4,1.6,1.9c0.7,0.5,1.5,0.7,2.4,0.7c1.2,0,2.3-0.5,3.1-1.3
						s1.3-1.9,1.3-3.1c0-0.6-0.1-1.2-0.3-1.7v-0.1v-0.1l-10-21.9c-0.4-0.8-1-1.5-1.7-1.9C671.7,54.4,670.9,54.1,670.1,54.1
						L670.1,54.1z M669.6,70.3l0.6-1.3l0.6,1.3H669.6L669.6,70.3z"/>
				</g>
				<g>
					<path class="st5" d="M706.3,83.9c-0.7,0-1.3-0.2-1.8-0.5c-0.6-0.3-1-0.8-1.3-1.4c-0.1-0.2-0.3-0.5-0.5-1l-0.8-1.7
						c-0.4-0.8-0.7-1.5-1.1-2.3c-0.4-0.8-0.8-1.5-1.1-2.2c-0.3-0.6-0.6-1.2-0.8-1.6c0-0.1-0.1-0.1-0.1-0.2h-5.5v7.3
						c0,1-0.4,1.9-1.1,2.6c-0.7,0.7-1.6,1-2.5,1c-1,0-1.9-0.3-2.5-1c-0.7-0.7-1-1.5-1-2.5V59.1c0-1,0.3-1.9,1-2.5
						c0.7-0.7,1.5-1,2.5-1h9.7c1.3,0,2.7,0.1,3.9,0.4c1.3,0.3,2.4,0.8,3.4,1.5s1.8,1.7,2.4,2.8c0.6,1.1,0.9,2.5,0.9,4.1
						c0,1.7-0.4,3.3-1.2,4.6c-0.6,1.1-1.6,2-2.7,2.6c0,0.1,0.1,0.1,0.1,0.2c0.3,0.5,0.6,1.1,0.9,1.7c0.3,0.6,0.6,1.3,1,1.9
						c0.3,0.7,0.6,1.3,0.9,1.9c0.3,0.6,0.5,1.2,0.7,1.7c0.2,0.6,0.3,1,0.3,1.4c0,1-0.3,1.8-1,2.5C708.1,83.5,707.3,83.9,706.3,83.9z
						 M700.1,66.6c0.8,0,1.4-0.2,1.9-0.6c0.3-0.2,0.6-0.6,0.6-1.5c0-1-0.4-1.4-0.6-1.6c-0.5-0.4-1.1-0.6-1.9-0.6h-6.8v4.3
						C693.3,66.6,700.1,66.6,700.1,66.6z"/>
					<path d="M699.4,56.5c1.3,0,2.5,0.1,3.7,0.4c1.2,0.3,2.2,0.7,3,1.4c0.9,0.6,1.5,1.4,2.1,2.4s0.8,2.2,0.8,3.6
						c0,1.5-0.4,2.9-1.1,4.1c-0.7,1.2-1.8,2.1-3.2,2.7c0.1,0.3,0.3,0.6,0.6,1.1s0.5,1,0.9,1.7c0.3,0.6,0.6,1.3,1,1.9
						s0.6,1.3,0.9,1.9c0.3,0.6,0.5,1.1,0.7,1.6s0.3,0.8,0.3,1c0,0.7-0.2,1.3-0.7,1.8s-1.1,0.7-1.8,0.7c-0.5,0-0.9-0.1-1.3-0.4
						c-0.4-0.2-0.7-0.6-0.9-1c-0.1-0.1-0.2-0.5-0.5-1s-0.5-1.1-0.9-1.8c-0.3-0.7-0.7-1.4-1.1-2.2c-0.4-0.8-0.7-1.5-1.1-2.1
						c-0.3-0.7-0.6-1.2-0.8-1.6s-0.3-0.7-0.3-0.7h-7.2v8.3c0,0.7-0.3,1.3-0.8,1.8s-1.1,0.7-1.8,0.7s-1.3-0.2-1.8-0.7
						s-0.7-1.1-0.7-1.8V59.1c0-0.7,0.2-1.3,0.7-1.8s1.1-0.7,1.8-0.7L699.4,56.5 M692.3,67.6h7.8c1,0,1.8-0.3,2.5-0.8
						s1.1-1.3,1.1-2.3s-0.3-1.8-1-2.4c-0.7-0.5-1.5-0.8-2.5-0.8h-7.8L692.3,67.6 M699.4,54.5h-9.7c-1.3,0-2.4,0.5-3.3,1.3
						c-0.9,0.9-1.3,2-1.3,3.3v21.2c0,1.3,0.5,2.4,1.3,3.3c0.9,0.9,2,1.3,3.3,1.3c1.2,0,2.3-0.4,3.2-1.3s1.4-2,1.4-3.3V74h3.9
						c0.2,0.4,0.4,0.8,0.6,1.2c0.3,0.7,0.7,1.4,1.1,2.2c0.4,0.8,0.7,1.5,1.1,2.2v0.1l0.8,1.7c0.3,0.6,0.4,0.9,0.5,1
						c0.4,0.8,0.9,1.4,1.6,1.8c0.7,0.4,1.5,0.7,2.4,0.7c1.2,0,2.3-0.5,3.2-1.3c0.9-0.9,1.3-2,1.3-3.2c0-0.5-0.1-1-0.4-1.7
						c-0.2-0.5-0.4-1.1-0.7-1.7s-0.6-1.3-0.9-1.9c-0.3-0.7-0.7-1.3-1-2c-0.2-0.4-0.4-0.8-0.6-1.1c0.9-0.7,1.7-1.5,2.3-2.5
						c0.9-1.5,1.3-3.2,1.3-5.1c0-1.7-0.3-3.3-1-4.6s-1.5-2.3-2.7-3.1c-1.1-0.8-2.3-1.3-3.7-1.7C702.2,54.7,700.8,54.5,699.4,54.5
						L699.4,54.5z M694.3,63.3h5.8c0.7,0,1.1,0.2,1.3,0.4c0.1,0.1,0.3,0.2,0.3,0.8c0,0.5-0.2,0.7-0.2,0.7c-0.4,0.3-0.8,0.4-1.3,0.4
						h-5.8L694.3,63.3L694.3,63.3z"/>
				</g>
				<g>
					<path class="st5" d="M723.8,83.9c-1,0-1.9-0.4-2.6-1.1c-0.7-0.7-1-1.6-1-2.6V62.4H714c-1,0-1.8-0.3-2.4-1s-1-1.5-1-2.4
						s0.3-1.8,1-2.4c0.7-0.7,1.5-1,2.4-1h19.6c1,0,1.8,0.3,2.4,1c0.7,0.7,1,1.5,1,2.4s-0.4,1.8-1,2.4c-0.7,0.7-1.5,1-2.4,1h-6.2
						v17.9c0,1-0.4,1.9-1.1,2.6C725.7,83.5,724.8,83.9,723.8,83.9z"/>
					<path d="M733.6,56.5c0.7,0,1.3,0.2,1.7,0.7c0.5,0.5,0.7,1.1,0.7,1.7c0,0.7-0.2,1.3-0.7,1.7c-0.5,0.5-1.1,0.7-1.7,0.7h-7.2v18.9
						c0,0.7-0.3,1.4-0.8,1.9s-1.1,0.8-1.9,0.8s-1.3-0.3-1.8-0.8s-0.7-1.1-0.7-1.9V61.4H714c-0.7,0-1.3-0.2-1.7-0.7s-0.7-1-0.7-1.7
						s0.2-1.3,0.7-1.7s1-0.7,1.7-0.7L733.6,56.5 M733.6,54.5H714c-1.2,0-2.3,0.5-3.2,1.3c-0.8,0.9-1.3,1.9-1.3,3.1
						c0,1.2,0.4,2.3,1.3,3.1c0.8,0.8,1.9,1.3,3.1,1.3h5.2v16.9c0,1.3,0.5,2.4,1.3,3.3c0.9,0.9,2,1.4,3.3,1.4s2.4-0.5,3.3-1.3
						c0.9-0.9,1.3-2,1.3-3.3V63.4h5.2c1.2,0,2.3-0.4,3.1-1.3c0.9-0.8,1.3-1.9,1.3-3.2c0-1.2-0.5-2.3-1.3-3.2
						C735.9,54.9,734.8,54.5,733.6,54.5L733.6,54.5z"/>
				</g>
			</g>
		</g>
		<path class="st4" d="M778.4,231.1L778.4,231.1c-2.9,0-5.2-2.3-5.2-5.2V31.3c0-2.9,2.3-5.2,5.2-5.2l0,0c2.9,0,5.2,2.3,5.2,5.2
			v194.6C783.6,228.8,781.2,231.1,778.4,231.1z"/>
	</g>
</g>
<g id="Layer_5">
	<rect y="220" class="st6" width="800" height="30"/>
	<rect x="15" y="220" class="st3" width="99" height="6"/>
	<rect x="221" y="220" class="st3" width="99" height="6"/>
	<rect x="429" y="220" class="st3" width="99" height="6"/>
	<rect x="635" y="220" class="st3" width="99" height="6"/>
</g>
<g id="Layer_6">
</g>
<linearGradient id="SVGID_1_" gradientUnits="userSpaceOnUse" x1="664.4" y1="66" x2="710.2798" y2="66" gradientTransform="matrix(1 0 0 -1 0 252)">
	<stop  offset="0" style="stop-color:#FCEE21"/>
	<stop  offset="1" style="stop-color:#FCEE21;stop-opacity:0"/>
</linearGradient>
<polygon class="st7" points="710.2,210.9 664.4,192.8 664.4,180.5 710.2,161.1 "/>
<g id="Premium_Rally">
	<g>
		<path class="st8" d="M468.1,197h-17.4c-0.9,0-1.7-0.8-1.7-1.7v-3c0-0.9,0.8-1.7,1.7-1.7h17.4c0.9,0,1.7,0.8,1.7,1.7v3
			C469.8,196.2,469,197,468.1,197z"/>
	</g>
	<g>
		<path class="st9" d="M455.4,194v-15.5c0-1,0.3-2,0.9-2.8l6.3-9.3c0.6-0.8,0.9-1.8,0.9-2.8v0c0-2.8,2.3-5.1,5.1-5.1h22.1
			c0.9,0,1.7-0.2,2.5-0.6l20.4-11.3c0.8-0.4,1.6-0.6,2.5-0.6h56.2c0.8,0,1.6,0.2,2.3,0.6l32,16.5c0.6,0.3,1.3,0.5,2.1,0.6l26.8,1.5
			c0.6,0,1.2,0.2,1.8,0.4l24,10.5c0.5,0.2,0.9,0.5,1.3,0.9l12.1,10.7c1.1,1,1.7,2.4,1.7,3.8v4c0,1.4-0.6,2.8-1.6,3.8l-3.3,3
			c-0.9,0.9-2.2,1.3-3.4,1.3H505.3c-0.2,0-0.3,0-0.5,0L460,199C457.4,198.8,455.4,196.6,455.4,194z"/>
	</g>
	<g>
		<path class="st10" d="M674.5,185.9l-12.1-10.7c-0.4-0.4-0.9-0.6-1.3-0.9l-24-10.5c-0.6-0.2-1.2-0.4-1.8-0.4l-26.8-1.5
			c-0.7,0-1.4-0.2-2.1-0.6l-32-16.5c-0.7-0.4-1.5-0.6-2.3-0.6h-56.2c-0.9,0-1.7,0.2-2.5,0.6L493,156.1c-0.8,0.4-1.6,0.6-2.5,0.6
			h-22.1c-2.8,0-5.1,2.3-5.1,5.1c0,1-0.3,2-0.9,2.8l-6.3,9.3c-0.6,0.8-0.9,1.8-0.9,2.8v15.5c0,2.6,2,4.8,4.6,5.1l27.5,2.7
			c0.9-11.7,10.6-20.8,22.5-20.8c12.5,0,22.5,10.1,22.5,22.5h69.9c0-12.5,10.1-22.5,22.5-22.5s22.5,10.1,22.5,22.5h20.4
			c1.3,0,2.5-0.5,3.4-1.3l3.3-3c1.1-1,1.6-2.3,1.6-3.8v-4C676.3,188.2,675.6,186.8,674.5,185.9z"/>
	</g>
	<g>
		<g>
			<defs>
				<path id="SVGID_2_" d="M540.1,148.2l-1.4,14.3c-0.1,0.5,0.4,1,0.9,1h58.7c0.9,0,1.2-1.2,0.4-1.6l-26.3-14.3
					c-0.1-0.1-0.3-0.1-0.4-0.1h-31C540.6,147.4,540.2,147.7,540.1,148.2z"/>
			</defs>
			<clipPath id="SVGID_3_">
				<use xlink:href="#SVGID_2_"  style="overflow:visible;"/>
			</clipPath>
			<path class="st11" d="M599.1,147.4c-20.1,0-40.3,0-60.5,0v16c20.2,0,40.6,0,60.8,0v-16H599.1z"/>
		</g>
	</g>
	<g>
		<path class="st12" d="M459.8,174.6h-3.1c-0.6,0-0.9-0.6-0.6-1.1l5.6-9.7c0.1-0.2,0.4-0.4,0.6-0.4h3.1c0.6,0,0.9,0.6,0.6,1.1
			l-5.6,9.7C460.3,174.4,460,174.6,459.8,174.6z"/>
	</g>
	<g>
		<g>
			<defs>
				<path id="SVGID_4_" d="M537.7,149.4l-1.8,12.5c-0.1,0.9-0.9,1.5-1.7,1.5h-10.5c-0.4,0-0.7-0.1-1-0.3l-8.4-6.2
					c-1-0.7-0.9-2.2,0.1-2.9l9.5-6.3c0.3-0.2,0.6-0.3,1-0.3H536C537.1,147.4,537.9,148.3,537.7,149.4z"/>
			</defs>
			<clipPath id="SVGID_5_">
				<use xlink:href="#SVGID_4_"  style="overflow:visible;"/>
			</clipPath>
			<path class="st13" d="M537.8,147.4c-8.1,0-16.3,0-24.4,0v16c8.2,0,16.4,0,24.5,0v-16H537.8z"/>
		</g>
	</g>
	<g>
		<path class="st14" d="M484.7,203.4l-27.1-2.5c-2.2-0.2-3.8-2.2-3.6-4.4l0,0c0.2-2.2,2.2-3.8,4.4-3.6l27.1,2.5
			c2.2,0.2,3.8,2.2,3.6,4.4l0,0C488.8,202,486.9,203.6,484.7,203.4z"/>
	</g>
	<g class="st15">
		<path class="st3" d="M546.2,190.1c-1.2,4.6-5.7,7.7-10.4,7.7c-3.2,0-5.9-1.5-6.7-4.8l5.2-2c0.6,1.1,1.4,1.6,2.5,1.6
			c1.5,0,3.1-0.9,3.6-2.6c0.5-1.7-0.6-2.5-2.3-2.5c-1.4,0-3.2,0.5-4.2,1.3l-2.2-1.4l4.7-11.3H548l-1.4,5.1H539l-1,2.3
			c0.9-0.4,2-0.6,3.1-0.6C545.3,182.9,547.3,186,546.2,190.1z"/>
		<path class="st3" d="M549.5,184.7h11.3l-1.2,4.6h-11.3L549.5,184.7z"/>
		<path class="st3" d="M580.2,176.1l-0.3,1l-13.6,20.4h-5.9l10.5-16.1h-7.8l1.4-5.2H580.2z"/>
		<path class="st3" d="M577.2,184.7h11.3l-1.2,4.6h-11.3L577.2,184.7z"/>
		<path class="st3" d="M605.2,190.1c-1.2,4.6-5.7,7.7-10.4,7.7c-3.2,0-5.9-1.5-6.7-4.8l5.2-2c0.6,1.1,1.4,1.6,2.5,1.6
			c1.5,0,3.1-0.9,3.6-2.6c0.5-1.7-0.6-2.5-2.3-2.5c-1.4,0-3.2,0.5-4.2,1.3l-2.2-1.4l4.7-11.3H607l-1.4,5.1h-7.7l-1,2.3
			c0.9-0.4,2-0.6,3.1-0.6C604.3,182.9,606.3,186,605.2,190.1z"/>
	</g>
	<g id="Layer_2_2_">
		<g id="Layer_22">
			<g>
				<g>
					<path d="M480,176.1L480,176.1L480,176.1C480,176.1,480,176.1,480,176.1z"/>
					<path class="st16" d="M494,169.8L494,169.8c1.1-1,1.1-2.7,0-3.8l-3.4-3.4c-1.1-1-2.7-1-3.8,0l-2.6,2.6l0,0
						c-0.3,0.3-0.3,0.7,0,1l6.2,6.2l0,0c0.3,0.3,0.7,0.3,1,0L494,169.8z"/>
				</g>
				<g>
					<path class="st17" d="M467.3,182l-1.2,7c0,0.2,0,0.3,0,0.5c0.1,0.8,0.8,1.3,1.6,1.1l7-1.2l15.1-15.1l0,0c0.3-0.3,0.3-0.7,0-1
						l-6.4-6.4c-0.3-0.3-0.7-0.3-1,0L467.3,182z M473.2,180.7L473.2,180.7c-0.3-0.3-0.3-0.8,0-1.1l8.9-8.9c0.3-0.3,0.8-0.3,1.1,0
						c0.3,0.3,0.3,0.8,0,1.1l-8.9,8.9l0,0C474,181,473.5,181,473.2,180.7L473.2,180.7z M471.1,185.5h2.8v2.1l-3.7,0.6l-1.8-1.8
						l0.6-3.7h2.1V185.5z"/>
				</g>
				<path class="st18" d="M466.1,189.1c0,0.2,0,0.3,0,0.5c0.1,0.7,0.8,1.2,1.6,1.1l3.9-0.7l-4.8-4.8L466.1,189.1z"/>
			</g>
		</g>
	</g>
	<g>
		<path class="st14" d="M600.2,205h-65.8c-2.2,0-4-1.8-4-4v0c0-2.2,1.8-4,4-4h65.8c2.2,0,4,1.8,4,4v0
			C604.2,203.2,602.4,205,600.2,205z"/>
	</g>
	<g>
		<path class="st14" d="M675.7,204l-25.7,1.9c-2.2,0.2-4.1-1.5-4.3-3.7v0c-0.2-2.2,1.5-4.1,3.7-4.3l25.7-1.9
			c2.2-0.2,4.1,1.5,4.3,3.7l0,0C679.6,201.9,677.9,203.8,675.7,204z"/>
	</g>
	<g class="st19">
		<path d="M646.1,173H471.9c-1,0-1.6-1-1.2-1.9l1.9-3.8c0.2-0.4,0.7-0.7,1.2-0.7h163.8c0.2,0,0.4,0,0.5,0.1l8.6,3.8
			C647.9,171.1,647.5,173,646.1,173z"/>
	</g>
	<g class="st19">
		<path d="M470.5,160.2h42.2c0.2,0,0.4,0.1,0.6,0.2l3.9,2.9c0.7,0.5,0.3,1.7-0.6,1.7h-47c-0.6,0-1.1-0.6-0.9-1.3l1-2.9
			C469.7,160.4,470.1,160.2,470.5,160.2z"/>
	</g>
	<g class="st19">
		<path d="M522.5,146.8l-19,11.7c-0.1,0.1-0.2,0.1-0.3,0.1h-8.9c-0.6,0-0.8-0.8-0.3-1.1l20.4-11.7c0.1,0,0.2-0.1,0.3-0.1h7.4
			C522.8,145.8,523,146.5,522.5,146.8z"/>
	</g>
	<g>
		<path class="st3" d="M669.1,190.6h-17.6c-1.3,0-2.4-1.1-2.4-2.4l0,0c0-1.3,1.1-2.4,2.4-2.4h17.6c1.3,0,2.4,1.1,2.4,2.4l0,0
			C671.5,189.5,670.4,190.6,669.1,190.6z"/>
	</g>
	<g>
		<g>
			<ellipse class="st20" cx="509.4" cy="202.5" rx="20" ry="19.9"/>
		</g>
		<g>
			<ellipse class="st14" cx="509.4" cy="202.5" rx="19.5" ry="19.4"/>
		</g>
		<g>
			<ellipse cx="509.4" cy="202.5" rx="14.7" ry="14.6"/>
		</g>
		<g>
			<ellipse class="st3" cx="509.4" cy="202.5" rx="13.9" ry="13.9"/>
		</g>
		<g>
			<ellipse class="st21" cx="509.4" cy="202.5" rx="13.2" ry="13.1"/>
		</g>
		<g>
			<ellipse class="st22" cx="509.4" cy="202.5" rx="8.2" ry="8.2"/>
		</g>
		<g>
			<ellipse class="st8" cx="509.4" cy="202.5" rx="7.5" ry="7.5"/>
		</g>
	</g>
	<g>
		<g>
			<ellipse class="st20" cx="624.6" cy="203.7" rx="20.4" ry="20.2"/>
		</g>
		<g>
			<ellipse class="st14" cx="624.6" cy="203.7" rx="19.8" ry="19.7"/>
		</g>
		<g>
			<ellipse cx="624.6" cy="203.7" rx="14.9" ry="14.8"/>
		</g>
		<g>
			<ellipse class="st3" cx="624.6" cy="203.7" rx="14.2" ry="14.1"/>
		</g>
		<g>
			<ellipse class="st21" cx="624.6" cy="203.7" rx="13.5" ry="13.4"/>
		</g>
		<g>
			<ellipse class="st22" cx="624.6" cy="203.7" rx="8.4" ry="8.3"/>
		</g>
		<g>
			<ellipse class="st8" cx="624.6" cy="203.7" rx="7.6" ry="7.6"/>
		</g>
	</g>
</g>
<g id="Layer_8">
	
		<linearGradient id="SVGID_6_" gradientUnits="userSpaceOnUse" x1="400" y1="516" x2="400" y2="766" gradientTransform="matrix(1 0 0 1 0 -516)">
		<stop  offset="0" style="stop-color:#666666"/>
		<stop  offset="1" style="stop-color:#333333"/>
	</linearGradient>
	<rect class="st23" width="800" height="250"/>
</g>
</svg>
