<?xml version="1.0" encoding="utf-8"?>
<!-- Generator: Adobe Illustrator 25.0.1, SVG Export Plug-In . SVG Version: 6.00 Build 0)  -->
<svg version="1.1" id="Layer_1" xmlns="http://www.w3.org/2000/svg" xmlns:xlink="http://www.w3.org/1999/xlink" x="0px" y="0px"
	 viewBox="0 0 395 372.8" style="enable-background:new 0 0 395 372.8;" xml:space="preserve">
<style type="text/css">
	.st0{fill:#232323;}
	.st1{fill:#0866BC;}
	.st2{fill:#9E9E9E;}
	.st3{fill:#BA4424;}
	.st4{fill:#D8950F;}
	.st5{fill:#FFFFFF;}
	.st6{fill:#BFBB1F;}
	.st7{fill:#E27A0A;}
	.st8{fill:#E5C507;}
	.st9{fill:#282828;}
	.st10{fill:#1E1E1E;}
	.st11{clip-path:url(#SVGID_2_);}
</style>
<g id="Layer_2_1_">
	<g id="Layer_1-2">
		<g>
			<g>
				<g>
					<path class="st0" d="M50.9,366.4c-15.1,0-26.4-4.4-33.7-13.1c-15.4-18.3-6.7-49-6.4-50.3l21.4-72.4
						c2.7-13.8,13.9-20.1,23.4-22.9l4-19.2c4.1-29.5,31.5-29.8,32.7-29.8h210.5c1.2,0,28.6,0.3,32.7,29.8l4,19.2
						c9.5,2.8,20.6,9.1,23.4,22.9l21.4,72.4c0.4,1.3,9,31.9-6.4,50.3c-7.3,8.7-18.6,13.1-33.7,13.1H50.9z"/>
					<path id="main_body" class="st1" d="M381.6,303.7l-21.4-72.5c-2.6-13.3-13.8-19.1-23.1-21.5l-4.3-20.8
						c-3.8-28.1-30.1-27.8-30.1-27.8H92.2c0,0-26.2-0.3-30.1,27.8l-4.3,20.8c-9.3,2.5-20.5,8.2-23.1,21.5l-21.4,72.5
						c0,0-17.4,60.2,37.5,60.2h293.3C399,363.9,381.6,303.7,381.6,303.7z"/>
				</g>
				<path class="st2" d="M79.2,120.1h236.6c9.7,0,17.6,7.9,17.6,17.6v5.4c0,9.7-7.9,17.6-17.6,17.6H79.2c-9.7,0-17.6-7.9-17.6-17.6
					v-5.4C61.5,128,69.4,120.1,79.2,120.1z"/>
				<g id="second_body">
					<path class="st3" d="M370.2,293.3l-20.1-63.6c-2.4-11.7-13-16.7-21.7-18.9l-4-18.2c-3.6-24.6-28.2-24.3-28.2-24.3H98.8
						c0,0-24.6-0.2-28.2,24.3l-4,18.2c-8.7,2.1-19.2,7.2-21.7,18.9l-20.1,63.6c0,0-16.3,52.8,35.2,52.8h275
						C386.5,346,370.2,293.3,370.2,293.3z"/>
				</g>
				<g id="second_body-2">
					<path class="st4" d="M362.1,284L343,222c-2.3-11.4-12.3-16.3-20.6-18.4l-3.8-17.8c-3.4-24-26.8-23.7-26.8-23.7H103.9
						c0,0-23.4-0.2-26.8,23.7l-3.8,17.8c-8.3,2.1-18.3,7-20.6,18.4l-19.1,62c0,0-15.5,51.5,33.5,51.5h261.7
						C377.6,335.4,362.1,284,362.1,284z"/>
				</g>
				<path class="st5" d="M343.8,257.9l-16.6-48.7c-1.8-7.7-8.1-13.1-18.3-15.9l-3-12.4c-3.3-20.6-25.4-20.8-26.4-20.8h-164
					c-0.9,0-23,0.2-26.4,20.8l-3,12.4c-10.2,2.8-16.5,8.2-18.3,15.9l-16.7,48.7c-0.3,0.9-6.9,21.2,4.5,34c5.8,6.5,15.1,9.8,27.6,9.8
					h228.4c12.5,0,21.8-3.3,27.6-9.8C350.7,279.2,344.1,258.8,343.8,257.9z M293.7,196.4H104.1v-12.7c2.7-17,21.1-16.8,21.1-16.8
					h147.6c0,0,18.4-0.2,21.1,16.8L293.7,196.4z"/>
				<path class="st2" d="M291.9,184.6c-2.6-16.7-20.7-16.5-20.7-16.5H126.6c0,0-18-0.2-20.7,16.5V197h185.9L291.9,184.6z"/>
				<g>
					<path class="st2" d="M340.9,257.4l-16.3-47.7c-1.7-7.5-7.9-12.9-18-15.6l-2.9-12.2c-3.2-20.2-24.9-20.4-25.9-20.4H117.1
						c-0.9,0-22.6,0.2-25.8,20.4l-2.9,12.2c-10,2.7-16.2,8.1-18,15.6L54,257.4c-0.3,0.8-6.8,20.8,4.4,33.3c5.7,6.3,14.8,9.6,27,9.6
						h224c12.2,0,21.3-3.2,27-9.6C347.7,278.2,341.2,258.3,340.9,257.4z M291.8,197H106v-12.4c2.6-16.7,20.7-16.5,20.7-16.5h144.7
						c0,0,18-0.2,20.7,16.5L291.8,197z"/>
					<path class="st0" d="M338.1,258.1l-16.4-47.8c-2-8.8-10.6-12.6-17.6-14.2l-3.3-13.7c-2.9-18.5-23-18.3-23-18.3H117.1
						c0,0-20-0.2-23,18.3l-3.3,13.7c-7.1,1.6-15.6,5.4-17.6,14.2l-16.4,47.8c0,0-13.3,39.7,28.6,39.7h224
						C351.4,297.8,338.1,258.1,338.1,258.1z M291.8,197H106v-12.4c2.6-16.7,20.7-16.5,20.7-16.5h144.7c0,0,18-0.2,20.7,16.5
						L291.8,197z"/>
				</g>
				<ellipse class="st6" cx="106.9" cy="225.6" rx="26.3" ry="15.6"/>
				<path class="st0" d="M106.9,243.5c-16,0-28.6-7.8-28.6-17.9s12.5-17.9,28.6-17.9s28.6,7.8,28.6,17.9S122.9,243.5,106.9,243.5z"
					/>
				<ellipse class="st7" cx="106.9" cy="225.6" rx="26.3" ry="15.6"/>
				<path class="st7" d="M106.9,238.9c-14.7,0-26.3-6.8-26.3-15.6s11.5-15.6,26.3-15.6s26.3,6.8,26.3,15.6S121.7,238.9,106.9,238.9z
					"/>
				<ellipse class="st8" cx="106.9" cy="222.2" rx="24" ry="13.3"/>
				<ellipse class="st6" cx="168.2" cy="225.6" rx="26.3" ry="15.6"/>
				<path class="st0" d="M168.2,243.5c-16,0-28.6-7.8-28.6-17.9s12.5-17.9,28.6-17.9s28.6,7.8,28.6,17.9S184.2,243.5,168.2,243.5z"
					/>
				<ellipse class="st7" cx="168.2" cy="225.6" rx="26.3" ry="15.6"/>
				<path class="st7" d="M168.2,238.9c-14.7,0-26.3-6.8-26.3-15.6s11.5-15.6,26.3-15.6s26.3,6.8,26.3,15.6S182.9,238.9,168.2,238.9z
					"/>
				<ellipse class="st8" cx="168.2" cy="222.2" rx="24" ry="13.3"/>
				<ellipse class="st6" cx="229.4" cy="225.6" rx="26.3" ry="15.6"/>
				<path class="st0" d="M229.4,243.5c-16,0-28.6-7.8-28.6-17.9s12.5-17.9,28.6-17.9s28.6,7.8,28.6,17.9S245.4,243.5,229.4,243.5z"
					/>
				<ellipse class="st7" cx="229.4" cy="225.6" rx="26.3" ry="15.6"/>
				<path class="st7" d="M229.4,238.9c-14.7,0-26.3-6.8-26.3-15.6s11.5-15.6,26.3-15.6s26.3,6.8,26.3,15.6S244.2,238.9,229.4,238.9z
					"/>
				<ellipse class="st8" cx="229.4" cy="222.2" rx="24" ry="13.3"/>
				<ellipse class="st6" cx="290.7" cy="225.6" rx="26.3" ry="15.6"/>
				<path class="st0" d="M290.7,243.5c-16,0-28.6-7.8-28.6-17.9s12.5-17.9,28.6-17.9s28.6,7.8,28.6,17.9S306.7,243.5,290.7,243.5z"
					/>
				<ellipse class="st7" cx="290.7" cy="225.6" rx="26.3" ry="15.6"/>
				<path class="st7" d="M290.7,238.9c-14.7,0-26.3-6.8-26.3-15.6s11.5-15.6,26.3-15.6s26.3,6.8,26.3,15.6S305.4,238.9,290.7,238.9z
					"/>
				<ellipse class="st8" cx="290.7" cy="222.2" rx="24" ry="13.3"/>
				<ellipse class="st6" cx="136.2" cy="247.9" rx="26.3" ry="15.6"/>
				<path class="st0" d="M136.2,265.8c-16,0-28.6-7.8-28.6-17.9s12.5-17.9,28.6-17.9s28.6,7.8,28.6,17.9
					C164.8,257.9,152.2,265.8,136.2,265.8z"/>
				<ellipse class="st7" cx="136.2" cy="247.9" rx="26.3" ry="15.6"/>
				<path class="st7" d="M136.2,261.2c-14.7,0-26.3-6.8-26.3-15.6s11.5-15.6,26.3-15.6s26.3,6.8,26.3,15.6
					C162.5,254.4,151,261.2,136.2,261.2z"/>
				<ellipse class="st8" cx="136.2" cy="244.5" rx="24" ry="13.3"/>
				<ellipse class="st6" cx="197.5" cy="247.9" rx="26.3" ry="15.6"/>
				<path class="st0" d="M197.5,265.8c-16,0-28.6-7.8-28.6-17.9s12.5-17.9,28.6-17.9s28.6,7.8,28.6,17.9
					C226,257.9,213.5,265.8,197.5,265.8z"/>
				<ellipse class="st7" cx="197.5" cy="247.9" rx="26.3" ry="15.6"/>
				<path class="st7" d="M197.5,261.2c-14.7,0-26.3-6.8-26.3-15.6s11.5-15.6,26.3-15.6s26.3,6.8,26.3,15.6
					C223.8,254.4,212.2,261.2,197.5,261.2z"/>
				<ellipse class="st8" cx="197.5" cy="244.5" rx="24" ry="13.3"/>
				<ellipse class="st6" cx="258.7" cy="247.9" rx="26.3" ry="15.6"/>
				<path class="st0" d="M258.7,265.8c-16,0-28.6-7.8-28.6-17.9s12.5-17.9,28.6-17.9s28.6,7.8,28.6,17.9
					C287.3,257.9,274.7,265.8,258.7,265.8z"/>
				<ellipse class="st7" cx="258.7" cy="247.9" rx="26.3" ry="15.6"/>
				<path class="st7" d="M258.7,261.2c-14.7,0-26.3-6.8-26.3-15.6S244,230,258.7,230s26.3,6.8,26.3,15.6
					C285,254.4,273.5,261.2,258.7,261.2z"/>
				<ellipse class="st8" cx="258.7" cy="244.5" rx="24" ry="13.3"/>
				<ellipse class="st6" cx="104.3" cy="272.1" rx="26.3" ry="15.6"/>
				<path class="st0" d="M104.3,290c-16,0-28.6-7.8-28.6-17.9s12.5-17.9,28.6-17.9s28.6,7.8,28.6,17.9S120.3,290,104.3,290z"/>
				<ellipse class="st7" cx="104.3" cy="272.1" rx="26.3" ry="15.6"/>
				<path class="st7" d="M104.3,285.4c-14.7,0-26.3-6.8-26.3-15.6s11.5-15.6,26.3-15.6s26.3,6.8,26.3,15.6S119,285.4,104.3,285.4z"
					/>
				<ellipse class="st8" cx="104.3" cy="268.7" rx="24" ry="13.3"/>
				<ellipse class="st6" cx="165.5" cy="272.1" rx="26.3" ry="15.6"/>
				<path class="st0" d="M165.5,290c-16,0-28.6-7.8-28.6-17.9s12.6-17.9,28.6-17.9s28.6,7.8,28.6,17.9S181.5,290,165.5,290z"/>
				<ellipse class="st7" cx="165.5" cy="272.1" rx="26.3" ry="15.6"/>
				<path class="st7" d="M165.5,285.4c-14.7,0-26.3-6.8-26.3-15.6s11.5-15.6,26.3-15.6s26.3,6.8,26.3,15.6S180.3,285.4,165.5,285.4z
					"/>
				<ellipse class="st8" cx="165.5" cy="268.7" rx="24" ry="13.3"/>
				<ellipse class="st6" cx="226.8" cy="272.1" rx="26.3" ry="15.6"/>
				<path class="st0" d="M226.8,290c-16,0-28.6-7.8-28.6-17.9s12.5-17.9,28.6-17.9s28.6,7.8,28.6,17.9S242.8,290,226.8,290z"/>
				<ellipse class="st7" cx="226.8" cy="272.1" rx="26.3" ry="15.6"/>
				<path class="st7" d="M226.8,285.4c-14.7,0-26.3-6.8-26.3-15.6s11.5-15.6,26.3-15.6s26.3,6.8,26.3,15.6S241.5,285.4,226.8,285.4z
					"/>
				<ellipse class="st8" cx="226.8" cy="268.7" rx="24" ry="13.3"/>
				<ellipse class="st6" cx="288" cy="272.1" rx="26.3" ry="15.6"/>
				<path class="st0" d="M288,290c-16,0-28.6-7.8-28.6-17.9s12.5-17.9,28.6-17.9s28.6,7.8,28.6,17.9S304,290,288,290z"/>
				<ellipse class="st7" cx="288" cy="272.1" rx="26.3" ry="15.6"/>
				<path class="st7" d="M288,285.4c-14.7,0-26.3-6.8-26.3-15.6s11.5-15.6,26.3-15.6s26.3,6.8,26.3,15.6S302.8,285.4,288,285.4z"/>
				<ellipse class="st8" cx="288" cy="268.7" rx="24" ry="13.3"/>
				<g>
					<path class="st9" d="M378.1,319.9c0,0-2,28.2-25,31.6H41.9c-23-3.4-25-31.6-25-31.6c0,0.2-7,38.6,25.2,38.5h310.7
						C385,358.5,378.1,320.1,378.1,319.9z"/>
				</g>
				<g>
					<path class="st9" d="M358.1,292.1c0,0-1.8,27-22.2,30.2H60.3c-0.9,0-1.8-0.1-2.7-0.3c-19-4.3-20.7-30-20.7-30
						c0,0.2-6.2,37,22.4,36.9h276.3C364.2,329.1,358.1,292.3,358.1,292.1z"/>
				</g>
				<g>
					<path class="st5" d="M119.4,196.1c-8.7,0-15.7-7.1-15.7-15.7V39.7c0-8.7,7.1-15.7,15.7-15.7H277c8.7,0,15.7,7.1,15.7,15.7
						v140.7c0,8.7-7.1,15.7-15.7,15.7H119.4z"/>
					<path class="st10" d="M277,26c7.6,0,13.7,6.1,13.7,13.7v140.7c0,7.6-6.1,13.7-13.7,13.7H119.4c-7.6,0-13.7-6.1-13.7-13.7V39.7
						c0-7.6,6.1-13.7,13.7-13.7H277 M277,22H119.4c-9.8,0-17.7,8-17.7,17.7v140.7c0,9.8,8,17.7,17.7,17.7H277
						c9.8,0,17.7-8,17.7-17.7V39.7C294.7,30,286.7,22,277,22L277,22z"/>
				</g>
				<g id="Layer_2_2_">
					<g id="Layer_22">
						<g>
							<g>
								<path d="M199.4,104.9h-0.3l0.2,0.2C199.3,105,199.4,105,199.4,104.9z"/>
								<path class="st3" d="M147,87.7c1.2,1.2,3.2,1.2,4.4,0c0,0,0,0,0,0L180.1,59c1.2-1.2,1.2-3.2,0-4.4c0,0,0,0,0,0l-11.9-11.9
									c-4.9-4.8-12.7-4.8-17.6,0L135,58.2c-4.9,4.8-4.9,12.7,0,17.5c0,0,0,0,0,0L147,87.7z"/>
							</g>
							<g>
								<path class="st4" d="M188.1,62.1c-1.3-1.3-3.3-1.3-4.6,0L154,91.7c-1.3,1.2-1.3,3.3,0,4.5c0,0,0,0,0,0l70,70l32.4,5.7
									c3.5,0.6,6.8-1.7,7.4-5.2c0.1-0.7,0.1-1.5,0-2.2l-5.7-32.4L188.1,62.1z M230.8,126.1c-1.4,1.5-3.8,1.5-5.3,0c0,0,0,0,0,0
									l-41.1-41.1c-1.5-1.5-1.5-3.8,0-5.3c1.5-1.5,3.8-1.5,5.3,0l41.1,41.1C232.2,122.3,232.3,124.6,230.8,126.1
									C230.8,126.1,230.8,126.1,230.8,126.1L230.8,126.1z M240.4,135.7h9.7l3,17.2l-8.3,8.3l-17.2-3v-9.7h12.8L240.4,135.7z"/>
								<path class="st1" d="M129.8,139.1c-2.8,0-5.6-0.3-8.3-1c-2.8-0.7-5.5-2-7.8-3.8c-0.6-0.5-1.1-1.1-1.5-1.7
									c-0.5-0.8-0.7-1.6-0.7-2.5c0-1.4,0.5-2.7,1.5-3.6c1-1,2.3-1.5,3.6-1.5c1,0,1.9,0.3,2.7,0.8c0.9,0.6,1.8,1.1,2.6,1.5
									c0.8,0.4,1.6,0.7,2.4,1c0.8,0.3,1.6,0.4,2.5,0.6c1,0.1,1.9,0.2,2.9,0.2c1,0,1.9-0.1,2.8-0.4c0.8-0.2,1.6-0.6,2.3-1.1
									c0.7-0.5,1.2-1.1,1.6-1.8c0.4-0.7,0.6-1.6,0.6-2.4c0-0.8-0.2-1.6-0.5-2.3c-0.4-0.6-0.9-1.2-1.5-1.6c-0.7-0.5-1.4-0.8-2.2-1
									c-0.9-0.2-1.8-0.4-2.7-0.4c-1.5,0-3,0.1-4.4,0.4c-1.5,0.4-2.9,0.9-4.2,1.5l-0.1,0c-0.3,0.1-0.7,0.2-1,0.4
									c-0.5,0.2-1,0.3-1.5,0.3c-1.4,0-2.7-0.6-3.7-1.6c-1-1-1.6-2.3-1.6-3.7c0-0.6,0.1-1.2,0.2-1.7c0.1-0.9,0.3-2,0.5-3.3
									c0.2-1.3,0.4-2.7,0.6-4.1c0.2-1.5,0.4-2.8,0.6-4c0.2-1.3,0.4-2.3,0.5-3.2c0.1-0.5,0.2-1,0.3-1.5c0.2-1.1,0.7-2.2,1.5-3
									c0.9-1,2.2-1.5,3.5-1.5h19.5c1.4,0,2.8,0.6,3.7,1.6c0.9,1,1.4,2.3,1.4,3.6c0,1.3-0.5,2.6-1.4,3.6c-0.9,1-2.3,1.6-3.7,1.6
									h-14.9l-0.8,4.8c0.4-0.1,0.7-0.1,1.1-0.2c1.2-0.2,2.4-0.3,3.6-0.3c2.2,0,4.5,0.3,6.6,0.9c2.1,0.6,4,1.5,5.8,2.8
									c1.7,1.3,3.1,2.9,4.1,4.8c1.1,2.1,1.6,4.5,1.5,6.9c0,2.4-0.5,4.8-1.6,6.9c-1.1,2-2.5,3.7-4.3,5.1c-1.8,1.4-3.8,2.4-5.9,3.1
									C134.3,138.8,132,139.1,129.8,139.1z"/>
								<path class="st1" d="M158.8,124.9c-1.3,0-2.6-0.5-3.6-1.4c-1-0.9-1.5-2.2-1.5-3.6c0-2.8,2.2-5,5-5.1c0,0,0,0,0,0h12.1
									c2.8,0,5,2.2,5.1,5c0,0,0,0,0,0c0,1.3-0.5,2.6-1.5,3.6c-0.9,0.9-2.2,1.4-3.6,1.4L158.8,124.9z"/>
								<path class="st1" d="M199,138.8c-3.1,0-5.6-2.5-5.6-5.6c0-2.9,0.2-5.8,0.6-8.7c0.4-2.9,1.1-5.8,2-8.6c0.9-2.8,2.1-5.5,3.5-8
									c0.9-1.6,1.9-3.1,3-4.6h-18.2c-1.4,0-2.7-0.5-3.7-1.6c-0.9-1-1.5-2.3-1.4-3.6c0-1.4,0.5-2.7,1.5-3.6c0.9-1,2.3-1.6,3.6-1.6
									h28.2c2.8-0.1,5.1,2.1,5.2,4.9c0,0.1,0,0.2,0,0.3c0,1-0.3,2-0.8,2.8c-0.7,1-1.4,2-2.1,2.9c-0.7,0.9-1.4,1.8-2,2.8
									c-1.4,2-2.6,4.2-3.7,6.4c-1,2-1.8,4.1-2.5,6.2c-0.6,2.2-1.1,4.4-1.4,6.6c-0.3,2.5-0.4,4.9-0.4,7.4c0,1.5-0.6,2.9-1.7,3.9
									C201.9,138.3,200.4,138.8,199,138.8z"/>
								<path class="st1" d="M227.5,124.9c-1.3,0-2.6-0.5-3.6-1.4c-1-0.9-1.5-2.2-1.5-3.6c0-2.8,2.2-5,5-5.1c0,0,0,0,0,0h12.1
									c2.8,0,5,2.2,5.1,5c0,0,0,0,0,0c0,1.3-0.5,2.6-1.5,3.6c-0.9,0.9-2.2,1.4-3.6,1.4L227.5,124.9z"/>
								<g>
									<path class="st1" d="M267.7,139.1c-2.8,0-5.6-0.3-8.3-1c-2.8-0.7-5.5-2-7.8-3.8c-0.6-0.5-1.1-1.1-1.5-1.7
										c-0.5-0.8-0.7-1.6-0.7-2.5c0-2.8,2.3-5.1,5.2-5.2c1,0,1.9,0.3,2.7,0.8c0.9,0.6,1.8,1.1,2.6,1.5c0.8,0.4,1.6,0.7,2.4,1
										c0.8,0.3,1.6,0.4,2.5,0.6c1,0.1,1.9,0.2,2.9,0.2c1,0,1.9-0.1,2.8-0.4c0.8-0.2,1.6-0.6,2.3-1.1c0.7-0.5,1.2-1.1,1.6-1.8
										c0.4-0.7,0.6-1.6,0.6-2.4c0-0.8-0.2-1.6-0.5-2.3c-0.4-0.6-0.9-1.2-1.5-1.6c-0.7-0.5-1.4-0.8-2.2-1
										c-0.9-0.2-1.8-0.4-2.7-0.4c-1.5,0-2.9,0.1-4.4,0.4c-1.5,0.4-2.9,0.9-4.2,1.5l-0.1,0c-0.3,0.1-0.7,0.3-1,0.4
										c-0.5,0.2-1,0.3-1.5,0.3c-1.4,0-2.7-0.6-3.7-1.6c-1-1-1.6-2.3-1.6-3.7c0-0.6,0.1-1.2,0.2-1.7c0.1-0.9,0.3-2,0.5-3.3
										c0.2-1.3,0.4-2.7,0.6-4.1c0.2-1.5,0.4-2.8,0.6-4c0.2-1.3,0.4-2.3,0.5-3.2c0.1-0.5,0.2-1,0.3-1.5c0.2-1.1,0.7-2.2,1.5-3
										c0.9-1,2.2-1.5,3.5-1.5h19.5c1.4,0,2.8,0.6,3.7,1.6c0.9,1,1.4,2.3,1.4,3.6c0,1.3-0.5,2.6-1.4,3.6c-0.9,1-2.3,1.6-3.7,1.6
										h-14.9l-0.8,4.8c0.4-0.1,0.7-0.1,1.1-0.2c1.2-0.2,2.4-0.3,3.6-0.3c2.2,0,4.5,0.3,6.6,0.9c2.1,0.6,4,1.5,5.8,2.8
										c1.7,1.3,3.1,2.9,4.1,4.8c1.1,2.1,1.6,4.5,1.5,6.9c0,2.4-0.5,4.8-1.6,6.9c-1.1,2-2.5,3.7-4.3,5.1c-1.8,1.4-3.8,2.4-5.9,3.1
										C272.2,138.8,270,139.1,267.7,139.1z"/>
									<g>
										<path class="st5" d="M143.6,110.1c-1.9-1.4-4-2.4-6.3-3c-2.3-0.6-4.7-0.9-7-0.9c-0.9,0-1.9,0.1-2.8,0.2l0.2-1.4h13.5
											c1.8,0,3.6-0.7,4.8-2.1c1.2-1.3,1.9-2.9,1.9-4.7c0-1.7-0.7-3.4-1.8-4.7c-1.2-1.4-3-2.2-4.9-2.1h-19.5
											c-1.8,0-3.4,0.7-4.7,1.9c-1,1-1.7,2.3-1.9,3.7c-0.1,0.5-0.2,1-0.3,1.6c-0.1,0.8-0.3,1.9-0.5,3.2c-0.2,1.2-0.4,2.6-0.6,4
											c-0.2,1.4-0.4,2.8-0.6,4.2c-0.2,1.3-0.3,2.4-0.5,3.3c-0.1,0.6-0.2,1.3-0.2,2c0,1.8,0.7,3.5,2,4.8c1.2,1.3,3,2.1,4.8,2.1
											c0.7,0,1.4-0.1,2-0.3c0.3-0.1,0.6-0.2,1-0.4l0.1,0l0.1,0c1.3-0.6,2.6-1,4-1.4c1.3-0.3,2.7-0.4,4-0.4
											c0.8,0,1.5,0.1,2.2,0.3c0.6,0.2,1.2,0.4,1.7,0.8c0.4,0.3,0.8,0.7,1,1.1c0.2,0.5,0.3,1,0.3,1.5c0,0.6-0.1,1.1-0.4,1.6
											c-0.3,0.5-0.7,0.9-1.1,1.3c-0.6,0.4-1.2,0.7-1.8,0.8c-0.8,0.2-1.6,0.3-2.4,0.3c-0.9,0-1.8-0.1-2.7-0.2
											c-0.8-0.1-1.5-0.3-2.3-0.5c-0.7-0.2-1.5-0.5-2.2-0.9c-0.8-0.4-1.6-0.8-2.5-1.4c-1.1-0.7-2.3-1-3.5-1c-1.8,0-3.5,0.7-4.8,2
											c-1.3,1.2-2,3-2,4.8c0,1.2,0.3,2.4,1,3.4c0.5,0.8,1.1,1.5,1.8,2.1l0,0l0,0c2.5,1.9,5.3,3.3,8.4,4.1c2.8,0.7,5.7,1,8.7,1
											c2.4,0,4.9-0.4,7.2-1.1c2.3-0.7,4.5-1.9,6.4-3.3c2-1.5,3.6-3.4,4.7-5.6c1.2-2.4,1.9-5,1.8-7.6c0.1-2.6-0.5-5.2-1.7-7.6
											C147.1,113.3,145.5,111.5,143.6,110.1z M145.3,129.2c-0.9,1.8-2.3,3.3-3.9,4.6c-1.6,1.2-3.5,2.2-5.4,2.8
											c-2,0.7-4.1,1-6.2,1c-2.7,0-5.3-0.3-7.9-1c-2.6-0.6-5.1-1.8-7.2-3.5c-0.5-0.4-0.9-0.8-1.2-1.3c-0.3-0.5-0.5-1.1-0.5-1.7
											c0-1,0.4-1.9,1.1-2.5c0.7-0.7,1.6-1.1,2.5-1.1c0.7,0,1.3,0.2,1.9,0.6c1,0.6,1.9,1.1,2.8,1.5c0.8,0.4,1.7,0.8,2.6,1
											c0.9,0.3,1.8,0.5,2.7,0.6c1,0.2,2.1,0.2,3.1,0.2c1.1,0,2.2-0.1,3.2-0.4c1-0.3,2-0.7,2.9-1.3c0.8-0.6,1.5-1.4,2.1-2.2
											c0.5-1,0.8-2.1,0.8-3.2c0-1.1-0.2-2.1-0.7-3c-0.5-0.8-1.1-1.6-1.9-2.1c-0.8-0.6-1.7-1-2.7-1.3c-1-0.3-2-0.4-3.1-0.4
											c-1.6,0-3.2,0.1-4.8,0.5c-1.5,0.4-3,0.9-4.5,1.6c-0.3,0.1-0.7,0.2-1,0.3c-0.3,0.1-0.6,0.2-1,0.2c-1,0-1.9-0.4-2.6-1.1
											c-0.7-0.7-1.1-1.6-1.1-2.6c0-0.1,0.1-0.6,0.2-1.5c0.1-0.9,0.3-2,0.5-3.3c0.2-1.3,0.4-2.7,0.6-4.1s0.4-2.8,0.6-4.1
											c0.2-1.2,0.4-2.3,0.5-3.1c0.1-0.5,0.2-0.9,0.3-1.3c0.1-0.9,0.5-1.7,1.1-2.3c0.6-0.7,1.5-1,2.4-1h19.5c1,0,1.9,0.4,2.5,1.1
											c0.7,0.7,1,1.6,1,2.6c0,0.9-0.4,1.9-1,2.5c-0.7,0.7-1.6,1.1-2.5,1.1H125l-1.3,8.5c1.1-0.3,2.2-0.6,3.3-0.8
											c1.1-0.2,2.2-0.3,3.3-0.3c2.1,0,4.2,0.3,6.2,0.8c1.9,0.5,3.7,1.4,5.3,2.5c1.5,1.1,2.8,2.6,3.6,4.3c0.9,1.9,1.4,4,1.4,6.1
											C146.8,125.2,146.3,127.3,145.3,129.2z"/>
										<path class="st5" d="M170.9,113.3h-12.1c-3.6,0-6.6,2.9-6.6,6.6c0,0,0,0,0,0c0,1.8,0.7,3.5,2,4.7c1.2,1.2,2.9,1.9,4.7,1.9
											h12.1c1.7,0,3.4-0.7,4.7-1.9c1.3-1.2,2-2.9,2-4.7C177.5,116.3,174.6,113.3,170.9,113.3
											C170.9,113.3,170.9,113.3,170.9,113.3z M173.4,122.4c-0.7,0.6-1.5,1-2.5,1h-12.1c-0.9,0-1.8-0.3-2.5-1
											c-0.7-0.6-1-1.5-1-2.4c0-1.9,1.5-3.5,3.4-3.5c0,0,0,0,0,0h12.1c1.9,0,3.5,1.5,3.5,3.4c0,0,0,0,0,0
											C174.4,120.9,174,121.8,173.4,122.4L173.4,122.4z"/>
										<path class="st5" d="M212.5,91.4h-28.2c-1.8,0-3.5,0.7-4.8,2c-2.5,2.6-2.6,6.8-0.1,9.4c1.2,1.3,3,2.1,4.8,2.1h15.2
											c-0.5,0.7-0.9,1.5-1.4,2.3c-1.5,2.7-2.7,5.4-3.6,8.3c-0.9,2.9-1.6,5.8-2,8.8c-0.4,3-0.6,6-0.6,9c0,3.9,3.2,7.1,7.1,7.1
											c1.9,0,3.7-0.7,5-2.1c1.4-1.3,2.2-3.2,2.2-5.1c0-2.4,0.1-4.8,0.4-7.2c0.3-2.1,0.7-4.3,1.3-6.3c0.6-2.1,1.4-4.1,2.4-6
											c1.1-2.1,2.3-4.2,3.6-6.2c0.6-0.9,1.3-1.8,2-2.7c0.7-1,1.5-2,2.2-3c0.8-1.1,1.1-2.4,1.1-3.7c0.1-3.6-2.8-6.7-6.5-6.7
											C212.6,91.4,212.5,91.4,212.5,91.4L212.5,91.4z M215.5,100.1c-0.7,1-1.4,1.9-2.1,2.9c-0.7,0.9-1.4,1.9-2.1,2.9
											c-1.4,2.1-2.7,4.3-3.9,6.6c-1,2.1-1.9,4.3-2.6,6.5c-0.7,2.2-1.1,4.5-1.4,6.8c-0.3,2.5-0.5,5.1-0.4,7.6
											c0,1.1-0.4,2.1-1.2,2.8c-0.8,0.8-1.8,1.2-2.9,1.2c-2.2,0-4-1.8-4-4c0-2.9,0.2-5.7,0.6-8.5c0.4-2.8,1-5.6,1.9-8.3
											c0.9-2.7,2-5.3,3.4-7.8c1.4-2.5,3.1-4.8,5-6.9h-21.6c-1,0-1.9-0.4-2.5-1.1c-0.7-0.7-1-1.6-1-2.5c0-1,0.4-1.9,1-2.5
											c0.6-0.7,1.6-1.1,2.5-1.1h28.2c1.9-0.1,3.5,1.4,3.6,3.3c0,0.1,0,0.2,0,0.3C216.1,98.8,215.9,99.5,215.5,100.1z"/>
										<path class="st5" d="M239.6,113.3h-12.1c-3.6,0-6.6,2.9-6.6,6.6c0,0,0,0,0,0c0,1.8,0.7,3.5,2,4.7c1.2,1.2,2.9,1.9,4.7,1.9
											h12.1c1.7,0,3.4-0.7,4.7-1.9c1.3-1.2,2-2.9,2-4.7C246.2,116.3,243.3,113.3,239.6,113.3
											C239.6,113.3,239.6,113.3,239.6,113.3z M242,122.4c-0.7,0.6-1.5,1-2.5,1h-12.1c-0.9,0-1.8-0.3-2.5-1c-0.7-0.6-1-1.5-1-2.4
											c0-1.9,1.5-3.5,3.4-3.5c0,0,0,0,0,0h12.1c1.9,0,3.5,1.5,3.5,3.4c0,0,0,0,0,0C243.1,120.9,242.7,121.8,242,122.4L242,122.4
											z"/>
										<path class="st5" d="M286.1,115.5c-1.1-2.1-2.7-3.9-4.6-5.3c-1.9-1.4-4-2.4-6.3-3c-2.3-0.6-4.7-0.9-7-0.9
											c-0.9,0-1.9,0.1-2.8,0.2l0.2-1.4h13.5c1.8,0,3.6-0.7,4.8-2.1c1.2-1.3,1.9-2.9,1.9-4.7c0-1.7-0.7-3.4-1.8-4.7
											c-1.2-1.4-3-2.2-4.9-2.1h-19.5c-1.8,0-3.4,0.7-4.7,1.9c-1,1-1.7,2.3-1.9,3.7c-0.1,0.5-0.2,1-0.3,1.6
											c-0.2,0.9-0.3,1.9-0.5,3.2c-0.2,1.2-0.4,2.6-0.6,4c-0.2,1.5-0.5,2.9-0.6,4.2c-0.2,1.3-0.3,2.4-0.5,3.3
											c-0.1,0.6-0.2,1.3-0.2,2c0,1.8,0.7,3.5,2,4.8c1.2,1.3,3,2.1,4.8,2.1c0.7,0,1.4-0.1,2-0.3c0.3-0.1,0.6-0.2,1-0.4l0.1,0
											l0.1,0c1.3-0.6,2.6-1,4-1.4c1.3-0.3,2.7-0.4,4-0.4c0.8,0,1.5,0.1,2.2,0.3c0.6,0.2,1.2,0.4,1.7,0.8c0.4,0.3,0.8,0.7,1,1.1
											c0.2,0.5,0.3,1,0.3,1.5c0,0.6-0.1,1.1-0.4,1.6c-0.3,0.5-0.7,0.9-1.1,1.3c-0.6,0.4-1.2,0.7-1.8,0.8
											c-0.8,0.2-1.6,0.3-2.4,0.3c-0.9,0-1.8-0.1-2.7-0.2c-0.8-0.1-1.5-0.3-2.3-0.5c-0.7-0.2-1.5-0.5-2.2-0.9
											c-0.8-0.4-1.6-0.8-2.5-1.4c-1.1-0.7-2.3-1-3.5-1c-3.7,0-6.7,3-6.7,6.7c0,1.2,0.3,2.4,1,3.4c0.5,0.8,1.1,1.5,1.8,2.1l0,0
											l0,0c2.5,1.9,5.3,3.3,8.4,4.1c2.8,0.7,5.7,1,8.7,1c2.4,0,4.9-0.4,7.2-1.1c2.3-0.7,4.5-1.9,6.4-3.3c2-1.5,3.6-3.4,4.7-5.6
											c1.2-2.4,1.9-5,1.8-7.6C287.9,120.4,287.3,117.8,286.1,115.5z M283.2,129.2c-0.9,1.8-2.3,3.3-3.9,4.6
											c-1.6,1.2-3.5,2.2-5.4,2.8c-2,0.7-4.1,1-6.2,1c-2.7,0-5.3-0.3-7.9-1c-2.6-0.6-5.1-1.8-7.2-3.5c-0.5-0.4-0.9-0.8-1.2-1.3
											c-0.3-0.5-0.5-1.1-0.5-1.7c0-2,1.6-3.6,3.6-3.6c0.7,0,1.3,0.2,1.9,0.6c1,0.6,1.9,1.1,2.8,1.5c0.8,0.4,1.7,0.8,2.6,1
											c0.9,0.3,1.8,0.5,2.7,0.6c1,0.2,2.1,0.2,3.1,0.2c1.1,0,2.2-0.1,3.2-0.4c1-0.3,2-0.7,2.9-1.3c0.8-0.6,1.5-1.4,2.1-2.2
											c0.5-1,0.8-2.1,0.8-3.2c0-1.1-0.2-2.1-0.7-3c-0.5-0.8-1.1-1.6-1.9-2.1c-0.8-0.6-1.7-1-2.7-1.3c-1-0.3-2-0.4-3.1-0.4
											c-1.6,0-3.2,0.1-4.8,0.5c-1.5,0.4-3,0.9-4.5,1.6c-0.3,0.1-0.7,0.2-1,0.3c-0.3,0.1-0.6,0.2-0.9,0.2c-1,0-1.9-0.4-2.6-1.1
											c-0.7-0.7-1.1-1.6-1.1-2.6c0-0.1,0.1-0.6,0.2-1.5c0.1-0.9,0.3-2,0.5-3.3c0.2-1.3,0.4-2.7,0.6-4.1c0.2-1.5,0.4-2.8,0.6-4.1
											c0.2-1.2,0.4-2.3,0.5-3.1c0.1-0.5,0.2-0.9,0.3-1.3c0.1-0.9,0.5-1.7,1.1-2.3c0.6-0.7,1.5-1,2.4-1h19.5c1,0,1.9,0.4,2.5,1.1
											c0.7,0.7,1,1.6,1,2.6c0,0.9-0.4,1.9-1,2.5c-0.7,0.7-1.6,1.1-2.5,1.1H263l-1.3,8.5c1.1-0.3,2.2-0.6,3.3-0.8
											c1.1-0.2,2.2-0.3,3.3-0.3c2.1,0,4.2,0.3,6.2,0.8c1.9,0.5,3.7,1.4,5.3,2.5c1.5,1.1,2.8,2.6,3.6,4.3c0.9,1.9,1.4,4,1.4,6.1
											C284.7,125.2,284.2,127.3,283.2,129.2L283.2,129.2z"/>
									</g>
								</g>
							</g>
							<path class="st9" d="M260.6,146.7l-22.2,22.2l18.1,3.2c3.4,0.6,6.6-1.7,7.2-5.1c0.1-0.7,0.1-1.4,0-2.1L260.6,146.7z"/>
						</g>
					</g>
				</g>
				<g>
					<g>
						<defs>
							<rect id="SVGID_1_" x="149.2" y="132.9" width="101.9" height="65.2"/>
						</defs>
						<clipPath id="SVGID_2_">
							<use xlink:href="#SVGID_1_"  style="overflow:visible;"/>
						</clipPath>
						<g class="st11">
							<path class="st0" d="M199.7,158.9c-28.4,0-51.4,23-51.4,51.4s23,51.4,51.4,51.4s51.4-23,51.4-51.4
								C251.1,181.9,228.1,158.9,199.7,158.9L199.7,158.9z M199.7,246.2c-19.9,0-35.9-16.1-35.9-35.9c0-19.9,16.1-35.9,35.9-35.9
								c19.9,0,35.9,16.1,35.9,35.9l0,0C235.7,230.2,219.6,246.2,199.7,246.2L199.7,246.2z"/>
							<path class="st2" d="M199.7,163.3c-25.5,0-46.2,20.7-46.2,46.2s20.7,46.2,46.2,46.2s46.2-20.7,46.2-46.2
								S225.3,163.3,199.7,163.3L199.7,163.3z M199.7,241.8c-17.9,0-32.4-14.5-32.4-32.4s14.5-32.4,32.4-32.4s32.4,14.5,32.4,32.4
								l0,0C232.1,227.4,217.6,241.8,199.7,241.8L199.7,241.8L199.7,241.8z"/>
							<polygon class="st0" points="199.7,183.5 188,203.7 211.4,203.7 							"/>
							<polygon class="st2" points="199.7,190 188,210.2 211.4,210.2 							"/>
						</g>
					</g>
				</g>
			</g>
		</g>
	</g>
</g>
</svg>
