<?xml version="1.0" encoding="utf-8"?>
<!-- Generator: Adobe Illustrator 25.0.0, SVG Export Plug-In . SVG Version: 6.00 Build 0)  -->
<svg version="1.1" id="Layer_1" xmlns="http://www.w3.org/2000/svg" xmlns:xlink="http://www.w3.org/1999/xlink" x="0px" y="0px"
	 viewBox="0 0 800 250" style="enable-background:new 0 0 800 250;" xml:space="preserve">
<style type="text/css">
	.st0{fill:#222222;}
	.st1{opacity:0.8;fill:#FFFFFF;enable-background:new    ;}
	.st2{fill:#1C1C1C;}
	.st3{fill:#FFFFFF;}
	.st4{fill:#444444;}
	.st5{fill:#FF0000;}
	.st6{fill:#3B3B3B;}
	.st7{fill:url(#SVGID_1_);}
	.st8{fill:url(#SVGID_2_);}
	.st9{fill:#EDEDED;}
	.st10{opacity:0.52;}
	.st11{fill:#0055FF;}
	.st12{fill:#004DC9;}
	.st13{fill:#FF9D00;}
	.st14{fill:#D89F00;}
	.st15{fill:#777777;}
	.st16{opacity:0.13;enable-background:new    ;}
	.st17{fill:#32323F;}
	.st18{fill:#474757;}
	.st19{fill:#DDDDDD;}
	.st20{fill:#BAC0D8;}
	.st21{fill:#ACAFBC;}
	.st22{fill:url(#SVGID_5_);}
	.st23{fill:url(#SVGID_6_);}
	.st24{fill:#333333;}
	.st25{fill:#FF73FA;}
	.st26{opacity:0.47;fill:url(#SVGID_7_);enable-background:new    ;}
</style>
<g id="Layer_1_1_">
	<rect class="st0" width="800" height="250"/>
</g>
<g id="Layer_7">
	<circle class="st1" cx="579.5" cy="72.5" r="3.5"/>
	<circle class="st1" cx="694.5" cy="30.5" r="3.5"/>
	<circle class="st1" cx="464.5" cy="34.5" r="3.5"/>
	<circle class="st1" cx="727.5" cy="125.5" r="3.5"/>
	<circle class="st1" cx="486.5" cy="130.5" r="3.5"/>
	<circle class="st1" cx="201.5" cy="20.5" r="3.5"/>
	<circle class="st1" cx="83.5" cy="34.5" r="3.5"/>
	<circle class="st1" cx="29.5" cy="98.5" r="3.5"/>
	<g>
		<g>
			<path class="st2" d="M306,155.5c-6.4,8.9-15.2,16.4-25.9,21.3c-21.5,9.8-45.4,7-63.6-5.3c-8.4,13.6-13.7,29.4-14.8,46.3h-0.2v28
				h203.3v-28h-0.2c-1.4-20.6-8.9-39.5-20.7-54.9c-2.4,1.5-4.9,2.8-7.5,4C352,178,324.4,172.6,306,155.5z"/>
			<path class="st3" d="M303.1,123c-36.6,0-68.7,19.4-86.6,48.5c18.2,12.3,42.2,15.1,63.6,5.3c10.7-4.9,19.5-12.3,25.9-21.3
				c18.4,17.1,46,22.5,70.3,11.4c2.6-1.2,5.1-2.5,7.5-4C365.2,138.6,336,123,303.1,123z"/>
		</g>
		<g>
			<path class="st4" d="M256.1,252.1c-1.9-28-15.1-52.9-35.1-70.1c-4.7,1.8-9.8,2.8-15.2,2.8c-10.6,0-20.2-3.9-27.7-10.3
				c-4.5,5.1-9.9,9.3-16,12.4c-6.2,29-31.9,50.8-62.8,50.8c-15.2,0-29.1-5.3-40.1-14c-3.3,9-5.4,18.5-6.1,28.5H53V250h203.3v2.1
				H256.1z"/>
			<path class="st3" d="M162.2,186.9c6.1-3.1,11.5-7.3,16-12.4c7.4,6.4,17.1,10.3,27.7,10.3c5.4,0,10.5-1,15.2-2.8
				c-17.8-15.4-41-24.7-66.4-24.7c-43.7,0-81,27.6-95.4,66.3c11,8.8,24.9,14,40.1,14C130.3,237.7,156,215.9,162.2,186.9z"/>
		</g>
	</g>
	<path class="st4" d="M565.5,231.1L565.5,231.1c-2.9,0-5.2-2.3-5.2-5.2V31.3c0-2.9,2.3-5.2,5.2-5.2l0,0c2.9,0,5.2,2.3,5.2,5.2v194.6
		C570.7,228.8,568.4,231.1,565.5,231.1z"/>
	<g>
		<g>
			<rect x="570.7" y="36.3" class="st3" width="33.7" height="33.7"/>
			<rect x="570.7" y="70" width="33.7" height="33.7"/>
			<rect x="604.5" y="70.1" class="st3" width="33.7" height="33.7"/>
			<rect x="604.5" y="36.3" width="33.7" height="33.7"/>
			<rect x="638.2" y="36.3" class="st3" width="33.7" height="33.7"/>
			<rect x="638.2" y="70" width="33.7" height="33.7"/>
			<rect x="672" y="70.1" class="st3" width="33.7" height="33.7"/>
			<rect x="672" y="36.3" width="33.7" height="33.7"/>
			<rect x="705.7" y="36.3" class="st3" width="33.7" height="33.7"/>
			<rect x="705.7" y="70" width="33.7" height="33.7"/>
			<rect x="739.5" y="70.1" class="st3" width="33.7" height="33.7"/>
			<rect x="739.5" y="36.3" width="33.7" height="33.7"/>
		</g>
		<g>
			<g>
				<g>
					<path class="st5" d="M620,84.1c-0.5,0-1.1,0-1.9-0.1c-0.8-0.1-1.6-0.2-2.4-0.4c-0.9-0.2-1.8-0.4-2.6-0.7
						c-0.9-0.3-1.7-0.6-2.5-1s-1.5-0.9-2-1.4c-0.6-0.7-0.9-1.4-0.9-2.3s0.3-1.7,1-2.4c0.7-0.7,1.5-1.1,2.4-1.1
						c0.6,0,1.1,0.1,1.6,0.4c0.6,0.3,1.2,0.6,1.8,0.9c0.6,0.2,1.2,0.4,1.8,0.6s1.2,0.3,1.8,0.4s1.3,0.1,2,0.1c0.4,0,1,0,1.6-0.1
						s1.1-0.2,1.6-0.3c0.5-0.2,0.8-0.4,1.2-0.7c0.1-0.1,0.3-0.3,0.3-0.8c0-0.3-0.1-0.7-0.7-1c-0.7-0.4-1.6-0.8-2.7-1.1
						c-1.1-0.4-2.4-0.7-3.7-1.1c-1.4-0.4-2.8-0.9-4-1.6c-1.3-0.7-2.3-1.6-3.2-2.7c-0.9-1.2-1.4-2.7-1.4-4.6c0-1.6,0.4-3,1.2-4.1
						c0.7-1.1,1.7-1.9,2.9-2.5c1.1-0.6,2.3-1,3.7-1.2c1.3-0.2,2.6-0.3,3.8-0.3c0.6,0,1.3,0,2.1,0.1s1.6,0.2,2.4,0.3
						c0.8,0.1,1.6,0.3,2.3,0.5c0.8,0.2,1.5,0.5,2.1,0.7c0.6,0.3,1.1,0.7,1.5,1.1c0.4,0.5,0.6,1.2,0.6,2c0,0.9-0.3,1.8-1,2.4
						s-1.5,1-2.4,1c-0.4,0-0.8-0.1-1.3-0.3c-1-0.4-2.1-0.7-3.1-0.9s-2.1-0.3-3.2-0.3c-0.4,0-0.9,0-1.5,0c-0.5,0-1.1,0.1-1.6,0.2
						c-0.4,0.1-0.8,0.3-1.1,0.5c-0.1,0.1-0.2,0.2-0.2,0.6c0,0.1,0,0.3,0.2,0.5c0.2,0.3,0.6,0.5,1,0.8c0.4,0.3,1,0.5,1.5,0.7
						c0.6,0.2,1.2,0.4,1.8,0.6s1.1,0.3,1.6,0.5c0.5,0.1,0.9,0.3,1.2,0.3c1,0.3,2,0.7,3,1.1s1.9,0.9,2.7,1.6c0.8,0.6,1.4,1.5,1.9,2.4
						c0.5,1,0.7,2.1,0.7,3.4c0,1.7-0.4,3.2-1.1,4.4c-0.7,1.1-1.7,2.1-2.9,2.8c-1.1,0.7-2.4,1.1-3.8,1.4
						C622.7,83.9,621.3,84.1,620,84.1z"/>
					<path d="M620.6,56c0.6,0,1.3,0,2.1,0.1s1.5,0.2,2.3,0.3s1.5,0.3,2.3,0.5c0.7,0.2,1.4,0.4,1.9,0.7c0.4,0.2,0.8,0.5,1.1,0.9
						s0.4,0.8,0.4,1.3c0,0.7-0.2,1.3-0.7,1.7c-0.5,0.5-1.1,0.7-1.7,0.7c-0.3,0-0.6-0.1-0.9-0.2c-1.1-0.4-2.2-0.7-3.2-0.9
						c-1.1-0.2-2.2-0.3-3.4-0.3c-0.4,0-0.9,0-1.5,0s-1.2,0.1-1.8,0.3s-1.1,0.4-1.5,0.7s-0.6,0.8-0.6,1.4c0,0.4,0.2,0.8,0.5,1.2
						s0.7,0.7,1.2,1s1.1,0.6,1.7,0.8c0.6,0.2,1.2,0.4,1.8,0.6s1.1,0.3,1.6,0.5c0.5,0.1,0.9,0.3,1.2,0.3c1,0.3,1.9,0.7,2.9,1
						c0.9,0.4,1.7,0.8,2.4,1.4s1.2,1.3,1.7,2.1c0.4,0.8,0.6,1.8,0.6,3c0,1.5-0.3,2.8-1,3.8s-1.5,1.8-2.5,2.4s-2.2,1-3.5,1.3
						c-1.3,0.2-2.6,0.4-3.9,0.4c-0.4,0-1,0-1.8-0.1c-0.7-0.1-1.5-0.2-2.3-0.4c-0.8-0.2-1.7-0.4-2.5-0.6c-0.8-0.3-1.6-0.6-2.3-0.9
						c-0.7-0.4-1.3-0.8-1.7-1.2c-0.4-0.5-0.7-1-0.7-1.6s0.2-1.2,0.7-1.7s1-0.7,1.7-0.7c0.4,0,0.8,0.1,1.1,0.3
						c0.7,0.4,1.3,0.7,1.9,0.9c0.6,0.3,1.3,0.5,1.9,0.6c0.6,0.2,1.3,0.3,1.9,0.4c0.7,0.1,1.4,0.1,2.1,0.1c0.5,0,1,0,1.7-0.1
						c0.6-0.1,1.3-0.2,1.8-0.4c0.6-0.2,1.1-0.5,1.5-0.9s0.6-0.9,0.6-1.5c0-0.8-0.4-1.4-1.2-1.9s-1.7-0.9-2.9-1.2
						c-1.1-0.4-2.4-0.7-3.8-1.1c-1.4-0.4-2.6-0.9-3.8-1.5c-1.1-0.6-2.1-1.4-2.9-2.5c-0.8-1-1.2-2.4-1.2-4c0-1.4,0.3-2.6,1-3.6
						s1.5-1.7,2.5-2.2s2.2-0.9,3.4-1.1C618.2,56.1,619.5,56,620.6,56 M620.6,54c-1.3,0-2.6,0.1-4,0.3c-1.5,0.2-2.8,0.7-4,1.3
						c-1.3,0.7-2.4,1.6-3.2,2.8c-0.9,1.3-1.3,2.9-1.3,4.7c0,2.1,0.5,3.9,1.6,5.2c0.9,1.2,2.1,2.3,3.5,3c1.3,0.7,2.7,1.3,4.2,1.7
						c1.3,0.4,2.6,0.7,3.7,1.1c1,0.3,1.8,0.6,2.4,1c0.1,0.1,0.2,0.1,0.2,0.1l0,0c0,0,0,0,0,0.1c-0.2,0.2-0.5,0.3-0.8,0.4
						c-0.4,0.1-0.9,0.2-1.4,0.3c-0.6,0.1-1.1,0.1-1.5,0.1c-0.7,0-1.3,0-1.9-0.1c-0.6-0.1-1.1-0.2-1.7-0.3c-0.5-0.1-1.1-0.3-1.6-0.6
						c-0.6-0.2-1.1-0.5-1.7-0.8c-0.7-0.4-1.4-0.6-2.1-0.6c-1.2,0-2.3,0.5-3.1,1.4s-1.3,1.9-1.3,3.1c0,1.1,0.4,2.1,1.2,2.9
						c0.6,0.6,1.4,1.2,2.2,1.6s1.7,0.8,2.6,1c0.9,0.3,1.8,0.5,2.7,0.7s1.7,0.3,2.5,0.4s1.5,0.1,2,0.1c1.4,0,2.8-0.1,4.2-0.4
						c1.5-0.3,2.9-0.8,4.1-1.5c1.3-0.8,2.4-1.8,3.2-3.1c0.9-1.3,1.3-3,1.3-4.9c0-1.5-0.3-2.8-0.8-3.9s-1.3-2-2.2-2.7
						c-0.8-0.7-1.8-1.3-2.9-1.7c-1-0.4-2-0.8-3-1.1l0,0l0,0c-0.3-0.1-0.7-0.2-1.2-0.3c-0.5-0.1-1-0.3-1.6-0.5
						c-0.5-0.2-1.1-0.4-1.7-0.6c-0.5-0.2-1-0.4-1.4-0.6c-0.2-0.1-0.4-0.3-0.6-0.4c0.1-0.1,0.3-0.1,0.5-0.2c0.4-0.1,0.9-0.2,1.3-0.2
						c0.6,0,1.1,0,1.5,0c1,0,2,0.1,3,0.3s2,0.5,3,0.8c0.6,0.2,1.1,0.3,1.6,0.3c1.2,0,2.3-0.5,3.2-1.3c0.9-0.9,1.3-1.9,1.3-3.2
						c0-1-0.3-1.9-0.9-2.6c-0.5-0.6-1.1-1.1-1.8-1.4c-0.7-0.3-1.4-0.6-2.3-0.8c-0.8-0.2-1.6-0.4-2.4-0.5c-0.8-0.2-1.7-0.3-2.5-0.3
						C622,54.1,621.3,54,620.6,54L620.6,54z"/>
				</g>
				<g>
					<path class="st5" d="M644.9,83.9c-1,0-1.9-0.4-2.6-1.1c-0.7-0.7-1-1.6-1-2.6V62.4h-6.2c-1,0-1.8-0.3-2.4-1s-1-1.5-1-2.4
						s0.3-1.8,1-2.4c0.7-0.7,1.5-1,2.4-1h19.6c0.9,0,1.8,0.3,2.4,1c0.7,0.7,1,1.5,1,2.4s-0.4,1.8-1,2.4c-0.7,0.7-1.5,1-2.4,1h-6.2
						v17.9c0,1-0.4,1.9-1.1,2.6C646.7,83.5,645.9,83.9,644.9,83.9z"/>
					<path d="M654.7,56.5c0.7,0,1.3,0.2,1.7,0.7c0.5,0.5,0.7,1.1,0.7,1.7c0,0.7-0.2,1.3-0.7,1.7c-0.5,0.5-1.1,0.7-1.7,0.7h-7.2v18.9
						c0,0.7-0.3,1.4-0.8,1.9s-1.1,0.8-1.9,0.8s-1.3-0.3-1.8-0.8s-0.7-1.1-0.7-1.9V61.4h-7.2c-0.7,0-1.3-0.2-1.7-0.7s-0.7-1-0.7-1.7
						s0.2-1.3,0.7-1.7s1-0.7,1.7-0.7L654.7,56.5 M654.7,54.5h-19.6c-1.2,0-2.3,0.5-3.2,1.3c-0.8,0.9-1.3,1.9-1.3,3.1
						c0,1.2,0.4,2.3,1.3,3.1c0.8,0.8,1.9,1.3,3.1,1.3h5.2v16.9c0,1.3,0.5,2.4,1.3,3.3c0.9,0.9,2,1.4,3.3,1.4s2.4-0.5,3.3-1.3
						c0.9-0.9,1.3-2,1.3-3.3V63.4h5.2c1.2,0,2.3-0.4,3.1-1.3c0.9-0.8,1.3-1.9,1.3-3.2c0-1.2-0.5-2.3-1.3-3.2
						C657,54.9,655.9,54.5,654.7,54.5L654.7,54.5z"/>
				</g>
				<g>
					<path class="st5" d="M680.2,83.9c-0.7,0-1.3-0.2-1.9-0.5c-0.5-0.3-1-0.8-1.2-1.4l-1.9-4.2h-10l-1.9,4.2
						c-0.3,0.6-0.7,1.1-1.3,1.5c-0.6,0.3-1.2,0.5-1.8,0.5c-1,0-1.8-0.3-2.4-1c-0.7-0.7-1-1.5-1-2.4c0-0.5,0.1-1,0.3-1.4l10-21.9
						c0.3-0.6,0.7-1.1,1.2-1.4c0.6-0.4,1.2-0.6,1.8-0.6s1.3,0.2,1.8,0.5c0.6,0.4,1,0.8,1.3,1.5l10,21.9c0.2,0.5,0.3,1,0.3,1.4
						c0,0.9-0.3,1.8-1,2.4C682,83.5,681.1,83.9,680.2,83.9z M672.3,71.3l-2.1-4.7l-2.1,4.7H672.3z"/>
					<path d="M670.1,56.1c0.5,0,0.9,0.1,1.3,0.4c0.4,0.2,0.7,0.6,0.9,1l10,21.9c0.1,0.3,0.2,0.7,0.2,1c0,0.7-0.2,1.3-0.7,1.7
						s-1,0.7-1.7,0.7c-0.5,0-0.9-0.1-1.3-0.4c-0.4-0.2-0.7-0.6-0.9-1l-2.2-4.8h-11.3l-2.2,4.8c-0.2,0.4-0.5,0.8-0.9,1
						s-0.8,0.4-1.3,0.4c-0.7,0-1.3-0.2-1.7-0.7c-0.5-0.5-0.7-1.1-0.7-1.7c0-0.3,0.1-0.7,0.2-1l10-21.9c0.2-0.4,0.5-0.8,0.9-1
						C669.2,56.3,669.6,56.1,670.1,56.1 M666.5,72.3h7.3l-3.7-8.1L666.5,72.3 M670.1,54.1c-0.9,0-1.7,0.2-2.4,0.7s-1.2,1.1-1.6,1.9
						l-10,21.8c-0.3,0.6-0.4,1.2-0.4,1.8c0,1.2,0.5,2.3,1.3,3.2c0.9,0.9,1.9,1.3,3.2,1.3c0.9,0,1.6-0.2,2.4-0.7
						c0.7-0.5,1.3-1.1,1.6-1.9l1.6-3.6h8.7l1.6,3.6c0.4,0.8,0.9,1.4,1.6,1.9c0.7,0.5,1.5,0.7,2.4,0.7c1.2,0,2.3-0.5,3.1-1.3
						s1.3-1.9,1.3-3.1c0-0.6-0.1-1.2-0.3-1.7v-0.1v-0.1l-10-21.9c-0.4-0.8-1-1.5-1.7-1.9C671.7,54.4,670.9,54.1,670.1,54.1
						L670.1,54.1z M669.6,70.3l0.6-1.3l0.6,1.3H669.6L669.6,70.3z"/>
				</g>
				<g>
					<path class="st5" d="M706.3,83.9c-0.7,0-1.3-0.2-1.8-0.5c-0.6-0.3-1-0.8-1.3-1.4c-0.1-0.2-0.3-0.5-0.5-1l-0.8-1.7
						c-0.4-0.8-0.7-1.5-1.1-2.3c-0.4-0.8-0.8-1.5-1.1-2.2c-0.3-0.6-0.6-1.2-0.8-1.6c0-0.1-0.1-0.1-0.1-0.2h-5.5v7.3
						c0,1-0.4,1.9-1.1,2.6c-0.7,0.7-1.6,1-2.5,1c-1,0-1.9-0.3-2.5-1c-0.7-0.7-1-1.5-1-2.5V59.1c0-1,0.3-1.9,1-2.5
						c0.7-0.7,1.5-1,2.5-1h9.7c1.3,0,2.7,0.1,3.9,0.4c1.3,0.3,2.4,0.8,3.4,1.5s1.8,1.7,2.4,2.8c0.6,1.1,0.9,2.5,0.9,4.1
						c0,1.7-0.4,3.3-1.2,4.6c-0.6,1.1-1.6,2-2.7,2.6c0,0.1,0.1,0.1,0.1,0.2c0.3,0.5,0.6,1.1,0.9,1.7c0.3,0.6,0.6,1.3,1,1.9
						c0.3,0.7,0.6,1.3,0.9,1.9c0.3,0.6,0.5,1.2,0.7,1.7c0.2,0.6,0.3,1,0.3,1.4c0,1-0.3,1.8-1,2.5C708.1,83.5,707.3,83.9,706.3,83.9z
						 M700.1,66.6c0.8,0,1.4-0.2,1.9-0.6c0.3-0.2,0.6-0.6,0.6-1.5c0-1-0.4-1.4-0.6-1.6c-0.5-0.4-1.1-0.6-1.9-0.6h-6.8v4.3
						C693.3,66.6,700.1,66.6,700.1,66.6z"/>
					<path d="M699.4,56.5c1.3,0,2.5,0.1,3.7,0.4c1.2,0.3,2.2,0.7,3,1.4c0.9,0.6,1.5,1.4,2.1,2.4s0.8,2.2,0.8,3.6
						c0,1.5-0.4,2.9-1.1,4.1c-0.7,1.2-1.8,2.1-3.2,2.7c0.1,0.3,0.3,0.6,0.6,1.1s0.5,1,0.9,1.7c0.3,0.6,0.6,1.3,1,1.9
						s0.6,1.3,0.9,1.9c0.3,0.6,0.5,1.1,0.7,1.6s0.3,0.8,0.3,1c0,0.7-0.2,1.3-0.7,1.8s-1.1,0.7-1.8,0.7c-0.5,0-0.9-0.1-1.3-0.4
						c-0.4-0.2-0.7-0.6-0.9-1c-0.1-0.1-0.2-0.5-0.5-1s-0.5-1.1-0.9-1.8c-0.3-0.7-0.7-1.4-1.1-2.2c-0.4-0.8-0.7-1.5-1.1-2.1
						c-0.3-0.7-0.6-1.2-0.8-1.6s-0.3-0.7-0.3-0.7h-7.2v8.3c0,0.7-0.3,1.3-0.8,1.8s-1.1,0.7-1.8,0.7s-1.3-0.2-1.8-0.7
						s-0.7-1.1-0.7-1.8V59.1c0-0.7,0.2-1.3,0.7-1.8s1.1-0.7,1.8-0.7L699.4,56.5 M692.3,67.6h7.8c1,0,1.8-0.3,2.5-0.8
						s1.1-1.3,1.1-2.3s-0.3-1.8-1-2.4c-0.7-0.5-1.5-0.8-2.5-0.8h-7.8L692.3,67.6 M699.4,54.5h-9.7c-1.3,0-2.4,0.5-3.3,1.3
						c-0.9,0.9-1.3,2-1.3,3.3v21.2c0,1.3,0.5,2.4,1.3,3.3c0.9,0.9,2,1.3,3.3,1.3c1.2,0,2.3-0.4,3.2-1.3s1.4-2,1.4-3.3V74h3.9
						c0.2,0.4,0.4,0.8,0.6,1.2c0.3,0.7,0.7,1.4,1.1,2.2c0.4,0.8,0.7,1.5,1.1,2.2v0.1l0.8,1.7c0.3,0.6,0.4,0.9,0.5,1
						c0.4,0.8,0.9,1.4,1.6,1.8c0.7,0.4,1.5,0.7,2.4,0.7c1.2,0,2.3-0.5,3.2-1.3c0.9-0.9,1.3-2,1.3-3.2c0-0.5-0.1-1-0.4-1.7
						c-0.2-0.5-0.4-1.1-0.7-1.7s-0.6-1.3-0.9-1.9c-0.3-0.7-0.7-1.3-1-2c-0.2-0.4-0.4-0.8-0.6-1.1c0.9-0.7,1.7-1.5,2.3-2.5
						c0.9-1.5,1.3-3.2,1.3-5.1c0-1.7-0.3-3.3-1-4.6s-1.5-2.3-2.7-3.1c-1.1-0.8-2.3-1.3-3.7-1.7C702.2,54.7,700.8,54.5,699.4,54.5
						L699.4,54.5z M694.3,63.3h5.8c0.7,0,1.1,0.2,1.3,0.4c0.1,0.1,0.3,0.2,0.3,0.8c0,0.5-0.2,0.7-0.2,0.7c-0.4,0.3-0.8,0.4-1.3,0.4
						h-5.8L694.3,63.3L694.3,63.3z"/>
				</g>
				<g>
					<path class="st5" d="M723.8,83.9c-1,0-1.9-0.4-2.6-1.1c-0.7-0.7-1-1.6-1-2.6V62.4H714c-1,0-1.8-0.3-2.4-1s-1-1.5-1-2.4
						s0.3-1.8,1-2.4c0.7-0.7,1.5-1,2.4-1h19.6c1,0,1.8,0.3,2.4,1c0.7,0.7,1,1.5,1,2.4s-0.4,1.8-1,2.4c-0.7,0.7-1.5,1-2.4,1h-6.2
						v17.9c0,1-0.4,1.9-1.1,2.6C725.7,83.5,724.8,83.9,723.8,83.9z"/>
					<path d="M733.6,56.5c0.7,0,1.3,0.2,1.7,0.7c0.5,0.5,0.7,1.1,0.7,1.7c0,0.7-0.2,1.3-0.7,1.7c-0.5,0.5-1.1,0.7-1.7,0.7h-7.2v18.9
						c0,0.7-0.3,1.4-0.8,1.9s-1.1,0.8-1.9,0.8s-1.3-0.3-1.8-0.8s-0.7-1.1-0.7-1.9V61.4H714c-0.7,0-1.3-0.2-1.7-0.7s-0.7-1-0.7-1.7
						s0.2-1.3,0.7-1.7s1-0.7,1.7-0.7L733.6,56.5 M733.6,54.5H714c-1.2,0-2.3,0.5-3.2,1.3c-0.8,0.9-1.3,1.9-1.3,3.1
						c0,1.2,0.4,2.3,1.3,3.1c0.8,0.8,1.9,1.3,3.1,1.3h5.2v16.9c0,1.3,0.5,2.4,1.3,3.3c0.9,0.9,2,1.4,3.3,1.4s2.4-0.5,3.3-1.3
						c0.9-0.9,1.3-2,1.3-3.3V63.4h5.2c1.2,0,2.3-0.4,3.1-1.3c0.9-0.8,1.3-1.9,1.3-3.2c0-1.2-0.5-2.3-1.3-3.2
						C735.9,54.9,734.8,54.5,733.6,54.5L733.6,54.5z"/>
				</g>
			</g>
		</g>
		<path class="st4" d="M778.4,231.1L778.4,231.1c-2.9,0-5.2-2.3-5.2-5.2V31.3c0-2.9,2.3-5.2,5.2-5.2l0,0c2.9,0,5.2,2.3,5.2,5.2
			v194.6C783.6,228.8,781.2,231.1,778.4,231.1z"/>
	</g>
</g>
<g id="Layer_5">
	<rect y="220" class="st6" width="800" height="30"/>
	<rect x="15" y="220" class="st3" width="99" height="6"/>
	<rect x="221" y="220" class="st3" width="99" height="6"/>
	<rect x="429" y="220" class="st3" width="99" height="6"/>
	<rect x="635" y="220" class="st3" width="99" height="6"/>
</g>
<g id="Layer_6">
</g>
<linearGradient id="SVGID_1_" gradientUnits="userSpaceOnUse" x1="633.4" y1="66" x2="679.2798" y2="66" gradientTransform="matrix(1 0 0 -1 0 252)">
	<stop  offset="0" style="stop-color:#FCEE21"/>
	<stop  offset="1" style="stop-color:#FCEE21;stop-opacity:0"/>
</linearGradient>
<polygon class="st7" points="679.2,210.9 633.4,192.8 633.4,180.5 679.2,161.1 "/>
<g>
	<g>
		<g id="Layer_2_1_">
			<g id="Premium">
				<g id="premium-earth">
					
						<radialGradient id="SVGID_2_" cx="450.2208" cy="80.9315" r="8.0173" gradientTransform="matrix(1.03 0.1 0.11 -1.13 2.51 191.08)" gradientUnits="userSpaceOnUse">
						<stop  offset="0" style="stop-color:#DCDCDC"/>
						<stop  offset="0.69" style="stop-color:#A3A3A3"/>
						<stop  offset="1" style="stop-color:#878787"/>
					</radialGradient>
					<polygon class="st8" points="476.8,152 466.2,136.4 478.2,137.6 484.1,152.7 					"/>
					<path class="st9" d="M592,163l20.1,2c15.7,1.6,27.1,16.8,25.4,33.9l-1.1,11.2c2,0.2,3.5,2.1,3.3,4.3c-0.2,2.2-2,3.8-4.1,3.6
						l-129.7-12.9l-46.3-11.8c-1.9-0.2-3.3-2-3.1-4.1s1.9-3.6,3.8-3.4l2.8-29.7c0.5-5,4.6-8.6,9.1-8.2l30.2,3l30.4-13.1
						c2.2-0.8,4.5-1.3,6.8-1.3c3.7,0,29.2,3.7,29.2,3.7s8.2-0.4,11.8,7.6s11.7,15.7,11.7,15.7"/>
					<g class="st10">
						<g>
							<defs>
								<path id="SVGID_3_" d="M592,163l20.1,2c15.7,1.6,27.1,16.8,25.4,33.9l-1.1,11.2c2,0.2,3.5,2.1,3.3,4.3
									c-0.2,2.2-2,3.8-4.1,3.6l-129.7-12.9l-46.3-11.8c-1.9-0.2-3.3-2-3.1-4.1s1.9-3.6,3.8-3.4l2.8-29.7c0.5-5,4.6-8.6,9.1-8.2
									l30.2,3l30.4-13.1c2.2-0.8,4.5-1.3,6.8-1.3c3.7,0,29.2,3.7,29.2,3.7s8.2-0.4,11.8,7.6s11.7,15.7,11.7,15.7"/>
							</defs>
							<clipPath id="SVGID_4_">
								<use xlink:href="#SVGID_3_"  style="overflow:visible;"/>
							</clipPath>
						</g>
					</g>
					<g>
						
							<ellipse transform="matrix(0.4932 -0.8699 0.8699 0.4932 115.3955 561.4338)" class="st11" cx="539.6" cy="181.7" rx="27.4" ry="18.7"/>
						<path class="st12" d="M532.8,208c-2.5,0-5-0.6-7.2-1.8c-4.6-2.6-7.4-7.6-8-14.1c-0.5-6.4,1.2-13.5,4.9-20l0,0
							c3.7-6.5,8.9-11.6,14.7-14.5c5.9-2.9,11.6-3,16.2-0.4c4.6,2.6,7.4,7.6,8,14.1c0.5,6.4-1.2,13.5-4.9,20
							C550.7,201.7,541.2,208,532.8,208z M523.9,172.8c-3.5,6.2-5.2,13-4.7,19.1c0.5,6,3.1,10.6,7.2,12.9
							c8.6,4.9,21.5-1.5,28.7-14.3c3.5-6.2,5.2-13,4.7-19.1c-0.5-6-3.1-10.6-7.2-12.9c-4.1-2.3-9.4-2.2-14.7,0.5
							C532.4,161.7,527.5,166.6,523.9,172.8L523.9,172.8z"/>
					</g>
					<g>
						
							<ellipse transform="matrix(0.4932 -0.8699 0.8699 0.4932 108.943 542.6081)" class="st13" cx="520.2" cy="177.8" rx="27.4" ry="18.7"/>
						<path class="st14" d="M513.4,204.3c-2.6,0-5-0.6-7.2-1.8c-4.6-2.6-7.5-7.7-8-14.2c-0.5-6.4,1.2-13.6,4.9-20.1l0.8,0.5
							l-0.8-0.5c3.7-6.5,8.9-11.7,14.7-14.5c5.9-2.9,11.7-3,16.4-0.4c9.4,5.4,10.8,20.8,3.1,34.3
							C531.4,197.9,521.8,204.3,513.4,204.3z M526.9,153.1c-2.6,0-5.4,0.7-8.3,2.1c-5.5,2.7-10.4,7.6-13.9,13.8l0,0
							c-3.5,6.2-5.2,13-4.7,19c0.5,5.9,3,10.5,7.1,12.8c1.9,1.1,4.1,1.6,6.4,1.6c7.7,0,16.6-6,22.2-15.9c7.2-12.7,6.1-27-2.4-31.8
							C531.3,153.7,529.2,153.1,526.9,153.1z"/>
					</g>
					<path class="st15" d="M636.4,210.1c2,0.2,3.5,2.1,3.3,4.3c-0.2,2.2-2,3.8-4.1,3.6l-129.7-12.9l-46.3-11.8
						c-1.9-0.2-3.3-2-3.1-4.1s1.9-3.6,3.8-3.4l1.6-18l6.9,8.7l-1.4,9.9l-0.2,2.4l38.2,9.4L636.4,210.1z"/>
					<path class="st16" d="M637.3,200.9c0,0-7.5-32.1-47-24.4l-127.1-20.5c0.5-5,4.6-8.6,9.1-8.2l30.2,3
						c5.1,0.5,80.8,18.5,80.8,18.5l8.8-6.4l20.1,2C612.1,165,640.7,167.1,637.3,200.9z"/>
					<ellipse class="st17" cx="492.1" cy="195.8" rx="25.8" ry="25.7"/>
					<ellipse class="st18" cx="492.1" cy="195.8" rx="25.1" ry="25"/>
					<ellipse cx="492.1" cy="195.8" rx="18.9" ry="18.8"/>
					<ellipse class="st3" cx="492.1" cy="195.8" rx="18" ry="17.9"/>
					<ellipse class="st19" cx="492.1" cy="195.8" rx="17.1" ry="17"/>
					<ellipse class="st20" cx="492.1" cy="195.8" rx="10.6" ry="10.5"/>
					<ellipse class="st21" cx="492.1" cy="195.8" rx="9.7" ry="9.6"/>
					<ellipse class="st17" cx="609.8" cy="205.6" rx="19.5" ry="19.4"/>
					<ellipse class="st18" cx="609.8" cy="205.6" rx="19" ry="18.9"/>
					<ellipse cx="609.8" cy="205.6" rx="14.3" ry="14.2"/>
					<ellipse class="st3" cx="609.8" cy="205.6" rx="13.6" ry="13.5"/>
					<ellipse class="st19" cx="609.8" cy="205.6" rx="12.9" ry="12.8"/>
					<ellipse class="st20" cx="609.8" cy="205.6" rx="8" ry="8"/>
					<ellipse class="st21" cx="609.8" cy="205.6" rx="7.3" ry="7.3"/>
					
						<linearGradient id="SVGID_5_" gradientUnits="userSpaceOnUse" x1="491.9768" y1="110.3377" x2="537.3661" y2="110.3377" gradientTransform="matrix(1 0.1 0.1 -1 28.86 214.27)">
						<stop  offset="0" style="stop-color:#C9E7F9"/>
						<stop  offset="1" style="stop-color:#AAFFF9"/>
					</linearGradient>
					<path class="st22" d="M575.6,167.9c-8.5-22.2-14.1-21.9-14.1-21.9s-13.8-1.8-18.3-1.8c-4.4,0-6.2,2.6-6.2,2.6l-5.1,6.3
						c0,0-3.3,3.7,3.9,5.2C541.7,159.5,575.6,167.9,575.6,167.9z"/>
					
						<linearGradient id="SVGID_6_" gradientUnits="userSpaceOnUse" x1="533.0801" y1="110.0621" x2="553.526" y2="110.0621" gradientTransform="matrix(1 0.1 0.1 -1 28.86 214.27)">
						<stop  offset="0" style="stop-color:#C9E7F9"/>
						<stop  offset="1" style="stop-color:#AAFFF9"/>
					</linearGradient>
					<path class="st23" d="M580.6,147.8l11.8,15.3l-8,6L574,151.2c0,0-2-2.6,0.4-3.6L580.6,147.8z"/>
				</g>
			</g>
		</g>
	</g>
	<g>
		<g>
			<path class="st24" d="M532.1,198.6l-2-0.2c-0.2,0-0.3-0.2-0.4-0.4l-0.1-1l-3.2-0.3l-0.7,1c-0.1,0.1-0.2,0.2-0.3,0.2c0,0,0,0,0,0
				l-2-0.2c-0.1,0-0.3-0.1-0.3-0.2c-0.1-0.1,0-0.3,0-0.4l5.6-7.6c0.1-0.1,0.2-0.2,0.3-0.2c0,0,0,0,0,0l2.1,0.2
				c0.2,0,0.3,0.2,0.4,0.3l1,8.3c0,0.1,0,0.2-0.1,0.3C532.4,198.5,532.3,198.6,532.1,198.6C532.1,198.6,532.1,198.6,532.1,198.6z
				 M529.4,194.6l-0.2-1.6l-1.1,1.5L529.4,194.6z"/>
			<path class="st9" d="M529,189.7l2.1,0.2l1,8.3l-2-0.2l-0.1-1.3l-3.7-0.4l-0.9,1.2l-2-0.2L529,189.7 M529.8,195.1l-0.4-3.1
				l-2.1,2.8L529.8,195.1 M529,188.9c-0.3,0-0.5,0.1-0.6,0.3l-5.6,7.6c-0.2,0.2-0.2,0.5-0.1,0.8s0.4,0.4,0.6,0.5l2,0.2
				c0,0,0.1,0,0.1,0c0.3,0,0.5-0.1,0.6-0.3l0.6-0.8l2.6,0.3l0.1,0.7c0,0.4,0.3,0.7,0.7,0.7l2,0.2c0,0,0.1,0,0.1,0
				c0.2,0,0.4-0.1,0.6-0.2c0.2-0.2,0.2-0.4,0.2-0.7l-1-8.3c0-0.4-0.3-0.7-0.7-0.7L529,188.9C529.1,188.9,529.1,188.9,529,188.9
				L529,188.9z M528.9,194.2L528.9,194.2L528.9,194.2L528.9,194.2L528.9,194.2z"/>
		</g>
		<g>
			<path class="st24" d="M535.2,198.9C535.2,198.9,535.2,198.9,535.2,198.9l-1.9-0.2c-0.1,0-0.2-0.1-0.3-0.2
				c-0.1-0.1-0.1-0.2-0.1-0.3l2.3-7.9c0-0.2,0.2-0.3,0.4-0.3c0,0,0,0,0,0l3.6,0.4c0.9,0.1,1.7,0.5,2.1,1.1c0.5,0.7,0.6,1.7,0.3,2.7
				c-0.4,1.5-1.8,3.1-3.8,3.1c-0.1,0-0.3,0-0.4,0l-1.3-0.1l-0.4,1.5C535.6,198.8,535.4,198.9,535.2,198.9z M537.8,194.7
				c0,0,0.1,0,0.1,0c0.5,0,0.9-0.3,1.1-0.9c0.1-0.2,0.1-0.5,0-0.7c-0.1-0.2-0.4-0.2-0.5-0.2l-1.1-0.1l-0.5,1.8L537.8,194.7z"/>
			<path class="st9" d="M535.6,190.4l3.6,0.4c2,0.2,2.5,1.8,2,3.4c-0.4,1.5-1.7,2.8-3.5,2.8c-0.1,0-0.2,0-0.4,0l-1.7-0.2l-0.5,1.8
				l-1.9-0.2L535.6,190.4 M537.9,195.1c0.7,0,1.2-0.4,1.5-1.2c0.2-0.9-0.1-1.3-0.9-1.4l-1.5-0.1l-0.7,2.6l1.5,0.1
				C537.8,195.1,537.8,195.1,537.9,195.1 M535.6,189.6c-0.4,0-0.7,0.2-0.8,0.6l-2.3,7.9c-0.1,0.2,0,0.5,0.1,0.7s0.3,0.3,0.6,0.3
				l1.9,0.2c0,0,0.1,0,0.1,0c0.4,0,0.7-0.2,0.8-0.6l0.3-1.2l1,0.1c0.1,0,0.3,0,0.4,0c2.2,0,3.7-1.7,4.2-3.4c0.3-1.1,0.2-2.2-0.4-3.1
				c-0.4-0.5-1.1-1.2-2.4-1.3L535.6,189.6C535.7,189.6,535.7,189.6,535.6,189.6L535.6,189.6z M537.3,194.2l0.3-1.1l0.8,0.1
				c0.2,0,0.2,0.1,0.2,0.1c0,0,0,0.1,0,0.3c-0.1,0.4-0.4,0.6-0.7,0.6c0,0-0.1,0-0.1,0L537.3,194.2L537.3,194.2z"/>
		</g>
		<g>
			<path class="st24" d="M547.2,200.1C547.2,200.1,547.1,200.1,547.2,200.1l-5.9-0.6c-0.1,0-0.2-0.1-0.3-0.2
				c-0.1-0.1-0.1-0.2-0.1-0.3l2.3-7.9c0-0.2,0.2-0.3,0.4-0.3c0,0,0,0,0,0l5.9,0.6c0.1,0,0.2,0.1,0.3,0.2c0.1,0.1,0.1,0.2,0.1,0.3
				l-0.5,1.8c0,0.2-0.2,0.3-0.4,0.3c0,0,0,0,0,0l-3.7-0.4l-0.2,0.6l2.9,0.3c0.1,0,0.2,0.1,0.3,0.2c0.1,0.1,0.1,0.2,0.1,0.3l-0.5,1.7
				c0,0.2-0.2,0.3-0.4,0.3c0,0,0,0,0,0l-3-0.3l-0.2,0.6l3.6,0.4c0.1,0,0.2,0.1,0.3,0.2c0.1,0.1,0.1,0.2,0.1,0.3l-0.5,1.8
				C547.5,200,547.3,200.1,547.2,200.1z"/>
			<path class="st9" d="M543.5,191.2l5.9,0.6l-0.5,1.8l-4-0.4l-0.4,1.4l3.4,0.3l-0.5,1.7l-3.4-0.3l-0.4,1.4l4,0.4l-0.5,1.8l-5.9-0.6
				L543.5,191.2 M543.5,190.4c-0.4,0-0.7,0.2-0.8,0.6l-2.3,7.9c-0.1,0.2,0,0.5,0.1,0.7c0.1,0.2,0.3,0.3,0.6,0.3l5.9,0.6
				c0,0,0.1,0,0.1,0c0.4,0,0.7-0.2,0.8-0.6l0.5-1.8c0.1-0.2,0-0.5-0.1-0.7c-0.1-0.2-0.3-0.3-0.5-0.3c0.1-0.1,0.3-0.3,0.3-0.4
				l0.5-1.7c0.1-0.2,0-0.5-0.1-0.7c0,0-0.1-0.1-0.1-0.1l0.4,0c0,0,0.1,0,0.1,0c0.4,0,0.7-0.2,0.8-0.6l0.5-1.8c0.1-0.2,0-0.5-0.1-0.7
				c-0.1-0.2-0.3-0.3-0.6-0.3L543.5,190.4C543.6,190.4,543.6,190.4,543.5,190.4L543.5,190.4z"/>
		</g>
		<g>
			<path class="st24" d="M555.3,200.9C555.2,200.9,555.2,200.9,555.3,200.9l-2.4-0.2c-0.2,0-0.3-0.1-0.3-0.3l-0.5-1.8l-0.8-0.1
				l-0.5,1.7c0,0.2-0.2,0.3-0.4,0.3c0,0,0,0,0,0l-1.9-0.2c-0.1,0-0.2-0.1-0.3-0.2c-0.1-0.1-0.1-0.2-0.1-0.3l2.3-7.9
				c0-0.2,0.2-0.3,0.4-0.3c0,0,0,0,0,0l3.7,0.4c0.8,0.1,1.5,0.5,1.9,1.1c0.5,0.7,0.6,1.7,0.3,2.7c-0.3,1.1-1.1,2-2,2.5l0.8,2.2
				c0,0.1,0,0.3-0.1,0.4C555.5,200.8,555.4,200.9,555.3,200.9z M553.1,196C553.2,196,553.2,196,553.1,196c0.5,0,0.9-0.4,1.1-0.8
				c0.1-0.2,0-0.4-0.1-0.6c-0.1-0.1-0.2-0.2-0.4-0.2l-1.3-0.1l-0.5,1.6L553.1,196z"/>
			<path class="st9" d="M550.8,191.9l3.7,0.4c1.6,0.2,2.4,1.5,1.9,3.3c-0.3,1.1-1.1,2.1-2.1,2.4l0.9,2.6l-2.3-0.2l-0.6-2.1L551,198
				l-0.6,2l-1.9-0.2L550.8,191.9 M553.2,196.4c0.6,0,1.2-0.5,1.4-1.1c0.2-0.7-0.2-1.3-0.8-1.3l-1.6-0.2l-0.7,2.4l1.6,0.2
				C553.1,196.4,553.2,196.4,553.2,196.4 M550.8,191.1c-0.4,0-0.7,0.2-0.8,0.6l-2.3,7.9c-0.1,0.2,0,0.5,0.1,0.7
				c0.1,0.2,0.3,0.3,0.6,0.3l1.9,0.2c0,0,0.1,0,0.1,0c0.4,0,0.7-0.2,0.8-0.6l0.4-1.3l0.2,0l0.4,1.6c0.1,0.3,0.4,0.5,0.7,0.6l2.3,0.2
				c0,0,0.1,0,0.1,0c0.2,0,0.5-0.1,0.6-0.3c0.2-0.2,0.2-0.5,0.1-0.8l-0.7-1.9c0.9-0.6,1.6-1.5,1.9-2.6c0.3-1.1,0.2-2.2-0.4-3
				c-0.5-0.7-1.3-1.2-2.2-1.3L550.8,191.1C550.9,191.1,550.9,191.1,550.8,191.1L550.8,191.1z M552.5,195.6l0.2-0.9l0.9,0.1
				c0.1,0,0.1,0,0.1,0c0,0,0,0.1,0,0.3c-0.1,0.3-0.4,0.5-0.6,0.5c0,0,0,0,0,0L552.5,195.6L552.5,195.6z"/>
		</g>
		<g>
			<path class="st24" d="M560.3,201.4C560.3,201.4,560.3,201.4,560.3,201.4l-1.9-0.2c-0.1,0-0.2-0.1-0.3-0.2
				c-0.1-0.1-0.1-0.2-0.1-0.3l1.6-5.7l-2.3-0.2c-0.1,0-0.2-0.1-0.3-0.2c-0.1-0.1-0.1-0.2-0.1-0.3l0.5-1.8c0-0.2,0.2-0.3,0.4-0.3
				c0,0,0,0,0,0l7.3,0.7c0.1,0,0.2,0.1,0.3,0.2c0.1,0.1,0.1,0.2,0.1,0.3l-0.5,1.8c0,0.2-0.2,0.3-0.4,0.3c0,0,0,0,0,0l-2.4-0.2
				l-1.7,5.8C560.6,201.3,560.5,201.4,560.3,201.4z"/>
			<path class="st9" d="M557.9,192.6l7.3,0.7l-0.5,1.8l-2.7-0.3l-1.8,6.2l-1.9-0.2l1.8-6.2l-2.7-0.3L557.9,192.6 M557.9,191.8
				c-0.4,0-0.7,0.2-0.8,0.6l-0.5,1.8c-0.1,0.2,0,0.5,0.1,0.7c0.1,0.2,0.3,0.3,0.6,0.3l1.8,0.2l-1.5,5.3c-0.1,0.2,0,0.5,0.1,0.7
				s0.3,0.3,0.6,0.3l1.9,0.2c0,0,0.1,0,0.1,0c0.4,0,0.7-0.2,0.8-0.6l1.6-5.5l2.1,0.2c0,0,0.1,0,0.1,0c0.4,0,0.7-0.2,0.8-0.6l0.5-1.8
				c0.1-0.2,0-0.5-0.1-0.7c-0.1-0.2-0.3-0.3-0.6-0.3L557.9,191.8C558,191.8,558,191.8,557.9,191.8L557.9,191.8z"/>
		</g>
		<g>
			<path class="st24" d="M568,202.3c-0.2,0-0.3,0-0.5,0c-1.1-0.1-2-0.6-2.5-1.4c-0.6-0.9-0.7-2.2-0.3-3.7l1.1-3.9
				c0-0.2,0.2-0.3,0.4-0.3c0,0,0,0,0,0l1.9,0.2c0.1,0,0.2,0.1,0.3,0.2c0.1,0.1,0.1,0.2,0.1,0.3l-1.1,3.9c-0.2,0.8-0.2,1.4,0,1.7
				c0.1,0.2,0.4,0.3,0.8,0.4c0.1,0,0.1,0,0.2,0c0.9,0,1.6-0.7,2-2l1.1-3.9c0-0.2,0.2-0.3,0.4-0.3c0,0,0,0,0,0l1.9,0.2
				c0.1,0,0.2,0.1,0.3,0.2c0.1,0.1,0.1,0.2,0.1,0.3l-1.1,3.9C572.2,200.7,570.2,202.3,568,202.3z"/>
			<path class="st9" d="M566.2,193.4l1.9,0.2l-1.1,3.9c-0.4,1.5-0.1,2.5,1.1,2.6c0.1,0,0.1,0,0.2,0c1.1,0,2-0.8,2.4-2.3l1.1-3.9
				l1.9,0.2l-1.1,3.9c-0.7,2.5-2.5,3.9-4.5,3.9c-0.1,0-0.3,0-0.4,0c-2.2-0.2-3.2-2-2.5-4.6L566.2,193.4 M566.2,192.6
				c-0.4,0-0.7,0.2-0.8,0.6l-1.1,3.9c-0.5,1.6-0.3,3,0.4,4.1c0.6,0.9,1.6,1.4,2.8,1.5c0.2,0,0.3,0,0.5,0c2.5,0,4.5-1.7,5.3-4.4
				l1.1-3.9c0.1-0.2,0-0.5-0.1-0.7s-0.3-0.3-0.6-0.3l-1.9-0.2c0,0-0.1,0-0.1,0c-0.4,0-0.7,0.2-0.8,0.6l-1.1,3.9
				c-0.3,1.1-0.9,1.7-1.6,1.7c0,0-0.1,0-0.1,0c-0.3,0-0.4-0.2-0.5-0.2c-0.2-0.2-0.2-0.8,0-1.4l1.1-3.9c0.1-0.2,0-0.5-0.1-0.7
				s-0.3-0.3-0.6-0.3L566.2,192.6C566.2,192.6,566.2,192.6,566.2,192.6L566.2,192.6z"/>
		</g>
		<g>
			<path class="st24" d="M579.4,203.3C579.3,203.3,579.3,203.3,579.4,203.3l-2.4-0.2c-0.2,0-0.3-0.1-0.3-0.3l-0.5-1.8l-0.8-0.1
				l-0.5,1.7c0,0.2-0.2,0.3-0.4,0.3c0,0,0,0,0,0l-1.9-0.2c-0.1,0-0.2-0.1-0.3-0.2c-0.1-0.1-0.1-0.2-0.1-0.3l2.3-7.9
				c0-0.2,0.2-0.3,0.4-0.3c0,0,0,0,0,0l3.7,0.4c0.8,0.1,1.5,0.5,1.9,1.1c0.5,0.7,0.6,1.7,0.3,2.7c-0.3,1.1-1.1,2-2,2.5l0.8,2.2
				c0,0.1,0,0.3-0.1,0.4C579.6,203.2,579.5,203.3,579.4,203.3z M577.2,198.4C577.3,198.4,577.3,198.4,577.2,198.4
				c0.5,0,0.9-0.4,1.1-0.8c0.1-0.2,0-0.4-0.1-0.6c-0.1-0.1-0.2-0.2-0.4-0.2l-1.3-0.1l-0.5,1.6L577.2,198.4z"/>
			<path class="st9" d="M574.9,194.3l3.7,0.4c1.6,0.2,2.4,1.5,1.9,3.3c-0.3,1.1-1.1,2.1-2.1,2.4l0.9,2.6l-2.3-0.2l-0.6-2.1l-1.4-0.1
				l-0.6,2l-1.9-0.2L574.9,194.3 M577.3,198.8c0.6,0,1.2-0.5,1.4-1.1c0.2-0.7-0.2-1.3-0.8-1.3l-1.6-0.2l-0.7,2.4l1.6,0.2
				C577.2,198.8,577.3,198.8,577.3,198.8 M574.9,193.5c-0.4,0-0.7,0.2-0.8,0.6l-2.3,7.9c-0.1,0.2,0,0.5,0.1,0.7s0.3,0.3,0.6,0.3
				l1.9,0.2c0,0,0.1,0,0.1,0c0.4,0,0.7-0.2,0.8-0.6l0.4-1.3l0.2,0l0.4,1.6c0.1,0.3,0.4,0.5,0.7,0.6l2.3,0.2c0,0,0.1,0,0.1,0
				c0.2,0,0.5-0.1,0.6-0.3c0.2-0.2,0.2-0.5,0.1-0.8l-0.7-1.9c0.9-0.6,1.6-1.5,1.9-2.6c0.3-1.1,0.2-2.2-0.4-3
				c-0.5-0.7-1.3-1.2-2.2-1.3L574.9,193.5C575,193.5,575,193.5,574.9,193.5L574.9,193.5z M576.6,198l0.2-0.9l0.9,0.1
				c0.1,0,0.1,0,0.1,0c0,0,0,0.1,0,0.3c-0.1,0.3-0.4,0.5-0.6,0.5c0,0,0,0,0,0L576.6,198L576.6,198z"/>
		</g>
		<g>
			<path class="st24" d="M586.6,204C586.6,204,586.6,204,586.6,204l-5.9-0.6c-0.1,0-0.2-0.1-0.3-0.2c-0.1-0.1-0.1-0.2-0.1-0.3
				l2.3-7.9c0-0.2,0.2-0.3,0.4-0.3c0,0,0,0,0,0l5.9,0.6c0.1,0,0.2,0.1,0.3,0.2c0.1,0.1,0.1,0.2,0.1,0.3l-0.5,1.8
				c0,0.2-0.2,0.3-0.4,0.3c0,0,0,0,0,0l-3.7-0.4l-0.2,0.6l2.9,0.3c0.1,0,0.2,0.1,0.3,0.2c0.1,0.1,0.1,0.2,0.1,0.3l-0.5,1.7
				c0,0.2-0.2,0.3-0.4,0.3c0,0,0,0,0,0l-3-0.3l-0.2,0.6l3.6,0.4c0.1,0,0.2,0.1,0.3,0.2c0.1,0.1,0.1,0.2,0.1,0.3l-0.5,1.8
				C586.9,203.9,586.8,204,586.6,204z"/>
			<path class="st9" d="M582.9,195.1l5.9,0.6l-0.5,1.8l-4-0.4l-0.4,1.4l3.4,0.3l-0.5,1.7l-3.4-0.3l-0.4,1.4l4,0.4l-0.5,1.8l-5.9-0.6
				L582.9,195.1 M582.9,194.3c-0.4,0-0.7,0.2-0.8,0.6l-2.3,7.9c-0.1,0.2,0,0.5,0.1,0.7c0.1,0.2,0.3,0.3,0.6,0.3l5.9,0.6
				c0,0,0.1,0,0.1,0c0.4,0,0.7-0.2,0.8-0.6l0.5-1.8c0.1-0.2,0-0.5-0.1-0.7c-0.1-0.2-0.3-0.3-0.5-0.3c0.1-0.1,0.3-0.3,0.3-0.4
				l0.5-1.7c0.1-0.2,0-0.5-0.1-0.7c0,0-0.1-0.1-0.1-0.1l0.4,0c0,0,0.1,0,0.1,0c0.4,0,0.7-0.2,0.8-0.6l0.5-1.8c0.1-0.2,0-0.5-0.1-0.7
				c-0.1-0.2-0.3-0.3-0.6-0.3L582.9,194.3C583,194.3,583,194.3,582.9,194.3L582.9,194.3z"/>
		</g>
	</g>
	<g>
		<g>
			<path class="st15" d="M483.1,145.7c0,0-0.1,0-0.1,0l-3.9-0.2c-1-0.1-1.9-0.8-2.1-1.7l-1.2-0.1c-0.4,0.4-0.9,0.6-1.4,0.5l-2.9-0.2
				c-0.5,0-1-0.3-1.3-0.7l-1.2-0.1c-0.4,0.9-1.3,1.5-2.3,1.5l-3.9-0.2c-0.6,0-1.2-0.3-1.6-0.8c-0.4-0.5-0.6-1.1-0.6-1.7l0.2-3.9
				c0.1-1.1,0.9-2,2-2.2l0-0.6c-0.5-0.4-0.9-1-0.8-1.6l0.2-2.9c0-0.7,0.4-1.2,1-1.5l0-0.7c-1.1-0.3-1.8-1.3-1.7-2.4l0.2-3.9
				c0-0.6,0.3-1.2,0.8-1.6c0.5-0.4,1.1-0.6,1.7-0.6l3.9,0.2c1,0.1,1.9,0.8,2.1,1.8l1.1,0.1c0.4-0.4,0.9-0.6,1.5-0.6l2.9,0.2
				c0.6,0,1.1,0.3,1.4,0.8l1.1,0.1c0.3-0.9,1.3-1.6,2.3-1.5l3.9,0.2c0.6,0,1.2,0.3,1.6,0.8c0.4,0.5,0.6,1.1,0.6,1.7l-0.2,3.9
				c-0.1,1.1-0.9,2-2,2.2l0,0.7c0.5,0.4,0.9,1,0.8,1.6l-0.2,2.9c0,0.7-0.4,1.2-1,1.5l0,0.6c1.1,0.3,1.8,1.3,1.7,2.4l-0.2,3.9
				c0,0.6-0.3,1.2-0.8,1.6C484.2,145.5,483.6,145.7,483.1,145.7z M475.5,142.8C475.6,142.8,475.6,142.8,475.5,142.8l1.7,0.1
				c0.2,0,0.3,0.2,0.4,0.4c0.1,0.7,0.7,1.3,1.4,1.3l3.9,0.2c0.4,0,0.8-0.1,1.1-0.4c0.3-0.3,0.5-0.6,0.5-1l0.2-3.9
				c0-0.8-0.6-1.5-1.4-1.6c-0.2,0-0.4-0.2-0.4-0.4l0.1-1.2c0-0.2,0.1-0.3,0.3-0.4c0.4-0.1,0.7-0.5,0.7-0.9l0.2-2.9
				c0-0.4-0.2-0.8-0.6-1c-0.1-0.1-0.2-0.2-0.2-0.4l0.1-1.3c0-0.2,0.2-0.4,0.4-0.4c0.8,0,1.5-0.6,1.6-1.4l0,0l0.2-3.9
				c0-0.4-0.1-0.8-0.4-1.1c-0.3-0.3-0.6-0.5-1-0.5l-3.9-0.2c-0.8,0-1.4,0.5-1.6,1.2c0,0.2-0.2,0.3-0.4,0.3l-1.7-0.1
				c-0.1,0-0.3-0.1-0.3-0.2c-0.2-0.3-0.5-0.5-0.9-0.5l-2.9-0.2c-0.4,0-0.7,0.1-0.9,0.4c-0.1,0.1-0.2,0.2-0.3,0.2l-1.7-0.1
				c-0.2,0-0.4-0.2-0.4-0.4c-0.1-0.8-0.7-1.4-1.4-1.4l-3.9-0.2c-0.4,0-0.8,0.1-1.1,0.4c-0.3,0.3-0.5,0.6-0.5,1l-0.2,3.9
				c0,0.8,0.6,1.5,1.4,1.6c0.2,0,0.4,0.2,0.4,0.4l-0.1,1.3c0,0.2-0.1,0.3-0.3,0.4c-0.4,0.1-0.7,0.5-0.7,0.9l-0.2,2.9
				c0,0.4,0.2,0.8,0.6,1c0.1,0.1,0.2,0.2,0.2,0.4l-0.1,1.2c0,0.2-0.2,0.4-0.4,0.4c-0.8,0-1.5,0.6-1.6,1.4l-0.2,3.9
				c0,0.4,0.1,0.8,0.4,1.1c0.3,0.3,0.6,0.5,1,0.5l3.9,0.2c0.7,0,1.4-0.4,1.6-1.2c0-0.2,0.2-0.3,0.4-0.3l1.7,0.1
				c0.1,0,0.2,0.1,0.3,0.2c0.2,0.3,0.5,0.5,0.8,0.5l2.9,0.2c0.3,0,0.7-0.1,0.9-0.4C475.3,142.9,475.4,142.8,475.5,142.8z"/>
		</g>
		<g>
			<g>
				<path class="st15" d="M481.4,143.6l-17-1c-0.9-0.1-1.6-0.8-1.6-1.7l1-17c0.1-0.9,0.8-1.6,1.7-1.6l17,1c0.9,0.1,1.6,0.8,1.6,1.7
					l-1,17C483.1,142.9,482.3,143.6,481.4,143.6z"/>
			</g>
			<g>
				<path class="st3" d="M467.5,128.5l-3.9-0.2c-1.1-0.1-1.9-1-1.8-2l0.2-3.9c0.1-1.1,1-1.9,2-1.8l3.9,0.2c1.1,0.1,1.9,1,1.8,2
					l-0.2,3.9C469.5,127.7,468.6,128.6,467.5,128.5z"/>
			</g>
			<g>
				<path class="st3" d="M483.9,129.4l-3.9-0.2c-1.1-0.1-1.9-1-1.8-2l0.2-3.9c0.1-1.1,1-1.9,2-1.8l3.9,0.2c1.1,0.1,1.9,1,1.8,2
					l-0.2,3.9C485.8,128.7,484.9,129.5,483.9,129.4z"/>
			</g>
			<g>
				<path class="st3" d="M482.9,145.3l-3.9-0.2c-1.1-0.1-1.9-1-1.8-2l0.2-3.9c0.1-1.1,1-1.9,2-1.8l3.9,0.2c1.1,0.1,1.9,1,1.8,2
					l-0.2,3.9C484.9,144.5,484,145.3,482.9,145.3z"/>
			</g>
			<g>
				<path class="st3" d="M466.6,144.3l-3.9-0.2c-1.1-0.1-1.9-1-1.8-2l0.2-3.9c0.1-1.1,1-1.9,2-1.8l3.9,0.2c1.1,0.1,1.9,1,1.8,2
					l-0.2,3.9C468.6,143.6,467.7,144.4,466.6,144.3z"/>
			</g>
			<g>
				<path class="st3" d="M466.6,135.4l-2.9-0.2c-0.8,0-1.4-0.7-1.4-1.5l0.2-2.9c0-0.8,0.7-1.4,1.5-1.4l2.9,0.2
					c0.8,0,1.4,0.7,1.4,1.5l-0.2,2.9C468.1,134.9,467.4,135.5,466.6,135.4z"/>
			</g>
			<g>
				<path class="st3" d="M483,136.4l-2.9-0.2c-0.8,0-1.4-0.7-1.4-1.5l0.2-2.9c0-0.8,0.7-1.4,1.5-1.4l2.9,0.2c0.8,0,1.4,0.7,1.4,1.5
					l-0.2,2.9C484.4,135.8,483.8,136.4,483,136.4z"/>
			</g>
			<g>
				<path class="st3" d="M475.3,128l-2.9-0.2c-0.8,0-1.4-0.7-1.4-1.5l0.2-2.9c0-0.8,0.7-1.4,1.5-1.4l2.9,0.2c0.8,0,1.4,0.7,1.4,1.5
					l-0.2,2.9C476.7,127.4,476,128,475.3,128z"/>
			</g>
			<g>
				<path class="st3" d="M474.3,143.8l-2.9-0.2c-0.8,0-1.4-0.7-1.4-1.5l0.2-2.9c0-0.8,0.7-1.4,1.5-1.4l2.9,0.2
					c0.8,0,1.4,0.7,1.4,1.5l-0.2,2.9C475.8,143.2,475.1,143.8,474.3,143.8z"/>
			</g>
			<g>
				<circle class="st3" cx="473.5" cy="132.9" r="4.3"/>
			</g>
			<g>
				<path class="st25" d="M475.8,131.1c-0.5-0.6-1.4-0.5-1.9,0l-0.2,0.2l-0.2-0.2c-0.5-0.6-1.3-0.8-1.9-0.3
					c-0.7,0.6-0.8,1.6-0.2,2.3l1.9,2.3c0.1,0.2,0.3,0.2,0.5,0l2.1-2.1C476.4,132.9,476.4,131.8,475.8,131.1L475.8,131.1z"/>
			</g>
		</g>
	</g>
</g>
<g id="Layer_8">
	
		<linearGradient id="SVGID_7_" gradientUnits="userSpaceOnUse" x1="400" y1="148" x2="400" y2="398" gradientTransform="matrix(1 0 0 1 0 -148)">
		<stop  offset="0" style="stop-color:#666666"/>
		<stop  offset="1" style="stop-color:#333333"/>
	</linearGradient>
	<rect class="st26" width="800" height="250"/>
</g>
</svg>
