<?xml version="1.0" encoding="utf-8"?>
<!-- Generator: Adobe Illustrator 25.0.1, SVG Export Plug-In . SVG Version: 6.00 Build 0)  -->
<svg version="1.1" xmlns="http://www.w3.org/2000/svg" xmlns:xlink="http://www.w3.org/1999/xlink" x="0px" y="0px"
	 viewBox="0 0 800 250" style="enable-background:new 0 0 800 250;" xml:space="preserve">
<style type="text/css">
	.st0{fill:#CDF5F9;}
	.st1{fill:#FFFFFF;}
	.st2{fill:#444444;}
	.st3{fill:#3B3B3B;}
	.st4{display:none;}
	.st5{display:inline;opacity:0.47;fill:url(#SVGID_1_);enable-background:new    ;}
	.st6{fill:#FF0000;}
	.st7{fill:#104BA0;}
	.st8{clip-path:url(#SVGID_3_);fill:#AAFFF9;}
	.st9{clip-path:url(#SVGID_5_);}
	.st10{fill:#BF4116;}
	.st11{fill:#9B9B9B;}
	.st12{fill:#191919;}
	.st13{fill:#D6D6D6;}
	.st14{fill:#0F56D3;}
	.st15{clip-path:url(#SVGID_7_);}
	.st16{fill:#5E5E5E;}
	.st17{fill:#32323F;}
	.st18{fill:#474757;}
	.st19{fill:#DDDDDD;}
	.st20{fill:#BAC0D8;}
	.st21{fill:#ACAFBC;}
	.st22{fill:#828282;}
	.st23{fill:#727272;}
	.st24{fill:#898989;}
	.st25{fill:#5B5B5B;}
	.st26{fill:#AAAAAA;}
	.st27{fill:#FFCC99;}
	.st28{fill:#B27010;}
	.st29{fill:#232323;}
	.st30{fill:#002BAF;}
	.st31{fill:#9E9E9E;}
	.st32{fill:#2AB4EB;}
	.st33{fill:#E27A0A;}
	.st34{fill:#E5C507;}
	.st35{fill:#2371E2;}
</style>
<g id="Layer_1">
	<g>
		<g id="Layer_1_1_">
			<rect class="st0" width="800" height="250"/>
		</g>
		<g id="Layer_3">
			<g>
				<path class="st1" d="M713.8,64c-3-16.5-17.4-28.9-34.7-28.9c-4.8,0-9.4,1-13.6,2.7C658.7,28.2,647.6,22,635,22
					c-12.7,0-23.9,6.3-30.6,16c-4.7-3.3-10.3-5.3-16.5-5.3c-15.7,0-28.5,12.7-28.5,28.5c0,0.9,0,1.9,0.1,2.8H713.8z"/>
			</g>
			<g>
				<path class="st1" d="M414.4,94c2.2-12.1,12.8-21.4,25.6-21.4c3.6,0,7,0.7,10,2c5-7.1,13.2-11.7,22.5-11.7
					c9.4,0,17.6,4.7,22.6,11.8c3.4-2.4,7.6-3.9,12.2-3.9c11.6,0,21,9.4,21,21c0,0.7,0,1.4-0.1,2.1H414.4V94z"/>
			</g>
			<g>
				<path class="st1" d="M92.3,62.7c-6.2,0-11.8,2-16.5,5.3c-6.7-9.7-17.9-16-30.6-16c-12.6,0-23.7,6.2-30.5,15.8
					c-4.2-1.8-8.8-2.7-13.6-2.7c-0.4,0-0.7,0-1.1,0V94h120.6c0.1-0.9,0.1-1.9,0.1-2.8C120.8,75.5,108,62.7,92.3,62.7z"/>
			</g>
		</g>
		<path class="st2" d="M565.5,231.1L565.5,231.1c-2.9,0-5.2-2.3-5.2-5.2V31.3c0-2.9,2.3-5.2,5.2-5.2l0,0c2.9,0,5.2,2.3,5.2,5.2
			v194.6C570.7,228.8,568.4,231.1,565.5,231.1z"/>
		<g id="Layer_5">
			<rect y="220" class="st3" width="800" height="30"/>
			<rect x="15" y="220" class="st1" width="99" height="6"/>
			<rect x="221" y="220" class="st1" width="99" height="6"/>
			<rect x="429" y="220" class="st1" width="99" height="6"/>
			<rect x="635" y="220" class="st1" width="99" height="6"/>
		</g>
		<g id="Layer_6">
		</g>
		<g id="Layer_8" class="st4">
			
				<linearGradient id="SVGID_1_" gradientUnits="userSpaceOnUse" x1="400" y1="-292" x2="400" y2="-542" gradientTransform="matrix(1 0 0 -1 0 -292)">
				<stop  offset="0" style="stop-color:#666666"/>
				<stop  offset="1" style="stop-color:#333333"/>
			</linearGradient>
			<rect class="st5" width="800" height="250"/>
		</g>
		<g>
			<g>
				<rect x="570.7" y="36.3" class="st1" width="33.7" height="33.7"/>
				<rect x="570.7" y="70" width="33.7" height="33.7"/>
				<rect x="604.5" y="70.1" class="st1" width="33.7" height="33.7"/>
				<rect x="604.5" y="36.3" width="33.7" height="33.7"/>
				<rect x="638.2" y="36.3" class="st1" width="33.7" height="33.7"/>
				<rect x="638.2" y="70" width="33.7" height="33.7"/>
				<rect x="672" y="70.1" class="st1" width="33.7" height="33.7"/>
				<rect x="672" y="36.3" width="33.7" height="33.7"/>
				<rect x="705.7" y="36.3" class="st1" width="33.7" height="33.7"/>
				<rect x="705.7" y="70" width="33.7" height="33.7"/>
				<rect x="739.5" y="70.1" class="st1" width="33.7" height="33.7"/>
				<rect x="739.5" y="36.3" width="33.7" height="33.7"/>
			</g>
			<g>
				<g>
					<g>
						<path class="st6" d="M620,84.1c-0.5,0-1.1,0-1.9-0.1c-0.8-0.1-1.6-0.2-2.4-0.4c-0.9-0.2-1.8-0.4-2.6-0.7
							c-0.9-0.3-1.7-0.6-2.5-1s-1.5-0.9-2-1.4c-0.6-0.7-0.9-1.4-0.9-2.3s0.3-1.7,1-2.4c0.7-0.7,1.5-1.1,2.4-1.1
							c0.6,0,1.1,0.1,1.6,0.4c0.6,0.3,1.2,0.6,1.8,0.9c0.6,0.2,1.2,0.4,1.8,0.6s1.2,0.3,1.8,0.4s1.3,0.1,2,0.1c0.4,0,1,0,1.6-0.1
							s1.1-0.2,1.6-0.3c0.5-0.2,0.8-0.4,1.2-0.7c0.1-0.1,0.3-0.3,0.3-0.8c0-0.3-0.1-0.7-0.7-1c-0.7-0.4-1.6-0.8-2.7-1.1
							c-1.1-0.4-2.4-0.7-3.7-1.1c-1.4-0.4-2.8-0.9-4-1.6c-1.3-0.7-2.3-1.6-3.2-2.7c-0.9-1.2-1.4-2.7-1.4-4.6c0-1.6,0.4-3,1.2-4.1
							c0.7-1.1,1.7-1.9,2.9-2.5c1.1-0.6,2.3-1,3.7-1.2c1.3-0.2,2.6-0.3,3.8-0.3c0.6,0,1.3,0,2.1,0.1s1.6,0.2,2.4,0.3
							c0.8,0.1,1.6,0.3,2.3,0.5c0.8,0.2,1.5,0.5,2.1,0.7c0.6,0.3,1.1,0.7,1.5,1.1c0.4,0.5,0.6,1.2,0.6,2c0,0.9-0.3,1.8-1,2.4
							s-1.5,1-2.4,1c-0.4,0-0.8-0.1-1.3-0.3c-1-0.4-2.1-0.7-3.1-0.9s-2.1-0.3-3.2-0.3c-0.4,0-0.9,0-1.5,0c-0.5,0-1.1,0.1-1.6,0.2
							c-0.4,0.1-0.8,0.3-1.1,0.5c-0.1,0.1-0.2,0.2-0.2,0.6c0,0.1,0,0.3,0.2,0.5c0.2,0.3,0.6,0.5,1,0.8c0.4,0.3,1,0.5,1.5,0.7
							c0.6,0.2,1.2,0.4,1.8,0.6s1.1,0.3,1.6,0.5c0.5,0.1,0.9,0.3,1.2,0.3c1,0.3,2,0.7,3,1.1s1.9,0.9,2.7,1.6
							c0.8,0.6,1.4,1.5,1.9,2.4c0.5,1,0.7,2.1,0.7,3.4c0,1.7-0.4,3.2-1.1,4.4c-0.7,1.1-1.7,2.1-2.9,2.8c-1.1,0.7-2.4,1.1-3.8,1.4
							C622.7,83.9,621.3,84.1,620,84.1z"/>
						<path d="M620.6,56c0.6,0,1.3,0,2.1,0.1s1.5,0.2,2.3,0.3s1.5,0.3,2.3,0.5c0.7,0.2,1.4,0.4,1.9,0.7c0.4,0.2,0.8,0.5,1.1,0.9
							s0.4,0.8,0.4,1.3c0,0.7-0.2,1.3-0.7,1.7c-0.5,0.5-1.1,0.7-1.7,0.7c-0.3,0-0.6-0.1-0.9-0.2c-1.1-0.4-2.2-0.7-3.2-0.9
							c-1.1-0.2-2.2-0.3-3.4-0.3c-0.4,0-0.9,0-1.5,0s-1.2,0.1-1.8,0.3s-1.1,0.4-1.5,0.7s-0.6,0.8-0.6,1.4c0,0.4,0.2,0.8,0.5,1.2
							s0.7,0.7,1.2,1s1.1,0.6,1.7,0.8c0.6,0.2,1.2,0.4,1.8,0.6s1.1,0.3,1.6,0.5c0.5,0.1,0.9,0.3,1.2,0.3c1,0.3,1.9,0.7,2.9,1
							c0.9,0.4,1.7,0.8,2.4,1.4s1.2,1.3,1.7,2.1c0.4,0.8,0.6,1.8,0.6,3c0,1.5-0.3,2.8-1,3.8s-1.5,1.8-2.5,2.4s-2.2,1-3.5,1.3
							c-1.3,0.2-2.6,0.4-3.9,0.4c-0.4,0-1,0-1.8-0.1c-0.7-0.1-1.5-0.2-2.3-0.4c-0.8-0.2-1.7-0.4-2.5-0.6c-0.8-0.3-1.6-0.6-2.3-0.9
							c-0.7-0.4-1.3-0.8-1.7-1.2c-0.4-0.5-0.7-1-0.7-1.6s0.2-1.2,0.7-1.7s1-0.7,1.7-0.7c0.4,0,0.8,0.1,1.1,0.3
							c0.7,0.4,1.3,0.7,1.9,0.9c0.6,0.3,1.3,0.5,1.9,0.6c0.6,0.2,1.3,0.3,1.9,0.4c0.7,0.1,1.4,0.1,2.1,0.1c0.5,0,1,0,1.7-0.1
							c0.6-0.1,1.3-0.2,1.8-0.4c0.6-0.2,1.1-0.5,1.5-0.9s0.6-0.9,0.6-1.5c0-0.8-0.4-1.4-1.2-1.9s-1.7-0.9-2.9-1.2
							c-1.1-0.4-2.4-0.7-3.8-1.1c-1.4-0.4-2.6-0.9-3.8-1.5c-1.1-0.6-2.1-1.4-2.9-2.5c-0.8-1-1.2-2.4-1.2-4c0-1.4,0.3-2.6,1-3.6
							s1.5-1.7,2.5-2.2s2.2-0.9,3.4-1.1C618.2,56.1,619.5,56,620.6,56 M620.6,54c-1.3,0-2.6,0.1-4,0.3c-1.5,0.2-2.8,0.7-4,1.3
							c-1.3,0.7-2.4,1.6-3.2,2.8c-0.9,1.3-1.3,2.9-1.3,4.7c0,2.1,0.5,3.9,1.6,5.2c0.9,1.2,2.1,2.3,3.5,3c1.3,0.7,2.7,1.3,4.2,1.7
							c1.3,0.4,2.6,0.7,3.7,1.1c1,0.3,1.8,0.6,2.4,1c0.1,0.1,0.2,0.1,0.2,0.1l0,0c0,0,0,0,0,0.1c-0.2,0.2-0.5,0.3-0.8,0.4
							c-0.4,0.1-0.9,0.2-1.4,0.3c-0.6,0.1-1.1,0.1-1.5,0.1c-0.7,0-1.3,0-1.9-0.1c-0.6-0.1-1.1-0.2-1.7-0.3c-0.5-0.1-1.1-0.3-1.6-0.6
							c-0.6-0.2-1.1-0.5-1.7-0.8c-0.7-0.4-1.4-0.6-2.1-0.6c-1.2,0-2.3,0.5-3.1,1.4s-1.3,1.9-1.3,3.1c0,1.1,0.4,2.1,1.2,2.9
							c0.6,0.6,1.4,1.2,2.2,1.6s1.7,0.8,2.6,1c0.9,0.3,1.8,0.5,2.7,0.7s1.7,0.3,2.5,0.4s1.5,0.1,2,0.1c1.4,0,2.8-0.1,4.2-0.4
							c1.5-0.3,2.9-0.8,4.1-1.5c1.3-0.8,2.4-1.8,3.2-3.1c0.9-1.3,1.3-3,1.3-4.9c0-1.5-0.3-2.8-0.8-3.9s-1.3-2-2.2-2.7
							c-0.8-0.7-1.8-1.3-2.9-1.7c-1-0.4-2-0.8-3-1.1l0,0l0,0c-0.3-0.1-0.7-0.2-1.2-0.3c-0.5-0.1-1-0.3-1.6-0.5
							c-0.5-0.2-1.1-0.4-1.7-0.6c-0.5-0.2-1-0.4-1.4-0.6c-0.2-0.1-0.4-0.3-0.6-0.4c0.1-0.1,0.3-0.1,0.5-0.2c0.4-0.1,0.9-0.2,1.3-0.2
							c0.6,0,1.1,0,1.5,0c1,0,2,0.1,3,0.3s2,0.5,3,0.8c0.6,0.2,1.1,0.3,1.6,0.3c1.2,0,2.3-0.5,3.2-1.3c0.9-0.9,1.3-1.9,1.3-3.2
							c0-1-0.3-1.9-0.9-2.6c-0.5-0.6-1.1-1.1-1.8-1.4c-0.7-0.3-1.4-0.6-2.3-0.8c-0.8-0.2-1.6-0.4-2.4-0.5c-0.8-0.2-1.7-0.3-2.5-0.3
							C622,54.1,621.3,54,620.6,54L620.6,54z"/>
					</g>
					<g>
						<path class="st6" d="M644.9,83.9c-1,0-1.9-0.4-2.6-1.1c-0.7-0.7-1-1.6-1-2.6V62.4h-6.2c-1,0-1.8-0.3-2.4-1s-1-1.5-1-2.4
							s0.3-1.8,1-2.4c0.7-0.7,1.5-1,2.4-1h19.6c0.9,0,1.8,0.3,2.4,1c0.7,0.7,1,1.5,1,2.4s-0.4,1.8-1,2.4c-0.7,0.7-1.5,1-2.4,1h-6.2
							v17.9c0,1-0.4,1.9-1.1,2.6C646.7,83.5,645.9,83.9,644.9,83.9z"/>
						<path d="M654.7,56.5c0.7,0,1.3,0.2,1.7,0.7c0.5,0.5,0.7,1.1,0.7,1.7c0,0.7-0.2,1.3-0.7,1.7c-0.5,0.5-1.1,0.7-1.7,0.7h-7.2
							v18.9c0,0.7-0.3,1.4-0.8,1.9s-1.1,0.8-1.9,0.8s-1.3-0.3-1.8-0.8s-0.7-1.1-0.7-1.9V61.4h-7.2c-0.7,0-1.3-0.2-1.7-0.7
							s-0.7-1-0.7-1.7s0.2-1.3,0.7-1.7s1-0.7,1.7-0.7L654.7,56.5 M654.7,54.5h-19.6c-1.2,0-2.3,0.5-3.2,1.3
							c-0.8,0.9-1.3,1.9-1.3,3.1c0,1.2,0.4,2.3,1.3,3.1c0.8,0.8,1.9,1.3,3.1,1.3h5.2v16.9c0,1.3,0.5,2.4,1.3,3.3
							c0.9,0.9,2,1.4,3.3,1.4s2.4-0.5,3.3-1.3c0.9-0.9,1.3-2,1.3-3.3V63.4h5.2c1.2,0,2.3-0.4,3.1-1.3c0.9-0.8,1.3-1.9,1.3-3.2
							c0-1.2-0.5-2.3-1.3-3.2C657,54.9,655.9,54.5,654.7,54.5L654.7,54.5z"/>
					</g>
					<g>
						<path class="st6" d="M680.2,83.9c-0.7,0-1.3-0.2-1.9-0.5c-0.5-0.3-1-0.8-1.2-1.4l-1.9-4.2h-10l-1.9,4.2
							c-0.3,0.6-0.7,1.1-1.3,1.5c-0.6,0.3-1.2,0.5-1.8,0.5c-1,0-1.8-0.3-2.4-1c-0.7-0.7-1-1.5-1-2.4c0-0.5,0.1-1,0.3-1.4l10-21.9
							c0.3-0.6,0.7-1.1,1.2-1.4c0.6-0.4,1.2-0.6,1.8-0.6s1.3,0.2,1.8,0.5c0.6,0.4,1,0.8,1.3,1.5l10,21.9c0.2,0.5,0.3,1,0.3,1.4
							c0,0.9-0.3,1.8-1,2.4C682,83.5,681.1,83.9,680.2,83.9z M672.3,71.3l-2.1-4.7l-2.1,4.7H672.3z"/>
						<path d="M670.1,56.1c0.5,0,0.9,0.1,1.3,0.4c0.4,0.2,0.7,0.6,0.9,1l10,21.9c0.1,0.3,0.2,0.7,0.2,1c0,0.7-0.2,1.3-0.7,1.7
							s-1,0.7-1.7,0.7c-0.5,0-0.9-0.1-1.3-0.4c-0.4-0.2-0.7-0.6-0.9-1l-2.2-4.8h-11.3l-2.2,4.8c-0.2,0.4-0.5,0.8-0.9,1
							s-0.8,0.4-1.3,0.4c-0.7,0-1.3-0.2-1.7-0.7c-0.5-0.5-0.7-1.1-0.7-1.7c0-0.3,0.1-0.7,0.2-1l10-21.9c0.2-0.4,0.5-0.8,0.9-1
							C669.2,56.3,669.6,56.1,670.1,56.1 M666.5,72.3h7.3l-3.7-8.1L666.5,72.3 M670.1,54.1c-0.9,0-1.7,0.2-2.4,0.7s-1.2,1.1-1.6,1.9
							l-10,21.8c-0.3,0.6-0.4,1.2-0.4,1.8c0,1.2,0.5,2.3,1.3,3.2c0.9,0.9,1.9,1.3,3.2,1.3c0.9,0,1.6-0.2,2.4-0.7
							c0.7-0.5,1.3-1.1,1.6-1.9l1.6-3.6h8.7l1.6,3.6c0.4,0.8,0.9,1.4,1.6,1.9c0.7,0.5,1.5,0.7,2.4,0.7c1.2,0,2.3-0.5,3.1-1.3
							s1.3-1.9,1.3-3.1c0-0.6-0.1-1.2-0.3-1.7v-0.1v-0.1l-10-21.9c-0.4-0.8-1-1.5-1.7-1.9C671.7,54.4,670.9,54.1,670.1,54.1
							L670.1,54.1z M669.6,70.3l0.6-1.3l0.6,1.3H669.6L669.6,70.3z"/>
					</g>
					<g>
						<path class="st6" d="M706.3,83.9c-0.7,0-1.3-0.2-1.8-0.5c-0.6-0.3-1-0.8-1.3-1.4c-0.1-0.2-0.3-0.5-0.5-1l-0.8-1.7
							c-0.4-0.8-0.7-1.5-1.1-2.3c-0.4-0.8-0.8-1.5-1.1-2.2c-0.3-0.6-0.6-1.2-0.8-1.6c0-0.1-0.1-0.1-0.1-0.2h-5.5v7.3
							c0,1-0.4,1.9-1.1,2.6c-0.7,0.7-1.6,1-2.5,1c-1,0-1.9-0.3-2.5-1c-0.7-0.7-1-1.5-1-2.5V59.1c0-1,0.3-1.9,1-2.5
							c0.7-0.7,1.5-1,2.5-1h9.7c1.3,0,2.7,0.1,3.9,0.4c1.3,0.3,2.4,0.8,3.4,1.5s1.8,1.7,2.4,2.8c0.6,1.1,0.9,2.5,0.9,4.1
							c0,1.7-0.4,3.3-1.2,4.6c-0.6,1.1-1.6,2-2.7,2.6c0,0.1,0.1,0.1,0.1,0.2c0.3,0.5,0.6,1.1,0.9,1.7c0.3,0.6,0.6,1.3,1,1.9
							c0.3,0.7,0.6,1.3,0.9,1.9c0.3,0.6,0.5,1.2,0.7,1.7c0.2,0.6,0.3,1,0.3,1.4c0,1-0.3,1.8-1,2.5C708.1,83.5,707.3,83.9,706.3,83.9
							z M700.1,66.6c0.8,0,1.4-0.2,1.9-0.6c0.3-0.2,0.6-0.6,0.6-1.5c0-1-0.4-1.4-0.6-1.6c-0.5-0.4-1.1-0.6-1.9-0.6h-6.8v4.3
							C693.3,66.6,700.1,66.6,700.1,66.6z"/>
						<path d="M699.4,56.5c1.3,0,2.5,0.1,3.7,0.4c1.2,0.3,2.2,0.7,3,1.4c0.9,0.6,1.5,1.4,2.1,2.4s0.8,2.2,0.8,3.6
							c0,1.5-0.4,2.9-1.1,4.1c-0.7,1.2-1.8,2.1-3.2,2.7c0.1,0.3,0.3,0.6,0.6,1.1s0.5,1,0.9,1.7c0.3,0.6,0.6,1.3,1,1.9
							s0.6,1.3,0.9,1.9c0.3,0.6,0.5,1.1,0.7,1.6s0.3,0.8,0.3,1c0,0.7-0.2,1.3-0.7,1.8s-1.1,0.7-1.8,0.7c-0.5,0-0.9-0.1-1.3-0.4
							c-0.4-0.2-0.7-0.6-0.9-1c-0.1-0.1-0.2-0.5-0.5-1s-0.5-1.1-0.9-1.8c-0.3-0.7-0.7-1.4-1.1-2.2c-0.4-0.8-0.7-1.5-1.1-2.1
							c-0.3-0.7-0.6-1.2-0.8-1.6s-0.3-0.7-0.3-0.7h-7.2v8.3c0,0.7-0.3,1.3-0.8,1.8s-1.1,0.7-1.8,0.7s-1.3-0.2-1.8-0.7
							s-0.7-1.1-0.7-1.8V59.1c0-0.7,0.2-1.3,0.7-1.8s1.1-0.7,1.8-0.7L699.4,56.5 M692.3,67.6h7.8c1,0,1.8-0.3,2.5-0.8
							s1.1-1.3,1.1-2.3s-0.3-1.8-1-2.4c-0.7-0.5-1.5-0.8-2.5-0.8h-7.8L692.3,67.6 M699.4,54.5h-9.7c-1.3,0-2.4,0.5-3.3,1.3
							c-0.9,0.9-1.3,2-1.3,3.3v21.2c0,1.3,0.5,2.4,1.3,3.3c0.9,0.9,2,1.3,3.3,1.3c1.2,0,2.3-0.4,3.2-1.3s1.4-2,1.4-3.3V74h3.9
							c0.2,0.4,0.4,0.8,0.6,1.2c0.3,0.7,0.7,1.4,1.1,2.2c0.4,0.8,0.7,1.5,1.1,2.2v0.1l0.8,1.7c0.3,0.6,0.4,0.9,0.5,1
							c0.4,0.8,0.9,1.4,1.6,1.8c0.7,0.4,1.5,0.7,2.4,0.7c1.2,0,2.3-0.5,3.2-1.3c0.9-0.9,1.3-2,1.3-3.2c0-0.5-0.1-1-0.4-1.7
							c-0.2-0.5-0.4-1.1-0.7-1.7s-0.6-1.3-0.9-1.9c-0.3-0.7-0.7-1.3-1-2c-0.2-0.4-0.4-0.8-0.6-1.1c0.9-0.7,1.7-1.5,2.3-2.5
							c0.9-1.5,1.3-3.2,1.3-5.1c0-1.7-0.3-3.3-1-4.6s-1.5-2.3-2.7-3.1c-1.1-0.8-2.3-1.3-3.7-1.7C702.2,54.7,700.8,54.5,699.4,54.5
							L699.4,54.5z M694.3,63.3h5.8c0.7,0,1.1,0.2,1.3,0.4c0.1,0.1,0.3,0.2,0.3,0.8c0,0.5-0.2,0.7-0.2,0.7c-0.4,0.3-0.8,0.4-1.3,0.4
							h-5.8L694.3,63.3L694.3,63.3z"/>
					</g>
					<g>
						<path class="st6" d="M723.8,83.9c-1,0-1.9-0.4-2.6-1.1c-0.7-0.7-1-1.6-1-2.6V62.4H714c-1,0-1.8-0.3-2.4-1s-1-1.5-1-2.4
							s0.3-1.8,1-2.4c0.7-0.7,1.5-1,2.4-1h19.6c1,0,1.8,0.3,2.4,1c0.7,0.7,1,1.5,1,2.4s-0.4,1.8-1,2.4c-0.7,0.7-1.5,1-2.4,1h-6.2
							v17.9c0,1-0.4,1.9-1.1,2.6C725.7,83.5,724.8,83.9,723.8,83.9z"/>
						<path d="M733.6,56.5c0.7,0,1.3,0.2,1.7,0.7c0.5,0.5,0.7,1.1,0.7,1.7c0,0.7-0.2,1.3-0.7,1.7c-0.5,0.5-1.1,0.7-1.7,0.7h-7.2
							v18.9c0,0.7-0.3,1.4-0.8,1.9s-1.1,0.8-1.9,0.8s-1.3-0.3-1.8-0.8s-0.7-1.1-0.7-1.9V61.4H714c-0.7,0-1.3-0.2-1.7-0.7
							s-0.7-1-0.7-1.7s0.2-1.3,0.7-1.7s1-0.7,1.7-0.7L733.6,56.5 M733.6,54.5H714c-1.2,0-2.3,0.5-3.2,1.3c-0.8,0.9-1.3,1.9-1.3,3.1
							c0,1.2,0.4,2.3,1.3,3.1c0.8,0.8,1.9,1.3,3.1,1.3h5.2v16.9c0,1.3,0.5,2.4,1.3,3.3c0.9,0.9,2,1.4,3.3,1.4s2.4-0.5,3.3-1.3
							c0.9-0.9,1.3-2,1.3-3.3V63.4h5.2c1.2,0,2.3-0.4,3.1-1.3c0.9-0.8,1.3-1.9,1.3-3.2c0-1.2-0.5-2.3-1.3-3.2
							C735.9,54.9,734.8,54.5,733.6,54.5L733.6,54.5z"/>
					</g>
				</g>
			</g>
			<path class="st2" d="M778.4,231.1L778.4,231.1c-2.9,0-5.2-2.3-5.2-5.2V31.3c0-2.9,2.3-5.2,5.2-5.2l0,0c2.9,0,5.2,2.3,5.2,5.2
				v194.6C783.6,228.8,781.2,231.1,778.4,231.1z"/>
		</g>
	</g>
	<g id="Premium_F1">
		<g>
			<path class="st7" d="M466.7,175l20-16.6c0.6-0.5,1.5-0.8,2.4-0.9l31.6-1.8c2.1-0.1,3.8,1.2,3.9,2.8l0.9,17.9
				c0.1,1.4-1.1,2.6-2.7,3l-52.5,11.4c-2.3,0.5-4.6-0.9-4.6-2.8V177C465.7,176.3,466,175.5,466.7,175z"/>
		</g>
		<g id="Layer_2_13_">
			<g id="Premium_12_">
				<g id="premium-drag-red">
					<g>
						<g>
							<defs>
								<polygon id="SVGID_2_" points="577.3,175.8 563.7,176.9 567.3,167.3 576.3,170.1 								"/>
							</defs>
							<clipPath id="SVGID_3_">
								<use xlink:href="#SVGID_2_"  style="overflow:visible;"/>
							</clipPath>
							<path class="st8" d="M576.9,167.3c-4.4,0-8.8,0-13.2,0v9.5c4.5,0,9.1,0,13.6,0v-9.5H576.9z"/>
						</g>
					</g>
					<g>
						<path class="st7" d="M576.4,169.6C576.4,169.5,576.4,169.5,576.4,169.6c-0.1-0.1-0.1-0.1-0.1-0.1c-0.6-1.5-2.2-4.2-6.1-4.4
							c-5.3-0.4-6.5,3.8-6.5,5.1v3.4c0,0.4,0.2,0.8,0.5,1.1h-0.1v2.7l8.8,1.5v-0.4l2.2,0.9c0.5,0.2,1.2,0,1.5-0.4
							c0.5-0.8,0.8-1.7,1-2.6c0,0,0,0,0,0c0,0,0-0.1,0-0.1C577.9,172.8,576.5,169.7,576.4,169.6z M566.4,172c0.5,0,0.9,0.4,0.9,0.9
							s-0.4,0.9-0.9,0.9s-0.9-0.4-0.9-0.9S565.9,172,566.4,172L566.4,172z M576.6,175.5c-0.8,0-1.9-0.2-3.3-1.2
							c-1.6-1.1-2.4-2.8-2.8-3.8c-0.2-0.5,0-1.4,0.6-1.4c0.4,0,0.8,0.2,1.5,0.7c1,0.8,2.2,0.9,3.1,0.8c0.1,0,0.3-0.1,0.4-0.1
							c0.6,1.6,0.9,3.3,0.9,5.1C576.9,175.5,576.7,175.5,576.6,175.5L576.6,175.5z"/>
					</g>
					<g>
						<defs>
							<path id="SVGID_4_" d="M576.4,169.6C576.4,169.5,576.4,169.5,576.4,169.6c-0.1-0.1-0.1-0.1-0.1-0.1c-0.6-1.5-2.2-4.2-6.1-4.4
								c-5.3-0.4-6.5,3.8-6.5,5.1v3.4c0,0.4,0.2,0.8,0.5,1.1h-0.1v2.7l8.8,1.5v-0.4l2.2,0.9c0.5,0.2,1.2,0,1.5-0.4
								c0.5-0.8,0.8-1.7,1-2.6c0,0,0,0,0,0c0,0,0-0.1,0-0.1C577.9,172.8,576.5,169.7,576.4,169.6z M566.4,172c0.5,0,0.9,0.4,0.9,0.9
								s-0.4,0.9-0.9,0.9s-0.9-0.4-0.9-0.9S565.9,172,566.4,172L566.4,172z M576.6,175.5c-0.8,0-1.9-0.2-3.3-1.2
								c-1.6-1.1-2.4-2.8-2.8-3.8c-0.2-0.5,0-1.4,0.6-1.4c0.4,0,0.8,0.2,1.5,0.7c1,0.8,2.2,0.9,3.1,0.8c0.1,0,0.3-0.1,0.4-0.1
								c0.6,1.6,0.9,3.3,0.9,5.1C576.9,175.5,576.7,175.5,576.6,175.5L576.6,175.5z"/>
						</defs>
						<clipPath id="SVGID_5_">
							<use xlink:href="#SVGID_4_"  style="overflow:visible;"/>
						</clipPath>
						<g class="st9">
							<g>
								<polygon class="st10" points="551,157.1 549.9,158.7 568,171.4 568,193.7 569.8,193.7 569.8,170.6 								"/>
							</g>
						</g>
					</g>
					<g>
						<rect x="633.6" y="181.6" class="st11" width="23.1" height="10"/>
					</g>
					<g>
						<polygon class="st11" points="652,183 638.4,183 638.4,176 655.4,175.5 						"/>
					</g>
					<g>
						<path class="st12" d="M655.4,175.5l-2.8,6.1C652.6,181.6,651.7,178.4,655.4,175.5z"/>
					</g>
					<g>
						<path class="st13" d="M633.6,181.6l14.2,0c0,0-5.9,1.5-14.2,1.3V181.6z"/>
					</g>
					<g>
						
							<rect x="652.8" y="181.2" transform="matrix(0.1893 -0.9819 0.9819 0.1893 349.1557 790.0687)" class="st12" width="0.5" height="4.8"/>
					</g>
					<g>
						
							<rect x="652.3" y="182.2" transform="matrix(0.1893 -0.9819 0.9819 0.1893 347.7399 790.3964)" class="st12" width="0.5" height="4.8"/>
					</g>
					<g>
						<path class="st14" d="M660.2,213.3l-164.6-12.4c-8-0.6-13.9-7.5-13.3-15.5c0,0,0,0,0,0l0,0c0.6-8,7.5-13.9,15.5-13.3
							c0,0,0,0,0,0l118.3,9.1c8,0.6,51.2,11.6,59.6,18.9l0,0C675.1,207.9,668.2,213.9,660.2,213.3z"/>
					</g>
					<g>
						<defs>
							<path id="SVGID_6_" d="M660.2,213.3l-164.6-12.4c-8-0.6-13.9-7.5-13.3-15.5c0,0,0,0,0,0l0,0c0.6-8,7.5-13.9,15.5-13.3
								c0,0,0,0,0,0l118.3,9.1c8,0.6,51.2,11.6,59.6,18.9l0,0C675.1,207.9,668.2,213.9,660.2,213.3z"/>
						</defs>
						<clipPath id="SVGID_7_">
							<use xlink:href="#SVGID_6_"  style="overflow:visible;"/>
						</clipPath>
						<g class="st15">
							<g>
								
									<rect x="608.6" y="140.3" transform="matrix(0.8894 -0.4571 0.4571 0.8894 -15.5435 299.5143)" class="st10" width="5.3" height="83.2"/>
							</g>
							<g>
								
									<rect x="599.3" y="142.8" transform="matrix(0.8894 -0.4571 0.4571 0.8894 -17.7432 295.5198)" class="st10" width="5.3" height="83.2"/>
							</g>
							<g>
								
									<rect x="589.4" y="145.7" transform="matrix(0.8894 -0.4571 0.4571 0.8894 -20.1576 291.3286)" class="st10" width="5.3" height="83.2"/>
							</g>
						</g>
					</g>
					<g>
						<path class="st10" d="M493,195.9l178.7,10.4c2.3,0.1,4.1,2.1,4,4.5l0,0c-0.1,2.3-2.1,4.1-4.5,4l-178.7-10.4
							c-2.3-0.1-4.1-2.1-4-4.5l0,0C488.6,197.6,490.6,195.8,493,195.9z"/>
					</g>
					<g>
						<polygon class="st14" points="573.8,154.9 546.5,148.3 513.7,172 516.4,180.9 569.3,184.3 561,164.8 						"/>
					</g>
					<g>
						
							<rect x="489.2" y="169.6" transform="matrix(0.9362 -0.3515 0.3515 0.9362 -28.5094 183.9189)" class="st16" width="6.1" height="1.8"/>
					</g>
					<g>
						
							<rect x="491" y="174.3" transform="matrix(0.9362 -0.3515 0.3515 0.9362 -30.0523 184.842)" class="st16" width="6.1" height="1.8"/>
					</g>
					<g>
						
							<rect x="512.2" y="176.5" transform="matrix(0.9371 -0.3489 0.3489 0.9371 -29.5429 190.9407)" class="st16" width="6.1" height="1.9"/>
					</g>
					<g>
						
							<rect x="513.9" y="181" transform="matrix(0.9362 -0.3515 0.3515 0.9362 -30.971 193.3206)" class="st16" width="6.1" height="1.9"/>
					</g>
					<g>
						
							<rect x="508" y="166" transform="matrix(0.9371 -0.3489 0.3489 0.9371 -32.2454 190.2912)" class="st11" width="8.2" height="37.3"/>
					</g>
					<g>
						
							<ellipse transform="matrix(4.205132e-02 -0.9991 0.9991 4.205132e-02 291.2274 689.0713)" class="st17" cx="505" cy="192.7" rx="28.2" ry="28.4"/>
					</g>
					<g>
						
							<ellipse transform="matrix(4.204758e-02 -0.9991 0.9991 4.204758e-02 291.2292 689.0721)" class="st18" cx="505" cy="192.7" rx="27.5" ry="27.7"/>
					</g>
					<g>
						
							<ellipse transform="matrix(4.205010e-02 -0.9991 0.9991 4.205010e-02 291.228 689.0715)" cx="505" cy="192.7" rx="20.7" ry="20.8"/>
					</g>
					<g>
						
							<ellipse transform="matrix(4.205183e-02 -0.9991 0.9991 4.205183e-02 291.2271 689.0712)" class="st1" cx="505" cy="192.7" rx="19.7" ry="19.8"/>
					</g>
					<g>
						
							<ellipse transform="matrix(4.205010e-02 -0.9991 0.9991 4.205010e-02 291.228 689.0715)" class="st19" cx="505" cy="192.7" rx="18.7" ry="18.8"/>
					</g>
					<g>
						
							<ellipse transform="matrix(4.205010e-02 -0.9991 0.9991 4.205010e-02 291.228 689.0715)" class="st20" cx="505" cy="192.7" rx="11.6" ry="11.7"/>
					</g>
					<g>
						
							<ellipse transform="matrix(4.205010e-02 -0.9991 0.9991 4.205010e-02 291.228 689.0715)" class="st21" cx="505" cy="192.7" rx="10.6" ry="10.7"/>
					</g>
					<g>
						
							<ellipse transform="matrix(4.205010e-02 -0.9991 0.9991 4.205010e-02 393.0295 818.2365)" class="st17" cx="623.2" cy="204.2" rx="16.2" ry="16.3"/>
					</g>
					<g>
						
							<ellipse transform="matrix(4.205010e-02 -0.9991 0.9991 4.205010e-02 393.0295 818.2365)" class="st18" cx="623.2" cy="204.2" rx="15.8" ry="15.9"/>
					</g>
					<g>
						
							<ellipse transform="matrix(4.205010e-02 -0.9991 0.9991 4.205010e-02 393.0295 818.2365)" cx="623.2" cy="204.2" rx="11.9" ry="12"/>
					</g>
					<g>
						
							<ellipse transform="matrix(4.205010e-02 -0.9991 0.9991 4.205010e-02 393.0295 818.2365)" class="st1" cx="623.2" cy="204.2" rx="11.3" ry="11.4"/>
					</g>
					<g>
						
							<ellipse transform="matrix(4.205010e-02 -0.9991 0.9991 4.205010e-02 393.0295 818.2365)" class="st19" cx="623.2" cy="204.2" rx="10.7" ry="10.8"/>
					</g>
					<g>
						
							<ellipse transform="matrix(3.996804e-02 -0.9992 0.9992 3.996804e-02 394.38 818.1762)" class="st20" cx="623" cy="203.9" rx="6.7" ry="6.7"/>
					</g>
					<g>
						
							<ellipse transform="matrix(4.205010e-02 -0.9991 0.9991 4.205010e-02 393.0295 818.2365)" class="st21" cx="623.2" cy="204.2" rx="6.1" ry="6.1"/>
					</g>
				</g>
			</g>
		</g>
		<g>
			<path class="st7" d="M561.3,183.6h-25.5c-1.4,0-2.5-1.1-2.5-2.5l0,0c0-1.4,1.1-2.5,2.5-2.5h25.5c1.4,0,2.5,1.1,2.5,2.5l0,0
				C563.8,182.5,562.7,183.6,561.3,183.6z"/>
		</g>
		<g>
			<path class="st7" d="M570,190.9h-25.5c-1.4,0-2.5-1.1-2.5-2.5l0,0c0-1.4,1.1-2.5,2.5-2.5H570c1.4,0,2.5,1.1,2.5,2.5l0,0
				C572.5,189.7,571.3,190.9,570,190.9z"/>
		</g>
	</g>
</g>
<g id="Layer_3_1_">
	<rect x="53" y="26.1" class="st22" width="46.1" height="193.9"/>
	<polygon class="st23" points="132.6,66.6 86.5,76.6 86.5,220 132.6,220 	"/>
	<polygon class="st24" points="178,62 117.2,52 117.2,220 178,220 	"/>
	<rect x="162.4" y="136" class="st25" width="100.9" height="84"/>
	<rect x="250.4" y="67.6" class="st23" width="64" height="152.4"/>
	<rect x="256" y="71" class="st26" width="52.7" height="9.7"/>
	<rect x="256" y="83.2" class="st26" width="52.7" height="9.7"/>
	<rect x="256" y="95.4" class="st26" width="52.7" height="9.7"/>
	<rect x="256" y="107.6" class="st26" width="52.7" height="9.7"/>
	<rect x="256" y="119.7" class="st26" width="52.7" height="9.7"/>
	<rect x="256" y="131.9" class="st26" width="52.7" height="9.7"/>
	<rect x="256" y="144.1" class="st26" width="52.7" height="9.7"/>
	<rect x="256" y="156.3" class="st26" width="52.7" height="9.7"/>
	<rect x="256" y="168.5" class="st26" width="52.7" height="9.7"/>
	<rect x="256" y="180.7" class="st26" width="52.7" height="9.7"/>
	<rect x="256" y="192.8" class="st26" width="52.7" height="9.7"/>
	<rect x="256" y="205" class="st26" width="52.7" height="9.7"/>
	<rect x="166.4" y="138.9" class="st23" width="13.3" height="13.3"/>
	<rect x="181.4" y="138.9" class="st23" width="13.3" height="13.3"/>
	<rect x="196.5" y="138.9" class="st23" width="13.3" height="13.3"/>
	<rect x="211.6" y="138.9" class="st23" width="13.3" height="13.3"/>
	<rect x="226.6" y="138.9" class="st23" width="13.3" height="13.3"/>
	<rect x="241.7" y="138.9" class="st23" width="13.3" height="13.3"/>
	<rect x="166.4" y="153.8" class="st23" width="13.3" height="13.3"/>
	<rect x="181.4" y="153.8" class="st23" width="13.3" height="13.3"/>
	<rect x="196.5" y="153.8" class="st23" width="13.3" height="13.3"/>
	<rect x="211.6" y="153.8" class="st23" width="13.3" height="13.3"/>
	<rect x="226.6" y="153.8" class="st23" width="13.3" height="13.3"/>
	<rect x="241.7" y="153.8" class="st23" width="13.3" height="13.3"/>
	<rect x="166.4" y="168.6" class="st23" width="13.3" height="13.3"/>
	<rect x="181.4" y="168.6" class="st23" width="13.3" height="13.3"/>
	<rect x="196.5" y="168.6" class="st23" width="13.3" height="13.3"/>
	<rect x="211.6" y="168.6" class="st23" width="13.3" height="13.3"/>
	<rect x="226.6" y="168.6" class="st23" width="13.3" height="13.3"/>
	<rect x="241.7" y="168.6" class="st23" width="13.3" height="13.3"/>
	<rect x="166.4" y="183.5" class="st23" width="13.3" height="13.3"/>
	<rect x="181.4" y="183.5" class="st23" width="13.3" height="13.3"/>
	<rect x="196.5" y="183.5" class="st23" width="13.3" height="13.3"/>
	<rect x="211.6" y="183.5" class="st23" width="13.3" height="13.3"/>
	<rect x="226.6" y="183.5" class="st23" width="13.3" height="13.3"/>
	<rect x="241.7" y="183.5" class="st23" width="13.3" height="13.3"/>
	<rect x="166.4" y="198.4" class="st23" width="13.3" height="13.3"/>
	<rect x="181.4" y="198.4" class="st23" width="13.3" height="13.3"/>
	<rect x="196.5" y="198.4" class="st23" width="13.3" height="13.3"/>
	<rect x="211.6" y="198.4" class="st23" width="13.3" height="13.3"/>
	<rect x="226.6" y="198.4" class="st23" width="13.3" height="13.3"/>
	<rect x="241.7" y="198.4" class="st23" width="13.3" height="13.3"/>
	<polygon class="st23" points="175.4,79.3 120.7,70.7 120.7,55.6 175.4,64.3 	"/>
	<polygon class="st23" points="175.4,97.1 120.7,88.4 120.7,73.4 175.4,82 	"/>
	<polygon class="st23" points="175.4,114.8 120.7,106.1 120.7,91.1 175.4,99.7 	"/>
	<polygon class="st26" points="88.1,85.8 116.2,79.4 116.2,71.6 88.1,78 	"/>
	<polygon class="st26" points="88.1,94.9 116.2,88.5 116.2,80.7 88.1,87.2 	"/>
	<polygon class="st26" points="88.1,104 116.2,97.6 116.2,89.8 88.1,96.2 	"/>
	<rect x="56" y="29.2" class="st23" width="4.3" height="187.6"/>
	<rect x="62.3" y="29.2" class="st23" width="4.3" height="187.6"/>
	<rect x="68.8" y="29.2" class="st23" width="4.3" height="187.6"/>
</g>
<g id="Layer_8_1_">
	<g id="titles">
	</g>
	<g>
		<path class="st10" d="M481.2,96.8l-11.3-6.4l-43.3,3.2c0,0-29-5.7-35.1-10.1c0,0-11.1-1.2-33,20.1l25.2-4.7c0,0,4.9,2.3,3.3,6.2
			c0,0,0.2,2,3.3,1.6l6.7,0c0,0,2.1,2.1,1.2,3.6c0,0,5.4,1.1,8.5,0c0,0,5.6,2,4.9,5.2l67.2-4.4L481.2,96.8z"/>
		<path class="st7" d="M488,101.5c0,0,10-4.8,23.9,4.3h12.3l16.9,5.6h6.9l2.5,1.6l-0.8,5.6h-1.3l-0.3,1.6l-3.6-1.6l-3.8-3
			c0,0-16.2,0.3-21.4-1l-5.5-1.7l-18.9,2.7l-9.5,4.6C485.3,120.2,478.5,109.6,488,101.5z"/>
		<path class="st27" d="M548,111.4h-6.9l-16.9-5.6h-1.7l-8.3,7.3l5,1.6c5.2,1.3,21.4,1,21.4,1l3.8,3l3.6,1.6l0.3-1.6h1.3l0.8-5.6
			L548,111.4z"/>
		<path class="st14" d="M324.7,131.5l-0.8-1.8c0,0,14.1-8.8,22-10l2.6,3.4l28.9-4.9l6.6,3.3l41.6-4.6c0,0,3.3-3.1,8-3.8l9.2,1.1
			l29.2-17.7l10.2-1.3l4.6,5.1c0,0,2.3-8.2,3.8-8.7h6.2l2.5-2l4.8,2l1.1,2.1l-3,2.3l-0.2,3.8l1.1,2.5l-1.8,0.7v3.3l0.8,1.1l-2.3,3.2
			l-5.2-2.4l-5.6,4.1l-1.3,7.5l-1,4.3l-7.4,6.6l-4.3-1l-3,1.8l-12-1.8l-10.4,1l-18.3,3.1c0,0-28.7-0.3-40.2-3.4l-42.6-2.5l-14.8,1
			L324.7,131.5z"/>
		<path class="st27" d="M478.9,97.6l9,3.6l2.1-0.4l-1.2-1.9c0,0,1.2-2,2.1-1.3l1.2,2.7h0.9v-3.4l2.5-1.2l-0.9-1l2.1-0.4L502,96v4
			l0.9,2.3v1.4l-1.6-0.5v3.7l0.7,1.1l-2.4,2.9l-5.6-2.1l-4.5,2.9l-2,7l-8.1-4.3c0,0,2.1-9.5,1.1-13.7L478.9,97.6z"/>
		<path class="st7" d="M433.5,113.2c0,0-3.1-0.3-8,3.8c0,0,1.3,16.2,11.8,26.7l-3.8-2.1l-19.1-1.3l-1.9-4.4c0,0-21.6-0.2-26.2,1.3
			l1.8,3.1l6.4-0.2l47.7,15.9h5.9l5.9-3.9v-7.2l-11.3-30.5C442.7,114.3,437.1,112.3,433.5,113.2z"/>
		<polygon class="st28" points="501,98.8 497.1,96.8 501.2,98.1 		"/>
		<path class="st7" d="M475.3,109.4l2.3-3.4l-1.1-6.2l-7.7-5.4c0,0-8.9-0.2-12.3,2.5c0,0-14.1-1-17.1,1.3c0,0,0.7,11.6,4.1,13.3
			c0.1,0,0.4,0,0.4,0s15,2.9,19.8,0.7C463.7,112.1,473.1,112.9,475.3,109.4z"/>
		<path class="st27" d="M439.4,98.1c0,0-5.6,0.8-5.7,2.3c0,0-1.7,7.5,1.3,9l7.4,3.5c0,0,0.7,5,4.9,5.6c0,0,8,0.3,8.7-2.5l0.5-3.2
			l-3.3-3.9h-3.5c0,0-2.4-3.6-1.4-6.4l-3.6-4.3L439.4,98.1z"/>
		<g>
			<path class="st29" d="M468.2,129.8c-2.4-2.1,0.7-4.1,0.7-4.1l3.7-2.4c0.6-0.5,1.3-0.3,1.8-0.1l1-0.7c1.2-1.1,2.4-0.1,2.4-0.1
				l0.7,0.6c0,0,0,0,0.1,0l-1.3-1.1c-0.5-0.2-1.2-0.3-2,0.4l-0.9,0.7c-0.5-0.2-1.2-0.4-1.9,0.1l-3.7,2.3c-0.1,0-1.6,1.1-1.6,2.4
				c0,0.7,0.3,1.3,1,1.9h0l1.4,1.2l0.3,0C469.3,130.8,468.8,130.4,468.2,129.8z"/>
			<path class="st30" d="M468,129.3c-1.4-1.2,0.4-2.6,0.4-2.6c0,0-1,1.3-0.1,2.3l2.8,2.4l0.6,0.1c-0.5-0.4-1.2-1.1-2.4-2.1
				c-2.3-2,0.5-3.7,0.5-3.7l3.3-2c0.3-0.2,0.7-0.3,1-0.2c0.3-0.1,0.6-0.1,0.9,0l0.6-0.5c0.4-0.4,0.8-0.4,1.2-0.4
				c0.8-0.2,1.4,0.3,1.4,0.3l0.1,0c0.1,0,0.1,0.1,0.2,0.1l-0.7-0.6c0,0-1.1-1-2.4,0.1l-1,0.7c-0.5-0.2-1.2-0.4-1.8,0.1l-3.7,2.4
				c0,0-3.1,2-0.7,4.1c0.6,0.5,1.1,1,1.5,1.3l0.6,0.1L468,129.3z"/>
			<path class="st31" d="M478.7,123.2L478.7,123.2l-1.1-1.1c-0.4-0.3-0.4-0.9-0.1-1.3l0.1-0.1c0.3-0.4,0.9-0.4,1.3-0.1l1.2,1.1
				l0.1-0.1l-1.5-1.3c-0.4-0.4-1.1-0.3-1.4,0.1l-0.2,0.2c-0.4,0.4-0.3,1.1,0.1,1.4l0.1,0.1c0.3,0.1,0.6,0.3,0.6,0.3L478.7,123.2z"/>
			<path class="st31" d="M478.6,123.3L478.6,123.3l-0.8-0.9c0,0-0.2-0.2-0.6-0.3l1.3,1.1C478.5,123.3,478.6,123.3,478.6,123.3z"/>
			<path class="st29" d="M478.9,120.7c-0.4-0.3-0.9-0.3-1.3,0.1l-0.1,0.1c-0.3,0.4-0.3,0.9,0.1,1.3l1.2,1l1.3-1.4L478.9,120.7z"/>
			<path class="st32" d="M472.4,131.3c-0.4-0.4-1.2-1-2.4-2.1c-2.1-1.9,0.5-3.5,0.5-3.5l3.2-2c0.1-0.1,0.2-0.1,0.4-0.2
				c-0.3-0.1-0.7,0-1,0.2l-3.3,2c0,0-2.7,1.7-0.5,3.7c1.1,1,1.9,1.6,2.4,2.1l0.5,0.1L472.4,131.3z"/>
			<path class="st32" d="M475.5,123.5l0.6-0.5c0.2-0.2,0.4-0.3,0.6-0.4c-0.4,0-0.8,0-1.2,0.4l-0.6,0.5c0,0,0.1,0,0.1,0
				C475.2,123.6,475.3,123.5,475.5,123.5z"/>
			<path class="st32" d="M478.2,123.1L478.2,123.1c-0.1,0-0.7-0.6-1.5-0.4c0.3,0,0.6,0.2,0.8,0.3C477.8,123,478,123,478.2,123.1z"/>
			<path class="st32" d="M475,123.6c-0.3-0.1-0.6-0.1-0.9,0c0.2,0,0.5,0.1,0.7,0.2L475,123.6z"/>
			<path class="st32" d="M475.5,123.5c0.2,0,0.5,0.1,0.7,0.2l0.6-0.4c0.2-0.2,0.5-0.3,0.7-0.3c-0.2-0.1-0.5-0.3-0.8-0.3
				c-0.2,0.1-0.4,0.2-0.6,0.4L475.5,123.5z"/>
			<path class="st32" d="M470.5,125.7c0,0-2.6,1.7-0.5,3.5c1.2,1.1,2,1.8,2.4,2.1l0.3-0.2l-2.9-2.5c-1.3-1.1,0.4-2.5,0.4-2.5
				c0,0-1,1.2-0.2,2.2l3,2.6l1.1-0.7l-2.2-1.9c-0.5-0.5-0.8-1-0.8-1.5c0-1,1.1-1.6,1.1-1.7l2.6-1.5c0.1-0.1,0.2-0.1,0.3-0.1
				c0,0-0.1,0-0.1,0l-0.3,0.2c-0.2-0.1-0.4-0.2-0.7-0.2c-0.1,0-0.2,0.1-0.4,0.2L470.5,125.7z"/>
			<path class="st32" d="M477.4,124.1c0.2-0.2,0.5-0.3,0.7-0.3l0,0C477.9,123.8,477.7,123.9,477.4,124.1l-0.5,0.5l0,0L477.4,124.1z"
				/>
			<path class="st1" d="M478.6,123.3l-0.1-0.1c0,0,0,0-0.1,0L478.6,123.3L478.6,123.3z"/>
			<path class="st1" d="M478.5,123.4C478.5,123.4,478.6,123.4,478.5,123.4L478.5,123.4l-0.1-0.2c-0.1,0-0.1-0.1-0.2-0.1L478.5,123.4
				z"/>
			<path class="st1" d="M478.6,123.3c0,0-0.1-0.1-0.1-0.1L478.6,123.3L478.6,123.3z"/>
			<path class="st1" d="M475.5,123.5c-0.1,0-0.3,0-0.4,0.1c0.1,0,0.1,0.1,0.2,0.1L475.5,123.5z"/>
			<path class="st1" d="M477.5,123c0.1,0.1,0.1,0.1,0.2,0.1c0.3,0,0.6,0.1,0.8,0.2l-0.3-0.3C478,123,477.8,123,477.5,123z"/>
			
				<rect x="476.9" y="124.6" transform="matrix(0.6585 -0.7526 0.7526 0.6585 69.0751 401.5094)" class="st1" width="0" height="0"/>
			<path class="st1" d="M472.1,128.4c-0.5-0.5-0.8-1-0.8-1.5c0-1,1-1.6,1.1-1.6l2.5-1.5c0.4-0.3,0.8-0.3,1.4,0l0.6-0.4
				c0.3-0.2,0.6-0.3,0.8-0.3c0,0-0.1-0.1-0.2-0.1c-0.2,0-0.5,0.1-0.7,0.3l-0.6,0.4c-0.3-0.1-0.5-0.2-0.7-0.2l-0.2,0.2
				c-0.1,0-0.1-0.1-0.2-0.1c-0.1,0-0.2,0.1-0.3,0.1l-2.6,1.5c0,0-1.1,0.7-1.1,1.7c0,0.5,0.3,1,0.8,1.5l2.2,1.9l0.1,0L472.1,128.4z"
				/>
			<path class="st31" d="M477.4,124.1l-0.4,0.5l0.2,0.2l0.9-1C477.9,123.8,477.7,123.9,477.4,124.1z"/>
			
				<rect x="477" y="124.6" transform="matrix(0.6583 -0.7528 0.7528 0.6583 69.1316 401.7647)" class="st31" width="0" height="0.3"/>
			<polygon class="st29" points="480.2,121.6 480.4,121.7 483.1,118.9 487.1,122.3 487.1,122.1 483.1,118.5 			"/>
			<polygon class="st29" points="480.3,121.9 480.4,121.7 480.2,121.6 480.1,121.7 			"/>
			<polygon class="st29" points="478.9,123.3 478.8,123.2 478.7,123.2 478.8,123.4 			"/>
			<path class="st29" d="M478.8,123.4L478.8,123.4l-0.1-0.2l-0.1,0.1C478.7,123.4,478.8,123.4,478.8,123.4L478.8,123.4z"/>
			<polygon class="st29" points="480.3,121.9 480.1,121.7 478.8,123.2 478.9,123.3 			"/>
			<path class="st29" d="M478.4,123.9c-0.1,0-0.2,0-0.2,0l0,0C478.2,123.9,478.3,123.9,478.4,123.9L478.4,123.9z"/>
			<polygon class="st29" points="478.8,123.5 478.8,123.5 478.6,123.3 478.6,123.3 478.7,123.5 			"/>
			<path class="st29" d="M478.8,123.5L478.8,123.5l-0.1-0.1l0,0C478.6,123.4,478.7,123.5,478.8,123.5L478.8,123.5z"/>
			<path class="st29" d="M478.8,123.5L478.8,123.5L478.8,123.5c0-0.1-0.1-0.1-0.1-0.1l0,0L478.8,123.5z"/>
			<path class="st29" d="M478.4,123.9c-0.1,0-0.2,0-0.2,0l-0.9,1l0.1,0.1L478.4,123.9z"/>
			<polygon class="st29" points="477.2,124.8 477.2,124.9 477.3,125 477.3,125 			"/>
			<polygon class="st1" points="486.7,124.2 487.1,122.3 483.1,118.9 480.4,121.7 484.9,125.7 			"/>
			<path class="st1" d="M482.2,126.3c0.1,0.1,0.2,0.1,0.3,0.2c0.1,0.1,0.2,0.2,0.3,0.3l0.4,0.4l0.1-0.1l-3-2.6l-0.1,0.1L482.2,126.3
				z"/>
			
				<rect x="479.6" y="123" transform="matrix(0.6583 -0.7528 0.7528 0.6583 70.5706 403.3812)" class="st1" width="0.1" height="1.9"/>
			<polygon class="st1" points="484.8,125.8 484.9,125.7 480.4,121.7 480.3,121.9 			"/>
			<path class="st1" d="M482.2,126.3l-1.9-1.7l-0.1,0.1l1.6,1.4C482,126.2,482.1,126.2,482.2,126.3z"/>
			
				<rect x="479.5" y="123.1" transform="matrix(0.6583 -0.7528 0.7528 0.6583 70.4979 403.3606)" class="st1" width="0.1" height="1.9"/>
			<path class="st1" d="M483.1,127.2l0.1,0.1l0.1-0.1l-0.4-0.4C482.9,126.9,483,127,483.1,127.2z"/>
			<polygon class="st1" points="480.4,124.6 481.3,123.5 484.4,126.2 484.8,125.8 480.3,121.9 478.9,123.3 			"/>
			<polygon class="st1" points="480.4,124.6 483.3,127.1 484.4,126.2 481.3,123.5 			"/>
			<path class="st1" d="M478.8,124.1L478.8,124.1C478.9,124.1,478.9,124.2,478.8,124.1C478.9,124.2,478.9,124.1,478.8,124.1z"/>
			<polygon class="st1" points="480.8,125.8 480.8,125.8 479.9,125 479.9,125 			"/>
			<polygon class="st1" points="479.9,125 479.9,125 479.7,124.8 479.3,124.5 479.7,124.8 			"/>
			<path class="st1" d="M478.8,124.1L478.8,124.1c-0.1-0.1-0.3-0.2-0.5-0.2l0,0C478.6,123.9,478.7,124,478.8,124.1z"/>
			<path class="st1" d="M481.7,126l-1.5-1.3l0,0L481.7,126C481.7,126,481.7,126,481.7,126z"/>
			<path class="st1" d="M483.1,127.3L483.1,127.3L483.1,127.3C483.1,127.3,483.1,127.3,483.1,127.3z"/>
			<polygon class="st1" points="480.2,124.7 480.2,124.7 478.8,123.5 478.8,123.5 			"/>
			<path class="st1" d="M481.6,126C481.6,126,481.6,126,481.6,126l-1.4-1.2l0,0L481.6,126z"/>
			<path class="st1" d="M480.2,124.8L480.2,124.8l-1.4-1.3l0,0c0,0,0.1,0,0.1,0L480.2,124.8z"/>
			<path class="st1" d="M481.8,126.1l-1.6-1.4l0,0l1.5,1.3C481.8,126.1,481.8,126.1,481.8,126.1z"/>
			
				<rect x="479.5" y="123.1" transform="matrix(0.6583 -0.7527 0.7527 0.6583 70.4443 403.3392)" class="st1" width="0" height="1.9"/>
			<path class="st1" d="M483.1,127.3L483.1,127.3l-0.1-0.1C483.1,127.2,483.1,127.2,483.1,127.3L483.1,127.3z"/>
			<path class="st1" d="M479.9,125L479.9,125l0.9,0.8c0,0,0,0,0,0L479.9,125z"/>
			<path class="st1" d="M479.9,125l-0.3-0.2l-0.4-0.3l-0.3-0.3c0,0,0,0,0,0c0,0,0,0-0.1-0.1L479.9,125L479.9,125z"/>
			<path class="st1" d="M480.8,125.8l-0.9-0.8l-1.1,1.2l0,0C479.5,125.9,480.1,125.8,480.8,125.8z"/>
			<path class="st1" d="M478.8,124.1c-0.1-0.1-0.3-0.2-0.5-0.2l-1,1.1l1.5,1.3l1.1-1.2L478.8,124.1z"/>
			<path class="st1" d="M481.8,127.3c-0.6-0.5-1.4-0.6-2.1-0.3l1,0.8l0.9-0.3l-0.2,0.9l0.2,0.2l0.7-0.7
				C482.2,127.8,482.1,127.5,481.8,127.3z"/>
			<polygon class="st1" points="481.4,128.5 481.4,128.6 481.6,128.7 481.6,128.7 			"/>
			<path class="st1" d="M478.9,126.3L478.9,126.3L478.9,126.3C478.9,126.3,478.9,126.3,478.9,126.3L478.9,126.3z"/>
			<polygon class="st1" points="481.6,128.7 481.6,128.7 481.4,128.6 481.2,128.4 480.8,128.1 480.7,127.9 479.7,127.1 479.6,127 
				479.1,126.5 478.9,126.3 478.8,126.3 478.9,126.3 477.3,125 477.3,125 			"/>
			<path class="st1" d="M479.8,127.1C479.7,127.1,479.7,127.1,479.8,127.1l0.9,0.9l0,0L479.8,127.1z"/>
			<path class="st31" d="M478.6,123.4C478.6,123.4,478.5,123.4,478.6,123.4L478.6,123.4L478.6,123.4z"/>
			<path class="st31" d="M477.7,123.1C477.7,123.1,477.7,123.1,477.7,123.1l0.2,0.2c0.2,0,0.4,0.1,0.6,0.2l0.1-0.1l0,0
				C478.3,123.2,478,123.1,477.7,123.1z"/>
			<path class="st31" d="M476.3,123.9c-0.5-0.3-1-0.3-1.4,0l-2.5,1.5c0,0-1.1,0.7-1.1,1.6c0,0.5,0.3,1,0.8,1.5l2.1,1.8l0.1-0.1
				c-0.4-0.3-1-0.9-2.1-1.9c-1.8-1.6,0.3-2.8,0.3-2.8l2.5-1.5c0.4-0.3,0.9-0.1,1.3,0.1l0.7-0.5c0.3-0.3,0.6-0.3,0.9-0.3l-0.2-0.2
				c0,0,0,0,0,0c-0.3,0-0.6,0.1-0.8,0.3L476.3,123.9z"/>
			<path class="st31" d="M478.7,123.5L478.7,123.5c0-0.1-0.1-0.1-0.1-0.1l0,0L478.7,123.5z"/>
			<path class="st31" d="M478.7,123.5l-0.1-0.1l-0.1,0.1C478.5,123.5,478.6,123.6,478.7,123.5L478.7,123.5z"/>
			<path class="st31" d="M480.2,124.8L480.2,124.8l-1.4-1.3c0,0,0,0-0.1,0l0,0l0.4,0.3L480.2,124.8z"/>
			<path class="st31" d="M481.6,126l-1.4-1.2l0,0L481.6,126C481.5,126,481.6,126,481.6,126z"/>
			<path class="st31" d="M481.5,125.9l-1.3-1.2l-0.1,0.1l1.2,1C481.3,125.9,481.4,125.9,481.5,125.9z"/>
			<path class="st31" d="M478.7,123.6l0.8,0.7l0.6,0.5l0.1-0.1l-1.1-0.9l-0.4-0.3L478.7,123.6C478.7,123.6,478.7,123.6,478.7,123.6z
				"/>
			<path class="st29" d="M478.1,123.9l0.1-0.1c-0.3,0-0.6,0-0.8,0.3l-0.5,0.6l0.1,0.1l0.4-0.5C477.7,123.9,477.9,123.8,478.1,123.9z
				"/>
			<path class="st29" d="M478.5,123.5c-0.1-0.1-0.3-0.2-0.6-0.2l0.4,0.4L478.5,123.5z"/>
			<path class="st29" d="M477,123.6l-0.7,0.5c-0.4-0.2-0.9-0.4-1.3-0.1l-2.5,1.5c0,0-2.1,1.2-0.3,2.8c1.1,1,1.8,1.6,2.1,1.9l0.7-0.4
				l0.2,0.1c0-0.3,0-0.5,0.2-0.7c0.1-0.1,0.2-0.2,0.3-0.2c0,0-0.1-0.1-0.1-0.1c-0.1-0.1-0.2-0.1-0.2-0.2c0,0.1-0.1,0.3-0.2,0.4
				c-0.4,0.4-1.2,0.3-1.9-0.3c-0.7-0.6-0.9-1.4-0.6-1.9c0.3-0.3,0.9-0.3,1.4,0c0,0,0,0,0,0c0.1,0,0.1,0.1,0.2,0.1
				c0.1,0.1,0.2,0.1,0.3,0.2c0.1,0.1,0.1,0.1,0.2,0.2l0.1-0.1c0-0.1,0.1-0.2,0.1-0.3c0.1-0.1,0.1-0.1,0.2-0.2c0,0-0.1,0-0.1-0.1
				c-0.7-0.6-0.9-1.4-0.6-1.9c0.3-0.3,0.9-0.3,1.4,0c0,0,0,0,0,0c0.1,0,0.1,0.1,0.2,0.1c0.1,0.1,0.2,0.1,0.3,0.2
				c0.1,0,0.1,0.1,0.2,0.2l0.4-0.5l-0.2-0.2l0,0l0,0l0,0l-0.1-0.1l0.5-0.6c0.3-0.2,0.6-0.3,0.8-0.3l0.1-0.1l-0.4-0.4
				C477.6,123.2,477.3,123.3,477,123.6z"/>
			<rect x="477.1" y="124.6" class="st29" width="0" height="0.3"/>
			<path class="st29" d="M478.4,123.9L478.4,123.9c0-0.1-0.1-0.1-0.1-0.1l-0.1,0.1C478.2,123.9,478.3,123.9,478.4,123.9z"/>
			<path class="st29" d="M478.5,123.8l0.2-0.2c0,0-0.1-0.1-0.2-0.1l-0.1,0.2L478.5,123.8z"/>
			<path class="st29" d="M476.8,125.4C476.8,125.4,476.8,125.4,476.8,125.4l0.5-0.4l-0.1-0.1L476.8,125.4
				C476.8,125.3,476.8,125.4,476.8,125.4z"/>
			<path class="st29" d="M474.9,127.3C474.9,127.3,474.9,127.3,474.9,127.3L474.9,127.3C474.9,127.3,474.9,127.3,474.9,127.3z"/>
			<path class="st29" d="M478.5,123.8l-0.1-0.1l-0.1,0.1C478.3,123.8,478.4,123.8,478.5,123.8L478.5,123.8z"/>
			
				<rect x="477.2" y="124.8" transform="matrix(0.6584 -0.7527 0.7527 0.6584 68.9989 401.8706)" class="st29" width="0" height="0.2"/>
			<path class="st29" d="M480.8,125.8c0,0,0.1,0,0.1,0L480,125l0,0.1L480.8,125.8z"/>
			<path class="st29" d="M478.8,124.1C478.9,124.1,478.9,124.2,478.8,124.1c0.1,0.1,0.1,0.1,0.1,0.1l0.3,0.3l0.4,0.3l0.3,0.2l0-0.1
				l-0.3-0.3L478.8,124.1c0.1,0-0.1-0.2-0.3-0.3l0.1,0.1L478.8,124.1z"/>
			<path class="st29" d="M478.7,124l-0.1-0.1c0,0-0.1,0-0.1,0l-0.1,0.1c0.2,0.1,0.4,0.2,0.5,0.2L478.7,124z"/>
			<path class="st29" d="M480.9,125.8c0.1,0,0.2,0,0.3,0.1l-1.2-1L480,125L480.9,125.8z"/>
			<path class="st29" d="M478.9,124.1l0.7,0.6l0.3,0.3l0.1-0.1l-0.6-0.5l-0.8-0.7c0,0,0,0-0.1,0l-0.2,0.2l0.1,0.1
				C478.8,123.9,478.9,124.1,478.9,124.1z"/>
			<path class="st29" d="M477,125.6c0.4,0.5,0.5,1.1,0.2,1.4c-0.1,0.1-0.1,0.1-0.2,0.2c0,0,0.1,0,0.1,0.1c0.1,0.1,0.1,0.1,0.2,0.2
				c0-0.1,0.1-0.2,0.1-0.2c0.3-0.3,0.9-0.3,1.4,0c0,0,0,0,0,0c0.1,0,0.1,0.1,0.2,0.1c0.1,0.1,0.2,0.1,0.3,0.2
				c0.1,0.1,0.2,0.1,0.2,0.2c0.1,0.1,0.1,0.1,0.2,0.2c0,0,0,0,0,0c0.4,0.5,0.5,1.1,0.2,1.4c-0.1,0.1-0.1,0.1-0.2,0.2
				c0,0,0.1,0,0.1,0.1c0.1,0.1,0.1,0.1,0.2,0.2c0-0.1,0.1-0.2,0.1-0.2c0.2-0.2,0.5-0.3,0.9-0.2l0.7-0.6l-4.2-3.7l-0.5,0.5
				C476.9,125.5,476.9,125.5,477,125.6C477,125.6,477,125.6,477,125.6z"/>
			<path class="st29" d="M477.6,129.7c0-0.1,0.1-0.3,0.2-0.4c0.1-0.1,0.1-0.1,0.2-0.2c0,0-0.1,0-0.1-0.1c-0.1-0.1-0.1-0.1-0.2-0.2
				c0,0.1-0.1,0.2-0.1,0.2c-0.1,0.1-0.2,0.2-0.3,0.2c0,0,0.1,0.1,0.1,0.1C477.4,129.5,477.5,129.6,477.6,129.7z"/>
			<path class="st29" d="M478.5,123.8L478.5,123.8l-0.1,0C478.5,123.8,478.5,123.8,478.5,123.8z"/>
			<path class="st29" d="M479.3,124.5l-0.3-0.3c0,0,0,0,0,0c0,0,0,0,0,0L479.3,124.5z"/>
			<rect x="479.4" y="124" class="st29" width="0" height="5.6"/>
			<path class="st29" d="M476.1,124.8c0.1,0,0.1,0.1,0.2,0.1C476.3,124.9,476.2,124.9,476.1,124.8z"/>
			<path class="st29" d="M475.4,126.7c0,0-0.1-0.1-0.1-0.1c-0.6-0.6-0.9-1.3-0.6-1.7c0,0,0,0,0.1,0c0,0,0,0,0-0.1
				c0.3-0.3,0.7-0.3,1.2,0c-0.6-0.3-1.1-0.3-1.4,0c-0.4,0.4-0.1,1.3,0.6,1.9c0,0,0.1,0,0.1,0.1C475.3,126.8,475.3,126.8,475.4,126.7
				L475.4,126.7z"/>
			<path class="st29" d="M476.9,125.5C476.8,125.4,476.8,125.4,476.9,125.5C476.8,125.4,476.8,125.4,476.9,125.5L476.9,125.5z"/>
			<path class="st29" d="M475.4,126.7L475.4,126.7C475.4,126.7,475.4,126.7,475.4,126.7C475.4,126.7,475.4,126.7,475.4,126.7z"/>
			<path class="st29" d="M477,125.6c0,0-0.1-0.1-0.1-0.1l0,0C476.9,125.5,476.9,125.5,477,125.6z"/>
			<path class="st29" d="M477.1,126.8C477.1,126.9,477.1,126.9,477.1,126.8c-0.1,0.1-0.1,0.1-0.1,0.1c-0.1,0.1-0.1,0.1-0.2,0.2
				c0,0,0.1,0.1,0.1,0.1c0.1,0,0.2-0.1,0.2-0.2c0.3-0.3,0.2-0.9-0.2-1.4C477.3,126.1,477.4,126.6,477.1,126.8z"/>
			<path class="st29" d="M477.2,127.5C477.3,127.5,477.3,127.5,477.2,127.5c0.1,0,0.1-0.1,0.2-0.2c0,0,0,0,0.1,0c0,0,0,0,0-0.1
				c0.3-0.3,0.7-0.3,1.2,0c-0.6-0.3-1.1-0.3-1.4,0C477.3,127.3,477.2,127.3,477.2,127.5C477.2,127.5,477.2,127.5,477.2,127.5z"/>
			<path class="st29" d="M478,129.1c0,0,0.1,0,0.1-0.1c0,0-0.1-0.1-0.1-0.1c-0.1-0.1-0.2-0.2-0.2-0.2c0,0.1,0,0.1,0,0.1
				C477.8,128.9,477.8,129,478,129.1C477.9,129.1,477.9,129.1,478,129.1z"/>
			<path class="st29" d="M478.8,127.2c0.1,0,0.1,0.1,0.2,0.1C478.9,127.3,478.9,127.2,478.8,127.2z"/>
			<path class="st29" d="M479.8,129.2C479.8,129.2,479.8,129.2,479.8,129.2c-0.1,0.1-0.1,0.1-0.1,0.1c-0.1,0.1-0.1,0.1-0.2,0.2
				c0,0,0.1,0.1,0.1,0.1c0.1,0,0.2-0.1,0.2-0.2c0.3-0.3,0.2-0.9-0.2-1.4C480,128.4,480.1,128.9,479.8,129.2z"/>
			<path class="st29" d="M479.5,127.7c0.1,0.1,0.1,0.1,0.2,0.2C479.6,127.9,479.5,127.8,479.5,127.7z"/>
			<path class="st29" d="M480,129.5c-0.1,0.1-0.1,0.2-0.1,0.2c0,0,0,0,0,0c0,0,0,0.1,0.1,0.1C480,129.8,480,129.7,480,129.5
				c0.1,0.1,0.1,0.1,0.2,0c0,0,0,0,0-0.1c0.2-0.2,0.4-0.2,0.7-0.2l0,0C480.5,129.2,480.2,129.3,480,129.5z"/>
			<path class="st29" d="M475.3,126.8c-0.1,0-0.2,0.1-0.2,0.2c-0.1,0.1-0.1,0.2-0.1,0.3L475.3,126.8
				C475.3,126.8,475.3,126.8,475.3,126.8z"/>
			<path class="st29" d="M475.7,128.7c-0.1-0.1-0.2-0.2-0.3-0.3c0,0.1,0,0.1,0,0.2C475.5,128.7,475.6,128.7,475.7,128.7
				c0,0.1,0,0.2,0,0.2c0.1,0,0.1,0,0.2,0C475.9,128.8,475.8,128.8,475.7,128.7z"/>
			<path class="st29" d="M474.9,127.3c0,0,0.1,0.1,0.1,0.1l0,0c0-0.1,0.1-0.3,0.1-0.4c0,0,0,0,0.1,0c0,0,0,0,0-0.1
				c0,0,0.1-0.1,0.1-0.1c0,0,0,0,0,0L474.9,127.3C474.9,127.3,474.9,127.3,474.9,127.3C474.9,127.3,474.9,127.3,474.9,127.3z"/>
			<path class="st29" d="M475,127.4L475,127.4C475,127.4,475,127.5,475,127.4C475,127.4,475,127.4,475,127.4z"/>
			<path class="st29" d="M477.1,129.2C477.1,129.2,477.1,129.2,477.1,129.2c0,0,0.1,0.1,0.1,0.1c0.1,0,0.2-0.1,0.3-0.2
				c0.1-0.1,0.1-0.2,0.1-0.2c0,0,0,0-0.1-0.1c0,0,0,0.1-0.1,0.1c0,0,0,0-0.1,0c0,0,0,0,0,0.1C477.4,129.1,477.2,129.2,477.1,129.2z"
				/>
			<path class="st29" d="M475.4,126.7C475.3,126.8,475.3,126.8,475.4,126.7C475.3,126.8,475.3,126.8,475.4,126.7L475.4,126.7z"/>
			<path class="st29" d="M475.4,126.7C475.4,126.7,475.4,126.7,475.4,126.7l-0.1,0.1c0,0,0,0,0,0
				C475.4,126.8,475.4,126.8,475.4,126.7C475.5,126.8,475.5,126.7,475.4,126.7z"/>
			<path class="st29" d="M475.6,126.7c-0.1,0-0.1,0-0.2,0c0,0,0,0,0.1,0.1C475.5,126.8,475.6,126.7,475.6,126.7
				C475.6,126.7,475.6,126.7,475.6,126.7z"/>
			<path class="st29" d="M476.7,127C476.7,127,476.7,127,476.7,127C476.7,127.1,476.7,127.1,476.7,127
				C476.7,127.1,476.7,127.1,476.7,127z"/>
			<path class="st29" d="M475.7,126.7L475.7,126.7C475.7,126.7,475.6,126.7,475.7,126.7C475.6,126.7,475.6,126.7,475.7,126.7
				C475.7,126.7,475.7,126.7,475.7,126.7z"/>
			<path class="st29" d="M476.5,126.9c0.1,0,0.1,0.1,0.2,0.1c0,0,0,0,0,0C476.7,127,476.6,127,476.5,126.9z"/>
			<path class="st29" d="M476.2,126.8C476.2,126.8,476.1,126.8,476.2,126.8c-0.2-0.1-0.3-0.1-0.5-0.1l0,0
				C475.8,126.7,476,126.7,476.2,126.8z"/>
			<path class="st29" d="M476.5,126.9c-0.1,0-0.1-0.1-0.2-0.1c0,0,0,0,0,0C476.4,126.8,476.4,126.9,476.5,126.9z"/>
			<path class="st29" d="M476.3,126.8C476.3,126.8,476.3,126.8,476.3,126.8c0,0-0.1,0-0.2-0.1C476.1,126.8,476.2,126.8,476.3,126.8
				C476.2,126.8,476.2,126.8,476.3,126.8z"/>
			<path class="st29" d="M477.3,127.6C477.3,127.5,477.3,127.5,477.3,127.6C477.3,127.5,477.3,127.5,477.3,127.6
				C477.3,127.6,477.3,127.6,477.3,127.6z"/>
			<path class="st29" d="M477.7,128.7c0,0.1,0,0.1,0,0.2c0,0,0,0,0.1,0.1C477.7,128.8,477.7,128.8,477.7,128.7
				C477.7,128.7,477.7,128.7,477.7,128.7z"/>
			<path class="st29" d="M477.4,127.6C477.4,127.6,477.4,127.6,477.4,127.6C477.3,127.6,477.3,127.6,477.4,127.6
				C477.3,127.6,477.3,127.6,477.4,127.6C477.3,127.6,477.3,127.6,477.4,127.6z"/>
			<path class="st29" d="M477.7,128.7C477.7,128.7,477.7,128.7,477.7,128.7c0.1,0,0.1-0.1,0.1-0.1c0,0,0,0,0-0.1
				C477.7,128.5,477.7,128.6,477.7,128.7z"/>
			<path class="st29" d="M477.4,127.6C477.4,127.6,477.4,127.6,477.4,127.6C477.4,127.7,477.4,127.7,477.4,127.6
				C477.4,127.7,477.4,127.7,477.4,127.6z"/>
			<path class="st29" d="M477.7,128.5C477.7,128.5,477.7,128.5,477.7,128.5c0-0.2-0.1-0.5-0.3-0.8
				C477.6,128,477.7,128.2,477.7,128.5z"/>
			<path class="st29" d="M478,129.2C478,129.2,478,129.1,478,129.2c-0.2,0-0.2,0-0.3,0.1c-0.1,0.1-0.1,0.2-0.2,0.4c0,0,0,0,0,0
				c0,0,0.1,0.1,0.1,0.2c0-0.2,0-0.3,0.1-0.4c0,0,0,0,0.1,0c0,0,0,0,0-0.1C478,129.2,478,129.2,478,129.2z"/>
			<path class="st29" d="M478,129.2c0,0,0.1,0,0.1-0.1c0,0,0,0-0.1-0.1C478.1,129.1,478,129.1,478,129.2
				C478,129.1,478,129.2,478,129.2z"/>
			<path class="st29" d="M479.4,129.4C479.4,129.4,479.4,129.4,479.4,129.4C479.4,129.4,479.4,129.4,479.4,129.4
				C479.4,129.4,479.4,129.4,479.4,129.4z"/>
			<path class="st29" d="M478.2,129.1c0.1,0,0.1,0,0.2,0c0,0,0,0-0.1,0C478.2,129,478.2,129.1,478.2,129.1
				C478.1,129.1,478.1,129.1,478.2,129.1z"/>
			<path class="st29" d="M479.4,129.4c-0.1,0-0.1-0.1-0.2-0.1C479.3,129.3,479.3,129.3,479.4,129.4
				C479.4,129.4,479.4,129.4,479.4,129.4z"/>
			<path class="st29" d="M479.2,129.3c-0.1,0-0.1-0.1-0.2-0.1c0,0,0,0,0,0C479,129.2,479.1,129.2,479.2,129.3z"/>
			<path class="st29" d="M478.9,129.1C478.8,129.1,478.8,129.1,478.9,129.1c-0.2-0.1-0.4-0.1-0.6-0.1c0,0,0,0,0.1,0
				C478.5,129.1,478.7,129.1,478.9,129.1z"/>
			<path class="st29" d="M479,129.2C479,129.2,479,129.2,479,129.2c0,0-0.1,0-0.2-0.1C478.8,129.1,478.8,129.1,479,129.2
				C478.9,129.1,478.9,129.1,479,129.2z"/>
			<path class="st29" d="M480,129.9C480,129.9,479.9,129.8,480,129.9C479.9,129.8,479.9,129.9,480,129.9
				C480,129.9,480,129.9,480,129.9z"/>
			<path class="st29" d="M480,130C480,130,480,130,480,130C480,130,480,129.9,480,130C480,129.9,480,129.9,480,130
				C480,129.9,480,130,480,130z"/>
			<path class="st29" d="M480,130C480,130,480,130,480,130C480,130,480.1,130,480,130C480.1,130,480,130,480,130z"/>
			<path class="st29" d="M475.4,128.5c0,0.1-0.1,0.2-0.1,0.2c0,0,0,0-0.1,0c0,0,0,0,0,0.1c-0.3,0.4-1.1,0.2-1.7-0.3
				c-0.6-0.6-0.9-1.3-0.6-1.7c0,0,0,0,0.1,0c0,0,0,0,0-0.1c0.3-0.3,0.7-0.3,1.2,0c-0.6-0.3-1.1-0.3-1.4,0c-0.4,0.4-0.1,1.3,0.6,1.9
				c0.7,0.6,1.5,0.7,1.9,0.3C475.3,128.9,475.4,128.7,475.4,128.5C475.4,128.6,475.4,128.6,475.4,128.5z"/>
			<path class="st29" d="M474.2,126.8c0.1,0,0.1,0.1,0.2,0.1C474.4,126.8,474.3,126.8,474.2,126.8z"/>
			<path class="st29" d="M475.4,128.3c0,0.1,0,0.1,0,0.2c0,0,0,0,0.1,0.1C475.4,128.5,475.4,128.5,475.4,128.3
				C475.4,128.4,475.4,128.4,475.4,128.3z"/>
			<path class="st29" d="M475,127.4c0,0-0.1-0.1-0.1-0.1C474.9,127.4,475,127.4,475,127.4L475,127.4z"/>
			<path class="st29" d="M475,127.5C475,127.5,475,127.5,475,127.5C475,127.5,475,127.4,475,127.5L475,127.5
				C475,127.4,475,127.5,475,127.5z"/>
			<path class="st29" d="M475.4,128.2L475.4,128.2c0,0,0,0.1,0,0.2c0,0,0,0,0,0.1C475.4,128.3,475.4,128.3,475.4,128.2z"/>
			<path class="st29" d="M475.3,128.1c0,0,0,0.1,0,0.1l0,0C475.4,128.2,475.4,128.1,475.3,128.1
				C475.4,128.1,475.4,128.1,475.3,128.1z"/>
			<polygon class="st29" points="475.2,127.7 475.2,127.7 475.2,127.7 			"/>
			<path class="st29" d="M475,127.5C475,127.5,475,127.5,475,127.5C475,127.5,475.1,127.5,475,127.5
				C475.1,127.5,475,127.5,475,127.5z"/>
			<path class="st29" d="M475.2,127.7C475.2,127.6,475.2,127.6,475.2,127.7c0,0,0-0.1-0.1-0.1C475.1,127.6,475.1,127.6,475.2,127.7
				L475.2,127.7z"/>
			<path class="st29" d="M475.2,127.7c0.1,0.1,0.1,0.3,0.2,0.4c0,0,0,0,0,0.1C475.3,128,475.3,127.8,475.2,127.7L475.2,127.7
				C475.2,127.7,475.2,127.7,475.2,127.7z"/>
			<path class="st29" d="M475.2,127.7C475.2,127.7,475.2,127.6,475.2,127.7C475.2,127.6,475.2,127.6,475.2,127.7L475.2,127.7z"/>
			<path class="st29" d="M475.5,129.2C475.5,129.2,475.6,129.2,475.5,129.2C475.6,129.1,475.6,129.1,475.5,129.2
				c0.1-0.2,0.2-0.2,0.3-0.2c0,0,0,0-0.1-0.1C475.6,129,475.5,129,475.5,129.2c-0.3,0.1-0.3,0.3-0.3,0.6l0.1,0
				C475.4,129.6,475.4,129.4,475.5,129.2z"/>
			<path class="st29" d="M476,128.9C476,128.9,475.9,128.9,476,128.9c-0.1,0-0.2,0-0.2,0c0,0,0,0,0.1,0.1
				C475.9,128.9,475.9,128.9,476,128.9z"/>
			<polygon class="st29" points="477.1,129.2 477.1,129.2 477.1,129.2 			"/>
			<path class="st29" d="M476.2,128.9L476.2,128.9C476.2,128.9,476.2,128.9,476.2,128.9c-0.1,0-0.2,0-0.3,0c0,0,0,0,0,0
				C476.1,128.9,476.1,128.9,476.2,128.9z"/>
			<polygon class="st29" points="476.2,128.9 476.2,128.9 476.2,128.9 			"/>
			<path class="st29" d="M477,129.1C477,129.1,477,129.1,477,129.1c0,0,0.1,0.1,0.1,0.1c0,0,0,0,0,0
				C477.1,129.2,477,129.2,477,129.1z"/>
			<path class="st29" d="M476.2,128.9C476.2,128.9,476.2,128.9,476.2,128.9L476.2,128.9C476.2,128.9,476.2,128.9,476.2,128.9z"/>
			<path class="st29" d="M476.7,129L476.7,129c-0.2-0.1-0.4-0.1-0.6-0.2l0,0c0,0,0,0,0,0C476.4,128.9,476.6,129,476.7,129z"/>
			<path class="st29" d="M476.9,129.1C476.9,129.1,476.9,129.1,476.9,129.1C477,129.1,477,129.1,476.9,129.1
				C476.9,129.1,476.9,129.1,476.9,129.1z"/>
			<path class="st29" d="M476.7,129L476.7,129c0,0,0.1,0,0.1,0.1C476.8,129.1,476.8,129,476.7,129z"/>
			<path class="st29" d="M477.6,129.7c0,0,0.1,0.1,0.1,0.2c0,0,0,0,0,0C477.7,129.8,477.6,129.7,477.6,129.7z"/>
			<polygon class="st29" points="477.8,130 477.8,130 477.8,130 			"/>
			<path class="st29" d="M478,130.4L478,130.4C478,130.4,478,130.4,478,130.4C478,130.4,478,130.4,478,130.4z"/>
			<path class="st29" d="M477.7,129.8C477.7,129.8,477.7,129.8,477.7,129.8C477.7,129.8,477.7,129.8,477.7,129.8
				C477.7,129.8,477.7,129.8,477.7,129.8z"/>
			<path class="st29" d="M477.8,129.9c0,0,0,0.1,0.1,0.1l0,0C477.8,130,477.8,130,477.8,129.9C477.8,129.9,477.8,129.9,477.8,129.9z
				"/>
			<path class="st29" d="M478.1,130.5C478.1,130.5,478.1,130.4,478.1,130.5L478.1,130.5C478,130.4,478,130.5,478.1,130.5z"/>
			<path class="st29" d="M477.8,130L477.8,130C477.8,130,477.8,130,477.8,130c0.1,0.1,0.1,0.3,0.2,0.4c0,0,0,0,0,0l0,0
				C478,130.3,477.9,130.1,477.8,130z"/>
			<path class="st29" d="M477.8,130L477.8,130C477.8,130,477.8,130,477.8,130C477.8,130,477.8,130,477.8,130z"/>
			<g>
				<path class="st33" d="M480.2,129.5c-0.1,0.1-0.2,0.2-0.2,0.4c0,0,0.1,0.1,0.1,0.1l0.1-0.1c0-0.3,0.3-0.5,0.6-0.5l0.1-0.1
					C480.6,129.3,480.3,129.3,480.2,129.5z"/>
				<path class="st33" d="M480,129.9c-0.1-0.2-0.3-0.3-0.5-0.5c1.7-0.8-1.6-3.7-2.2-1.9c0,0,0.1,0.1,0.1,0.1
					c-0.2-0.2-0.4-0.4-0.6-0.6c1.1-0.5,0.1-1.9-0.7-2.3c-1.6-0.8-2,1-0.6,1.9c0.2-0.1,0.5,0,0.7,0c-0.8-0.3-1.8-1.7-0.9-2
					c1-0.5,3.2,2.4,1.1,2.1c0.1,0,0.1,0.1,0.2,0.1c-0.6-0.3-1.5-0.2-1.5,0.6c0,0,0,0,0,0c-0.4-0.6-1.7-1.4-2.2-0.6
					c-1,1.7,3.7,3.5,2.2,0.7c0.2,0.3,0.3,0.5,0.3,0.9c0.1,0.2,0.3,0.4,0.5,0.5c0.3,0,0.6,0.1,0.9,0.2c-0.6-0.4-1.6-0.1-1.5,0.7
					c0.1,0,0.3,0.1,0.3,0.1c-0.5-1.8,2.1-0.5,2.2,0.5l0.1,0c0-0.2-0.1-0.4-0.3-0.5c0.1,0.2,0.2,0.4,0.3,0.6l0.3,0.1
					c-1.3-1.7,1-1.6,1.7-0.4l0,0C480,130,480,130,480,129.9C480,130,480,129.9,480,129.9z M475.3,128.1c0.2,1.9-3-0.3-2.2-1.3
					C473.8,126.2,475.1,127.3,475.3,128.1z M476.7,127C476.7,127.1,476.7,127.1,476.7,127c-0.1,0-0.1-0.1-0.2-0.1
					C476.6,127,476.7,127,476.7,127z M476.5,128.8c-0.6-0.3-1.4-1.1-1.2-1.8C476.5,125.7,479.1,129.6,476.5,128.8z M479,129.2
					c-0.5-0.2-1.3,0-1.2,0.7c0,0,0,0,0,0c-0.2-0.3-0.5-0.6-0.8-0.7c0.1,0,0.1,0.1,0.2,0.1c0.7-0.2,0.7-1,0.3-1.5
					c0.2,0.3,0.4,0.7,0.3,1c0.1,0.1,0.2,0.2,0.4,0.3c0.2-0.1,0.4,0,0.7,0c-1.8-0.7-1.6-3.1,0.4-1.5C480,128.2,480.2,129.5,479,129.2
					c0.1,0,0.2,0.1,0.2,0.1C479.1,129.2,479,129.2,479,129.2z M479.4,129.4c-0.1,0-0.1-0.1-0.2-0.1
					C479.3,129.3,479.4,129.4,479.4,129.4C479.4,129.4,479.4,129.4,479.4,129.4z"/>
			</g>
			<g>
				<path class="st34" d="M475.5,126.4c0.4,0.4,1.5,0.9,1.7,0.1C477.3,124.5,473.3,124,475.5,126.4z"/>
				<path class="st34" d="M478.2,128.7c1.2,1.2,2.4,0.1,1-1.2C478,126.4,476.8,127.5,478.2,128.7z"/>
				<path class="st34" d="M480.6,129.4c-0.2,0.1-0.4,0.2-0.4,0.5c0,0,0.5-0.5,0.6-0.5C480.7,129.4,480.6,129.4,480.6,129.4z"/>
				<path class="st34" d="M476.5,128.8c2.3,0.7,0.3-2.6-1-2C474.8,127.4,475.9,128.6,476.5,128.8z"/>
				<path class="st34" d="M479.8,129.9c-0.7-1.1-2.7-0.8-1.5,0.6c0,0,0.9,0.2,1,0.2c0.1-0.1,0.6-0.5,0.7-0.7
					C480,130,479.9,129.9,479.8,129.9z"/>
				<path class="st34" d="M475,127.6c-0.4-0.6-1.4-1.3-2-0.8C472.1,128.1,476.3,130.1,475,127.6z"/>
				<path class="st34" d="M477.7,129.9c-0.4-0.8-2.5-1.6-2,0c0.1,0,2.2,0.5,2.2,0.5C477.9,130.3,477.8,130.1,477.7,129.9z"/>
			</g>
			<path class="st35" d="M468.4,126.6c0,0-1.8,1.4-0.4,2.6l2.3,2l0.7,0.1l-2.8-2.4C467.4,127.9,468.4,126.6,468.4,126.6z"/>
			<path class="st1" d="M470.3,126.2c0,0-1.7,1.4-0.4,2.5l2.9,2.5l0.3-0.2l-3-2.6C469.3,127.4,470.3,126.2,470.3,126.2z"/>
			<path class="st29" d="M482.5,126.5c-0.1-0.1-0.2-0.2-0.3-0.2l0.6,0.5C482.7,126.7,482.6,126.6,482.5,126.5z"/>
			<path class="st29" d="M483.1,127.2c-0.1-0.1-0.2-0.2-0.3-0.4l-0.6-0.5c-0.1-0.1-0.3-0.2-0.4-0.2L483.1,127.2z"/>
			<polygon class="st29" points="481.2,126.1 481.2,126.1 480.8,125.8 480.8,125.8 			"/>
			<path class="st29" d="M483.2,127.3C483.2,127.3,483.1,127.3,483.2,127.3L483.2,127.3L483.2,127.3z"/>
			<path class="st29" d="M481.7,126C481.7,126,481.7,126,481.7,126l1.4,1.3l0,0c0,0,0,0,0,0L481.7,126z"/>
			<path class="st29" d="M483.1,127.3l-1.5-1.3c0,0-0.1,0-0.1,0L483.1,127.3L483.1,127.3z"/>
			<path class="st29" d="M481.7,126l1.4,1.2c0,0,0-0.1-0.1-0.1l-1.2-1.1C481.8,126.1,481.8,126.1,481.7,126z"/>
			<path class="st29" d="M481.2,126.1l-0.4-0.3c0,0,0,0,0,0L481.2,126.1C481.2,126.1,481.2,126.1,481.2,126.1z"/>
			<path class="st29" d="M481.2,126.1l-0.4-0.3c-0.7-0.1-1.3,0.1-1.9,0.5l0.2,0.2C479.7,126.1,480.5,126,481.2,126.1z"/>
			<path class="st29" d="M478.9,126.3C478.9,126.3,478.9,126.3,478.9,126.3l0.2,0.2c0,0,0,0,0,0L478.9,126.3z"/>
			<path class="st29" d="M483.1,127.3L483.1,127.3l-1.5-1.4c0,0-0.1,0-0.1,0L483.1,127.3z"/>
			<path class="st29" d="M481.3,125.9l0.5,0.4c0.2,0.1,0.4,0.2,0.6,0.4c0.2,0.2,0.3,0.3,0.5,0.5l0.2,0.2l0.1-0.1l-1.6-1.4
				C481.4,125.9,481.3,125.9,481.3,125.9z"/>
			<path class="st29" d="M481.2,126.1c0,0,0.1,0,0.1,0l-0.4-0.3c0,0-0.1,0-0.1,0L481.2,126.1z"/>
			<path class="st29" d="M483,127.4l-0.2-0.2C482.9,127.3,482.9,127.4,483,127.4L483,127.4z"/>
			<path class="st29" d="M481.8,126.3l-0.5-0.4c-0.1,0-0.2-0.1-0.3-0.1l0.4,0.3C481.5,126.2,481.6,126.3,481.8,126.3z"/>
			<path class="st31" d="M481.8,127.3c0.2,0.2,0.4,0.4,0.5,0.7l0.1-0.1c-0.1-0.3-0.3-0.5-0.5-0.7c-0.7-0.6-1.6-0.7-2.3-0.3l0.2,0.1
				C480.4,126.7,481.2,126.8,481.8,127.3z"/>
			<path class="st31" d="M479.6,126.9C479.6,126.9,479.6,126.9,479.6,126.9l0.1,0.2c0,0,0,0,0,0L479.6,126.9z"/>
			<rect x="480.9" y="126.9" class="st31" width="2.2" height="0"/>
			<path class="st31" d="M481.2,126.1l1.7,1.5l0,0L481.2,126.1C481.2,126.1,481.2,126.1,481.2,126.1z"/>
			<path class="st31" d="M481.9,127.2c0.2,0.2,0.4,0.4,0.5,0.7l0.4-0.3l-1.7-1.5c-0.7-0.1-1.4,0-2,0.4l0.5,0.4
				C480.3,126.5,481.3,126.6,481.9,127.2z"/>
			<path class="st31" d="M479.1,126.5C479.1,126.5,479.1,126.5,479.1,126.5l0.4,0.4c0,0,0,0,0,0L479.1,126.5z"/>
			<path class="st31" d="M482.4,126.7c-0.2-0.2-0.4-0.3-0.6-0.4l1.1,0.9C482.7,127.1,482.6,126.9,482.4,126.7z"/>
			<path class="st31" d="M482.9,127.5l-1.6-1.4c0,0-0.1,0-0.1,0L482.9,127.5L482.9,127.5z"/>
			<path class="st31" d="M482.9,127.5L482.9,127.5c0-0.1,0-0.2-0.1-0.3l-1.1-0.9c-0.1-0.1-0.3-0.1-0.4-0.2L482.9,127.5z"/>
			<polygon class="st29" points="480.7,127.9 480.9,128 481.3,127.9 481.3,128.4 481.4,128.5 481.6,127.6 			"/>
			<polygon class="st29" points="480.7,127.9 480.7,127.9 480.8,128.1 480.9,128 			"/>
			<polygon class="st29" points="481.3,128.4 481.2,128.4 481.4,128.6 481.4,128.5 			"/>
			<polygon class="st31" points="480.9,128 481.3,128.4 481.3,127.9 			"/>
			<polygon class="st31" points="480.9,128 480.8,128.1 481.2,128.4 481.3,128.4 			"/>
		</g>
	</g>
</g>
</svg>
