<?xml version="1.0" encoding="utf-8"?>
<!-- Generator: Adobe Illustrator 25.0.1, SVG Export Plug-In . SVG Version: 6.00 Build 0)  -->
<svg version="1.1" id="Layer_1" xmlns="http://www.w3.org/2000/svg" xmlns:xlink="http://www.w3.org/1999/xlink" x="0px" y="0px"
	 viewBox="0 0 800 250" style="enable-background:new 0 0 800 250;" xml:space="preserve">
<style type="text/css">
	.st0{fill:#222222;}
	.st1{opacity:0.8;fill:#FFFFFF;enable-background:new    ;}
	.st2{fill:#1C1C1C;}
	.st3{fill:#FFFFFF;}
	.st4{fill:#444444;}
	.st5{fill:#FF0000;}
	.st6{opacity:0.45;fill:#CCCCCC;enable-background:new    ;}
	.st7{opacity:0.32;fill:#996633;enable-background:new    ;}
	.st8{fill:#FFCC66;}
	.st9{fill:#996633;}
	.st10{opacity:0.59;fill:#996633;enable-background:new    ;}
	.st11{fill:#660000;}
	.st12{fill:#CC3300;}
	.st13{opacity:0.52;fill:#330000;enable-background:new    ;}
	.st14{fill:#663300;}
	.st15{opacity:0.31;fill:#996600;enable-background:new    ;}
	.st16{fill:#CC9966;}
	.st17{opacity:0.37;fill:#FFFFFF;enable-background:new    ;}
	.st18{fill:#3B3B3B;}
	.st19{fill:#FFCC33;}
	.st20{clip-path:url(#SVGID_2_);}
	.st21{fill:#474757;}
	.st22{opacity:0.13;}
	.st23{fill:#32323F;}
	.st24{fill:#DDDDDD;}
	.st25{fill:#BAC0D8;}
	.st26{fill:#ACAFBC;}
	.st27{clip-path:url(#SVGID_4_);}
	.st28{fill:#AAFFF9;}
	.st29{clip-path:url(#SVGID_6_);}
	.st30{fill:#ABFEF9;}
	.st31{fill:#E1FBFF;}
	.st32{clip-path:url(#SVGID_8_);}
	.st33{clip-path:url(#SVGID_10_);}
	.st34{fill:#0033CC;}
	.st35{clip-path:url(#SVGID_12_);}
	.st36{clip-path:url(#SVGID_14_);}
	.st37{clip-path:url(#SVGID_16_);}
	.st38{clip-path:url(#SVGID_18_);}
	.st39{clip-path:url(#SVGID_20_);}
	.st40{clip-path:url(#SVGID_22_);}
	.st41{clip-path:url(#SVGID_24_);}
	.st42{clip-path:url(#SVGID_26_);}
	.st43{clip-path:url(#SVGID_28_);}
	.st44{opacity:0.47;fill:url(#SVGID_29_);enable-background:new    ;}
</style>
<g id="Layer_1_1_">
	<rect class="st0" width="800" height="250"/>
</g>
<g id="Layer_7">
	<circle class="st1" cx="579.5" cy="72.5" r="3.5"/>
	<circle class="st1" cx="694.5" cy="30.5" r="3.5"/>
	<circle class="st1" cx="464.5" cy="34.5" r="3.5"/>
	<circle class="st1" cx="727.5" cy="125.5" r="3.5"/>
	<circle class="st1" cx="486.5" cy="130.5" r="3.5"/>
	<circle class="st1" cx="201.5" cy="20.5" r="3.5"/>
	<circle class="st1" cx="83.5" cy="34.5" r="3.5"/>
	<circle class="st1" cx="29.5" cy="98.5" r="3.5"/>
	<g>
		<g>
			<path class="st2" d="M306,155.5c-6.4,8.9-15.2,16.4-25.9,21.3c-21.5,9.8-45.4,7-63.6-5.3c-8.4,13.6-13.7,29.4-14.8,46.3h-0.2v28
				h203.3v-28h-0.2c-1.4-20.6-8.9-39.5-20.7-54.9c-2.4,1.5-4.9,2.8-7.5,4C352,178,324.4,172.6,306,155.5z"/>
			<path class="st3" d="M303.1,123c-36.6,0-68.7,19.4-86.6,48.5c18.2,12.3,42.2,15.1,63.6,5.3c10.7-4.9,19.5-12.3,25.9-21.3
				c18.4,17.1,46,22.5,70.3,11.4c2.6-1.2,5.1-2.5,7.5-4C365.2,138.6,336,123,303.1,123z"/>
		</g>
		<g>
			<path class="st4" d="M256.1,252.1c-1.9-28-15.1-52.9-35.1-70.1c-4.7,1.8-9.8,2.8-15.2,2.8c-10.6,0-20.2-3.9-27.7-10.3
				c-4.5,5.1-9.9,9.3-16,12.4c-6.2,29-31.9,50.8-62.8,50.8c-15.2,0-29.1-5.3-40.1-14c-3.3,9-5.4,18.5-6.1,28.5H53V250h203.3v2.1
				H256.1z"/>
			<path class="st3" d="M162.2,186.9c6.1-3.1,11.5-7.3,16-12.4c7.4,6.4,17.1,10.3,27.7,10.3c5.4,0,10.5-1,15.2-2.8
				c-17.8-15.4-41-24.7-66.4-24.7c-43.7,0-81,27.6-95.4,66.3c11,8.8,24.9,14,40.1,14C130.3,237.7,156,215.9,162.2,186.9z"/>
		</g>
	</g>
	<path class="st4" d="M565.5,231.1L565.5,231.1c-2.9,0-5.2-2.3-5.2-5.2V31.3c0-2.9,2.3-5.2,5.2-5.2l0,0c2.9,0,5.2,2.3,5.2,5.2v194.6
		C570.7,228.8,568.4,231.1,565.5,231.1z"/>
	<g>
		<g>
			<rect x="570.7" y="36.3" class="st3" width="33.7" height="33.7"/>
			<rect x="570.7" y="70" width="33.7" height="33.7"/>
			<rect x="604.5" y="70.1" class="st3" width="33.7" height="33.7"/>
			<rect x="604.5" y="36.3" width="33.7" height="33.7"/>
			<rect x="638.2" y="36.3" class="st3" width="33.7" height="33.7"/>
			<rect x="638.2" y="70" width="33.7" height="33.7"/>
			<rect x="672" y="70.1" class="st3" width="33.7" height="33.7"/>
			<rect x="672" y="36.3" width="33.7" height="33.7"/>
			<rect x="705.7" y="36.3" class="st3" width="33.7" height="33.7"/>
			<rect x="705.7" y="70" width="33.7" height="33.7"/>
			<rect x="739.5" y="70.1" class="st3" width="33.7" height="33.7"/>
			<rect x="739.5" y="36.3" width="33.7" height="33.7"/>
		</g>
		<g>
			<g>
				<g>
					<path class="st5" d="M620,84.1c-0.5,0-1.1,0-1.9-0.1c-0.8-0.1-1.6-0.2-2.4-0.4c-0.9-0.2-1.8-0.4-2.6-0.7
						c-0.9-0.3-1.7-0.6-2.5-1s-1.5-0.9-2-1.4c-0.6-0.7-0.9-1.4-0.9-2.3s0.3-1.7,1-2.4c0.7-0.7,1.5-1.1,2.4-1.1
						c0.6,0,1.1,0.1,1.6,0.4c0.6,0.3,1.2,0.6,1.8,0.9c0.6,0.2,1.2,0.4,1.8,0.6s1.2,0.3,1.8,0.4s1.3,0.1,2,0.1c0.4,0,1,0,1.6-0.1
						s1.1-0.2,1.6-0.3c0.5-0.2,0.8-0.4,1.2-0.7c0.1-0.1,0.3-0.3,0.3-0.8c0-0.3-0.1-0.7-0.7-1c-0.7-0.4-1.6-0.8-2.7-1.1
						c-1.1-0.4-2.4-0.7-3.7-1.1c-1.4-0.4-2.8-0.9-4-1.6c-1.3-0.7-2.3-1.6-3.2-2.7c-0.9-1.2-1.4-2.7-1.4-4.6c0-1.6,0.4-3,1.2-4.1
						c0.7-1.1,1.7-1.9,2.9-2.5c1.1-0.6,2.3-1,3.7-1.2c1.3-0.2,2.6-0.3,3.8-0.3c0.6,0,1.3,0,2.1,0.1s1.6,0.2,2.4,0.3
						c0.8,0.1,1.6,0.3,2.3,0.5c0.8,0.2,1.5,0.5,2.1,0.7c0.6,0.3,1.1,0.7,1.5,1.1c0.4,0.5,0.6,1.2,0.6,2c0,0.9-0.3,1.8-1,2.4
						s-1.5,1-2.4,1c-0.4,0-0.8-0.1-1.3-0.3c-1-0.4-2.1-0.7-3.1-0.9s-2.1-0.3-3.2-0.3c-0.4,0-0.9,0-1.5,0c-0.5,0-1.1,0.1-1.6,0.2
						c-0.4,0.1-0.8,0.3-1.1,0.5c-0.1,0.1-0.2,0.2-0.2,0.6c0,0.1,0,0.3,0.2,0.5c0.2,0.3,0.6,0.5,1,0.8c0.4,0.3,1,0.5,1.5,0.7
						c0.6,0.2,1.2,0.4,1.8,0.6s1.1,0.3,1.6,0.5c0.5,0.1,0.9,0.3,1.2,0.3c1,0.3,2,0.7,3,1.1s1.9,0.9,2.7,1.6c0.8,0.6,1.4,1.5,1.9,2.4
						c0.5,1,0.7,2.1,0.7,3.4c0,1.7-0.4,3.2-1.1,4.4c-0.7,1.1-1.7,2.1-2.9,2.8c-1.1,0.7-2.4,1.1-3.8,1.4
						C622.7,83.9,621.3,84.1,620,84.1z"/>
					<path d="M620.6,56c0.6,0,1.3,0,2.1,0.1s1.5,0.2,2.3,0.3s1.5,0.3,2.3,0.5c0.7,0.2,1.4,0.4,1.9,0.7c0.4,0.2,0.8,0.5,1.1,0.9
						s0.4,0.8,0.4,1.3c0,0.7-0.2,1.3-0.7,1.7c-0.5,0.5-1.1,0.7-1.7,0.7c-0.3,0-0.6-0.1-0.9-0.2c-1.1-0.4-2.2-0.7-3.2-0.9
						c-1.1-0.2-2.2-0.3-3.4-0.3c-0.4,0-0.9,0-1.5,0s-1.2,0.1-1.8,0.3s-1.1,0.4-1.5,0.7s-0.6,0.8-0.6,1.4c0,0.4,0.2,0.8,0.5,1.2
						s0.7,0.7,1.2,1s1.1,0.6,1.7,0.8c0.6,0.2,1.2,0.4,1.8,0.6s1.1,0.3,1.6,0.5c0.5,0.1,0.9,0.3,1.2,0.3c1,0.3,1.9,0.7,2.9,1
						c0.9,0.4,1.7,0.8,2.4,1.4s1.2,1.3,1.7,2.1c0.4,0.8,0.6,1.8,0.6,3c0,1.5-0.3,2.8-1,3.8s-1.5,1.8-2.5,2.4s-2.2,1-3.5,1.3
						c-1.3,0.2-2.6,0.4-3.9,0.4c-0.4,0-1,0-1.8-0.1c-0.7-0.1-1.5-0.2-2.3-0.4c-0.8-0.2-1.7-0.4-2.5-0.6c-0.8-0.3-1.6-0.6-2.3-0.9
						c-0.7-0.4-1.3-0.8-1.7-1.2c-0.4-0.5-0.7-1-0.7-1.6s0.2-1.2,0.7-1.7s1-0.7,1.7-0.7c0.4,0,0.8,0.1,1.1,0.3
						c0.7,0.4,1.3,0.7,1.9,0.9c0.6,0.3,1.3,0.5,1.9,0.6c0.6,0.2,1.3,0.3,1.9,0.4c0.7,0.1,1.4,0.1,2.1,0.1c0.5,0,1,0,1.7-0.1
						c0.6-0.1,1.3-0.2,1.8-0.4c0.6-0.2,1.1-0.5,1.5-0.9s0.6-0.9,0.6-1.5c0-0.8-0.4-1.4-1.2-1.9s-1.7-0.9-2.9-1.2
						c-1.1-0.4-2.4-0.7-3.8-1.1c-1.4-0.4-2.6-0.9-3.8-1.5c-1.1-0.6-2.1-1.4-2.9-2.5c-0.8-1-1.2-2.4-1.2-4c0-1.4,0.3-2.6,1-3.6
						s1.5-1.7,2.5-2.2s2.2-0.9,3.4-1.1C618.2,56.1,619.5,56,620.6,56 M620.6,54c-1.3,0-2.6,0.1-4,0.3c-1.5,0.2-2.8,0.7-4,1.3
						c-1.3,0.7-2.4,1.6-3.2,2.8c-0.9,1.3-1.3,2.9-1.3,4.7c0,2.1,0.5,3.9,1.6,5.2c0.9,1.2,2.1,2.3,3.5,3c1.3,0.7,2.7,1.3,4.2,1.7
						c1.3,0.4,2.6,0.7,3.7,1.1c1,0.3,1.8,0.6,2.4,1c0.1,0.1,0.2,0.1,0.2,0.1l0,0c0,0,0,0,0,0.1c-0.2,0.2-0.5,0.3-0.8,0.4
						c-0.4,0.1-0.9,0.2-1.4,0.3c-0.6,0.1-1.1,0.1-1.5,0.1c-0.7,0-1.3,0-1.9-0.1c-0.6-0.1-1.1-0.2-1.7-0.3c-0.5-0.1-1.1-0.3-1.6-0.6
						c-0.6-0.2-1.1-0.5-1.7-0.8c-0.7-0.4-1.4-0.6-2.1-0.6c-1.2,0-2.3,0.5-3.1,1.4s-1.3,1.9-1.3,3.1c0,1.1,0.4,2.1,1.2,2.9
						c0.6,0.6,1.4,1.2,2.2,1.6s1.7,0.8,2.6,1c0.9,0.3,1.8,0.5,2.7,0.7s1.7,0.3,2.5,0.4s1.5,0.1,2,0.1c1.4,0,2.8-0.1,4.2-0.4
						c1.5-0.3,2.9-0.8,4.1-1.5c1.3-0.8,2.4-1.8,3.2-3.1c0.9-1.3,1.3-3,1.3-4.9c0-1.5-0.3-2.8-0.8-3.9s-1.3-2-2.2-2.7
						c-0.8-0.7-1.8-1.3-2.9-1.7c-1-0.4-2-0.8-3-1.1l0,0l0,0c-0.3-0.1-0.7-0.2-1.2-0.3c-0.5-0.1-1-0.3-1.6-0.5
						c-0.5-0.2-1.1-0.4-1.7-0.6c-0.5-0.2-1-0.4-1.4-0.6c-0.2-0.1-0.4-0.3-0.6-0.4c0.1-0.1,0.3-0.1,0.5-0.2c0.4-0.1,0.9-0.2,1.3-0.2
						c0.6,0,1.1,0,1.5,0c1,0,2,0.1,3,0.3s2,0.5,3,0.8c0.6,0.2,1.1,0.3,1.6,0.3c1.2,0,2.3-0.5,3.2-1.3c0.9-0.9,1.3-1.9,1.3-3.2
						c0-1-0.3-1.9-0.9-2.6c-0.5-0.6-1.1-1.1-1.8-1.4c-0.7-0.3-1.4-0.6-2.3-0.8c-0.8-0.2-1.6-0.4-2.4-0.5c-0.8-0.2-1.7-0.3-2.5-0.3
						C622,54.1,621.3,54,620.6,54L620.6,54z"/>
				</g>
				<g>
					<path class="st5" d="M644.9,83.9c-1,0-1.9-0.4-2.6-1.1c-0.7-0.7-1-1.6-1-2.6V62.4h-6.2c-1,0-1.8-0.3-2.4-1s-1-1.5-1-2.4
						s0.3-1.8,1-2.4c0.7-0.7,1.5-1,2.4-1h19.6c0.9,0,1.8,0.3,2.4,1c0.7,0.7,1,1.5,1,2.4s-0.4,1.8-1,2.4c-0.7,0.7-1.5,1-2.4,1h-6.2
						v17.9c0,1-0.4,1.9-1.1,2.6C646.7,83.5,645.9,83.9,644.9,83.9z"/>
					<path d="M654.7,56.5c0.7,0,1.3,0.2,1.7,0.7c0.5,0.5,0.7,1.1,0.7,1.7c0,0.7-0.2,1.3-0.7,1.7c-0.5,0.5-1.1,0.7-1.7,0.7h-7.2v18.9
						c0,0.7-0.3,1.4-0.8,1.9s-1.1,0.8-1.9,0.8s-1.3-0.3-1.8-0.8s-0.7-1.1-0.7-1.9V61.4h-7.2c-0.7,0-1.3-0.2-1.7-0.7s-0.7-1-0.7-1.7
						s0.2-1.3,0.7-1.7s1-0.7,1.7-0.7L654.7,56.5 M654.7,54.5h-19.6c-1.2,0-2.3,0.5-3.2,1.3c-0.8,0.9-1.3,1.9-1.3,3.1
						c0,1.2,0.4,2.3,1.3,3.1c0.8,0.8,1.9,1.3,3.1,1.3h5.2v16.9c0,1.3,0.5,2.4,1.3,3.3c0.9,0.9,2,1.4,3.3,1.4s2.4-0.5,3.3-1.3
						c0.9-0.9,1.3-2,1.3-3.3V63.4h5.2c1.2,0,2.3-0.4,3.1-1.3c0.9-0.8,1.3-1.9,1.3-3.2c0-1.2-0.5-2.3-1.3-3.2
						C657,54.9,655.9,54.5,654.7,54.5L654.7,54.5z"/>
				</g>
				<g>
					<path class="st5" d="M680.2,83.9c-0.7,0-1.3-0.2-1.9-0.5c-0.5-0.3-1-0.8-1.2-1.4l-1.9-4.2h-10l-1.9,4.2
						c-0.3,0.6-0.7,1.1-1.3,1.5c-0.6,0.3-1.2,0.5-1.8,0.5c-1,0-1.8-0.3-2.4-1c-0.7-0.7-1-1.5-1-2.4c0-0.5,0.1-1,0.3-1.4l10-21.9
						c0.3-0.6,0.7-1.1,1.2-1.4c0.6-0.4,1.2-0.6,1.8-0.6s1.3,0.2,1.8,0.5c0.6,0.4,1,0.8,1.3,1.5l10,21.9c0.2,0.5,0.3,1,0.3,1.4
						c0,0.9-0.3,1.8-1,2.4C682,83.5,681.1,83.9,680.2,83.9z M672.3,71.3l-2.1-4.7l-2.1,4.7H672.3z"/>
					<path d="M670.1,56.1c0.5,0,0.9,0.1,1.3,0.4c0.4,0.2,0.7,0.6,0.9,1l10,21.9c0.1,0.3,0.2,0.7,0.2,1c0,0.7-0.2,1.3-0.7,1.7
						s-1,0.7-1.7,0.7c-0.5,0-0.9-0.1-1.3-0.4c-0.4-0.2-0.7-0.6-0.9-1l-2.2-4.8h-11.3l-2.2,4.8c-0.2,0.4-0.5,0.8-0.9,1
						s-0.8,0.4-1.3,0.4c-0.7,0-1.3-0.2-1.7-0.7c-0.5-0.5-0.7-1.1-0.7-1.7c0-0.3,0.1-0.7,0.2-1l10-21.9c0.2-0.4,0.5-0.8,0.9-1
						C669.2,56.3,669.6,56.1,670.1,56.1 M666.5,72.3h7.3l-3.7-8.1L666.5,72.3 M670.1,54.1c-0.9,0-1.7,0.2-2.4,0.7s-1.2,1.1-1.6,1.9
						l-10,21.8c-0.3,0.6-0.4,1.2-0.4,1.8c0,1.2,0.5,2.3,1.3,3.2c0.9,0.9,1.9,1.3,3.2,1.3c0.9,0,1.6-0.2,2.4-0.7
						c0.7-0.5,1.3-1.1,1.6-1.9l1.6-3.6h8.7l1.6,3.6c0.4,0.8,0.9,1.4,1.6,1.9c0.7,0.5,1.5,0.7,2.4,0.7c1.2,0,2.3-0.5,3.1-1.3
						s1.3-1.9,1.3-3.1c0-0.6-0.1-1.2-0.3-1.7v-0.1v-0.1l-10-21.9c-0.4-0.8-1-1.5-1.7-1.9C671.7,54.4,670.9,54.1,670.1,54.1
						L670.1,54.1z M669.6,70.3l0.6-1.3l0.6,1.3H669.6L669.6,70.3z"/>
				</g>
				<g>
					<path class="st5" d="M706.3,83.9c-0.7,0-1.3-0.2-1.8-0.5c-0.6-0.3-1-0.8-1.3-1.4c-0.1-0.2-0.3-0.5-0.5-1l-0.8-1.7
						c-0.4-0.8-0.7-1.5-1.1-2.3c-0.4-0.8-0.8-1.5-1.1-2.2c-0.3-0.6-0.6-1.2-0.8-1.6c0-0.1-0.1-0.1-0.1-0.2h-5.5v7.3
						c0,1-0.4,1.9-1.1,2.6c-0.7,0.7-1.6,1-2.5,1c-1,0-1.9-0.3-2.5-1c-0.7-0.7-1-1.5-1-2.5V59.1c0-1,0.3-1.9,1-2.5
						c0.7-0.7,1.5-1,2.5-1h9.7c1.3,0,2.7,0.1,3.9,0.4c1.3,0.3,2.4,0.8,3.4,1.5s1.8,1.7,2.4,2.8c0.6,1.1,0.9,2.5,0.9,4.1
						c0,1.7-0.4,3.3-1.2,4.6c-0.6,1.1-1.6,2-2.7,2.6c0,0.1,0.1,0.1,0.1,0.2c0.3,0.5,0.6,1.1,0.9,1.7c0.3,0.6,0.6,1.3,1,1.9
						c0.3,0.7,0.6,1.3,0.9,1.9c0.3,0.6,0.5,1.2,0.7,1.7c0.2,0.6,0.3,1,0.3,1.4c0,1-0.3,1.8-1,2.5C708.1,83.5,707.3,83.9,706.3,83.9z
						 M700.1,66.6c0.8,0,1.4-0.2,1.9-0.6c0.3-0.2,0.6-0.6,0.6-1.5c0-1-0.4-1.4-0.6-1.6c-0.5-0.4-1.1-0.6-1.9-0.6h-6.8v4.3
						C693.3,66.6,700.1,66.6,700.1,66.6z"/>
					<path d="M699.4,56.5c1.3,0,2.5,0.1,3.7,0.4c1.2,0.3,2.2,0.7,3,1.4c0.9,0.6,1.5,1.4,2.1,2.4s0.8,2.2,0.8,3.6
						c0,1.5-0.4,2.9-1.1,4.1c-0.7,1.2-1.8,2.1-3.2,2.7c0.1,0.3,0.3,0.6,0.6,1.1s0.5,1,0.9,1.7c0.3,0.6,0.6,1.3,1,1.9
						s0.6,1.3,0.9,1.9c0.3,0.6,0.5,1.1,0.7,1.6s0.3,0.8,0.3,1c0,0.7-0.2,1.3-0.7,1.8s-1.1,0.7-1.8,0.7c-0.5,0-0.9-0.1-1.3-0.4
						c-0.4-0.2-0.7-0.6-0.9-1c-0.1-0.1-0.2-0.5-0.5-1s-0.5-1.1-0.9-1.8c-0.3-0.7-0.7-1.4-1.1-2.2c-0.4-0.8-0.7-1.5-1.1-2.1
						c-0.3-0.7-0.6-1.2-0.8-1.6s-0.3-0.7-0.3-0.7h-7.2v8.3c0,0.7-0.3,1.3-0.8,1.8s-1.1,0.7-1.8,0.7s-1.3-0.2-1.8-0.7
						s-0.7-1.1-0.7-1.8V59.1c0-0.7,0.2-1.3,0.7-1.8s1.1-0.7,1.8-0.7L699.4,56.5 M692.3,67.6h7.8c1,0,1.8-0.3,2.5-0.8
						s1.1-1.3,1.1-2.3s-0.3-1.8-1-2.4c-0.7-0.5-1.5-0.8-2.5-0.8h-7.8L692.3,67.6 M699.4,54.5h-9.7c-1.3,0-2.4,0.5-3.3,1.3
						c-0.9,0.9-1.3,2-1.3,3.3v21.2c0,1.3,0.5,2.4,1.3,3.3c0.9,0.9,2,1.3,3.3,1.3c1.2,0,2.3-0.4,3.2-1.3s1.4-2,1.4-3.3V74h3.9
						c0.2,0.4,0.4,0.8,0.6,1.2c0.3,0.7,0.7,1.4,1.1,2.2c0.4,0.8,0.7,1.5,1.1,2.2v0.1l0.8,1.7c0.3,0.6,0.4,0.9,0.5,1
						c0.4,0.8,0.9,1.4,1.6,1.8c0.7,0.4,1.5,0.7,2.4,0.7c1.2,0,2.3-0.5,3.2-1.3c0.9-0.9,1.3-2,1.3-3.2c0-0.5-0.1-1-0.4-1.7
						c-0.2-0.5-0.4-1.1-0.7-1.7s-0.6-1.3-0.9-1.9c-0.3-0.7-0.7-1.3-1-2c-0.2-0.4-0.4-0.8-0.6-1.1c0.9-0.7,1.7-1.5,2.3-2.5
						c0.9-1.5,1.3-3.2,1.3-5.1c0-1.7-0.3-3.3-1-4.6s-1.5-2.3-2.7-3.1c-1.1-0.8-2.3-1.3-3.7-1.7C702.2,54.7,700.8,54.5,699.4,54.5
						L699.4,54.5z M694.3,63.3h5.8c0.7,0,1.1,0.2,1.3,0.4c0.1,0.1,0.3,0.2,0.3,0.8c0,0.5-0.2,0.7-0.2,0.7c-0.4,0.3-0.8,0.4-1.3,0.4
						h-5.8L694.3,63.3L694.3,63.3z"/>
				</g>
				<g>
					<path class="st5" d="M723.8,83.9c-1,0-1.9-0.4-2.6-1.1c-0.7-0.7-1-1.6-1-2.6V62.4H714c-1,0-1.8-0.3-2.4-1s-1-1.5-1-2.4
						s0.3-1.8,1-2.4c0.7-0.7,1.5-1,2.4-1h19.6c1,0,1.8,0.3,2.4,1c0.7,0.7,1,1.5,1,2.4s-0.4,1.8-1,2.4c-0.7,0.7-1.5,1-2.4,1h-6.2
						v17.9c0,1-0.4,1.9-1.1,2.6C725.7,83.5,724.8,83.9,723.8,83.9z"/>
					<path d="M733.6,56.5c0.7,0,1.3,0.2,1.7,0.7c0.5,0.5,0.7,1.1,0.7,1.7c0,0.7-0.2,1.3-0.7,1.7c-0.5,0.5-1.1,0.7-1.7,0.7h-7.2v18.9
						c0,0.7-0.3,1.4-0.8,1.9s-1.1,0.8-1.9,0.8s-1.3-0.3-1.8-0.8s-0.7-1.1-0.7-1.9V61.4H714c-0.7,0-1.3-0.2-1.7-0.7s-0.7-1-0.7-1.7
						s0.2-1.3,0.7-1.7s1-0.7,1.7-0.7L733.6,56.5 M733.6,54.5H714c-1.2,0-2.3,0.5-3.2,1.3c-0.8,0.9-1.3,1.9-1.3,3.1
						c0,1.2,0.4,2.3,1.3,3.1c0.8,0.8,1.9,1.3,3.1,1.3h5.2v16.9c0,1.3,0.5,2.4,1.3,3.3c0.9,0.9,2,1.4,3.3,1.4s2.4-0.5,3.3-1.3
						c0.9-0.9,1.3-2,1.3-3.3V63.4h5.2c1.2,0,2.3-0.4,3.1-1.3c0.9-0.8,1.3-1.9,1.3-3.2c0-1.2-0.5-2.3-1.3-3.2
						C735.9,54.9,734.8,54.5,733.6,54.5L733.6,54.5z"/>
				</g>
			</g>
		</g>
		<path class="st4" d="M778.4,231.1L778.4,231.1c-2.9,0-5.2-2.3-5.2-5.2V31.3c0-2.9,2.3-5.2,5.2-5.2l0,0c2.9,0,5.2,2.3,5.2,5.2
			v194.6C783.6,228.8,781.2,231.1,778.4,231.1z"/>
	</g>
</g>
<g id="Layer_2_9_">
	<g id="Layer_24_2_">
		<g>
			<path class="st3" d="M538.6,227c-14.8-51.1-122.7-90.9-253.8-90.9S45.9,175.8,31.1,227H538.6z"/>
			<path class="st6" d="M520.4,227c-14-49.1-114.1-87.1-235.5-87.1S63.3,177.9,49.4,227H520.4z"/>
			<path class="st7" d="M108.6,218.6L79.9,228c-0.8,0.3-1.3,1-1.4,1.8L77,245.2h16.9l33.7-11l2.5,2.1l-3.9,8.9h203.9l-9.1-6.9
				c0.4-0.3,0.7-0.8,0.8-1.3l1.5-7.7l16.1,15.9H456l-1.5-3.4l2.5-2.1l16.9,5.5h33.3l-1-9.9c-0.1-0.8-0.6-1.5-1.4-1.8l-28.7-9.3
				l1-0.8l45,8.3c1.1,0.2,2.2-0.5,2.4-1.7c0-0.3,0-0.6,0-0.8l-4.1-17.5c-0.2-0.8-0.8-1.4-1.6-1.6l-20.8-3.8l2.4-1.9
				c0.6-0.5,0.9-1.4,0.7-2.2l-4.9-17.4c-0.3-1.1-1.5-1.7-2.6-1.4c-0.3,0.1-0.5,0.2-0.7,0.4l-21.6,17.6l-27.2-5
				c0.3-0.5,0.3-1,0.2-1.5l-4.9-17.4c-0.3-1.1-1.5-1.7-2.6-1.4c-0.3,0.1-0.5,0.2-0.7,0.4l-10.3,8.4l2-10.5c0.2-1.1-0.5-2.2-1.6-2.4
				c-0.3-0.1-0.6,0-0.8,0l-27.2,6.1l-22.1-16.6c0.4-0.3,0.7-0.8,0.8-1.3l3.4-17.7c0.2-1.1-0.5-2.2-1.6-2.4c-0.3-0.1-0.6,0-0.8,0
				l-27.2,6.1l-37.2-28c-0.9-0.7-2.2-0.5-2.9,0.4c-0.2,0.2-0.3,0.5-0.4,0.8l-3,12.4l-8.9-8.8c-0.8-0.8-2.1-0.8-2.9,0
				c-0.2,0.2-0.4,0.4-0.5,0.7l-6.5,16.9c-0.3,0.8-0.1,1.6,0.5,2.2l14.3,14.1l-17.5,3.9l-6.9-3.4c-1-0.5-2.3-0.1-2.8,0.9
				c-0.1,0.3-0.2,0.5-0.2,0.8l-1,18c0,0.8,0.4,1.6,1.1,2l2.7,1.4l-8,3.4l-17.5-13.2c0.4-0.3,0.7-0.8,0.8-1.3l3.4-17.7
				c0.2-1.1-0.5-2.2-1.6-2.4c-0.3-0.1-0.6,0-0.8,0l-27.1,6.1l-37.2-28c-0.9-0.7-2.2-0.5-2.9,0.4c-0.2,0.2-0.3,0.5-0.4,0.8l-3,12.4
				l-8.9-8.8c-0.8-0.8-2.1-0.8-2.9,0c-0.2,0.2-0.4,0.4-0.5,0.7l-6.5,16.9c-0.3,0.8-0.1,1.6,0.5,2.2l14.3,14.1l-17.5,3.9l-6.9-3.4
				c-1-0.5-2.3-0.1-2.8,0.9c-0.1,0.3-0.2,0.5-0.2,0.8l-0.3,6.3l-4.2-3.4c-0.9-0.7-2.2-0.6-2.9,0.3c-0.2,0.2-0.3,0.5-0.4,0.7
				l-4.9,17.4c-0.1,0.5-0.1,1,0.2,1.5l-27.2,5l-21.6-17.6c-0.9-0.7-2.2-0.6-2.9,0.3c-0.2,0.2-0.3,0.5-0.4,0.7l-4.9,17.4
				c-0.2,0.8,0,1.6,0.7,2.2l2.4,1.9l-20.8,3.8c-0.8,0.1-1.4,0.8-1.6,1.6l-4.1,17.5c-0.3,1.1,0.4,2.2,1.5,2.5c0.3,0.1,0.6,0.1,0.8,0
				l45-8.3L108.6,218.6z M341.9,211.9l19.5,9.7c1,0.5,2.3,0.1,2.8-0.9c0,0,0,0,0,0l12.7,4.1L363,236.1h-3.3c0-0.1-0.1-0.1-0.1-0.2
				l-23.1-22.8L341.9,211.9z M328.6,205.2l0,0.1l-0.3-0.3L328.6,205.2z M219.1,221l19.5,9.7c1,0.5,2.3,0.1,2.8-0.9
				c0.1-0.3,0.2-0.5,0.2-0.8l0.1-1.8l6.5,6.4l-17.5,3.9l-1.1-0.5l1.5-3.5c0.5-1,0-2.3-1.1-2.7c-0.3-0.1-0.5-0.2-0.8-0.2h-7.2
				l-8.5-8.3L219.1,221z"/>
			<g>
				<g>
					<path class="st8" d="M155.8,203.5l-93.3,17.1c-1.1,0.2-2.2-0.5-2.4-1.7c-0.1-0.3,0-0.6,0-0.8l4.1-17.5c0.2-0.8,0.8-1.4,1.6-1.6
						l93.3-17.1c1.1-0.2,2.2,0.5,2.4,1.6c0.1,0.3,0,0.6,0,0.8l-4.1,17.5C157.3,202.7,156.6,203.3,155.8,203.5z"/>
					<path class="st9" d="M66.2,200.1c0,0,12.4,12.7-4.1,18.5L66.2,200.1z"/>
					
						<rect x="69.5" y="192" transform="matrix(0.9835 -0.1809 0.1809 0.9835 -32.9255 23.8377)" class="st10" width="89.5" height="0.9"/>
					
						<rect x="70" y="194.9" transform="matrix(0.9835 -0.1809 0.1809 0.9835 -33.4608 23.7342)" class="st10" width="86.8" height="0.9"/>
				</g>
				<g>
					<path class="st8" d="M170.1,214.9l-90.7,29.5c-1.1,0.4-2.3-0.2-2.6-1.3c-0.1-0.3-0.1-0.6-0.1-0.8l1.7-18
						c0.1-0.8,0.6-1.5,1.4-1.8l90.7-29.5c1.1-0.4,2.3,0.2,2.6,1.3c0.1,0.3,0.1,0.6,0.1,0.8l-1.7,18
						C171.4,213.9,170.9,214.6,170.1,214.9z"/>
					<path class="st9" d="M80.3,223.5c0,0,14,11-1.6,19L80.3,223.5z"/>
					
						<rect x="82.2" y="209" transform="matrix(0.951 -0.3093 0.3093 0.951 -58.553 49.6116)" class="st10" width="90" height="0.9"/>
					
						<rect x="83.1" y="212" transform="matrix(0.951 -0.3093 0.3093 0.951 -59.4984 49.6193)" class="st10" width="87.3" height="0.9"/>
				</g>
				<g>
					
						<rect x="125.8" y="158.8" transform="matrix(0.6324 -0.7746 0.7746 0.6324 -111.4497 172.7147)" class="st10" width="0.9" height="90"/>
					
						<rect x="125.2" y="163.1" transform="matrix(0.6324 -0.7746 0.7746 0.6324 -113.9759 173.2854)" class="st10" width="0.9" height="87.3"/>
				</g>
				<g>
					<path class="st8" d="M212.6,196.1l-93.3,17.1c-1.1,0.2-2.2-0.5-2.4-1.7c-0.1-0.3,0-0.6,0-0.8l4.1-17.5c0.2-0.8,0.8-1.4,1.6-1.6
						l93.3-17.1c1.1-0.2,2.2,0.5,2.4,1.6c0.1,0.3,0,0.6,0,0.8l-4.1,17.5C214.1,195.4,213.4,196,212.6,196.1z"/>
					<path class="st9" d="M123,192.8c0,0,12.4,12.7-4.1,18.5L123,192.8z"/>
					
						<rect x="126.3" y="184.7" transform="matrix(0.9835 -0.1809 0.1809 0.9835 -30.6641 33.9861)" class="st10" width="89.5" height="0.9"/>
					
						<rect x="126.8" y="187.6" transform="matrix(0.9835 -0.1809 0.1809 0.9835 -31.1994 33.8827)" class="st10" width="86.8" height="0.9"/>
				</g>
				<g>
					<path class="st8" d="M226.9,207.6l-90.7,29.5c-1.1,0.4-2.3-0.2-2.6-1.3c-0.1-0.3-0.1-0.6-0.1-0.8l1.7-18
						c0.1-0.8,0.6-1.5,1.4-1.8l90.7-29.5c1.1-0.4,2.3,0.2,2.6,1.3c0.1,0.3,0.1,0.6,0.1,0.8l-1.7,18
						C228.2,206.6,227.7,207.3,226.9,207.6z"/>
					<path class="st9" d="M137,216.1c0,0,14,11-1.6,19L137,216.1z"/>
					
						<rect x="139" y="201.7" transform="matrix(0.951 -0.3093 0.3093 0.951 -53.5027 66.8146)" class="st10" width="90" height="0.9"/>
					
						<rect x="139.9" y="204.7" transform="matrix(0.951 -0.3093 0.3093 0.951 -54.448 66.8223)" class="st10" width="87.3" height="0.9"/>
				</g>
				<g>
					<path class="st8" d="M141.1,186l73.9,60.3c0.9,0.7,2.2,0.6,2.9-0.3c0.2-0.2,0.3-0.5,0.4-0.7l4.9-17.4c0.2-0.8,0-1.6-0.7-2.2
						l-73.9-60.3c-0.9-0.7-2.2-0.6-2.9,0.3c-0.2,0.2-0.3,0.5-0.4,0.7l-4.9,17.4C140.2,184.6,140.4,185.5,141.1,186z"/>
					<path class="st9" d="M221.7,226.5c0,0-17,5.2-5.4,18.2L221.7,226.5z"/>
					
						<rect x="182.6" y="151.5" transform="matrix(0.6324 -0.7746 0.7746 0.6324 -84.906 214.0039)" class="st10" width="0.9" height="90"/>
					
						<rect x="181.9" y="155.8" transform="matrix(0.6324 -0.7746 0.7746 0.6324 -87.4307 214.574)" class="st10" width="0.9" height="87.3"/>
				</g>
				<g>
					<path class="st8" d="M222.1,245.8h-95.4c-1.1,0-2.1-0.9-2.1-2.1c0-0.3,0.1-0.6,0.2-0.8l7.2-16.6c0.3-0.8,1.1-1.2,1.9-1.2h95.4
						c1.1,0,2.1,0.9,2.1,2.1c0,0.3-0.1,0.6-0.2,0.8l-7.2,16.6C223.7,245.3,223,245.8,222.1,245.8z"/>
					<path class="st9" d="M134.1,226.1c0,0,9.9,14.8-7.4,17.5L134.1,226.1z"/>
					<rect x="138" y="226.9" class="st10" width="90" height="0.9"/>
					<rect x="138" y="229.6" class="st10" width="87.3" height="0.9"/>
				</g>
				<g>
					<path class="st8" d="M428.8,209l93.3,17.1c1.1,0.2,2.2-0.5,2.4-1.7c0.1-0.3,0-0.6,0-0.8l-4.1-17.5c-0.2-0.8-0.8-1.4-1.6-1.6
						l-93.3-17.1c-1.1-0.2-2.2,0.5-2.4,1.6c-0.1,0.3,0,0.6,0,0.8l4.1,17.5C427.3,208.2,428,208.8,428.8,209z"/>
					<path class="st9" d="M518.4,205.6c0,0-12.4,12.7,4.1,18.5L518.4,205.6z"/>
					
						<rect x="469.9" y="153.2" transform="matrix(0.1809 -0.9835 0.9835 0.1809 190.5918 624.7654)" class="st10" width="0.9" height="89.5"/>
					
						<rect x="470.8" y="157.5" transform="matrix(0.1809 -0.9835 0.9835 0.1809 188.4415 627.9482)" class="st10" width="0.9" height="86.8"/>
				</g>
				<g>
					<path class="st8" d="M414.5,219.4l90.7,29.5c1.1,0.4,2.3-0.2,2.6-1.3c0.1-0.3,0.1-0.6,0.1-0.8l-1.7-18
						c-0.1-0.8-0.6-1.5-1.4-1.8l-90.7-29.5c-1.1-0.4-2.3,0.2-2.6,1.3c-0.1,0.3-0.1,0.6-0.1,0.8l1.7,18
						C413.2,218.4,413.7,219.1,414.5,219.4z"/>
					<path class="st9" d="M504.4,229c0,0-14,11,1.6,19L504.4,229z"/>
					
						<rect x="457" y="170" transform="matrix(0.3093 -0.951 0.951 0.3093 111.5234 583.4685)" class="st10" width="0.9" height="90"/>
					
						<rect x="457.4" y="174.3" transform="matrix(0.3093 -0.951 0.951 0.3093 108.9978 585.9553)" class="st10" width="0.9" height="87.3"/>
				</g>
				<g>
					<path class="st8" d="M496.3,185.8l-73.9,60.3c-0.9,0.7-2.2,0.6-2.9-0.3c-0.2-0.2-0.3-0.5-0.4-0.7l-4.9-17.4
						c-0.2-0.8,0-1.6,0.7-2.2l73.9-60.3c0.9-0.7,2.2-0.6,2.9,0.3c0.2,0.2,0.3,0.5,0.4,0.7l4.9,17.4
						C497.2,184.5,497,185.3,496.3,185.8z"/>
					<path class="st9" d="M415.7,226.3c0,0,17,5.2,5.4,18.2L415.7,226.3z"/>
					
						<rect x="409.4" y="195.8" transform="matrix(0.7746 -0.6324 0.6324 0.7746 -21.7349 331.5927)" class="st10" width="90" height="0.9"/>
					
						<rect x="411.4" y="198.8" transform="matrix(0.7746 -0.6324 0.6324 0.7746 -23.4468 332.674)" class="st10" width="87.3" height="0.9"/>
				</g>
				<g>
					<path class="st8" d="M372,201.6l93.3,17.1c1.1,0.2,2.2-0.5,2.4-1.7c0.1-0.3,0-0.6,0-0.8l-4.1-17.5c-0.2-0.8-0.8-1.4-1.6-1.6
						l-93.3-17.1c-1.1-0.2-2.2,0.5-2.4,1.6c-0.1,0.3,0,0.6,0,0.8l4.1,17.5C370.6,200.9,371.2,201.5,372,201.6z"/>
					<path class="st9" d="M461.7,198.3c0,0-12.4,12.7,4.1,18.5L461.7,198.3z"/>
					
						<rect x="413.1" y="145.9" transform="matrix(0.1809 -0.9835 0.9835 0.1809 151.2871 562.9203)" class="st10" width="0.9" height="89.5"/>
					
						<rect x="414" y="150.1" transform="matrix(0.1809 -0.9835 0.9835 0.1809 149.1368 566.103)" class="st10" width="0.9" height="86.8"/>
				</g>
				<g>
					<path class="st8" d="M357.7,213.1l90.7,29.5c1.1,0.4,2.3-0.2,2.6-1.3c0.1-0.3,0.1-0.6,0.1-0.8l-1.7-18
						c-0.1-0.8-0.6-1.5-1.4-1.8l-90.7-29.5c-1.1-0.4-2.3,0.2-2.6,1.3c-0.1,0.3-0.1,0.6-0.1,0.8l1.7,18
						C356.4,212.1,356.9,212.8,357.7,213.1z"/>
					<path class="st9" d="M447.6,221.6c0,0-14,11,1.6,19L447.6,221.6z"/>
					
						<rect x="400.2" y="162.6" transform="matrix(0.3093 -0.951 0.951 0.3093 79.2743 524.4128)" class="st10" width="0.9" height="90"/>
					
						<rect x="400.7" y="167" transform="matrix(0.3093 -0.951 0.951 0.3093 76.7469 526.9008)" class="st10" width="0.9" height="87.3"/>
				</g>
				<g>
					
						<rect x="356.6" y="201.5" transform="matrix(0.7746 -0.6324 0.6324 0.7746 -37.2186 299.4921)" class="st10" width="90" height="0.9"/>
					
						<rect x="358.6" y="204.5" transform="matrix(0.7746 -0.6324 0.6324 0.7746 -38.9317 300.5739)" class="st10" width="87.3" height="0.9"/>
				</g>
				<g>
					<path class="st8" d="M362.5,249.3h95.4c1.1,0,2.1-0.9,2.1-2.1c0-0.3-0.1-0.6-0.2-0.8l-7.2-16.6c-0.3-0.8-1.1-1.2-1.9-1.2h-95.4
						c-1.1,0-2.1,0.9-2.1,2.1c0,0.3,0.1,0.6,0.2,0.8l7.2,16.6C360.9,248.8,361.6,249.3,362.5,249.3z"/>
					<path class="st9" d="M450.6,229.6c0,0-9.9,14.8,7.4,17.5L450.6,229.6z"/>
					<rect x="356.6" y="232.4" class="st10" width="90" height="0.9"/>
					<rect x="359.3" y="235.1" class="st10" width="87.3" height="0.9"/>
				</g>
				<g>
					
						<rect x="233.1" y="223.3" transform="matrix(0.9757 -0.219 0.219 0.9757 -42.2504 66.342)" class="st10" width="90" height="0.9"/>
					
						<rect x="233.7" y="226.2" transform="matrix(0.9757 -0.219 0.219 0.9757 -42.9095 66.2538)" class="st10" width="87.3" height="0.9"/>
				</g>
				<g>
					<path class="st8" d="M231.6,174.4l75.7,57.1c0.9,0.7,2.2,0.5,2.9-0.4c0.2-0.2,0.3-0.5,0.4-0.8l4.2-17.5
						c0.2-0.8-0.1-1.6-0.8-2.1l-75.7-57.1c-0.9-0.7-2.2-0.5-2.9,0.4c-0.2,0.2-0.3,0.5-0.4,0.8l-4.2,17.4
						C230.6,173.1,230.9,173.9,231.6,174.4z"/>
					<path class="st9" d="M313.3,211.5c0,0-16.7,5.8-4.6,18.3L313.3,211.5z"/>
					
						<rect x="273.2" y="138.4" transform="matrix(0.6018 -0.7986 0.7986 0.6018 -37.3261 291.493)" class="st10" width="0.9" height="89.5"/>
					
						<rect x="272.7" y="142.7" transform="matrix(0.6018 -0.7986 0.7986 0.6018 -39.8988 292.2356)" class="st10" width="0.9" height="86.8"/>
				</g>
				<g>
					<path class="st8" d="M213.7,178.3l67.9,67c0.8,0.8,2.1,0.8,2.9,0c0.2-0.2,0.4-0.4,0.5-0.7l6.5-16.8c0.3-0.8,0.1-1.6-0.5-2.2
						l-67.9-67c-0.8-0.8-2.1-0.8-2.9,0c-0.2,0.2-0.4,0.4-0.5,0.7l-6.5,16.9C212.9,176.8,213.1,177.7,213.7,178.3z"/>
					<path class="st9" d="M290.2,226.1c0,0-17.4,3.6-7.1,17.7L290.2,226.1z"/>
					
						<rect x="254" y="147.6" transform="matrix(0.7021 -0.7121 0.7121 0.7021 -61.3296 238.5778)" class="st10" width="0.9" height="90"/>
					
						<rect x="253.1" y="151.8" transform="matrix(0.7021 -0.7121 0.7121 0.7021 -63.6522 238.7695)" class="st10" width="0.9" height="87.3"/>
				</g>
				<g>
					<path class="st8" d="M300.1,197.4l-93,20.9c-1.1,0.2-2.2-0.5-2.5-1.6c-0.1-0.3-0.1-0.6,0-0.8l3.4-17.7c0.2-0.8,0.8-1.5,1.6-1.6
						l93-20.9c1.1-0.3,2.2,0.5,2.5,1.6c0.1,0.3,0.1,0.6,0,0.8l-3.4,17.7C301.5,196.5,300.9,197.2,300.1,197.4z"/>
					<path class="st9" d="M209.8,197.5c0,0,12.9,12.2-3.4,18.7L209.8,197.5z"/>
					
						<rect x="212.9" y="187.5" transform="matrix(0.9757 -0.219 0.219 0.9757 -34.8996 61.0335)" class="st10" width="90" height="0.9"/>
					
						<rect x="213.5" y="190.4" transform="matrix(0.9757 -0.219 0.219 0.9757 -35.5587 60.9453)" class="st10" width="87.3" height="0.9"/>
				</g>
				<g>
					<path class="st8" d="M184.1,142.5l75.7,57.1c0.9,0.7,2.2,0.5,2.9-0.4c0.2-0.2,0.3-0.5,0.4-0.8l4.2-17.5
						c0.2-0.8-0.1-1.6-0.8-2.1l-75.7-57.1c-0.9-0.7-2.2-0.5-2.9,0.4c-0.2,0.2-0.3,0.5-0.4,0.8l-4.2,17.4
						C183.1,141.1,183.4,142,184.1,142.5z"/>
					<path class="st9" d="M265.8,179.6c0,0-16.7,5.8-4.6,18.3L265.8,179.6z"/>
					
						<rect x="225.7" y="106.5" transform="matrix(0.6018 -0.7986 0.7986 0.6018 -30.7168 240.8349)" class="st10" width="0.9" height="89.5"/>
					
						<rect x="225.2" y="110.8" transform="matrix(0.6018 -0.7986 0.7986 0.6018 -33.2918 241.5758)" class="st10" width="0.9" height="86.8"/>
				</g>
				<g>
					<path class="st8" d="M166.2,146.3l67.9,67c0.8,0.8,2.1,0.8,2.9,0c0.2-0.2,0.4-0.4,0.5-0.7l6.5-16.8c0.3-0.8,0.1-1.6-0.5-2.2
						l-67.9-67c-0.8-0.8-2.1-0.8-2.9,0c-0.2,0.2-0.4,0.4-0.5,0.7l-6.5,16.9C165.4,144.9,165.6,145.7,166.2,146.3z"/>
					<path class="st9" d="M242.7,194.1c0,0-17.4,3.6-7.1,17.7L242.7,194.1z"/>
					
						<rect x="206.5" y="115.6" transform="matrix(0.7021 -0.7121 0.7121 0.7021 -52.7229 195.2369)" class="st10" width="0.9" height="90"/>
					
						<rect x="205.6" y="119.9" transform="matrix(0.7021 -0.7121 0.7121 0.7021 -55.0455 195.4261)" class="st10" width="0.9" height="87.3"/>
				</g>
				<g>
					<path class="st8" d="M252.6,165.4l-93,20.9c-1.1,0.3-2.2-0.4-2.5-1.6c-0.1-0.3-0.1-0.6,0-0.8l3.4-17.7c0.2-0.8,0.8-1.5,1.6-1.6
						l93-20.9c1.1-0.2,2.2,0.5,2.5,1.6c0.1,0.3,0.1,0.6,0,0.8l-3.4,17.7C254,164.6,253.4,165.2,252.6,165.4z"/>
					<path class="st9" d="M162.3,165.5c0,0,12.9,12.2-3.4,18.7L162.3,165.5z"/>
					
						<rect x="165.4" y="155.5" transform="matrix(0.9757 -0.219 0.219 0.9757 -29.0539 49.8547)" class="st10" width="90" height="0.9"/>
					
						<rect x="166" y="158.5" transform="matrix(0.9757 -0.219 0.219 0.9757 -29.7131 49.7665)" class="st10" width="87.3" height="0.9"/>
				</g>
				<g>
					<path class="st8" d="M225.3,176.8L138.1,214c-1,0.4-2.3,0-2.7-1.1c-0.1-0.3-0.2-0.5-0.2-0.8l0.1-17.9c0-0.8,0.5-1.6,1.3-1.9
						l87.2-37.2c1-0.4,2.3,0,2.7,1.1c0.1,0.3,0.2,0.5,0.2,0.8l-0.1,17.9C226.6,175.7,226.1,176.5,225.3,176.8z"/>
					<path class="st9" d="M137.1,193.1c0,0,14.8,9.7,0.1,18.9L137.1,193.1z"/>
					
						<rect x="137.6" y="174.7" transform="matrix(0.92 -0.3919 0.3919 0.92 -54.0621 85.4705)" class="st10" width="89.5" height="0.9"/>
					
						<rect x="138.8" y="177.7" transform="matrix(0.92 -0.3919 0.3919 0.92 -55.2497 85.6386)" class="st10" width="86.8" height="0.9"/>
				</g>
				<g>
					<path class="st8" d="M241.8,184.8l-82,48.6c-1,0.6-2.3,0.3-2.8-0.7c-0.1-0.2-0.2-0.5-0.3-0.8l-2.3-17.9c-0.1-0.8,0.3-1.6,1-2
						l82-48.6c1-0.6,2.3-0.3,2.8,0.7c0.1,0.2,0.2,0.5,0.3,0.8l2.3,17.9C242.9,183.6,242.5,184.4,241.8,184.8z"/>
					<path class="st9" d="M156,212.9c0,0,16.1,7.6,2.6,18.8L156,212.9z"/>
					
						<rect x="153.7" y="188.5" transform="matrix(0.8601 -0.5101 0.5101 0.8601 -68.5813 127.7619)" class="st10" width="90" height="0.9"/>
					
						<rect x="155.3" y="191.5" transform="matrix(0.8601 -0.5101 0.5101 0.8601 -70.0807 128.3067)" class="st10" width="87.3" height="0.9"/>
				</g>
				<g>
					<path class="st8" d="M153.3,182.6l85.3,42.7c1,0.5,2.3,0.1,2.8-0.9c0.1-0.3,0.2-0.5,0.2-0.8l1-18c0-0.8-0.4-1.6-1.1-2
						l-85.3-42.7c-1-0.5-2.3-0.1-2.8,0.9c-0.1,0.3-0.2,0.5-0.2,0.8l-1,18C152.1,181.4,152.6,182.2,153.3,182.6z"/>
					<path class="st9" d="M240.9,204.4c0,0-15.5,8.8-1.3,19L240.9,204.4z"/>
					
						<rect x="196.1" y="138.6" transform="matrix(0.4474 -0.8943 0.8943 0.4474 -55.5821 277.2402)" class="st10" width="0.9" height="90"/>
					
						<rect x="196.1" y="143" transform="matrix(0.4474 -0.8943 0.8943 0.4474 -58.2824 278.9072)" class="st10" width="0.9" height="87.3"/>
				</g>
				<g>
					
						<rect x="199.9" y="161.8" transform="matrix(0.7021 -0.7121 0.7121 0.7021 -87.541 204.2388)" class="st10" width="0.9" height="90"/>
					
						<rect x="199" y="166" transform="matrix(0.7021 -0.7121 0.7121 0.7021 -89.8631 204.4282)" class="st10" width="0.9" height="87.3"/>
				</g>
				<g>
					<path class="st8" d="M354.3,165.3l75.7,57.1c0.9,0.7,2.2,0.5,2.9-0.4c0.2-0.2,0.3-0.5,0.4-0.8l4.2-17.5
						c0.2-0.8-0.1-1.6-0.8-2.1l-75.7-57.1c-0.9-0.7-2.2-0.5-2.9,0.4c-0.2,0.2-0.3,0.5-0.4,0.8l-4.2,17.4
						C353.3,163.9,353.6,164.8,354.3,165.3z"/>
					<path class="st9" d="M436,202.4c0,0-16.7,5.8-4.6,18.3L436,202.4z"/>
					
						<rect x="395.9" y="129.3" transform="matrix(0.6018 -0.7986 0.7986 0.6018 18.8505 385.8521)" class="st10" width="0.9" height="89.5"/>
					
						<rect x="395.4" y="133.6" transform="matrix(0.6018 -0.7986 0.7986 0.6018 16.2771 386.5933)" class="st10" width="0.9" height="86.8"/>
				</g>
				<g>
					<path class="st8" d="M336.4,169.1l67.9,67c0.8,0.8,2.1,0.8,2.9,0c0.2-0.2,0.4-0.4,0.5-0.7l6.5-16.8c0.3-0.8,0.1-1.6-0.5-2.2
						l-67.9-67c-0.8-0.8-2.1-0.8-2.9,0c-0.2,0.2-0.4,0.4-0.5,0.7l-6.5,16.9C335.6,167.7,335.8,168.5,336.4,169.1z"/>
					<path class="st9" d="M412.9,216.9c0,0-17.4,3.6-7.1,17.7L412.9,216.9z"/>
					
						<rect x="376.8" y="138.4" transform="matrix(0.7021 -0.7121 0.7121 0.7021 -18.2563 323.2297)" class="st10" width="0.9" height="90"/>
					
						<rect x="375.8" y="142.7" transform="matrix(0.7021 -0.7121 0.7121 0.7021 -20.5781 323.4196)" class="st10" width="0.9" height="87.3"/>
				</g>
				<g>
					<path class="st8" d="M422.8,188.2l-93,20.9c-1.1,0.2-2.2-0.5-2.5-1.6c-0.1-0.3-0.1-0.6,0-0.8l3.4-17.7c0.2-0.8,0.8-1.5,1.6-1.6
						l93-20.9c1.1-0.3,2.2,0.5,2.5,1.6c0.1,0.3,0.1,0.6,0,0.8l-3.4,17.7C424.2,187.4,423.6,188,422.8,188.2z"/>
					<path class="st9" d="M332.5,188.3c0,0,12.9,12.2-3.4,18.7L332.5,188.3z"/>
					
						<rect x="335.6" y="178.3" transform="matrix(0.9757 -0.219 0.219 0.9757 -29.9145 87.6874)" class="st10" width="90" height="0.9"/>
					
						<rect x="336.2" y="181.3" transform="matrix(0.9757 -0.219 0.219 0.9757 -30.5736 87.5992)" class="st10" width="87.3" height="0.9"/>
				</g>
				<g>
					<path class="st8" d="M306.8,133.3l75.7,57.1c0.9,0.7,2.2,0.5,2.9-0.4c0.2-0.2,0.3-0.5,0.4-0.8l4.2-17.5
						c0.2-0.8-0.1-1.6-0.8-2.1l-75.7-57.1c-0.9-0.7-2.2-0.5-2.9,0.4c-0.2,0.2-0.3,0.5-0.4,0.8l-4.2,17.4
						C305.8,132,306.1,132.8,306.8,133.3z"/>
					<path class="st9" d="M388.5,170.4c0,0-16.7,5.8-4.6,18.3L388.5,170.4z"/>
					
						<rect x="348.4" y="97.3" transform="matrix(0.6018 -0.7986 0.7986 0.6018 25.4591 335.1926)" class="st10" width="0.9" height="89.5"/>
					
						<rect x="347.9" y="101.6" transform="matrix(0.6018 -0.7986 0.7986 0.6018 22.8863 335.9342)" class="st10" width="0.9" height="86.8"/>
				</g>
				<g>
					<path class="st8" d="M288.9,137.1l67.9,67c0.8,0.8,2.1,0.8,2.9,0c0.2-0.2,0.4-0.4,0.5-0.7l6.5-16.8c0.3-0.8,0.1-1.6-0.5-2.2
						l-67.9-67c-0.8-0.8-2.1-0.8-2.9,0c-0.2,0.2-0.4,0.4-0.5,0.7l-6.5,16.9C288.1,135.7,288.3,136.6,288.9,137.1z"/>
					<path class="st9" d="M365.4,185c0,0-17.4,3.6-7.1,17.7L365.4,185z"/>
					
						<rect x="329.3" y="106.5" transform="matrix(0.7021 -0.7121 0.7121 0.7021 -9.6495 279.8889)" class="st10" width="0.9" height="90"/>
					
						<rect x="328.3" y="110.7" transform="matrix(0.7021 -0.7121 0.7121 0.7021 -11.9708 280.0775)" class="st10" width="0.9" height="87.3"/>
				</g>
				<g>
					<path class="st8" d="M375.3,156.2l-93,20.9c-1.1,0.3-2.2-0.4-2.5-1.6c-0.1-0.3-0.1-0.6,0-0.8l3.4-17.7c0.2-0.8,0.8-1.5,1.6-1.6
						l93-20.9c1.1-0.2,2.2,0.5,2.5,1.6c0.1,0.3,0.1,0.6,0,0.8l-3.4,17.7C376.7,155.4,376.1,156.1,375.3,156.2z"/>
					<path class="st9" d="M285,156.4c0,0,12.9,12.2-3.4,18.7L285,156.4z"/>
					
						<rect x="288.1" y="146.4" transform="matrix(0.9757 -0.219 0.219 0.9757 -24.0685 76.5082)" class="st10" width="90" height="0.9"/>
					
						<rect x="288.7" y="149.3" transform="matrix(0.9757 -0.219 0.219 0.9757 -24.7275 76.4204)" class="st10" width="87.3" height="0.9"/>
				</g>
				<g>
					<path class="st8" d="M348.1,167.6l-87.2,37.2c-1,0.4-2.3,0-2.7-1.1c-0.1-0.3-0.2-0.5-0.2-0.8l0.1-17.9c0-0.8,0.5-1.6,1.3-1.9
						l87.2-37.2c1-0.4,2.3,0,2.7,1.1c0.1,0.3,0.2,0.5,0.2,0.8l-0.1,17.9C349.3,166.6,348.8,167.3,348.1,167.6z"/>
					<path class="st9" d="M259.8,184c0,0,14.8,9.7,0.1,18.9L259.8,184z"/>
					
						<rect x="260.3" y="165.6" transform="matrix(0.92 -0.3919 0.3919 0.92 -40.6583 132.8266)" class="st10" width="89.5" height="0.9"/>
					
						<rect x="261.5" y="168.6" transform="matrix(0.92 -0.3919 0.3919 0.92 -41.8466 132.9949)" class="st10" width="86.8" height="0.9"/>
				</g>
				<g>
					<path class="st8" d="M364.5,175.7l-82,48.6c-1,0.6-2.3,0.3-2.8-0.7c-0.1-0.2-0.2-0.5-0.3-0.8l-2.3-17.9c-0.1-0.8,0.3-1.6,1-2
						l82-48.6c1-0.6,2.3-0.3,2.8,0.7c0.1,0.2,0.2,0.5,0.3,0.8l2.3,17.9C365.6,174.5,365.2,175.3,364.5,175.7z"/>
					<path class="st9" d="M278.7,203.7c0,0,16.1,7.6,2.6,18.8L278.7,203.7z"/>
					
						<rect x="276.4" y="179.3" transform="matrix(0.8601 -0.5101 0.5101 0.8601 -46.7537 189.0683)" class="st10" width="90" height="0.9"/>
					
						<rect x="278" y="182.3" transform="matrix(0.8601 -0.5101 0.5101 0.8601 -48.2452 189.6203)" class="st10" width="87.3" height="0.9"/>
				</g>
				<g>
					<path class="st8" d="M276,173.4l85.3,42.7c1,0.5,2.3,0.1,2.8-0.9c0.1-0.3,0.2-0.5,0.2-0.8l1-18c0-0.8-0.4-1.6-1.1-2l-85.3-42.7
						c-1-0.5-2.3-0.1-2.8,0.9c-0.1,0.3-0.2,0.5-0.2,0.8l-1,18C274.8,172.3,275.3,173.1,276,173.4z"/>
					<path class="st9" d="M363.6,195.3c0,0-15.5,8.8-1.3,19L363.6,195.3z"/>
					
						<rect x="318.8" y="129.5" transform="matrix(0.4474 -0.8943 0.8943 0.4474 20.4135 381.9261)" class="st10" width="0.9" height="90"/>
					
						<rect x="318.8" y="133.8" transform="matrix(0.4474 -0.8943 0.8943 0.4474 17.7148 383.5921)" class="st10" width="0.9" height="87.3"/>
				</g>
				<g>
					<path class="st8" d="M272.2,182.2l67.9,67c0.8,0.8,2.1,0.8,2.9,0c0.2-0.2,0.4-0.4,0.5-0.7l6.5-16.9c0.3-0.8,0.1-1.6-0.5-2.2
						l-67.9-66.9c-0.8-0.8-2.1-0.8-2.9,0c-0.2,0.2-0.4,0.4-0.5,0.7l-6.5,16.8C271.5,180.8,271.7,181.7,272.2,182.2z"/>
					<path class="st9" d="M348.8,231.1c0,0-17.4,3.6-7.1,17.7L348.8,231.1z"/>
					
						<rect x="322.6" y="152.6" transform="matrix(0.7021 -0.7121 0.7121 0.7021 -44.4676 288.8907)" class="st10" width="0.9" height="90"/>
					
						<rect x="321.7" y="156.8" transform="matrix(0.7021 -0.7121 0.7121 0.7021 -46.7897 289.0801)" class="st10" width="0.9" height="87.3"/>
				</g>
			</g>
			<path class="st11" d="M125.9,148.6c0,0-91.4,45.3,15.4,65.7c0,0,12.2,42.6,77.4,13.3c0,0,67.5,46.5,106.3-8.3
				c15.3,17.7,38,27.1,61.3,25.3c0,0,63.1-3.5,52.9-31.1c0,0,41.3-9.7,17.8-31.3c0,0-17.6-28.2-46.4-19c0,0-37.9-36.1-107.3-21.6
				c0,0-43.3-25.5-94.9-5.1C208.5,136.5,156.1,113.5,125.9,148.6z"/>
			<path class="st12" d="M125.9,142c0,0-91.5,46.8,15.4,67.7c0,0,12.1,44,77.4,13.6c0,0,67.5,47.9,106.3-8.6c0,0,22,29.4,61.3,26.1
				c0,0,63.1-3.6,53-32.1c0,0,41.4-10,17.8-32.3c0,0-17.5-29.1-46.4-19.5c0,0-37.8-37.2-107.3-22.2c0,0-43.3-26.2-94.9-5.2
				C208.5,129.5,156.1,105.8,125.9,142z"/>
			<ellipse class="st13" cx="181.4" cy="158.1" rx="31.1" ry="20.1"/>
			<ellipse class="st13" cx="271.1" cy="202" rx="31.1" ry="20.1"/>
			<ellipse class="st13" cx="355.4" cy="156.3" rx="31.1" ry="20.1"/>
			<ellipse class="st14" cx="181.4" cy="145.3" rx="31.1" ry="29.3"/>
			<ellipse class="st14" cx="271.1" cy="188.3" rx="29.3" ry="30.2"/>
			<ellipse class="st15" cx="181.4" cy="144.4" rx="25.6" ry="26.4"/>
			
				<ellipse transform="matrix(0.6018 -0.7986 0.7986 0.6018 -25.5924 205.8688)" class="st16" cx="193.7" cy="128.6" rx="5.3" ry="9.7"/>
			<ellipse class="st15" cx="271.1" cy="188.3" rx="25.6" ry="26.4"/>
			
				<ellipse transform="matrix(0.6018 -0.7986 0.7986 0.6018 -23.4949 290.6613)" class="st16" cx="279.7" cy="168.9" rx="5.3" ry="9.7"/>
			<g>
				
					<ellipse transform="matrix(0.3093 -0.951 0.951 0.3093 108.1823 437.6541)" class="st14" cx="355.4" cy="144.4" rx="28.4" ry="31.1"/>
				<ellipse class="st15" cx="355.4" cy="144.4" rx="25.6" ry="26.4"/>
				
					<ellipse transform="matrix(0.6018 -0.7986 0.7986 0.6018 44.4217 346.2917)" class="st16" cx="369.5" cy="128.6" rx="5.3" ry="9.7"/>
				
					<ellipse transform="matrix(0.6018 -0.7986 0.7986 0.6018 35.4835 356.9419)" class="st13" cx="375.7" cy="142.9" rx="3.1" ry="7.1"/>
			</g>
			
				<ellipse transform="matrix(0.6018 -0.7986 0.7986 0.6018 -30.9752 304.2386)" class="st13" cx="289.6" cy="183.2" rx="3.1" ry="7.1"/>
			
				<ellipse transform="matrix(0.6018 -0.7986 0.7986 0.6018 -33.8006 217.981)" class="st13" cx="201.7" cy="142.9" rx="3.1" ry="7.1"/>
			<ellipse class="st17" cx="115.4" cy="163.6" rx="11" ry="1.8"/>
			<circle class="st17" cx="213.4" cy="175.5" r="2.7"/>
			<ellipse class="st17" cx="234.5" cy="208.5" rx="3.7" ry="4.6"/>
			<ellipse class="st17" cx="240" cy="215.8" rx="1.8" ry="0.9"/>
			<ellipse class="st17" cx="326.1" cy="172.7" rx="5.5" ry="3.7"/>
			<ellipse class="st17" cx="338.9" cy="179.2" rx="5.5" ry="2.7"/>
			<ellipse class="st17" cx="399.3" cy="160.8" rx="5.5" ry="2.7"/>
			<ellipse class="st3" cx="157.6" cy="180.1" rx="5.5" ry="1.8"/>
			<ellipse class="st3" cx="165.8" cy="185.6" rx="6.4" ry="1.8"/>
		</g>
	</g>
</g>
<g id="Layer_5">
	<rect y="220" class="st18" width="800" height="30"/>
	<rect x="15" y="220" class="st3" width="99" height="6"/>
	<rect x="221" y="220" class="st3" width="99" height="6"/>
	<rect x="429" y="220" class="st3" width="99" height="6"/>
	<rect x="635" y="220" class="st3" width="99" height="6"/>
</g>
<g id="Layer_6">
</g>
<g id="Layer_2_1_">
	<g id="Layer_1-2">
		<g id="Basic_Beige">
			<g id="Layer_2-2">
				<g id="Premium">
					<g id="premium-water">
						<path class="st19" d="M647.8,183.5l15.2,0.1c11.9,0,21.6,6.8,21.5,19.8v8.5c1.7,0.1,2.9,1.6,2.7,3.3c-0.1,1.5-1.3,2.6-2.8,2.8
							l-98.3-0.4l-31.6-5.6c-1.6-0.1-2.8-1.5-2.6-3.1c0.1-1.4,1.2-2.5,2.6-2.6l-0.1-18.7c0-3.8,2.8-6.8,6.3-6.8h1
							c14.4,0.1,24.5-3.5,37.1-10.4l2.7-1.5c1.6-0.8,3.3-1.3,5-1.5c2.8-0.3,22.2,0.7,22.2,0.7s6.1-0.9,9.4,4.9s9.9,10.9,9.9,10.9"/>
						<g>
							<g>
								<defs>
									<path id="SVGID_1_" d="M647.8,183.5l15.2,0.1c11.9,0,21.6,6.8,21.5,19.8v8.5c1.7,0.1,2.9,1.6,2.7,3.3
										c-0.1,1.5-1.3,2.6-2.8,2.8l-98.3-0.4l-31.6-5.6c-1.6-0.1-2.8-1.5-2.6-3.1c0.1-1.4,1.2-2.5,2.6-2.6l-0.1-18.7
										c0-3.8,2.8-6.8,6.3-6.8h1c14.4,0.1,24.5-3.5,37.1-10.4l2.7-1.5c1.6-0.8,3.3-1.3,5-1.5c2.8-0.3,22.2,0.7,22.2,0.7
										s6.1-0.9,9.4,4.9s9.9,10.9,9.9,10.9"/>
								</defs>
								<clipPath id="SVGID_2_">
									<use xlink:href="#SVGID_1_"  style="overflow:visible;"/>
								</clipPath>
								<g id="Layer_2_2_" class="st20">
									<g id="Layer_24">
										<g>
											<path class="st11" d="M560.6,193.7c0,0-33.7,16.7,5.7,24.2c0,0,4.5,15.7,28.6,4.9c0,0,24.9,17.2,39.2-3.1
												c5.6,6.5,14,10,22.6,9.3c0,0,23.3-1.3,19.5-11.5c0,0,15.3-3.6,6.6-11.6c0,0-6.5-10.4-17.1-7c0,0-14-13.3-39.6-8
												c0,0-16-9.4-35-1.9C591.1,189.3,571.7,180.8,560.6,193.7z"/>
											<path class="st12" d="M560.6,191.3c0,0-33.7,17.3,5.7,25c0,0,4.5,16.2,28.6,5c0,0,24.9,17.7,39.2-3.2
												c0,0,8.1,10.8,22.6,9.6c0,0,23.3-1.3,19.6-11.8c0,0,15.3-3.7,6.6-11.9c0,0-6.5-10.7-17.1-7.2c0,0-14-13.7-39.6-8.2
												c0,0-16-9.7-35-1.9C591.1,186.7,571.7,178,560.6,191.3z"/>
											<ellipse class="st13" cx="581" cy="197.2" rx="11.5" ry="7.4"/>
											<ellipse class="st13" cx="614.2" cy="213.5" rx="11.5" ry="7.4"/>
											<ellipse class="st13" cx="645.3" cy="196.6" rx="11.5" ry="7.4"/>
											<ellipse class="st14" cx="581" cy="192.5" rx="11.5" ry="10.8"/>
											<ellipse class="st14" cx="614.2" cy="208.4" rx="10.8" ry="11.2"/>
											
												<ellipse transform="matrix(0.3093 -0.951 0.951 0.3093 263.018 746.3412)" class="st14" cx="645.3" cy="192.1" rx="10.5" ry="11.5"/>
											<ellipse class="st15" cx="581" cy="192.2" rx="9.5" ry="9.8"/>
											
												<ellipse transform="matrix(0.6018 -0.7986 0.7986 0.6018 84.326 541.8925)" class="st16" cx="585.6" cy="186.4" rx="2" ry="3.6"/>
											<ellipse class="st15" cx="645.3" cy="192.2" rx="9.5" ry="9.8"/>
											<ellipse class="st15" cx="614.2" cy="208.4" rx="9.5" ry="9.8"/>
											
												<ellipse transform="matrix(0.6018 -0.7986 0.7986 0.6018 85.0502 573.1116)" class="st16" cx="617.3" cy="201.3" rx="2" ry="3.6"/>
											
												<ellipse transform="matrix(0.6018 -0.7986 0.7986 0.6018 110.1712 593.717)" class="st16" cx="650.5" cy="186.4" rx="2" ry="3.6"/>
											
												<ellipse transform="matrix(0.6018 -0.7986 0.7986 0.6018 106.8912 597.5843)" class="st13" cx="652.7" cy="191.6" rx="1.1" ry="2.6"/>
											
												<ellipse transform="matrix(0.6018 -0.7986 0.7986 0.6018 82.3338 578.1541)" class="st13" cx="621" cy="206.5" rx="1.1" ry="2.6"/>
											
												<ellipse transform="matrix(0.6018 -0.7986 0.7986 0.6018 81.2488 546.2874)" class="st13" cx="588.5" cy="191.7" rx="1.1" ry="2.6"/>
											<ellipse class="st17" cx="556.7" cy="199.3" rx="4.1" ry="0.7"/>
											<circle class="st17" cx="592.9" cy="203.7" r="1"/>
											<ellipse class="st17" cx="600.6" cy="215.8" rx="1.4" ry="1.7"/>
											<ellipse class="st17" cx="602.7" cy="218.5" rx="0.7" ry="0.3"/>
											<ellipse class="st17" cx="634.4" cy="202.7" rx="2" ry="1.4"/>
											<ellipse class="st17" cx="639.2" cy="205" rx="2" ry="1"/>
											<ellipse class="st17" cx="661.5" cy="198.3" rx="2" ry="1"/>
											<ellipse class="st3" cx="572.3" cy="205.4" rx="2" ry="0.7"/>
											<ellipse class="st3" cx="575.3" cy="207.4" rx="2.4" ry="0.7"/>
										</g>
									</g>
								</g>
							</g>
						</g>
						<path class="st21" d="M684.5,211.8c1.7,0.1,2.9,1.6,2.7,3.3c-0.1,1.5-1.3,2.6-2.8,2.8l-98.3-0.4l-31.6-5.6
							c-1.6-0.1-2.8-1.5-2.6-3.1c0.1-1.4,1.2-2.5,2.6-2.6l-0.1-13.6l5.8,6.1l-0.3,7.6v1.8l25.3,4.3L684.5,211.8z"/>
						<g class="st22">
							<path d="M684.6,204.9c0,0-7.9-19.8-37.1-11.1l-92.9-6.2c0-3.8,2.8-6.8,6.3-6.8l18.9,0.1c3.9,0,62,8.1,62,8.1l6.1-5.4
								l15.2,0.1C663.1,183.6,684.6,182.8,684.6,204.9z"/>
						</g>
						
							<ellipse transform="matrix(0.9955 -9.525935e-02 9.525935e-02 0.9955 -17.023 64.2315)" class="st23" cx="664.2" cy="210.4" rx="14.7" ry="14.6"/>
						
							<ellipse transform="matrix(0.9955 -9.504259e-02 9.504259e-02 0.9955 -16.9903 64.0817)" class="st21" cx="664.2" cy="210.4" rx="14.3" ry="14.2"/>
						
							<ellipse transform="matrix(0.9955 -9.525058e-02 9.525058e-02 0.9955 -17.0217 64.2254)" cx="664.2" cy="210.4" rx="10.8" ry="10.7"/>
						
							<ellipse transform="matrix(0.9955 -9.526343e-02 9.526343e-02 0.9955 -17.0236 64.2343)" class="st3" cx="664.2" cy="210.4" rx="10.3" ry="10.2"/>
						
							<ellipse transform="matrix(0.9955 -9.525058e-02 9.525058e-02 0.9955 -17.0217 64.2254)" class="st24" cx="664.2" cy="210.4" rx="9.7" ry="9.7"/>
						
							<ellipse transform="matrix(0.9955 -9.522904e-02 9.522904e-02 0.9955 -17.0185 64.2106)" class="st25" cx="664.2" cy="210.4" rx="6.1" ry="6"/>
						<ellipse class="st26" cx="664.2" cy="210.4" rx="5.5" ry="5.5"/>
						<g>
							<g>
								<defs>
									<path id="SVGID_3_" d="M635.9,188.3c-8-16-12.1-15.4-12.1-15.4s-10.5-0.3-13.8-0.1c-3.3,0.3-4.4,2.4-4.4,2.4l-3.3,5.1
										c0,0-2.2,3,3.3,3.6C609.9,184.4,635.9,188.3,635.9,188.3z"/>
								</defs>
								<clipPath id="SVGID_4_">
									<use xlink:href="#SVGID_3_"  style="overflow:visible;"/>
								</clipPath>
								<g class="st27">
									<path class="st28" d="M635.4,172.2h-35.5v16h36v-16H635.4z"/>
								</g>
							</g>
						</g>
						<g>
							<g>
								<defs>
									<path id="SVGID_5_" d="M638.2,172.9l9.9,10.6l-5.6,5.1l-9.1-12.7c0,0-1.7-1.8,0-2.7L638.2,172.9z"/>
								</defs>
								<clipPath id="SVGID_6_">
									<use xlink:href="#SVGID_5_"  style="overflow:visible;"/>
								</clipPath>
								<g class="st29">
									<path class="st30" d="M647.7,172.9h-15.9v15.7h16.3v-15.7H647.7z"/>
								</g>
							</g>
						</g>
					</g>
				</g>
			</g>
			
				<ellipse transform="matrix(0.9955 -9.525278e-02 9.525278e-02 0.9955 -17.402 56.273)" class="st23" cx="580.7" cy="210.4" rx="14.7" ry="14.6"/>
			
				<ellipse transform="matrix(0.9955 -9.525292e-02 9.525292e-02 0.9955 -17.402 56.2731)" class="st21" cx="580.7" cy="210.4" rx="14.3" ry="14.3"/>
			
				<ellipse transform="matrix(0.9955 -9.525361e-02 9.525361e-02 0.9955 -17.4021 56.2735)" cx="580.7" cy="210.4" rx="10.8" ry="10.7"/>
			
				<ellipse transform="matrix(0.9955 -9.525058e-02 9.525058e-02 0.9955 -17.4016 56.2717)" class="st3" cx="580.7" cy="210.4" rx="10.3" ry="10.2"/>
			
				<ellipse transform="matrix(0.9955 -9.525058e-02 9.525058e-02 0.9955 -17.4016 56.2717)" class="st24" cx="580.7" cy="210.4" rx="9.7" ry="9.7"/>
			
				<ellipse transform="matrix(0.9955 -9.525058e-02 9.525058e-02 0.9955 -17.4016 56.2717)" class="st25" cx="580.7" cy="210.4" rx="6.1" ry="6"/>
			<ellipse class="st26" cx="580.7" cy="210.4" rx="5.5" ry="5.5"/>
		</g>
	</g>
</g>
<g>
	<g id="Layer_2_3_">
		<g id="Layer_1-2_1_">
			<g id="Basic_White">
				<g id="Layer_2-2_1_">
					<g id="Premium_1_">
						<g id="premium-water_1_">
							<path class="st31" d="M331.5,183.7l15.4,0.1c12,0,21.8,6.9,21.7,20v8.5c1.7,0.2,2.9,1.6,2.8,3.3c-0.1,1.5-1.3,2.7-2.8,2.8
								l-99.3-0.4l-31.9-5.6c-1.6-0.1-2.8-1.6-2.6-3.2c0.1-1.4,1.2-2.5,2.7-2.6l-0.1-18.9c0-3.8,2.8-6.9,6.3-6.8h1
								c14.5,0.1,24.8-3.6,37.5-10.5l2.7-1.5c1.6-0.8,3.3-1.3,5-1.5c2.8-0.3,22.4,0.7,22.4,0.7s6.2-0.9,9.5,4.9c3.3,5.8,10,11,10,11
								"/>
							<path class="st21" d="M368.6,212.3c1.7,0.2,2.9,1.6,2.8,3.3c-0.1,1.5-1.3,2.7-2.8,2.8l-99.3-0.4l-31.9-5.6
								c-1.6-0.1-2.8-1.6-2.6-3.2c0.1-1.4,1.2-2.5,2.7-2.6l-0.1-13.7l5.8,6.1l-0.3,7.6v1.8l25.6,4.4L368.6,212.3z"/>
							<g class="st22">
								<path d="M368.6,205.3c0,0-8-20-37.4-11.3l-93.8-6.3c0-3.8,2.8-6.9,6.3-6.8l19.1,0.1c3.9,0,62.6,8.2,62.6,8.2l6.2-5.5
									l15.4,0.1C346.9,183.7,368.6,182.9,368.6,205.3z"/>
							</g>
							
								<ellipse transform="matrix(0.9955 -9.525935e-02 9.525935e-02 0.9955 -18.4985 34.1201)" class="st23" cx="348.1" cy="210.8" rx="14.9" ry="14.8"/>
							
								<ellipse transform="matrix(0.9955 -9.525058e-02 9.525058e-02 0.9955 -18.4969 34.1169)" class="st21" cx="348.1" cy="210.8" rx="14.5" ry="14.4"/>
							
								<ellipse transform="matrix(0.9955 -9.525058e-02 9.525058e-02 0.9955 -18.4969 34.1169)" cx="348.1" cy="210.8" rx="10.9" ry="10.8"/>
							
								<ellipse transform="matrix(0.9955 -9.526343e-02 9.526343e-02 0.9955 -18.4992 34.1216)" class="st3" cx="348.1" cy="210.8" rx="10.4" ry="10.3"/>
							
								<ellipse transform="matrix(0.9955 -9.525058e-02 9.525058e-02 0.9955 -18.4969 34.1169)" class="st24" cx="348.1" cy="210.8" rx="9.8" ry="9.8"/>
							<ellipse class="st25" cx="348.1" cy="210.8" rx="6.1" ry="6.1"/>
							
								<ellipse transform="matrix(0.9955 -9.525058e-02 9.525058e-02 0.9955 -18.4969 34.1169)" class="st26" cx="348.1" cy="210.8" rx="5.6" ry="5.5"/>
							<g>
								<g>
									<defs>
										<path id="SVGID_7_" d="M319.5,188.5c-8.1-16.2-12.3-15.6-12.3-15.6s-10.6-0.3-14-0.1c-3.4,0.3-4.5,2.4-4.5,2.4l-3.4,5.2
											c0,0-2.2,3,3.3,3.7C293.2,184.6,319.5,188.5,319.5,188.5z"/>
									</defs>
									<clipPath id="SVGID_8_">
										<use xlink:href="#SVGID_7_"  style="overflow:visible;"/>
									</clipPath>
									<g class="st32">
										<path class="st28" d="M319,172.3h-35.8v16.2h36.3v-16.2H319z"/>
									</g>
								</g>
							</g>
							<g>
								<g>
									<defs>
										<path id="SVGID_9_" d="M321.8,172.9l10,10.7l-5.6,5.2L317,176c0,0-1.7-1.8,0-2.7L321.8,172.9z"/>
									</defs>
									<clipPath id="SVGID_10_">
										<use xlink:href="#SVGID_9_"  style="overflow:visible;"/>
									</clipPath>
									<g class="st33">
										<path class="st30" d="M331.4,172.9h-16.1v15.9h16.5v-15.9H331.4z"/>
									</g>
								</g>
							</g>
						</g>
					</g>
				</g>
				
					<ellipse transform="matrix(0.9955 -9.525278e-02 9.525278e-02 0.9955 -18.8806 26.0875)" class="st23" cx="263.8" cy="210.8" rx="14.9" ry="14.8"/>
				
					<ellipse transform="matrix(0.9955 -9.525286e-02 9.525286e-02 0.9955 -18.8806 26.0875)" class="st21" cx="263.8" cy="210.8" rx="14.5" ry="14.4"/>
				
					<ellipse transform="matrix(0.9955 -9.525361e-02 9.525361e-02 0.9955 -18.8807 26.0877)" cx="263.8" cy="210.8" rx="10.9" ry="10.8"/>
				
					<ellipse transform="matrix(0.9955 -9.525058e-02 9.525058e-02 0.9955 -18.8802 26.0869)" class="st3" cx="263.8" cy="210.8" rx="10.4" ry="10.3"/>
				
					<ellipse transform="matrix(6.543342e-02 -0.9979 0.9979 6.543342e-02 36.1944 460.2628)" class="st24" cx="263.8" cy="210.8" rx="9.8" ry="9.8"/>
				<ellipse class="st25" cx="263.8" cy="210.8" rx="6.1" ry="6.1"/>
				
					<ellipse transform="matrix(0.9955 -9.525058e-02 9.525058e-02 0.9955 -18.8802 26.0869)" class="st26" cx="263.8" cy="210.8" rx="5.6" ry="5.5"/>
			</g>
		</g>
	</g>
	<g>
		<path class="st34" d="M283.1,198.9c0,0.1-0.1,0.2-0.2,0.3c-0.5,0.6-1.1,1.1-1.9,1.4c-0.7,0.3-1.5,0.5-2.3,0.5s-1.5-0.2-2.1-0.5
			c-0.7-0.3-1.2-0.7-1.7-1.2s-0.9-1.1-1.1-1.8c-0.3-0.7-0.4-1.4-0.4-2.2s0.2-1.5,0.5-2.1c0.3-0.7,0.7-1.2,1.2-1.7s1.1-0.9,1.7-1.1
			c0.7-0.3,1.4-0.4,2.1-0.4c0.3,0,0.6,0,1,0.1c0.3,0.1,0.6,0.1,0.9,0.2c0.3,0.1,0.6,0.3,0.9,0.4c0.3,0.2,0.5,0.4,0.7,0.6
			c0.2,0.2,0.3,0.5,0.3,0.8s-0.1,0.5-0.3,0.7c-0.2,0.2-0.4,0.3-0.7,0.3c-0.2,0-0.4-0.1-0.5-0.2c-0.2-0.1-0.4-0.2-0.6-0.4
			c-0.2-0.1-0.5-0.3-0.7-0.4c-0.3-0.1-0.6-0.2-1-0.2c-0.5,0-1,0.1-1.4,0.3s-0.8,0.4-1.1,0.7c-0.3,0.3-0.5,0.7-0.7,1.1
			c-0.2,0.4-0.3,0.9-0.3,1.4s0.1,0.9,0.2,1.4c0.2,0.4,0.4,0.8,0.6,1.1c0.3,0.3,0.6,0.6,1,0.8s0.9,0.3,1.4,0.3s0.9-0.1,1.2-0.2
			c0.3-0.2,0.6-0.3,0.8-0.5c0.2-0.2,0.4-0.4,0.6-0.5c0.2-0.2,0.4-0.2,0.6-0.2c0.3,0,0.5,0.1,0.7,0.3s0.3,0.5,0.3,0.7
			C283.2,198.7,283.2,198.8,283.1,198.9z"/>
		<path class="st34" d="M293.6,192.1c-0.2,0.2-0.4,0.3-0.7,0.3l-2.9-0.1l-0.1,7.7c0,0.3-0.1,0.5-0.3,0.8c-0.2,0.2-0.5,0.3-0.8,0.3
			s-0.5-0.1-0.7-0.3s-0.3-0.5-0.3-0.8l0.1-7.7l-2.9-0.1c-0.3,0-0.5-0.1-0.7-0.3s-0.3-0.4-0.3-0.7s0.1-0.5,0.3-0.7
			c0.2-0.2,0.4-0.3,0.7-0.3l8,0.1c0.3,0,0.5,0.1,0.7,0.3s0.3,0.4,0.3,0.7C293.9,191.7,293.8,191.9,293.6,192.1z"/>
		<path class="st34" d="M303.9,195.4c-0.3,0.5-0.7,0.8-1.3,1.1c0.1,0.1,0.1,0.3,0.2,0.5s0.2,0.4,0.3,0.7c0.1,0.3,0.2,0.5,0.4,0.8
			c0.1,0.3,0.2,0.5,0.4,0.8c0.1,0.2,0.2,0.5,0.3,0.7c0.1,0.2,0.1,0.3,0.1,0.4c0,0.3-0.1,0.5-0.3,0.7c-0.2,0.2-0.5,0.3-0.7,0.3
			s-0.4-0.1-0.5-0.2c-0.2-0.1-0.3-0.2-0.4-0.4c0-0.1-0.1-0.2-0.2-0.4s-0.2-0.5-0.3-0.7c-0.1-0.3-0.3-0.6-0.4-0.9
			c-0.2-0.3-0.3-0.6-0.4-0.9c-0.1-0.3-0.2-0.5-0.3-0.7c-0.1-0.2-0.1-0.3-0.1-0.3l-2.9-0.1l-0.1,3.4c0,0.3-0.1,0.5-0.3,0.7
			c-0.2,0.2-0.5,0.3-0.8,0.3s-0.5-0.1-0.7-0.3s-0.3-0.5-0.3-0.8l0.2-8.6c0-0.3,0.1-0.5,0.3-0.7c0.2-0.2,0.5-0.3,0.8-0.3l3.9,0.1
			c0.5,0,1,0.1,1.5,0.2c0.5,0.1,0.9,0.3,1.2,0.6c0.3,0.3,0.6,0.6,0.8,1c0.2,0.4,0.3,0.9,0.3,1.5C304.3,194.4,304.2,195,303.9,195.4z
			 M301.8,192.8c-0.3-0.2-0.6-0.3-1-0.3l-3.2-0.1v2.5l3.2,0.1c0.4,0,0.7-0.1,1-0.3s0.4-0.5,0.4-0.9
			C302.2,193.4,302.1,193.1,301.8,192.8z"/>
		<path class="st34" d="M314.5,201.1c-0.2,0.2-0.4,0.3-0.7,0.3l-5.9-0.1c-0.3,0-0.5-0.1-0.8-0.3c-0.2-0.2-0.3-0.5-0.3-0.8l0.2-8.6
			c0-0.3,0.1-0.5,0.3-0.7c0.2-0.2,0.5-0.3,0.8-0.3s0.5,0.1,0.7,0.3s0.3,0.5,0.3,0.8l-0.1,7.7l4.8,0.1c0.3,0,0.5,0.1,0.7,0.3
			s0.3,0.4,0.3,0.7C314.8,200.7,314.7,200.9,314.5,201.1z"/>
		<path class="st34" d="M322.8,198.6c-0.2,0.1-0.3,0.2-0.5,0.2h-2v2c0,0.2-0.1,0.4-0.3,0.6c-0.2,0.2-0.4,0.2-0.6,0.2
			s-0.4-0.1-0.6-0.3s-0.2-0.4-0.2-0.6v-2h-2c-0.2,0-0.4-0.1-0.5-0.2c-0.1-0.2-0.2-0.3-0.2-0.5s0.1-0.4,0.2-0.5
			c0.2-0.1,0.3-0.2,0.5-0.2h2v-2c0-0.2,0.1-0.4,0.3-0.6c0.2-0.2,0.4-0.2,0.6-0.2s0.4,0.1,0.6,0.3s0.2,0.4,0.2,0.6v2h2
			c0.2,0,0.4,0.1,0.5,0.2c0.1,0.2,0.2,0.3,0.2,0.5S322.9,198.5,322.8,198.6z"/>
		<path class="st34" d="M334,199.8c0,0.1-0.1,0.2-0.2,0.3c-0.5,0.6-1.1,1.1-1.9,1.4c-0.7,0.3-1.5,0.5-2.3,0.5s-1.5-0.2-2.1-0.5
			c-0.7-0.3-1.2-0.7-1.7-1.2s-0.9-1.1-1.1-1.8c-0.3-0.7-0.4-1.4-0.4-2.2s0.2-1.5,0.5-2.1c0.3-0.7,0.7-1.2,1.2-1.7s1.1-0.9,1.7-1.1
			c0.7-0.3,1.4-0.4,2.1-0.4c0.3,0,0.6,0,1,0.1c0.3,0.1,0.6,0.1,0.9,0.2c0.3,0.1,0.6,0.3,0.9,0.4c0.3,0.2,0.5,0.4,0.7,0.6
			c0.2,0.2,0.3,0.5,0.3,0.8s-0.1,0.5-0.3,0.7c-0.2,0.2-0.4,0.3-0.7,0.3c-0.2,0-0.4-0.1-0.5-0.2c-0.2-0.1-0.4-0.2-0.6-0.4
			c-0.2-0.1-0.5-0.3-0.7-0.4c-0.3-0.1-0.6-0.2-1-0.2c-0.5,0-1,0.1-1.4,0.3s-0.8,0.4-1.1,0.7c-0.3,0.3-0.5,0.7-0.7,1.1
			c-0.2,0.4-0.3,0.9-0.3,1.4s0.1,0.9,0.2,1.4c0.2,0.4,0.4,0.8,0.6,1.1c0.3,0.3,0.6,0.6,1,0.8s0.9,0.3,1.4,0.3s0.9-0.1,1.2-0.2
			c0.3-0.2,0.6-0.3,0.8-0.5c0.2-0.2,0.4-0.4,0.6-0.5c0.2-0.2,0.4-0.2,0.6-0.2c0.3,0,0.5,0.1,0.7,0.3s0.3,0.5,0.3,0.7
			C334.1,199.6,334.1,199.7,334,199.8z"/>
	</g>
</g>
<g>
	<g id="Layer_2_4_">
		<g id="Layer_1-2_2_">
			<g id="Basic_White_1_">
				<g id="Layer_2-2_2_">
					<g id="Premium_2_">
						<g id="premium-water_2_">
							<path class="st31" d="M484.8,183.5l15.4,0.1c12,0,21.8,6.9,21.7,20v8.5c1.7,0.2,2.9,1.6,2.8,3.3c-0.1,1.5-1.3,2.7-2.8,2.8
								l-99.3-0.4l-31.9-5.6c-1.6-0.1-2.8-1.6-2.6-3.2c0.1-1.4,1.2-2.5,2.7-2.6l-0.1-18.9c0-3.8,2.8-6.9,6.3-6.8h1
								c14.5,0.1,24.7-3.6,37.5-10.5l2.7-1.5c1.6-0.8,3.3-1.3,5-1.5c2.8-0.3,22.4,0.7,22.4,0.7s6.2-0.9,9.5,4.9c3.3,5.8,10,11,10,11
								"/>
							<path class="st21" d="M521.9,212.1c1.7,0.2,2.9,1.6,2.8,3.3c-0.1,1.5-1.3,2.7-2.8,2.8l-99.3-0.4l-31.9-5.6
								c-1.6-0.1-2.8-1.6-2.6-3.2c0.1-1.4,1.2-2.5,2.7-2.6l-0.1-13.7l5.8,6.1l-0.3,7.6v1.8l25.6,4.4L521.9,212.1z"/>
							<g class="st22">
								<path d="M521.9,205.1c0,0-8-20-37.4-11.3l-93.8-6.3c0-3.8,2.8-6.9,6.3-6.8l19,0.1c3.9,0,62.6,8.2,62.6,8.2l6.2-5.5l15.4,0.1
									C500.2,183.5,521.9,182.8,521.9,205.1z"/>
							</g>
							
								<ellipse transform="matrix(0.9955 -9.525935e-02 9.525935e-02 0.9955 -17.7824 48.7231)" class="st23" cx="501.4" cy="210.6" rx="14.9" ry="14.8"/>
							
								<ellipse transform="matrix(0.9955 -9.521275e-02 9.521275e-02 0.9955 -17.7748 48.6988)" class="st21" cx="501.4" cy="210.6" rx="14.5" ry="14.4"/>
							
								<ellipse transform="matrix(0.9955 -9.525058e-02 9.525058e-02 0.9955 -17.7809 48.7185)" cx="501.4" cy="210.6" rx="10.9" ry="10.8"/>
							
								<ellipse transform="matrix(0.9955 -9.526343e-02 9.526343e-02 0.9955 -17.783 48.7253)" class="st3" cx="501.4" cy="210.6" rx="10.4" ry="10.3"/>
							
								<ellipse transform="matrix(0.9955 -9.525067e-02 9.525067e-02 0.9955 -17.7809 48.7185)" class="st24" cx="501.4" cy="210.6" rx="9.8" ry="9.8"/>
							<ellipse class="st25" cx="501.4" cy="210.6" rx="6.1" ry="6.1"/>
							
								<ellipse transform="matrix(0.9955 -9.525058e-02 9.525058e-02 0.9955 -17.7809 48.7185)" class="st26" cx="501.4" cy="210.6" rx="5.6" ry="5.5"/>
							<g>
								<g>
									<defs>
										<path id="SVGID_11_" d="M472.8,188.3c-8.1-16.2-12.2-15.6-12.2-15.6s-10.6-0.3-14-0.1s-4.5,2.4-4.5,2.4l-3.4,5.2
											c0,0-2.2,3,3.3,3.7C446.5,184.4,472.8,188.3,472.8,188.3z"/>
									</defs>
									<clipPath id="SVGID_12_">
										<use xlink:href="#SVGID_11_"  style="overflow:visible;"/>
									</clipPath>
									<g class="st35">
										<path class="st28" d="M472.3,172.1h-35.8v16.2h36.3v-16.2H472.3z"/>
									</g>
								</g>
							</g>
							<g>
								<g>
									<defs>
										<path id="SVGID_13_" d="M475.1,172.8l10,10.7l-5.6,5.2l-9.2-12.8c0,0-1.7-1.8,0-2.7L475.1,172.8z"/>
									</defs>
									<clipPath id="SVGID_14_">
										<use xlink:href="#SVGID_13_"  style="overflow:visible;"/>
									</clipPath>
									<g class="st36">
										<path class="st30" d="M484.8,172.8h-16.1v15.9h16.5v-15.9H484.8z"/>
									</g>
								</g>
							</g>
						</g>
					</g>
				</g>
				
					<ellipse transform="matrix(0.9955 -9.525278e-02 9.525278e-02 0.9955 -18.1648 40.6895)" class="st23" cx="417.1" cy="210.6" rx="14.9" ry="14.8"/>
				
					<ellipse transform="matrix(0.9955 -9.525286e-02 9.525286e-02 0.9955 -18.1649 40.6895)" class="st21" cx="417.1" cy="210.6" rx="14.5" ry="14.4"/>
				
					<ellipse transform="matrix(0.9955 -9.525361e-02 9.525361e-02 0.9955 -18.165 40.6899)" cx="417.1" cy="210.6" rx="10.9" ry="10.8"/>
				
					<ellipse transform="matrix(0.9955 -9.525058e-02 9.525058e-02 0.9955 -18.1645 40.6885)" class="st3" cx="417.1" cy="210.6" rx="10.4" ry="10.3"/>
				
					<ellipse transform="matrix(0.9955 -9.525055e-02 9.525055e-02 0.9955 -18.1645 40.6885)" class="st24" cx="417.1" cy="210.6" rx="9.8" ry="9.8"/>
				<ellipse class="st25" cx="417.1" cy="210.6" rx="6.1" ry="6.1"/>
				
					<ellipse transform="matrix(0.9955 -9.525058e-02 9.525058e-02 0.9955 -18.1645 40.6885)" class="st26" cx="417.1" cy="210.6" rx="5.6" ry="5.5"/>
			</g>
		</g>
	</g>
	<g>
		<path class="st34" d="M436.5,199.2c0,0.1-0.1,0.2-0.2,0.3c-0.5,0.6-1.1,1.1-1.9,1.4c-0.7,0.3-1.5,0.5-2.3,0.5s-1.5-0.2-2.1-0.5
			c-0.7-0.3-1.2-0.7-1.7-1.2s-0.9-1.1-1.1-1.8c-0.3-0.7-0.4-1.4-0.4-2.2s0.2-1.5,0.5-2.1c0.3-0.7,0.7-1.2,1.2-1.7s1.1-0.9,1.7-1.1
			c0.7-0.3,1.4-0.4,2.1-0.4c0.3,0,0.6,0,1,0.1c0.3,0.1,0.6,0.1,0.9,0.2c0.3,0.1,0.6,0.3,0.9,0.4c0.3,0.2,0.5,0.4,0.7,0.6
			c0.2,0.2,0.3,0.5,0.3,0.8s-0.1,0.5-0.3,0.7c-0.2,0.2-0.4,0.3-0.7,0.3c-0.2,0-0.4-0.1-0.5-0.2c-0.2-0.1-0.4-0.2-0.6-0.4
			c-0.2-0.1-0.5-0.3-0.7-0.4c-0.3-0.1-0.6-0.2-1-0.2c-0.5,0-1,0.1-1.4,0.3s-0.8,0.4-1.1,0.7c-0.3,0.3-0.5,0.7-0.7,1.1
			c-0.2,0.4-0.3,0.9-0.3,1.4s0.1,0.9,0.2,1.4c0.2,0.4,0.4,0.8,0.6,1.1c0.3,0.3,0.6,0.6,1,0.8s0.9,0.3,1.4,0.3s0.9-0.1,1.2-0.2
			c0.3-0.2,0.6-0.3,0.8-0.5c0.2-0.2,0.4-0.4,0.6-0.5c0.2-0.2,0.4-0.2,0.6-0.2c0.3,0,0.5,0.1,0.7,0.3s0.3,0.5,0.3,0.7
			C436.5,199,436.5,199.1,436.5,199.2z"/>
		<path class="st34" d="M446.9,192.5c-0.2,0.2-0.4,0.3-0.7,0.3l-2.9-0.1l-0.1,7.7c0,0.3-0.1,0.5-0.3,0.7c-0.2,0.2-0.5,0.3-0.8,0.3
			s-0.5-0.1-0.7-0.3s-0.3-0.5-0.3-0.8l0.1-7.7l-2.9-0.1c-0.3,0-0.5-0.1-0.7-0.3s-0.3-0.4-0.3-0.7s0.1-0.5,0.3-0.7
			c0.2-0.2,0.4-0.3,0.7-0.3l7.9,0.1c0.3,0,0.5,0.1,0.7,0.3s0.3,0.4,0.3,0.7S447.1,192.3,446.9,192.5z"/>
		<path class="st34" d="M457.2,195.8c-0.3,0.5-0.7,0.8-1.3,1.1c0.1,0.1,0.1,0.3,0.2,0.5s0.2,0.4,0.3,0.7c0.1,0.3,0.2,0.5,0.4,0.8
			s0.2,0.5,0.4,0.8c0.1,0.2,0.2,0.5,0.3,0.7c0.1,0.2,0.1,0.3,0.1,0.4c0,0.3-0.1,0.5-0.3,0.7c-0.2,0.2-0.5,0.3-0.7,0.3
			s-0.4-0.1-0.5-0.2c-0.2-0.1-0.3-0.2-0.4-0.4c0-0.1-0.1-0.2-0.2-0.4s-0.2-0.5-0.3-0.7c-0.1-0.3-0.3-0.6-0.4-0.9
			c-0.2-0.3-0.3-0.6-0.4-0.9c-0.1-0.3-0.2-0.5-0.3-0.7c-0.1-0.2-0.1-0.3-0.1-0.3l-2.9-0.1l-0.1,3.4c0,0.3-0.1,0.5-0.3,0.7
			c-0.2,0.2-0.5,0.3-0.8,0.3s-0.5-0.1-0.7-0.3s-0.3-0.5-0.3-0.8l0.2-8.6c0-0.3,0.1-0.5,0.3-0.7c0.2-0.2,0.5-0.3,0.8-0.3l3.9,0.1
			c0.5,0,1,0.1,1.5,0.2c0.5,0.1,0.9,0.3,1.2,0.6c0.3,0.3,0.6,0.6,0.8,1c0.2,0.4,0.3,0.9,0.3,1.5
			C457.6,194.8,457.5,195.3,457.2,195.8z M455.1,193.2c-0.3-0.2-0.6-0.3-1-0.3l-3.2-0.1v2.5l3.2,0.1c0.4,0,0.7-0.1,1-0.3
			s0.4-0.5,0.4-0.9S455.4,193.4,455.1,193.2z"/>
		<path class="st34" d="M467.8,201.5c-0.2,0.2-0.4,0.3-0.7,0.3l-5.9-0.1c-0.3,0-0.5-0.1-0.7-0.3s-0.3-0.5-0.3-0.8l0.2-8.6
			c0-0.3,0.1-0.5,0.3-0.7c0.2-0.2,0.5-0.3,0.8-0.3s0.5,0.1,0.7,0.3s0.3,0.5,0.3,0.8l-0.1,7.7l4.8,0.1c0.3,0,0.5,0.1,0.7,0.3
			s0.3,0.4,0.3,0.7C468.1,201,468,201.3,467.8,201.5z"/>
		<path class="st34" d="M476.1,199c-0.2,0.1-0.3,0.2-0.5,0.2h-2v2c0,0.2-0.1,0.4-0.3,0.6c-0.2,0.2-0.4,0.2-0.6,0.2s-0.4-0.1-0.6-0.3
			s-0.2-0.4-0.2-0.6v-2h-2c-0.2,0-0.4-0.1-0.5-0.2c-0.1-0.2-0.2-0.3-0.2-0.5s0.1-0.4,0.2-0.5c0.2-0.1,0.3-0.2,0.5-0.2h2v-2
			c0-0.2,0.1-0.4,0.3-0.6c0.2-0.2,0.4-0.2,0.6-0.2s0.4,0.1,0.6,0.3s0.2,0.4,0.2,0.6v2h2c0.2,0,0.4,0.1,0.5,0.2
			c0.1,0.2,0.2,0.3,0.2,0.5C476.3,198.7,476.2,198.8,476.1,199z"/>
		<path class="st34" d="M486.9,192.8l-4,8.8c-0.1,0.2-0.2,0.3-0.4,0.4c-0.2,0.1-0.3,0.1-0.5,0.1s-0.4-0.1-0.5-0.2
			c-0.2-0.1-0.3-0.2-0.4-0.4l-3.7-9c-0.1-0.1-0.1-0.3-0.1-0.4c0-0.3,0.1-0.5,0.3-0.7c0.2-0.2,0.4-0.3,0.7-0.3c0.2,0,0.4,0.1,0.5,0.2
			c0.2,0.1,0.3,0.2,0.4,0.4l2.8,7.2l3.1-7.1c0.1-0.2,0.2-0.3,0.4-0.4c0.2-0.1,0.3-0.1,0.5-0.1c0.3,0,0.5,0.1,0.7,0.3
			s0.3,0.4,0.3,0.7C487,192.5,487,192.6,486.9,192.8z"/>
	</g>
</g>
<g id="Layer_2_7_">
	<g id="Layer_1-2_5_">
		<g id="Basic_Beige_1_">
			<g id="Layer_2-2_5_">
				<g id="Premium_5_">
					<g id="premium-water_5_">
						<path class="st19" d="M647.8,183.5l15.2,0.1c11.9,0,21.6,6.8,21.5,19.8v8.5c1.7,0.1,2.9,1.6,2.7,3.3c-0.1,1.5-1.3,2.6-2.8,2.8
							l-98.3-0.4l-31.6-5.6c-1.6-0.1-2.8-1.5-2.6-3.1c0.1-1.4,1.2-2.5,2.6-2.6l-0.1-18.7c0-3.8,2.8-6.8,6.3-6.8h1
							c14.4,0.1,24.5-3.5,37.1-10.4l2.7-1.5c1.6-0.8,3.3-1.3,5-1.5c2.8-0.3,22.2,0.7,22.2,0.7s6.1-0.9,9.4,4.9s9.9,10.9,9.9,10.9"/>
						<g>
							<g>
								<defs>
									<path id="SVGID_15_" d="M647.8,183.5l15.2,0.1c11.9,0,21.6,6.8,21.5,19.8v8.5c1.7,0.1,2.9,1.6,2.7,3.3
										c-0.1,1.5-1.3,2.6-2.8,2.8l-98.3-0.4l-31.6-5.6c-1.6-0.1-2.8-1.5-2.6-3.1c0.1-1.4,1.2-2.5,2.6-2.6l-0.1-18.7
										c0-3.8,2.8-6.8,6.3-6.8h1c14.4,0.1,24.5-3.5,37.1-10.4l2.7-1.5c1.6-0.8,3.3-1.3,5-1.5c2.8-0.3,22.2,0.7,22.2,0.7
										s6.1-0.9,9.4,4.9s9.9,10.9,9.9,10.9"/>
								</defs>
								<clipPath id="SVGID_16_">
									<use xlink:href="#SVGID_15_"  style="overflow:visible;"/>
								</clipPath>
								<g id="Layer_2_8_" class="st37">
									<g id="Layer_24_1_">
										<g>
											<path class="st11" d="M560.6,193.7c0,0-33.7,16.7,5.7,24.2c0,0,4.5,15.7,28.6,4.9c0,0,24.9,17.2,39.2-3.1
												c5.6,6.5,14,10,22.6,9.3c0,0,23.3-1.3,19.5-11.5c0,0,15.3-3.6,6.6-11.6c0,0-6.5-10.4-17.1-7c0,0-14-13.3-39.6-8
												c0,0-16-9.4-35-1.9C591.1,189.3,571.7,180.8,560.6,193.7z"/>
											<path class="st12" d="M560.6,191.3c0,0-33.7,17.3,5.7,25c0,0,4.5,16.2,28.6,5c0,0,24.9,17.7,39.2-3.2
												c0,0,8.1,10.8,22.6,9.6c0,0,23.3-1.3,19.6-11.8c0,0,15.3-3.7,6.6-11.9c0,0-6.5-10.7-17.1-7.2c0,0-14-13.7-39.6-8.2
												c0,0-16-9.7-35-1.9C591.1,186.7,571.7,178,560.6,191.3z"/>
											<ellipse class="st13" cx="581" cy="197.2" rx="11.5" ry="7.4"/>
											<ellipse class="st13" cx="614.2" cy="213.5" rx="11.5" ry="7.4"/>
											<ellipse class="st13" cx="645.3" cy="196.6" rx="11.5" ry="7.4"/>
											<ellipse class="st14" cx="581" cy="192.5" rx="11.5" ry="10.8"/>
											<ellipse class="st14" cx="614.2" cy="208.4" rx="10.8" ry="11.2"/>
											
												<ellipse transform="matrix(0.3093 -0.951 0.951 0.3093 263.018 746.3412)" class="st14" cx="645.3" cy="192.1" rx="10.5" ry="11.5"/>
											<ellipse class="st15" cx="581" cy="192.2" rx="9.5" ry="9.8"/>
											
												<ellipse transform="matrix(0.6018 -0.7986 0.7986 0.6018 84.326 541.8925)" class="st16" cx="585.6" cy="186.4" rx="2" ry="3.6"/>
											<ellipse class="st15" cx="645.3" cy="192.2" rx="9.5" ry="9.8"/>
											<ellipse class="st15" cx="614.2" cy="208.4" rx="9.5" ry="9.8"/>
											
												<ellipse transform="matrix(0.6018 -0.7986 0.7986 0.6018 85.0502 573.1116)" class="st16" cx="617.3" cy="201.3" rx="2" ry="3.6"/>
											
												<ellipse transform="matrix(0.6018 -0.7986 0.7986 0.6018 110.1712 593.717)" class="st16" cx="650.5" cy="186.4" rx="2" ry="3.6"/>
											
												<ellipse transform="matrix(0.6018 -0.7986 0.7986 0.6018 106.8912 597.5843)" class="st13" cx="652.7" cy="191.6" rx="1.1" ry="2.6"/>
											
												<ellipse transform="matrix(0.6018 -0.7986 0.7986 0.6018 82.3338 578.1541)" class="st13" cx="621" cy="206.5" rx="1.1" ry="2.6"/>
											
												<ellipse transform="matrix(0.6018 -0.7986 0.7986 0.6018 81.2488 546.2874)" class="st13" cx="588.5" cy="191.7" rx="1.1" ry="2.6"/>
											<ellipse class="st17" cx="556.7" cy="199.3" rx="4.1" ry="0.7"/>
											<circle class="st17" cx="592.9" cy="203.7" r="1"/>
											<ellipse class="st17" cx="600.6" cy="215.8" rx="1.4" ry="1.7"/>
											<ellipse class="st17" cx="602.7" cy="218.5" rx="0.7" ry="0.3"/>
											<ellipse class="st17" cx="634.4" cy="202.7" rx="2" ry="1.4"/>
											<ellipse class="st17" cx="639.2" cy="205" rx="2" ry="1"/>
											<ellipse class="st17" cx="661.5" cy="198.3" rx="2" ry="1"/>
											<ellipse class="st3" cx="572.3" cy="205.4" rx="2" ry="0.7"/>
											<ellipse class="st3" cx="575.3" cy="207.4" rx="2.4" ry="0.7"/>
										</g>
									</g>
								</g>
							</g>
						</g>
						<path class="st21" d="M684.5,211.8c1.7,0.1,2.9,1.6,2.7,3.3c-0.1,1.5-1.3,2.6-2.8,2.8l-98.3-0.4l-31.6-5.6
							c-1.6-0.1-2.8-1.5-2.6-3.1c0.1-1.4,1.2-2.5,2.6-2.6l-0.1-13.6l5.8,6.1l-0.3,7.6v1.8l25.3,4.3L684.5,211.8z"/>
						<g class="st22">
							<path d="M684.6,204.9c0,0-7.9-19.8-37.1-11.1l-92.9-6.2c0-3.8,2.8-6.8,6.3-6.8l18.9,0.1c3.9,0,62,8.1,62,8.1l6.1-5.4
								l15.2,0.1C663.1,183.6,684.6,182.8,684.6,204.9z"/>
						</g>
						
							<ellipse transform="matrix(0.9955 -9.525935e-02 9.525935e-02 0.9955 -17.023 64.2315)" class="st23" cx="664.2" cy="210.4" rx="14.7" ry="14.6"/>
						
							<ellipse transform="matrix(0.9955 -9.504259e-02 9.504259e-02 0.9955 -16.9903 64.0817)" class="st21" cx="664.2" cy="210.4" rx="14.3" ry="14.2"/>
						
							<ellipse transform="matrix(0.9955 -9.525058e-02 9.525058e-02 0.9955 -17.0217 64.2254)" cx="664.2" cy="210.4" rx="10.8" ry="10.7"/>
						
							<ellipse transform="matrix(0.9955 -9.526343e-02 9.526343e-02 0.9955 -17.0236 64.2343)" class="st3" cx="664.2" cy="210.4" rx="10.3" ry="10.2"/>
						
							<ellipse transform="matrix(0.9955 -9.525058e-02 9.525058e-02 0.9955 -17.0217 64.2254)" class="st24" cx="664.2" cy="210.4" rx="9.7" ry="9.7"/>
						
							<ellipse transform="matrix(0.9955 -9.522904e-02 9.522904e-02 0.9955 -17.0185 64.2106)" class="st25" cx="664.2" cy="210.4" rx="6.1" ry="6"/>
						<ellipse class="st26" cx="664.2" cy="210.4" rx="5.5" ry="5.5"/>
						<g>
							<g>
								<defs>
									<path id="SVGID_17_" d="M635.9,188.3c-8-16-12.1-15.4-12.1-15.4s-10.5-0.3-13.8-0.1c-3.3,0.3-4.4,2.4-4.4,2.4l-3.3,5.1
										c0,0-2.2,3,3.3,3.6C609.9,184.4,635.9,188.3,635.9,188.3z"/>
								</defs>
								<clipPath id="SVGID_18_">
									<use xlink:href="#SVGID_17_"  style="overflow:visible;"/>
								</clipPath>
								<g class="st38">
									<path class="st28" d="M635.4,172.2h-35.5v16h36v-16H635.4z"/>
								</g>
							</g>
						</g>
						<g>
							<g>
								<defs>
									<path id="SVGID_19_" d="M638.2,172.9l9.9,10.6l-5.6,5.1l-9.1-12.7c0,0-1.7-1.8,0-2.7L638.2,172.9z"/>
								</defs>
								<clipPath id="SVGID_20_">
									<use xlink:href="#SVGID_19_"  style="overflow:visible;"/>
								</clipPath>
								<g class="st39">
									<path class="st30" d="M647.7,172.9h-15.9v15.7h16.3v-15.7H647.7z"/>
								</g>
							</g>
						</g>
					</g>
				</g>
			</g>
			
				<ellipse transform="matrix(0.9955 -9.525278e-02 9.525278e-02 0.9955 -17.402 56.273)" class="st23" cx="580.7" cy="210.4" rx="14.7" ry="14.6"/>
			
				<ellipse transform="matrix(0.9955 -9.525292e-02 9.525292e-02 0.9955 -17.402 56.2731)" class="st21" cx="580.7" cy="210.4" rx="14.3" ry="14.3"/>
			
				<ellipse transform="matrix(0.9955 -9.525361e-02 9.525361e-02 0.9955 -17.4021 56.2735)" cx="580.7" cy="210.4" rx="10.8" ry="10.7"/>
			
				<ellipse transform="matrix(0.9955 -9.525058e-02 9.525058e-02 0.9955 -17.4016 56.2717)" class="st3" cx="580.7" cy="210.4" rx="10.3" ry="10.2"/>
			
				<ellipse transform="matrix(0.9955 -9.525058e-02 9.525058e-02 0.9955 -17.4016 56.2717)" class="st24" cx="580.7" cy="210.4" rx="9.7" ry="9.7"/>
			
				<ellipse transform="matrix(0.9955 -9.525058e-02 9.525058e-02 0.9955 -17.4016 56.2717)" class="st25" cx="580.7" cy="210.4" rx="6.1" ry="6"/>
			<ellipse class="st26" cx="580.7" cy="210.4" rx="5.5" ry="5.5"/>
		</g>
	</g>
</g>
<g>
	<g id="Layer_2_6_">
		<g id="Layer_1-2_4_">
			<g id="Basic_White_3_">
				<g id="Layer_2-2_4_">
					<g id="Premium_4_">
						<g id="premium-water_4_">
							<path class="st31" d="M331.5,183.7l15.4,0.1c12,0,21.8,6.9,21.7,20v8.5c1.7,0.2,2.9,1.6,2.8,3.3c-0.1,1.5-1.3,2.7-2.8,2.8
								l-99.3-0.4l-31.9-5.6c-1.6-0.1-2.8-1.6-2.6-3.2c0.1-1.4,1.2-2.5,2.7-2.6l-0.1-18.9c0-3.8,2.8-6.9,6.3-6.8h1
								c14.5,0.1,24.8-3.6,37.5-10.5l2.7-1.5c1.6-0.8,3.3-1.3,5-1.5c2.8-0.3,22.4,0.7,22.4,0.7s6.2-0.9,9.5,4.9c3.3,5.8,10,11,10,11
								"/>
							<path class="st21" d="M368.6,212.3c1.7,0.2,2.9,1.6,2.8,3.3c-0.1,1.5-1.3,2.7-2.8,2.8l-99.3-0.4l-31.9-5.6
								c-1.6-0.1-2.8-1.6-2.6-3.2c0.1-1.4,1.2-2.5,2.7-2.6l-0.1-13.7l5.8,6.1l-0.3,7.6v1.8l25.6,4.4L368.6,212.3z"/>
							<g class="st22">
								<path d="M368.6,205.3c0,0-8-20-37.4-11.3l-93.8-6.3c0-3.8,2.8-6.9,6.3-6.8l19.1,0.1c3.9,0,62.6,8.2,62.6,8.2l6.2-5.5
									l15.4,0.1C346.9,183.7,368.6,182.9,368.6,205.3z"/>
							</g>
							
								<ellipse transform="matrix(0.9955 -9.525935e-02 9.525935e-02 0.9955 -18.4985 34.1201)" class="st23" cx="348.1" cy="210.8" rx="14.9" ry="14.8"/>
							
								<ellipse transform="matrix(0.9955 -9.525058e-02 9.525058e-02 0.9955 -18.4969 34.1169)" class="st21" cx="348.1" cy="210.8" rx="14.5" ry="14.4"/>
							
								<ellipse transform="matrix(0.9955 -9.525058e-02 9.525058e-02 0.9955 -18.4969 34.1169)" cx="348.1" cy="210.8" rx="10.9" ry="10.8"/>
							
								<ellipse transform="matrix(0.9955 -9.526343e-02 9.526343e-02 0.9955 -18.4992 34.1216)" class="st3" cx="348.1" cy="210.8" rx="10.4" ry="10.3"/>
							
								<ellipse transform="matrix(0.9955 -9.525058e-02 9.525058e-02 0.9955 -18.4969 34.1169)" class="st24" cx="348.1" cy="210.8" rx="9.8" ry="9.8"/>
							<ellipse class="st25" cx="348.1" cy="210.8" rx="6.1" ry="6.1"/>
							
								<ellipse transform="matrix(0.9955 -9.525058e-02 9.525058e-02 0.9955 -18.4969 34.1169)" class="st26" cx="348.1" cy="210.8" rx="5.6" ry="5.5"/>
							<g>
								<g>
									<defs>
										<path id="SVGID_21_" d="M319.5,188.5c-8.1-16.2-12.3-15.6-12.3-15.6s-10.6-0.3-14-0.1c-3.4,0.3-4.5,2.4-4.5,2.4l-3.4,5.2
											c0,0-2.2,3,3.3,3.7C293.2,184.6,319.5,188.5,319.5,188.5z"/>
									</defs>
									<clipPath id="SVGID_22_">
										<use xlink:href="#SVGID_21_"  style="overflow:visible;"/>
									</clipPath>
									<g class="st40">
										<path class="st28" d="M319,172.3h-35.8v16.2h36.3v-16.2H319z"/>
									</g>
								</g>
							</g>
							<g>
								<g>
									<defs>
										<path id="SVGID_23_" d="M321.8,172.9l10,10.7l-5.6,5.2L317,176c0,0-1.7-1.8,0-2.7L321.8,172.9z"/>
									</defs>
									<clipPath id="SVGID_24_">
										<use xlink:href="#SVGID_23_"  style="overflow:visible;"/>
									</clipPath>
									<g class="st41">
										<path class="st30" d="M331.4,172.9h-16.1v15.9h16.5v-15.9H331.4z"/>
									</g>
								</g>
							</g>
						</g>
					</g>
				</g>
				
					<ellipse transform="matrix(0.9955 -9.525278e-02 9.525278e-02 0.9955 -18.8806 26.0875)" class="st23" cx="263.8" cy="210.8" rx="14.9" ry="14.8"/>
				
					<ellipse transform="matrix(0.9955 -9.525286e-02 9.525286e-02 0.9955 -18.8806 26.0875)" class="st21" cx="263.8" cy="210.8" rx="14.5" ry="14.4"/>
				
					<ellipse transform="matrix(0.9955 -9.525361e-02 9.525361e-02 0.9955 -18.8807 26.0877)" cx="263.8" cy="210.8" rx="10.9" ry="10.8"/>
				
					<ellipse transform="matrix(0.9955 -9.525058e-02 9.525058e-02 0.9955 -18.8802 26.0869)" class="st3" cx="263.8" cy="210.8" rx="10.4" ry="10.3"/>
				
					<ellipse transform="matrix(6.543342e-02 -0.9979 0.9979 6.543342e-02 36.1944 460.2628)" class="st24" cx="263.8" cy="210.8" rx="9.8" ry="9.8"/>
				<ellipse class="st25" cx="263.8" cy="210.8" rx="6.1" ry="6.1"/>
				
					<ellipse transform="matrix(0.9955 -9.525058e-02 9.525058e-02 0.9955 -18.8802 26.0869)" class="st26" cx="263.8" cy="210.8" rx="5.6" ry="5.5"/>
			</g>
		</g>
	</g>
	<g>
		<path class="st34" d="M283.1,198.9c0,0.1-0.1,0.2-0.2,0.3c-0.5,0.6-1.1,1.1-1.9,1.4c-0.7,0.3-1.5,0.5-2.3,0.5s-1.5-0.2-2.1-0.5
			c-0.7-0.3-1.2-0.7-1.7-1.2s-0.9-1.1-1.1-1.8c-0.3-0.7-0.4-1.4-0.4-2.2s0.2-1.5,0.5-2.1c0.3-0.7,0.7-1.2,1.2-1.7s1.1-0.9,1.7-1.1
			c0.7-0.3,1.4-0.4,2.1-0.4c0.3,0,0.6,0,1,0.1c0.3,0.1,0.6,0.1,0.9,0.2c0.3,0.1,0.6,0.3,0.9,0.4c0.3,0.2,0.5,0.4,0.7,0.6
			c0.2,0.2,0.3,0.5,0.3,0.8s-0.1,0.5-0.3,0.7c-0.2,0.2-0.4,0.3-0.7,0.3c-0.2,0-0.4-0.1-0.5-0.2c-0.2-0.1-0.4-0.2-0.6-0.4
			c-0.2-0.1-0.5-0.3-0.7-0.4c-0.3-0.1-0.6-0.2-1-0.2c-0.5,0-1,0.1-1.4,0.3s-0.8,0.4-1.1,0.7c-0.3,0.3-0.5,0.7-0.7,1.1
			c-0.2,0.4-0.3,0.9-0.3,1.4s0.1,0.9,0.2,1.4c0.2,0.4,0.4,0.8,0.6,1.1c0.3,0.3,0.6,0.6,1,0.8s0.9,0.3,1.4,0.3s0.9-0.1,1.2-0.2
			c0.3-0.2,0.6-0.3,0.8-0.5c0.2-0.2,0.4-0.4,0.6-0.5c0.2-0.2,0.4-0.2,0.6-0.2c0.3,0,0.5,0.1,0.7,0.3s0.3,0.5,0.3,0.7
			C283.2,198.7,283.2,198.8,283.1,198.9z"/>
		<path class="st34" d="M293.6,192.1c-0.2,0.2-0.4,0.3-0.7,0.3l-2.9-0.1l-0.1,7.7c0,0.3-0.1,0.5-0.3,0.8c-0.2,0.2-0.5,0.3-0.8,0.3
			s-0.5-0.1-0.7-0.3s-0.3-0.5-0.3-0.8l0.1-7.7l-2.9-0.1c-0.3,0-0.5-0.1-0.7-0.3s-0.3-0.4-0.3-0.7s0.1-0.5,0.3-0.7
			c0.2-0.2,0.4-0.3,0.7-0.3l8,0.1c0.3,0,0.5,0.1,0.7,0.3s0.3,0.4,0.3,0.7C293.9,191.7,293.8,191.9,293.6,192.1z"/>
		<path class="st34" d="M303.9,195.4c-0.3,0.5-0.7,0.8-1.3,1.1c0.1,0.1,0.1,0.3,0.2,0.5s0.2,0.4,0.3,0.7c0.1,0.3,0.2,0.5,0.4,0.8
			c0.1,0.3,0.2,0.5,0.4,0.8c0.1,0.2,0.2,0.5,0.3,0.7c0.1,0.2,0.1,0.3,0.1,0.4c0,0.3-0.1,0.5-0.3,0.7c-0.2,0.2-0.5,0.3-0.7,0.3
			s-0.4-0.1-0.5-0.2c-0.2-0.1-0.3-0.2-0.4-0.4c0-0.1-0.1-0.2-0.2-0.4s-0.2-0.5-0.3-0.7c-0.1-0.3-0.3-0.6-0.4-0.9
			c-0.2-0.3-0.3-0.6-0.4-0.9c-0.1-0.3-0.2-0.5-0.3-0.7c-0.1-0.2-0.1-0.3-0.1-0.3l-2.9-0.1l-0.1,3.4c0,0.3-0.1,0.5-0.3,0.7
			c-0.2,0.2-0.5,0.3-0.8,0.3s-0.5-0.1-0.7-0.3s-0.3-0.5-0.3-0.8l0.2-8.6c0-0.3,0.1-0.5,0.3-0.7c0.2-0.2,0.5-0.3,0.8-0.3l3.9,0.1
			c0.5,0,1,0.1,1.5,0.2c0.5,0.1,0.9,0.3,1.2,0.6c0.3,0.3,0.6,0.6,0.8,1c0.2,0.4,0.3,0.9,0.3,1.5C304.3,194.4,304.2,195,303.9,195.4z
			 M301.8,192.8c-0.3-0.2-0.6-0.3-1-0.3l-3.2-0.1v2.5l3.2,0.1c0.4,0,0.7-0.1,1-0.3s0.4-0.5,0.4-0.9
			C302.2,193.4,302.1,193.1,301.8,192.8z"/>
		<path class="st34" d="M314.5,201.1c-0.2,0.2-0.4,0.3-0.7,0.3l-5.9-0.1c-0.3,0-0.5-0.1-0.8-0.3c-0.2-0.2-0.3-0.5-0.3-0.8l0.2-8.6
			c0-0.3,0.1-0.5,0.3-0.7c0.2-0.2,0.5-0.3,0.8-0.3s0.5,0.1,0.7,0.3s0.3,0.5,0.3,0.8l-0.1,7.7l4.8,0.1c0.3,0,0.5,0.1,0.7,0.3
			s0.3,0.4,0.3,0.7C314.8,200.7,314.7,200.9,314.5,201.1z"/>
		<path class="st34" d="M322.8,198.6c-0.2,0.1-0.3,0.2-0.5,0.2h-2v2c0,0.2-0.1,0.4-0.3,0.6c-0.2,0.2-0.4,0.2-0.6,0.2
			s-0.4-0.1-0.6-0.3s-0.2-0.4-0.2-0.6v-2h-2c-0.2,0-0.4-0.1-0.5-0.2c-0.1-0.2-0.2-0.3-0.2-0.5s0.1-0.4,0.2-0.5
			c0.2-0.1,0.3-0.2,0.5-0.2h2v-2c0-0.2,0.1-0.4,0.3-0.6c0.2-0.2,0.4-0.2,0.6-0.2s0.4,0.1,0.6,0.3s0.2,0.4,0.2,0.6v2h2
			c0.2,0,0.4,0.1,0.5,0.2c0.1,0.2,0.2,0.3,0.2,0.5S322.9,198.5,322.8,198.6z"/>
		<path class="st34" d="M334,199.8c0,0.1-0.1,0.2-0.2,0.3c-0.5,0.6-1.1,1.1-1.9,1.4c-0.7,0.3-1.5,0.5-2.3,0.5s-1.5-0.2-2.1-0.5
			c-0.7-0.3-1.2-0.7-1.7-1.2s-0.9-1.1-1.1-1.8c-0.3-0.7-0.4-1.4-0.4-2.2s0.2-1.5,0.5-2.1c0.3-0.7,0.7-1.2,1.2-1.7s1.1-0.9,1.7-1.1
			c0.7-0.3,1.4-0.4,2.1-0.4c0.3,0,0.6,0,1,0.1c0.3,0.1,0.6,0.1,0.9,0.2c0.3,0.1,0.6,0.3,0.9,0.4c0.3,0.2,0.5,0.4,0.7,0.6
			c0.2,0.2,0.3,0.5,0.3,0.8s-0.1,0.5-0.3,0.7c-0.2,0.2-0.4,0.3-0.7,0.3c-0.2,0-0.4-0.1-0.5-0.2c-0.2-0.1-0.4-0.2-0.6-0.4
			c-0.2-0.1-0.5-0.3-0.7-0.4c-0.3-0.1-0.6-0.2-1-0.2c-0.5,0-1,0.1-1.4,0.3s-0.8,0.4-1.1,0.7c-0.3,0.3-0.5,0.7-0.7,1.1
			c-0.2,0.4-0.3,0.9-0.3,1.4s0.1,0.9,0.2,1.4c0.2,0.4,0.4,0.8,0.6,1.1c0.3,0.3,0.6,0.6,1,0.8s0.9,0.3,1.4,0.3s0.9-0.1,1.2-0.2
			c0.3-0.2,0.6-0.3,0.8-0.5c0.2-0.2,0.4-0.4,0.6-0.5c0.2-0.2,0.4-0.2,0.6-0.2c0.3,0,0.5,0.1,0.7,0.3s0.3,0.5,0.3,0.7
			C334.1,199.6,334.1,199.7,334,199.8z"/>
	</g>
</g>
<g>
	<g id="Layer_2_5_">
		<g id="Layer_1-2_3_">
			<g id="Basic_White_2_">
				<g id="Layer_2-2_3_">
					<g id="Premium_3_">
						<g id="premium-water_3_">
							<path class="st31" d="M484.8,183.5l15.4,0.1c12,0,21.8,6.9,21.7,20v8.5c1.7,0.2,2.9,1.6,2.8,3.3c-0.1,1.5-1.3,2.7-2.8,2.8
								l-99.3-0.4l-31.9-5.6c-1.6-0.1-2.8-1.6-2.6-3.2c0.1-1.4,1.2-2.5,2.7-2.6l-0.1-18.9c0-3.8,2.8-6.9,6.3-6.8h1
								c14.5,0.1,24.7-3.6,37.5-10.5l2.7-1.5c1.6-0.8,3.3-1.3,5-1.5c2.8-0.3,22.4,0.7,22.4,0.7s6.2-0.9,9.5,4.9c3.3,5.8,10,11,10,11
								"/>
							<path class="st21" d="M521.9,212.1c1.7,0.2,2.9,1.6,2.8,3.3c-0.1,1.5-1.3,2.7-2.8,2.8l-99.3-0.4l-31.9-5.6
								c-1.6-0.1-2.8-1.6-2.6-3.2c0.1-1.4,1.2-2.5,2.7-2.6l-0.1-13.7l5.8,6.1l-0.3,7.6v1.8l25.6,4.4L521.9,212.1z"/>
							<g class="st22">
								<path d="M521.9,205.1c0,0-8-20-37.4-11.3l-93.8-6.3c0-3.8,2.8-6.9,6.3-6.8l19,0.1c3.9,0,62.6,8.2,62.6,8.2l6.2-5.5l15.4,0.1
									C500.2,183.5,521.9,182.8,521.9,205.1z"/>
							</g>
							
								<ellipse transform="matrix(0.9955 -9.525935e-02 9.525935e-02 0.9955 -17.7824 48.7231)" class="st23" cx="501.4" cy="210.6" rx="14.9" ry="14.8"/>
							
								<ellipse transform="matrix(0.9955 -9.521275e-02 9.521275e-02 0.9955 -17.7748 48.6988)" class="st21" cx="501.4" cy="210.6" rx="14.5" ry="14.4"/>
							
								<ellipse transform="matrix(0.9955 -9.525058e-02 9.525058e-02 0.9955 -17.7809 48.7185)" cx="501.4" cy="210.6" rx="10.9" ry="10.8"/>
							
								<ellipse transform="matrix(0.9955 -9.526343e-02 9.526343e-02 0.9955 -17.783 48.7253)" class="st3" cx="501.4" cy="210.6" rx="10.4" ry="10.3"/>
							
								<ellipse transform="matrix(0.9955 -9.525067e-02 9.525067e-02 0.9955 -17.7809 48.7185)" class="st24" cx="501.4" cy="210.6" rx="9.8" ry="9.8"/>
							<ellipse class="st25" cx="501.4" cy="210.6" rx="6.1" ry="6.1"/>
							
								<ellipse transform="matrix(0.9955 -9.525058e-02 9.525058e-02 0.9955 -17.7809 48.7185)" class="st26" cx="501.4" cy="210.6" rx="5.6" ry="5.5"/>
							<g>
								<g>
									<defs>
										<path id="SVGID_25_" d="M472.8,188.3c-8.1-16.2-12.2-15.6-12.2-15.6s-10.6-0.3-14-0.1s-4.5,2.4-4.5,2.4l-3.4,5.2
											c0,0-2.2,3,3.3,3.7C446.5,184.4,472.8,188.3,472.8,188.3z"/>
									</defs>
									<clipPath id="SVGID_26_">
										<use xlink:href="#SVGID_25_"  style="overflow:visible;"/>
									</clipPath>
									<g class="st42">
										<path class="st28" d="M472.3,172.1h-35.8v16.2h36.3v-16.2H472.3z"/>
									</g>
								</g>
							</g>
							<g>
								<g>
									<defs>
										<path id="SVGID_27_" d="M475.1,172.8l10,10.7l-5.6,5.2l-9.2-12.8c0,0-1.7-1.8,0-2.7L475.1,172.8z"/>
									</defs>
									<clipPath id="SVGID_28_">
										<use xlink:href="#SVGID_27_"  style="overflow:visible;"/>
									</clipPath>
									<g class="st43">
										<path class="st30" d="M484.8,172.8h-16.1v15.9h16.5v-15.9H484.8z"/>
									</g>
								</g>
							</g>
						</g>
					</g>
				</g>
				
					<ellipse transform="matrix(0.9955 -9.525278e-02 9.525278e-02 0.9955 -18.1648 40.6895)" class="st23" cx="417.1" cy="210.6" rx="14.9" ry="14.8"/>
				
					<ellipse transform="matrix(0.9955 -9.525286e-02 9.525286e-02 0.9955 -18.1649 40.6895)" class="st21" cx="417.1" cy="210.6" rx="14.5" ry="14.4"/>
				
					<ellipse transform="matrix(0.9955 -9.525361e-02 9.525361e-02 0.9955 -18.165 40.6899)" cx="417.1" cy="210.6" rx="10.9" ry="10.8"/>
				
					<ellipse transform="matrix(0.9955 -9.525058e-02 9.525058e-02 0.9955 -18.1645 40.6885)" class="st3" cx="417.1" cy="210.6" rx="10.4" ry="10.3"/>
				
					<ellipse transform="matrix(0.9955 -9.525055e-02 9.525055e-02 0.9955 -18.1645 40.6885)" class="st24" cx="417.1" cy="210.6" rx="9.8" ry="9.8"/>
				<ellipse class="st25" cx="417.1" cy="210.6" rx="6.1" ry="6.1"/>
				
					<ellipse transform="matrix(0.9955 -9.525058e-02 9.525058e-02 0.9955 -18.1645 40.6885)" class="st26" cx="417.1" cy="210.6" rx="5.6" ry="5.5"/>
			</g>
		</g>
	</g>
	<g>
		<path class="st34" d="M436.5,199.2c0,0.1-0.1,0.2-0.2,0.3c-0.5,0.6-1.1,1.1-1.9,1.4c-0.7,0.3-1.5,0.5-2.3,0.5s-1.5-0.2-2.1-0.5
			c-0.7-0.3-1.2-0.7-1.7-1.2s-0.9-1.1-1.1-1.8c-0.3-0.7-0.4-1.4-0.4-2.2s0.2-1.5,0.5-2.1c0.3-0.7,0.7-1.2,1.2-1.7s1.1-0.9,1.7-1.1
			c0.7-0.3,1.4-0.4,2.1-0.4c0.3,0,0.6,0,1,0.1c0.3,0.1,0.6,0.1,0.9,0.2c0.3,0.1,0.6,0.3,0.9,0.4c0.3,0.2,0.5,0.4,0.7,0.6
			c0.2,0.2,0.3,0.5,0.3,0.8s-0.1,0.5-0.3,0.7c-0.2,0.2-0.4,0.3-0.7,0.3c-0.2,0-0.4-0.1-0.5-0.2c-0.2-0.1-0.4-0.2-0.6-0.4
			c-0.2-0.1-0.5-0.3-0.7-0.4c-0.3-0.1-0.6-0.2-1-0.2c-0.5,0-1,0.1-1.4,0.3s-0.8,0.4-1.1,0.7c-0.3,0.3-0.5,0.7-0.7,1.1
			c-0.2,0.4-0.3,0.9-0.3,1.4s0.1,0.9,0.2,1.4c0.2,0.4,0.4,0.8,0.6,1.1c0.3,0.3,0.6,0.6,1,0.8s0.9,0.3,1.4,0.3s0.9-0.1,1.2-0.2
			c0.3-0.2,0.6-0.3,0.8-0.5c0.2-0.2,0.4-0.4,0.6-0.5c0.2-0.2,0.4-0.2,0.6-0.2c0.3,0,0.5,0.1,0.7,0.3s0.3,0.5,0.3,0.7
			C436.5,199,436.5,199.1,436.5,199.2z"/>
		<path class="st34" d="M446.9,192.5c-0.2,0.2-0.4,0.3-0.7,0.3l-2.9-0.1l-0.1,7.7c0,0.3-0.1,0.5-0.3,0.7c-0.2,0.2-0.5,0.3-0.8,0.3
			s-0.5-0.1-0.7-0.3s-0.3-0.5-0.3-0.8l0.1-7.7l-2.9-0.1c-0.3,0-0.5-0.1-0.7-0.3s-0.3-0.4-0.3-0.7s0.1-0.5,0.3-0.7
			c0.2-0.2,0.4-0.3,0.7-0.3l7.9,0.1c0.3,0,0.5,0.1,0.7,0.3s0.3,0.4,0.3,0.7S447.1,192.3,446.9,192.5z"/>
		<path class="st34" d="M457.2,195.8c-0.3,0.5-0.7,0.8-1.3,1.1c0.1,0.1,0.1,0.3,0.2,0.5s0.2,0.4,0.3,0.7c0.1,0.3,0.2,0.5,0.4,0.8
			s0.2,0.5,0.4,0.8c0.1,0.2,0.2,0.5,0.3,0.7c0.1,0.2,0.1,0.3,0.1,0.4c0,0.3-0.1,0.5-0.3,0.7c-0.2,0.2-0.5,0.3-0.7,0.3
			s-0.4-0.1-0.5-0.2c-0.2-0.1-0.3-0.2-0.4-0.4c0-0.1-0.1-0.2-0.2-0.4s-0.2-0.5-0.3-0.7c-0.1-0.3-0.3-0.6-0.4-0.9
			c-0.2-0.3-0.3-0.6-0.4-0.9c-0.1-0.3-0.2-0.5-0.3-0.7c-0.1-0.2-0.1-0.3-0.1-0.3l-2.9-0.1l-0.1,3.4c0,0.3-0.1,0.5-0.3,0.7
			c-0.2,0.2-0.5,0.3-0.8,0.3s-0.5-0.1-0.7-0.3s-0.3-0.5-0.3-0.8l0.2-8.6c0-0.3,0.1-0.5,0.3-0.7c0.2-0.2,0.5-0.3,0.8-0.3l3.9,0.1
			c0.5,0,1,0.1,1.5,0.2c0.5,0.1,0.9,0.3,1.2,0.6c0.3,0.3,0.6,0.6,0.8,1c0.2,0.4,0.3,0.9,0.3,1.5
			C457.6,194.8,457.5,195.3,457.2,195.8z M455.1,193.2c-0.3-0.2-0.6-0.3-1-0.3l-3.2-0.1v2.5l3.2,0.1c0.4,0,0.7-0.1,1-0.3
			s0.4-0.5,0.4-0.9S455.4,193.4,455.1,193.2z"/>
		<path class="st34" d="M467.8,201.5c-0.2,0.2-0.4,0.3-0.7,0.3l-5.9-0.1c-0.3,0-0.5-0.1-0.7-0.3s-0.3-0.5-0.3-0.8l0.2-8.6
			c0-0.3,0.1-0.5,0.3-0.7c0.2-0.2,0.5-0.3,0.8-0.3s0.5,0.1,0.7,0.3s0.3,0.5,0.3,0.8l-0.1,7.7l4.8,0.1c0.3,0,0.5,0.1,0.7,0.3
			s0.3,0.4,0.3,0.7C468.1,201,468,201.3,467.8,201.5z"/>
		<path class="st34" d="M476.1,199c-0.2,0.1-0.3,0.2-0.5,0.2h-2v2c0,0.2-0.1,0.4-0.3,0.6c-0.2,0.2-0.4,0.2-0.6,0.2s-0.4-0.1-0.6-0.3
			s-0.2-0.4-0.2-0.6v-2h-2c-0.2,0-0.4-0.1-0.5-0.2c-0.1-0.2-0.2-0.3-0.2-0.5s0.1-0.4,0.2-0.5c0.2-0.1,0.3-0.2,0.5-0.2h2v-2
			c0-0.2,0.1-0.4,0.3-0.6c0.2-0.2,0.4-0.2,0.6-0.2s0.4,0.1,0.6,0.3s0.2,0.4,0.2,0.6v2h2c0.2,0,0.4,0.1,0.5,0.2
			c0.1,0.2,0.2,0.3,0.2,0.5C476.3,198.7,476.2,198.8,476.1,199z"/>
		<path class="st34" d="M486.9,192.8l-4,8.8c-0.1,0.2-0.2,0.3-0.4,0.4c-0.2,0.1-0.3,0.1-0.5,0.1s-0.4-0.1-0.5-0.2
			c-0.2-0.1-0.3-0.2-0.4-0.4l-3.7-9c-0.1-0.1-0.1-0.3-0.1-0.4c0-0.3,0.1-0.5,0.3-0.7c0.2-0.2,0.4-0.3,0.7-0.3c0.2,0,0.4,0.1,0.5,0.2
			c0.2,0.1,0.3,0.2,0.4,0.4l2.8,7.2l3.1-7.1c0.1-0.2,0.2-0.3,0.4-0.4c0.2-0.1,0.3-0.1,0.5-0.1c0.3,0,0.5,0.1,0.7,0.3
			s0.3,0.4,0.3,0.7C487,192.5,487,192.6,486.9,192.8z"/>
	</g>
</g>
<g id="Layer_8">
	
		<linearGradient id="SVGID_29_" gradientUnits="userSpaceOnUse" x1="400" y1="-264" x2="400" y2="-514" gradientTransform="matrix(1 0 0 -1 0 -264)">
		<stop  offset="0" style="stop-color:#666666"/>
		<stop  offset="1" style="stop-color:#333333"/>
	</linearGradient>
	<rect class="st44" width="800" height="250"/>
</g>
</svg>
