<svg xmlns="http://www.w3.org/2000/svg" width="312.484" height="316" viewBox="0 0 312.484 316">
  <g id="Layer_2" data-name="Layer 2">
    <g id="Layer_4" data-name="Layer 4">
      <g>
        <g>
          <g>
            <g>
              <path d="M70.242,106.65a67,67,0,0,0-67,67v97h134v-97A67,67,0,0,0,70.242,106.65Z" fill="#e5d015"/>
              <path d="M122.242,53.65a52,52,0,1,0-64,50.593V115.1a6.628,6.628,0,0,0,2.952,5.515l4.122,2.748a8.881,8.881,0,0,0,9.853,0l4.122-2.748a6.627,6.627,0,0,0,2.951-5.515v-10.86A52.009,52.009,0,0,0,122.242,53.65Z" fill="#6d3d18"/>
              <path d="M50.242,20.65s-7.553,27.545-32,30c1.447-31.455,21-47,44.915-50.5,34.085-2.5,58.085,26.5,58.085,43.5C95.3,49.383,69.112,29.9,50.242,20.65Z" fill="#281200"/>
            </g>
            <g>
              <path d="M242.242,106.65a67,67,0,0,0-67,67v97h134v-97A67,67,0,0,0,242.242,106.65Z" fill="#13949e"/>
              <path d="M294.242,53.65a52,52,0,1,0-64,50.593V115.1a6.628,6.628,0,0,0,2.952,5.515l4.122,2.748a8.881,8.881,0,0,0,9.853,0l4.122-2.748a6.627,6.627,0,0,0,2.951-5.515v-10.86A52.009,52.009,0,0,0,294.242,53.65Z" fill="#e0a361"/>
              <path d="M222.242,20.65s-7.553,27.545-32,30c1.447-31.455,21-47,44.915-50.5,34.085-2.5,58.085,26.5,58.085,43.5C267.3,49.383,241.112,29.9,222.242,20.65Z" fill="#4c2200"/>
            </g>
            <g>
              <path d="M156.242,151.65a67,67,0,0,0-67,67v97h134v-97A67,67,0,0,0,156.242,151.65Z" fill="#1153a3"/>
              <path d="M208.242,98.65a52,52,0,1,0-64,50.593V160.1a6.628,6.628,0,0,0,2.952,5.515l4.122,2.748a8.881,8.881,0,0,0,9.853,0l4.122-2.748a6.627,6.627,0,0,0,2.951-5.515v-10.86A52.009,52.009,0,0,0,208.242,98.65Z" fill="#ffbf8a"/>
              <path d="M136.242,65.65s-7.553,27.545-32,30c1.447-31.455,21-47,44.915-50.5,34.085-2.5,58.085,26.5,58.085,43.5C181.3,94.383,155.112,74.9,136.242,65.65Z" fill="#34383d"/>
            </g>
            <g>
              <path d="M256.2,213.238a56.281,56.281,0,0,0-56.281,56.281V316H312.484V269.519A56.28,56.28,0,0,0,256.2,213.238Z" fill="#a01f12"/>
              <path d="M299.884,168.717a43.681,43.681,0,1,0-53.761,42.5v9.122a5.569,5.569,0,0,0,2.48,4.633l3.462,2.308a7.46,7.46,0,0,0,8.277,0l3.462-2.308a5.569,5.569,0,0,0,2.48-4.633v-9.122A43.687,43.687,0,0,0,299.884,168.717Z" fill="#aa7146"/>
              <path d="M239.4,141s-6.344,23.137-26.88,25.2c1.215-26.423,17.64-39.48,37.729-42.419,28.632-2.1,48.792,22.259,48.792,36.539C277.254,165.133,255.254,148.767,239.4,141Z" fill="#421e00"/>
            </g>
            <g>
              <path d="M56.281,213.238A56.281,56.281,0,0,0,0,269.519V316H112.562V269.519A56.281,56.281,0,0,0,56.281,213.238Z" fill="#34383d"/>
              <path d="M99.961,168.717a43.681,43.681,0,1,0-53.76,42.5v9.122a5.568,5.568,0,0,0,2.479,4.633l3.462,2.308a7.46,7.46,0,0,0,8.277,0l3.462-2.308a5.566,5.566,0,0,0,2.48-4.633v-9.122A43.687,43.687,0,0,0,99.961,168.717Z" fill="#ffdbc0"/>
              <path d="M39.481,141S33.136,164.134,12.6,166.2c1.216-26.423,17.64-39.48,37.729-42.419,28.632-2.1,48.792,22.259,48.792,36.539C77.332,165.133,55.331,148.767,39.481,141Z" fill="#6d3400"/>
            </g>
          </g>
          <circle cx="108.242" cy="214.65" r="15" fill="#ffbf8a"/>
          <circle cx="203.242" cy="214.65" r="15" fill="#ffbf8a"/>
          <circle cx="17.242" cy="273.65" r="13" fill="#ffdbc0"/>
          <circle cx="96.242" cy="273.65" r="13" fill="#ffdbc0"/>
          <circle cx="294.242" cy="273.65" r="13" fill="#aa7146"/>
          <circle cx="220.242" cy="273.65" r="13" fill="#aa7146"/>
        </g>
        <g id="Layer_2-2" data-name="Layer 2">
          <g id="Layer_24" data-name="Layer 24">
            <g>
              <g>
                <ellipse cx="155.51" cy="202.953" rx="60.733" ry="24.447" fill="#ccc"/>
                <ellipse cx="155.51" cy="201.345" rx="60.733" ry="24.447" fill="#fff"/>
              </g>
              <ellipse cx="155.51" cy="200.474" rx="56.379" ry="22.694" fill="#ccc" opacity="0.45" style="isolation: isolate"/>
              <path d="M212.448,199l-.965-4.155a.489.489,0,0,0-.388-.37l-4.934-.907.563-.459a.493.493,0,0,0,.162-.515l-1.163-4.13a.493.493,0,0,0-.784-.248l-5.124,4.184-6.465-1.189a.488.488,0,0,0,.044-.359l-1.164-4.13a.491.491,0,0,0-.608-.338.48.48,0,0,0-.175.091L189,188.474l.478-2.489a.492.492,0,0,0-.391-.576.482.482,0,0,0-.2,0l-6.455,1.449-5.249-3.956a.487.487,0,0,0,.2-.3l.808-4.214a.492.492,0,0,0-.391-.576.481.481,0,0,0-.2,0l-6.462,1.451L162.3,172.6a.49.49,0,0,0-.77.277l-.71,2.952-2.119-2.09a.492.492,0,0,0-.805.174l-1.545,4.006a.493.493,0,0,0,.114.527l3.4,3.349-4.149.93-1.633-.819a.491.491,0,0,0-.66.22.482.482,0,0,0-.051.194l-.231,4.284a.494.494,0,0,0,.271.467l.649.325-1.9.808-4.148-3.126a.486.486,0,0,0,.2-.305l.808-4.213a.493.493,0,0,0-.391-.577.5.5,0,0,0-.2,0l-6.453,1.451-8.838-6.66a.488.488,0,0,0-.685.1.505.505,0,0,0-.085.18l-.71,2.952-2.119-2.09a.494.494,0,0,0-.7.005.5.5,0,0,0-.108.169l-1.545,4a.493.493,0,0,0,.114.528l3.4,3.348-4.149.931-1.633-.82a.493.493,0,0,0-.66.221.481.481,0,0,0-.051.193l-.08,1.492-1.005-.817a.49.49,0,0,0-.783.248l-1.165,4.127a.488.488,0,0,0,.044.359l-6.467,1.189-5.125-4.182a.491.491,0,0,0-.783.248l-1.165,4.128a.493.493,0,0,0,.163.515l.562.459-4.934.907a.49.49,0,0,0-.388.37l-.965,4.155a.49.49,0,0,0,.366.588.482.482,0,0,0,.2,0l10.692-1.967.236.193-6.823,2.221a.49.49,0,0,0-.337.421l-.41,4.271a.492.492,0,0,0,.642.515l11.459-3.727.6.49-1.252,2.879a.492.492,0,0,0,.451.688H123.1l1.03.839-7.349,2.39a.493.493,0,0,0-.337.422l-.41,4.271a.492.492,0,0,0,.442.537.5.5,0,0,0,.2-.022l13.274-4.317,3.868,6.013a.491.491,0,0,0,.823.007l1.408-2.107v.055a.49.49,0,0,0,.486.493.5.5,0,0,0,.2-.039l2.923-1.245.84.987a.494.494,0,0,0,.119.1.486.486,0,0,0-.015.178l.536,4.257a.492.492,0,0,0,.55.427.478.478,0,0,0,.19-.065l6.149-3.647,9.94,9.8a.493.493,0,0,0,.7,0,.482.482,0,0,0,.109-.169l1.544-4a.491.491,0,0,0-.114-.528l-5.5-5.422,1.3-.291,4.623,2.313a.493.493,0,0,0,.661-.22.482.482,0,0,0,.051-.194l.169-3.134.757-.17,8.58,8.46a.492.492,0,0,0,.7,0,.511.511,0,0,0,.109-.169l1.544-4a.493.493,0,0,0-.113-.528l-5.109-5.037.3-.067,8.682,6.543a.491.491,0,0,0,.771-.276l.754-3.141,1.443,2.159a.492.492,0,0,0,.683.136.486.486,0,0,0,.14-.142L184.6,209.7l13.274,4.318a.493.493,0,0,0,.643-.515l-.41-4.271a.494.494,0,0,0-.338-.422l-7.348-2.39,1.03-.841h5.17a.492.492,0,0,0,.452-.689l-1.253-2.878.6-.489,11.458,3.727a.493.493,0,0,0,.643-.515l-.41-4.271a.494.494,0,0,0-.337-.422l-6.823-2.22.236-.193,10.692,1.967a.49.49,0,0,0,.57-.4A.485.485,0,0,0,212.448,199Zm-46.548-5.68-.006.032-.071-.07Zm-23.5,7.56.365-.841a.493.493,0,0,0-.451-.689H140.6l-2.01-1.982,1.3-.291,4.623,2.313a.493.493,0,0,0,.661-.22.508.508,0,0,0,.051-.194l.023-.432,1.554,1.533-4.148.931Zm30.864-.263-5.5-5.426,1.3-.291,4.623,2.313a.489.489,0,0,0,.657-.221l0-.007,3.023.983-3.293,2.689h-.78A.379.379,0,0,0,173.262,200.621Zm-.671,2.562.491,1.132-1.015.228Zm-8.472-1.993a.492.492,0,0,0,.2-.3l.351-1.833,5.905,5.823-1.2.27Zm12.625,9.515,2.37-2.789.65.212-2.1,3.268Zm-50.024-6.431-.095.031.009-.031Zm9.365,3.823,0,.727-1.289-2,.653-.212.9,1.063A.488.488,0,0,0,136.085,208.1Zm7.832,1.66.487.479-2.83,1.677.721-1.467Zm8.846,1.814.077.038-.007.032Zm35.075-5.991h.087l.008.031Z" fill="#963" opacity="0.32" style="isolation: isolate"/>
              <g>
                <g>
                  <path d="M124.839,192.909l-22.165,4.076a.489.489,0,0,1-.57-.393.482.482,0,0,1,0-.2l.965-4.155a.488.488,0,0,1,.389-.37l22.165-4.077a.491.491,0,0,1,.571.392.5.5,0,0,1,0,.2l-.965,4.155A.491.491,0,0,1,124.839,192.909Z" fill="#fc6"/>
                  <path d="M103.528,192.107s2.938,3.01-.964,4.389Z" fill="#963"/>
                  <rect x="104.322" y="190.187" width="21.266" height="0.212" transform="translate(-32.521 23.929) rotate(-10.42)" fill="#963" opacity="0.59" style="isolation: isolate"/>
                  <rect x="104.443" y="190.873" width="20.627" height="0.212" transform="translate(-32.648 23.905) rotate(-10.42)" fill="#963" opacity="0.59" style="isolation: isolate"/>
                </g>
                <g>
                  <path d="M128.231,195.626l-21.556,7.009a.491.491,0,0,1-.62-.316.48.48,0,0,1-.022-.2l.41-4.271a.491.491,0,0,1,.337-.421l21.556-7.009a.491.491,0,0,1,.642.515l-.409,4.271A.494.494,0,0,1,128.231,195.626Z" fill="#fc6"/>
                  <path d="M106.875,197.661s3.33,2.612-.376,4.5Z" fill="#963"/>
                  <rect x="107.335" y="194.227" width="21.388" height="0.214" transform="translate(-54.322 46.038) rotate(-18.018)" fill="#963" opacity="0.59" style="isolation: isolate"/>
                  <rect x="107.549" y="194.936" width="20.747" height="0.214" transform="translate(-54.547 46.04) rotate(-18.018)" fill="#963" opacity="0.59" style="isolation: isolate"/>
                </g>
                <g>
                  <path d="M107.834,190.5l17.558,14.336a.492.492,0,0,0,.692-.072.507.507,0,0,0,.092-.177l1.166-4.129a.493.493,0,0,0-.163-.515l-17.56-14.334a.491.491,0,0,0-.783.248l-1.165,4.128A.493.493,0,0,0,107.834,190.5Z" fill="#fc6"/>
                  <path d="M127.006,200.125s-4.049,1.229-1.279,4.335Z" fill="#963"/>
                  <rect x="117.705" y="182.293" width="0.214" height="21.388" transform="translate(-106.186 162.19) rotate(-50.769)" fill="#963" opacity="0.59" style="isolation: isolate"/>
                  <rect x="117.548" y="183.314" width="0.214" height="20.747" transform="translate(-106.786 162.326) rotate(-50.769)" fill="#963" opacity="0.59" style="isolation: isolate"/>
                </g>
                <g>
                  <path d="M138.336,191.167l-22.166,4.076a.489.489,0,0,1-.57-.392.481.481,0,0,1,0-.2l.965-4.155a.491.491,0,0,1,.389-.371l22.165-4.076a.49.49,0,0,1,.571.392.5.5,0,0,1,0,.2l-.965,4.155A.49.49,0,0,1,138.336,191.167Z" fill="#fc6"/>
                  <path d="M117.024,190.365s2.939,3.011-.964,4.39Z" fill="#963"/>
                  <rect x="117.818" y="188.446" width="21.266" height="0.212" transform="translate(-31.984 26.342) rotate(-10.42)" fill="#963" opacity="0.59" style="isolation: isolate"/>
                  <rect x="117.939" y="189.131" width="20.627" height="0.212" transform="translate(-32.111 26.317) rotate(-10.42)" fill="#963" opacity="0.59" style="isolation: isolate"/>
                </g>
                <g>
                  <path d="M141.727,193.885l-21.556,7.009a.492.492,0,0,1-.642-.515l.41-4.271a.49.49,0,0,1,.337-.421l21.556-7.01a.493.493,0,0,1,.643.515l-.41,4.272A.494.494,0,0,1,141.727,193.885Z" fill="#fc6"/>
                  <path d="M120.371,195.919s3.33,2.613-.376,4.5Z" fill="#963"/>
                  <rect x="120.831" y="192.486" width="21.388" height="0.214" transform="translate(-53.122 50.128) rotate(-18.018)" fill="#963" opacity="0.59" style="isolation: isolate"/>
                  <rect x="121.045" y="193.195" width="20.747" height="0.214" transform="translate(-53.347 50.129) rotate(-18.018)" fill="#963" opacity="0.59" style="isolation: isolate"/>
                </g>
                <g>
                  <path d="M121.33,188.759,138.888,203.1a.493.493,0,0,0,.784-.248l1.163-4.13a.49.49,0,0,0-.162-.514l-17.558-14.334a.491.491,0,0,0-.783.247l-1.165,4.128A.493.493,0,0,0,121.33,188.759Z" fill="#fc6"/>
                  <path d="M140.5,198.383s-4.049,1.229-1.279,4.335Z" fill="#963"/>
                  <rect x="131.202" y="180.551" width="0.214" height="21.388" transform="translate(-99.877 172.004) rotate(-50.769)" fill="#963" opacity="0.59" style="isolation: isolate"/>
                  <rect x="131.044" y="181.572" width="0.214" height="20.747" transform="matrix(0.632, -0.775, 0.775, 0.632, -100.477, 172.14)" fill="#963" opacity="0.59" style="isolation: isolate"/>
                </g>
                <g>
                  <path d="M125.905,194.078,140.5,211.253a.489.489,0,0,0,.812-.1l1.88-3.831a.488.488,0,0,0-.066-.532l-14.592-17.172a.488.488,0,0,0-.689-.057.5.5,0,0,0-.123.158l-1.88,3.831A.489.489,0,0,0,125.905,194.078Z" fill="#fc6"/>
                  <path d="M142.922,206.937s-4.179.473-2.03,4.009Z" fill="#963"/>
                  <rect x="135.109" y="187.671" width="0.212" height="21.266" transform="translate(-96.225 134.718) rotate(-40.349)" fill="#963" opacity="0.59" style="isolation: isolate"/>
                  <rect x="134.829" y="188.646" width="0.212" height="20.627" transform="translate(-96.716 134.693) rotate(-40.349)" fill="#963" opacity="0.59" style="isolation: isolate"/>
                </g>
                <g>
                  <path d="M121.559,194.038,133.822,213.1a.492.492,0,0,0,.681.147.5.5,0,0,0,.143-.14l2.384-3.567a.494.494,0,0,0,0-.54l-12.261-19.064a.493.493,0,0,0-.827-.007l-2.384,3.567A.494.494,0,0,0,121.559,194.038Z" fill="#fc6"/>
                  <path d="M136.814,209.12s-4.23-.084-2.556,3.727Z" fill="#963"/>
                  <rect x="130.171" y="188.796" width="0.214" height="21.388" transform="translate(-87.214 102.198) rotate(-32.752)" fill="#963" opacity="0.59" style="isolation: isolate"/>
                  <rect x="129.806" y="189.733" width="0.214" height="20.747" transform="matrix(0.841, -0.541, 0.541, 0.841, -87.603, 102.093)" fill="#963" opacity="0.59" style="isolation: isolate"/>
                </g>
                <g>
                  <path d="M140.6,202.968H117.933a.492.492,0,0,1-.451-.689l1.711-3.935a.494.494,0,0,1,.451-.3h22.668a.492.492,0,0,1,.451.689l-1.71,3.935A.492.492,0,0,1,140.6,202.968Z" fill="#fc6"/>
                  <path d="M119.664,198.3s2.358,3.513-1.752,4.167Z" fill="#963"/>
                  <rect x="120.605" y="198.476" width="21.388" height="0.214" fill="#963" opacity="0.59" style="isolation: isolate"/>
                  <rect x="120.605" y="199.118" width="20.747" height="0.214" fill="#963" opacity="0.59" style="isolation: isolate"/>
                </g>
                <g>
                  <path d="M138.236,204.4l-21.556,7.012a.492.492,0,0,1-.62-.316.483.483,0,0,1-.022-.2l.41-4.27a.491.491,0,0,1,.337-.422l21.556-7.009a.491.491,0,0,1,.642.515l-.409,4.271A.493.493,0,0,1,138.236,204.4Z" fill="#fc6"/>
                  <path d="M116.88,206.43s3.33,2.613-.377,4.5Z" fill="#963"/>
                  <rect x="117.339" y="202.996" width="21.388" height="0.214" transform="translate(-56.544 49.563) rotate(-18.018)" fill="#963" opacity="0.59" style="isolation: isolate"/>
                  <rect x="117.554" y="203.706" width="20.747" height="0.214" transform="translate(-56.769 49.565) rotate(-18.018)" fill="#963" opacity="0.59" style="isolation: isolate"/>
                </g>
                <g>
                  <path d="M189.718,194.215l22.165,4.076a.489.489,0,0,0,.57-.393.482.482,0,0,0,0-.2l-.965-4.155a.491.491,0,0,0-.389-.37L188.93,189.1a.49.49,0,0,0-.571.391.5.5,0,0,0,0,.2l.966,4.155A.49.49,0,0,0,189.718,194.215Z" fill="#fc6"/>
                  <path d="M211.031,193.413s-2.938,3.01.964,4.389Z" fill="#963"/>
                  <rect x="199.495" y="180.968" width="0.212" height="21.266" transform="translate(-24.94 353.257) rotate(-79.58)" fill="#963" opacity="0.59" style="isolation: isolate"/>
                  <rect x="199.694" y="181.972" width="0.212" height="20.627" transform="translate(-25.451 354.014) rotate(-79.58)" fill="#963" opacity="0.59" style="isolation: isolate"/>
                </g>
                <g>
                  <path d="M186.326,196.932l21.556,7.009a.492.492,0,0,0,.621-.315.5.5,0,0,0,.022-.2l-.411-4.27a.491.491,0,0,0-.337-.422l-21.556-7.009a.492.492,0,0,0-.62.316.48.48,0,0,0-.022.2l.41,4.271A.491.491,0,0,0,186.326,196.932Z" fill="#fc6"/>
                  <path d="M207.682,198.967s-3.33,2.612.377,4.5Z" fill="#963"/>
                  <rect x="196.421" y="184.946" width="0.214" height="21.388" transform="translate(-50.307 322.016) rotate(-71.982)" fill="#963" opacity="0.59" style="isolation: isolate"/>
                  <rect x="196.528" y="185.976" width="0.214" height="20.747" transform="translate(-50.907 322.607) rotate(-71.982)" fill="#963" opacity="0.59" style="isolation: isolate"/>
                </g>
                <g>
                  <path d="M206.724,191.807l-17.559,14.336a.492.492,0,0,1-.692-.073.485.485,0,0,1-.091-.176l-1.163-4.129a.492.492,0,0,1,.162-.515l17.557-14.334a.491.491,0,0,1,.692.073.48.48,0,0,1,.091.175l1.164,4.13A.5.5,0,0,1,206.724,191.807Z" fill="#fc6"/>
                  <path d="M187.552,201.431s4.049,1.229,1.278,4.335Z" fill="#963"/>
                  <rect x="186.051" y="194.186" width="21.388" height="0.214" transform="translate(-78.534 168.224) rotate(-39.231)" fill="#963" opacity="0.59" style="isolation: isolate"/>
                  <rect x="186.529" y="194.885" width="20.747" height="0.214" transform="translate(-78.941 168.481) rotate(-39.231)" fill="#963" opacity="0.59" style="isolation: isolate"/>
                </g>
                <g>
                  <path d="M176.221,192.473l22.166,4.076a.488.488,0,0,0,.57-.392.482.482,0,0,0,0-.2l-.965-4.155a.492.492,0,0,0-.389-.371l-22.165-4.076a.49.49,0,0,0-.571.392.5.5,0,0,0,0,.2l.965,4.155A.49.49,0,0,0,176.221,192.473Z" fill="#fc6"/>
                  <path d="M197.535,191.671s-2.938,3.011.964,4.39Z" fill="#963"/>
                  <rect x="185.999" y="179.226" width="0.212" height="21.266" transform="translate(-34.282 338.557) rotate(-79.58)" fill="#963" opacity="0.59" style="isolation: isolate"/>
                  <rect x="186.198" y="180.231" width="0.212" height="20.627" transform="matrix(0.181, -0.984, 0.984, 0.181, -34.793, 339.313)" fill="#963" opacity="0.59" style="isolation: isolate"/>
                </g>
                <g>
                  <path d="M172.83,195.191l21.556,7.009a.492.492,0,0,0,.62-.316.48.48,0,0,0,.022-.2l-.41-4.271a.49.49,0,0,0-.337-.421l-21.556-7.01a.493.493,0,0,0-.643.515l.411,4.272A.491.491,0,0,0,172.83,195.191Z" fill="#fc6"/>
                  <path d="M194.186,197.226s-3.33,2.612.377,4.5Z" fill="#963"/>
                  <rect x="182.925" y="183.205" width="0.214" height="21.388" transform="translate(-57.973 307.979) rotate(-71.982)" fill="#963" opacity="0.59" style="isolation: isolate"/>
                  <rect x="183.032" y="184.235" width="0.214" height="20.747" transform="translate(-58.573 308.57) rotate(-71.982)" fill="#963" opacity="0.59" style="isolation: isolate"/>
                </g>
                <g>
                  <path d="M193.228,190.065,175.669,204.4a.491.491,0,0,1-.783-.248l-1.164-4.13a.492.492,0,0,1,.163-.514l17.557-14.334a.491.491,0,0,1,.783.248l1.163,4.129A.492.492,0,0,1,193.228,190.065Z" fill="#fc6"/>
                  <path d="M174.056,199.689s4.049,1.229,1.278,4.336Z" fill="#963"/>
                  <rect x="172.555" y="192.444" width="21.388" height="0.214" transform="translate(-80.475 159.296) rotate(-39.231)" fill="#963" opacity="0.59" style="isolation: isolate"/>
                  <rect x="173.033" y="193.144" width="20.747" height="0.214" transform="translate(-80.882 159.553) rotate(-39.231)" fill="#963" opacity="0.59" style="isolation: isolate"/>
                </g>
                <g>
                  <path d="M188.652,195.384l-14.591,17.175a.49.49,0,0,1-.813-.1l-1.88-3.831a.488.488,0,0,1,.066-.532l14.592-17.172a.488.488,0,0,1,.689-.057.5.5,0,0,1,.123.158l1.88,3.831A.489.489,0,0,1,188.652,195.384Z" fill="#fc6"/>
                  <path d="M171.635,208.243s4.18.473,2.03,4.009Z" fill="#963"/>
                  <rect x="168.709" y="199.503" width="21.266" height="0.212" transform="translate(-88.897 207.053) rotate(-49.651)" fill="#963" opacity="0.59" style="isolation: isolate"/>
                  <rect x="169.308" y="200.16" width="20.627" height="0.212" transform="translate(-89.299 207.497) rotate(-49.651)" fill="#963" opacity="0.59" style="isolation: isolate"/>
                </g>
                <g>
                  <path d="M193,195.344l-12.263,19.064a.493.493,0,0,1-.681.148.519.519,0,0,1-.143-.141l-2.383-3.567a.492.492,0,0,1,0-.54l12.263-19.064a.492.492,0,0,1,.681-.147.5.5,0,0,1,.143.14l2.383,3.567A.492.492,0,0,1,193,195.344Z" fill="#fc6"/>
                  <path d="M177.743,210.426s4.23-.084,2.556,3.727Z" fill="#963"/>
                  <rect x="173.583" y="200.688" width="21.388" height="0.214" transform="translate(-84.289 247.15) rotate(-57.249)" fill="#963" opacity="0.59" style="isolation: isolate"/>
                  <rect x="174.271" y="201.308" width="20.746" height="0.214" transform="translate(-84.644 247.736) rotate(-57.248)" fill="#963" opacity="0.59" style="isolation: isolate"/>
                </g>
                <g>
                  <path d="M173.956,204.274h22.668a.492.492,0,0,0,.451-.689l-1.71-3.934a.5.5,0,0,0-.452-.3H172.245a.492.492,0,0,0-.451.689l1.711,3.935A.491.491,0,0,0,173.956,204.274Z" fill="#fc6"/>
                  <path d="M194.894,199.6s-2.359,3.512,1.751,4.166Z" fill="#963"/>
                  <rect x="172.564" y="199.782" width="21.388" height="0.214" fill="#963" opacity="0.59" style="isolation: isolate"/>
                  <rect x="173.206" y="200.424" width="20.747" height="0.214" fill="#963" opacity="0.59" style="isolation: isolate"/>
                </g>
                <g>
                  <path d="M176.32,205.7l21.555,7.009a.492.492,0,0,0,.621-.315.5.5,0,0,0,.022-.2l-.41-4.27a.493.493,0,0,0-.338-.422l-21.556-7.009a.492.492,0,0,0-.62.317.475.475,0,0,0-.022.2l.41,4.271A.491.491,0,0,0,176.32,205.7Z" fill="#fc6"/>
                  <path d="M197.677,207.736s-3.33,2.613.377,4.505Z" fill="#963"/>
                  <rect x="186.416" y="193.715" width="0.214" height="21.388" transform="translate(-65.556 318.558) rotate(-71.982)" fill="#963" opacity="0.59" style="isolation: isolate"/>
                  <rect x="186.523" y="194.745" width="0.214" height="20.747" transform="translate(-66.157 319.15) rotate(-71.982)" fill="#963" opacity="0.59" style="isolation: isolate"/>
                </g>
                <g>
                  <path d="M158.945,202.11l18,13.563a.49.49,0,0,0,.686-.1.505.505,0,0,0,.085-.18l1-4.148a.488.488,0,0,0-.181-.5l-18-13.564a.49.49,0,0,0-.686.1.48.48,0,0,0-.084.18l-1,4.147A.488.488,0,0,0,158.945,202.11Z" fill="#fc6"/>
                  <path d="M178.366,210.93s-3.975,1.377-1.1,4.356Z" fill="#963"/>
                  <rect x="168.848" y="193.562" width="0.212" height="21.266" transform="translate(-95.802 216.24) rotate(-53)" fill="#963" opacity="0.59" style="isolation: isolate"/>
                  <rect x="168.719" y="194.582" width="0.212" height="20.627" transform="translate(-96.414 216.416) rotate(-53)" fill="#963" opacity="0.59" style="isolation: isolate"/>
                </g>
                <g>
                  <path d="M154.7,203.025l16.14,15.915a.492.492,0,0,0,.8-.174l1.545-4a.493.493,0,0,0-.114-.528l-16.14-15.916a.492.492,0,0,0-.7.005.482.482,0,0,0-.109.169l-1.545,4A.5.5,0,0,0,154.7,203.025Z" fill="#fc6"/>
                  <path d="M172.884,214.4s-4.146.845-1.678,4.2Z" fill="#963"/>
                  <rect x="164.291" y="195.738" width="0.214" height="21.388" transform="translate(-98.021 178.55) rotate(-45.402)" fill="#963" opacity="0.59" style="isolation: isolate"/>
                  <rect x="164.069" y="196.741" width="0.214" height="20.747" transform="translate(-98.573 178.595) rotate(-45.402)" fill="#963" opacity="0.59" style="isolation: isolate"/>
                </g>
                <g>
                  <path d="M175.231,207.566l-22.116,4.964a.492.492,0,0,1-.588-.373.482.482,0,0,1,0-.2l.807-4.214a.494.494,0,0,1,.376-.388l22.116-4.963a.492.492,0,0,1,.588.373.5.5,0,0,1,0,.2l-.808,4.214A.493.493,0,0,1,175.231,207.566Z" fill="#fc6"/>
                  <path d="M153.779,207.6s3.071,2.911-.8,4.449Z" fill="#963"/>
                  <rect x="154.501" y="205.217" width="21.388" height="0.214" transform="translate(-40.958 41.164) rotate(-12.651)" fill="#963" opacity="0.59" style="isolation: isolate"/>
                  <rect x="154.649" y="205.913" width="20.747" height="0.214" transform="translate(-41.115 41.144) rotate(-12.651)" fill="#963" opacity="0.59" style="isolation: isolate"/>
                </g>
                <g>
                  <path d="M147.654,194.514l18,13.563a.49.49,0,0,0,.686-.1.5.5,0,0,0,.085-.181l1-4.148a.492.492,0,0,0-.181-.5l-18-13.563a.489.489,0,0,0-.685.1.5.5,0,0,0-.085.181l-1,4.147A.49.49,0,0,0,147.654,194.514Z" fill="#fc6"/>
                  <path d="M167.075,203.333s-3.975,1.378-1.1,4.357Z" fill="#963"/>
                  <rect x="157.558" y="185.966" width="0.212" height="21.266" transform="translate(-94.231 204.199) rotate(-53)" fill="#963" opacity="0.59" style="isolation: isolate"/>
                  <rect x="157.428" y="186.986" width="0.212" height="20.627" transform="translate(-94.843 204.375) rotate(-53)" fill="#963" opacity="0.59" style="isolation: isolate"/>
                </g>
                <g>
                  <path d="M143.407,195.427l16.14,15.915a.493.493,0,0,0,.7-.005.522.522,0,0,0,.109-.169l1.544-4a.493.493,0,0,0-.113-.528l-16.142-15.914a.492.492,0,0,0-.7,0,.511.511,0,0,0-.109.169l-1.544,4A.492.492,0,0,0,143.407,195.427Z" fill="#fc6"/>
                  <path d="M161.594,206.8s-4.147.845-1.679,4.2Z" fill="#963"/>
                  <rect x="153.001" y="188.142" width="0.214" height="21.388" transform="translate(-95.975 168.248) rotate(-45.402)" fill="#963" opacity="0.59" style="isolation: isolate"/>
                  <rect x="152.778" y="189.145" width="0.214" height="20.747" transform="translate(-96.527 168.293) rotate(-45.402)" fill="#963" opacity="0.59" style="isolation: isolate"/>
                </g>
                <g>
                  <path d="M163.941,199.97l-22.116,4.963a.492.492,0,0,1-.588-.372.5.5,0,0,1,0-.2l.808-4.214a.49.49,0,0,1,.375-.388l22.116-4.963a.494.494,0,0,1,.589.373.518.518,0,0,1,0,.2l-.808,4.214A.494.494,0,0,1,163.941,199.97Z" fill="#fc6"/>
                  <path d="M142.488,200s3.072,2.911-.8,4.449Z" fill="#963"/>
                  <rect x="143.21" y="197.621" width="21.388" height="0.214" transform="translate(-39.568 38.507) rotate(-12.651)" fill="#963" opacity="0.59" style="isolation: isolate"/>
                  <rect x="143.358" y="198.317" width="20.747" height="0.214" transform="translate(-39.725 38.486) rotate(-12.651)" fill="#963" opacity="0.59" style="isolation: isolate"/>
                </g>
                <g>
                  <path d="M157.469,202.679l-20.735,8.832a.49.49,0,0,1-.642-.26.5.5,0,0,1-.039-.195l.032-4.266a.489.489,0,0,1,.3-.447l20.734-8.831a.49.49,0,0,1,.642.258.473.473,0,0,1,.039.2l-.031,4.266A.492.492,0,0,1,157.469,202.679Z" fill="#fc6"/>
                  <path d="M136.5,206.564s3.526,2.294.021,4.494Z" fill="#963"/>
                  <rect x="136.619" y="202.186" width="21.266" height="0.212" transform="translate(-67.495 73.883) rotate(-23.071)" fill="#963" opacity="0.59" style="isolation: isolate"/>
                  <rect x="136.895" y="202.898" width="20.627" height="0.212" transform="translate(-67.778 73.923) rotate(-23.071)" fill="#963" opacity="0.59" style="isolation: isolate"/>
                </g>
                <g>
                  <path d="M161.373,204.588l-19.5,11.562a.494.494,0,0,1-.74-.362l-.535-4.257a.493.493,0,0,1,.237-.485l19.5-11.562a.492.492,0,0,1,.675.173.473.473,0,0,1,.065.189l.536,4.257A.493.493,0,0,1,161.373,204.588Z" fill="#fc6"/>
                  <path d="M140.982,211.25s3.82,1.818.618,4.478Z" fill="#963"/>
                  <rect x="140.433" y="205.454" width="21.385" height="0.214" transform="matrix(0.86, -0.51, 0.51, 0.86, -83.714, 105.838)" fill="#963" opacity="0.59" style="isolation: isolate"/>
                  <rect x="140.813" y="206.169" width="20.747" height="0.214" transform="translate(-84.07 105.969) rotate(-30.669)" fill="#963" opacity="0.59" style="isolation: isolate"/>
                </g>
                <g>
                  <path d="M140.348,204.054,160.62,214.2a.493.493,0,0,0,.661-.221.481.481,0,0,0,.051-.193l.23-4.285a.488.488,0,0,0-.271-.466L141.02,198.889a.493.493,0,0,0-.661.22.482.482,0,0,0-.051.194l-.231,4.284A.494.494,0,0,0,140.348,204.054Z" fill="#fc6"/>
                  <path d="M161.163,209.245s-3.682,2.086-.3,4.511Z" fill="#963"/>
                  <rect x="150.523" y="193.6" width="0.214" height="21.388" transform="translate(-99.472 247.593) rotate(-63.42)" fill="#963" opacity="0.59" style="isolation: isolate"/>
                  <rect x="150.522" y="194.639" width="0.214" height="20.747" transform="translate(-100.114 247.989) rotate(-63.42)" fill="#963" opacity="0.59" style="isolation: isolate"/>
                </g>
                <g>
                  <path d="M141.825,206.388l16.14,15.916a.492.492,0,0,0,.805-.174l1.545-4a.493.493,0,0,0-.114-.528L144.06,201.685a.491.491,0,0,0-.805.174l-1.545,4A.491.491,0,0,0,141.825,206.388Z" fill="#fc6"/>
                  <path d="M160.013,217.764s-4.146.845-1.678,4.2Z" fill="#963"/>
                  <rect x="151.42" y="199.104" width="0.214" height="21.388" transform="translate(-104.251 170.388) rotate(-45.402)" fill="#963" opacity="0.59" style="isolation: isolate"/>
                  <rect x="151.198" y="200.107" width="0.214" height="20.747" transform="translate(-104.803 170.433) rotate(-45.402)" fill="#963" opacity="0.59" style="isolation: isolate"/>
                </g>
                <g>
                  <path d="M142.837,186l18,13.563a.49.49,0,0,0,.686-.1.475.475,0,0,0,.084-.179l1-4.148a.487.487,0,0,0-.181-.5l-18-13.564a.491.491,0,0,0-.771.276l-1,4.148A.488.488,0,0,0,142.837,186Z" fill="#fc6"/>
                  <path d="M162.258,194.822s-3.975,1.377-1.1,4.356Z" fill="#963"/>
                  <rect x="152.74" y="177.453" width="0.212" height="21.266" transform="matrix(0.602, -0.799, 0.799, 0.602, -89.351, 196.961)" fill="#963" opacity="0.59" style="isolation: isolate"/>
                  <rect x="152.611" y="178.474" width="0.212" height="20.627" transform="translate(-89.963 197.138) rotate(-53)" fill="#963" opacity="0.59" style="isolation: isolate"/>
                </g>
                <g>
                  <path d="M138.588,186.916l16.14,15.916a.493.493,0,0,0,.7-.006.478.478,0,0,0,.109-.168l1.545-4a.493.493,0,0,0-.114-.528l-16.14-15.917a.492.492,0,0,0-.805.175l-1.545,4A.492.492,0,0,0,138.588,186.916Z" fill="#fc6"/>
                  <path d="M156.776,198.29s-4.146.845-1.679,4.2Z" fill="#963"/>
                  <rect x="148.183" y="179.63" width="0.214" height="21.388" transform="translate(-91.349 162.282) rotate(-45.402)" fill="#963" opacity="0.59" style="isolation: isolate"/>
                  <rect x="147.961" y="180.633" width="0.214" height="20.747" transform="translate(-91.901 162.327) rotate(-45.402)" fill="#963" opacity="0.59" style="isolation: isolate"/>
                </g>
                <g>
                  <path d="M159.123,191.458l-22.116,4.964a.494.494,0,0,1-.589-.373.518.518,0,0,1,0-.2l.808-4.214a.492.492,0,0,1,.376-.388l22.116-4.963a.492.492,0,0,1,.588.372.486.486,0,0,1,0,.2l-.807,4.214A.494.494,0,0,1,159.123,191.458Z" fill="#fc6"/>
                  <path d="M137.671,191.488s3.071,2.91-.8,4.449Z" fill="#963"/>
                  <rect x="138.393" y="189.109" width="21.388" height="0.214" transform="translate(-37.821 37.246) rotate(-12.651)" fill="#963" opacity="0.59" style="isolation: isolate"/>
                  <rect x="138.541" y="189.805" width="20.747" height="0.214" transform="translate(-37.978 37.225) rotate(-12.651)" fill="#963" opacity="0.59" style="isolation: isolate"/>
                </g>
                <g>
                  <path d="M131.546,178.405l18,13.564a.491.491,0,0,0,.686-.1.5.5,0,0,0,.085-.181l1-4.148a.49.49,0,0,0-.182-.505l-18-13.564a.489.489,0,0,0-.685.1.505.505,0,0,0-.085.18l-1,4.148A.489.489,0,0,0,131.546,178.405Z" fill="#fc6"/>
                  <path d="M150.966,187.225s-3.975,1.378-1.1,4.357Z" fill="#963"/>
                  <rect x="141.45" y="169.857" width="0.212" height="21.266" transform="translate(-87.78 184.92) rotate(-53)" fill="#963" opacity="0.59" style="isolation: isolate"/>
                  <rect x="141.32" y="170.878" width="0.212" height="20.627" transform="translate(-88.392 185.096) rotate(-53)" fill="#963" opacity="0.59" style="isolation: isolate"/>
                </g>
                <g>
                  <path d="M127.3,179.318l16.14,15.916a.492.492,0,0,0,.805-.174l1.545-4a.491.491,0,0,0-.114-.528l-16.141-15.915a.493.493,0,0,0-.7.006.478.478,0,0,0-.109.168l-1.544,4.006A.492.492,0,0,0,127.3,179.318Z" fill="#fc6"/>
                  <path d="M145.486,190.694s-4.147.844-1.679,4.2Z" fill="#963"/>
                  <rect x="136.892" y="172.033" width="0.214" height="21.388" transform="translate(-89.303 151.98) rotate(-45.402)" fill="#963" opacity="0.59" style="isolation: isolate"/>
                  <rect x="136.67" y="173.037" width="0.214" height="20.747" transform="translate(-89.855 152.025) rotate(-45.402)" fill="#963" opacity="0.59" style="isolation: isolate"/>
                </g>
                <g>
                  <path d="M147.833,183.861l-22.117,4.963a.491.491,0,0,1-.588-.371.486.486,0,0,1,0-.2l.806-4.213a.493.493,0,0,1,.376-.388l22.116-4.963a.492.492,0,0,1,.588.373.5.5,0,0,1,0,.2l-.808,4.214A.492.492,0,0,1,147.833,183.861Z" fill="#fc6"/>
                  <path d="M126.38,183.89s3.071,2.91-.8,4.449Z" fill="#963"/>
                  <rect x="127.102" y="181.513" width="21.388" height="0.214" transform="translate(-36.432 34.588) rotate(-12.651)" fill="#963" opacity="0.59" style="isolation: isolate"/>
                  <rect x="127.25" y="182.21" width="20.747" height="0.214" transform="translate(-36.588 34.567) rotate(-12.651)" fill="#963" opacity="0.59" style="isolation: isolate"/>
                </g>
                <g>
                  <path d="M141.36,186.571,120.626,195.4a.49.49,0,0,1-.681-.454l.032-4.266a.489.489,0,0,1,.3-.447l20.735-8.832a.49.49,0,0,1,.681.454l-.032,4.267A.489.489,0,0,1,141.36,186.571Z" fill="#fc6"/>
                  <path d="M120.389,190.456s3.526,2.294.021,4.494Z" fill="#963"/>
                  <rect x="120.511" y="186.078" width="21.266" height="0.212" transform="translate(-62.471 66.282) rotate(-23.071)" fill="#963" opacity="0.59" style="isolation: isolate"/>
                  <rect x="120.786" y="186.79" width="20.627" height="0.212" transform="translate(-62.754 66.322) rotate(-23.071)" fill="#963" opacity="0.59" style="isolation: isolate"/>
                </g>
                <g>
                  <path d="M145.265,188.48l-19.5,11.561a.491.491,0,0,1-.74-.361l-.535-4.257a.49.49,0,0,1,.237-.485l19.5-11.562a.492.492,0,0,1,.74.362L145.5,188A.491.491,0,0,1,145.265,188.48Z" fill="#fc6"/>
                  <path d="M124.873,195.142s3.821,1.818.619,4.478Z" fill="#963"/>
                  <rect x="124.328" y="189.347" width="21.385" height="0.214" transform="matrix(0.86, -0.51, 0.51, 0.86, -77.75, 95.37)" fill="#963" opacity="0.59" style="isolation: isolate"/>
                  <rect x="124.705" y="190.061" width="20.747" height="0.214" transform="translate(-78.107 95.5) rotate(-30.669)" fill="#963" opacity="0.59" style="isolation: isolate"/>
                </g>
                <g>
                  <path d="M124.24,187.945l20.272,10.144a.493.493,0,0,0,.661-.22.5.5,0,0,0,.051-.194l.23-4.284a.492.492,0,0,0-.271-.467L124.911,182.78a.492.492,0,0,0-.66.221.481.481,0,0,0-.051.193l-.231,4.285A.491.491,0,0,0,124.24,187.945Z" fill="#fc6"/>
                  <path d="M145.055,193.137s-3.682,2.086-.3,4.51Z" fill="#963"/>
                  <rect x="134.414" y="177.492" width="0.214" height="21.388" transform="translate(-93.967 224.287) rotate(-63.42)" fill="#963" opacity="0.59" style="isolation: isolate"/>
                  <rect x="134.414" y="178.531" width="0.214" height="20.747" transform="translate(-94.609 224.683) rotate(-63.42)" fill="#963" opacity="0.59" style="isolation: isolate"/>
                </g>
                <g>
                  <path d="M125.717,190.28l16.14,15.916a.492.492,0,0,0,.805-.174l1.544-4.006a.491.491,0,0,0-.113-.527l-16.142-15.913a.492.492,0,0,0-.7.006.507.507,0,0,0-.109.168l-1.544,4A.491.491,0,0,0,125.717,190.28Z" fill="#fc6"/>
                  <path d="M143.905,201.655s-4.146.845-1.679,4.2Z" fill="#963"/>
                  <rect x="135.312" y="182.995" width="0.214" height="21.388" transform="translate(-97.579 154.119) rotate(-45.402)" fill="#963" opacity="0.59" style="isolation: isolate"/>
                  <rect x="135.09" y="183.998" width="0.214" height="20.747" transform="translate(-98.131 154.164) rotate(-45.402)" fill="#963" opacity="0.59" style="isolation: isolate"/>
                </g>
                <g>
                  <path d="M172.006,183.825l18,13.563a.488.488,0,0,0,.77-.276l1-4.148a.487.487,0,0,0-.181-.5l-18-13.564a.49.49,0,0,0-.686.1.5.5,0,0,0-.085.18l-1,4.147A.488.488,0,0,0,172.006,183.825Z" fill="#fc6"/>
                  <path d="M191.427,192.645s-3.975,1.377-1.1,4.356Z" fill="#963"/>
                  <rect x="181.909" y="175.277" width="0.212" height="21.266" transform="translate(-75.998 219.39) rotate(-53)" fill="#963" opacity="0.59" style="isolation: isolate"/>
                  <rect x="181.78" y="176.298" width="0.212" height="20.627" transform="translate(-76.61 219.566) rotate(-53)" fill="#963" opacity="0.59" style="isolation: isolate"/>
                </g>
                <g>
                  <path d="M167.757,184.739l16.14,15.916a.492.492,0,0,0,.805-.174l1.545-4a.493.493,0,0,0-.114-.528l-16.14-15.916a.491.491,0,0,0-.805.174l-1.545,4A.491.491,0,0,0,167.757,184.739Z" fill="#fc6"/>
                  <path d="M185.945,196.113s-4.146.845-1.679,4.2Z" fill="#963"/>
                  <rect x="177.352" y="177.453" width="0.214" height="21.388" transform="translate(-81.11 182.403) rotate(-45.402)" fill="#963" opacity="0.59" style="isolation: isolate"/>
                  <rect x="177.13" y="178.456" width="0.214" height="20.747" transform="translate(-81.662 182.448) rotate(-45.402)" fill="#963" opacity="0.59" style="isolation: isolate"/>
                </g>
                <g>
                  <path d="M188.292,189.281l-22.116,4.964a.493.493,0,0,1-.589-.373.518.518,0,0,1,0-.2l.808-4.214a.492.492,0,0,1,.376-.388l22.116-4.963a.492.492,0,0,1,.588.373.482.482,0,0,1,0,.2l-.807,4.214A.494.494,0,0,1,188.292,189.281Z" fill="#fc6"/>
                  <path d="M166.84,189.311s3.071,2.911-.8,4.449Z" fill="#963"/>
                  <rect x="167.562" y="186.932" width="21.388" height="0.214" transform="translate(-36.636 43.581) rotate(-12.651)" fill="#963" opacity="0.59" style="isolation: isolate"/>
                  <rect x="167.71" y="187.629" width="20.747" height="0.214" transform="translate(-36.793 43.56) rotate(-12.651)" fill="#963" opacity="0.59" style="isolation: isolate"/>
                </g>
                <g>
                  <path d="M160.715,176.229l18,13.563a.49.49,0,0,0,.686-.1.5.5,0,0,0,.085-.181l1-4.148a.491.491,0,0,0-.182-.5l-18-13.563a.488.488,0,0,0-.685.1.5.5,0,0,0-.085.181l-1,4.147A.49.49,0,0,0,160.715,176.229Z" fill="#fc6"/>
                  <path d="M180.135,185.048s-3.975,1.378-1.1,4.357Z" fill="#963"/>
                  <rect x="170.618" y="167.681" width="0.212" height="21.266" transform="translate(-74.428 207.349) rotate(-53)" fill="#963" opacity="0.59" style="isolation: isolate"/>
                  <rect x="170.489" y="168.701" width="0.212" height="20.627" transform="translate(-75.039 207.525) rotate(-53)" fill="#963" opacity="0.59" style="isolation: isolate"/>
                </g>
                <g>
                  <path d="M156.467,177.142l16.14,15.915a.494.494,0,0,0,.7,0,.5.5,0,0,0,.108-.169l1.545-4a.491.491,0,0,0-.114-.528L158.7,172.438a.492.492,0,0,0-.7.005.482.482,0,0,0-.109.169l-1.544,4A.494.494,0,0,0,156.467,177.142Z" fill="#fc6"/>
                  <path d="M174.655,188.517s-4.147.845-1.679,4.2Z" fill="#963"/>
                  <rect x="166.061" y="169.857" width="0.214" height="21.388" transform="translate(-79.065 172.101) rotate(-45.402)" fill="#963" opacity="0.59" style="isolation: isolate"/>
                  <rect x="165.839" y="170.86" width="0.214" height="20.747" transform="translate(-79.616 172.146) rotate(-45.402)" fill="#963" opacity="0.59" style="isolation: isolate"/>
                </g>
                <g>
                  <path d="M177,181.685l-22.117,4.963a.493.493,0,0,1-.588-.372.486.486,0,0,1,0-.2l.807-4.214a.493.493,0,0,1,.376-.388l22.116-4.963a.492.492,0,0,1,.588.373.482.482,0,0,1,0,.2l-.807,4.214A.5.5,0,0,1,177,181.685Z" fill="#fc6"/>
                  <path d="M155.549,181.713s3.071,2.911-.8,4.449Z" fill="#963"/>
                  <rect x="156.271" y="179.336" width="21.388" height="0.214" transform="translate(-35.247 40.924) rotate(-12.651)" fill="#963" opacity="0.59" style="isolation: isolate"/>
                  <rect x="156.419" y="180.032" width="20.747" height="0.214" transform="translate(-35.403 40.903) rotate(-12.651)" fill="#963" opacity="0.59" style="isolation: isolate"/>
                </g>
                <g>
                  <path d="M170.53,184.394l-20.735,8.831a.489.489,0,0,1-.642-.259.482.482,0,0,1-.039-.2l.032-4.266a.49.49,0,0,1,.3-.447l20.735-8.831a.489.489,0,0,1,.681.454l-.032,4.266A.49.49,0,0,1,170.53,184.394Z" fill="#fc6"/>
                  <path d="M149.558,188.279s3.526,2.294.021,4.494Z" fill="#963"/>
                  <rect x="149.68" y="183.901" width="21.266" height="0.212" transform="translate(-59.285 77.539) rotate(-23.071)" fill="#963" opacity="0.59" style="isolation: isolate"/>
                  <rect x="149.955" y="184.613" width="20.627" height="0.212" transform="translate(-59.568 77.579) rotate(-23.071)" fill="#963" opacity="0.59" style="isolation: isolate"/>
                </g>
                <g>
                  <path d="M174.434,186.3l-19.5,11.562a.492.492,0,0,1-.74-.362l-.535-4.257a.49.49,0,0,1,.237-.485L173.4,181.2a.493.493,0,0,1,.74.362l.536,4.257A.493.493,0,0,1,174.434,186.3Z" fill="#fc6"/>
                  <path d="M154.042,192.965s3.821,1.818.619,4.478Z" fill="#963"/>
                  <rect x="153.493" y="187.172" width="21.385" height="0.214" transform="matrix(0.86, -0.51, 0.51, 0.86, -72.562, 109.942)" fill="#963" opacity="0.59" style="isolation: isolate"/>
                  <rect x="153.874" y="187.884" width="20.747" height="0.214" transform="translate(-72.917 110.074) rotate(-30.669)" fill="#963" opacity="0.59" style="isolation: isolate"/>
                </g>
                <g>
                  <path d="M153.409,185.769l20.272,10.144a.493.493,0,0,0,.712-.414l.23-4.285a.492.492,0,0,0-.271-.467L154.08,180.6a.491.491,0,0,0-.66.22.482.482,0,0,0-.051.194l-.231,4.284A.492.492,0,0,0,153.409,185.769Z" fill="#fc6"/>
                  <path d="M174.224,190.96s-3.682,2.086-.3,4.511Z" fill="#963"/>
                  <rect x="163.583" y="175.316" width="0.214" height="21.388" transform="translate(-75.903 249.17) rotate(-63.42)" fill="#963" opacity="0.59" style="isolation: isolate"/>
                  <rect x="163.583" y="176.354" width="0.214" height="20.747" transform="translate(-76.544 249.566) rotate(-63.42)" fill="#963" opacity="0.59" style="isolation: isolate"/>
                </g>
                <g>
                  <path d="M154.886,188.1l16.14,15.916a.492.492,0,0,0,.8-.174l1.544-4.006a.491.491,0,0,0-.113-.527L157.12,183.4a.493.493,0,0,0-.7.006.511.511,0,0,0-.109.169l-1.544,4A.491.491,0,0,0,154.886,188.1Z" fill="#fc6"/>
                  <path d="M173.074,199.479s-4.146.845-1.679,4.2Z" fill="#963"/>
                  <rect x="164.481" y="180.819" width="0.214" height="21.388" transform="translate(-87.341 174.241) rotate(-45.402)" fill="#963" opacity="0.59" style="isolation: isolate"/>
                  <rect x="164.259" y="181.822" width="0.214" height="20.747" transform="translate(-87.893 174.286) rotate(-45.402)" fill="#963" opacity="0.59" style="isolation: isolate"/>
                </g>
              </g>
              <path d="M117.72,179.863S96,190.625,121.387,195.478c0,0,2.892,10.137,18.407,3.157,0,0,16.053,11.056,25.266-1.968a17.474,17.474,0,0,0,14.576,6.018s15-.822,12.586-7.382c0,0,9.827-2.3,4.228-7.451,0,0-4.176-6.715-11.026-4.506,0,0-9-8.591-25.509-5.137a27.448,27.448,0,0,0-22.552-1.215S124.9,171.531,117.72,179.863Z" fill="#600"/>
              <path d="M117.717,178.3s-21.737,11.121,3.65,16.1c0,0,2.883,10.451,18.4,3.238,0,0,16.043,11.388,25.269-2.053a17.249,17.249,0,0,0,14.571,6.193s15.006-.861,12.593-7.624c0,0,9.829-2.383,4.235-7.689,0,0-4.17-6.922-11.023-4.637,0,0-9-8.853-25.5-5.276a26.7,26.7,0,0,0-22.549-1.231S124.9,169.7,117.717,178.3Z" fill="#c30"/>
              <ellipse cx="130.912" cy="182.123" rx="7.401" ry="4.789" fill="#300" opacity="0.52" style="isolation: isolate"/>
              <ellipse cx="152.244" cy="192.571" rx="7.401" ry="4.789" fill="#300" opacity="0.52" style="isolation: isolate"/>
              <ellipse cx="172.271" cy="181.687" rx="7.401" ry="4.789" fill="#300" opacity="0.52" style="isolation: isolate"/>
              <ellipse cx="130.912" cy="179.075" rx="7.401" ry="6.966" fill="#630"/>
              <ellipse cx="152.244" cy="189.306" rx="6.966" ry="7.183" fill="#630"/>
              <ellipse cx="172.271" cy="178.857" rx="6.748" ry="7.401" transform="translate(-51.101 287.356) rotate(-71.982)" fill="#630"/>
              <ellipse cx="130.912" cy="178.857" rx="6.095" ry="6.286" fill="#960" opacity="0.31" style="isolation: isolate"/>
              <ellipse cx="133.83" cy="175.113" rx="1.262" ry="2.306" transform="translate(-86.562 176.609) rotate(-53)" fill="#c96"/>
              <ellipse cx="172.271" cy="178.857" rx="6.095" ry="6.286" fill="#960" opacity="0.31" style="isolation: isolate"/>
              <ellipse cx="152.244" cy="189.306" rx="6.095" ry="6.286" fill="#960" opacity="0.31" style="isolation: isolate"/>
              <ellipse cx="154.292" cy="184.69" rx="1.262" ry="2.306" transform="translate(-86.064 196.764) rotate(-53)" fill="#c96"/>
              <ellipse cx="175.624" cy="175.112" rx="1.262" ry="2.306" transform="translate(-69.92 209.987) rotate(-53)" fill="#c96"/>
              <ellipse cx="177.101" cy="178.509" rx="0.738" ry="1.698" transform="translate(-72.045 212.518) rotate(-53)" fill="#300" opacity="0.52" style="isolation: isolate"/>
              <ellipse cx="156.639" cy="188.087" rx="0.738" ry="1.698" transform="translate(-87.842 199.991) rotate(-53)" fill="#300" opacity="0.52" style="isolation: isolate"/>
              <ellipse cx="135.742" cy="178.509" rx="0.738" ry="1.698" transform="translate(-88.513 179.488) rotate(-53)" fill="#300" opacity="0.52" style="isolation: isolate"/>
              <ellipse cx="115.239" cy="183.429" rx="2.612" ry="0.435" fill="#fff" opacity="0.37" style="isolation: isolate"/>
              <circle cx="138.531" cy="186.258" r="0.653" fill="#fff" opacity="0.37" style="isolation: isolate"/>
              <ellipse cx="143.537" cy="194.095" rx="0.871" ry="1.088" fill="#fff" opacity="0.37" style="isolation: isolate"/>
              <ellipse cx="144.843" cy="195.836" rx="0.435" ry="0.218" fill="#fff" opacity="0.37" style="isolation: isolate"/>
              <ellipse cx="165.305" cy="185.605" rx="1.306" ry="0.871" fill="#fff" opacity="0.37" style="isolation: isolate"/>
              <ellipse cx="168.353" cy="187.129" rx="1.306" ry="0.653" fill="#fff" opacity="0.37" style="isolation: isolate"/>
              <ellipse cx="182.72" cy="182.776" rx="1.306" ry="0.653" fill="#fff" opacity="0.37" style="isolation: isolate"/>
              <ellipse cx="125.252" cy="187.347" rx="1.306" ry="0.435" fill="#fff"/>
              <ellipse cx="127.211" cy="188.653" rx="1.524" ry="0.435" fill="#fff"/>
            </g>
          </g>
        </g>
        <g>
          <rect x="13.242" y="233.65" width="87" height="48.516" rx="8.468" fill="#fff"/>
          <path d="M91.774,283.166H21.71a9.479,9.479,0,0,1-9.468-9.468V242.119a9.48,9.48,0,0,1,9.468-9.469H91.774a9.479,9.479,0,0,1,9.468,9.469V273.7A9.478,9.478,0,0,1,91.774,283.166ZM21.71,234.65a7.477,7.477,0,0,0-7.468,7.469V273.7a7.476,7.476,0,0,0,7.468,7.468H91.774a7.476,7.476,0,0,0,7.468-7.468V242.119a7.477,7.477,0,0,0-7.468-7.469Z"/>
        </g>
        <g>
          <rect x="211.242" y="233.65" width="87" height="48.516" rx="8.468" fill="#fff"/>
          <path d="M289.774,283.166H219.71a9.479,9.479,0,0,1-9.468-9.468V242.119a9.48,9.48,0,0,1,9.468-9.469h70.064a9.479,9.479,0,0,1,9.468,9.469V273.7A9.478,9.478,0,0,1,289.774,283.166ZM219.71,234.65a7.477,7.477,0,0,0-7.468,7.469V273.7a7.476,7.476,0,0,0,7.468,7.468h70.064a7.476,7.476,0,0,0,7.468-7.468V242.119a7.477,7.477,0,0,0-7.468-7.469Z"/>
        </g>
        <g>
          <path d="M234.2,260.969a1,1,0,0,1-.176.278,5.214,5.214,0,0,1-1.958,1.5,5.829,5.829,0,0,1-2.4.521,5.67,5.67,0,0,1-4.084-1.7,5.848,5.848,0,0,1-1.664-4.117,5.733,5.733,0,0,1,.445-2.261,5.907,5.907,0,0,1,1.219-1.841,5.675,5.675,0,0,1,4.084-1.7,6.886,6.886,0,0,1,1.017.076,5.506,5.506,0,0,1,1,.243,4.681,4.681,0,0,1,.924.438,3.9,3.9,0,0,1,.79.639,1.107,1.107,0,0,1,.353.806.937.937,0,0,1-.311.723,1.039,1.039,0,0,1-1.294.109c-.185-.118-.389-.249-.614-.4a4.395,4.395,0,0,0-.789-.395,2.959,2.959,0,0,0-1.076-.176,3.431,3.431,0,0,0-1.437.294,3.235,3.235,0,0,0-1.1.806,3.743,3.743,0,0,0-.707,1.193,4.226,4.226,0,0,0,0,2.875,3.732,3.732,0,0,0,.707,1.193,3.321,3.321,0,0,0,2.537,1.117,2.918,2.918,0,0,0,1.311-.26,4.212,4.212,0,0,0,.882-.572q.361-.31.656-.571a.931.931,0,0,1,.63-.26,1.056,1.056,0,0,1,.774.344,1.078,1.078,0,0,1,.336.765A.833.833,0,0,1,234.2,260.969Z" fill="#34383d"/>
          <path d="M245.12,253.65a1.032,1.032,0,0,1-.748.3H241.3v8.1a1.12,1.12,0,0,1-1.126,1.127,1.059,1.059,0,0,1-.79-.328,1.1,1.1,0,0,1-.319-.8v-8.1h-3.093a1.035,1.035,0,0,1-1.042-1.042,1.033,1.033,0,0,1,.3-.748.993.993,0,0,1,.739-.311h8.4a1.062,1.062,0,0,1,1.059,1.059A.986.986,0,0,1,245.12,253.65Z" fill="#34383d"/>
          <path d="M256.02,256.978a2.786,2.786,0,0,1-1.379,1.16q.086.168.253.479t.37.714q.2.4.411.832t.387.815c.118.258.216.487.294.689a1.431,1.431,0,0,1,.118.437,1.035,1.035,0,0,1-.32.757,1.086,1.086,0,0,1-1.336.159,1.012,1.012,0,0,1-.4-.445q-.051-.084-.21-.412c-.106-.219-.232-.476-.378-.773s-.3-.61-.47-.941-.32-.636-.454-.916-.25-.515-.345-.706a3.34,3.34,0,0,1-.143-.3h-3.075v3.546a1.05,1.05,0,0,1-.336.79,1.116,1.116,0,0,1-.79.319,1.091,1.091,0,0,1-1.11-1.109v-9.11a1.091,1.091,0,0,1,1.11-1.109h4.168a6.8,6.8,0,0,1,1.571.177,3.583,3.583,0,0,1,1.3.579,2.926,2.926,0,0,1,.882,1.042,3.761,3.761,0,0,1-.126,3.328Zm-2.227-2.714a1.717,1.717,0,0,0-1.084-.345h-3.361v2.69h3.361a1.784,1.784,0,0,0,1.075-.329,1.148,1.148,0,0,0,.454-1A1.2,1.2,0,0,0,253.793,254.264Z" fill="#34383d"/>
          <path d="M267.39,262.734a1.017,1.017,0,0,1-.748.311h-6.185a1.118,1.118,0,0,1-1.126-1.126v-9.093a1.126,1.126,0,1,1,2.252,0v8.118h5.059a1.033,1.033,0,0,1,.748.3.99.99,0,0,1,.311.739A1.016,1.016,0,0,1,267.39,262.734Z" fill="#34383d"/>
          <path d="M276.037,259.97a.777.777,0,0,1-.571.235h-2.085v2.084a.891.891,0,1,1-1.781,0v-2.084h-2.084a.807.807,0,1,1,0-1.613H271.6v-2.085a.891.891,0,1,1,1.781,0v2.085h2.085a.808.808,0,0,1,.571,1.378Z" fill="#34383d"/>
          <path d="M287.415,253.18l-4.067,9.395a.91.91,0,0,1-.378.445,1.056,1.056,0,0,1-.563.16,1.037,1.037,0,0,1-.571-.16,1.026,1.026,0,0,1-.387-.445l-4.084-9.395a1.151,1.151,0,0,1-.084-.421,1.046,1.046,0,0,1,.3-.739.963.963,0,0,1,.723-.32,1.109,1.109,0,0,1,.572.16.913.913,0,0,1,.386.446l3.126,7.512,3.143-7.512a1.034,1.034,0,0,1,.387-.446,1.038,1.038,0,0,1,1.6.883A.965.965,0,0,1,287.415,253.18Z" fill="#34383d"/>
        </g>
        <g>
          <path d="M33.579,260.969a1.027,1.027,0,0,1-.176.278,5.217,5.217,0,0,1-1.959,1.5,5.825,5.825,0,0,1-2.394.521,5.67,5.67,0,0,1-4.084-1.7,5.854,5.854,0,0,1-1.665-4.117,5.733,5.733,0,0,1,.446-2.261,5.907,5.907,0,0,1,1.219-1.841,5.675,5.675,0,0,1,4.084-1.7,6.886,6.886,0,0,1,1.017.076,5.5,5.5,0,0,1,1,.243,4.655,4.655,0,0,1,.924.438,3.869,3.869,0,0,1,.79.639,1.1,1.1,0,0,1,.354.806.938.938,0,0,1-.312.723,1.038,1.038,0,0,1-1.293.109c-.185-.118-.39-.249-.614-.4a4.372,4.372,0,0,0-.79-.395,2.957,2.957,0,0,0-1.075-.176,3.436,3.436,0,0,0-1.438.294,3.244,3.244,0,0,0-1.1.806,3.74,3.74,0,0,0-.706,1.193,4.226,4.226,0,0,0,0,2.875,3.73,3.73,0,0,0,.706,1.193A3.321,3.321,0,0,0,29.05,261.2a2.921,2.921,0,0,0,1.311-.26,4.265,4.265,0,0,0,.882-.572q.362-.31.655-.571a.933.933,0,0,1,.63-.26,1.055,1.055,0,0,1,.774.344,1.078,1.078,0,0,1,.336.765A.852.852,0,0,1,33.579,260.969Z" fill="#34383d"/>
          <path d="M44.5,253.65a1.033,1.033,0,0,1-.748.3H40.679v8.1a1.118,1.118,0,0,1-1.126,1.127,1.061,1.061,0,0,1-.79-.328,1.1,1.1,0,0,1-.319-.8v-8.1H35.352a1.033,1.033,0,0,1-1.042-1.042,1.033,1.033,0,0,1,.3-.748.994.994,0,0,1,.74-.311h8.4a1.062,1.062,0,0,1,1.059,1.059A.99.99,0,0,1,44.5,253.65Z" fill="#34383d"/>
          <path d="M55.4,256.978a2.791,2.791,0,0,1-1.379,1.16q.084.168.252.479c.112.207.236.445.37.714s.271.546.412.832.269.557.387.815.215.487.294.689a1.451,1.451,0,0,1,.117.437,1.037,1.037,0,0,1-.319.757,1.086,1.086,0,0,1-1.336.159,1.014,1.014,0,0,1-.4-.445q-.05-.084-.209-.412l-.379-.773q-.217-.445-.47-.941t-.454-.916c-.135-.28-.249-.515-.344-.706a3.027,3.027,0,0,1-.143-.3H48.73v3.546a1.046,1.046,0,0,1-.336.79,1.114,1.114,0,0,1-.79.319,1.09,1.09,0,0,1-1.109-1.109v-9.11a1.09,1.09,0,0,1,1.109-1.109h4.168a6.811,6.811,0,0,1,1.572.177,3.578,3.578,0,0,1,1.3.579,2.906,2.906,0,0,1,.882,1.042,3.765,3.765,0,0,1-.125,3.328Zm-2.228-2.714a1.717,1.717,0,0,0-1.084-.345H48.73v2.69h3.361a1.787,1.787,0,0,0,1.076-.329,1.151,1.151,0,0,0,.454-1A1.205,1.205,0,0,0,53.175,254.264Z" fill="#34383d"/>
          <path d="M66.772,262.734a1.013,1.013,0,0,1-.747.311H59.84a1.117,1.117,0,0,1-1.126-1.126v-9.093a1.126,1.126,0,1,1,2.252,0v8.118h5.059a1.03,1.03,0,0,1,.747.3.99.99,0,0,1,.312.739A1.017,1.017,0,0,1,66.772,262.734Z" fill="#34383d"/>
          <path d="M75.42,259.97a.78.78,0,0,1-.572.235H72.764v2.084a.891.891,0,1,1-1.781,0v-2.084H68.9a.807.807,0,1,1,0-1.613h2.085v-2.085a.891.891,0,1,1,1.781,0v2.085h2.084a.808.808,0,0,1,.572,1.378Z" fill="#34383d"/>
          <path d="M87.361,260.969a1.027,1.027,0,0,1-.176.278,5.217,5.217,0,0,1-1.959,1.5,5.825,5.825,0,0,1-2.394.521,5.67,5.67,0,0,1-4.084-1.7,5.854,5.854,0,0,1-1.665-4.117,5.733,5.733,0,0,1,.446-2.261,5.907,5.907,0,0,1,1.219-1.841,5.675,5.675,0,0,1,4.084-1.7,6.863,6.863,0,0,1,1.016.076,5.506,5.506,0,0,1,1,.243,4.655,4.655,0,0,1,.924.438,3.9,3.9,0,0,1,.79.639,1.1,1.1,0,0,1,.354.806.938.938,0,0,1-.312.723,1.046,1.046,0,0,1-.73.285,1.031,1.031,0,0,1-.563-.176c-.185-.118-.39-.249-.614-.4a4.406,4.406,0,0,0-.79-.395,2.957,2.957,0,0,0-1.075-.176,3.436,3.436,0,0,0-1.438.294,3.244,3.244,0,0,0-1.1.806,3.761,3.761,0,0,0-.707,1.193,4.242,4.242,0,0,0,0,2.875,3.75,3.75,0,0,0,.707,1.193,3.321,3.321,0,0,0,2.538,1.117,2.914,2.914,0,0,0,1.31-.26,4.212,4.212,0,0,0,.882-.572q.363-.31.656-.571a.933.933,0,0,1,.63-.26,1.055,1.055,0,0,1,.774.344,1.078,1.078,0,0,1,.336.765A.852.852,0,0,1,87.361,260.969Z" fill="#34383d"/>
        </g>
      </g>
    </g>
  </g>
</svg>
