<svg xmlns="http://www.w3.org/2000/svg" width="279" height="129.089" viewBox="0 0 279 129.089">
  <g id="Layer_2" data-name="Layer 2">
    <g id="Layer_24" data-name="Layer 24">
      <g>
        <g>
          <ellipse cx="139.5" cy="72.936" rx="139.5" ry="56.153" fill="#ccc"/>
          <ellipse cx="139.5" cy="69.241" rx="139.5" ry="56.153" fill="#fff"/>
        </g>
        <ellipse cx="139.5" cy="67.241" rx="129.5" ry="52.128" fill="#ccc" opacity="0.45"/>
        <path d="M270.286,63.866l-2.217-9.544a1.125,1.125,0,0,0-.892-.851l-11.332-2.084,1.292-1.054a1.133,1.133,0,0,0,.373-1.183l-2.672-9.486a1.131,1.131,0,0,0-1.8-.569l-11.771,9.61-14.849-2.731a1.115,1.115,0,0,0,.1-.824l-2.672-9.486a1.131,1.131,0,0,0-1.8-.569l-5.612,4.582,1.1-5.716a1.131,1.131,0,0,0-1.359-1.316l-14.826,3.328-12.058-9.086a1.125,1.125,0,0,0,.454-.7l1.855-9.679a1.131,1.131,0,0,0-1.358-1.316L175.4,18.525l-20.3-15.3a1.124,1.124,0,0,0-1.769.636L151.7,10.642l-4.868-4.8a1.131,1.131,0,0,0-1.849.4l-3.547,9.2a1.13,1.13,0,0,0,.261,1.212l7.8,7.691-9.529,2.138L136.217,24.6a1.131,1.131,0,0,0-1.635.951l-.53,9.841a1.133,1.133,0,0,0,.623,1.072l1.491.746L131.8,39.068l-9.529-7.181a1.125,1.125,0,0,0,.454-.7l1.855-9.679a1.131,1.131,0,0,0-1.358-1.316L108.4,23.525,88.1,8.227a1.124,1.124,0,0,0-1.769.636L84.7,15.642l-4.868-4.8a1.131,1.131,0,0,0-1.849.4l-3.547,9.2a1.13,1.13,0,0,0,.261,1.212l7.8,7.691-9.529,2.138L69.217,29.6a1.131,1.131,0,0,0-1.635.951L67.4,33.977,65.092,32.1a1.13,1.13,0,0,0-1.8.569L60.617,42.15a1.119,1.119,0,0,0,.1.824L45.863,45.705,34.092,36.1a1.13,1.13,0,0,0-1.8.569L29.617,46.15a1.131,1.131,0,0,0,.373,1.183l1.291,1.054L19.95,50.471a1.124,1.124,0,0,0-.892.851l-2.217,9.544a1.125,1.125,0,0,0,1.3,1.361L42.7,57.71l.542.443-15.671,5.1a1.132,1.132,0,0,0-.776.968l-.941,9.81a1.131,1.131,0,0,0,1.475,1.183l26.32-8.561,1.379,1.125-2.876,6.613a1.131,1.131,0,0,0,1.037,1.582H65.065L67.431,77.9l-16.879,5.49a1.133,1.133,0,0,0-.776.968l-.941,9.81a1.13,1.13,0,0,0,1.475,1.183L80.8,85.436l8.884,13.812a1.131,1.131,0,0,0,1.891.016l3.234-4.84v.125a1.125,1.125,0,0,0,1.565,1.043l6.714-2.86L105.016,95a1.1,1.1,0,0,0,.273.227,1.1,1.1,0,0,0-.033.41l1.23,9.778a1.131,1.131,0,0,0,1.7.831l14.125-8.376,22.831,22.512a1.131,1.131,0,0,0,1.849-.4l3.547-9.2a1.13,1.13,0,0,0-.261-1.212L137.638,97.116l2.981-.669,10.62,5.314a1.131,1.131,0,0,0,1.635-.951l.387-7.2L155,93.22l19.708,19.433a1.131,1.131,0,0,0,1.849-.4l3.548-9.194a1.134,1.134,0,0,0-.261-1.213l-11.734-11.57.683-.154,19.944,15.029a1.125,1.125,0,0,0,1.77-.635l1.732-7.214,3.314,4.96a1.131,1.131,0,0,0,1.891-.016l8.885-13.812,30.49,9.917a1.131,1.131,0,0,0,1.476-1.183l-.941-9.81a1.133,1.133,0,0,0-.776-.968L219.7,80.9l2.366-1.932h11.875a1.131,1.131,0,0,0,1.037-1.582L232.1,70.775l1.378-1.125,26.32,8.561a1.131,1.131,0,0,0,1.476-1.183l-.942-9.81a1.131,1.131,0,0,0-.775-.968l-15.672-5.1.543-.443,24.56,4.517A1.125,1.125,0,0,0,270.286,63.866ZM163.367,50.819l-.014.073-.163-.161ZM109.382,68.184l.84-1.932a1.131,1.131,0,0,0-1.037-1.582h-3.929l-4.618-4.554,2.981-.669,10.62,5.314a1.131,1.131,0,0,0,1.635-.951l.053-.992,3.57,3.521-9.529,2.138Zm70.894-.605L167.638,55.116l2.981-.669,10.62,5.314a1.126,1.126,0,0,0,1.518-.525l6.944,2.258-7.565,6.176h-1.791A.99.99,0,0,0,180.276,67.579Zm-1.541,5.884,1.128,2.6-2.332.524Zm-19.46-4.576a1.125,1.125,0,0,0,.454-.7l.807-4.21L174.1,77.353l-2.762.62Zm29,21.855,5.443-6.407,1.494.487-4.83,7.508ZM73.371,75.97l-.218.071.02-.071Zm21.511,8.781-.012,1.67-2.959-4.6,1.5-.487,2.074,2.442A1.118,1.118,0,0,0,94.882,84.751Zm17.99,3.814,1.119,1.1-6.5,3.852,1.655-3.37Zm20.318,4.166.177.088-.014.073ZM213.756,78.97h.2l.02.071Z" fill="#963" opacity="0.32"/>
        <g>
          <g>
            <path d="M69.052,49.864,18.139,59.227a1.125,1.125,0,0,1-1.3-1.361l2.217-9.544a1.124,1.124,0,0,1,.892-.851l50.913-9.363a1.124,1.124,0,0,1,1.3,1.36l-2.217,9.544A1.124,1.124,0,0,1,69.052,49.864Z" fill="#fc6"/>
            <path d="M20.1,48.022s6.75,6.915-2.213,10.083Z" fill="#963"/>
            <rect x="21.925" y="43.613" width="48.846" height="0.488" transform="translate(-7.168 9.106) rotate(-10.42)" fill="#963" opacity="0.59"/>
            <rect x="22.202" y="45.187" width="47.38" height="0.488" transform="translate(-7.46 9.05) rotate(-10.42)" fill="#963" opacity="0.59"/>
          </g>
          <g>
            <path d="M76.842,56.106l-49.513,16.1a1.131,1.131,0,0,1-1.475-1.183l.941-9.81a1.132,1.132,0,0,1,.776-.968l49.513-16.1a1.131,1.131,0,0,1,1.475,1.183l-.941,9.811A1.131,1.131,0,0,1,76.842,56.106Z" fill="#fc6"/>
            <path d="M27.789,60.78s7.649,6-.865,10.347Z" fill="#963"/>
            <rect x="28.844" y="52.892" width="49.128" height="0.491" transform="translate(-13.817 19.126) rotate(-18.018)" fill="#963" opacity="0.59"/>
            <rect x="29.336" y="54.522" width="47.654" height="0.491" transform="translate(-14.333 19.13) rotate(-18.018)" fill="#963" opacity="0.59"/>
          </g>
          <g>
            <path d="M29.99,44.333,70.321,77.262a1.13,1.13,0,0,0,1.8-.57L74.8,67.206a1.13,1.13,0,0,0-.374-1.182L34.092,33.1a1.13,1.13,0,0,0-1.8.569L29.617,43.15A1.131,1.131,0,0,0,29.99,44.333Z" fill="#fc6"/>
            <path d="M74.028,66.439s-9.3,2.823-2.937,9.958Z" fill="#963"/>
            <rect x="28.346" y="49.799" width="49.128" height="0.491" transform="translate(62.244 122.271) rotate(-140.769)" fill="#963" opacity="0.59"/>
            <rect x="28.721" y="51.406" width="47.654" height="0.491" transform="translate(60.586 124.896) rotate(-140.769)" fill="#963" opacity="0.59"/>
          </g>
          <g>
            <path d="M100.052,45.864,49.139,55.227a1.125,1.125,0,0,1-1.3-1.361l2.217-9.544a1.124,1.124,0,0,1,.892-.851l50.913-9.363a1.124,1.124,0,0,1,1.3,1.36l-2.217,9.544A1.124,1.124,0,0,1,100.052,45.864Z" fill="#fc6"/>
            <path d="M51.1,44.022s6.75,6.915-2.213,10.083Z" fill="#963"/>
            <rect x="52.925" y="39.613" width="48.846" height="0.488" transform="translate(-5.933 14.647) rotate(-10.42)" fill="#963" opacity="0.59"/>
            <rect x="53.202" y="41.187" width="47.38" height="0.488" transform="translate(-6.225 14.591) rotate(-10.42)" fill="#963" opacity="0.59"/>
          </g>
          <g>
            <path d="M107.842,52.106l-49.513,16.1a1.131,1.131,0,0,1-1.475-1.183l.941-9.81a1.132,1.132,0,0,1,.776-.968l49.513-16.1a1.131,1.131,0,0,1,1.475,1.183l-.941,9.811A1.131,1.131,0,0,1,107.842,52.106Z" fill="#fc6"/>
            <path d="M58.789,56.78s7.649,6-.865,10.347Z" fill="#963"/>
            <rect x="59.844" y="48.892" width="49.128" height="0.491" transform="translate(-11.06 28.519) rotate(-18.018)" fill="#963" opacity="0.59"/>
            <rect x="60.336" y="50.522" width="47.654" height="0.491" transform="translate(-11.576 28.523) rotate(-18.018)" fill="#963" opacity="0.59"/>
          </g>
          <g>
            <path d="M60.99,40.333l40.331,32.929a1.13,1.13,0,0,0,1.8-.57l2.673-9.486a1.13,1.13,0,0,0-.374-1.182L65.092,29.1a1.13,1.13,0,0,0-1.8.569L60.617,39.15A1.131,1.131,0,0,0,60.99,40.333Z" fill="#fc6"/>
            <path d="M105.028,62.439s-9.3,2.823-2.937,9.958Z" fill="#963"/>
            <rect x="59.346" y="45.799" width="49.128" height="0.491" transform="translate(119.787 134.779) rotate(-140.769)" fill="#963" opacity="0.59"/>
            <rect x="59.721" y="47.406" width="47.654" height="0.491" transform="translate(118.129 137.403) rotate(-140.769)" fill="#963" opacity="0.59"/>
          </g>
          <g>
            <path d="M71.5,52.55,105.016,92a1.124,1.124,0,0,0,1.866-.233l4.319-8.8a1.124,1.124,0,0,0-.153-1.223L77.532,42.3a1.124,1.124,0,0,0-1.866.233l-4.319,8.8A1.126,1.126,0,0,0,71.5,52.55Z" fill="#fc6"/>
            <path d="M110.587,82.086s-9.6,1.088-4.662,9.209Z" fill="#963"/>
            <rect x="68.462" y="62.012" width="48.846" height="0.488" transform="translate(105.576 173.353) rotate(-130.349)" fill="#963" opacity="0.59"/>
            <rect x="68.552" y="63.519" width="47.38" height="0.488" transform="translate(103.369 175.346) rotate(-130.349)" fill="#963" opacity="0.59"/>
          </g>
          <g>
            <path d="M61.518,52.458l28.167,43.79a1.131,1.131,0,0,0,1.891.016l5.476-8.194a1.132,1.132,0,0,0,.011-1.24L68.9,43.041A1.131,1.131,0,0,0,67,43.024l-5.476,8.194A1.13,1.13,0,0,0,61.518,52.458Z" fill="#fc6"/>
            <path d="M96.558,87.1s-9.717-.192-5.873,8.562Z" fill="#963"/>
            <rect x="56.983" y="64.734" width="49.128" height="0.491" transform="matrix(-0.541, -0.841, 0.841, -0.541, 71.014, 168.716)" fill="#963" opacity="0.59"/>
            <rect x="56.879" y="66.151" width="47.654" height="0.491" transform="translate(68.526 170.193) rotate(-122.751)" fill="#963" opacity="0.59"/>
          </g>
          <g>
            <path d="M105.256,72.97H53.189a1.131,1.131,0,0,1-1.037-1.582l3.93-9.038a1.133,1.133,0,0,1,1.037-.68h52.066a1.131,1.131,0,0,1,1.037,1.582l-3.929,9.038A1.131,1.131,0,0,1,105.256,72.97Z" fill="#fc6"/>
            <path d="M57.163,62.242s5.418,8.069-4.024,9.571Z" fill="#963"/>
            <rect x="59.325" y="62.653" width="49.128" height="0.491" fill="#963" opacity="0.59"/>
            <rect x="59.325" y="64.127" width="47.654" height="0.491" fill="#963" opacity="0.59"/>
          </g>
          <g>
            <path d="M99.823,76.248,50.31,92.353a1.13,1.13,0,0,1-1.475-1.183l.941-9.81a1.133,1.133,0,0,1,.776-.968l49.513-16.1a1.131,1.131,0,0,1,1.475,1.184l-.941,9.81A1.131,1.131,0,0,1,99.823,76.248Z" fill="#fc6"/>
            <path d="M50.77,80.923s7.649,6-.866,10.346Z" fill="#963"/>
            <rect x="51.825" y="73.034" width="49.128" height="0.491" transform="translate(-18.921 27.222) rotate(-18.018)" fill="#963" opacity="0.59"/>
            <rect x="52.317" y="74.664" width="47.654" height="0.491" transform="translate(-19.437 27.227) rotate(-18.018)" fill="#963" opacity="0.59"/>
          </g>
          <g>
            <path d="M218.074,52.864l50.913,9.363a1.125,1.125,0,0,0,1.3-1.361l-2.217-9.544a1.125,1.125,0,0,0-.892-.851l-50.913-9.363a1.124,1.124,0,0,0-1.3,1.36l2.218,9.544A1.124,1.124,0,0,0,218.074,52.864Z" fill="#fc6"/>
            <path d="M267.031,51.022s-6.749,6.915,2.214,10.083Z" fill="#963"/>
            <rect x="216.356" y="46.613" width="48.846" height="0.488" transform="translate(469.111 136.492) rotate(-169.58)" fill="#963" opacity="0.59"/>
            <rect x="217.544" y="48.187" width="47.38" height="0.488" transform="translate(469.73 139.696) rotate(-169.58)" fill="#963" opacity="0.59"/>
          </g>
          <g>
            <path d="M210.284,59.106l49.513,16.1a1.131,1.131,0,0,0,1.476-1.183l-.942-9.81a1.131,1.131,0,0,0-.775-.968l-49.513-16.1a1.131,1.131,0,0,0-1.476,1.183l.942,9.811A1.13,1.13,0,0,0,210.284,59.106Z" fill="#fc6"/>
            <path d="M259.337,63.78s-7.648,6,.866,10.347Z" fill="#963"/>
            <rect x="209.154" y="55.892" width="49.128" height="0.491" transform="translate(438.61 181.816) rotate(-161.982)" fill="#963" opacity="0.59"/>
            <rect x="210.136" y="57.522" width="47.654" height="0.491" transform="translate(438.584 185.07) rotate(-161.982)" fill="#963" opacity="0.59"/>
          </g>
          <g>
            <path d="M257.137,47.333,216.806,80.262a1.131,1.131,0,0,1-1.8-.57l-2.672-9.486a1.131,1.131,0,0,1,.373-1.182L253.034,36.1a1.131,1.131,0,0,1,1.8.569l2.672,9.486A1.133,1.133,0,0,1,257.137,47.333Z" fill="#fc6"/>
            <path d="M213.1,69.439s9.3,2.823,2.936,9.958Z" fill="#963"/>
            <rect x="209.653" y="52.799" width="49.128" height="0.491" transform="translate(19.243 160.085) rotate(-39.231)" fill="#963" opacity="0.59"/>
            <rect x="210.751" y="54.406" width="47.654" height="0.491" transform="translate(18.308 160.675) rotate(-39.231)" fill="#963" opacity="0.59"/>
          </g>
          <g>
            <path d="M187.074,48.864l50.913,9.363a1.125,1.125,0,0,0,1.3-1.361l-2.217-9.544a1.125,1.125,0,0,0-.892-.851l-50.913-9.363a1.124,1.124,0,0,0-1.3,1.36l2.218,9.544A1.124,1.124,0,0,0,187.074,48.864Z" fill="#fc6"/>
            <path d="M236.031,47.022s-6.749,6.915,2.214,10.083Z" fill="#963"/>
            <rect x="185.356" y="42.613" width="48.846" height="0.488" transform="translate(408.345 122.951) rotate(-169.58)" fill="#963" opacity="0.59"/>
            <rect x="186.544" y="44.187" width="47.38" height="0.488" transform="translate(408.964 126.155) rotate(-169.58)" fill="#963" opacity="0.59"/>
          </g>
          <g>
            <path d="M179.284,55.106l49.513,16.1a1.131,1.131,0,0,0,1.476-1.183l-.942-9.81a1.131,1.131,0,0,0-.775-.968l-49.513-16.1a1.131,1.131,0,0,0-1.476,1.183l.942,9.811A1.13,1.13,0,0,0,179.284,55.106Z" fill="#fc6"/>
            <path d="M228.337,59.78s-7.648,6,.866,10.347Z" fill="#963"/>
            <rect x="178.154" y="51.892" width="49.128" height="0.491" transform="translate(379.367 164.423) rotate(-161.982)" fill="#963" opacity="0.59"/>
            <rect x="179.136" y="53.522" width="47.654" height="0.491" transform="translate(379.341 167.678) rotate(-161.982)" fill="#963" opacity="0.59"/>
          </g>
          <g>
            <path d="M226.137,43.333,185.806,76.262a1.131,1.131,0,0,1-1.8-.57l-2.672-9.486a1.131,1.131,0,0,1,.373-1.182L222.034,32.1a1.131,1.131,0,0,1,1.8.569l2.672,9.486A1.133,1.133,0,0,1,226.137,43.333Z" fill="#fc6"/>
            <path d="M182.1,65.439s9.3,2.823,2.936,9.958Z" fill="#963"/>
            <rect x="178.653" y="48.799" width="49.128" height="0.491" transform="translate(14.786 139.577) rotate(-39.231)" fill="#963" opacity="0.59"/>
            <rect x="179.751" y="50.406" width="47.654" height="0.491" transform="translate(13.851 140.168) rotate(-39.231)" fill="#963" opacity="0.59"/>
          </g>
          <g>
            <path d="M215.627,55.55,182.111,95a1.124,1.124,0,0,1-1.866-.233l-4.319-8.8a1.125,1.125,0,0,1,.152-1.223L209.594,45.3a1.124,1.124,0,0,1,1.866.233l4.319,8.8A1.125,1.125,0,0,1,215.627,55.55Z" fill="#fc6"/>
            <path d="M176.54,85.086s9.6,1.088,4.662,9.209Z" fill="#963"/>
            <rect x="169.819" y="65.012" width="48.846" height="0.488" transform="translate(18.748 171.041) rotate(-49.651)" fill="#963" opacity="0.59"/>
            <rect x="171.194" y="66.519" width="47.38" height="0.488" transform="translate(17.826 172.062) rotate(-49.651)" fill="#963" opacity="0.59"/>
          </g>
          <g>
            <path d="M225.609,55.458l-28.168,43.79a1.131,1.131,0,0,1-1.891.016l-5.475-8.194a1.13,1.13,0,0,1-.011-1.24l28.168-43.789a1.131,1.131,0,0,1,1.891-.017l5.475,8.194A1.132,1.132,0,0,1,225.609,55.458Z" fill="#fc6"/>
            <path d="M190.568,90.1s9.718-.192,5.873,8.562Z" fill="#963"/>
            <rect x="181.015" y="67.734" width="49.128" height="0.491" transform="translate(37.19 204.101) rotate(-57.249)" fill="#963" opacity="0.59"/>
            <rect x="182.593" y="69.151" width="47.654" height="0.491" transform="matrix(0.541, -0.841, 0.841, 0.541, 36.384, 205.459)" fill="#963" opacity="0.59"/>
          </g>
          <g>
            <path d="M181.871,75.97h52.066a1.131,1.131,0,0,0,1.037-1.582l-3.929-9.038a1.133,1.133,0,0,0-1.037-.68H177.941a1.131,1.131,0,0,0-1.037,1.582l3.93,9.038A1.13,1.13,0,0,0,181.871,75.97Z" fill="#fc6"/>
            <path d="M229.964,65.242s-5.419,8.069,4.023,9.571Z" fill="#963"/>
            <rect x="178.673" y="65.653" width="49.128" height="0.491" transform="translate(406.474 131.797) rotate(180)" fill="#963" opacity="0.59"/>
            <rect x="180.147" y="67.127" width="47.654" height="0.491" transform="translate(407.948 134.745) rotate(180)" fill="#963" opacity="0.59"/>
          </g>
          <g>
            <path d="M187.3,79.248l49.512,16.1a1.131,1.131,0,0,0,1.476-1.183l-.941-9.81a1.133,1.133,0,0,0-.776-.968l-49.513-16.1a1.132,1.132,0,0,0-1.476,1.184l.942,9.81A1.129,1.129,0,0,0,187.3,79.248Z" fill="#fc6"/>
            <path d="M236.357,83.923s-7.649,6,.865,10.346Z" fill="#963"/>
            <rect x="186.173" y="76.034" width="49.128" height="0.491" transform="translate(387.545 214.004) rotate(-161.982)" fill="#963" opacity="0.59"/>
            <rect x="187.155" y="77.664" width="47.654" height="0.491" transform="translate(387.519 217.258) rotate(-161.982)" fill="#963" opacity="0.59"/>
          </g>
          <g>
            <path d="M147.391,71l41.343,31.154a1.125,1.125,0,0,0,1.77-.635l2.287-9.528a1.123,1.123,0,0,0-.416-1.16L151.032,59.675a1.125,1.125,0,0,0-1.77.636l-2.287,9.527A1.125,1.125,0,0,0,147.391,71Z" fill="#fc6"/>
            <path d="M192,91.258s-9.13,3.164-2.532,10.007Z" fill="#963"/>
            <rect x="145.96" y="75.542" width="48.846" height="0.488" transform="translate(260.846 238.852) rotate(-143)" fill="#963" opacity="0.59"/>
            <rect x="146.396" y="77.154" width="47.38" height="0.488" transform="translate(259.343 241.572) rotate(-143)" fill="#963" opacity="0.59"/>
          </g>
          <g>
            <path d="M137.631,73.1l37.074,36.557a1.131,1.131,0,0,0,1.849-.4l3.548-9.194a1.134,1.134,0,0,0-.261-1.213L142.767,62.291a1.131,1.131,0,0,0-1.849.4l-3.548,9.2A1.132,1.132,0,0,0,137.631,73.1Z" fill="#fc6"/>
            <path d="M179.409,99.225s-9.524,1.941-3.856,9.64Z" fill="#963"/>
            <rect x="135.353" y="80.681" width="49.128" height="0.491" transform="translate(216.964 250.833) rotate(-135.402)" fill="#963" opacity="0.59"/>
            <rect x="135.579" y="82.248" width="47.654" height="0.491" transform="translate(214.99 253.157) rotate(-135.402)" fill="#963" opacity="0.59"/>
          </g>
          <g>
            <path d="M184.8,83.531,134,94.934a1.132,1.132,0,0,1-1.359-1.317l1.855-9.679a1.13,1.13,0,0,1,.863-.89l50.8-11.4a1.131,1.131,0,0,1,1.359,1.316l-1.855,9.679A1.133,1.133,0,0,1,184.8,83.531Z" fill="#fc6"/>
            <path d="M135.525,83.6s7.054,6.686-1.83,10.22Z" fill="#963"/>
            <rect x="137.183" y="78.138" width="49.128" height="0.491" transform="translate(-13.24 37.326) rotate(-12.651)" fill="#963" opacity="0.59"/>
            <rect x="137.523" y="79.737" width="47.654" height="0.491" transform="translate(-13.6 37.278) rotate(-12.651)" fill="#963" opacity="0.59"/>
          </g>
          <g>
            <path d="M121.457,53.551,162.8,84.705a1.124,1.124,0,0,0,1.77-.635l2.288-9.528a1.126,1.126,0,0,0-.417-1.16L125.1,42.227a1.124,1.124,0,0,0-1.769.636l-2.288,9.527A1.125,1.125,0,0,0,121.457,53.551Z" fill="#fc6"/>
            <path d="M166.064,73.809s-9.13,3.165-2.532,10.008Z" fill="#963"/>
            <rect x="120.026" y="58.094" width="48.846" height="0.488" transform="translate(224.702 191.862) rotate(-143)" fill="#963" opacity="0.59"/>
            <rect x="120.462" y="59.705" width="47.38" height="0.488" transform="translate(223.198 194.581) rotate(-143)" fill="#963" opacity="0.59"/>
          </g>
          <g>
            <path d="M111.7,55.648l37.073,36.557a1.131,1.131,0,0,0,1.849-.4l3.548-9.194a1.131,1.131,0,0,0-.261-1.213L116.833,44.843a1.131,1.131,0,0,0-1.849.4l-3.547,9.2A1.13,1.13,0,0,0,111.7,55.648Z" fill="#fc6"/>
            <path d="M153.475,81.777s-9.524,1.94-3.856,9.64Z" fill="#963"/>
            <rect x="109.419" y="63.233" width="49.128" height="0.491" transform="translate(184.815 202.752) rotate(-135.402)" fill="#963" opacity="0.59"/>
            <rect x="109.646" y="64.8" width="47.654" height="0.491" transform="translate(182.841 205.076) rotate(-135.402)" fill="#963" opacity="0.59"/>
          </g>
          <g>
            <path d="M158.866,66.083l-50.8,11.4a1.13,1.13,0,0,1-1.358-1.316l1.854-9.679a1.13,1.13,0,0,1,.863-.89l50.8-11.4a1.131,1.131,0,0,1,1.358,1.316l-1.855,9.679A1.133,1.133,0,0,1,158.866,66.083Z" fill="#fc6"/>
            <path d="M109.591,66.148s7.054,6.686-1.83,10.22Z" fill="#963"/>
            <rect x="111.249" y="60.69" width="49.128" height="0.491" transform="translate(-10.048 31.223) rotate(-12.651)" fill="#963" opacity="0.59"/>
            <rect x="111.589" y="62.289" width="47.654" height="0.491" transform="translate(-10.408 31.175) rotate(-12.651)" fill="#963" opacity="0.59"/>
          </g>
          <g>
            <path d="M144,72.306,96.374,92.592a1.125,1.125,0,0,1-1.565-1.043l.073-9.8a1.125,1.125,0,0,1,.684-1.026l47.627-20.286a1.124,1.124,0,0,1,1.564,1.043l-.073,9.8A1.126,1.126,0,0,1,144,72.306Z" fill="#fc6"/>
            <path d="M95.829,81.231s8.1,5.269.048,10.322Z" fill="#963"/>
            <rect x="96.109" y="71.174" width="48.846" height="0.488" transform="translate(-18.346 52.945) rotate(-23.071)" fill="#963" opacity="0.59"/>
            <rect x="96.742" y="72.809" width="47.38" height="0.488" transform="translate(-18.995 53.037) rotate(-23.071)" fill="#963" opacity="0.59"/>
          </g>
          <g>
            <path d="M152.968,76.691l-44.783,26.557a1.131,1.131,0,0,1-1.7-.831l-1.23-9.778a1.132,1.132,0,0,1,.545-1.114l44.784-26.558a1.132,1.132,0,0,1,1.7.832l1.23,9.778A1.131,1.131,0,0,1,152.968,76.691Z" fill="#fc6"/>
            <path d="M106.13,91.994s8.776,4.176,1.421,10.285Z" fill="#963"/>
            <rect x="104.889" y="78.681" width="49.128" height="0.491" transform="matrix(0.86, -0.51, 0.51, 0.86, -22.152, 77.07)" fill="#963" opacity="0.59"/>
            <rect x="105.744" y="80.324" width="47.654" height="0.491" transform="translate(-22.974 77.36) rotate(-30.669)" fill="#963" opacity="0.59"/>
          </g>
          <g>
            <path d="M104.675,75.464l46.564,23.3a1.131,1.131,0,0,0,1.635-.951l.529-9.841a1.13,1.13,0,0,0-.623-1.072L106.217,63.6a1.131,1.131,0,0,0-1.635.951l-.53,9.841A1.131,1.131,0,0,0,104.675,75.464Z" fill="#fc6"/>
            <path d="M152.486,87.389s-8.457,4.791-.685,10.36Z" fill="#963"/>
            <rect x="103.725" y="75.772" width="49.128" height="0.491" transform="translate(209.007 201.403) rotate(-153.42)" fill="#963" opacity="0.59"/>
            <rect x="104.462" y="77.42" width="47.654" height="0.491" transform="translate(208.268 204.525) rotate(-153.42)" fill="#963" opacity="0.59"/>
          </g>
          <g>
            <path d="M108.067,80.826l37.074,36.558a1.131,1.131,0,0,0,1.849-.4l3.547-9.2a1.13,1.13,0,0,0-.261-1.212L113.2,70.022a1.131,1.131,0,0,0-1.849.4l-3.548,9.194A1.13,1.13,0,0,0,108.067,80.826Z" fill="#fc6"/>
            <path d="M149.844,106.955s-9.523,1.941-3.855,9.641Z" fill="#963"/>
            <rect x="105.788" y="88.412" width="49.128" height="0.491" transform="translate(160.92 243.31) rotate(-135.402)" fill="#963" opacity="0.59"/>
            <rect x="106.015" y="89.978" width="47.654" height="0.491" transform="translate(158.947 245.634) rotate(-135.402)" fill="#963" opacity="0.59"/>
          </g>
          <g>
            <path d="M110.391,34l41.343,31.154a1.125,1.125,0,0,0,1.77-.635l2.287-9.528a1.123,1.123,0,0,0-.416-1.16L114.032,22.675a1.125,1.125,0,0,0-1.77.636l-2.287,9.527A1.125,1.125,0,0,0,110.391,34Z" fill="#fc6"/>
            <path d="M155,54.258s-9.13,3.164-2.532,10.007Z" fill="#963"/>
            <rect x="108.96" y="38.542" width="48.846" height="0.488" transform="translate(216.564 150.035) rotate(-143)" fill="#963" opacity="0.59"/>
            <rect x="109.396" y="40.154" width="47.38" height="0.488" transform="translate(215.061 152.755) rotate(-143)" fill="#963" opacity="0.59"/>
          </g>
          <g>
            <path d="M100.631,36.1l37.074,36.557a1.131,1.131,0,0,0,1.849-.4l3.548-9.194a1.134,1.134,0,0,0-.261-1.213L105.767,25.291a1.131,1.131,0,0,0-1.849.4l-3.548,9.2A1.132,1.132,0,0,0,100.631,36.1Z" fill="#fc6"/>
            <path d="M142.409,62.225s-9.524,1.941-3.856,9.64Z" fill="#963"/>
            <rect x="98.353" y="43.681" width="49.128" height="0.491" transform="translate(179.597 161.508) rotate(-135.402)" fill="#963" opacity="0.59"/>
            <rect x="98.579" y="45.248" width="47.654" height="0.491" transform="translate(177.624 163.833) rotate(-135.402)" fill="#963" opacity="0.59"/>
          </g>
          <g>
            <path d="M147.8,46.531,97,57.934a1.132,1.132,0,0,1-1.359-1.317l1.855-9.679a1.13,1.13,0,0,1,.863-.89l50.8-11.4a1.131,1.131,0,0,1,1.359,1.316l-1.855,9.679A1.133,1.133,0,0,1,147.8,46.531Z" fill="#fc6"/>
            <path d="M98.525,46.6s7.054,6.686-1.83,10.22Z" fill="#963"/>
            <rect x="100.183" y="41.138" width="49.128" height="0.491" transform="translate(-6.035 28.325) rotate(-12.651)" fill="#963" opacity="0.59"/>
            <rect x="100.523" y="42.737" width="47.654" height="0.491" transform="translate(-6.395 28.277) rotate(-12.651)" fill="#963" opacity="0.59"/>
          </g>
          <g>
            <path d="M84.457,16.551,125.8,47.705a1.124,1.124,0,0,0,1.77-.635l2.288-9.528a1.126,1.126,0,0,0-.417-1.16L88.1,5.227a1.124,1.124,0,0,0-1.769.636L84.041,15.39A1.125,1.125,0,0,0,84.457,16.551Z" fill="#fc6"/>
            <path d="M129.064,36.809s-9.13,3.165-2.532,10.008Z" fill="#963"/>
            <rect x="83.026" y="21.094" width="48.846" height="0.488" transform="translate(180.42 103.045) rotate(-143)" fill="#963" opacity="0.59"/>
            <rect x="83.462" y="22.705" width="47.38" height="0.488" transform="translate(178.916 105.765) rotate(-143)" fill="#963" opacity="0.59"/>
          </g>
          <g>
            <path d="M74.7,18.648l37.073,36.557a1.131,1.131,0,0,0,1.849-.4l3.548-9.194a1.131,1.131,0,0,0-.261-1.213L79.833,7.843a1.131,1.131,0,0,0-1.849.4l-3.547,9.2A1.13,1.13,0,0,0,74.7,18.648Z" fill="#fc6"/>
            <path d="M116.475,44.777s-9.524,1.94-3.856,9.64Z" fill="#963"/>
            <rect x="72.419" y="26.233" width="49.128" height="0.491" transform="translate(147.448 113.427) rotate(-135.402)" fill="#963" opacity="0.59"/>
            <rect x="72.646" y="27.8" width="47.654" height="0.491" transform="translate(145.474 115.752) rotate(-135.402)" fill="#963" opacity="0.59"/>
          </g>
          <g>
            <path d="M121.866,29.083l-50.8,11.4a1.13,1.13,0,0,1-1.358-1.316L71.56,29.49a1.13,1.13,0,0,1,.863-.89l50.8-11.4a1.131,1.131,0,0,1,1.358,1.316l-1.855,9.679A1.133,1.133,0,0,1,121.866,29.083Z" fill="#fc6"/>
            <path d="M72.591,29.148s7.054,6.686-1.83,10.22Z" fill="#963"/>
            <rect x="74.249" y="23.69" width="49.128" height="0.491" transform="translate(-2.843 22.222) rotate(-12.651)" fill="#963" opacity="0.59"/>
            <rect x="74.589" y="25.289" width="47.654" height="0.491" transform="translate(-3.203 22.174) rotate(-12.651)" fill="#963" opacity="0.59"/>
          </g>
          <g>
            <path d="M107,35.306,59.374,55.592a1.125,1.125,0,0,1-1.565-1.043l.073-9.8a1.125,1.125,0,0,1,.684-1.026l47.627-20.286a1.124,1.124,0,0,1,1.564,1.043l-.073,9.8A1.126,1.126,0,0,1,107,35.306Z" fill="#fc6"/>
            <path d="M58.829,44.231s8.1,5.269.048,10.322Z" fill="#963"/>
            <rect x="59.109" y="34.174" width="48.846" height="0.488" transform="translate(-6.807 35.487) rotate(-23.071)" fill="#963" opacity="0.59"/>
            <rect x="59.742" y="35.809" width="47.38" height="0.488" transform="translate(-7.455 35.578) rotate(-23.071)" fill="#963" opacity="0.59"/>
          </g>
          <g>
            <path d="M115.968,39.691,71.185,66.248a1.131,1.131,0,0,1-1.7-.831l-1.23-9.778a1.132,1.132,0,0,1,.545-1.114l44.784-26.558a1.132,1.132,0,0,1,1.7.832l1.23,9.778A1.131,1.131,0,0,1,115.968,39.691Z" fill="#fc6"/>
            <path d="M69.13,54.994s8.776,4.176,1.421,10.285Z" fill="#963"/>
            <rect x="67.889" y="41.681" width="49.128" height="0.491" transform="matrix(0.86, -0.51, 0.51, 0.86, -8.454, 53.022)" fill="#963" opacity="0.59"/>
            <rect x="68.744" y="43.324" width="47.654" height="0.491" transform="translate(-9.276 53.312) rotate(-30.669)" fill="#963" opacity="0.59"/>
          </g>
          <g>
            <path d="M67.675,38.464l46.564,23.3a1.131,1.131,0,0,0,1.635-.951l.529-9.841a1.13,1.13,0,0,0-.623-1.072L69.217,26.6a1.131,1.131,0,0,0-1.635.951l-.53,9.841A1.131,1.131,0,0,0,67.675,38.464Z" fill="#fc6"/>
            <path d="M115.486,50.389s-8.457,4.791-.685,10.36Z" fill="#963"/>
            <rect x="66.725" y="38.772" width="49.128" height="0.491" transform="translate(155.473 114.758) rotate(-153.42)" fill="#963" opacity="0.59"/>
            <rect x="67.462" y="40.42" width="47.654" height="0.491" transform="translate(154.735 117.88) rotate(-153.42)" fill="#963" opacity="0.59"/>
          </g>
          <g>
            <path d="M71.067,43.826l37.074,36.558a1.131,1.131,0,0,0,1.849-.4l3.547-9.2a1.13,1.13,0,0,0-.261-1.212L76.2,33.022a1.131,1.131,0,0,0-1.849.4l-3.548,9.194A1.13,1.13,0,0,0,71.067,43.826Z" fill="#fc6"/>
            <path d="M112.844,69.955s-9.523,1.941-3.855,9.641Z" fill="#963"/>
            <rect x="68.788" y="51.412" width="49.128" height="0.491" transform="translate(123.553 153.985) rotate(-135.402)" fill="#963" opacity="0.59"/>
            <rect x="69.015" y="52.978" width="47.654" height="0.491" transform="translate(121.58 156.309) rotate(-135.402)" fill="#963" opacity="0.59"/>
          </g>
          <g>
            <path d="M177.391,29l41.343,31.154a1.125,1.125,0,0,0,1.77-.635l2.287-9.528a1.123,1.123,0,0,0-.416-1.16L181.032,17.675a1.125,1.125,0,0,0-1.77.636l-2.287,9.527A1.125,1.125,0,0,0,177.391,29Z" fill="#fc6"/>
            <path d="M222,49.258s-9.13,3.164-2.532,10.007Z" fill="#963"/>
            <rect x="175.96" y="33.542" width="48.846" height="0.488" transform="translate(340.082 181.364) rotate(-143)" fill="#963" opacity="0.59"/>
            <rect x="176.396" y="35.154" width="47.38" height="0.488" transform="translate(338.578 184.084) rotate(-143)" fill="#963" opacity="0.59"/>
          </g>
          <g>
            <path d="M167.631,31.1l37.074,36.557a1.131,1.131,0,0,0,1.849-.4l3.548-9.194a1.134,1.134,0,0,0-.261-1.213L172.767,20.291a1.131,1.131,0,0,0-1.849.4l-3.548,9.2A1.132,1.132,0,0,0,167.631,31.1Z" fill="#fc6"/>
            <path d="M209.409,57.225s-9.524,1.941-3.856,9.64Z" fill="#963"/>
            <rect x="165.353" y="38.681" width="49.128" height="0.491" transform="translate(297.815 199.991) rotate(-135.402)" fill="#963" opacity="0.59"/>
            <rect x="165.579" y="40.248" width="47.654" height="0.491" transform="translate(295.841 202.315) rotate(-135.402)" fill="#963" opacity="0.59"/>
          </g>
          <g>
            <path d="M214.8,41.531,164,52.934a1.132,1.132,0,0,1-1.359-1.317l1.855-9.679a1.13,1.13,0,0,1,.863-.89l50.8-11.4a1.131,1.131,0,0,1,1.359,1.316l-1.855,9.679A1.133,1.133,0,0,1,214.8,41.531Z" fill="#fc6"/>
            <path d="M165.525,41.6s7.054,6.686-1.83,10.22Z" fill="#963"/>
            <rect x="167.183" y="36.138" width="49.128" height="0.491" transform="translate(-3.313 42.877) rotate(-12.651)" fill="#963" opacity="0.59"/>
            <rect x="167.523" y="37.737" width="47.654" height="0.491" transform="translate(-3.673 42.829) rotate(-12.651)" fill="#963" opacity="0.59"/>
          </g>
          <g>
            <path d="M151.457,11.551,192.8,42.705a1.124,1.124,0,0,0,1.77-.635l2.288-9.528a1.126,1.126,0,0,0-.417-1.16L155.1.227a1.124,1.124,0,0,0-1.769.636l-2.288,9.527A1.125,1.125,0,0,0,151.457,11.551Z" fill="#fc6"/>
            <path d="M196.064,31.809s-9.13,3.165-2.532,10.008Z" fill="#963"/>
            <rect x="150.026" y="16.094" width="48.846" height="0.488" transform="translate(303.937 134.374) rotate(-143)" fill="#963" opacity="0.59"/>
            <rect x="150.462" y="17.705" width="47.38" height="0.488" transform="translate(302.434 137.093) rotate(-143)" fill="#963" opacity="0.59"/>
          </g>
          <g>
            <path d="M141.7,13.648l37.073,36.557a1.131,1.131,0,0,0,1.849-.4l3.548-9.194a1.131,1.131,0,0,0-.261-1.213L146.833,2.843a1.131,1.131,0,0,0-1.849.4l-3.547,9.2A1.13,1.13,0,0,0,141.7,13.648Z" fill="#fc6"/>
            <path d="M183.475,39.777s-9.524,1.94-3.856,9.64Z" fill="#963"/>
            <rect x="139.419" y="21.233" width="49.128" height="0.491" transform="translate(265.666 151.91) rotate(-135.402)" fill="#963" opacity="0.59"/>
            <rect x="139.646" y="22.8" width="47.654" height="0.491" transform="translate(263.692 154.234) rotate(-135.402)" fill="#963" opacity="0.59"/>
          </g>
          <g>
            <path d="M188.866,24.083l-50.8,11.4a1.13,1.13,0,0,1-1.358-1.316l1.854-9.679a1.13,1.13,0,0,1,.863-.89l50.8-11.4a1.131,1.131,0,0,1,1.358,1.316l-1.855,9.679A1.133,1.133,0,0,1,188.866,24.083Z" fill="#fc6"/>
            <path d="M139.591,24.148s7.054,6.686-1.83,10.22Z" fill="#963"/>
            <rect x="141.249" y="18.69" width="49.128" height="0.491" transform="translate(-0.122 36.773) rotate(-12.651)" fill="#963" opacity="0.59"/>
            <rect x="141.589" y="20.289" width="47.654" height="0.491" transform="translate(-0.481 36.725) rotate(-12.651)" fill="#963" opacity="0.59"/>
          </g>
          <g>
            <path d="M174,30.306,126.374,50.592a1.125,1.125,0,0,1-1.565-1.043l.073-9.8a1.125,1.125,0,0,1,.684-1.026l47.627-20.286a1.124,1.124,0,0,1,1.564,1.043l-.073,9.8A1.126,1.126,0,0,1,174,30.306Z" fill="#fc6"/>
            <path d="M125.829,39.231s8.1,5.269.048,10.322Z" fill="#963"/>
            <rect x="126.109" y="29.174" width="48.846" height="0.488" transform="translate(0.511 61.342) rotate(-23.071)" fill="#963" opacity="0.59"/>
            <rect x="126.742" y="30.809" width="47.38" height="0.488" transform="translate(-0.137 61.434) rotate(-23.071)" fill="#963" opacity="0.59"/>
          </g>
          <g>
            <path d="M182.968,34.691,138.185,61.248a1.131,1.131,0,0,1-1.7-.831l-1.23-9.778a1.132,1.132,0,0,1,.545-1.114l44.784-26.558a1.132,1.132,0,0,1,1.7.832l1.23,9.778A1.131,1.131,0,0,1,182.968,34.691Z" fill="#fc6"/>
            <path d="M136.13,49.994s8.776,4.176,1.421,10.285Z" fill="#963"/>
            <rect x="134.889" y="36.681" width="49.128" height="0.491" transform="matrix(0.86, -0.51, 0.51, 0.86, 3.467, 86.498)" fill="#963" opacity="0.59"/>
            <rect x="135.744" y="38.324" width="47.654" height="0.491" transform="translate(2.646 86.788) rotate(-30.669)" fill="#963" opacity="0.59"/>
          </g>
          <g>
            <path d="M134.675,33.464l46.564,23.3a1.131,1.131,0,0,0,1.635-.951l.529-9.841a1.13,1.13,0,0,0-.623-1.072L136.217,21.6a1.131,1.131,0,0,0-1.635.951l-.53,9.841A1.131,1.131,0,0,0,134.675,33.464Z" fill="#fc6"/>
            <path d="M182.486,45.389s-8.457,4.791-.685,10.36Z" fill="#963"/>
            <rect x="133.725" y="33.772" width="49.128" height="0.491" transform="translate(284.629 135.266) rotate(-153.42)" fill="#963" opacity="0.59"/>
            <rect x="134.462" y="35.42" width="47.654" height="0.491" transform="translate(283.891 138.387) rotate(-153.42)" fill="#963" opacity="0.59"/>
          </g>
          <g>
            <path d="M138.067,38.826l37.074,36.558a1.131,1.131,0,0,0,1.849-.4l3.547-9.2a1.13,1.13,0,0,0-.261-1.212L143.2,28.022a1.131,1.131,0,0,0-1.849.4l-3.548,9.194A1.13,1.13,0,0,0,138.067,38.826Z" fill="#fc6"/>
            <path d="M179.844,64.955s-9.523,1.941-3.855,9.641Z" fill="#963"/>
            <rect x="135.788" y="46.412" width="49.128" height="0.491" transform="translate(241.771 192.468) rotate(-135.402)" fill="#963" opacity="0.59"/>
            <rect x="136.015" y="47.978" width="47.654" height="0.491" transform="translate(239.798 194.792) rotate(-135.402)" fill="#963" opacity="0.59"/>
          </g>
        </g>
        <path d="M52.7,19.9S2.8,44.618,61.121,55.767c0,0,6.643,23.283,42.281,7.251,0,0,36.872,25.394,58.035-4.522a40.133,40.133,0,0,0,33.481,13.823s34.466-1.886,28.909-16.955c0,0,22.572-5.287,9.712-17.115,0,0-9.592-15.423-25.328-10.35,0,0-20.679-19.734-58.593-11.8,0,0-23.647-13.913-51.8-2.789C97.822,13.309,69.179.761,52.7,19.9Z" fill="#600"/>
        <path d="M52.692,16.3S2.762,41.845,61.076,53.29c0,0,6.622,24.006,42.275,7.438,0,0,36.85,26.157,58.041-4.716,0,0,12.008,16.026,33.47,14.225,0,0,34.468-1.977,28.925-17.513,0,0,22.577-5.474,9.728-17.661,0,0-9.578-15.9-25.319-10.651,0,0-20.661-20.335-58.584-12.118,0,0-23.635-14.327-51.795-2.828C97.817,9.466,69.185-3.449,52.692,16.3Z" fill="#c30"/>
        <ellipse cx="83" cy="25.089" rx="17" ry="11" fill="#300" opacity="0.52"/>
        <ellipse cx="132" cy="49.089" rx="17" ry="11" fill="#300" opacity="0.52"/>
        <ellipse cx="178" cy="24.089" rx="17" ry="11" fill="#300" opacity="0.52"/>
        <ellipse cx="83" cy="18.089" rx="17" ry="16" fill="#630"/>
        <ellipse cx="132" cy="41.589" rx="16" ry="16.5" fill="#630"/>
        <ellipse cx="178" cy="17.589" rx="15.5" ry="17" transform="translate(106.215 181.419) rotate(-71.982)" fill="#630"/>
        <ellipse cx="83" cy="17.589" rx="14" ry="14.438" fill="#960" opacity="0.31"/>
        <ellipse cx="89.703" cy="8.988" rx="2.899" ry="5.297" transform="translate(28.54 75.219) rotate(-53)" fill="#c96"/>
        <ellipse cx="178" cy="17.589" rx="14" ry="14.438" fill="#960" opacity="0.31"/>
        <ellipse cx="132" cy="41.589" rx="14" ry="14.438" fill="#960" opacity="0.31"/>
        <ellipse cx="136.703" cy="30.988" rx="2.899" ry="5.297" transform="translate(29.684 121.514) rotate(-53)" fill="#c96"/>
        <ellipse cx="185.703" cy="8.988" rx="2.899" ry="5.297" transform="translate(66.765 151.887) rotate(-53)" fill="#c96"/>
        <ellipse cx="189.095" cy="16.79" rx="1.696" ry="3.9" transform="translate(61.884 157.702) rotate(-53)" fill="#300" opacity="0.52"/>
        <ellipse cx="142.095" cy="38.79" rx="1.696" ry="3.9" transform="translate(25.6 128.927) rotate(-53)" fill="#300" opacity="0.52"/>
        <ellipse cx="94.095" cy="16.79" rx="1.696" ry="3.9" transform="translate(24.057 81.832) rotate(-53)" fill="#300" opacity="0.52"/>
        <ellipse cx="47" cy="28.089" rx="6" ry="1" fill="#fff" opacity="0.37"/>
        <circle cx="100.5" cy="34.589" r="1.5" fill="#fff" opacity="0.37"/>
        <ellipse cx="112" cy="52.589" rx="2" ry="2.5" fill="#fff" opacity="0.37"/>
        <ellipse cx="115" cy="56.589" rx="1" ry="0.5" fill="#fff" opacity="0.37"/>
        <ellipse cx="162" cy="33.089" rx="3" ry="2" fill="#fff" opacity="0.37"/>
        <ellipse cx="169" cy="36.589" rx="3" ry="1.5" fill="#fff" opacity="0.37"/>
        <ellipse cx="202" cy="26.589" rx="3" ry="1.5" fill="#fff" opacity="0.37"/>
        <ellipse cx="70" cy="37.089" rx="3" ry="1" fill="#fff"/>
        <ellipse cx="74.5" cy="40.089" rx="3.5" ry="1" fill="#fff"/>
      </g>
    </g>
  </g>
</svg>
