<?xml version="1.0" encoding="utf-8"?>
<!-- Generator: Adobe Illustrator 25.0.1, SVG Export Plug-In . SVG Version: 6.00 Build 0)  -->
<svg version="1.1" id="Layer_1" xmlns="http://www.w3.org/2000/svg" xmlns:xlink="http://www.w3.org/1999/xlink" x="0px" y="0px"
	 viewBox="0 0 378.9 326.4" style="enable-background:new 0 0 378.9 326.4;" xml:space="preserve">
<style type="text/css">
	.st0{fill:#232323;}
	.st1{fill:#FFCC66;}
	.st2{fill:#9E9E9E;}
	.st3{fill:#663300;}
	.st4{fill:#CC3300;}
	.st5{fill:#FFFFFF;}
	.st6{fill:#BFBB1F;}
	.st7{fill:#E27A0A;}
	.st8{fill:#E5C507;}
	.st9{clip-path:url(#SVGID_2_);}
	.st10{fill:#CCCCCC;}
	.st11{opacity:0.45;fill:#CCCCCC;enable-background:new    ;}
	.st12{opacity:0.32;fill:#996633;enable-background:new    ;}
	.st13{fill:#996633;}
	.st14{opacity:0.59;fill:#996633;enable-background:new    ;}
	.st15{fill:#660000;}
	.st16{opacity:0.52;fill:#330000;enable-background:new    ;}
	.st17{opacity:0.31;fill:#996600;enable-background:new    ;}
	.st18{fill:#CC9966;}
	.st19{opacity:0.37;fill:#FFFFFF;enable-background:new    ;}
</style>
<g>
	<g id="Layer_2_1_">
		<g id="Layer_1-2">
			<g id="Layer_2-2">
				<g id="Layer_1-2-2">
					<g>
						<g>
							<path class="st0" d="M42.8,326.4c-15.1,0-26.4-4.4-33.7-13.1c-15.4-18.3-6.8-49-6.4-50.3l21.4-72.4
								c2.7-13.8,13.9-20.1,23.4-22.9l4-19.2c4.1-29.5,31.5-29.9,32.7-29.9h210.5c1.2,0,28.6,0.3,32.7,29.8l4,19.2
								c9.5,2.8,20.6,9.1,23.4,22.9l21.4,72.4c0.4,1.3,9,31.9-6.4,50.3c-7.3,8.7-18.6,13.1-33.7,13.1L42.8,326.4z"/>
							<path id="main_body" class="st1" d="M373.6,263.7l-21.4-72.5c-2.6-13.3-13.8-19.1-23.1-21.5l-4.3-20.8
								c-3.8-28.1-30.1-27.8-30.1-27.8H84.2c0,0-26.2-0.3-30.1,27.8l-4.3,20.8c-9.3,2.5-20.5,8.2-23.1,21.5L5.3,263.7
								c0,0-17.4,60.2,37.5,60.2h293.3C391,323.9,373.6,263.7,373.6,263.7z"/>
						</g>
						<path class="st2" d="M71.1,80.2h236.6c9.7,0,17.6,7.9,17.6,17.6v5.4c0,9.7-7.9,17.6-17.6,17.6H71.1c-9.7,0-17.6-7.9-17.6-17.6
							v-5.4C53.5,88,61.4,80.2,71.1,80.2z"/>
						<path id="second_body" class="st3" d="M362.2,253.3l-20.1-63.6c-2.4-11.7-13-16.7-21.7-18.9l-4-18.2
							c-3.6-24.6-28.2-24.3-28.2-24.3H90.7c0,0-24.6-0.2-28.2,24.3l-4,18.2c-8.7,2.1-19.2,7.2-21.7,18.9l-20.1,63.6
							c0,0-16.3,52.8,35.2,52.8H327C378.5,306,362.2,253.3,362.2,253.3z"/>
						<path id="second_body-2" class="st4" d="M354,244l-19.1-62c-2.3-11.4-12.3-16.3-20.6-18.4l-3.8-17.8
							c-3.4-24-26.8-23.7-26.8-23.7H95.8c0,0-23.4-0.2-26.8,23.7l-3.8,17.8c-8.3,2.1-18.3,7-20.6,18.4l-19.1,62
							c0,0-15.5,51.5,33.5,51.5h261.7C369.6,295.4,354,244,354,244z"/>
						<path class="st5" d="M335.7,217.9l-16.6-48.7c-1.8-7.7-8.1-13.1-18.3-15.9l-3-12.4c-3.3-20.6-25.4-20.8-26.4-20.8h-164
							c-0.9,0-23,0.2-26.4,20.8l-3,12.4c-10.2,2.8-16.5,8.2-18.3,15.9L43,217.9c-0.3,0.9-6.9,21.2,4.5,34c5.8,6.5,15.1,9.8,27.6,9.8
							h228.4c12.5,0,21.8-3.3,27.6-9.8C342.7,239.2,336,218.8,335.7,217.9z M285.7,156.4H96.1v-12.7c2.7-17,21.1-16.8,21.1-16.8
							h147.6c0,0,18.4-0.2,21.1,16.8L285.7,156.4z"/>
						<path class="st2" d="M283.9,144.6c-2.6-16.7-20.7-16.5-20.7-16.5H118.6c0,0-18-0.2-20.7,16.5V157h185.9L283.9,144.6z"/>
						<g>
							<path class="st2" d="M332.9,217.4l-16.3-47.7c-1.7-7.5-7.9-12.9-18-15.6l-2.9-12.2c-3.2-20.2-24.9-20.4-25.9-20.4H109.1
								c-0.9,0-22.6,0.2-25.8,20.4l-2.9,12.2c-10,2.7-16.2,8.1-18,15.6L46,217.4c-0.3,0.8-6.8,20.8,4.4,33.3
								c5.7,6.3,14.8,9.6,27,9.6h224c12.2,0,21.3-3.2,27-9.6C339.7,238.2,333.2,218.3,332.9,217.4z M283.8,157H97.9v-12.4
								c2.6-16.7,20.7-16.5,20.7-16.5h144.7c0,0,18-0.2,20.7,16.5L283.8,157z"/>
							<path class="st0" d="M330,218.1l-16.4-47.8c-2-8.8-10.6-12.6-17.6-14.2l-3.3-13.7c-2.9-18.5-23-18.3-23-18.3H109.1
								c0,0-20-0.2-23,18.3l-3.3,13.7c-7.1,1.6-15.6,5.4-17.6,14.2l-16.4,47.8c0,0-13.3,39.7,28.6,39.7h224
								C343.3,257.8,330,218.1,330,218.1z M283.8,157H97.9v-12.4c2.6-16.7,20.7-16.5,20.7-16.5h144.7c0,0,18-0.2,20.7,16.5
								L283.8,157z"/>
						</g>
						<ellipse class="st6" cx="98.9" cy="185.6" rx="26.3" ry="15.6"/>
						<path class="st0" d="M98.9,203.5c-16,0-28.6-7.8-28.6-17.9s12.5-17.9,28.6-17.9s28.6,7.8,28.6,17.9S114.9,203.5,98.9,203.5z"
							/>
						<ellipse class="st7" cx="98.9" cy="185.6" rx="26.3" ry="15.6"/>
						<path class="st7" d="M98.9,198.9c-14.7,0-26.3-6.8-26.3-15.6s11.5-15.6,26.3-15.6s26.3,6.8,26.3,15.6S113.6,198.9,98.9,198.9z
							"/>
						<ellipse class="st8" cx="98.9" cy="182.2" rx="24" ry="13.3"/>
						<ellipse class="st6" cx="160.1" cy="185.6" rx="26.3" ry="15.6"/>
						<path class="st0" d="M160.1,203.5c-16,0-28.6-7.8-28.6-17.9s12.6-17.9,28.6-17.9s28.6,7.8,28.6,17.9S176.2,203.5,160.1,203.5z
							"/>
						<ellipse class="st7" cx="160.1" cy="185.6" rx="26.3" ry="15.6"/>
						<path class="st7" d="M160.1,198.9c-14.7,0-26.3-6.8-26.3-15.6s11.5-15.6,26.3-15.6s26.3,6.8,26.3,15.6
							S174.9,198.9,160.1,198.9z"/>
						<ellipse class="st8" cx="160.1" cy="182.2" rx="24" ry="13.3"/>
						<ellipse class="st6" cx="221.4" cy="185.6" rx="26.3" ry="15.6"/>
						<path class="st0" d="M221.4,203.5c-16,0-28.6-7.8-28.6-17.9s12.5-17.9,28.6-17.9s28.6,7.8,28.6,17.9S237.4,203.5,221.4,203.5z
							"/>
						<ellipse class="st7" cx="221.4" cy="185.6" rx="26.3" ry="15.6"/>
						<path class="st7" d="M221.4,198.9c-14.7,0-26.3-6.8-26.3-15.6s11.5-15.6,26.3-15.6s26.3,6.8,26.3,15.6
							S236.1,198.9,221.4,198.9z"/>
						<ellipse class="st8" cx="221.4" cy="182.2" rx="24" ry="13.3"/>
						<ellipse class="st6" cx="282.6" cy="185.6" rx="26.3" ry="15.6"/>
						<path class="st0" d="M282.6,203.5c-16,0-28.6-7.8-28.6-17.9s12.5-17.9,28.6-17.9s28.6,7.8,28.6,17.9S298.7,203.5,282.6,203.5z
							"/>
						<ellipse class="st7" cx="282.6" cy="185.6" rx="26.3" ry="15.6"/>
						<path class="st7" d="M282.6,198.9c-14.7,0-26.3-6.8-26.3-15.6s11.5-15.6,26.3-15.6s26.3,6.8,26.3,15.6
							S297.4,198.9,282.6,198.9z"/>
						<ellipse class="st8" cx="282.6" cy="182.2" rx="24" ry="13.3"/>
						<ellipse class="st6" cx="128.2" cy="207.9" rx="26.3" ry="15.6"/>
						<path class="st0" d="M128.2,225.8c-16,0-28.6-7.8-28.6-17.9s12.6-17.9,28.6-17.9s28.6,7.8,28.6,17.9S144.2,225.8,128.2,225.8z
							"/>
						<ellipse class="st7" cx="128.2" cy="207.9" rx="26.3" ry="15.6"/>
						<path class="st7" d="M128.2,221.2c-14.7,0-26.3-6.8-26.3-15.6s11.5-15.6,26.3-15.6s26.3,6.8,26.3,15.6
							S142.9,221.2,128.2,221.2z"/>
						<ellipse class="st8" cx="128.2" cy="204.5" rx="24" ry="13.3"/>
						<ellipse class="st6" cx="189.4" cy="207.9" rx="26.3" ry="15.6"/>
						<path class="st0" d="M189.4,225.8c-16,0-28.6-7.8-28.6-17.9s12.5-17.9,28.6-17.9s28.6,7.8,28.6,17.9S205.5,225.8,189.4,225.8z
							"/>
						<ellipse class="st7" cx="189.4" cy="207.9" rx="26.3" ry="15.6"/>
						<path class="st7" d="M189.4,221.2c-14.7,0-26.3-6.8-26.3-15.6s11.5-15.6,26.3-15.6s26.3,6.8,26.3,15.6
							S204.2,221.2,189.4,221.2z"/>
						<ellipse class="st8" cx="189.4" cy="204.5" rx="24" ry="13.3"/>
						<ellipse class="st6" cx="250.7" cy="207.9" rx="26.3" ry="15.6"/>
						<path class="st0" d="M250.7,225.8c-16,0-28.6-7.8-28.6-17.9s12.6-17.9,28.6-17.9s28.6,7.8,28.6,17.9S266.7,225.8,250.7,225.8z
							"/>
						<ellipse class="st7" cx="250.7" cy="207.9" rx="26.3" ry="15.6"/>
						<path class="st7" d="M250.7,221.2c-14.7,0-26.3-6.8-26.3-15.6s11.5-15.6,26.3-15.6c14.7,0,26.3,6.8,26.3,15.6
							S265.4,221.2,250.7,221.2z"/>
						<ellipse class="st8" cx="250.7" cy="204.5" rx="24" ry="13.3"/>
						<ellipse class="st6" cx="96.2" cy="232.1" rx="26.3" ry="15.6"/>
						<path class="st0" d="M96.2,250c-16,0-28.6-7.8-28.6-17.9s12.5-17.9,28.6-17.9s28.6,7.8,28.6,17.9S112.3,250,96.2,250z"/>
						<ellipse class="st7" cx="96.2" cy="232.1" rx="26.3" ry="15.6"/>
						<path class="st7" d="M96.2,245.4c-14.7,0-26.3-6.8-26.3-15.6s11.5-15.6,26.3-15.6s26.3,6.8,26.3,15.6S111,245.4,96.2,245.4z"
							/>
						<ellipse class="st8" cx="96.2" cy="228.7" rx="24" ry="13.3"/>
						<ellipse class="st6" cx="157.5" cy="232.1" rx="26.3" ry="15.6"/>
						<path class="st0" d="M157.5,250c-16,0-28.6-7.8-28.6-17.9s12.5-17.9,28.6-17.9s28.6,7.8,28.6,17.9S173.5,250,157.5,250z"/>
						<ellipse class="st7" cx="157.5" cy="232.1" rx="26.3" ry="15.6"/>
						<path class="st7" d="M157.5,245.4c-14.7,0-26.3-6.8-26.3-15.6s11.5-15.6,26.3-15.6s26.3,6.8,26.3,15.6
							S172.2,245.4,157.5,245.4z"/>
						<ellipse class="st8" cx="157.5" cy="228.7" rx="24" ry="13.3"/>
						<ellipse class="st6" cx="218.7" cy="232.1" rx="26.3" ry="15.6"/>
						<path class="st0" d="M218.7,250c-16,0-28.6-7.8-28.6-17.9s12.6-17.9,28.6-17.9s28.6,7.8,28.6,17.9S234.8,250,218.7,250z"/>
						<ellipse class="st7" cx="218.7" cy="232.1" rx="26.3" ry="15.6"/>
						<path class="st7" d="M218.7,245.4c-14.7,0-26.3-6.8-26.3-15.6s11.5-15.6,26.3-15.6S245,221,245,229.8S233.5,245.4,218.7,245.4
							z"/>
						<ellipse class="st8" cx="218.7" cy="228.7" rx="24" ry="13.3"/>
						<ellipse class="st6" cx="280" cy="232.1" rx="26.3" ry="15.6"/>
						<path class="st0" d="M280,250c-16,0-28.6-7.8-28.6-17.9s12.5-17.9,28.6-17.9s28.6,7.8,28.6,17.9S296,250,280,250z"/>
						<ellipse class="st7" cx="280" cy="232.1" rx="26.3" ry="15.6"/>
						<path class="st7" d="M280,245.4c-14.7,0-26.3-6.8-26.3-15.6s11.5-15.6,26.3-15.6s26.3,6.8,26.3,15.6S294.7,245.4,280,245.4z"
							/>
						<ellipse class="st8" cx="280" cy="228.7" rx="24" ry="13.3"/>
						<path class="st3" d="M370,279.9c0,0-2,28.2-25,31.6H33.9c-23-3.4-25-31.6-25-31.6c0,0.2-7,38.6,25.2,38.5h310.7
							C377,318.5,370,280.1,370,279.9z"/>
						<path class="st3" d="M350,252.1c0,0-1.8,27-22.2,30.2H52.2c-0.9,0-1.8-0.1-2.7-0.3c-19-4.3-20.7-30-20.7-30
							c0,0.2-6.2,37,22.4,36.9h276.3C356.2,289.1,350,252.3,350,252.1z"/>
						<g>
							<g>
								<g>
									<defs>
										<rect id="SVGID_1_" x="141.2" y="92.9" width="101.9" height="65.2"/>
									</defs>
									<clipPath id="SVGID_2_">
										<use xlink:href="#SVGID_1_"  style="overflow:visible;"/>
									</clipPath>
									<g class="st9">
										<g>
											<path class="st0" d="M191.7,118.9c-28.4,0-51.4,23-51.4,51.4s23,51.4,51.4,51.4s51.4-23,51.4-51.4l0,0l0,0
												C243,141.9,220.1,118.9,191.7,118.9L191.7,118.9z M191.7,206.2c-19.9,0-35.9-16.1-35.9-35.9c0-19.9,16.1-35.9,35.9-35.9
												c19.9,0,35.9,16.1,35.9,35.9C227.6,190.2,211.5,206.2,191.7,206.2L191.7,206.2z"/>
											<path class="st2" d="M191.7,123.3c-25.5,0-46.2,20.7-46.2,46.2s20.7,46.2,46.2,46.2s46.2-20.7,46.2-46.2l0,0
												C237.9,144,217.2,123.3,191.7,123.3L191.7,123.3z M191.7,201.8c-17.9,0-32.4-14.5-32.4-32.4s14.5-32.4,32.4-32.4
												s32.4,14.5,32.4,32.4l0,0C224,187.4,209.6,201.8,191.7,201.8L191.7,201.8L191.7,201.8z"/>
											<polygon class="st0" points="191.7,143.5 180,163.7 203.4,163.7 											"/>
											<polygon class="st2" points="191.7,150 180,170.2 203.4,170.2 											"/>
										</g>
									</g>
								</g>
							</g>
						</g>
					</g>
				</g>
			</g>
		</g>
	</g>
	<g>
		<path class="st0" d="M191,166.4c-80.5,0-143.5-26.4-143.5-60.2c0-0.6,0-1.2,0.1-1.8c0-0.7-0.1-1.3-0.1-1.8c0-15,12-28.6,34.6-39.5
			c0.1-0.1,0.3-0.2,0.4-0.2c4.7-8.2,16-14.6,19.2-16.4c5.4-6.1,12.3-9.9,20.6-11.3c3.6-2.4,7.9-3.8,12.3-3.8
			c6.1,0,11.8,2.5,15.7,6.7c17-6.2,32.2-3.7,41.7-0.8l0.9-2.3c0.3-0.7,0.6-1.2,1.1-1.7c1.9-2,5.1-2,7.1-0.2c0.2-0.6,0.5-1.2,0.9-1.8
			c0.8-1.1,2-1.8,3.4-2c1.4-0.2,2.7,0.2,3.8,1l6.8,5.2c5.3-4.2,12.7-5.4,19.7-3.1c6.9,2.2,12.1,7.5,14,14c1.2,0.6,2.3,1.1,3.4,1.7
			c20.1,4,37.8,9.8,51.4,17.1c1.8-0.3,3.7,0.3,4.9,1.8c0.4,0.5,0.6,0.9,0.8,1.5c16,9.9,24.4,21.6,24.4,34c0,0.6,0,1.2-0.1,1.8
			c0,0.7,0.1,1.3,0.1,1.8C334.5,140,271.5,166.4,191,166.4z M86.2,70l-0.3,0.2C66.3,79.5,55.5,91,55.5,102.6c0,0.4,0,0.9,0.1,1.5
			l0,0.3l0,0.3c0,0.6-0.1,1.1-0.1,1.5c0,28.3,62.1,52.2,135.5,52.2c73.4,0,135.5-23.9,135.5-52.2c0-0.4,0-0.9-0.1-1.5l0-0.3l0-0.3
			c0-0.6,0.1-1.1,0.1-1.5c0-12.3-11.9-22-21.9-28l-2.4-1.4c-13.2-7.4-31-13.4-51.4-17.3l-0.6-0.1l-0.6-0.3c-1.6-0.9-3.3-1.8-5.1-2.5
			l-2-0.9l-0.4-2.1c-0.8-4.5-4.4-8.4-9.1-10c-5.1-1.7-10.7-0.3-13.9,3.4l-2.4,2.8l-9-6.8l-2.3,9.4l-6.8-6.7l-2.1,5.5l-3.7-1.4
			c-8-3-24-7-42,0.3l-1.6,0.6l-1.6-0.7c0,0-0.2-0.1-0.6-0.2l-1.1-0.4l-0.7-0.9c-2.4-3.4-6.5-5.4-10.9-5.4c-3,0-6,1-8.3,2.8l-0.8,0.6
			l-1.1,0.1c-7,0.9-12.7,4.1-17.1,9.2l-0.5,0.6l-0.7,0.4c-3.8,1.9-14.2,8.3-17.1,14.4l-0.6,1.3L86.2,70z"/>
	</g>
	<g id="Layer_2_2_">
		<g id="Layer_24">
			<g>
				<g>
					<ellipse class="st10" cx="191" cy="106.3" rx="139.5" ry="56.2"/>
					<ellipse class="st5" cx="191" cy="102.6" rx="139.5" ry="56.2"/>
				</g>
				<ellipse class="st11" cx="191" cy="100.6" rx="129.5" ry="52.1"/>
				<path class="st12" d="M321.8,97.2l-2.2-9.5c-0.1-0.4-0.5-0.8-0.9-0.9l-11.3-2.1l1.3-1.1c0.3-0.3,0.5-0.7,0.4-1.2l-2.7-9.5
					c-0.2-0.6-0.8-0.9-1.4-0.8c-0.1,0-0.3,0.1-0.4,0.2l-11.8,9.6l-14.8-2.7c0.1-0.3,0.2-0.5,0.1-0.8l-2.7-9.5
					c-0.2-0.6-0.8-0.9-1.4-0.8c-0.1,0-0.3,0.1-0.4,0.2l-5.6,4.6l1.1-5.7c0.1-0.6-0.3-1.2-0.9-1.3c-0.2,0-0.3,0-0.5,0l-14.8,3.3
					l-12.1-9.1c0.2-0.2,0.4-0.4,0.5-0.7l1.9-9.7c0.1-0.6-0.3-1.2-0.9-1.3c-0.2,0-0.3,0-0.5,0l-14.8,3.3l-20.3-15.3
					c-0.5-0.4-1.2-0.3-1.6,0.2c-0.1,0.1-0.2,0.3-0.2,0.4l-1.6,6.8l-4.9-4.8c-0.4-0.4-1.2-0.4-1.6,0c-0.1,0.1-0.2,0.2-0.2,0.4
					l-3.5,9.2c-0.2,0.4-0.1,0.9,0.3,1.2l7.8,7.7l-9.5,2.1l-3.8-1.9c-0.6-0.3-1.2-0.1-1.5,0.5c-0.1,0.1-0.1,0.3-0.1,0.4l-0.5,9.8
					c0,0.4,0.2,0.9,0.6,1.1l1.5,0.7l-4.4,1.9l-9.5-7.2c0.2-0.2,0.4-0.4,0.5-0.7l1.9-9.7c0.1-0.6-0.3-1.2-0.9-1.3c-0.2,0-0.3,0-0.5,0
					l-14.8,3.3l-20.3-15.3c-0.5-0.4-1.2-0.3-1.6,0.2c-0.1,0.1-0.2,0.3-0.2,0.4l-1.6,6.8l-4.9-4.8c-0.4-0.4-1.2-0.4-1.6,0
					c-0.1,0.1-0.2,0.2-0.2,0.4l-3.5,9.2c-0.2,0.4-0.1,0.9,0.3,1.2l7.8,7.7l-9.5,2.1l-3.8-1.9c-0.6-0.3-1.2-0.1-1.5,0.5
					c-0.1,0.1-0.1,0.3-0.1,0.4l-0.2,3.4l-2.3-1.9c-0.5-0.4-1.2-0.3-1.6,0.2c-0.1,0.1-0.2,0.3-0.2,0.4l-2.7,9.5
					c-0.1,0.3,0,0.6,0.1,0.8l-14.9,2.7l-11.8-9.6c-0.5-0.4-1.2-0.3-1.6,0.2c-0.1,0.1-0.2,0.3-0.2,0.4l-2.7,9.5
					c-0.1,0.4,0,0.9,0.4,1.2l1.3,1.1l-11.3,2.1c-0.4,0.1-0.8,0.4-0.9,0.9l-2.2,9.5c-0.1,0.6,0.2,1.2,0.8,1.4c0.2,0,0.3,0,0.5,0
					l24.6-4.5l0.5,0.4l-15.7,5.1c-0.4,0.1-0.7,0.5-0.8,1l-0.9,9.8c-0.1,0.6,0.4,1.2,1,1.2c0.2,0,0.3,0,0.5-0.1l26.3-8.6l1.4,1.1
					l-2.9,6.6c-0.2,0.6,0,1.2,0.6,1.5c0.1,0.1,0.3,0.1,0.5,0.1h11.9l2.4,1.9l-16.9,5.5c-0.4,0.1-0.7,0.5-0.8,1l-0.9,9.8
					c-0.1,0.6,0.4,1.2,1,1.2c0.2,0,0.3,0,0.5-0.1l30.5-9.9l8.9,13.8c0.3,0.5,1,0.7,1.6,0.3c0.1-0.1,0.2-0.2,0.3-0.3l3.2-4.8v0.1
					c0,0.6,0.5,1.1,1.1,1.1c0.2,0,0.3,0,0.4-0.1l6.7-2.9l1.9,2.3c0.1,0.1,0.2,0.2,0.3,0.2c0,0.1,0,0.3,0,0.4l1.2,9.8
					c0.1,0.6,0.6,1.1,1.3,1c0.2,0,0.3-0.1,0.4-0.1l14.1-8.4l22.8,22.5c0.4,0.4,1.2,0.4,1.6,0c0.1-0.1,0.2-0.2,0.2-0.4l3.5-9.2
					c0.2-0.4,0.1-0.9-0.3-1.2l-12.6-12.5l3-0.7l10.6,5.3c0.6,0.3,1.2,0.1,1.5-0.5c0.1-0.1,0.1-0.3,0.1-0.4l0.4-7.2l1.7-0.4
					l19.7,19.4c0.4,0.4,1.2,0.4,1.6,0c0.1-0.1,0.2-0.2,0.2-0.4l3.5-9.2c0.2-0.4,0.1-0.9-0.3-1.2l-11.7-11.6l0.7-0.2l19.9,15
					c0.5,0.4,1.2,0.3,1.6-0.2c0.1-0.1,0.2-0.3,0.2-0.4l1.7-7.2l3.3,5c0.3,0.5,1,0.7,1.6,0.3c0.1-0.1,0.2-0.2,0.3-0.3l8.9-13.8
					l30.5,9.9c0.6,0.2,1.2-0.1,1.4-0.7c0-0.1,0.1-0.3,0.1-0.5l-0.9-9.8c0-0.4-0.3-0.8-0.8-1l-16.9-5.5l2.4-1.9h11.9
					c0.6,0,1.1-0.5,1.1-1.1c0-0.2,0-0.3-0.1-0.5l-2.9-6.6l1.4-1.1l26.3,8.6c0.6,0.2,1.2-0.1,1.4-0.7c0-0.1,0.1-0.3,0.1-0.5l-0.9-9.8
					c0-0.4-0.3-0.8-0.8-1l-15.7-5.1l0.5-0.4l24.6,4.5c0.6,0.1,1.2-0.3,1.3-0.9C321.8,97.5,321.8,97.4,321.8,97.2z M214.9,84.2
					L214.9,84.2l-0.2-0.1L214.9,84.2z M160.9,101.5l0.8-1.9c0.2-0.6,0-1.2-0.6-1.5c-0.1-0.1-0.3-0.1-0.5-0.1h-3.9l-4.6-4.6l3-0.7
					l10.6,5.3c0.6,0.3,1.2,0.1,1.5-0.5c0.1-0.1,0.1-0.3,0.1-0.4l0.1-1l3.6,3.5l-9.5,2.1L160.9,101.5z M231.8,100.9l-12.6-12.5l3-0.7
					l10.6,5.3c0.6,0.3,1.2,0,1.5-0.5c0,0,0,0,0,0l6.9,2.3l-7.6,6.2L231.8,100.9C231.8,101,231.8,101,231.8,100.9z M230.2,106.8
					l1.1,2.6l-2.3,0.5L230.2,106.8z M210.8,102.2c0.2-0.2,0.4-0.4,0.5-0.7l0.8-4.2l13.6,13.4l-2.8,0.6L210.8,102.2z M239.8,124.1
					l5.4-6.4l1.5,0.5l-4.8,7.5L239.8,124.1z M124.9,109.3l-0.2,0.1l0-0.1H124.9z M146.4,118.1l0,1.7l-3-4.6l1.5-0.5l2.1,2.4
					C146.6,117.3,146.4,117.7,146.4,118.1z M164.4,121.9l1.1,1.1l-6.5,3.9l1.7-3.4L164.4,121.9z M184.7,126.1l0.2,0.1l0,0.1
					L184.7,126.1z M265.3,112.3h0.2l0,0.1L265.3,112.3z"/>
				<g>
					<g>
						<path class="st1" d="M120.6,83.2l-50.9,9.4c-0.6,0.1-1.2-0.3-1.3-0.9c0-0.2,0-0.3,0-0.5l2.2-9.5c0.1-0.4,0.5-0.8,0.9-0.9
							l50.9-9.4c0.6-0.1,1.2,0.3,1.3,0.9c0,0.2,0,0.3,0,0.5l-2.2,9.5C121.3,82.8,121,83.1,120.6,83.2z"/>
						<path class="st13" d="M71.6,81.4c0,0,6.8,6.9-2.2,10.1L71.6,81.4z"/>
						
							<rect x="73.4" y="77" transform="matrix(0.9835 -0.1809 0.1809 0.9835 -12.3511 18.9703)" class="st14" width="48.8" height="0.5"/>
						
							<rect x="73.7" y="78.5" transform="matrix(0.9835 -0.1809 0.1809 0.9835 -12.6434 18.9139)" class="st14" width="47.4" height="0.5"/>
					</g>
					<g>
						<path class="st1" d="M128.3,89.5l-49.5,16.1c-0.6,0.2-1.2-0.1-1.4-0.7c0-0.1-0.1-0.3-0.1-0.5l0.9-9.8c0-0.4,0.3-0.8,0.8-1
							l49.5-16.1c0.6-0.2,1.2,0.1,1.4,0.7c0,0.1,0.1,0.3,0.1,0.5l-0.9,9.8C129.1,88.9,128.8,89.3,128.3,89.5z"/>
						<path class="st13" d="M79.3,94.1c0,0,7.6,6-0.9,10.3L79.3,94.1z"/>
						
							<rect x="80.3" y="86.2" transform="matrix(0.951 -0.3093 0.3093 0.951 -21.6088 36.6914)" class="st14" width="49.1" height="0.5"/>
						
							<rect x="80.8" y="87.9" transform="matrix(0.951 -0.3093 0.3093 0.951 -22.1249 36.6956)" class="st14" width="47.7" height="0.5"/>
					</g>
					<g>
						<path class="st1" d="M81.5,77.7l40.3,32.9c0.5,0.4,1.2,0.3,1.6-0.2c0.1-0.1,0.2-0.3,0.2-0.4l2.7-9.5c0.1-0.4,0-0.9-0.4-1.2
							L85.6,66.5c-0.5-0.4-1.2-0.3-1.6,0.2c-0.1,0.1-0.2,0.3-0.2,0.4l-2.7,9.5C81,76.9,81.1,77.4,81.5,77.7z"/>
						<path class="st13" d="M125.5,99.8c0,0-9.3,2.8-2.9,10L125.5,99.8z"/>
						
							<rect x="104.2" y="58.8" transform="matrix(0.6324 -0.7746 0.7746 0.6324 -26.2246 111.5298)" class="st14" width="0.5" height="49.1"/>
						
							<rect x="103.8" y="61.2" transform="matrix(0.6324 -0.7746 0.7746 0.6324 -27.6038 111.8414)" class="st14" width="0.5" height="47.7"/>
					</g>
					<g>
						<path class="st1" d="M151.6,79.2l-50.9,9.4c-0.6,0.1-1.2-0.3-1.3-0.9c0-0.2,0-0.3,0-0.5l2.2-9.5c0.1-0.4,0.5-0.8,0.9-0.9
							l50.9-9.4c0.6-0.1,1.2,0.3,1.3,0.9c0,0.2,0,0.3,0,0.5l-2.2,9.5C152.3,78.8,152,79.1,151.6,79.2z"/>
						<path class="st13" d="M102.6,77.4c0,0,6.8,6.9-2.2,10.1L102.6,77.4z"/>
						
							<rect x="104.4" y="73" transform="matrix(0.9835 -0.1809 0.1809 0.9835 -11.1165 24.5112)" class="st14" width="48.8" height="0.5"/>
						
							<rect x="104.7" y="74.5" transform="matrix(0.9835 -0.1809 0.1809 0.9835 -11.4087 24.4547)" class="st14" width="47.4" height="0.5"/>
					</g>
					<g>
						<path class="st1" d="M159.3,85.5l-49.5,16.1c-0.6,0.2-1.2-0.1-1.4-0.7c0-0.1-0.1-0.3-0.1-0.5l0.9-9.8c0-0.4,0.3-0.8,0.8-1
							l49.5-16.1c0.6-0.2,1.2,0.1,1.4,0.7c0,0.1,0.1,0.3,0.1,0.5l-0.9,9.8C160.1,84.9,159.8,85.3,159.3,85.5z"/>
						<path class="st13" d="M110.3,90.1c0,0,7.6,6-0.9,10.3L110.3,90.1z"/>
						
							<rect x="111.3" y="82.2" transform="matrix(0.951 -0.3093 0.3093 0.951 -18.8514 46.0839)" class="st14" width="49.1" height="0.5"/>
						
							<rect x="111.8" y="83.9" transform="matrix(0.951 -0.3093 0.3093 0.951 -19.3676 46.0881)" class="st14" width="47.7" height="0.5"/>
					</g>
					<g>
						<path class="st1" d="M112.5,73.7l40.3,32.9c0.5,0.4,1.2,0.3,1.6-0.2c0.1-0.1,0.2-0.3,0.2-0.4l2.7-9.5c0.1-0.4,0-0.9-0.4-1.2
							l-40.3-32.9c-0.5-0.4-1.2-0.3-1.6,0.2c-0.1,0.1-0.2,0.3-0.2,0.4l-2.7,9.5C112,72.9,112.1,73.4,112.5,73.7z"/>
						<path class="st13" d="M156.5,95.8c0,0-9.3,2.8-2.9,10L156.5,95.8z"/>
						
							<rect x="135.2" y="54.8" transform="matrix(0.6324 -0.7746 0.7746 0.6324 -11.7323 134.0728)" class="st14" width="0.5" height="49.1"/>
						
							<rect x="134.8" y="57.2" transform="matrix(0.6324 -0.7746 0.7746 0.6324 -13.1107 134.3841)" class="st14" width="0.5" height="47.7"/>
					</g>
					<g>
						<path class="st1" d="M123,85.9l33.5,39.5c0.4,0.5,1.1,0.5,1.6,0.1c0.1-0.1,0.2-0.2,0.3-0.4l4.3-8.8c0.2-0.4,0.1-0.9-0.2-1.2
							L129,75.7c-0.4-0.5-1.1-0.5-1.6-0.1c-0.1,0.1-0.2,0.2-0.3,0.4l-4.3,8.8C122.7,85.1,122.7,85.6,123,85.9z"/>
						<path class="st13" d="M162.1,115.4c0,0-9.6,1.1-4.7,9.2L162.1,115.4z"/>
						
							<rect x="144.1" y="71.2" transform="matrix(0.7621 -0.6474 0.6474 0.7621 -27.5562 116.2252)" class="st14" width="0.5" height="48.8"/>
						
							<rect x="143.5" y="73.4" transform="matrix(0.7621 -0.6474 0.6474 0.7621 -28.6848 116.168)" class="st14" width="0.5" height="47.4"/>
					</g>
					<g>
						<path class="st1" d="M113,85.8l28.2,43.8c0.3,0.5,1,0.7,1.6,0.3c0.1-0.1,0.2-0.2,0.3-0.3l5.5-8.2c0.2-0.4,0.3-0.9,0-1.2
							l-28.2-43.8c-0.3-0.5-1-0.7-1.6-0.4c-0.1,0.1-0.3,0.2-0.3,0.3l-5.5,8.2C112.8,84.9,112.8,85.4,113,85.8z"/>
						<path class="st13" d="M148.1,120.5c0,0-9.7-0.2-5.9,8.6L148.1,120.5z"/>
						
							<rect x="132.8" y="73.8" transform="matrix(0.841 -0.541 0.541 0.841 -32.0488 87.6125)" class="st14" width="0.5" height="49.1"/>
						
							<rect x="132" y="75.9" transform="matrix(0.841 -0.541 0.541 0.841 -32.9479 87.3798)" class="st14" width="0.5" height="47.7"/>
					</g>
					<g>
						<path class="st1" d="M156.8,106.3h-52.1c-0.6,0-1.1-0.5-1.1-1.1c0-0.2,0-0.3,0.1-0.5l3.9-9c0.2-0.4,0.6-0.7,1-0.7h52.1
							c0.6,0,1.1,0.5,1.1,1.1c0,0.2,0,0.3-0.1,0.5l-3.9,9C157.6,106.1,157.2,106.3,156.8,106.3z"/>
						<path class="st13" d="M108.7,95.6c0,0,5.4,8.1-4,9.6L108.7,95.6z"/>
						<rect x="110.8" y="96" class="st14" width="49.1" height="0.5"/>
						<rect x="110.8" y="97.5" class="st14" width="47.7" height="0.5"/>
					</g>
					<g>
						<path class="st1" d="M151.3,109.6l-49.5,16.1c-0.6,0.2-1.2-0.1-1.4-0.7c0-0.1-0.1-0.3-0.1-0.5l0.9-9.8c0-0.4,0.3-0.8,0.8-1
							l49.5-16.1c0.6-0.2,1.2,0.1,1.4,0.7c0,0.1,0.1,0.3,0.1,0.5l-0.9,9.8C152.1,109.1,151.7,109.5,151.3,109.6z"/>
						<path class="st13" d="M102.3,114.3c0,0,7.6,6-0.9,10.3L102.3,114.3z"/>
						
							<rect x="103.3" y="106.4" transform="matrix(0.951 -0.3093 0.3093 0.951 -26.712 44.7873)" class="st14" width="49.1" height="0.5"/>
						
							<rect x="103.8" y="108" transform="matrix(0.951 -0.3093 0.3093 0.951 -27.2285 44.7916)" class="st14" width="47.7" height="0.5"/>
					</g>
					<g>
						<path class="st1" d="M269.6,86.2l50.9,9.4c0.6,0.1,1.2-0.3,1.3-0.9c0-0.2,0-0.3,0-0.5l-2.2-9.5c-0.1-0.4-0.5-0.8-0.9-0.9
							l-50.9-9.4c-0.6-0.1-1.2,0.3-1.3,0.9c0,0.2,0,0.3,0,0.5l2.2,9.5C268.8,85.8,269.1,86.1,269.6,86.2z"/>
						<path class="st13" d="M318.5,84.4c0,0-6.7,6.9,2.2,10.1L318.5,84.4z"/>
						
							<rect x="292" y="55.8" transform="matrix(0.1809 -0.9835 0.9835 0.1809 160.5235 353.1644)" class="st14" width="0.5" height="48.8"/>
						
							<rect x="292.5" y="58.1" transform="matrix(0.1809 -0.9835 0.9835 0.1809 159.3494 354.9021)" class="st14" width="0.5" height="47.4"/>
					</g>
					<g>
						<path class="st1" d="M261.8,92.5l49.5,16.1c0.6,0.2,1.2-0.1,1.4-0.7c0-0.1,0.1-0.3,0.1-0.5l-0.9-9.8c0-0.4-0.3-0.8-0.8-1
							l-49.5-16.1c-0.6-0.2-1.2,0.1-1.4,0.7c0,0.1-0.1,0.3-0.1,0.5l0.9,9.8C261.1,91.9,261.4,92.3,261.8,92.5z"/>
						<path class="st13" d="M310.8,97.1c0,0-7.6,6,0.9,10.3L310.8,97.1z"/>
						
							<rect x="285" y="64.9" transform="matrix(0.3093 -0.951 0.951 0.3093 111.8904 333.0426)" class="st14" width="0.5" height="49.1"/>
						
							<rect x="285.2" y="67.3" transform="matrix(0.3093 -0.951 0.951 0.3093 110.5115 334.4003)" class="st14" width="0.5" height="47.7"/>
					</g>
					<g>
						<path class="st1" d="M308.6,80.7l-40.3,32.9c-0.5,0.4-1.2,0.3-1.6-0.2c-0.1-0.1-0.2-0.3-0.2-0.4l-2.7-9.5
							c-0.1-0.4,0-0.9,0.4-1.2l40.3-32.9c0.5-0.4,1.2-0.3,1.6,0.2c0.1,0.1,0.2,0.3,0.2,0.4l2.7,9.5C309.1,79.9,309,80.4,308.6,80.7z
							"/>
						<path class="st13" d="M264.6,102.8c0,0,9.3,2.8,2.9,10L264.6,102.8z"/>
						
							<rect x="261.2" y="86.2" transform="matrix(0.7746 -0.6324 0.6324 0.7746 9.7573 200.1746)" class="st14" width="49.1" height="0.5"/>
						
							<rect x="262.2" y="87.8" transform="matrix(0.7746 -0.6324 0.6324 0.7746 8.8226 200.765)" class="st14" width="47.7" height="0.5"/>
					</g>
					<g>
						<path class="st1" d="M238.6,82.2l50.9,9.4c0.6,0.1,1.2-0.3,1.3-0.9c0-0.2,0-0.3,0-0.5l-2.2-9.5c-0.1-0.4-0.5-0.8-0.9-0.9
							l-50.9-9.4c-0.6-0.1-1.2,0.3-1.3,0.9c0,0.2,0,0.3,0,0.5l2.2,9.5C237.8,81.8,238.1,82.1,238.6,82.2z"/>
						<path class="st13" d="M287.5,80.4c0,0-6.7,6.9,2.2,10.1L287.5,80.4z"/>
						
							<rect x="261" y="51.8" transform="matrix(0.1809 -0.9835 0.9835 0.1809 139.0639 319.3982)" class="st14" width="0.5" height="48.8"/>
						
							<rect x="261.5" y="54.1" transform="matrix(0.1809 -0.9835 0.9835 0.1809 137.8898 321.1359)" class="st14" width="0.5" height="47.4"/>
					</g>
					<g>
						<path class="st1" d="M230.8,88.5l49.5,16.1c0.6,0.2,1.2-0.1,1.4-0.7c0-0.1,0.1-0.3,0.1-0.5l-0.9-9.8c0-0.4-0.3-0.8-0.8-1
							l-49.5-16.1c-0.6-0.2-1.2,0.1-1.4,0.7c0,0.1-0.1,0.3-0.1,0.5l0.9,9.8C230.1,87.9,230.4,88.3,230.8,88.5z"/>
						<path class="st13" d="M279.8,93.1c0,0-7.6,6,0.9,10.3L279.8,93.1z"/>
						
							<rect x="254" y="60.9" transform="matrix(0.3093 -0.951 0.951 0.3093 94.2831 300.7994)" class="st14" width="0.5" height="49.1"/>
						
							<rect x="254.2" y="63.3" transform="matrix(0.3093 -0.951 0.951 0.3093 92.9032 302.1578)" class="st14" width="0.5" height="47.7"/>
					</g>
					<g>
						<path class="st1" d="M277.6,76.7l-40.3,32.9c-0.5,0.4-1.2,0.3-1.6-0.2c-0.1-0.1-0.2-0.3-0.2-0.4l-2.7-9.5
							c-0.1-0.4,0-0.9,0.4-1.2l40.3-32.9c0.5-0.4,1.2-0.3,1.6,0.2c0.1,0.1,0.2,0.3,0.2,0.4l2.7,9.5C278.1,75.9,278,76.4,277.6,76.7z
							"/>
						<path class="st13" d="M233.6,98.8c0,0,9.3,2.8,2.9,10L233.6,98.8z"/>
						
							<rect x="230.2" y="82.2" transform="matrix(0.7746 -0.6324 0.6324 0.7746 5.3002 179.6673)" class="st14" width="49.1" height="0.5"/>
						
							<rect x="231.3" y="83.8" transform="matrix(0.7746 -0.6324 0.6324 0.7746 4.3649 180.2579)" class="st14" width="47.7" height="0.5"/>
					</g>
					<g>
						<path class="st1" d="M267.1,88.9l-33.5,39.5c-0.4,0.5-1.1,0.5-1.6,0.1c-0.1-0.1-0.2-0.2-0.3-0.4l-4.3-8.8
							c-0.2-0.4-0.1-0.9,0.2-1.2l33.5-39.4c0.4-0.5,1.1-0.5,1.6-0.1c0.1,0.1,0.2,0.2,0.3,0.4l4.3,8.8
							C267.5,88.1,267.4,88.6,267.1,88.9z"/>
						<path class="st13" d="M228,118.4c0,0,9.6,1.1,4.7,9.2L228,118.4z"/>
						
							<rect x="221.3" y="98.4" transform="matrix(0.6474 -0.7621 0.7621 0.6474 11.4853 222.0489)" class="st14" width="48.8" height="0.5"/>
						
							<rect x="222.7" y="99.9" transform="matrix(0.6474 -0.7621 0.7621 0.6474 10.5629 223.0697)" class="st14" width="47.4" height="0.5"/>
					</g>
					<g>
						<path class="st1" d="M277.1,88.8l-28.2,43.8c-0.3,0.5-1,0.7-1.6,0.3c-0.1-0.1-0.2-0.2-0.3-0.3l-5.5-8.2
							c-0.3-0.4-0.3-0.9,0-1.2l28.2-43.8c0.3-0.5,1-0.7,1.6-0.3c0.1,0.1,0.2,0.2,0.3,0.3l5.5,8.2C277.3,87.9,277.4,88.4,277.1,88.8z
							"/>
						<path class="st13" d="M242.1,123.5c0,0,9.7-0.2,5.9,8.6L242.1,123.5z"/>
						
							<rect x="232.5" y="101.1" transform="matrix(0.541 -0.841 0.841 0.541 32.7769 262.7243)" class="st14" width="49.1" height="0.5"/>
						
							<rect x="234.1" y="102.5" transform="matrix(0.541 -0.841 0.841 0.541 31.9611 264.0796)" class="st14" width="47.7" height="0.5"/>
					</g>
					<g>
						<path class="st1" d="M233.4,109.3h52.1c0.6,0,1.1-0.5,1.1-1.1c0-0.2,0-0.3-0.1-0.5l-3.9-9c-0.2-0.4-0.6-0.7-1-0.7h-52.1
							c-0.6,0-1.1,0.5-1.1,1.1c0,0.2,0,0.3,0.1,0.5l3.9,9C232.5,109.1,232.9,109.3,233.4,109.3z"/>
						<path class="st13" d="M281.5,98.6c0,0-5.4,8.1,4,9.6L281.5,98.6z"/>
						<rect x="230.2" y="99" class="st14" width="49.1" height="0.5"/>
						<rect x="231.6" y="100.5" class="st14" width="47.7" height="0.5"/>
					</g>
					<g>
						<path class="st1" d="M238.8,112.6l49.5,16.1c0.6,0.2,1.2-0.1,1.4-0.7c0-0.1,0.1-0.3,0.1-0.5l-0.9-9.8c0-0.4-0.3-0.8-0.8-1
							l-49.5-16.1c-0.6-0.2-1.2,0.1-1.4,0.7c0,0.1-0.1,0.3-0.1,0.5l0.9,9.8C238.1,112.1,238.4,112.5,238.8,112.6z"/>
						<path class="st13" d="M287.9,117.3c0,0-7.6,6,0.9,10.3L287.9,117.3z"/>
						
							<rect x="262" y="85.1" transform="matrix(0.3093 -0.951 0.951 0.3093 76.8636 325.1007)" class="st14" width="0.5" height="49.1"/>
						
							<rect x="262.2" y="87.4" transform="matrix(0.3093 -0.951 0.951 0.3093 75.4847 326.4584)" class="st14" width="0.5" height="47.7"/>
					</g>
					<g>
						<path class="st1" d="M198.9,104.4l41.3,31.2c0.5,0.4,1.2,0.3,1.6-0.2c0.1-0.1,0.2-0.3,0.2-0.4l2.3-9.5
							c0.1-0.4-0.1-0.9-0.4-1.2L202.5,93c-0.5-0.4-1.2-0.3-1.6,0.2c-0.1,0.1-0.2,0.3-0.2,0.4l-2.3,9.5
							C198.4,103.6,198.5,104.1,198.9,104.4z"/>
						<path class="st13" d="M243.5,124.6c0,0-9.1,3.2-2.5,10L243.5,124.6z"/>
						
							<rect x="221.6" y="84.7" transform="matrix(0.6018 -0.7986 0.7986 0.6018 1.1846 220.6612)" class="st14" width="0.5" height="48.8"/>
						
							<rect x="221.3" y="87.1" transform="matrix(0.6018 -0.7986 0.7986 0.6018 -0.22 221.0666)" class="st14" width="0.5" height="47.4"/>
					</g>
					<g>
						<path class="st1" d="M189.1,106.5l37.1,36.6c0.4,0.4,1.2,0.4,1.6,0c0.1-0.1,0.2-0.2,0.2-0.4l3.5-9.2c0.2-0.4,0.1-0.9-0.3-1.2
							l-37.1-36.6c-0.4-0.4-1.2-0.4-1.6,0c-0.1,0.1-0.2,0.2-0.2,0.4l-3.5,9.2C188.7,105.7,188.8,106.1,189.1,106.5z"/>
						<path class="st13" d="M230.9,132.6c0,0-9.5,1.9-3.9,9.6L230.9,132.6z"/>
						
							<rect x="211.2" y="89.7" transform="matrix(0.7021 -0.7121 0.7121 0.7021 -18.3998 184.5801)" class="st14" width="0.5" height="49.1"/>
						
							<rect x="210.7" y="92" transform="matrix(0.7021 -0.7121 0.7121 0.7021 -19.6674 184.6838)" class="st14" width="0.5" height="47.7"/>
					</g>
					<g>
						<path class="st1" d="M236.3,116.9l-50.8,11.4c-0.6,0.1-1.2-0.2-1.4-0.9c0-0.2,0-0.3,0-0.5l1.9-9.7c0.1-0.4,0.4-0.8,0.9-0.9
							l50.8-11.4c0.6-0.1,1.2,0.2,1.4,0.9c0,0.2,0,0.3,0,0.5l-1.9,9.7C237.1,116.4,236.7,116.8,236.3,116.9z"/>
						<path class="st13" d="M187,117c0,0,7.1,6.7-1.8,10.2L187,117z"/>
						
							<rect x="188.7" y="111.5" transform="matrix(0.9757 -0.219 0.219 0.9757 -19.2946 49.4164)" class="st14" width="49.1" height="0.5"/>
						
							<rect x="189" y="113.1" transform="matrix(0.9757 -0.219 0.219 0.9757 -19.6544 49.3682)" class="st14" width="47.7" height="0.5"/>
					</g>
					<g>
						<path class="st1" d="M173,86.9l41.3,31.2c0.5,0.4,1.2,0.3,1.6-0.2c0.1-0.1,0.2-0.3,0.2-0.4l2.3-9.5c0.1-0.4-0.1-0.9-0.4-1.2
							l-41.3-31.2c-0.5-0.4-1.2-0.3-1.6,0.2c-0.1,0.1-0.2,0.3-0.2,0.4l-2.3,9.5C172.4,86.2,172.6,86.6,173,86.9z"/>
						<path class="st13" d="M217.6,107.2c0,0-9.1,3.2-2.5,10L217.6,107.2z"/>
						
							<rect x="195.7" y="67.3" transform="matrix(0.6018 -0.7986 0.7986 0.6018 4.7932 193.0029)" class="st14" width="0.5" height="48.8"/>
						
							<rect x="195.4" y="69.6" transform="matrix(0.6018 -0.7986 0.7986 0.6018 3.3881 193.407)" class="st14" width="0.5" height="47.4"/>
					</g>
					<g>
						<path class="st1" d="M163.2,89l37.1,36.6c0.4,0.4,1.2,0.4,1.6,0c0.1-0.1,0.2-0.2,0.2-0.4l3.5-9.2c0.2-0.4,0.1-0.9-0.3-1.2
							l-37.1-36.6c-0.4-0.4-1.2-0.4-1.6,0c-0.1,0.1-0.2,0.2-0.2,0.4l-3.5,9.2C162.8,88.2,162.9,88.7,163.2,89z"/>
						<path class="st13" d="M205,115.1c0,0-9.5,1.9-3.9,9.6L205,115.1z"/>
						
							<rect x="185.2" y="72.3" transform="matrix(0.7021 -0.7121 0.7121 0.7021 -13.7006 160.9169)" class="st14" width="0.5" height="49.1"/>
						
							<rect x="184.7" y="74.6" transform="matrix(0.7021 -0.7121 0.7121 0.7021 -14.968 161.0199)" class="st14" width="0.5" height="47.7"/>
					</g>
					<g>
						<path class="st1" d="M210.4,99.4l-50.8,11.4c-0.6,0.1-1.2-0.2-1.4-0.9c0-0.2,0-0.3,0-0.5l1.9-9.7c0.1-0.4,0.4-0.8,0.9-0.9
							l50.8-11.4c0.6-0.1,1.2,0.2,1.4,0.9c0,0.2,0,0.3,0,0.5l-1.9,9.7C211.1,99,210.8,99.3,210.4,99.4z"/>
						<path class="st13" d="M161.1,99.5c0,0,7.1,6.7-1.8,10.2L161.1,99.5z"/>
						
							<rect x="162.7" y="94" transform="matrix(0.9757 -0.219 0.219 0.9757 -16.103 43.313)" class="st14" width="49.1" height="0.5"/>
						
							<rect x="163.1" y="95.6" transform="matrix(0.9757 -0.219 0.219 0.9757 -16.4628 43.2648)" class="st14" width="47.7" height="0.5"/>
					</g>
					<g>
						<path class="st1" d="M195.5,105.7l-47.6,20.3c-0.6,0.2-1.2,0-1.5-0.6c-0.1-0.1-0.1-0.3-0.1-0.4l0.1-9.8c0-0.4,0.3-0.9,0.7-1
							l47.6-20.3c0.6-0.2,1.2,0,1.5,0.6c0.1,0.1,0.1,0.3,0.1,0.4l-0.1,9.8C196.2,105.1,195.9,105.5,195.5,105.7z"/>
						<path class="st13" d="M147.3,114.6c0,0,8.1,5.3,0,10.3L147.3,114.6z"/>
						
							<rect x="147.6" y="104.5" transform="matrix(0.92 -0.3919 0.3919 0.92 -27.2984 75.7944)" class="st14" width="48.8" height="0.5"/>
						
							<rect x="148.2" y="106.2" transform="matrix(0.92 -0.3919 0.3919 0.92 -27.9473 75.8859)" class="st14" width="47.4" height="0.5"/>
					</g>
					<g>
						<path class="st1" d="M204.5,110l-44.8,26.6c-0.5,0.3-1.2,0.1-1.6-0.4c-0.1-0.1-0.1-0.3-0.1-0.4l-1.2-9.8
							c-0.1-0.4,0.2-0.9,0.5-1.1l44.8-26.6c0.5-0.3,1.2-0.1,1.6,0.4c0.1,0.1,0.1,0.3,0.1,0.4l1.2,9.8
							C205.1,109.4,204.9,109.8,204.5,110z"/>
						<path class="st13" d="M157.6,125.3c0,0,8.8,4.2,1.4,10.3L157.6,125.3z"/>
						
							<rect x="156.4" y="112" transform="matrix(0.8601 -0.5101 0.5101 0.8601 -31.9649 107.993)" class="st14" width="49.1" height="0.5"/>
						
							<rect x="157.2" y="113.7" transform="matrix(0.8601 -0.5101 0.5101 0.8601 -32.7834 108.2947)" class="st14" width="47.7" height="0.5"/>
					</g>
					<g>
						<path class="st1" d="M156.2,108.8l46.6,23.3c0.6,0.3,1.2,0.1,1.5-0.5c0.1-0.1,0.1-0.3,0.1-0.4l0.5-9.8c0-0.4-0.2-0.9-0.6-1.1
							L157.7,97c-0.6-0.3-1.2-0.1-1.5,0.5c-0.1,0.1-0.1,0.3-0.1,0.4l-0.5,9.8C155.5,108.2,155.8,108.6,156.2,108.8z"/>
						<path class="st13" d="M204,120.7c0,0-8.5,4.8-0.7,10.4L204,120.7z"/>
						
							<rect x="179.5" y="84.8" transform="matrix(0.4474 -0.8943 0.8943 0.4474 1.5311 221.2226)" class="st14" width="0.5" height="49.1"/>
						
							<rect x="179.5" y="87.2" transform="matrix(0.4474 -0.8943 0.8943 0.4474 5.622818e-02 222.1319)" class="st14" width="0.5" height="47.7"/>
					</g>
					<g>
						<path class="st1" d="M159.6,114.2l37.1,36.6c0.4,0.4,1.2,0.4,1.6,0c0.1-0.1,0.2-0.2,0.2-0.4l3.5-9.2c0.2-0.4,0.1-0.9-0.3-1.2
							l-37.1-36.5c-0.4-0.4-1.2-0.4-1.6,0c-0.1,0.1-0.2,0.2-0.2,0.4l-3.5,9.2C159.1,113.4,159.2,113.9,159.6,114.2z"/>
						<path class="st13" d="M201.3,140.3c0,0-9.5,1.9-3.9,9.6L201.3,140.3z"/>
						
							<rect x="181.6" y="97.4" transform="matrix(0.7021 -0.7121 0.7121 0.7021 -32.7106 165.8317)" class="st14" width="0.5" height="49.1"/>
						
							<rect x="181.1" y="99.8" transform="matrix(0.7021 -0.7121 0.7121 0.7021 -33.9784 165.9351)" class="st14" width="0.5" height="47.7"/>
					</g>
					<g>
						<path class="st1" d="M161.9,67.4l41.3,31.2c0.5,0.4,1.2,0.3,1.6-0.2c0.1-0.1,0.2-0.3,0.2-0.4l2.3-9.5c0.1-0.4-0.1-0.9-0.4-1.2
							L165.5,56c-0.5-0.4-1.2-0.3-1.6,0.2c-0.1,0.1-0.2,0.3-0.2,0.4l-2.3,9.5C161.4,66.6,161.5,67.1,161.9,67.4z"/>
						<path class="st13" d="M206.5,87.6c0,0-9.1,3.2-2.5,10L206.5,87.6z"/>
						
							<rect x="184.6" y="47.7" transform="matrix(0.6018 -0.7986 0.7986 0.6018 16.0017 176.379)" class="st14" width="0.5" height="48.8"/>
						
							<rect x="184.3" y="50.1" transform="matrix(0.6018 -0.7986 0.7986 0.6018 14.5971 176.7844)" class="st14" width="0.5" height="47.4"/>
					</g>
					<g>
						<path class="st1" d="M152.1,69.5l37.1,36.6c0.4,0.4,1.2,0.4,1.6,0c0.1-0.1,0.2-0.2,0.2-0.4l3.5-9.2c0.2-0.4,0.1-0.9-0.3-1.2
							l-37.1-36.6c-0.4-0.4-1.2-0.4-1.6,0c-0.1,0.1-0.2,0.2-0.2,0.4l-3.5,9.2C151.7,68.7,151.8,69.1,152.1,69.5z"/>
						<path class="st13" d="M193.9,95.6c0,0-9.5,1.9-3.9,9.6L193.9,95.6z"/>
						
							<rect x="174.2" y="52.7" transform="matrix(0.7021 -0.7121 0.7121 0.7021 -3.0749 147.213)" class="st14" width="0.5" height="49.1"/>
						
							<rect x="173.7" y="55" transform="matrix(0.7021 -0.7121 0.7121 0.7021 -4.3429 147.3176)" class="st14" width="0.5" height="47.7"/>
					</g>
					<g>
						<path class="st1" d="M199.3,79.9l-50.8,11.4c-0.6,0.1-1.2-0.2-1.4-0.9c0-0.2,0-0.3,0-0.5l1.9-9.7c0.1-0.4,0.4-0.8,0.9-0.9
							L200.7,68c0.6-0.1,1.2,0.2,1.4,0.9c0,0.2,0,0.3,0,0.5l-1.9,9.7C200.1,79.4,199.7,79.8,199.3,79.9z"/>
						<path class="st13" d="M150,80c0,0,7.1,6.7-1.8,10.2L150,80z"/>
						
							<rect x="151.7" y="74.5" transform="matrix(0.9757 -0.219 0.219 0.9757 -12.0896 40.4146)" class="st14" width="49.1" height="0.5"/>
						
							<rect x="152" y="76.1" transform="matrix(0.9757 -0.219 0.219 0.9757 -12.4494 40.3665)" class="st14" width="47.7" height="0.5"/>
					</g>
					<g>
						<path class="st1" d="M136,49.9l41.3,31.2c0.5,0.4,1.2,0.3,1.6-0.2c0.1-0.1,0.2-0.3,0.2-0.4l2.3-9.5c0.1-0.4-0.1-0.9-0.4-1.2
							l-41.3-31.2c-0.5-0.4-1.2-0.3-1.6,0.2c-0.1,0.1-0.2,0.3-0.2,0.4l-2.3,9.5C135.4,49.2,135.6,49.6,136,49.9z"/>
						<path class="st13" d="M180.6,70.2c0,0-9.1,3.2-2.5,10L180.6,70.2z"/>
						
							<rect x="158.7" y="30.3" transform="matrix(0.6018 -0.7986 0.7986 0.6018 19.6103 148.7207)" class="st14" width="0.5" height="48.8"/>
						
							<rect x="158.4" y="32.6" transform="matrix(0.6018 -0.7986 0.7986 0.6018 18.2044 149.1252)" class="st14" width="0.5" height="47.4"/>
					</g>
					<g>
						<path class="st1" d="M126.2,52l37.1,36.6c0.4,0.4,1.2,0.4,1.6,0c0.1-0.1,0.2-0.2,0.2-0.4l3.5-9.2c0.2-0.4,0.1-0.9-0.3-1.2
							l-37.1-36.6c-0.4-0.4-1.2-0.4-1.6,0c-0.1,0.1-0.2,0.2-0.2,0.4l-3.5,9.2C125.8,51.2,125.9,51.7,126.2,52z"/>
						<path class="st13" d="M168,78.1c0,0-9.5,1.9-3.9,9.6L168,78.1z"/>
						
							<rect x="148.2" y="35.3" transform="matrix(0.7021 -0.7121 0.7121 0.7021 1.6243 123.5497)" class="st14" width="0.5" height="49.1"/>
						
							<rect x="147.7" y="37.6" transform="matrix(0.7021 -0.7121 0.7121 0.7021 0.3562 123.653)" class="st14" width="0.5" height="47.7"/>
					</g>
					<g>
						<path class="st1" d="M173.4,62.4l-50.8,11.4c-0.6,0.1-1.2-0.2-1.4-0.9c0-0.2,0-0.3,0-0.5l1.9-9.7c0.1-0.4,0.4-0.8,0.9-0.9
							l50.8-11.4c0.6-0.1,1.2,0.2,1.4,0.9c0,0.2,0,0.3,0,0.5l-1.9,9.7C174.1,62,173.8,62.3,173.4,62.4z"/>
						<path class="st13" d="M124.1,62.5c0,0,7.1,6.7-1.8,10.2L124.1,62.5z"/>
						
							<rect x="125.7" y="57" transform="matrix(0.9757 -0.219 0.219 0.9757 -8.898 34.3112)" class="st14" width="49.1" height="0.5"/>
						
							<rect x="126.1" y="58.6" transform="matrix(0.9757 -0.219 0.219 0.9757 -9.2578 34.2631)" class="st14" width="47.7" height="0.5"/>
					</g>
					<g>
						<path class="st1" d="M158.5,68.7l-47.6,20.3c-0.6,0.2-1.2,0-1.5-0.6c-0.1-0.1-0.1-0.3-0.1-0.4l0.1-9.8c0-0.4,0.3-0.9,0.7-1
							l47.6-20.3c0.6-0.2,1.2,0,1.5,0.6c0.1,0.1,0.1,0.3,0.1,0.4l-0.1,9.8C159.2,68.1,158.9,68.5,158.5,68.7z"/>
						<path class="st13" d="M110.3,77.6c0,0,8.1,5.3,0,10.3L110.3,77.6z"/>
						
							<rect x="110.6" y="67.5" transform="matrix(0.92 -0.3919 0.3919 0.92 -15.7587 58.3355)" class="st14" width="48.8" height="0.5"/>
						
							<rect x="111.2" y="69.2" transform="matrix(0.92 -0.3919 0.3919 0.92 -16.4071 58.4273)" class="st14" width="47.4" height="0.5"/>
					</g>
					<g>
						<path class="st1" d="M167.5,73l-44.8,26.6c-0.5,0.3-1.2,0.1-1.6-0.4c-0.1-0.1-0.1-0.3-0.1-0.4l-1.2-9.8
							c-0.1-0.4,0.2-0.9,0.5-1.1l44.8-26.6c0.5-0.3,1.2-0.1,1.6,0.4c0.1,0.1,0.1,0.3,0.1,0.4l1.2,9.8
							C168.1,72.4,167.9,72.8,167.5,73z"/>
						<path class="st13" d="M120.6,88.3c0,0,8.8,4.2,1.4,10.3L120.6,88.3z"/>
						
							<rect x="119.4" y="75" transform="matrix(0.8601 -0.5101 0.5101 0.8601 -18.2672 83.9493)" class="st14" width="49.1" height="0.5"/>
						
							<rect x="120.2" y="76.7" transform="matrix(0.8601 -0.5101 0.5101 0.8601 -19.0858 84.2468)" class="st14" width="47.7" height="0.5"/>
					</g>
					<g>
						<path class="st1" d="M119.2,71.8l46.6,23.3c0.6,0.3,1.2,0.1,1.5-0.5c0.1-0.1,0.1-0.3,0.1-0.4l0.5-9.8c0-0.4-0.2-0.9-0.6-1.1
							L120.7,60c-0.6-0.3-1.2-0.1-1.5,0.5c-0.1,0.1-0.1,0.3-0.1,0.4l-0.5,9.8C118.5,71.2,118.8,71.6,119.2,71.8z"/>
						<path class="st13" d="M167,83.7c0,0-8.5,4.8-0.7,10.4L167,83.7z"/>
						
							<rect x="142.5" y="47.8" transform="matrix(0.4474 -0.8943 0.8943 0.4474 14.1761 167.6886)" class="st14" width="0.5" height="49.1"/>
						
							<rect x="142.5" y="50.2" transform="matrix(0.4474 -0.8943 0.8943 0.4474 12.7018 168.5988)" class="st14" width="0.5" height="47.7"/>
					</g>
					<g>
						<path class="st1" d="M122.6,77.2l37.1,36.6c0.4,0.4,1.2,0.4,1.6,0c0.1-0.1,0.2-0.2,0.2-0.4l3.5-9.2c0.2-0.4,0.1-0.9-0.3-1.2
							l-37.1-36.6c-0.4-0.4-1.2-0.4-1.6,0c-0.1,0.1-0.2,0.2-0.2,0.4l-3.5,9.2C122.1,76.4,122.2,76.9,122.6,77.2z"/>
						<path class="st13" d="M164.3,103.3c0,0-9.5,1.9-3.9,9.6L164.3,103.3z"/>
						
							<rect x="144.6" y="60.4" transform="matrix(0.7021 -0.7121 0.7121 0.7021 -17.3857 128.4646)" class="st14" width="0.5" height="49.1"/>
						
							<rect x="144.1" y="62.8" transform="matrix(0.7021 -0.7121 0.7121 0.7021 -18.6535 128.568)" class="st14" width="0.5" height="47.7"/>
					</g>
					<g>
						<path class="st1" d="M228.9,62.4l41.3,31.2c0.5,0.4,1.2,0.3,1.6-0.2c0.1-0.1,0.2-0.3,0.2-0.4l2.3-9.5c0.1-0.4-0.1-0.9-0.4-1.2
							L232.5,51c-0.5-0.4-1.2-0.3-1.6,0.2c-0.1,0.1-0.2,0.3-0.2,0.4l-2.3,9.5C228.4,61.6,228.5,62.1,228.9,62.4z"/>
						<path class="st13" d="M273.5,82.6c0,0-9.1,3.2-2.5,10L273.5,82.6z"/>
						
							<rect x="251.6" y="42.7" transform="matrix(0.6018 -0.7986 0.7986 0.6018 46.673 227.8971)" class="st14" width="0.5" height="48.8"/>
						
							<rect x="251.3" y="45.1" transform="matrix(0.6018 -0.7986 0.7986 0.6018 45.268 228.3018)" class="st14" width="0.5" height="47.4"/>
					</g>
					<g>
						<path class="st1" d="M219.1,64.5l37.1,36.6c0.4,0.4,1.2,0.4,1.6,0c0.1-0.1,0.2-0.2,0.2-0.4l3.5-9.2c0.2-0.4,0.1-0.9-0.3-1.2
							l-37.1-36.6c-0.4-0.4-1.2-0.4-1.6,0c-0.1,0.1-0.2,0.2-0.2,0.4l-3.5,9.2C218.7,63.7,218.8,64.1,219.1,64.5z"/>
						<path class="st13" d="M260.9,90.6c0,0-9.5,1.9-3.9,9.6L260.9,90.6z"/>
						
							<rect x="241.2" y="47.7" transform="matrix(0.7021 -0.7121 0.7121 0.7021 20.4423 193.4312)" class="st14" width="0.5" height="49.1"/>
						
							<rect x="240.7" y="50" transform="matrix(0.7021 -0.7121 0.7121 0.7021 19.1747 193.5349)" class="st14" width="0.5" height="47.7"/>
					</g>
					<g>
						<path class="st1" d="M266.3,74.9l-50.8,11.4c-0.6,0.1-1.2-0.2-1.4-0.9c0-0.2,0-0.3,0-0.5l1.9-9.7c0.1-0.4,0.4-0.8,0.9-0.9
							L267.7,63c0.6-0.1,1.2,0.2,1.4,0.9c0,0.2,0,0.3,0,0.5l-1.9,9.7C267.1,74.4,266.7,74.8,266.3,74.9z"/>
						<path class="st13" d="M217,75c0,0,7.1,6.7-1.8,10.2L217,75z"/>
						
							<rect x="218.7" y="69.5" transform="matrix(0.9757 -0.219 0.219 0.9757 -9.3678 54.9671)" class="st14" width="49.1" height="0.5"/>
						
							<rect x="219" y="71.1" transform="matrix(0.9757 -0.219 0.219 0.9757 -9.7277 54.9189)" class="st14" width="47.7" height="0.5"/>
					</g>
					<g>
						<path class="st1" d="M203,44.9l41.3,31.2c0.5,0.4,1.2,0.3,1.6-0.2c0.1-0.1,0.2-0.3,0.2-0.4l2.3-9.5c0.1-0.4-0.1-0.9-0.4-1.2
							l-41.3-31.2c-0.5-0.4-1.2-0.3-1.6,0.2c-0.1,0.1-0.2,0.3-0.2,0.4l-2.3,9.5C202.4,44.2,202.6,44.6,203,44.9z"/>
						<path class="st13" d="M247.6,65.2c0,0-9.1,3.2-2.5,10L247.6,65.2z"/>
						
							<rect x="225.7" y="25.3" transform="matrix(0.6018 -0.7986 0.7986 0.6018 50.2811 200.2381)" class="st14" width="0.5" height="48.8"/>
						
							<rect x="225.4" y="27.6" transform="matrix(0.6018 -0.7986 0.7986 0.6018 48.8764 200.643)" class="st14" width="0.5" height="47.4"/>
					</g>
					<g>
						<path class="st1" d="M193.2,47l37.1,36.6c0.4,0.4,1.2,0.4,1.6,0c0.1-0.1,0.2-0.2,0.2-0.4l3.5-9.2c0.2-0.4,0.1-0.9-0.3-1.2
							l-37.1-36.6c-0.4-0.4-1.2-0.4-1.6,0c-0.1,0.1-0.2,0.2-0.2,0.4l-3.5,9.2C192.8,46.2,192.9,46.7,193.2,47z"/>
						<path class="st13" d="M235,73.1c0,0-9.5,1.9-3.9,9.6L235,73.1z"/>
						
							<rect x="215.2" y="30.3" transform="matrix(0.7021 -0.7121 0.7121 0.7021 25.1415 169.7679)" class="st14" width="0.5" height="49.1"/>
						
							<rect x="214.7" y="32.6" transform="matrix(0.7021 -0.7121 0.7121 0.7021 23.8741 169.8709)" class="st14" width="0.5" height="47.7"/>
					</g>
					<g>
						<path class="st1" d="M240.4,57.4l-50.8,11.4c-0.6,0.1-1.2-0.2-1.4-0.9c0-0.2,0-0.3,0-0.5l1.9-9.7c0.1-0.4,0.4-0.8,0.9-0.9
							l50.8-11.4c0.6-0.1,1.2,0.2,1.4,0.9c0,0.2,0,0.3,0,0.5l-1.9,9.7C241.1,57,240.8,57.3,240.4,57.4z"/>
						<path class="st13" d="M191.1,57.5c0,0,7.1,6.7-1.8,10.2L191.1,57.5z"/>
						
							<rect x="192.7" y="52" transform="matrix(0.9757 -0.219 0.219 0.9757 -6.176 48.8635)" class="st14" width="49.1" height="0.5"/>
						
							<rect x="193.1" y="53.6" transform="matrix(0.9757 -0.219 0.219 0.9757 -6.5358 48.8155)" class="st14" width="47.7" height="0.5"/>
					</g>
					<g>
						<path class="st1" d="M225.5,63.7l-47.6,20.3c-0.6,0.2-1.2,0-1.5-0.6c-0.1-0.1-0.1-0.3-0.1-0.4l0.1-9.8c0-0.4,0.3-0.9,0.7-1
							l47.6-20.3c0.6-0.2,1.2,0,1.5,0.6c0.1,0.1,0.1,0.3,0.1,0.4l-0.1,9.8C226.2,63.1,225.9,63.5,225.5,63.7z"/>
						<path class="st13" d="M177.3,72.6c0,0,8.1,5.3,0,10.3L177.3,72.6z"/>
						
							<rect x="177.6" y="62.5" transform="matrix(0.92 -0.3919 0.3919 0.92 -8.4405 84.191)" class="st14" width="48.8" height="0.5"/>
						
							<rect x="178.2" y="64.2" transform="matrix(0.92 -0.3919 0.3919 0.92 -9.0893 84.2829)" class="st14" width="47.4" height="0.5"/>
					</g>
					<g>
						<path class="st1" d="M234.5,68l-44.8,26.6c-0.5,0.3-1.2,0.1-1.6-0.4c-0.1-0.1-0.1-0.3-0.1-0.4l-1.2-9.8
							c-0.1-0.4,0.2-0.9,0.5-1.1l44.8-26.6c0.5-0.3,1.2-0.1,1.6,0.4c0.1,0.1,0.1,0.3,0.1,0.4l1.2,9.8
							C235.1,67.4,234.9,67.8,234.5,68z"/>
						<path class="st13" d="M187.6,83.3c0,0,8.8,4.2,1.4,10.3L187.6,83.3z"/>
						
							<rect x="186.4" y="70" transform="matrix(0.8601 -0.5101 0.5101 0.8601 -6.3498 117.4213)" class="st14" width="49.1" height="0.5"/>
						
							<rect x="187.2" y="71.7" transform="matrix(0.8601 -0.5101 0.5101 0.8601 -7.1641 117.7227)" class="st14" width="47.7" height="0.5"/>
					</g>
					<g>
						<path class="st1" d="M186.2,66.8l46.6,23.3c0.6,0.3,1.2,0.1,1.5-0.5c0.1-0.1,0.1-0.3,0.1-0.4l0.5-9.8c0-0.4-0.2-0.9-0.6-1.1
							L187.7,55c-0.6-0.3-1.2-0.1-1.5,0.5c-0.1,0.1-0.1,0.3-0.1,0.4l-0.5,9.8C185.5,66.2,185.8,66.6,186.2,66.8z"/>
						<path class="st13" d="M234,78.7c0,0-8.5,4.8-0.7,10.4L234,78.7z"/>
						
							<rect x="209.5" y="42.8" transform="matrix(0.4474 -0.8943 0.8943 0.4474 55.6681 224.8449)" class="st14" width="0.5" height="49.1"/>
						
							<rect x="209.5" y="45.2" transform="matrix(0.4474 -0.8943 0.8943 0.4474 54.1947 225.7545)" class="st14" width="0.5" height="47.7"/>
					</g>
					<g>
						<path class="st1" d="M189.6,72.2l37.1,36.6c0.4,0.4,1.2,0.4,1.6,0c0.1-0.1,0.2-0.2,0.2-0.4l3.5-9.2c0.2-0.4,0.1-0.9-0.3-1.2
							l-37.1-36.6c-0.4-0.4-1.2-0.4-1.6,0c-0.1,0.1-0.2,0.2-0.2,0.4l-3.5,9.2C189.1,71.4,189.2,71.9,189.6,72.2z"/>
						<path class="st13" d="M231.3,98.3c0,0-9.5,1.9-3.9,9.6L231.3,98.3z"/>
						
							<rect x="211.6" y="55.4" transform="matrix(0.7021 -0.7121 0.7121 0.7021 6.1315 174.6828)" class="st14" width="0.5" height="49.1"/>
						
							<rect x="211.1" y="57.8" transform="matrix(0.7021 -0.7121 0.7121 0.7021 4.8637 174.7862)" class="st14" width="0.5" height="47.7"/>
					</g>
				</g>
				<path class="st15" d="M104.2,53.3c0,0-49.9,24.7,8.4,35.9c0,0,6.6,23.3,42.3,7.3c0,0,36.9,25.4,58-4.5
					c8.3,9.7,20.8,14.8,33.5,13.8c0,0,34.5-1.9,28.9-17c0,0,22.6-5.3,9.7-17.1c0,0-9.6-15.4-25.3-10.4c0,0-20.7-19.7-58.6-11.8
					c0,0-23.6-13.9-51.8-2.8C149.3,46.7,120.7,34.1,104.2,53.3z"/>
				<path class="st4" d="M104.2,49.7c0,0-49.9,25.5,8.4,37c0,0,6.6,24,42.3,7.4c0,0,36.8,26.2,58-4.7c0,0,12,16,33.5,14.2
					c0,0,34.5-2,28.9-17.5c0,0,22.6-5.5,9.7-17.7c0,0-9.6-15.9-25.3-10.7c0,0-20.7-20.3-58.6-12.1c0,0-23.6-14.3-51.8-2.8
					C149.3,42.8,120.7,29.9,104.2,49.7z"/>
				<ellipse class="st16" cx="134.5" cy="58.4" rx="17" ry="11"/>
				<ellipse class="st16" cx="183.5" cy="82.4" rx="17" ry="11"/>
				<ellipse class="st16" cx="229.5" cy="57.4" rx="17" ry="11"/>
				<ellipse class="st3" cx="134.5" cy="51.4" rx="17" ry="16"/>
				<ellipse class="st3" cx="183.5" cy="74.9" rx="16" ry="16.5"/>
				
					<ellipse transform="matrix(0.3093 -0.951 0.951 0.3093 110.0663 253.4309)" class="st3" cx="229.5" cy="50.9" rx="15.5" ry="17"/>
				<ellipse class="st17" cx="134.5" cy="50.9" rx="14" ry="14.4"/>
				
					<ellipse transform="matrix(0.6018 -0.7986 0.7986 0.6018 22.4081 129.6299)" class="st18" cx="141.2" cy="42.3" rx="2.9" ry="5.3"/>
				<ellipse class="st17" cx="229.5" cy="50.9" rx="14" ry="14.4"/>
				<ellipse class="st17" cx="183.5" cy="74.9" rx="14" ry="14.4"/>
				
					<ellipse transform="matrix(0.6018 -0.7986 0.7986 0.6018 23.5533 175.9249)" class="st18" cx="188.2" cy="64.3" rx="2.9" ry="5.3"/>
				
					<ellipse transform="matrix(0.6018 -0.7986 0.7986 0.6018 60.6343 206.2979)" class="st18" cx="237.2" cy="42.3" rx="2.9" ry="5.3"/>
				
					<ellipse transform="matrix(0.6018 -0.7986 0.7986 0.6018 55.7542 212.1127)" class="st16" cx="240.6" cy="50.1" rx="1.7" ry="3.9"/>
				
					<ellipse transform="matrix(0.6018 -0.7986 0.7986 0.6018 19.4692 183.3378)" class="st16" cx="193.6" cy="72.1" rx="1.7" ry="3.9"/>
				
					<ellipse transform="matrix(0.6018 -0.7986 0.7986 0.6018 17.9266 136.243)" class="st16" cx="145.6" cy="50.1" rx="1.7" ry="3.9"/>
				<ellipse class="st19" cx="98.5" cy="61.4" rx="6" ry="1"/>
				<circle class="st19" cx="152" cy="67.9" r="1.5"/>
				<ellipse class="st19" cx="163.5" cy="85.9" rx="2" ry="2.5"/>
				<ellipse class="st19" cx="166.5" cy="89.9" rx="1" ry="0.5"/>
				<ellipse class="st19" cx="213.5" cy="66.4" rx="3" ry="2"/>
				<ellipse class="st19" cx="220.5" cy="69.9" rx="3" ry="1.5"/>
				<ellipse class="st19" cx="253.5" cy="59.9" rx="3" ry="1.5"/>
				<ellipse class="st5" cx="121.5" cy="70.4" rx="3" ry="1"/>
				<ellipse class="st5" cx="126" cy="73.4" rx="3.5" ry="1"/>
			</g>
		</g>
	</g>
</g>
</svg>
