<svg xmlns="http://www.w3.org/2000/svg" width="274" height="248" viewBox="0 0 274 248">
  <g id="Layer_2" data-name="Layer 2">
    <g id="Layer_2-2" data-name="Layer 2">
      <g>
        <g>
          <g>
            <path d="M134.9,142h96.218A21.885,21.885,0,0,1,253,163.885V208.2A24.8,24.8,0,0,1,228.2,233H114a0,0,0,0,1,0,0V162.9A20.9,20.9,0,0,1,134.9,142Z" fill="#6acc42"/>
            <path d="M230.627,142h-2.71v59.323A10.925,10.925,0,0,1,216.759,212H153.714v21h73.932c14,0,25.354-10.861,25.354-24.259V163.407C253,151.584,242.983,142,230.627,142Z" fill="#70a80f"/>
          </g>
          <path d="M213.5,73.5V92.7a10.5,10.5,0,1,0,21,0V80.506a7.006,7.006,0,0,0-7.006-7.006Z" fill="#e09558"/>
          <path d="M166,116h34a0,0,0,0,1,0,0v26.2a5.8,5.8,0,0,1-5.8,5.8H171.8a5.8,5.8,0,0,1-5.8-5.8V116A0,0,0,0,1,166,116Z" fill="#e09558"/>
          <path d="M154.5,73.5V92.7a10.5,10.5,0,1,1-21,0V80.506a7.006,7.006,0,0,1,7.006-7.006Z" fill="#e09558"/>
          <path d="M148.5,38.5v64c0,19.882,15.67,36,35,36s35-16.118,35-36v-64Z" fill="#c6814e"/>
          <path d="M183.5,38.5v100c19.33,0,35-16.118,35-36v-64Z" fill="#e09558"/>
          <rect y="233" width="274" height="15" rx="7.5" fill="#f4d8ab"/>
          <g>
            <rect x="5" y="85" width="170" height="116" rx="13.399" fill="#c6c6c6"/>
            <path d="M105.188,156H75.712a8.665,8.665,0,0,0-8.607,7.66L60.13,223.328A8.666,8.666,0,0,0,68.737,233h42.65a8.666,8.666,0,0,0,8.62-9.561l-6.2-59.669A8.665,8.665,0,0,0,105.188,156Z" fill="#9e9e9e"/>
          </g>
          <path d="M189.982,30a8.99,8.99,0,0,0,.612-14.535A9,9,0,0,0,193,9.375C193,4.2,188.523,0,183,0a10.115,10.115,0,0,0-8.766,4.864A10.373,10.373,0,0,0,168,2.813a9.894,9.894,0,0,0-9.691,7.1A10.54,10.54,0,0,0,155,9.375c-5.523,0-10,4.2-10,9.375,0,.016,0,.031,0,.047-6.16.477-11,5.305-11,11.2a10.605,10.605,0,0,0,1.212,4.9A10.985,10.985,0,0,0,126,45.469a10.375,10.375,0,0,0,3.072,7.317A9.285,9.285,0,0,0,124,60.938c0,5.177,4.477,9.375,10,9.375.258,0,.511-.019.764-.037A11.176,11.176,0,0,0,144,75c6.075,0,11-4.617,11-10.312a9.767,9.767,0,0,0-1.556-5.268A9.234,9.234,0,0,0,158,51.563c0-.143-.016-.282-.023-.423a9.774,9.774,0,0,0,6.392-5.7,10.463,10.463,0,0,0,13.719-.392A10.385,10.385,0,0,0,184,46.875c5.523,0,10-4.2,10-9.375A9.173,9.173,0,0,0,189.982,30Z" fill="#6d3400"/>
          <path d="M179.018,30a8.99,8.99,0,0,1-.612-14.535A9,9,0,0,1,176,9.375C176,4.2,180.477,0,186,0a10.115,10.115,0,0,1,8.766,4.864A10.373,10.373,0,0,1,201,2.813a9.894,9.894,0,0,1,9.691,7.1A10.54,10.54,0,0,1,214,9.375c5.523,0,10,4.2,10,9.375,0,.016,0,.031,0,.047,6.16.477,11,5.305,11,11.2a10.605,10.605,0,0,1-1.212,4.9A10.985,10.985,0,0,1,243,45.469a10.375,10.375,0,0,1-3.072,7.317A9.285,9.285,0,0,1,245,60.938c0,5.177-4.477,9.375-10,9.375-.258,0-.511-.019-.764-.037A11.176,11.176,0,0,1,225,75c-6.075,0-11-4.617-11-10.312a9.767,9.767,0,0,1,1.556-5.268A9.234,9.234,0,0,1,211,51.563c0-.143.016-.282.023-.423a9.772,9.772,0,0,1-6.392-5.7,10.466,10.466,0,0,1-13.719-.392A10.385,10.385,0,0,1,185,46.875c-5.523,0-10-4.2-10-9.375A9.173,9.173,0,0,1,179.018,30Z" fill="#6d3400"/>
        </g>
        <g id="Layer_2-3" data-name="Layer 2">
          <g id="Layer_24" data-name="Layer 24">
            <g>
              <g>
                <ellipse cx="209.016" cy="222.541" rx="60.733" ry="21.974" fill="#ccc"/>
                <ellipse cx="209.016" cy="221.095" rx="60.733" ry="21.974" fill="#fff"/>
              </g>
              <ellipse cx="209.016" cy="220.312" rx="56.379" ry="20.399" fill="#ccc" opacity="0.45" style="isolation: isolate"/>
              <path d="M265.955,218.992l-.965-3.735a.47.47,0,0,0-.388-.333l-4.934-.816.563-.412a.418.418,0,0,0,.162-.463l-1.163-3.712a.5.5,0,0,0-.608-.3.546.546,0,0,0-.176.082l-5.124,3.761-6.465-1.069a.4.4,0,0,0,.044-.322l-1.164-3.712a.5.5,0,0,0-.608-.3.512.512,0,0,0-.175.082l-2.444,1.793.479-2.237a.448.448,0,0,0-.391-.518.56.56,0,0,0-.2,0l-6.455,1.3-5.25-3.556a.436.436,0,0,0,.2-.274l.808-3.787a.447.447,0,0,0-.392-.518.518.518,0,0,0-.2,0l-6.461,1.3-8.838-5.987a.525.525,0,0,0-.685.087.415.415,0,0,0-.085.162l-.71,2.653-2.119-1.878a.532.532,0,0,0-.7,0,.442.442,0,0,0-.108.151l-1.545,3.6a.412.412,0,0,0,.114.475l3.4,3.009-4.149.837-1.633-.737a.52.52,0,0,0-.66.2.4.4,0,0,0-.052.174l-.23,3.851a.438.438,0,0,0,.271.42l.649.292-1.9.727-4.148-2.81a.44.44,0,0,0,.2-.274l.808-3.788a.448.448,0,0,0-.391-.518.56.56,0,0,0-.2,0l-6.453,1.3-8.838-5.986a.526.526,0,0,0-.685.087.415.415,0,0,0-.085.162l-.71,2.653-2.119-1.879a.534.534,0,0,0-.7.005.446.446,0,0,0-.108.152L180.69,202a.411.411,0,0,0,.114.474l3.4,3.01-4.149.837-1.633-.737a.517.517,0,0,0-.66.2.4.4,0,0,0-.052.174l-.079,1.341-1-.735a.531.531,0,0,0-.692.064.43.43,0,0,0-.091.159l-1.165,3.71a.4.4,0,0,0,.044.322l-6.467,1.069-5.125-3.759a.53.53,0,0,0-.692.065.419.419,0,0,0-.091.158l-1.165,3.71a.418.418,0,0,0,.162.463l.562.412-4.933.816a.47.47,0,0,0-.388.333l-.965,3.735a.441.441,0,0,0,.366.528.538.538,0,0,0,.2,0l10.692-1.767.236.173-6.823,2a.456.456,0,0,0-.338.379l-.409,3.839a.457.457,0,0,0,.443.482.534.534,0,0,0,.2-.02l11.459-3.35.6.441-1.252,2.587a.427.427,0,0,0,.255.583.545.545,0,0,0,.2.036h5.171l1.03.755-7.349,2.148a.457.457,0,0,0-.338.379l-.409,3.839a.457.457,0,0,0,.442.482.542.542,0,0,0,.2-.02l13.274-3.879,3.868,5.4a.526.526,0,0,0,.68.133.483.483,0,0,0,.143-.126l1.408-1.894V231a.466.466,0,0,0,.486.443.556.556,0,0,0,.2-.035l2.923-1.119.84.887a.5.5,0,0,0,.118.089.4.4,0,0,0-.014.16l.536,3.827a.485.485,0,0,0,.55.384.547.547,0,0,0,.19-.059l6.149-3.278,9.94,8.81a.533.533,0,0,0,.7,0,.436.436,0,0,0,.109-.152l1.544-3.6a.409.409,0,0,0-.114-.474l-5.5-4.874,1.3-.262,4.623,2.08a.521.521,0,0,0,.661-.2.416.416,0,0,0,.051-.174l.168-2.818.758-.152,8.58,7.6a.532.532,0,0,0,.7,0,.459.459,0,0,0,.109-.151l1.544-3.6a.412.412,0,0,0-.113-.475l-5.109-4.527.3-.061,8.683,5.881a.526.526,0,0,0,.686-.087.432.432,0,0,0,.085-.161l.754-2.823,1.443,1.941a.528.528,0,0,0,.683.122.478.478,0,0,0,.14-.128l3.868-5.405,13.274,3.88a.506.506,0,0,0,.621-.283.406.406,0,0,0,.022-.179l-.41-3.839a.456.456,0,0,0-.338-.379l-7.348-2.149,1.03-.756h5.17a.47.47,0,0,0,.493-.442.406.406,0,0,0-.041-.177l-1.253-2.587.6-.44,11.458,3.35a.505.505,0,0,0,.621-.284.4.4,0,0,0,.022-.179l-.41-3.839a.455.455,0,0,0-.338-.378l-6.823-2,.237-.173,10.692,1.767a.489.489,0,0,0,.57-.354A.392.392,0,0,0,265.955,218.992Zm-46.548-5.106-.006.029-.071-.063Zm-23.5,6.8.366-.756a.426.426,0,0,0-.255-.582.546.546,0,0,0-.2-.037h-1.711l-2.01-1.782,1.3-.262,4.624,2.08a.518.518,0,0,0,.66-.2.4.4,0,0,0,.052-.174l.023-.388,1.554,1.377-4.149.837Zm30.865-.236-5.5-4.877,1.3-.262,4.624,2.079a.516.516,0,0,0,.657-.2l0-.007,3.023.884-3.294,2.416H226.8Zm-.671,2.3.491,1.018-1.015.205Zm-8.472-1.79a.443.443,0,0,0,.2-.274l.352-1.648,5.905,5.234-1.2.243Zm12.625,8.552,2.37-2.507.65.19-2.1,2.938Zm-50.024-5.781-.095.028.008-.028Zm9.365,3.436-.006.654-1.288-1.8.653-.191.9.956A.433.433,0,0,0,189.592,227.164Zm7.832,1.493.487.43-2.83,1.508.721-1.319Zm8.845,1.63.077.035-.006.028Zm35.075-5.385h.088l.008.028Z" fill="#963" opacity="0.32" style="isolation: isolate"/>
              <g>
                <g>
                  <path d="M178.346,213.512l-22.165,3.664a.489.489,0,0,1-.571-.353.4.4,0,0,1,0-.179l.965-3.735a.47.47,0,0,1,.388-.333l22.166-3.664a.488.488,0,0,1,.57.352.391.391,0,0,1,0,.18l-.965,3.735A.469.469,0,0,1,178.346,213.512Z" fill="#fc6"/>
                  <path d="M157.035,212.792s2.938,2.706-.964,3.945Z" fill="#963"/>
                  <polygon points="157.985 212.796 178.9 209.339 178.938 209.527 158.024 212.984 157.985 212.796" fill="#963" opacity="0.59" style="isolation: isolate"/>
                  <polygon points="158.101 213.361 178.388 210.007 178.426 210.195 158.139 213.549 158.101 213.361" fill="#963" opacity="0.59" style="isolation: isolate"/>
                </g>
                <g>
                  <path d="M181.738,215.955l-21.556,6.3a.5.5,0,0,1-.62-.284.39.39,0,0,1-.022-.179l.409-3.838a.456.456,0,0,1,.338-.379l21.556-6.3a.505.505,0,0,1,.62.285.386.386,0,0,1,.022.178l-.409,3.84A.456.456,0,0,1,181.738,215.955Z" fill="#fc6"/>
                  <path d="M160.382,217.784s3.33,2.348-.376,4.049Z" fill="#963"/>
                  <polygon points="161.333 217.675 181.672 211.729 181.738 211.912 161.399 217.858 161.333 217.675" fill="#963" opacity="0.59" style="isolation: isolate"/>
                  <polygon points="161.531 218.224 181.261 212.456 181.327 212.639 161.598 218.407 161.531 218.224" fill="#963" opacity="0.59" style="isolation: isolate"/>
                </g>
                <g>
                  <path d="M161.34,211.348,178.9,224.234a.53.53,0,0,0,.692-.065.419.419,0,0,0,.091-.158l1.167-3.712a.417.417,0,0,0-.163-.463l-17.56-12.884a.53.53,0,0,0-.692.065.419.419,0,0,0-.091.158l-1.165,3.71A.418.418,0,0,0,161.34,211.348Z" fill="#fc6"/>
                  <path d="M180.513,220s-4.049,1.1-1.279,3.9Z" fill="#963"/>
                  <polygon points="179.535 219.736 162.968 207.578 163.103 207.429 179.67 219.588 179.535 219.736" fill="#963" opacity="0.59" style="isolation: isolate"/>
                  <polygon points="179.129 220.184 163.059 208.39 163.194 208.241 179.264 220.035 179.129 220.184" fill="#963" opacity="0.59" style="isolation: isolate"/>
                </g>
                <g>
                  <path d="M191.842,211.947l-22.165,3.664a.49.49,0,0,1-.571-.353.4.4,0,0,1,0-.179l.965-3.735a.469.469,0,0,1,.389-.333l22.165-3.664a.488.488,0,0,1,.571.352.405.405,0,0,1,0,.18l-.965,3.735A.469.469,0,0,1,191.842,211.947Z" fill="#fc6"/>
                  <path d="M170.531,211.226s2.938,2.706-.964,3.946Z" fill="#963"/>
                  <polygon points="171.481 211.231 192.396 207.774 192.435 207.962 171.52 211.419 171.481 211.231" fill="#963" opacity="0.59" style="isolation: isolate"/>
                  <polygon points="171.597 211.796 191.884 208.442 191.922 208.63 171.635 211.983 171.597 211.796" fill="#963" opacity="0.59" style="isolation: isolate"/>
                </g>
                <g>
                  <path d="M195.234,214.39l-21.556,6.3a.505.505,0,0,1-.62-.284.392.392,0,0,1-.022-.179l.41-3.839a.456.456,0,0,1,.337-.379l21.556-6.3a.507.507,0,0,1,.621.285.4.4,0,0,1,.021.178l-.409,3.839A.457.457,0,0,1,195.234,214.39Z" fill="#fc6"/>
                  <path d="M173.878,216.219s3.33,2.348-.376,4.049Z" fill="#963"/>
                  <polygon points="174.829 216.11 195.168 210.164 195.234 210.346 174.895 216.293 174.829 216.11" fill="#963" opacity="0.59" style="isolation: isolate"/>
                  <polygon points="175.027 216.659 194.756 210.891 194.823 211.073 175.093 216.842 175.027 216.659" fill="#963" opacity="0.59" style="isolation: isolate"/>
                </g>
                <g>
                  <path d="M174.836,209.783,192.4,222.669a.53.53,0,0,0,.692-.065.452.452,0,0,0,.092-.158l1.163-3.713a.416.416,0,0,0-.163-.462l-17.557-12.884a.531.531,0,0,0-.692.064.43.43,0,0,0-.091.159l-1.165,3.71A.419.419,0,0,0,174.836,209.783Z" fill="#fc6"/>
                  <path d="M194.009,218.433s-4.049,1.105-1.279,3.9Z" fill="#963"/>
                  <polygon points="193.031 218.171 176.464 206.013 176.599 205.864 193.167 218.023 193.031 218.171" fill="#963" opacity="0.59" style="isolation: isolate"/>
                  <polygon points="192.626 218.618 176.555 206.824 176.69 206.676 192.761 218.469 192.626 218.618" fill="#963" opacity="0.59" style="isolation: isolate"/>
                </g>
                <g>
                  <path d="M179.412,214.564,194,230a.528.528,0,0,0,.689.051.45.45,0,0,0,.123-.142l1.88-3.444a.4.4,0,0,0-.066-.478l-14.592-15.435a.528.528,0,0,0-.69-.051.436.436,0,0,0-.122.142l-1.881,3.443A.407.407,0,0,0,179.412,214.564Z" fill="#fc6"/>
                  <path d="M196.429,226.122s-4.179.425-2.03,3.6Z" fill="#963"/>
                  <polygon points="195.525 225.708 181.757 211.14 181.919 211.016 195.687 225.584 195.525 225.708" fill="#963" opacity="0.59" style="isolation: isolate"/>
                  <polygon points="195.039 226.079 181.684 211.949 181.846 211.825 195.201 225.955 195.039 226.079" fill="#963" opacity="0.59" style="isolation: isolate"/>
                </g>
                <g>
                  <path d="M175.066,214.528l12.263,17.135a.527.527,0,0,0,.681.133.479.479,0,0,0,.142-.126l2.384-3.207a.405.405,0,0,0,0-.485L178.28,210.842a.527.527,0,0,0-.679-.137.468.468,0,0,0-.148.131l-2.384,3.206A.408.408,0,0,0,175.066,214.528Z" fill="#fc6"/>
                  <path d="M190.321,228.084s-4.23-.075-2.557,3.35Z" fill="#963"/>
                  <polygon points="189.481 227.564 177.91 211.396 178.09 211.292 189.661 227.46 189.481 227.564" fill="#963" opacity="0.59" style="isolation: isolate"/>
                  <polygon points="188.942 227.876 177.718 212.192 177.898 212.088 189.122 227.772 188.942 227.876" fill="#963" opacity="0.59" style="isolation: isolate"/>
                </g>
                <g>
                  <path d="M194.108,222.554H171.44a.469.469,0,0,1-.492-.442.406.406,0,0,1,.041-.177L172.7,218.4a.5.5,0,0,1,.451-.266h22.668a.47.47,0,0,1,.492.443.4.4,0,0,1-.041.176l-1.71,3.537A.5.5,0,0,1,194.108,222.554Z" fill="#fc6"/>
                  <path d="M173.17,218.356s2.359,3.158-1.752,3.746Z" fill="#963"/>
                  <rect x="174.112" y="218.517" width="21.388" height="0.192" fill="#963" opacity="0.59" style="isolation: isolate"/>
                  <rect x="174.112" y="219.094" width="20.747" height="0.192" fill="#963" opacity="0.59" style="isolation: isolate"/>
                </g>
                <g>
                  <path d="M191.743,223.837l-21.556,6.3a.505.505,0,0,1-.62-.283.4.4,0,0,1-.022-.18l.409-3.838a.456.456,0,0,1,.338-.379l21.556-6.3a.505.505,0,0,1,.62.285.389.389,0,0,1,.022.179l-.409,3.839A.458.458,0,0,1,191.743,223.837Z" fill="#fc6"/>
                  <path d="M170.387,225.666s3.33,2.348-.377,4.049Z" fill="#963"/>
                  <polygon points="171.338 225.557 191.677 219.611 191.743 219.794 171.404 225.74 171.338 225.557" fill="#963" opacity="0.59" style="isolation: isolate"/>
                  <polygon points="171.536 226.106 191.265 220.338 191.331 220.521 171.602 226.289 171.536 226.106" fill="#963" opacity="0.59" style="isolation: isolate"/>
                </g>
                <g>
                  <path d="M243.224,214.686l22.166,3.664a.488.488,0,0,0,.57-.353.387.387,0,0,0,0-.179l-.965-3.735a.472.472,0,0,0-.389-.333l-22.165-3.664a.489.489,0,0,0-.571.352.405.405,0,0,0,0,.18l.965,3.735A.469.469,0,0,0,243.224,214.686Z" fill="#fc6"/>
                  <path d="M264.538,213.966s-2.938,2.706.964,3.945Z" fill="#963"/>
                  <polygon points="263.547 214.159 242.632 210.702 242.67 210.514 263.585 213.972 263.547 214.159" fill="#963" opacity="0.59" style="isolation: isolate"/>
                  <polygon points="263.431 214.723 243.144 211.37 243.183 211.182 263.47 214.535 263.431 214.723" fill="#963" opacity="0.59" style="isolation: isolate"/>
                </g>
                <g>
                  <path d="M239.833,217.129l21.556,6.3a.5.5,0,0,0,.62-.284.389.389,0,0,0,.022-.179l-.41-3.838a.453.453,0,0,0-.337-.379l-21.556-6.3a.508.508,0,0,0-.621.284.406.406,0,0,0-.022.179l.411,3.84A.453.453,0,0,0,239.833,217.129Z" fill="#fc6"/>
                  <path d="M261.189,218.958s-3.33,2.348.377,4.049Z" fill="#963"/>
                  <polygon points="260.172 219.033 239.832 213.086 239.898 212.903 260.238 218.85 260.172 219.033" fill="#963" opacity="0.59" style="isolation: isolate"/>
                  <polygon points="259.973 219.58 240.244 213.812 240.31 213.63 260.039 219.398 259.973 219.58" fill="#963" opacity="0.59" style="isolation: isolate"/>
                </g>
                <g>
                  <path d="M260.231,212.522l-17.559,12.886a.531.531,0,0,1-.692-.065.434.434,0,0,1-.091-.158l-1.164-3.712a.417.417,0,0,1,.163-.463l17.557-12.884a.531.531,0,0,1,.692.065.426.426,0,0,1,.091.158l1.163,3.712A.416.416,0,0,1,260.231,212.522Z" fill="#fc6"/>
                  <path d="M241.059,221.173s4.049,1.1,1.278,3.9Z" fill="#963"/>
                  <polygon points="241.901 220.761 258.468 208.603 258.603 208.752 242.036 220.91 241.901 220.761" fill="#963" opacity="0.59" style="isolation: isolate"/>
                  <polygon points="242.306 221.208 258.377 209.414 258.512 209.563 242.441 221.357 242.306 221.208" fill="#963" opacity="0.59" style="isolation: isolate"/>
                </g>
                <g>
                  <path d="M229.728,213.121l22.166,3.664a.488.488,0,0,0,.57-.353.405.405,0,0,0,0-.18l-.966-3.734a.468.468,0,0,0-.388-.333l-22.165-3.664a.488.488,0,0,0-.571.352.391.391,0,0,0,0,.18l.965,3.735A.472.472,0,0,0,229.728,213.121Z" fill="#fc6"/>
                  <path d="M251.042,212.4s-2.938,2.706.964,3.946Z" fill="#963"/>
                  <polygon points="250.05 212.594 229.135 209.137 229.174 208.949 250.089 212.406 250.05 212.594" fill="#963" opacity="0.59" style="isolation: isolate"/>
                  <polygon points="249.935 213.158 229.648 209.805 229.686 209.617 249.973 212.97 249.935 213.158" fill="#963" opacity="0.59" style="isolation: isolate"/>
                </g>
                <g>
                  <path d="M226.337,215.564l21.556,6.3a.5.5,0,0,0,.62-.284.39.39,0,0,0,.022-.179l-.41-3.839a.456.456,0,0,0-.337-.379l-21.556-6.3a.507.507,0,0,0-.621.284.406.406,0,0,0-.022.179l.41,3.839A.457.457,0,0,0,226.337,215.564Z" fill="#fc6"/>
                  <path d="M247.692,217.393s-3.329,2.348.377,4.049Z" fill="#963"/>
                  <polygon points="246.675 217.467 226.336 211.521 226.402 211.338 246.741 217.284 246.675 217.467" fill="#963" opacity="0.59" style="isolation: isolate"/>
                  <polygon points="246.477 218.015 226.748 212.247 226.814 212.065 246.543 217.833 246.477 218.015" fill="#963" opacity="0.59" style="isolation: isolate"/>
                </g>
                <g>
                  <path d="M246.735,210.957l-17.559,12.886a.531.531,0,0,1-.692-.066.419.419,0,0,1-.091-.158l-1.164-3.712a.416.416,0,0,1,.163-.462l17.556-12.884a.531.531,0,0,1,.693.065.426.426,0,0,1,.091.158L246.9,210.5A.417.417,0,0,1,246.735,210.957Z" fill="#fc6"/>
                  <path d="M227.563,219.607s4.049,1.1,1.278,3.9Z" fill="#963"/>
                  <polygon points="228.405 219.196 244.972 207.037 245.107 207.186 228.54 219.345 228.405 219.196" fill="#963" opacity="0.59" style="isolation: isolate"/>
                  <polygon points="228.81 219.643 244.881 207.849 245.016 207.998 228.946 219.791 228.81 219.643" fill="#963" opacity="0.59" style="isolation: isolate"/>
                </g>
                <g>
                  <path d="M242.159,215.738l-14.591,15.437a.529.529,0,0,1-.69.051.474.474,0,0,1-.123-.142l-1.88-3.444a.4.4,0,0,1,.066-.478l14.592-15.436a.528.528,0,0,1,.689-.05.439.439,0,0,1,.123.142l1.88,3.443A.406.406,0,0,1,242.159,215.738Z" fill="#fc6"/>
                  <path d="M225.142,227.3s4.18.425,2.03,3.6Z" fill="#963"/>
                  <polygon points="225.883 226.757 239.652 212.19 239.814 212.314 226.045 226.881 225.883 226.757" fill="#963" opacity="0.59" style="isolation: isolate"/>
                  <polygon points="226.37 227.129 239.725 212.999 239.886 213.122 226.531 227.252 226.37 227.129" fill="#963" opacity="0.59" style="isolation: isolate"/>
                </g>
                <g>
                  <path d="M246.505,215.7l-12.263,17.135a.527.527,0,0,1-.681.133.483.483,0,0,1-.143-.126l-2.383-3.207a.405.405,0,0,1,0-.485l12.263-17.136a.527.527,0,0,1,.681-.132.466.466,0,0,1,.142.126l2.384,3.206A.407.407,0,0,1,246.505,215.7Z" fill="#fc6"/>
                  <path d="M231.249,229.258s4.231-.075,2.557,3.35Z" fill="#963"/>
                  <polygon points="231.909 228.634 243.48 212.465 243.66 212.569 232.089 228.738 231.909 228.634" fill="#963" opacity="0.59" style="isolation: isolate"/>
                  <polygon points="232.449 228.948 243.673 213.265 243.852 213.369 232.628 229.052 232.449 228.948" fill="#963" opacity="0.59" style="isolation: isolate"/>
                </g>
                <g>
                  <path d="M227.463,223.728H250.13a.47.47,0,0,0,.493-.442.406.406,0,0,0-.041-.177l-1.711-3.537a.5.5,0,0,0-.451-.266H225.752a.47.47,0,0,0-.492.443.4.4,0,0,0,.041.176l1.711,3.537A.5.5,0,0,0,227.463,223.728Z" fill="#fc6"/>
                  <path d="M248.4,219.53s-2.359,3.158,1.751,3.746Z" fill="#963"/>
                  <rect x="226.071" y="219.691" width="21.388" height="0.192" fill="#963" opacity="0.59" style="isolation: isolate"/>
                  <rect x="226.713" y="220.268" width="20.747" height="0.192" fill="#963" opacity="0.59" style="isolation: isolate"/>
                </g>
                <g>
                  <path d="M229.827,225.011l21.555,6.3a.505.505,0,0,0,.621-.284.4.4,0,0,0,.022-.179l-.41-3.838a.455.455,0,0,0-.338-.379l-21.556-6.3a.506.506,0,0,0-.62.285.392.392,0,0,0-.022.179l.41,3.839A.453.453,0,0,0,229.827,225.011Z" fill="#fc6"/>
                  <path d="M251.184,226.84s-3.33,2.348.377,4.049Z" fill="#963"/>
                  <polygon points="250.167 226.915 229.827 220.968 229.894 220.785 250.233 226.732 250.167 226.915" fill="#963" opacity="0.59" style="isolation: isolate"/>
                  <polygon points="249.968 227.463 230.239 221.694 230.305 221.512 250.035 227.28 249.968 227.463" fill="#963" opacity="0.59" style="isolation: isolate"/>
                </g>
                <g>
                  <path d="M212.452,221.783l18,12.192a.528.528,0,0,0,.686-.087.428.428,0,0,0,.085-.162l1-3.728a.415.415,0,0,0-.181-.454l-18-12.192a.528.528,0,0,0-.686.087.428.428,0,0,0-.085.162l-1,3.728A.416.416,0,0,0,212.452,221.783Z" fill="#fc6"/>
                  <path d="M231.873,229.711s-3.975,1.238-1.1,3.916Z" fill="#963"/>
                  <polygon points="230.889 229.485 213.905 217.981 214.033 217.829 231.017 229.332 230.889 229.485" fill="#963" opacity="0.59" style="isolation: isolate"/>
                  <polygon points="230.505 229.943 214.031 218.785 214.159 218.632 230.633 229.79 230.505 229.943" fill="#963" opacity="0.59" style="isolation: isolate"/>
                </g>
                <g>
                  <path d="M208.2,222.605l16.14,14.306a.534.534,0,0,0,.7,0,.446.446,0,0,0,.108-.152l1.545-3.6a.411.411,0,0,0-.114-.474l-16.14-14.307a.534.534,0,0,0-.7,0,.446.446,0,0,0-.108.152l-1.545,3.6A.411.411,0,0,0,208.2,222.605Z" fill="#fc6"/>
                  <path d="M226.391,232.828s-4.146.76-1.679,3.773Z" fill="#963"/>
                  <polygon points="225.444 232.486 210.215 218.987 210.365 218.851 225.595 232.349 225.444 232.486" fill="#963" opacity="0.59" style="isolation: isolate"/>
                  <polygon points="224.994 232.896 210.221 219.803 210.371 219.666 225.144 232.76 224.994 232.896" fill="#963" opacity="0.59" style="isolation: isolate"/>
                </g>
                <g>
                  <path d="M228.738,226.687l-22.116,4.462a.5.5,0,0,1-.588-.335.405.405,0,0,1,0-.18l.808-3.788a.467.467,0,0,1,.376-.348l22.116-4.461a.5.5,0,0,1,.588.335.405.405,0,0,1,0,.18l-.808,3.788A.47.47,0,0,1,228.738,226.687Z" fill="#fc6"/>
                  <path d="M207.286,226.714s3.071,2.616-.8,4Z" fill="#963"/>
                  <polygon points="208.244 226.684 229.113 222.473 229.16 222.661 208.291 226.871 208.244 226.684" fill="#963" opacity="0.59" style="isolation: isolate"/>
                  <polygon points="208.384 227.246 228.627 223.162 228.674 223.35 208.431 227.434 208.384 227.246" fill="#963" opacity="0.59" style="isolation: isolate"/>
                </g>
                <g>
                  <path d="M201.161,214.955l18,12.191a.527.527,0,0,0,.686-.086.428.428,0,0,0,.085-.162l1-3.729a.416.416,0,0,0-.182-.453l-18-12.192a.527.527,0,0,0-.685.087.428.428,0,0,0-.085.162l-1,3.728A.417.417,0,0,0,201.161,214.955Z" fill="#fc6"/>
                  <path d="M220.581,222.883s-3.974,1.238-1.1,3.916Z" fill="#963"/>
                  <polygon points="219.599 222.657 202.615 211.154 202.743 211.001 219.727 222.505 219.599 222.657" fill="#963" opacity="0.59" style="isolation: isolate"/>
                  <polygon points="219.214 223.115 202.741 211.957 202.869 211.804 219.342 222.962 219.214 223.115" fill="#963" opacity="0.59" style="isolation: isolate"/>
                </g>
                <g>
                  <path d="M196.914,215.776l16.14,14.3a.53.53,0,0,0,.7,0,.449.449,0,0,0,.109-.151l1.544-3.6a.412.412,0,0,0-.113-.475l-16.142-14.3a.53.53,0,0,0-.7,0,.436.436,0,0,0-.109.151l-1.544,3.6A.411.411,0,0,0,196.914,215.776Z" fill="#fc6"/>
                  <path d="M215.1,226s-4.147.759-1.679,3.772Z" fill="#963"/>
                  <polygon points="214.154 225.658 198.925 212.159 199.075 212.023 214.304 225.521 214.154 225.658" fill="#963" opacity="0.59" style="isolation: isolate"/>
                  <polygon points="213.703 226.068 198.931 212.975 199.081 212.838 213.853 225.931 213.703 226.068" fill="#963" opacity="0.59" style="isolation: isolate"/>
                </g>
                <g>
                  <path d="M217.448,219.859l-22.117,4.461a.5.5,0,0,1-.588-.334.4.4,0,0,1,0-.181l.807-3.787a.47.47,0,0,1,.376-.349l22.116-4.461a.5.5,0,0,1,.588.336.4.4,0,0,1,0,.179l-.808,3.788A.468.468,0,0,1,217.448,219.859Z" fill="#fc6"/>
                  <path d="M196,219.885s3.071,2.616-.8,4Z" fill="#963"/>
                  <polygon points="196.954 219.856 217.823 215.646 217.869 215.833 197 220.044 196.954 219.856" fill="#963" opacity="0.59" style="isolation: isolate"/>
                  <polygon points="197.094 220.419 217.337 216.335 217.383 216.522 197.141 220.606 197.094 220.419" fill="#963" opacity="0.59" style="isolation: isolate"/>
                </g>
                <g>
                  <path d="M210.976,222.294l-20.735,7.939A.511.511,0,0,1,189.6,230a.4.4,0,0,1-.039-.175l.032-3.835a.442.442,0,0,1,.3-.4l20.735-7.938a.512.512,0,0,1,.642.232.4.4,0,0,1,.039.176l-.032,3.835A.44.44,0,0,1,210.976,222.294Z" fill="#fc6"/>
                  <path d="M190,225.787s3.526,2.062.021,4.039Z" fill="#963"/>
                  <polygon points="190.935 225.604 210.5 218.114 210.583 218.29 191.018 225.78 190.935 225.604" fill="#963" opacity="0.59" style="isolation: isolate"/>
                  <polygon points="191.185 226.132 210.162 218.866 210.246 219.042 191.268 226.308 191.185 226.132" fill="#963" opacity="0.59" style="isolation: isolate"/>
                </g>
                <g>
                  <path d="M214.88,224.01l-19.5,10.393a.524.524,0,0,1-.675-.155.426.426,0,0,1-.065-.17l-.535-3.827a.428.428,0,0,1,.237-.436l19.5-10.392a.524.524,0,0,1,.675.155.4.4,0,0,1,.065.17l.536,3.826A.43.43,0,0,1,214.88,224.01Z" fill="#fc6"/>
                  <path d="M194.489,230s3.82,1.634.618,4.025Z" fill="#963"/>
                  <polygon points="195.381 229.705 213.775 219.9 213.884 220.065 195.49 229.87 195.381 229.705" fill="#963" opacity="0.59" style="isolation: isolate"/>
                  <polygon points="195.717 230.201 213.561 220.689 213.67 220.855 195.826 230.367 195.717 230.201" fill="#963" opacity="0.59" style="isolation: isolate"/>
                </g>
                <g>
                  <path d="M193.855,223.53l20.272,9.118a.52.52,0,0,0,.661-.2.416.416,0,0,0,.051-.174l.23-3.851a.438.438,0,0,0-.271-.42l-20.272-9.117a.517.517,0,0,0-.66.2.4.4,0,0,0-.051.174l-.231,3.851A.436.436,0,0,0,193.855,223.53Z" fill="#fc6"/>
                  <path d="M214.67,228.2s-3.682,1.875-.3,4.054Z" fill="#963"/>
                  <polygon points="213.652 228.134 194.525 219.532 194.62 219.36 213.748 227.962 213.652 228.134" fill="#963" opacity="0.59" style="isolation: isolate"/>
                  <polygon points="213.365 228.65 194.811 220.306 194.907 220.134 213.46 228.478 213.365 228.65" fill="#963" opacity="0.59" style="isolation: isolate"/>
                </g>
                <g>
                  <path d="M195.332,225.629l16.14,14.305a.533.533,0,0,0,.7,0,.446.446,0,0,0,.108-.152l1.545-3.6a.412.412,0,0,0-.114-.475l-16.141-14.3a.532.532,0,0,0-.7,0,.442.442,0,0,0-.108.151l-1.545,3.6A.411.411,0,0,0,195.332,225.629Z" fill="#fc6"/>
                  <path d="M213.52,235.853s-4.146.76-1.678,3.773Z" fill="#963"/>
                  <polygon points="212.573 235.511 197.344 222.012 197.494 221.876 212.724 235.374 212.573 235.511" fill="#963" opacity="0.59" style="isolation: isolate"/>
                  <polygon points="212.123 235.921 197.35 222.828 197.5 222.691 212.273 235.785 212.123 235.921" fill="#963" opacity="0.59" style="isolation: isolate"/>
                </g>
                <g>
                  <path d="M196.344,207.305l18,12.191a.528.528,0,0,0,.686-.087.412.412,0,0,0,.084-.162l1-3.728a.417.417,0,0,0-.181-.454l-18-12.192a.528.528,0,0,0-.686.087.428.428,0,0,0-.085.162l-.995,3.728A.418.418,0,0,0,196.344,207.305Z" fill="#fc6"/>
                  <path d="M215.765,215.232s-3.975,1.238-1.1,3.916Z" fill="#963"/>
                  <polygon points="214.781 215.006 197.797 203.502 197.925 203.35 214.908 214.853 214.781 215.006" fill="#963" opacity="0.59" style="isolation: isolate"/>
                  <polygon points="214.397 215.464 197.923 204.306 198.051 204.153 214.525 215.311 214.397 215.464" fill="#963" opacity="0.59" style="isolation: isolate"/>
                </g>
                <g>
                  <path d="M192.1,208.126l16.14,14.306a.533.533,0,0,0,.7,0,.427.427,0,0,0,.109-.152l1.545-3.6a.412.412,0,0,0-.114-.474L194.331,203.9a.533.533,0,0,0-.7,0,.446.446,0,0,0-.108.152l-1.545,3.6A.411.411,0,0,0,192.1,208.126Z" fill="#fc6"/>
                  <path d="M210.283,218.35s-4.146.759-1.679,3.772Z" fill="#963"/>
                  <polygon points="209.336 218.007 194.107 204.508 194.257 204.371 209.486 217.87 209.336 218.007" fill="#963" opacity="0.59" style="isolation: isolate"/>
                  <polygon points="208.886 218.418 194.114 205.324 194.264 205.188 209.036 218.281 208.886 218.418" fill="#963" opacity="0.59" style="isolation: isolate"/>
                </g>
                <g>
                  <path d="M212.63,212.208l-22.116,4.462a.5.5,0,0,1-.589-.335.4.4,0,0,1,0-.18l.808-3.788a.468.468,0,0,1,.375-.348l22.117-4.461a.5.5,0,0,1,.588.335.391.391,0,0,1,0,.18l-.807,3.788A.469.469,0,0,1,212.63,212.208Z" fill="#fc6"/>
                  <path d="M191.178,212.235s3.071,2.617-.8,4Z" fill="#963"/>
                  <polygon points="192.136 212.205 213.005 207.995 213.052 208.182 192.182 212.393 192.136 212.205" fill="#963" opacity="0.59" style="isolation: isolate"/>
                  <polygon points="192.276 212.768 212.519 208.684 212.566 208.871 192.323 212.955 192.276 212.768" fill="#963" opacity="0.59" style="isolation: isolate"/>
                </g>
                <g>
                  <path d="M185.053,200.476l18,12.192a.526.526,0,0,0,.685-.087.417.417,0,0,0,.086-.162l1-3.728a.417.417,0,0,0-.182-.454l-18-12.192a.526.526,0,0,0-.685.087.415.415,0,0,0-.085.162l-1,3.728A.416.416,0,0,0,185.053,200.476Z" fill="#fc6"/>
                  <path d="M204.473,208.4s-3.975,1.238-1.1,3.916Z" fill="#963"/>
                  <polygon points="203.491 208.178 186.507 196.675 186.635 196.522 203.618 208.026 203.491 208.178" fill="#963" opacity="0.59" style="isolation: isolate"/>
                  <polygon points="203.106 208.636 186.633 197.478 186.76 197.326 203.234 208.484 203.106 208.636" fill="#963" opacity="0.59" style="isolation: isolate"/>
                </g>
                <g>
                  <path d="M180.805,201.3l16.14,14.306a.534.534,0,0,0,.7,0,.446.446,0,0,0,.108-.152l1.545-3.6a.411.411,0,0,0-.114-.475l-16.141-14.3a.53.53,0,0,0-.7.005.432.432,0,0,0-.109.151l-1.544,3.6A.412.412,0,0,0,180.805,201.3Z" fill="#fc6"/>
                  <path d="M198.992,211.522s-4.146.759-1.678,3.772Z" fill="#963"/>
                  <polygon points="198.046 211.179 182.816 197.68 182.966 197.544 198.196 211.042 198.046 211.179" fill="#963" opacity="0.59" style="isolation: isolate"/>
                  <polygon points="197.595 211.59 182.822 198.496 182.973 198.359 197.745 211.453 197.595 211.59" fill="#963" opacity="0.59" style="isolation: isolate"/>
                </g>
                <g>
                  <path d="M201.339,205.38l-22.116,4.461a.494.494,0,0,1-.588-.334.4.4,0,0,1,0-.181l.806-3.786a.47.47,0,0,1,.376-.349l22.116-4.461a.5.5,0,0,1,.588.336.387.387,0,0,1,0,.179l-.807,3.788A.469.469,0,0,1,201.339,205.38Z" fill="#fc6"/>
                  <path d="M179.887,205.406s3.071,2.616-.8,4Z" fill="#963"/>
                  <polygon points="180.845 205.377 201.714 201.167 201.761 201.354 180.892 205.565 180.845 205.377" fill="#963" opacity="0.59" style="isolation: isolate"/>
                  <polygon points="180.985 205.94 201.228 201.856 201.275 202.043 181.032 206.128 180.985 205.94" fill="#963" opacity="0.59" style="isolation: isolate"/>
                </g>
                <g>
                  <path d="M194.867,207.816l-20.734,7.938a.511.511,0,0,1-.642-.233.382.382,0,0,1-.039-.175l.031-3.835a.445.445,0,0,1,.3-.4l20.735-7.938a.511.511,0,0,1,.642.233.41.41,0,0,1,.039.175l-.032,3.835A.443.443,0,0,1,194.867,207.816Z" fill="#fc6"/>
                  <path d="M173.9,211.308s3.526,2.062.021,4.039Z" fill="#963"/>
                  <polygon points="174.826 211.126 194.391 203.635 194.474 203.811 174.909 211.301 174.826 211.126" fill="#963" opacity="0.59" style="isolation: isolate"/>
                  <polygon points="175.077 211.653 194.054 204.387 194.137 204.563 175.16 211.829 175.077 211.653" fill="#963" opacity="0.59" style="isolation: isolate"/>
                </g>
                <g>
                  <path d="M198.772,209.532l-19.5,10.392a.525.525,0,0,1-.675-.154.421.421,0,0,1-.065-.171L178,215.772a.431.431,0,0,1,.238-.436l19.5-10.392a.525.525,0,0,1,.675.155.426.426,0,0,1,.065.17l.535,3.827A.43.43,0,0,1,198.772,209.532Z" fill="#fc6"/>
                  <path d="M178.38,215.52s3.821,1.634.619,4.025Z" fill="#963"/>
                  <polygon points="179.276 215.227 197.67 205.422 197.779 205.587 179.385 215.392 179.276 215.227" fill="#963" opacity="0.59" style="isolation: isolate"/>
                  <polygon points="179.609 215.722 197.453 206.21 197.562 206.376 179.718 215.888 179.609 215.722" fill="#963" opacity="0.59" style="isolation: isolate"/>
                </g>
                <g>
                  <path d="M177.747,209.051l20.272,9.118a.518.518,0,0,0,.66-.2.4.4,0,0,0,.052-.174l.23-3.851a.435.435,0,0,0-.271-.419l-20.272-9.118a.517.517,0,0,0-.66.2.4.4,0,0,0-.052.174l-.23,3.851A.435.435,0,0,0,177.747,209.051Z" fill="#fc6"/>
                  <path d="M198.562,213.718s-3.682,1.875-.3,4.054Z" fill="#963"/>
                  <polygon points="197.544 213.655 178.416 205.053 178.512 204.881 197.64 213.483 197.544 213.655" fill="#963" opacity="0.59" style="isolation: isolate"/>
                  <polygon points="197.257 214.171 178.703 205.827 178.799 205.655 197.353 213.999 197.257 214.171" fill="#963" opacity="0.59" style="isolation: isolate"/>
                </g>
                <g>
                  <path d="M179.224,211.15l16.14,14.306a.533.533,0,0,0,.7,0,.436.436,0,0,0,.109-.152l1.544-3.6a.41.41,0,0,0-.113-.474l-16.142-14.3a.532.532,0,0,0-.7,0,.459.459,0,0,0-.109.151l-1.544,3.6A.411.411,0,0,0,179.224,211.15Z" fill="#fc6"/>
                  <path d="M197.412,221.374s-4.146.76-1.679,3.773Z" fill="#963"/>
                  <polygon points="196.465 221.032 181.236 207.533 181.386 207.397 196.615 220.895 196.465 221.032" fill="#963" opacity="0.59" style="isolation: isolate"/>
                  <polygon points="196.015 221.442 181.242 208.349 181.392 208.212 196.165 221.306 196.015 221.442" fill="#963" opacity="0.59" style="isolation: isolate"/>
                </g>
                <g>
                  <path d="M225.513,205.348l18,12.191a.528.528,0,0,0,.686-.087.415.415,0,0,0,.084-.161l1-3.729a.418.418,0,0,0-.181-.454l-18-12.192a.528.528,0,0,0-.686.087.443.443,0,0,0-.085.162l-1,3.728A.417.417,0,0,0,225.513,205.348Z" fill="#fc6"/>
                  <path d="M244.934,213.275s-3.975,1.238-1.1,3.916Z" fill="#963"/>
                  <polygon points="243.95 213.049 226.966 201.546 227.094 201.394 244.078 212.897 243.95 213.049" fill="#963" opacity="0.59" style="isolation: isolate"/>
                  <polygon points="243.566 213.507 227.092 202.349 227.22 202.197 243.694 213.355 243.566 213.507" fill="#963" opacity="0.59" style="isolation: isolate"/>
                </g>
                <g>
                  <path d="M221.264,206.17l16.14,14.305a.532.532,0,0,0,.7,0,.432.432,0,0,0,.109-.151l1.545-3.6a.414.414,0,0,0-.114-.475L223.5,201.94a.533.533,0,0,0-.7,0,.442.442,0,0,0-.108.151l-1.545,3.6A.411.411,0,0,0,221.264,206.17Z" fill="#fc6"/>
                  <path d="M239.452,216.393s-4.146.76-1.679,3.772Z" fill="#963"/>
                  <polygon points="238.505 216.05 223.276 202.552 223.426 202.415 238.655 215.913 238.505 216.05" fill="#963" opacity="0.59" style="isolation: isolate"/>
                  <polygon points="238.055 216.461 223.282 203.368 223.432 203.231 238.205 216.324 238.055 216.461" fill="#963" opacity="0.59" style="isolation: isolate"/>
                </g>
                <g>
                  <path d="M241.8,210.252l-22.116,4.462a.5.5,0,0,1-.589-.336.42.42,0,0,1,0-.18l.808-3.787a.466.466,0,0,1,.375-.348l22.117-4.461a.5.5,0,0,1,.588.334.391.391,0,0,1,0,.18l-.807,3.788A.47.47,0,0,1,241.8,210.252Z" fill="#fc6"/>
                  <path d="M220.347,210.279s3.071,2.616-.8,4Z" fill="#963"/>
                  <polygon points="221.305 210.248 242.174 206.038 242.221 206.225 221.352 210.436 221.305 210.248" fill="#963" opacity="0.59" style="isolation: isolate"/>
                  <polygon points="221.445 210.811 241.688 206.727 241.735 206.914 221.492 210.998 221.445 210.811" fill="#963" opacity="0.59" style="isolation: isolate"/>
                </g>
                <g>
                  <path d="M214.222,198.52l18,12.191a.526.526,0,0,0,.685-.086.424.424,0,0,0,.086-.162l1-3.729a.418.418,0,0,0-.182-.454l-18-12.192a.526.526,0,0,0-.685.087.429.429,0,0,0-.085.162l-1,3.728A.418.418,0,0,0,214.222,198.52Z" fill="#fc6"/>
                  <path d="M233.642,206.447s-3.975,1.239-1.1,3.916Z" fill="#963"/>
                  <polygon points="232.659 206.222 215.676 194.718 215.804 194.566 232.787 206.069 232.659 206.222" fill="#963" opacity="0.59" style="isolation: isolate"/>
                  <polygon points="232.275 206.68 215.802 195.521 215.93 195.369 232.403 206.527 232.275 206.68" fill="#963" opacity="0.59" style="isolation: isolate"/>
                </g>
                <g>
                  <path d="M209.974,199.34l16.14,14.306a.534.534,0,0,0,.7,0,.437.437,0,0,0,.108-.152l1.545-3.6a.411.411,0,0,0-.114-.475l-16.141-14.305a.533.533,0,0,0-.7,0,.427.427,0,0,0-.109.152l-1.544,3.6A.411.411,0,0,0,209.974,199.34Z" fill="#fc6"/>
                  <path d="M228.161,209.565s-4.146.759-1.678,3.773Z" fill="#963"/>
                  <polygon points="227.215 209.222 211.985 195.724 212.135 195.587 227.365 209.086 227.215 209.222" fill="#963" opacity="0.59" style="isolation: isolate"/>
                  <polygon points="226.764 209.633 211.992 196.54 212.142 196.403 226.914 209.496 226.764 209.633" fill="#963" opacity="0.59" style="isolation: isolate"/>
                </g>
                <g>
                  <path d="M230.508,203.424l-22.116,4.461a.5.5,0,0,1-.588-.334.4.4,0,0,1,0-.181l.807-3.788a.467.467,0,0,1,.376-.348l22.116-4.461a.5.5,0,0,1,.588.335.391.391,0,0,1,0,.18l-.807,3.788A.47.47,0,0,1,230.508,203.424Z" fill="#fc6"/>
                  <path d="M209.056,203.449s3.071,2.617-.8,4Z" fill="#963"/>
                  <polygon points="210.014 203.42 230.883 199.21 230.93 199.397 210.061 203.608 210.014 203.42" fill="#963" opacity="0.59" style="isolation: isolate"/>
                  <polygon points="210.155 203.983 230.397 199.899 230.444 200.086 210.201 204.17 210.155 203.983" fill="#963" opacity="0.59" style="isolation: isolate"/>
                </g>
                <g>
                  <path d="M224.036,205.859,203.3,213.8a.511.511,0,0,1-.642-.233.382.382,0,0,1-.039-.175l.031-3.835a.442.442,0,0,1,.3-.4l20.735-7.939a.511.511,0,0,1,.642.233.411.411,0,0,1,.039.176l-.032,3.835A.442.442,0,0,1,224.036,205.859Z" fill="#fc6"/>
                  <path d="M203.065,209.352s3.526,2.061.021,4.039Z" fill="#963"/>
                  <polygon points="203.995 209.169 223.56 201.678 223.643 201.854 204.078 209.345 203.995 209.169" fill="#963" opacity="0.59" style="isolation: isolate"/>
                  <polygon points="204.246 209.696 223.223 202.431 223.306 202.607 204.329 209.872 204.246 209.696" fill="#963" opacity="0.59" style="isolation: isolate"/>
                </g>
                <g>
                  <path d="M227.941,207.575l-19.5,10.392a.525.525,0,0,1-.675-.154.416.416,0,0,1-.065-.171l-.536-3.826a.431.431,0,0,1,.238-.436l19.5-10.393a.525.525,0,0,1,.675.155.436.436,0,0,1,.065.171l.535,3.826A.43.43,0,0,1,227.941,207.575Z" fill="#fc6"/>
                  <path d="M207.549,213.563s3.821,1.634.619,4.025Z" fill="#963"/>
                  <polygon points="208.441 213.272 226.835 203.468 226.944 203.633 208.55 213.438 208.441 213.272" fill="#963" opacity="0.59" style="isolation: isolate"/>
                  <polygon points="208.778 213.766 226.622 204.254 226.731 204.419 208.887 213.931 208.778 213.766" fill="#963" opacity="0.59" style="isolation: isolate"/>
                </g>
                <g>
                  <path d="M206.916,207.1l20.272,9.118a.521.521,0,0,0,.661-.2.421.421,0,0,0,.051-.175l.23-3.851a.437.437,0,0,0-.271-.419l-20.272-9.118a.52.52,0,0,0-.66.2.4.4,0,0,0-.052.174l-.23,3.851A.438.438,0,0,0,206.916,207.1Z" fill="#fc6"/>
                  <path d="M227.731,211.761s-3.682,1.875-.3,4.054Z" fill="#963"/>
                  <polygon points="226.713 211.698 207.585 203.096 207.681 202.925 226.809 211.527 226.713 211.698" fill="#963" opacity="0.59" style="isolation: isolate"/>
                  <polygon points="226.426 212.214 207.872 203.87 207.968 203.698 226.522 212.042 226.426 212.214" fill="#963" opacity="0.59" style="isolation: isolate"/>
                </g>
                <g>
                  <path d="M208.393,209.193l16.14,14.306a.533.533,0,0,0,.7,0,.427.427,0,0,0,.109-.152l1.544-3.6a.411.411,0,0,0-.113-.474l-16.142-14.3a.533.533,0,0,0-.7,0,.453.453,0,0,0-.109.152l-1.544,3.6A.41.41,0,0,0,208.393,209.193Z" fill="#fc6"/>
                  <path d="M226.581,219.418s-4.146.759-1.679,3.773Z" fill="#963"/>
                  <polygon points="225.634 219.075 210.405 205.577 210.555 205.44 225.784 218.939 225.634 219.075" fill="#963" opacity="0.59" style="isolation: isolate"/>
                  <polygon points="225.184 219.486 210.411 206.393 210.561 206.256 225.334 219.349 225.184 219.486" fill="#963" opacity="0.59" style="isolation: isolate"/>
                </g>
              </g>
              <path d="M171.227,201.787s-21.724,9.673,3.667,14.035c0,0,2.892,9.112,18.407,2.838,0,0,16.052,9.937,25.266-1.77a18.479,18.479,0,0,0,14.576,5.41s15-.738,12.586-6.635c0,0,9.827-2.069,4.228-6.7,0,0-4.176-6.035-11.027-4.05,0,0-9-7.722-25.509-4.617a30.162,30.162,0,0,0-22.551-1.092S178.4,194.3,171.227,201.787Z" fill="#600"/>
              <path d="M171.224,200.378s-21.738,10,3.65,14.475c0,0,2.883,9.394,18.405,2.911,0,0,16.043,10.236,25.268-1.846a17.97,17.97,0,0,0,14.572,5.567s15.006-.774,12.593-6.853c0,0,9.829-2.142,4.235-6.911,0,0-4.17-6.222-11.023-4.168,0,0-9-7.958-25.5-4.742a29.327,29.327,0,0,0-22.55-1.107S178.4,192.65,171.224,200.378Z" fill="#c30"/>
              <ellipse cx="184.419" cy="203.817" rx="7.401" ry="4.305" fill="#300" opacity="0.52" style="isolation: isolate"/>
              <ellipse cx="205.751" cy="213.209" rx="7.401" ry="4.305" fill="#300" opacity="0.52" style="isolation: isolate"/>
              <ellipse cx="225.778" cy="203.426" rx="7.401" ry="4.305" fill="#300" opacity="0.52" style="isolation: isolate"/>
              <ellipse cx="184.419" cy="201.078" rx="7.401" ry="6.261" fill="#630"/>
              <ellipse cx="205.751" cy="210.274" rx="6.966" ry="6.457" fill="#630"/>
              <ellipse cx="225.778" cy="200.882" rx="6.095" ry="7.365" transform="translate(-5.596 395.294) rotate(-81.699)" fill="#630"/>
              <ellipse cx="184.419" cy="200.883" rx="6.095" ry="5.65" fill="#960" opacity="0.31" style="isolation: isolate"/>
              <ellipse cx="187.337" cy="197.517" rx="1.174" ry="2.229" transform="translate(-79.29 252.456) rotate(-58.158)" fill="#c96"/>
              <ellipse cx="225.778" cy="200.883" rx="6.095" ry="5.65" fill="#960" opacity="0.31" style="isolation: isolate"/>
              <ellipse cx="205.751" cy="210.274" rx="6.095" ry="5.65" fill="#960" opacity="0.31" style="isolation: isolate"/>
              <ellipse cx="207.798" cy="206.126" rx="1.174" ry="2.229" transform="translate(-76.936 273.905) rotate(-58.158)" fill="#c96"/>
              <ellipse cx="229.131" cy="197.516" rx="1.174" ry="2.229" transform="translate(-59.545 287.96) rotate(-58.158)" fill="#c96"/>
              <ellipse cx="230.607" cy="200.569" rx="0.687" ry="1.64" transform="translate(-62.986 285.486) rotate(-57.147)" fill="#300" opacity="0.52" style="isolation: isolate"/>
              <ellipse cx="210.146" cy="209.179" rx="0.687" ry="1.64" transform="translate(-79.579 272.236) rotate(-57.147)" fill="#300" opacity="0.52" style="isolation: isolate"/>
              <ellipse cx="189.249" cy="200.569" rx="0.687" ry="1.64" transform="translate(-81.908 250.742) rotate(-57.147)" fill="#300" opacity="0.52" style="isolation: isolate"/>
              <ellipse cx="168.746" cy="204.991" rx="2.612" ry="0.391" fill="#fff" opacity="0.37" style="isolation: isolate"/>
              <ellipse cx="192.038" cy="207.535" rx="0.653" ry="0.587" fill="#fff" opacity="0.37" style="isolation: isolate"/>
              <ellipse cx="197.044" cy="214.579" rx="0.871" ry="0.978" fill="#fff" opacity="0.37" style="isolation: isolate"/>
              <ellipse cx="198.35" cy="216.144" rx="0.435" ry="0.196" fill="#fff" opacity="0.37" style="isolation: isolate"/>
              <ellipse cx="218.812" cy="206.948" rx="1.306" ry="0.783" fill="#fff" opacity="0.37" style="isolation: isolate"/>
              <ellipse cx="221.86" cy="208.318" rx="1.306" ry="0.587" fill="#fff" opacity="0.37" style="isolation: isolate"/>
              <ellipse cx="236.226" cy="204.404" rx="1.306" ry="0.587" fill="#fff" opacity="0.37" style="isolation: isolate"/>
              <ellipse cx="178.759" cy="208.513" rx="1.306" ry="0.391" fill="#fff"/>
              <ellipse cx="180.718" cy="209.687" rx="1.524" ry="0.391" fill="#fff"/>
            </g>
          </g>
        </g>
        <g>
          <g>
            <rect x="96.423" y="102.461" width="68.787" height="38.359" rx="6.696" fill="#fff"/>
            <path d="M158.514,141.611h-55.4a7.494,7.494,0,0,1-7.486-7.486V109.157a7.5,7.5,0,0,1,7.486-7.487h55.4A7.5,7.5,0,0,1,166,109.157v24.968A7.494,7.494,0,0,1,158.514,141.611Zm-55.4-38.359a5.912,5.912,0,0,0-5.905,5.905v24.968a5.911,5.911,0,0,0,5.905,5.9h55.4a5.911,5.911,0,0,0,5.905-5.9V109.157a5.912,5.912,0,0,0-5.905-5.905Z"/>
          </g>
          <g>
            <path d="M114.572,124.061a.825.825,0,0,1-.14.219,4.12,4.12,0,0,1-1.548,1.183,4.6,4.6,0,0,1-1.894.412,4.489,4.489,0,0,1-3.229-1.342,4.633,4.633,0,0,1-1.315-3.256,4.526,4.526,0,0,1,.352-1.787,4.628,4.628,0,0,1,.963-1.455,4.486,4.486,0,0,1,1.442-.983,4.44,4.44,0,0,1,1.787-.359,5.48,5.48,0,0,1,.8.06,4.266,4.266,0,0,1,.791.192,3.7,3.7,0,0,1,.731.346,3.069,3.069,0,0,1,.624.505.875.875,0,0,1,.279.637.74.74,0,0,1-.246.572.817.817,0,0,1-1.022.086q-.22-.139-.486-.312a3.423,3.423,0,0,0-.624-.312,2.349,2.349,0,0,0-.851-.14,2.715,2.715,0,0,0-1.136.233,2.574,2.574,0,0,0-.87.637,2.992,2.992,0,0,0-.559.944,3.342,3.342,0,0,0,0,2.272,2.992,2.992,0,0,0,.559.944,2.63,2.63,0,0,0,2.006.883,2.3,2.3,0,0,0,1.037-.206,3.329,3.329,0,0,0,.7-.452c.191-.163.364-.314.519-.451a.735.735,0,0,1,.5-.206.836.836,0,0,1,.612.272.854.854,0,0,1,.265.605A.673.673,0,0,1,114.572,124.061Z" fill="#34383d"/>
            <path d="M123.209,118.274a.821.821,0,0,1-.592.239h-2.432v6.405a.884.884,0,0,1-.89.89.835.835,0,0,1-.624-.259.867.867,0,0,1-.253-.631v-6.405h-2.445a.816.816,0,0,1-.824-.824.819.819,0,0,1,.239-.591.786.786,0,0,1,.585-.246h6.644a.84.84,0,0,1,.838.837A.783.783,0,0,1,123.209,118.274Z" fill="#34383d"/>
            <path d="M131.826,120.905a2.195,2.195,0,0,1-1.09.917c.045.089.111.215.2.379s.186.352.292.564.215.432.326.658.213.441.306.645.17.385.232.545a1.107,1.107,0,0,1,.093.345.814.814,0,0,1-.253.6.859.859,0,0,1-1.056.126.8.8,0,0,1-.312-.352c-.027-.044-.082-.153-.166-.325s-.184-.377-.3-.612-.24-.482-.372-.744-.253-.5-.359-.724-.2-.407-.272-.558a2.427,2.427,0,0,1-.113-.239h-2.432v2.8a.827.827,0,0,1-.266.625.879.879,0,0,1-.624.252.863.863,0,0,1-.878-.877v-7.2a.864.864,0,0,1,.878-.877h3.295a5.406,5.406,0,0,1,1.243.14,2.832,2.832,0,0,1,1.029.458,2.3,2.3,0,0,1,.7.824,2.975,2.975,0,0,1-.1,2.631Zm-1.761-2.146a1.354,1.354,0,0,0-.857-.273h-2.657v2.127h2.657a1.415,1.415,0,0,0,.851-.26.909.909,0,0,0,.359-.79A.955.955,0,0,0,130.065,118.759Z" fill="#34383d"/>
            <path d="M140.816,125.456a.806.806,0,0,1-.591.246h-4.89a.884.884,0,0,1-.891-.89v-7.189a.891.891,0,1,1,1.781,0v6.418h4a.819.819,0,0,1,.591.239.786.786,0,0,1,.246.585A.8.8,0,0,1,140.816,125.456Z" fill="#34383d"/>
            <path d="M147.653,123.27a.615.615,0,0,1-.452.187h-1.648V125.1a.7.7,0,1,1-1.408,0v-1.647H142.5a.638.638,0,1,1,0-1.276h1.648v-1.648a.7.7,0,1,1,1.408,0v1.648H147.2a.639.639,0,0,1,.452,1.089Z" fill="#34383d"/>
            <path d="M156.649,117.9l-3.215,7.428a.726.726,0,0,1-.3.352.835.835,0,0,1-.446.126.811.811,0,0,1-.757-.478L148.7,117.9a.91.91,0,0,1-.067-.332.826.826,0,0,1,.239-.585.763.763,0,0,1,.572-.253.876.876,0,0,1,.452.127.718.718,0,0,1,.305.352l2.472,5.94,2.485-5.94a.813.813,0,0,1,.744-.479.818.818,0,0,1,.824.825A.761.761,0,0,1,156.649,117.9Z" fill="#34383d"/>
          </g>
        </g>
        <g>
          <g>
            <rect x="18.148" y="102.461" width="68.787" height="38.359" rx="6.696" fill="#fff"/>
            <path d="M80.239,141.611H24.844a7.494,7.494,0,0,1-7.486-7.486V109.157a7.5,7.5,0,0,1,7.486-7.487h55.4a7.5,7.5,0,0,1,7.487,7.487v24.968A7.5,7.5,0,0,1,80.239,141.611ZM24.844,103.252a5.912,5.912,0,0,0-5.905,5.905v24.968a5.911,5.911,0,0,0,5.905,5.9h55.4a5.91,5.91,0,0,0,5.905-5.9V109.157a5.911,5.911,0,0,0-5.905-5.905Z"/>
          </g>
          <g>
            <path d="M34.228,124.061a.8.8,0,0,1-.14.219,4.112,4.112,0,0,1-1.548,1.183,4.6,4.6,0,0,1-1.894.412,4.489,4.489,0,0,1-3.229-1.342,4.631,4.631,0,0,1-.963-1.462,4.574,4.574,0,0,1-.352-1.794,4.526,4.526,0,0,1,.352-1.787,4.645,4.645,0,0,1,.963-1.455,4.5,4.5,0,0,1,1.442-.983,4.444,4.444,0,0,1,1.787-.359,5.48,5.48,0,0,1,.8.06,4.266,4.266,0,0,1,.791.192,3.7,3.7,0,0,1,.731.346,3.069,3.069,0,0,1,.624.505.875.875,0,0,1,.279.637.74.74,0,0,1-.246.572.817.817,0,0,1-1.022.086q-.221-.139-.486-.312a3.423,3.423,0,0,0-.624-.312,2.345,2.345,0,0,0-.851-.14,2.715,2.715,0,0,0-1.136.233,2.574,2.574,0,0,0-.87.637,2.972,2.972,0,0,0-.558.944,3.326,3.326,0,0,0,0,2.272,2.972,2.972,0,0,0,.558.944,2.63,2.63,0,0,0,2.006.883,2.3,2.3,0,0,0,1.037-.206,3.329,3.329,0,0,0,.7-.452c.191-.163.364-.314.519-.451a.735.735,0,0,1,.5-.206.836.836,0,0,1,.612.272.854.854,0,0,1,.265.605A.673.673,0,0,1,34.228,124.061Z" fill="#34383d"/>
            <path d="M42.865,118.274a.821.821,0,0,1-.592.239H39.841v6.405a.883.883,0,0,1-.89.89.835.835,0,0,1-.624-.259.867.867,0,0,1-.253-.631v-6.405H35.629a.818.818,0,0,1-.824-.824.816.816,0,0,1,.24-.591.783.783,0,0,1,.584-.246h6.644a.84.84,0,0,1,.838.837A.783.783,0,0,1,42.865,118.274Z" fill="#34383d"/>
            <path d="M51.482,120.905a2.195,2.195,0,0,1-1.09.917c.045.089.111.215.2.379s.186.352.292.564.215.432.326.658.213.441.306.645.17.385.232.545a1.107,1.107,0,0,1,.093.345.814.814,0,0,1-.253.6.859.859,0,0,1-1.056.126.8.8,0,0,1-.312-.352c-.027-.044-.082-.153-.166-.325s-.184-.377-.3-.612-.239-.482-.372-.744-.253-.5-.359-.724-.2-.407-.272-.558a2.427,2.427,0,0,1-.113-.239H46.207v2.8a.827.827,0,0,1-.266.625.877.877,0,0,1-.624.252.863.863,0,0,1-.878-.877v-7.2a.864.864,0,0,1,.878-.877h3.3a5.406,5.406,0,0,1,1.243.14,2.832,2.832,0,0,1,1.029.458,2.3,2.3,0,0,1,.7.824,2.975,2.975,0,0,1-.1,2.631Zm-1.761-2.146a1.354,1.354,0,0,0-.857-.273H46.207v2.127h2.657a1.415,1.415,0,0,0,.851-.26.909.909,0,0,0,.359-.79A.955.955,0,0,0,49.721,118.759Z" fill="#34383d"/>
            <path d="M60.472,125.456a.806.806,0,0,1-.591.246h-4.89a.884.884,0,0,1-.891-.89v-7.189a.891.891,0,1,1,1.781,0v6.418h4a.819.819,0,0,1,.591.239.786.786,0,0,1,.246.585A.8.8,0,0,1,60.472,125.456Z" fill="#34383d"/>
            <path d="M67.309,123.27a.613.613,0,0,1-.452.187H65.209V125.1a.7.7,0,1,1-1.408,0v-1.647H62.153a.638.638,0,1,1,0-1.276H63.8v-1.648a.7.7,0,1,1,1.408,0v1.648h1.648a.639.639,0,0,1,.452,1.089Z" fill="#34383d"/>
            <path d="M76.75,124.061a.82.82,0,0,1-.139.219,4.128,4.128,0,0,1-1.548,1.183,4.6,4.6,0,0,1-1.894.412,4.489,4.489,0,0,1-3.229-1.342,4.628,4.628,0,0,1-1.316-3.256,4.543,4.543,0,0,1,.352-1.787,4.647,4.647,0,0,1,.964-1.455,4.486,4.486,0,0,1,1.442-.983,4.44,4.44,0,0,1,1.787-.359,5.48,5.48,0,0,1,.8.06,4.285,4.285,0,0,1,.791.192,3.7,3.7,0,0,1,.73.346,3.075,3.075,0,0,1,.625.505.875.875,0,0,1,.279.637.743.743,0,0,1-.246.572.819.819,0,0,1-1.023.086q-.219-.139-.485-.312a3.4,3.4,0,0,0-.625-.312,2.339,2.339,0,0,0-.85-.14,2.715,2.715,0,0,0-1.136.233,2.564,2.564,0,0,0-.87.637,2.974,2.974,0,0,0-.559.944,3.342,3.342,0,0,0,0,2.272,2.974,2.974,0,0,0,.559.944,2.63,2.63,0,0,0,2.006.883,2.3,2.3,0,0,0,1.037-.206,3.329,3.329,0,0,0,.7-.452c.191-.163.363-.314.519-.451a.735.735,0,0,1,.5-.206.832.832,0,0,1,.611.272.851.851,0,0,1,.266.605A.672.672,0,0,1,76.75,124.061Z" fill="#34383d"/>
          </g>
        </g>
      </g>
    </g>
  </g>
</svg>
