<?xml version="1.0" encoding="utf-8"?>
<!-- Generator: Adobe Illustrator 25.0.1, SVG Export Plug-In . SVG Version: 6.00 Build 0)  -->
<svg version="1.1" id="Layer_1" xmlns="http://www.w3.org/2000/svg" xmlns:xlink="http://www.w3.org/1999/xlink" x="0px" y="0px"
	 viewBox="0 0 800 250" style="enable-background:new 0 0 800 250;" xml:space="preserve">
<style type="text/css">
	.st0{fill:#222222;}
	.st1{opacity:0.8;fill:#FFFFFF;enable-background:new    ;}
	.st2{fill:#1C1C1C;}
	.st3{fill:#FFFFFF;}
	.st4{fill:#444444;}
	.st5{fill:#FF0000;}
	.st6{fill:#3B3B3B;}
	.st7{fill:url(#SVGID_1_);}
	.st8{fill:url(#SVGID_2_);}
	.st9{fill:#229E45;}
	.st10{fill:#F8E509;}
	.st11{fill:#2B49A3;}
	.st12{fill:#FFFFEF;}
	.st13{fill:#309E3A;}
	.st14{fill:#4E514E;}
	.st15{opacity:0.25;fill:#FFFFFF;enable-background:new    ;}
	.st16{fill:#F7FFFF;}
	.st17{fill:#32323F;}
	.st18{fill:#474757;}
	.st19{fill:#DDDDDD;}
	.st20{fill:#BAC0D8;}
	.st21{fill:#ACAFBC;}
	.st22{fill:url(#SVGID_3_);}
	.st23{fill:url(#SVGID_4_);}
	.st24{fill:url(#SVGID_5_);}
	.st25{fill:url(#SVGID_6_);}
	.st26{fill:url(#SVGID_7_);}
	.st27{fill:url(#SVGID_8_);}
	.st28{fill:url(#SVGID_9_);}
	.st29{fill:url(#SVGID_10_);}
	.st30{fill:url(#SVGID_11_);}
	.st31{fill:url(#SVGID_12_);}
	.st32{fill:url(#SVGID_13_);}
	.st33{fill:url(#SVGID_14_);}
	.st34{fill:url(#SVGID_15_);}
	.st35{fill:url(#SVGID_16_);}
	.st36{fill:url(#SVGID_17_);}
	.st37{fill:url(#SVGID_18_);}
	.st38{opacity:0.47;fill:url(#SVGID_19_);enable-background:new    ;}
</style>
<g id="Layer_1_1_">
	<rect class="st0" width="800" height="250"/>
</g>
<g id="Layer_7">
	<circle class="st1" cx="579.5" cy="72.5" r="3.5"/>
	<circle class="st1" cx="694.5" cy="30.5" r="3.5"/>
	<circle class="st1" cx="464.5" cy="34.5" r="3.5"/>
	<circle class="st1" cx="727.5" cy="125.5" r="3.5"/>
	<circle class="st1" cx="486.5" cy="130.5" r="3.5"/>
	<circle class="st1" cx="201.5" cy="20.5" r="3.5"/>
	<circle class="st1" cx="83.5" cy="34.5" r="3.5"/>
	<circle class="st1" cx="29.5" cy="98.5" r="3.5"/>
	<g>
		<g>
			<path class="st2" d="M306,155.5c-6.4,8.9-15.2,16.4-25.9,21.3c-21.5,9.8-45.4,7-63.6-5.3c-8.4,13.6-13.7,29.4-14.8,46.3h-0.2v28
				h203.3v-28h-0.2c-1.4-20.6-8.9-39.5-20.7-54.9c-2.4,1.5-4.9,2.8-7.5,4C352,178,324.4,172.6,306,155.5z"/>
			<path class="st3" d="M303.1,123c-36.6,0-68.7,19.4-86.6,48.5c18.2,12.3,42.2,15.1,63.6,5.3c10.7-4.9,19.5-12.3,25.9-21.3
				c18.4,17.1,46,22.5,70.3,11.4c2.6-1.2,5.1-2.5,7.5-4C365.2,138.6,336,123,303.1,123z"/>
		</g>
		<g>
			<path class="st4" d="M256.1,252.1c-1.9-28-15.1-52.9-35.1-70.1c-4.7,1.8-9.8,2.8-15.2,2.8c-10.6,0-20.2-3.9-27.7-10.3
				c-4.5,5.1-9.9,9.3-16,12.4c-6.2,29-31.9,50.8-62.8,50.8c-15.2,0-29.1-5.3-40.1-14c-3.3,9-5.4,18.5-6.1,28.5H53V250h203.3v2.1
				H256.1z"/>
			<path class="st3" d="M162.2,186.9c6.1-3.1,11.5-7.3,16-12.4c7.4,6.4,17.1,10.3,27.7,10.3c5.4,0,10.5-1,15.2-2.8
				c-17.8-15.4-41-24.7-66.4-24.7c-43.7,0-81,27.6-95.4,66.3c11,8.8,24.9,14,40.1,14C130.3,237.7,156,215.9,162.2,186.9z"/>
		</g>
	</g>
	<path class="st4" d="M565.5,231.1L565.5,231.1c-2.9,0-5.2-2.3-5.2-5.2V31.3c0-2.9,2.3-5.2,5.2-5.2l0,0c2.9,0,5.2,2.3,5.2,5.2v194.6
		C570.7,228.8,568.4,231.1,565.5,231.1z"/>
	<g>
		<g>
			<rect x="570.7" y="36.3" class="st3" width="33.7" height="33.7"/>
			<rect x="570.7" y="70" width="33.7" height="33.7"/>
			<rect x="604.5" y="70.1" class="st3" width="33.7" height="33.7"/>
			<rect x="604.5" y="36.3" width="33.7" height="33.7"/>
			<rect x="638.2" y="36.3" class="st3" width="33.7" height="33.7"/>
			<rect x="638.2" y="70" width="33.7" height="33.7"/>
			<rect x="672" y="70.1" class="st3" width="33.7" height="33.7"/>
			<rect x="672" y="36.3" width="33.7" height="33.7"/>
			<rect x="705.7" y="36.3" class="st3" width="33.7" height="33.7"/>
			<rect x="705.7" y="70" width="33.7" height="33.7"/>
			<rect x="739.5" y="70.1" class="st3" width="33.7" height="33.7"/>
			<rect x="739.5" y="36.3" width="33.7" height="33.7"/>
		</g>
		<g>
			<g>
				<g>
					<path class="st5" d="M620,84.1c-0.5,0-1.1,0-1.9-0.1c-0.8-0.1-1.6-0.2-2.4-0.4c-0.9-0.2-1.8-0.4-2.6-0.7
						c-0.9-0.3-1.7-0.6-2.5-1s-1.5-0.9-2-1.4c-0.6-0.7-0.9-1.4-0.9-2.3s0.3-1.7,1-2.4c0.7-0.7,1.5-1.1,2.4-1.1
						c0.6,0,1.1,0.1,1.6,0.4c0.6,0.3,1.2,0.6,1.8,0.9c0.6,0.2,1.2,0.4,1.8,0.6s1.2,0.3,1.8,0.4s1.3,0.1,2,0.1c0.4,0,1,0,1.6-0.1
						s1.1-0.2,1.6-0.3c0.5-0.2,0.8-0.4,1.2-0.7c0.1-0.1,0.3-0.3,0.3-0.8c0-0.3-0.1-0.7-0.7-1c-0.7-0.4-1.6-0.8-2.7-1.1
						c-1.1-0.4-2.4-0.7-3.7-1.1c-1.4-0.4-2.8-0.9-4-1.6c-1.3-0.7-2.3-1.6-3.2-2.7c-0.9-1.2-1.4-2.7-1.4-4.6c0-1.6,0.4-3,1.2-4.1
						c0.7-1.1,1.7-1.9,2.9-2.5c1.1-0.6,2.3-1,3.7-1.2c1.3-0.2,2.6-0.3,3.8-0.3c0.6,0,1.3,0,2.1,0.1s1.6,0.2,2.4,0.3
						c0.8,0.1,1.6,0.3,2.3,0.5c0.8,0.2,1.5,0.5,2.1,0.7c0.6,0.3,1.1,0.7,1.5,1.1c0.4,0.5,0.6,1.2,0.6,2c0,0.9-0.3,1.8-1,2.4
						s-1.5,1-2.4,1c-0.4,0-0.8-0.1-1.3-0.3c-1-0.4-2.1-0.7-3.1-0.9s-2.1-0.3-3.2-0.3c-0.4,0-0.9,0-1.5,0c-0.5,0-1.1,0.1-1.6,0.2
						c-0.4,0.1-0.8,0.3-1.1,0.5c-0.1,0.1-0.2,0.2-0.2,0.6c0,0.1,0,0.3,0.2,0.5c0.2,0.3,0.6,0.5,1,0.8c0.4,0.3,1,0.5,1.5,0.7
						c0.6,0.2,1.2,0.4,1.8,0.6s1.1,0.3,1.6,0.5c0.5,0.1,0.9,0.3,1.2,0.3c1,0.3,2,0.7,3,1.1s1.9,0.9,2.7,1.6c0.8,0.6,1.4,1.5,1.9,2.4
						c0.5,1,0.7,2.1,0.7,3.4c0,1.7-0.4,3.2-1.1,4.4c-0.7,1.1-1.7,2.1-2.9,2.8c-1.1,0.7-2.4,1.1-3.8,1.4
						C622.7,83.9,621.3,84.1,620,84.1z"/>
					<path d="M620.6,56c0.6,0,1.3,0,2.1,0.1s1.5,0.2,2.3,0.3s1.5,0.3,2.3,0.5c0.7,0.2,1.4,0.4,1.9,0.7c0.4,0.2,0.8,0.5,1.1,0.9
						s0.4,0.8,0.4,1.3c0,0.7-0.2,1.3-0.7,1.7c-0.5,0.5-1.1,0.7-1.7,0.7c-0.3,0-0.6-0.1-0.9-0.2c-1.1-0.4-2.2-0.7-3.2-0.9
						c-1.1-0.2-2.2-0.3-3.4-0.3c-0.4,0-0.9,0-1.5,0s-1.2,0.1-1.8,0.3s-1.1,0.4-1.5,0.7s-0.6,0.8-0.6,1.4c0,0.4,0.2,0.8,0.5,1.2
						s0.7,0.7,1.2,1s1.1,0.6,1.7,0.8c0.6,0.2,1.2,0.4,1.8,0.6s1.1,0.3,1.6,0.5c0.5,0.1,0.9,0.3,1.2,0.3c1,0.3,1.9,0.7,2.9,1
						c0.9,0.4,1.7,0.8,2.4,1.4s1.2,1.3,1.7,2.1c0.4,0.8,0.6,1.8,0.6,3c0,1.5-0.3,2.8-1,3.8s-1.5,1.8-2.5,2.4s-2.2,1-3.5,1.3
						c-1.3,0.2-2.6,0.4-3.9,0.4c-0.4,0-1,0-1.8-0.1c-0.7-0.1-1.5-0.2-2.3-0.4c-0.8-0.2-1.7-0.4-2.5-0.6c-0.8-0.3-1.6-0.6-2.3-0.9
						c-0.7-0.4-1.3-0.8-1.7-1.2c-0.4-0.5-0.7-1-0.7-1.6s0.2-1.2,0.7-1.7s1-0.7,1.7-0.7c0.4,0,0.8,0.1,1.1,0.3
						c0.7,0.4,1.3,0.7,1.9,0.9c0.6,0.3,1.3,0.5,1.9,0.6c0.6,0.2,1.3,0.3,1.9,0.4c0.7,0.1,1.4,0.1,2.1,0.1c0.5,0,1,0,1.7-0.1
						c0.6-0.1,1.3-0.2,1.8-0.4c0.6-0.2,1.1-0.5,1.5-0.9s0.6-0.9,0.6-1.5c0-0.8-0.4-1.4-1.2-1.9s-1.7-0.9-2.9-1.2
						c-1.1-0.4-2.4-0.7-3.8-1.1c-1.4-0.4-2.6-0.9-3.8-1.5c-1.1-0.6-2.1-1.4-2.9-2.5c-0.8-1-1.2-2.4-1.2-4c0-1.4,0.3-2.6,1-3.6
						s1.5-1.7,2.5-2.2s2.2-0.9,3.4-1.1C618.2,56.1,619.5,56,620.6,56 M620.6,54c-1.3,0-2.6,0.1-4,0.3c-1.5,0.2-2.8,0.7-4,1.3
						c-1.3,0.7-2.4,1.6-3.2,2.8c-0.9,1.3-1.3,2.9-1.3,4.7c0,2.1,0.5,3.9,1.6,5.2c0.9,1.2,2.1,2.3,3.5,3c1.3,0.7,2.7,1.3,4.2,1.7
						c1.3,0.4,2.6,0.7,3.7,1.1c1,0.3,1.8,0.6,2.4,1c0.1,0.1,0.2,0.1,0.2,0.1l0,0c0,0,0,0,0,0.1c-0.2,0.2-0.5,0.3-0.8,0.4
						c-0.4,0.1-0.9,0.2-1.4,0.3c-0.6,0.1-1.1,0.1-1.5,0.1c-0.7,0-1.3,0-1.9-0.1c-0.6-0.1-1.1-0.2-1.7-0.3c-0.5-0.1-1.1-0.3-1.6-0.6
						c-0.6-0.2-1.1-0.5-1.7-0.8c-0.7-0.4-1.4-0.6-2.1-0.6c-1.2,0-2.3,0.5-3.1,1.4s-1.3,1.9-1.3,3.1c0,1.1,0.4,2.1,1.2,2.9
						c0.6,0.6,1.4,1.2,2.2,1.6s1.7,0.8,2.6,1c0.9,0.3,1.8,0.5,2.7,0.7s1.7,0.3,2.5,0.4s1.5,0.1,2,0.1c1.4,0,2.8-0.1,4.2-0.4
						c1.5-0.3,2.9-0.8,4.1-1.5c1.3-0.8,2.4-1.8,3.2-3.1c0.9-1.3,1.3-3,1.3-4.9c0-1.5-0.3-2.8-0.8-3.9s-1.3-2-2.2-2.7
						c-0.8-0.7-1.8-1.3-2.9-1.7c-1-0.4-2-0.8-3-1.1l0,0l0,0c-0.3-0.1-0.7-0.2-1.2-0.3c-0.5-0.1-1-0.3-1.6-0.5
						c-0.5-0.2-1.1-0.4-1.7-0.6c-0.5-0.2-1-0.4-1.4-0.6c-0.2-0.1-0.4-0.3-0.6-0.4c0.1-0.1,0.3-0.1,0.5-0.2c0.4-0.1,0.9-0.2,1.3-0.2
						c0.6,0,1.1,0,1.5,0c1,0,2,0.1,3,0.3s2,0.5,3,0.8c0.6,0.2,1.1,0.3,1.6,0.3c1.2,0,2.3-0.5,3.2-1.3c0.9-0.9,1.3-1.9,1.3-3.2
						c0-1-0.3-1.9-0.9-2.6c-0.5-0.6-1.1-1.1-1.8-1.4c-0.7-0.3-1.4-0.6-2.3-0.8c-0.8-0.2-1.6-0.4-2.4-0.5c-0.8-0.2-1.7-0.3-2.5-0.3
						C622,54.1,621.3,54,620.6,54L620.6,54z"/>
				</g>
				<g>
					<path class="st5" d="M644.9,83.9c-1,0-1.9-0.4-2.6-1.1c-0.7-0.7-1-1.6-1-2.6V62.4h-6.2c-1,0-1.8-0.3-2.4-1s-1-1.5-1-2.4
						s0.3-1.8,1-2.4c0.7-0.7,1.5-1,2.4-1h19.6c0.9,0,1.8,0.3,2.4,1c0.7,0.7,1,1.5,1,2.4s-0.4,1.8-1,2.4c-0.7,0.7-1.5,1-2.4,1h-6.2
						v17.9c0,1-0.4,1.9-1.1,2.6C646.7,83.5,645.9,83.9,644.9,83.9z"/>
					<path d="M654.7,56.5c0.7,0,1.3,0.2,1.7,0.7c0.5,0.5,0.7,1.1,0.7,1.7c0,0.7-0.2,1.3-0.7,1.7c-0.5,0.5-1.1,0.7-1.7,0.7h-7.2v18.9
						c0,0.7-0.3,1.4-0.8,1.9s-1.1,0.8-1.9,0.8s-1.3-0.3-1.8-0.8s-0.7-1.1-0.7-1.9V61.4h-7.2c-0.7,0-1.3-0.2-1.7-0.7s-0.7-1-0.7-1.7
						s0.2-1.3,0.7-1.7s1-0.7,1.7-0.7L654.7,56.5 M654.7,54.5h-19.6c-1.2,0-2.3,0.5-3.2,1.3c-0.8,0.9-1.3,1.9-1.3,3.1
						c0,1.2,0.4,2.3,1.3,3.1c0.8,0.8,1.9,1.3,3.1,1.3h5.2v16.9c0,1.3,0.5,2.4,1.3,3.3c0.9,0.9,2,1.4,3.3,1.4s2.4-0.5,3.3-1.3
						c0.9-0.9,1.3-2,1.3-3.3V63.4h5.2c1.2,0,2.3-0.4,3.1-1.3c0.9-0.8,1.3-1.9,1.3-3.2c0-1.2-0.5-2.3-1.3-3.2
						C657,54.9,655.9,54.5,654.7,54.5L654.7,54.5z"/>
				</g>
				<g>
					<path class="st5" d="M680.2,83.9c-0.7,0-1.3-0.2-1.9-0.5c-0.5-0.3-1-0.8-1.2-1.4l-1.9-4.2h-10l-1.9,4.2
						c-0.3,0.6-0.7,1.1-1.3,1.5c-0.6,0.3-1.2,0.5-1.8,0.5c-1,0-1.8-0.3-2.4-1c-0.7-0.7-1-1.5-1-2.4c0-0.5,0.1-1,0.3-1.4l10-21.9
						c0.3-0.6,0.7-1.1,1.2-1.4c0.6-0.4,1.2-0.6,1.8-0.6s1.3,0.2,1.8,0.5c0.6,0.4,1,0.8,1.3,1.5l10,21.9c0.2,0.5,0.3,1,0.3,1.4
						c0,0.9-0.3,1.8-1,2.4C682,83.5,681.1,83.9,680.2,83.9z M672.3,71.3l-2.1-4.7l-2.1,4.7H672.3z"/>
					<path d="M670.1,56.1c0.5,0,0.9,0.1,1.3,0.4c0.4,0.2,0.7,0.6,0.9,1l10,21.9c0.1,0.3,0.2,0.7,0.2,1c0,0.7-0.2,1.3-0.7,1.7
						s-1,0.7-1.7,0.7c-0.5,0-0.9-0.1-1.3-0.4c-0.4-0.2-0.7-0.6-0.9-1l-2.2-4.8h-11.3l-2.2,4.8c-0.2,0.4-0.5,0.8-0.9,1
						s-0.8,0.4-1.3,0.4c-0.7,0-1.3-0.2-1.7-0.7c-0.5-0.5-0.7-1.1-0.7-1.7c0-0.3,0.1-0.7,0.2-1l10-21.9c0.2-0.4,0.5-0.8,0.9-1
						C669.2,56.3,669.6,56.1,670.1,56.1 M666.5,72.3h7.3l-3.7-8.1L666.5,72.3 M670.1,54.1c-0.9,0-1.7,0.2-2.4,0.7s-1.2,1.1-1.6,1.9
						l-10,21.8c-0.3,0.6-0.4,1.2-0.4,1.8c0,1.2,0.5,2.3,1.3,3.2c0.9,0.9,1.9,1.3,3.2,1.3c0.9,0,1.6-0.2,2.4-0.7
						c0.7-0.5,1.3-1.1,1.6-1.9l1.6-3.6h8.7l1.6,3.6c0.4,0.8,0.9,1.4,1.6,1.9c0.7,0.5,1.5,0.7,2.4,0.7c1.2,0,2.3-0.5,3.1-1.3
						s1.3-1.9,1.3-3.1c0-0.6-0.1-1.2-0.3-1.7v-0.1v-0.1l-10-21.9c-0.4-0.8-1-1.5-1.7-1.9C671.7,54.4,670.9,54.1,670.1,54.1
						L670.1,54.1z M669.6,70.3l0.6-1.3l0.6,1.3H669.6L669.6,70.3z"/>
				</g>
				<g>
					<path class="st5" d="M706.3,83.9c-0.7,0-1.3-0.2-1.8-0.5c-0.6-0.3-1-0.8-1.3-1.4c-0.1-0.2-0.3-0.5-0.5-1l-0.8-1.7
						c-0.4-0.8-0.7-1.5-1.1-2.3c-0.4-0.8-0.8-1.5-1.1-2.2c-0.3-0.6-0.6-1.2-0.8-1.6c0-0.1-0.1-0.1-0.1-0.2h-5.5v7.3
						c0,1-0.4,1.9-1.1,2.6c-0.7,0.7-1.6,1-2.5,1c-1,0-1.9-0.3-2.5-1c-0.7-0.7-1-1.5-1-2.5V59.1c0-1,0.3-1.9,1-2.5
						c0.7-0.7,1.5-1,2.5-1h9.7c1.3,0,2.7,0.1,3.9,0.4c1.3,0.3,2.4,0.8,3.4,1.5s1.8,1.7,2.4,2.8c0.6,1.1,0.9,2.5,0.9,4.1
						c0,1.7-0.4,3.3-1.2,4.6c-0.6,1.1-1.6,2-2.7,2.6c0,0.1,0.1,0.1,0.1,0.2c0.3,0.5,0.6,1.1,0.9,1.7c0.3,0.6,0.6,1.3,1,1.9
						c0.3,0.7,0.6,1.3,0.9,1.9c0.3,0.6,0.5,1.2,0.7,1.7c0.2,0.6,0.3,1,0.3,1.4c0,1-0.3,1.8-1,2.5C708.1,83.5,707.3,83.9,706.3,83.9z
						 M700.1,66.6c0.8,0,1.4-0.2,1.9-0.6c0.3-0.2,0.6-0.6,0.6-1.5c0-1-0.4-1.4-0.6-1.6c-0.5-0.4-1.1-0.6-1.9-0.6h-6.8v4.3
						C693.3,66.6,700.1,66.6,700.1,66.6z"/>
					<path d="M699.4,56.5c1.3,0,2.5,0.1,3.7,0.4c1.2,0.3,2.2,0.7,3,1.4c0.9,0.6,1.5,1.4,2.1,2.4s0.8,2.2,0.8,3.6
						c0,1.5-0.4,2.9-1.1,4.1c-0.7,1.2-1.8,2.1-3.2,2.7c0.1,0.3,0.3,0.6,0.6,1.1s0.5,1,0.9,1.7c0.3,0.6,0.6,1.3,1,1.9
						s0.6,1.3,0.9,1.9c0.3,0.6,0.5,1.1,0.7,1.6s0.3,0.8,0.3,1c0,0.7-0.2,1.3-0.7,1.8s-1.1,0.7-1.8,0.7c-0.5,0-0.9-0.1-1.3-0.4
						c-0.4-0.2-0.7-0.6-0.9-1c-0.1-0.1-0.2-0.5-0.5-1s-0.5-1.1-0.9-1.8c-0.3-0.7-0.7-1.4-1.1-2.2c-0.4-0.8-0.7-1.5-1.1-2.1
						c-0.3-0.7-0.6-1.2-0.8-1.6s-0.3-0.7-0.3-0.7h-7.2v8.3c0,0.7-0.3,1.3-0.8,1.8s-1.1,0.7-1.8,0.7s-1.3-0.2-1.8-0.7
						s-0.7-1.1-0.7-1.8V59.1c0-0.7,0.2-1.3,0.7-1.8s1.1-0.7,1.8-0.7L699.4,56.5 M692.3,67.6h7.8c1,0,1.8-0.3,2.5-0.8
						s1.1-1.3,1.1-2.3s-0.3-1.8-1-2.4c-0.7-0.5-1.5-0.8-2.5-0.8h-7.8L692.3,67.6 M699.4,54.5h-9.7c-1.3,0-2.4,0.5-3.3,1.3
						c-0.9,0.9-1.3,2-1.3,3.3v21.2c0,1.3,0.5,2.4,1.3,3.3c0.9,0.9,2,1.3,3.3,1.3c1.2,0,2.3-0.4,3.2-1.3s1.4-2,1.4-3.3V74h3.9
						c0.2,0.4,0.4,0.8,0.6,1.2c0.3,0.7,0.7,1.4,1.1,2.2c0.4,0.8,0.7,1.5,1.1,2.2v0.1l0.8,1.7c0.3,0.6,0.4,0.9,0.5,1
						c0.4,0.8,0.9,1.4,1.6,1.8c0.7,0.4,1.5,0.7,2.4,0.7c1.2,0,2.3-0.5,3.2-1.3c0.9-0.9,1.3-2,1.3-3.2c0-0.5-0.1-1-0.4-1.7
						c-0.2-0.5-0.4-1.1-0.7-1.7s-0.6-1.3-0.9-1.9c-0.3-0.7-0.7-1.3-1-2c-0.2-0.4-0.4-0.8-0.6-1.1c0.9-0.7,1.7-1.5,2.3-2.5
						c0.9-1.5,1.3-3.2,1.3-5.1c0-1.7-0.3-3.3-1-4.6s-1.5-2.3-2.7-3.1c-1.1-0.8-2.3-1.3-3.7-1.7C702.2,54.7,700.8,54.5,699.4,54.5
						L699.4,54.5z M694.3,63.3h5.8c0.7,0,1.1,0.2,1.3,0.4c0.1,0.1,0.3,0.2,0.3,0.8c0,0.5-0.2,0.7-0.2,0.7c-0.4,0.3-0.8,0.4-1.3,0.4
						h-5.8L694.3,63.3L694.3,63.3z"/>
				</g>
				<g>
					<path class="st5" d="M723.8,83.9c-1,0-1.9-0.4-2.6-1.1c-0.7-0.7-1-1.6-1-2.6V62.4H714c-1,0-1.8-0.3-2.4-1s-1-1.5-1-2.4
						s0.3-1.8,1-2.4c0.7-0.7,1.5-1,2.4-1h19.6c1,0,1.8,0.3,2.4,1c0.7,0.7,1,1.5,1,2.4s-0.4,1.8-1,2.4c-0.7,0.7-1.5,1-2.4,1h-6.2
						v17.9c0,1-0.4,1.9-1.1,2.6C725.7,83.5,724.8,83.9,723.8,83.9z"/>
					<path d="M733.6,56.5c0.7,0,1.3,0.2,1.7,0.7c0.5,0.5,0.7,1.1,0.7,1.7c0,0.7-0.2,1.3-0.7,1.7c-0.5,0.5-1.1,0.7-1.7,0.7h-7.2v18.9
						c0,0.7-0.3,1.4-0.8,1.9s-1.1,0.8-1.9,0.8s-1.3-0.3-1.8-0.8s-0.7-1.1-0.7-1.9V61.4H714c-0.7,0-1.3-0.2-1.7-0.7s-0.7-1-0.7-1.7
						s0.2-1.3,0.7-1.7s1-0.7,1.7-0.7L733.6,56.5 M733.6,54.5H714c-1.2,0-2.3,0.5-3.2,1.3c-0.8,0.9-1.3,1.9-1.3,3.1
						c0,1.2,0.4,2.3,1.3,3.1c0.8,0.8,1.9,1.3,3.1,1.3h5.2v16.9c0,1.3,0.5,2.4,1.3,3.3c0.9,0.9,2,1.4,3.3,1.4s2.4-0.5,3.3-1.3
						c0.9-0.9,1.3-2,1.3-3.3V63.4h5.2c1.2,0,2.3-0.4,3.1-1.3c0.9-0.8,1.3-1.9,1.3-3.2c0-1.2-0.5-2.3-1.3-3.2
						C735.9,54.9,734.8,54.5,733.6,54.5L733.6,54.5z"/>
				</g>
			</g>
		</g>
		<path class="st4" d="M778.4,231.1L778.4,231.1c-2.9,0-5.2-2.3-5.2-5.2V31.3c0-2.9,2.3-5.2,5.2-5.2l0,0c2.9,0,5.2,2.3,5.2,5.2
			v194.6C783.6,228.8,781.2,231.1,778.4,231.1z"/>
	</g>
</g>
<g id="Layer_5">
	<rect y="220" class="st6" width="800" height="30"/>
	<rect x="15" y="220" class="st3" width="99" height="6"/>
	<rect x="221" y="220" class="st3" width="99" height="6"/>
	<rect x="429" y="220" class="st3" width="99" height="6"/>
	<rect x="635" y="220" class="st3" width="99" height="6"/>
</g>
<g id="Layer_6">
</g>
<linearGradient id="SVGID_1_" gradientUnits="userSpaceOnUse" x1="664.4" y1="66" x2="710.2798" y2="66" gradientTransform="matrix(1 0 0 -1 0 252)">
	<stop  offset="0" style="stop-color:#FCEE21"/>
	<stop  offset="1" style="stop-color:#FCEE21;stop-opacity:0"/>
</linearGradient>
<polygon class="st7" points="710.2,210.9 664.4,192.8 664.4,180.5 710.2,161.1 "/>
<g id="Layer_2_1_">
	<g id="Layer_14_1_">
		<g id="flagcar-br">
			
				<radialGradient id="SVGID_2_" cx="475.2352" cy="69.3623" r="10.2103" gradientTransform="matrix(1 0 0 -0.99 0 220.1)" gradientUnits="userSpaceOnUse">
				<stop  offset="0" style="stop-color:#DCDCDC"/>
				<stop  offset="0.69" style="stop-color:#A3A3A3"/>
				<stop  offset="1" style="stop-color:#878787"/>
			</radialGradient>
			<path class="st8" d="M480.3,147.3c-0.2,0.1-0.3,0.2-0.3,0.2s-7.9,0-13.6-0.7l8.1,8.8h10.5L480.3,147.3z"/>
			<path class="st9" d="M646.2,159.2c2.5,0.1,5,0.5,7.4,1.1C651.2,159.6,648.8,159.3,646.2,159.2z"/>
			<path class="st9" d="M525.7,192c1.5,5.2,1.3,10.8-0.7,15.9l93.1-0.8c-1.7-4.7-1.9-9.8-0.6-14.7l-44.9,14.6L525.7,192z"/>
			<path class="st9" d="M680.1,194.1c0-3.2-0.4-6.4-1.3-9.5c0.9,3.8,1.3,7.8,1.3,11.7V194.1z"/>
			<path class="st9" d="M663.3,177.6l-6.3,2c8.1,6.4,11.4,17.3,8.1,27.1l15-0.1v-10.3C680.1,196.3,675.8,184.9,663.3,177.6z"/>
			<path class="st9" d="M471,199v2.7l6.2,0.8c-1.3-8.8,2.3-17.7,9.3-23.1l-22.6-7.3l16.8-5.5l-18.8-1l0.1,13.3l9.4,8.9L471,199z"/>
			<path class="st9" d="M571.9,136.9l23.9,7.7c0.2-0.3,0.6-0.6,0.9-0.8l7.7-0.4c-5.4-8.5-15.3-7.2-15.3-7.2s-31.6-1.3-36-0.9
				c-2.8,0.3-5.5,1.1-8.1,2.2l-35.6,17.9c0.6,0,2.2,0.1,4.5,0.3L571.9,136.9z"/>
			<path class="st9" d="M480.3,147.3c1.6-1,8.3-5.9,1.5-11.9h-23.9c0,0,0,9.4,5,10.7c1.2,0.3,2.3,0.5,3.5,0.6
				c5.7,0.7,13.6,0.7,13.6,0.7S480.1,147.4,480.3,147.3z"/>
			<path class="st10" d="M619.7,174.4l-0.5,0c-0.2,0.8-0.4,1.6-0.7,2.3h0c-0.5,1.3-1.2,2.5-2.1,3.5l0,0h0
				c-6.6,8.5-23.1,14.6-42.5,14.6c-25.1,0-45.4-10.2-45.4-22.8c0-0.9,0.1-1.8,0.3-2.6l-48.1-2.7l-16.8,5.5l22.6,7.3
				c10.9-8.4,26.6-6.4,35,4.5c1.9,2.4,3.3,5.2,4.2,8.1l46.9,15.1l44.9-14.6c3.7-13.3,17.4-21.1,30.7-17.4c3.2,0.9,6.3,2.4,8.9,4.5
				l6.3-2C653.9,172,640,168.8,619.7,174.4z"/>
			<path class="st10" d="M546.3,153.9l4.9-6.9c0,0,1.8-3.1,7.2-3.6c5.4-0.4,22.5,0,22.5,0s3.3-0.4,9.7,7.3c3.6,0.7,7.2,1.7,10.7,3
				l-4.6-5.8c0,0-1.9-1.9-0.9-3.3l-23.9-7.7l-58.2,19c5.1,0.5,13.6,1.4,23.6,2.6C540.2,156.6,543.2,155.1,546.3,153.9z"/>
			<path class="st11" d="M528.8,169.3c-0.2,0.9-0.3,1.7-0.3,2.6c0,12.6,20.3,22.8,45.4,22.8c19.4,0,35.9-6.1,42.5-14.6
				c-5.9-2.8-12-5.1-18.3-7L528.8,169.3z M536.1,180.5L536.1,180.5l-1-0.3l-1,0.2l0.2-0.5l-0.8-0.4l0,0l0.9-0.1h0.1l0.5-0.5l0,0
				l0.5,0.5l1.1,0.1l-0.8,0.4L536.1,180.5z M542.7,178.8l-1.4-0.4l-1.4,0.3l0.3-0.8l-1.1-0.6l1.6-0.1l0.8-0.7l0.7,0.8l1.6,0.1
				l-1.2,0.6L542.7,178.8z M545.8,176.7l-0.6,0.1l0.1-0.3l-0.5-0.2l0.7,0l0.3-0.3l0.3,0.3l0.7,0.1l-0.5,0.2l0.1,0.4L545.8,176.7z
				 M549.2,183l-0.9-0.3l-1,0.2l0.2-0.5l-0.8-0.4l1.1-0.1l0.5-0.5l0.5,0.5l1.1,0.1l-0.8,0.4L549.2,183z M551,180.5l-0.9-0.3l-1,0.2
				l0.2-0.5l-0.8-0.4l1.1-0.1l0.5-0.5l0.5,0.5l1.1,0.1l-0.8,0.4L551,180.5z M558.9,185.7l-1.4-0.4l-1.4,0.4l0.3-0.8l-1.1-0.6
				l1.6-0.1l0.8-0.7l0.7,0.8l1.6,0.1l-1.2,0.5L558.9,185.7z M558.7,173.4l0.2,0.8l-1.4-0.4l-1.4,0.4l0.3-0.8l-1.1-0.6l1.6-0.1
				l0.8-0.7l0.7,0.8l1.6,0.1L558.7,173.4z M571.1,178.5l-1-0.3l-1,0.3l0.2-0.5l-0.7-0.4l1.1-0.1l0.5-0.5l0.4,0.5l1.1,0.1l-0.8,0.4
				L571.1,178.5z M573.7,175l0.7-0.7l0.7,0.8l1.6,0.1l-1.2,0.6l0.3,0.8l-1.4-0.4l-1.4,0.4l0.3-0.8l-1.1-0.6L573.7,175z M572.5,179.6
				l0.8-0.1l0.4-0.4l0.4,0.4l0.8,0.1l-0.6,0.3l0.1,0.4l-0.7-0.2l-0.7,0.2l0.2-0.4L572.5,179.6z M575.5,190.1l-0.6-0.2l-0.6,0.2
				l0.1-0.4l-0.5-0.2l0.7,0l0.3-0.3l0.3,0.3l0.7,0.1l-0.5,0.2L575.5,190.1z M576.3,183.3l-1.2-0.4l-1.2,0.3l0.3-0.7l-1-0.5l1.4-0.1
				l0.6-0.6l0.6,0.7l1.4,0.1l-1.1,0.5L576.3,183.3z M580.2,178.5l-0.9-0.3l-1,0.3l0.2-0.5l-0.7-0.4l1.1-0.1l0.5-0.5l0.4,0.5l1.1,0.1
				l-0.8,0.4L580.2,178.5z M585.2,185.1l-0.7-0.2l-0.7,0.2l0.2-0.4l-0.6-0.3l0.8,0l0.4-0.4l0.4,0.4l0.7,0.1l-0.6,0.3L585.2,185.1z
				 M589.4,189.5l-1.4-0.4l-1.4,0.4l0.3-0.8l-1.1-0.6l1.6-0.1l0.8-0.7l0.7,0.8l1.6,0.1l-1.2,0.6L589.4,189.5z M591.7,185.1l-0.7-0.2
				l-0.7,0.2l0.1-0.4l-0.5-0.3l0.8,0l0.4-0.4l0.4,0.4l0.8,0.1l-0.6,0.3L591.7,185.1z M598.6,189.8l-0.9-0.2l-0.9,0.2l0.2-0.5
				l-0.7-0.4l1-0.1l0.4-0.4l0.4,0.5l1,0.1l-0.7,0.4L598.6,189.8z M607.4,182.7l-0.8-0.2l-0.8,0.2l0.2-0.4l-0.6-0.3l0.9-0.1l0.4-0.4
				l0.4,0.4l0.9,0.1l-0.7,0.3L607.4,182.7z M611.5,179.9l0.4-0.4l0.4,0.4l0.7,0.1l-0.6,0.3l0.1,0.4l-0.7-0.2l-0.7,0.2l0.2-0.4
				l-0.6-0.3L611.5,179.9z M605.4,179.8l0.6-0.6l0.6,0.6l1.3,0.1l-1,0.5l0.2,0.7l-1.2-0.4l-1.2,0.3l0.3-0.7l-1-0.5L605.4,179.8z
				 M604.9,183.6l0.5-0.5l0.5,0.5l1.1,0.1l-0.8,0.4l0.1,0.6l-0.9-0.3l-1,0.2l0.2-0.5l-0.8-0.4L604.9,183.6z M601.1,184.3l0.4-0.4
				l0.4,0.4l0.8,0.1l-0.6,0.3l0.1,0.4l-0.7-0.2l-0.8,0.2l0.1-0.4l-0.6-0.3L601.1,184.3z M598.4,187.2l0.1,0.5l-0.9-0.2l-1,0.2
				l0.2-0.5l-0.7-0.4l1.1-0.1l0.5-0.4l0.4,0.5l1.1,0.1L598.4,187.2z M598.6,185.2l-0.8-0.2l-0.8,0.2l0.2-0.5l-0.6-0.3l0.9-0.1
				l0.4-0.4l0.4,0.4l0.9,0.1l-0.7,0.3L598.6,185.2z"/>
			<path class="st11" d="M551.2,160c-9-0.9-5.4-5.4-5.4-5.4l0.5-0.8c-3.1,1.2-6.2,2.7-9,4.6c9.8,1.1,20.9,2.4,31.5,3.7
				C560.8,161.2,553.8,160.3,551.2,160z"/>
			<path class="st11" d="M610.2,167.2l1-0.8l-10-12.6c-3.5-1.3-7.1-2.3-10.7-3c2.8,3.3,6.1,8.2,10,15.3L610.2,167.2z"/>
			<path class="st11" d="M618.5,176.7c0.3-0.7,0.6-1.5,0.7-2.3l-7.2-0.4C614.2,174.8,616.4,175.7,618.5,176.7z"/>
			<polygon class="st12" points="604.7,181.1 605.9,180.8 607.1,181.1 606.9,180.4 608,180 606.6,179.8 606,179.2 605.4,179.8 
				604,179.9 605,180.4 			"/>
			<polygon class="st12" points="534.2,180.5 534.4,180 533.6,179.6 533.6,179.6 534.4,180 534.2,180.5 535.1,180.3 536.1,180.5 
				536.1,180.5 535.1,180.3 			"/>
			<polygon class="st12" points="572.9,176.5 574.3,176.1 575.8,176.5 575.5,175.7 576.7,175.1 575.2,175 574.4,174.2 573.7,175 
				572.1,175 573.2,175.6 			"/>
			<polygon class="st12" points="542.1,177.3 541.4,176.6 540.6,177.3 539,177.4 540.2,178 539.8,178.8 541.3,178.4 542.7,178.8 
				542.5,178 543.7,177.5 			"/>
			<polygon class="st12" points="588.9,188 588.1,187.3 587.4,188 585.8,188.1 586.9,188.7 586.6,189.5 588,189.1 589.4,189.5 
				589.2,188.7 590.4,188.2 			"/>
			<polygon class="st12" points="535.2,179 535.2,179 534.7,179.5 534.6,179.5 534.7,179.5 			"/>
			<polygon class="st12" points="558.3,184.1 557.7,183.4 556.9,184.1 555.3,184.2 556.4,184.8 556.1,185.6 557.5,185.3 
				558.9,185.7 558.7,184.8 559.9,184.3 			"/>
			<polygon class="st12" points="607,181.9 606.7,181.6 606.2,181.9 605.4,182 606,182.3 605.8,182.7 606.6,182.5 607.4,182.7 
				607.2,182.3 607.9,182 			"/>
			<polygon class="st12" points="575.8,182 575.2,181.4 574.5,182 573.1,182.1 574.1,182.6 573.8,183.3 575.1,183 576.3,183.3 
				576.1,182.6 577.2,182.2 			"/>
			<polygon class="st12" points="604.3,184.7 605.3,184.4 606.2,184.7 606.1,184.1 606.9,183.8 605.8,183.6 605.4,183.1 
				604.9,183.6 603.8,183.7 604.5,184.1 			"/>
			<polygon class="st12" points="579.8,177.5 579.4,177 578.9,177.5 577.8,177.5 578.5,177.9 578.3,178.5 579.3,178.2 580.2,178.5 
				580.1,177.9 580.9,177.6 			"/>
			<polygon class="st12" points="585,184.4 584.6,184 584.3,184.4 583.4,184.4 584,184.7 583.8,185.1 584.5,184.9 585.3,185.1 
				585.1,184.7 585.7,184.4 			"/>
			<polygon class="st12" points="550.6,179.5 550.2,179 549.7,179.5 548.6,179.6 549.3,180 549.1,180.5 550.1,180.3 551,180.5 
				550.9,180 551.7,179.6 			"/>
			<polygon class="st12" points="557.7,172 556.9,172.7 555.3,172.8 556.4,173.4 556.1,174.2 557.5,173.9 558.9,174.3 558.7,173.4 
				559.9,172.9 558.3,172.7 			"/>
			<polygon class="st12" points="598.2,188.8 597.8,188.4 597.4,188.8 596.4,188.9 597.1,189.2 596.9,189.7 597.7,189.5 
				598.6,189.8 598.5,189.3 599.2,188.9 			"/>
			<polygon class="st12" points="611.1,180.6 611.8,180.4 612.5,180.6 612.4,180.2 613,179.9 612.2,179.9 611.8,179.5 611.5,179.9 
				610.7,179.9 611.2,180.2 			"/>
			<polygon class="st12" points="548.8,182 548.3,181.5 547.8,182 546.7,182.1 547.5,182.5 547.3,183 548.2,182.8 549.2,183 
				549,182.5 549.8,182.1 			"/>
			<polygon class="st12" points="546.8,176.3 546.1,176.3 545.8,175.9 545.6,176.2 544.9,176.3 545.3,176.5 545.2,176.9 
				545.8,176.7 546.4,176.9 546.3,176.5 			"/>
			<polygon class="st12" points="591.4,184.4 591,184 590.7,184.4 589.9,184.4 590.4,184.7 590.3,185.1 591,184.9 591.7,185.1 
				591.6,184.7 592.2,184.4 			"/>
			<polygon class="st12" points="575.3,189.5 575,189.2 574.7,189.5 574,189.5 574.4,189.8 574.3,190.1 574.9,189.9 575.5,190.1 
				575.4,189.8 575.9,189.5 			"/>
			<polygon class="st12" points="600.7,185.1 601.5,184.9 602.2,185.1 602.1,184.7 602.7,184.4 601.9,184.3 601.5,184 601.1,184.3 
				600.3,184.4 600.9,184.7 			"/>
			<polygon class="st12" points="570.7,177.5 570.3,177 569.8,177.5 568.7,177.5 569.4,177.9 569.2,178.5 570.2,178.2 571.1,178.5 
				571,177.9 571.8,177.6 			"/>
			<polygon class="st12" points="573.6,180.1 574.3,180.3 574.2,179.9 574.8,179.6 574,179.6 573.6,179.2 573.3,179.6 572.5,179.6 
				573,179.9 572.9,180.3 			"/>
			<polygon class="st12" points="598.3,184.3 597.9,183.9 597.5,184.3 596.6,184.4 597.2,184.7 597,185.2 597.9,184.9 598.6,185.2 
				598.5,184.7 599.2,184.4 			"/>
			<polygon class="st12" points="597.7,186.3 597.2,186.8 596.2,186.8 596.9,187.2 596.7,187.7 597.6,187.5 598.5,187.7 
				598.4,187.2 599.2,186.9 598.1,186.8 			"/>
			<polygon class="st12" points="535.7,179.5 535.2,179 535.2,179 534.7,179.5 534.6,179.5 533.6,179.6 533.6,179.6 534.4,180 
				534.2,180.5 535.1,180.3 536.1,180.5 536.1,180.5 535.9,180 536.7,179.6 			"/>
			<path class="st3" d="M610,173.8C610.1,173.9,610.1,173.9,610,173.8c0.2,0.3,0.1,0.6-0.2,0.7l-0.9-0.3c0.1-0.1,0.1-0.2,0.1-0.3
				c-0.1-0.1-0.1-0.1-0.2-0.2l-1.2-0.1c0,0,0,0.1,0,0.1c0.2,0.2,0.4,0.3,0.6,0.4c0.3,0.1,0.5,0.3,0.7,0.4c0.3,0.2,0.2,0.5-0.1,0.8
				c-0.2,0.1-0.4,0.2-0.7,0.3c-0.3,0.1-0.6,0.1-0.9,0.1c-0.3,0-0.7-0.1-1-0.2c-0.5-0.2-0.9-0.4-1-0.6c-0.1-0.3,0-0.6,0.2-0.7l0,0
				l0.8,0.2c-0.1,0.1-0.2,0.3-0.1,0.4c0.1,0.2,0.3,0.3,0.5,0.3c0.2,0.1,0.5,0.1,0.7,0.1c0.2,0,0.3,0,0.5-0.1c0.1,0,0.1-0.1,0.1-0.2
				c0-0.1-0.1-0.1-0.2-0.2c-0.2-0.1-0.3-0.2-0.5-0.3c-0.3-0.1-0.5-0.3-0.6-0.5c-0.1-0.1-0.1-0.2,0-0.3l-1.6-0.1c0,0.2,0,0.4-0.2,0.5
				c-0.2,0.1-0.4,0.2-0.6,0.3c-0.3,0.1-0.6,0.1-0.9,0.1c-0.4,0-0.7-0.1-1-0.2c-0.4-0.1-0.7-0.3-1-0.6c0-0.1-0.1-0.2-0.1-0.2
				l-3.1-0.2c6.3,1.9,12.4,4.2,18.3,7h0l0,0c0.8-1.1,1.5-2.3,2.1-3.5h0c-2.2-0.9-4.3-1.9-6.5-2.7L610,173.8z M613.4,175
				c0.6,0.2,1,0.5,1.1,0.8c0.1,0.3-0.1,0.6-0.5,1c-0.5,0.3-1,0.5-1.6,0.6c-0.6,0.1-1.3,0-1.9-0.2c-0.6-0.2-0.9-0.5-1.1-0.8
				c-0.1-0.3,0.1-0.6,0.5-1c0.3-0.2,0.6-0.4,0.9-0.5c0.3-0.1,0.5-0.1,0.8-0.2c0.3,0,0.5,0,0.8,0C612.7,174.8,613.1,174.8,613.4,175z
				"/>
			<path class="st3" d="M602.8,173.8c0.2,0.1,0.5,0.1,0.7,0.1c0.2,0,0.3,0,0.5-0.1c0,0,0.1-0.1,0.1-0.1c0,0,0-0.1-0.1-0.1l-1.7-0.1
				c0,0,0,0.1,0,0.1C602.4,173.6,602.6,173.7,602.8,173.8z"/>
			<path class="st13" d="M604,173.6c0,0.1,0,0.1-0.1,0.1c-0.1,0.1-0.3,0.2-0.5,0.1c-0.2,0-0.5,0-0.7-0.1c-0.2,0-0.4-0.1-0.5-0.3
				c0,0,0-0.1,0-0.1l-1-0.1c0,0.1,0,0.2,0.1,0.2c0.3,0.3,0.6,0.5,1,0.6c0.3,0.1,0.7,0.2,1,0.2c0.3,0,0.6,0,0.9-0.1
				c0.2,0,0.5-0.1,0.6-0.3c0.2-0.1,0.2-0.3,0.2-0.5l-1.1-0.1C604,173.5,604,173.6,604,173.6z"/>
			<path class="st13" d="M606.7,174c0.2,0.2,0.4,0.4,0.6,0.5c0.2,0.1,0.4,0.2,0.5,0.3c0.1,0,0.1,0.1,0.2,0.2c0,0.1,0,0.1-0.1,0.2
				c-0.1,0.1-0.3,0.1-0.5,0.1c-0.2,0-0.5,0-0.7-0.1c-0.2,0-0.4-0.1-0.5-0.3c0-0.1,0-0.3,0.1-0.4l-0.8-0.2l0,0
				c-0.2,0.2-0.3,0.5-0.2,0.7c0.1,0.2,0.4,0.4,1,0.6c0.3,0.1,0.7,0.2,1,0.2c0.3,0,0.6,0,0.9-0.1c0.2,0,0.5-0.1,0.7-0.3
				c0.3-0.2,0.4-0.5,0.1-0.8c-0.2-0.2-0.5-0.3-0.7-0.4c-0.2-0.1-0.4-0.2-0.6-0.4c0,0,0-0.1,0-0.1l-1-0.1
				C606.7,173.8,606.7,173.9,606.7,174z"/>
			<path class="st13" d="M609.1,173.9c0.1,0.1,0,0.2-0.1,0.3l0.9,0.3c0.2-0.1,0.3-0.4,0.2-0.6c0,0,0-0.1-0.1-0.1l-1.2-0.1
				C609,173.8,609.1,173.9,609.1,173.9z"/>
			<path class="st13" d="M611.6,174.7c-0.3,0-0.5,0.1-0.8,0.2c-0.3,0.1-0.6,0.3-0.9,0.5c-0.4,0.3-0.6,0.6-0.5,1
				c0.1,0.3,0.5,0.6,1.1,0.8c0.6,0.2,1.2,0.3,1.9,0.2c0.6,0,1.1-0.3,1.6-0.6c0.4-0.3,0.6-0.7,0.5-1c-0.1-0.3-0.5-0.6-1.1-0.8
				c-0.3-0.1-0.7-0.2-1-0.2C612.1,174.7,611.9,174.7,611.6,174.7z M612.9,175.4c0.3,0.1,0.5,0.3,0.6,0.5c0,0.2-0.1,0.4-0.4,0.6
				c-0.3,0.2-0.7,0.4-1,0.4c-0.4,0.1-0.7,0-1.1-0.1c-0.2-0.1-0.5-0.2-0.6-0.4c-0.1-0.2,0-0.4,0.4-0.6h0c0.3-0.2,0.7-0.4,1.1-0.4
				C612.2,175.3,612.6,175.3,612.9,175.4L612.9,175.4z"/>
			<path class="st3" d="M610.8,175.7L610.8,175.7c-0.3,0.2-0.4,0.4-0.4,0.6c0.1,0.2,0.3,0.4,0.6,0.4c0.3,0.1,0.7,0.2,1.1,0.1
				c0.4-0.1,0.7-0.2,1-0.4c0.3-0.3,0.5-0.5,0.4-0.6c-0.1-0.2-0.2-0.3-0.6-0.5c-0.3-0.1-0.7-0.1-1.1-0.1
				C611.5,175.4,611.1,175.5,610.8,175.7z"/>
			<path class="st14" d="M684.6,211.1c0-2.5-2-4.5-4.5-4.5c0,0,0,0,0,0l-15,0.1c-1.1,3.3-2.9,6.3-5.2,8.8h20.2
				C682.6,215.6,684.6,213.6,684.6,211.1C684.6,211.1,684.6,211.1,684.6,211.1z"/>
			<path class="st14" d="M471,201.7V199l0.5-11.2l-9.4-8.9l-0.1-0.1l0.2,20.2c-2.3,0-4.3,1.9-4.3,4.3c0,2.3,1.9,4.3,4.3,4.3
				c0,0,0,0,0,0l17.3,2.4c-1.2-2.3-2-4.8-2.4-7.4L471,201.7z"/>
			<path class="st14" d="M618,207.1l-93.1,0.8c-1.1,2.8-2.7,5.4-4.8,7.7h103C620.9,213.1,619.1,210.3,618,207.1z"/>
			<path class="st15" d="M673.8,174.1c2.2,3.2,3.9,6.7,5,10.4c-4-16.5-16.5-22.3-25.1-24.4C661.8,162.3,669,167.2,673.8,174.1z"/>
			<path class="st15" d="M620.6,159.6l-0.2-0.2l0,0L620.6,159.6z"/>
			<path class="st15" d="M644.9,159.1c0.4,0,0.9,0,1.3,0C645.4,159.1,644.9,159.1,644.9,159.1z"/>
			<path class="st9" d="M513.7,155.9c-2.3-0.2-3.8-0.3-4.5-0.3h-37.2c-5.6,0-10.1,4.5-10.2,10.1c0,0,0,0,0,0l18.8,1L513.7,155.9z"/>
			<path class="st15" d="M513.7,155.9c-2.3-0.2-3.8-0.3-4.5-0.3h-37.2c-5.6,0-10.1,4.5-10.2,10.1c0,0,0,0,0,0l18.8,1L513.7,155.9z"
				/>
			<path class="st9" d="M653.7,160.2c-2.4-0.6-4.9-0.9-7.4-1.1c-0.4,0-0.9,0-1.3,0h-4.6l28.4,9.2
				C664.4,164.5,659.3,161.7,653.7,160.2z"/>
			<path class="st15" d="M653.7,160.2c-2.4-0.6-4.9-0.9-7.4-1.1c-0.4,0-0.9,0-1.3,0h-4.6l28.4,9.2
				C664.4,164.5,659.3,161.7,653.7,160.2z"/>
			<path class="st9" d="M663.3,177.6c12.5,7.4,16.8,18.8,16.8,18.8c0-4-0.4-7.9-1.3-11.7c-1.1-3.7-2.7-7.3-5-10.4L663.3,177.6z"/>
			<path class="st15" d="M663.3,177.6c12.5,7.4,16.8,18.8,16.8,18.8c0-4-0.4-7.9-1.3-11.7c-1.1-3.7-2.7-7.3-5-10.4L663.3,177.6z"/>
			<path class="st10" d="M620.6,159.6l-0.3-0.2l-4.4,3.7c2.3,2.7,3.6,5.7,3.6,8.9c0,0.8-0.1,1.6-0.2,2.3l0.5,0
				c20.3-5.6,34.3-2.3,43.6,3.2l10.5-3.4c-1.5-2.1-3.2-4.1-5.1-5.8l-28.4-9.2h-19.7l-0.2,0.2L620.6,159.6z"/>
			<path class="st15" d="M620.6,159.6l-0.3-0.2l-4.4,3.7c2.3,2.7,3.6,5.7,3.6,8.9c0,0.8-0.1,1.6-0.2,2.3l0.5,0
				c20.3-5.6,34.3-2.3,43.6,3.2l10.5-3.4c-1.5-2.1-3.2-4.1-5.1-5.8l-28.4-9.2h-19.7l-0.2,0.2L620.6,159.6z"/>
			<path class="st10" d="M530.4,165.4h-0.1c0.8-1.4,1.9-2.6,3-3.7h0.1c1.2-1.2,2.5-2.3,4-3.2c-10-1.2-18.6-2.1-23.6-2.6l-33.1,10.8
				l48.1,2.7C529.1,168,529.7,166.6,530.4,165.4z"/>
			<path class="st15" d="M530.4,165.4h-0.1c0.8-1.4,1.9-2.6,3-3.7h0.1c1.2-1.2,2.5-2.3,4-3.2c-10-1.2-18.6-2.1-23.6-2.6l-33.1,10.8
				l48.1,2.7C529.1,168,529.7,166.6,530.4,165.4z"/>
			<path class="st11" d="M530.4,165.4c-0.7,1.2-1.3,2.5-1.6,3.9l69.3,3.8C581.4,168,558.5,164.1,530.4,165.4z M538.2,169.4l-1.4-0.4
				l-1.4,0.4l0.4-0.8l-1.2-0.6l1.6-0.1l0.7-0.7l0.7,0.8l1.6,0.1l-1.2,0.6L538.2,169.4z M586,171.8l-1,0.2l0.2-0.6l-0.8-0.4l1.1-0.1
				l0.5-0.5l0.5,0.5l1.1,0.1l-0.8,0.4l0.1,0.6L586,171.8z"/>
			<path class="st15" d="M530.4,165.4c-0.7,1.2-1.3,2.5-1.6,3.9l69.3,3.8C581.4,168,558.5,164.1,530.4,165.4z M538.2,169.4l-1.4-0.4
				l-1.4,0.4l0.4-0.8l-1.2-0.6l1.6-0.1l0.7-0.7l0.7,0.8l1.6,0.1l-1.2,0.6L538.2,169.4z M586,171.8l-1,0.2l0.2-0.6l-0.8-0.4l1.1-0.1
				l0.5-0.5l0.5,0.5l1.1,0.1l-0.8,0.4l0.1,0.6L586,171.8z"/>
			<path class="st11" d="M611.3,166.4l-1,0.8l-9.6-1.2l0.2,0.3l-10.7-1.4l-0.7,0.3l0.2,0.7l-1.3-0.4l-1.3,0.3l0.3-0.7l-1-0.5
				l1.3-0.1c-5.7-0.7-12.5-1.6-18.8-2.4c-10.5-1.3-21.7-2.6-31.5-3.7c-1.4,0.9-2.7,2-4,3.2c31-1,56.1,3.4,78.6,12.3l7.2,0.4
				c0.2-0.8,0.2-1.5,0.2-2.3c0-3.2-1.3-6.2-3.6-8.9l-4.3,3.6L611.3,166.4z"/>
			<path class="st15" d="M611.3,166.4l-1,0.8l-9.6-1.2l0.2,0.3l-10.7-1.4l-0.7,0.3l0.2,0.7l-1.3-0.4l-1.3,0.3l0.3-0.7l-1-0.5
				l1.3-0.1c-5.7-0.7-12.5-1.6-18.8-2.4c-10.5-1.3-21.7-2.6-31.5-3.7c-1.4,0.9-2.7,2-4,3.2c31-1,56.1,3.4,78.6,12.3l7.2,0.4
				c0.2-0.8,0.2-1.5,0.2-2.3c0-3.2-1.3-6.2-3.6-8.9l-4.3,3.6L611.3,166.4z"/>
			<polygon class="st12" points="537.6,167.9 536.9,167.1 536.1,167.9 534.5,168 535.7,168.6 535.3,169.4 536.7,169 538.2,169.4 
				538,168.6 539.1,168 			"/>
			<polygon class="st15" points="537.6,167.9 536.9,167.1 536.1,167.9 534.5,168 535.7,168.6 535.3,169.4 536.7,169 538.2,169.4 
				538,168.6 539.1,168 			"/>
			<polygon class="st12" points="587.6,171.1 586.6,171 586.1,170.5 585.6,171 584.4,171.1 585.2,171.5 585,172.1 586,171.8 
				587,172.1 586.9,171.5 			"/>
			<polygon class="st15" points="587.6,171.1 586.6,171 586.1,170.5 585.6,171 584.4,171.1 585.2,171.5 585,172.1 586,171.8 
				587,172.1 586.9,171.5 			"/>
			<path class="st12" d="M586.3,164.7l1,0.5l-0.3,0.7l1.3-0.3l1.3,0.4l-0.2-0.7l0.7-0.3l-2.5-0.3L586.3,164.7z"/>
			<path class="st15" d="M586.3,164.7l1,0.5l-0.3,0.7l1.3-0.3l1.3,0.4l-0.2-0.7l0.7-0.3l-2.5-0.3L586.3,164.7z"/>
			<path class="st3" d="M598.2,173.2l3.1,0.2c0-0.2,0.1-0.4,0.2-0.5l0,0l0.9,0.2c-0.1,0.1-0.1,0.2-0.1,0.3l1.7,0.1
				c0,0-0.1-0.1-0.1-0.1c-0.2-0.1-0.4-0.2-0.6-0.3c-0.3-0.1-0.5-0.3-0.7-0.5c-0.1-0.2-0.1-0.4,0.1-0.5c0,0,0,0,0,0
				c0.2-0.1,0.4-0.2,0.6-0.2c0.3-0.1,0.5-0.1,0.8-0.1c0.3,0,0.6,0.1,0.9,0.2c0.5,0.2,0.9,0.4,1,0.6c0.1,0.2,0.1,0.5-0.1,0.6
				c0,0,0,0,0,0l-0.9-0.2c0.1-0.1,0.1-0.2,0.1-0.3c-0.1-0.1-0.3-0.2-0.5-0.2c-0.2-0.1-0.4-0.1-0.7-0.1c-0.1,0-0.2,0-0.3,0.1
				c-0.1,0-0.1,0.1,0,0.2c0,0,0,0,0,0c0.2,0.2,0.4,0.3,0.6,0.4c0.3,0.1,0.5,0.3,0.7,0.4c0.1,0.1,0.2,0.2,0.2,0.3l1.6,0.1
				c0.2-0.3,0.4-0.4,0.7-0.5c0.3-0.1,0.5-0.1,0.8,0c0.3,0,0.6,0.1,0.9,0.2c0.3,0.1,0.6,0.3,0.9,0.5l1.9,0.1
				c-22.5-8.8-47.6-13.3-78.6-12.3h-0.1c-1.2,1.1-2.2,2.4-3,3.7h0.1C558.5,164.1,581.4,168,598.2,173.2z M602.1,171l-0.4,0.4
				l-2.3-0.7l-0.6,0.5l2.1,0.7l-0.5,0.4l-2.1-0.7l-0.7,0.6l2.4,0.7l-0.4,0.4l-3.2-1h0l2.6-2.1L602.1,171z M595.6,169
				c0.3,0.1,0.7,0.2,1,0.3c0.2,0.1,0.3,0.2,0.3,0.3c0,0.1,0,0.3-0.1,0.4c-0.2,0.2-0.4,0.3-0.7,0.4c-0.4,0-0.7,0-1.1,0
				c0.1,0.1,0.2,0.2,0.3,0.3c0.1,0.2,0.1,0.3,0.1,0.5l0.1,0.6l-1.1-0.3l-0.1-0.7c0-0.2-0.1-0.3-0.1-0.4c0-0.1-0.1-0.1-0.2-0.2
				l-0.4-0.1l-0.2-0.1l-1,1l-0.9-0.2l2.3-2.2L595.6,169z M587.1,168.3c0.3-0.2,0.6-0.4,0.9-0.5c0.4-0.1,0.8-0.2,1.3-0.2
				c0.4,0,0.8,0.1,1.1,0.2c0.4,0.1,0.8,0.2,1.1,0.5c0.2,0.2,0.2,0.4,0.1,0.6l-1-0.1c0.1-0.1,0-0.3-0.1-0.4c-0.2-0.1-0.4-0.2-0.6-0.2
				c-0.4-0.1-0.7-0.1-1.1-0.1c-0.4,0.1-0.7,0.2-0.9,0.5c-0.2,0.2-0.4,0.5-0.2,0.7c0.2,0.2,0.4,0.4,0.7,0.4c0.2,0.1,0.4,0.1,0.6,0.1
				c0.2,0,0.4,0,0.6,0l0.3-0.3l-1-0.3l0.4-0.4l1.9,0.5l-0.9,0.9c-0.4,0-0.7,0.1-1.1,0c-0.4,0-0.8-0.1-1.2-0.2
				c-0.4-0.1-0.7-0.2-1.1-0.5c-0.2-0.1-0.4-0.4-0.4-0.6C586.8,168.7,586.9,168.4,587.1,168.3z M581.7,167.3c0.2-0.2,0.4-0.4,0.6-0.6
				c0.2-0.1,0.4-0.2,0.6-0.3c0.2-0.1,0.5-0.1,0.7-0.1c0.4,0,0.7,0,1.1,0.1c0.5,0,1.1,0.2,1.5,0.6c0.3,0.3,0.3,0.7,0.1,1
				c-0.3,0.4-0.7,0.7-1.2,0.8c-0.6,0.2-1.2,0.2-1.9,0.1c-0.5,0-1.1-0.2-1.5-0.6C581.5,168,581.5,167.6,581.7,167.3z M577.5,165
				l2,0.4c0.4,0.1,0.7,0.1,1.1,0.3c0.2,0.1,0.3,0.2,0.4,0.3c0.1,0.1,0.1,0.3,0,0.4c-0.2,0.2-0.4,0.3-0.6,0.4
				c-0.4,0.1-0.7,0.1-1.1,0.1c0.1,0.1,0.3,0.2,0.4,0.3l0.3,0.5l0.2,0.6L579,168l-0.4-0.6c-0.1-0.2-0.2-0.3-0.2-0.4
				c-0.1-0.1-0.1-0.1-0.2-0.1c-0.1-0.1-0.3-0.1-0.5-0.1l-0.2,0l-0.7,1l-0.9-0.2L577.5,165z M572.4,164.2l1.6,0.2l1.1,0.2
				c0.2,0,0.4,0.2,0.6,0.3c0.1,0.1,0.2,0.3,0.1,0.5c-0.1,0.2-0.2,0.3-0.4,0.4c-0.3,0.2-0.7,0.3-1.1,0.2c-0.4,0-0.7,0-1.1-0.1
				l-0.6-0.1l-0.4,0.9l-1-0.1L572.4,164.2z M566.4,163.9l2.6,0.3l-0.1,0.3l-1.9-0.2l-0.2,0.4l1.7,0.2l-0.1,0.3l-1.7-0.2l-0.2,0.5
				l2,0.2l-0.1,0.3l-2.7-0.3L566.4,163.9z M557.5,162.7l1.5,0.1l0.4,1.8l1.4-1.6l1.5,0.1l-0.7,2.5l-1-0.1l0.6-2l-1.6,1.9l-1-0.1
				l-0.4-2l-0.6,2l-0.9-0.1L557.5,162.7z M552.2,162.4l3.7,0.2l-0.1,0.4l-2.7-0.1l-0.1,0.5l2.5,0.1l-0.1,0.4l-2.5-0.1l-0.1,0.7
				l2.8,0.1l-0.1,0.4l-3.8-0.2L552.2,162.4z M546.7,162.2L546.7,162.2l1.9,0.1c0.3,0,0.6,0,0.9,0.1c0.3,0,0.5,0.1,0.7,0.2
				c0.2,0.1,0.3,0.2,0.4,0.4c0.1,0.2,0.1,0.4,0.1,0.6c0,0.2-0.1,0.4-0.2,0.5c-0.2,0.2-0.4,0.3-0.6,0.4c-0.2,0.1-0.5,0.2-0.7,0.2
				c-0.3,0-0.6,0-0.9,0l-1.9-0.1L546.7,162.2z M539.9,163.4c0,0.4-0.3,0.8-0.7,0.9c-0.6,0.2-1.2,0.3-1.8,0.3c-0.6,0-1.2-0.1-1.7-0.4
				c-0.4-0.3-0.7-0.6-0.6-0.9c0-0.2,0.1-0.5,0.2-0.6c0.1-0.1,0.3-0.3,0.5-0.3c0.2-0.1,0.4-0.2,0.6-0.2c0.4-0.1,0.7-0.1,1.1-0.1
				c0.6,0,1.2,0.1,1.8,0.4C539.8,162.6,540,163,539.9,163.4L539.9,163.4z M541.1,162.1h2.1c0.4,0,0.8,0,1.1,0.1
				c0.2,0,0.4,0.1,0.6,0.2c0.1,0.1,0.2,0.2,0.2,0.4c0,0.2-0.1,0.4-0.3,0.5c-0.3,0.1-0.6,0.2-0.9,0.2l0.5,0.2
				c0.2,0.1,0.4,0.2,0.5,0.4l0.6,0.5h-1.2l-0.7-0.6l-0.5-0.4c-0.1-0.1-0.2-0.1-0.3-0.1c-0.2,0-0.3,0-0.5,0h-0.2v1.1H541L541.1,162.1
				z"/>
			<path class="st15" d="M598.2,173.2l3.1,0.2c0-0.2,0.1-0.4,0.2-0.5l0,0l0.9,0.2c-0.1,0.1-0.1,0.2-0.1,0.3l1.7,0.1
				c0,0-0.1-0.1-0.1-0.1c-0.2-0.1-0.4-0.2-0.6-0.3c-0.3-0.1-0.5-0.3-0.7-0.5c-0.1-0.2-0.1-0.4,0.1-0.5c0,0,0,0,0,0
				c0.2-0.1,0.4-0.2,0.6-0.2c0.3-0.1,0.5-0.1,0.8-0.1c0.3,0,0.6,0.1,0.9,0.2c0.5,0.2,0.9,0.4,1,0.6c0.1,0.2,0.1,0.5-0.1,0.6
				c0,0,0,0,0,0l-0.9-0.2c0.1-0.1,0.1-0.2,0.1-0.3c-0.1-0.1-0.3-0.2-0.5-0.2c-0.2-0.1-0.4-0.1-0.7-0.1c-0.1,0-0.2,0-0.3,0.1
				c-0.1,0-0.1,0.1,0,0.2c0,0,0,0,0,0c0.2,0.2,0.4,0.3,0.6,0.4c0.3,0.1,0.5,0.3,0.7,0.4c0.1,0.1,0.2,0.2,0.2,0.3l1.6,0.1
				c0.2-0.3,0.4-0.4,0.7-0.5c0.3-0.1,0.5-0.1,0.8,0c0.3,0,0.6,0.1,0.9,0.2c0.3,0.1,0.6,0.3,0.9,0.5l1.9,0.1
				c-22.5-8.8-47.6-13.3-78.6-12.3h-0.1c-1.2,1.1-2.2,2.4-3,3.7h0.1C558.5,164.1,581.4,168,598.2,173.2z M602.1,171l-0.4,0.4
				l-2.3-0.7l-0.6,0.5l2.1,0.7l-0.5,0.4l-2.1-0.7l-0.7,0.6l2.4,0.7l-0.4,0.4l-3.2-1h0l2.6-2.1L602.1,171z M595.6,169
				c0.3,0.1,0.7,0.2,1,0.3c0.2,0.1,0.3,0.2,0.3,0.3c0,0.1,0,0.3-0.1,0.4c-0.2,0.2-0.4,0.3-0.7,0.4c-0.4,0-0.7,0-1.1,0
				c0.1,0.1,0.2,0.2,0.3,0.3c0.1,0.2,0.1,0.3,0.1,0.5l0.1,0.6l-1.1-0.3l-0.1-0.7c0-0.2-0.1-0.3-0.1-0.4c0-0.1-0.1-0.1-0.2-0.2
				l-0.4-0.1l-0.2-0.1l-1,1l-0.9-0.2l2.3-2.2L595.6,169z M587.1,168.3c0.3-0.2,0.6-0.4,0.9-0.5c0.4-0.1,0.8-0.2,1.3-0.2
				c0.4,0,0.8,0.1,1.1,0.2c0.4,0.1,0.8,0.2,1.1,0.5c0.2,0.2,0.2,0.4,0.1,0.6l-1-0.1c0.1-0.1,0-0.3-0.1-0.4c-0.2-0.1-0.4-0.2-0.6-0.2
				c-0.4-0.1-0.7-0.1-1.1-0.1c-0.4,0.1-0.7,0.2-0.9,0.5c-0.2,0.2-0.4,0.5-0.2,0.7c0.2,0.2,0.4,0.4,0.7,0.4c0.2,0.1,0.4,0.1,0.6,0.1
				c0.2,0,0.4,0,0.6,0l0.3-0.3l-1-0.3l0.4-0.4l1.9,0.5l-0.9,0.9c-0.4,0-0.7,0.1-1.1,0c-0.4,0-0.8-0.1-1.2-0.2
				c-0.4-0.1-0.7-0.2-1.1-0.5c-0.2-0.1-0.4-0.4-0.4-0.6C586.8,168.7,586.9,168.4,587.1,168.3z M581.7,167.3c0.2-0.2,0.4-0.4,0.6-0.6
				c0.2-0.1,0.4-0.2,0.6-0.3c0.2-0.1,0.5-0.1,0.7-0.1c0.4,0,0.7,0,1.1,0.1c0.5,0,1.1,0.2,1.5,0.6c0.3,0.3,0.3,0.7,0.1,1
				c-0.3,0.4-0.7,0.7-1.2,0.8c-0.6,0.2-1.2,0.2-1.9,0.1c-0.5,0-1.1-0.2-1.5-0.6C581.5,168,581.5,167.6,581.7,167.3z M577.5,165
				l2,0.4c0.4,0.1,0.7,0.1,1.1,0.3c0.2,0.1,0.3,0.2,0.4,0.3c0.1,0.1,0.1,0.3,0,0.4c-0.2,0.2-0.4,0.3-0.6,0.4
				c-0.4,0.1-0.7,0.1-1.1,0.1c0.1,0.1,0.3,0.2,0.4,0.3l0.3,0.5l0.2,0.6L579,168l-0.4-0.6c-0.1-0.2-0.2-0.3-0.2-0.4
				c-0.1-0.1-0.1-0.1-0.2-0.1c-0.1-0.1-0.3-0.1-0.5-0.1l-0.2,0l-0.7,1l-0.9-0.2L577.5,165z M572.4,164.2l1.6,0.2l1.1,0.2
				c0.2,0,0.4,0.2,0.6,0.3c0.1,0.1,0.2,0.3,0.1,0.5c-0.1,0.2-0.2,0.3-0.4,0.4c-0.3,0.2-0.7,0.3-1.1,0.2c-0.4,0-0.7,0-1.1-0.1
				l-0.6-0.1l-0.4,0.9l-1-0.1L572.4,164.2z M566.4,163.9l2.6,0.3l-0.1,0.3l-1.9-0.2l-0.2,0.4l1.7,0.2l-0.1,0.3l-1.7-0.2l-0.2,0.5
				l2,0.2l-0.1,0.3l-2.7-0.3L566.4,163.9z M557.5,162.7l1.5,0.1l0.4,1.8l1.4-1.6l1.5,0.1l-0.7,2.5l-1-0.1l0.6-2l-1.6,1.9l-1-0.1
				l-0.4-2l-0.6,2l-0.9-0.1L557.5,162.7z M552.2,162.4l3.7,0.2l-0.1,0.4l-2.7-0.1l-0.1,0.5l2.5,0.1l-0.1,0.4l-2.5-0.1l-0.1,0.7
				l2.8,0.1l-0.1,0.4l-3.8-0.2L552.2,162.4z M546.7,162.2L546.7,162.2l1.9,0.1c0.3,0,0.6,0,0.9,0.1c0.3,0,0.5,0.1,0.7,0.2
				c0.2,0.1,0.3,0.2,0.4,0.4c0.1,0.2,0.1,0.4,0.1,0.6c0,0.2-0.1,0.4-0.2,0.5c-0.2,0.2-0.4,0.3-0.6,0.4c-0.2,0.1-0.5,0.2-0.7,0.2
				c-0.3,0-0.6,0-0.9,0l-1.9-0.1L546.7,162.2z M539.9,163.4c0,0.4-0.3,0.8-0.7,0.9c-0.6,0.2-1.2,0.3-1.8,0.3c-0.6,0-1.2-0.1-1.7-0.4
				c-0.4-0.3-0.7-0.6-0.6-0.9c0-0.2,0.1-0.5,0.2-0.6c0.1-0.1,0.3-0.3,0.5-0.3c0.2-0.1,0.4-0.2,0.6-0.2c0.4-0.1,0.7-0.1,1.1-0.1
				c0.6,0,1.2,0.1,1.8,0.4C539.8,162.6,540,163,539.9,163.4L539.9,163.4z M541.1,162.1h2.1c0.4,0,0.8,0,1.1,0.1
				c0.2,0,0.4,0.1,0.6,0.2c0.1,0.1,0.2,0.2,0.2,0.4c0,0.2-0.1,0.4-0.3,0.5c-0.3,0.1-0.6,0.2-0.9,0.2l0.5,0.2
				c0.2,0.1,0.4,0.2,0.5,0.4l0.6,0.5h-1.2l-0.7-0.6l-0.5-0.4c-0.1-0.1-0.2-0.1-0.3-0.1c-0.2,0-0.3,0-0.5,0h-0.2v1.1H541L541.1,162.1
				z"/>
			<path class="st3" d="M608,173.6c-0.1,0-0.2,0-0.3,0.1c0,0,0,0,0,0l1.2,0.1c-0.1,0-0.1-0.1-0.2-0.1
				C608.5,173.6,608.2,173.6,608,173.6z"/>
			<path class="st15" d="M608,173.6c-0.1,0-0.2,0-0.3,0.1c0,0,0,0,0,0l1.2,0.1c-0.1,0-0.1-0.1-0.2-0.1
				C608.5,173.6,608.2,173.6,608,173.6z"/>
			<polygon class="st13" points="558.3,163.3 558.7,165.3 559.7,165.4 561.2,163.5 560.6,165.4 561.6,165.5 562.3,163 560.8,162.9 
				559.4,164.5 559,162.8 557.5,162.7 556.8,165.2 557.7,165.2 			"/>
			<polygon class="st15" points="558.3,163.3 558.7,165.3 559.7,165.4 561.2,163.5 560.6,165.4 561.6,165.5 562.3,163 560.8,162.9 
				559.4,164.5 559,162.8 557.5,162.7 556.8,165.2 557.7,165.2 			"/>
			<path class="st13" d="M609.2,173.4c-0.3-0.1-0.6-0.2-0.9-0.2c-0.3,0-0.6,0-0.8,0c-0.3,0-0.6,0.2-0.7,0.5l1,0.1c0,0,0,0,0,0
				c0.1-0.1,0.2-0.1,0.3-0.1c0.2,0,0.4,0,0.6,0.1c0.1,0,0.1,0,0.2,0.1l1.2,0.1C609.8,173.6,609.5,173.4,609.2,173.4z"/>
			<path class="st15" d="M609.2,173.4c-0.3-0.1-0.6-0.2-0.9-0.2c-0.3,0-0.6,0-0.8,0c-0.3,0-0.6,0.2-0.7,0.5l1,0.1c0,0,0,0,0,0
				c0.1-0.1,0.2-0.1,0.3-0.1c0.2,0,0.4,0,0.6,0.1c0.1,0,0.1,0,0.2,0.1l1.2,0.1C609.8,173.6,609.5,173.4,609.2,173.4z"/>
			<path class="st13" d="M587.1,169.6c0.3,0.2,0.7,0.4,1.1,0.5c0.4,0.1,0.8,0.2,1.2,0.2c0.4,0,0.7,0,1.1,0l0.9-0.9l-1.9-0.5
				l-0.4,0.4l1,0.3l-0.3,0.3c-0.2,0-0.4,0-0.6,0c-0.2,0-0.4,0-0.6-0.1c-0.3,0-0.5-0.2-0.7-0.4c-0.1-0.2,0-0.4,0.2-0.7
				c0.3-0.3,0.6-0.4,0.9-0.5c0.4-0.1,0.7,0,1.1,0.1c0.2,0,0.4,0.1,0.6,0.2c0.1,0.1,0.1,0.2,0.1,0.4l1,0.1c0.1-0.2,0.1-0.5-0.1-0.6
				c-0.3-0.3-0.7-0.4-1.1-0.5c-0.4-0.1-0.8-0.2-1.1-0.2c-0.4,0-0.9,0.1-1.3,0.2c-0.3,0.1-0.7,0.3-0.9,0.5c-0.2,0.2-0.3,0.4-0.4,0.7
				C586.8,169.2,586.9,169.4,587.1,169.6z"/>
			<path class="st15" d="M587.1,169.6c0.3,0.2,0.7,0.4,1.1,0.5c0.4,0.1,0.8,0.2,1.2,0.2c0.4,0,0.7,0,1.1,0l0.9-0.9l-1.9-0.5
				l-0.4,0.4l1,0.3l-0.3,0.3c-0.2,0-0.4,0-0.6,0c-0.2,0-0.4,0-0.6-0.1c-0.3,0-0.5-0.2-0.7-0.4c-0.1-0.2,0-0.4,0.2-0.7
				c0.3-0.3,0.6-0.4,0.9-0.5c0.4-0.1,0.7,0,1.1,0.1c0.2,0,0.4,0.1,0.6,0.2c0.1,0.1,0.1,0.2,0.1,0.4l1,0.1c0.1-0.2,0.1-0.5-0.1-0.6
				c-0.3-0.3-0.7-0.4-1.1-0.5c-0.4-0.1-0.8-0.2-1.1-0.2c-0.4,0-0.9,0.1-1.3,0.2c-0.3,0.1-0.7,0.3-0.9,0.5c-0.2,0.2-0.3,0.4-0.4,0.7
				C586.8,169.2,586.9,169.4,587.1,169.6z"/>
			<polygon class="st13" points="596.4,172.2 599.6,173.1 600.1,172.8 597.7,172.1 598.4,171.5 600.5,172.1 601,171.8 598.9,171.1 
				599.4,170.6 601.7,171.4 602.1,171 599,170 596.4,172.2 			"/>
			<polygon class="st15" points="596.4,172.2 599.6,173.1 600.1,172.8 597.7,172.1 598.4,171.5 600.5,172.1 601,171.8 598.9,171.1 
				599.4,170.6 601.7,171.4 602.1,171 599,170 596.4,172.2 			"/>
			<polygon class="st13" points="601.5,172.9 601.5,172.9 601.5,172.9 			"/>
			<polygon class="st15" points="601.5,172.9 601.5,172.9 601.5,172.9 			"/>
			<path class="st13" d="M602.4,173.1l-0.9-0.2c-0.1,0.1-0.2,0.3-0.2,0.5l1,0.1C602.2,173.3,602.3,173.2,602.4,173.1z"/>
			<path class="st15" d="M602.4,173.1l-0.9-0.2c-0.1,0.1-0.2,0.3-0.2,0.5l1,0.1C602.2,173.3,602.3,173.2,602.4,173.1z"/>
			<path class="st13" d="M604.9,173.3c-0.2-0.2-0.5-0.3-0.7-0.4c-0.2-0.1-0.4-0.2-0.6-0.4c0-0.1,0-0.1,0-0.2c0,0,0,0,0,0
				c0.1-0.1,0.2-0.1,0.3-0.1c0.2,0,0.5,0,0.7,0.1c0.2,0,0.3,0.1,0.5,0.2c0.1,0.1,0,0.2-0.1,0.3l0.9,0.2c0.2-0.1,0.3-0.4,0.1-0.6
				c0,0,0,0,0,0c-0.1-0.2-0.4-0.4-1-0.6c-0.3-0.1-0.6-0.2-0.9-0.2c-0.3,0-0.5,0-0.8,0.1c-0.2,0-0.4,0.1-0.6,0.2
				c-0.2,0.1-0.3,0.4-0.1,0.5c0,0,0,0,0,0c0.2,0.2,0.4,0.4,0.7,0.5c0.2,0.1,0.4,0.2,0.6,0.3c0,0,0.1,0,0.1,0.1l1.1,0.1
				C605,173.5,605,173.3,604.9,173.3z"/>
			<path class="st15" d="M604.9,173.3c-0.2-0.2-0.5-0.3-0.7-0.4c-0.2-0.1-0.4-0.2-0.6-0.4c0-0.1,0-0.1,0-0.2c0,0,0,0,0,0
				c0.1-0.1,0.2-0.1,0.3-0.1c0.2,0,0.5,0,0.7,0.1c0.2,0,0.3,0.1,0.5,0.2c0.1,0.1,0,0.2-0.1,0.3l0.9,0.2c0.2-0.1,0.3-0.4,0.1-0.6
				c0,0,0,0,0,0c-0.1-0.2-0.4-0.4-1-0.6c-0.3-0.1-0.6-0.2-0.9-0.2c-0.3,0-0.5,0-0.8,0.1c-0.2,0-0.4,0.1-0.6,0.2
				c-0.2,0.1-0.3,0.4-0.1,0.5c0,0,0,0,0,0c0.2,0.2,0.4,0.4,0.7,0.5c0.2,0.1,0.4,0.2,0.6,0.3c0,0,0.1,0,0.1,0.1l1.1,0.1
				C605,173.5,605,173.3,604.9,173.3z"/>
			<polygon class="st13" points="555.6,164.6 552.8,164.5 552.9,163.8 555.4,163.9 555.6,163.5 553.1,163.4 553.2,162.8 555.8,163 
				555.9,162.5 552.2,162.4 551.8,164.9 555.6,165 			"/>
			<polygon class="st15" points="555.6,164.6 552.8,164.5 552.9,163.8 555.4,163.9 555.6,163.5 553.1,163.4 553.2,162.8 555.8,163 
				555.9,162.5 552.2,162.4 551.8,164.9 555.6,165 			"/>
			<path class="st13" d="M539.4,162.4c-0.6-0.3-1.2-0.4-1.8-0.4c-0.4,0-0.7,0-1.1,0.1c-0.2,0-0.4,0.1-0.6,0.2
				c-0.2,0.1-0.4,0.2-0.5,0.3c-0.2,0.2-0.2,0.4-0.2,0.6c-0.1,0.3,0.2,0.7,0.6,0.9c0.5,0.3,1.1,0.4,1.7,0.4c0.6,0,1.2-0.1,1.8-0.3
				c0.4-0.1,0.7-0.5,0.7-0.9C540,163,539.8,162.6,539.4,162.4z M538.5,164c-0.3,0.1-0.7,0.2-1,0.2c-0.4,0-0.7-0.1-1-0.2
				c-0.2-0.1-0.4-0.4-0.4-0.6c0-0.3,0.2-0.5,0.4-0.6c0.3-0.2,0.7-0.2,1-0.2c0.3,0,0.7,0.1,1,0.2c0.2,0.1,0.4,0.4,0.4,0.6
				C538.9,163.6,538.7,163.8,538.5,164z"/>
			<path class="st15" d="M539.4,162.4c-0.6-0.3-1.2-0.4-1.8-0.4c-0.4,0-0.7,0-1.1,0.1c-0.2,0-0.4,0.1-0.6,0.2
				c-0.2,0.1-0.4,0.2-0.5,0.3c-0.2,0.2-0.2,0.4-0.2,0.6c-0.1,0.3,0.2,0.7,0.6,0.9c0.5,0.3,1.1,0.4,1.7,0.4c0.6,0,1.2-0.1,1.8-0.3
				c0.4-0.1,0.7-0.5,0.7-0.9C540,163,539.8,162.6,539.4,162.4z M538.5,164c-0.3,0.1-0.7,0.2-1,0.2c-0.4,0-0.7-0.1-1-0.2
				c-0.2-0.1-0.4-0.4-0.4-0.6c0-0.3,0.2-0.5,0.4-0.6c0.3-0.2,0.7-0.2,1-0.2c0.3,0,0.7,0.1,1,0.2c0.2,0.1,0.4,0.4,0.4,0.6
				C538.9,163.6,538.7,163.8,538.5,164z"/>
			<path class="st16" d="M538.5,162.7c-0.3-0.2-0.6-0.2-1-0.2c-0.3,0-0.7,0.1-1,0.2c-0.3,0.1-0.4,0.4-0.4,0.6c0,0.3,0.1,0.5,0.4,0.6
				c0.3,0.2,0.7,0.2,1,0.2c0.3,0,0.7,0,1-0.2c0.2-0.1,0.4-0.4,0.4-0.7C538.9,163,538.8,162.8,538.5,162.7z"/>
			<path class="st15" d="M538.5,162.7c-0.3-0.2-0.6-0.2-1-0.2c-0.3,0-0.7,0.1-1,0.2c-0.3,0.1-0.4,0.4-0.4,0.6c0,0.3,0.1,0.5,0.4,0.6
				c0.3,0.2,0.7,0.2,1,0.2c0.3,0,0.7,0,1-0.2c0.2-0.1,0.4-0.4,0.4-0.7C538.9,163,538.8,162.8,538.5,162.7z"/>
			<path class="st13" d="M542.1,163.6h0.2c0.2,0,0.3,0,0.5,0c0.1,0,0.2,0.1,0.3,0.1l0.5,0.4l0.7,0.6h1.2l-0.6-0.5
				c-0.2-0.2-0.3-0.3-0.5-0.4l-0.5-0.2c0.3,0,0.6-0.1,0.9-0.2c0.2-0.1,0.3-0.3,0.3-0.5c0-0.2-0.1-0.3-0.2-0.4
				c-0.2-0.1-0.4-0.2-0.6-0.2c-0.4-0.1-0.7-0.1-1.1-0.1h-2.1l-0.1,2.5h1.1L542.1,163.6z M542.1,163.1v-0.6h0.8h0.7
				c0.1,0,0.2,0.1,0.4,0.1c0.1,0,0.2,0.1,0.1,0.2c0,0.1,0,0.1-0.1,0.2c-0.1,0.1-0.2,0.1-0.3,0.1c-0.1,0-0.4,0-0.9,0.1L542.1,163.1
				L542.1,163.1z"/>
			<path class="st15" d="M542.1,163.6h0.2c0.2,0,0.3,0,0.5,0c0.1,0,0.2,0.1,0.3,0.1l0.5,0.4l0.7,0.6h1.2l-0.6-0.5
				c-0.2-0.2-0.3-0.3-0.5-0.4l-0.5-0.2c0.3,0,0.6-0.1,0.9-0.2c0.2-0.1,0.3-0.3,0.3-0.5c0-0.2-0.1-0.3-0.2-0.4
				c-0.2-0.1-0.4-0.2-0.6-0.2c-0.4-0.1-0.7-0.1-1.1-0.1h-2.1l-0.1,2.5h1.1L542.1,163.6z M542.1,163.1v-0.6h0.8h0.7
				c0.1,0,0.2,0.1,0.4,0.1c0.1,0,0.2,0.1,0.1,0.2c0,0.1,0,0.1-0.1,0.2c-0.1,0.1-0.2,0.1-0.3,0.1c-0.1,0-0.4,0-0.9,0.1L542.1,163.1
				L542.1,163.1z"/>
			<path class="st3" d="M543.7,163.1c0.1,0,0.2,0,0.3-0.1c0.1,0,0.1-0.1,0.1-0.2c0-0.1,0-0.2-0.1-0.2c-0.1-0.1-0.2-0.1-0.4-0.1h-0.7
				h-0.8v0.7h0.7C543.3,163.2,543.6,163.2,543.7,163.1z"/>
			<path class="st15" d="M543.7,163.1c0.1,0,0.2,0,0.3-0.1c0.1,0,0.1-0.1,0.1-0.2c0-0.1,0-0.2-0.1-0.2c-0.1-0.1-0.2-0.1-0.4-0.1
				h-0.7h-0.8v0.7h0.7C543.3,163.2,543.6,163.2,543.7,163.1z"/>
			<path class="st13" d="M549.2,164.7c0.2,0,0.5-0.1,0.7-0.2c0.2-0.1,0.4-0.2,0.6-0.4c0.1-0.2,0.2-0.3,0.2-0.5c0-0.2,0-0.4-0.1-0.6
				c-0.1-0.2-0.2-0.3-0.4-0.4c-0.2-0.1-0.5-0.2-0.7-0.2c-0.3,0-0.6-0.1-0.9-0.1l-1.9-0.1l0,0l-0.2,2.5l1.9,0.1
				C548.6,164.8,548.9,164.8,549.2,164.7z M547.7,162.7h0.5c0.3,0,0.5,0,0.8,0.1c0.1,0,0.3,0.1,0.4,0.1c0.1,0.1,0.2,0.1,0.3,0.2
				l0,0.4c0,0.2,0,0.3-0.1,0.5c-0.1,0.1-0.2,0.2-0.3,0.2c-0.1,0.1-0.3,0.1-0.4,0.1h-1.3L547.7,162.7z"/>
			<path class="st15" d="M549.2,164.7c0.2,0,0.5-0.1,0.7-0.2c0.2-0.1,0.4-0.2,0.6-0.4c0.1-0.2,0.2-0.3,0.2-0.5c0-0.2,0-0.4-0.1-0.6
				c-0.1-0.2-0.2-0.3-0.4-0.4c-0.2-0.1-0.5-0.2-0.7-0.2c-0.3,0-0.6-0.1-0.9-0.1l-1.9-0.1l0,0l-0.2,2.5l1.9,0.1
				C548.6,164.8,548.9,164.8,549.2,164.7z M547.7,162.7h0.5c0.3,0,0.5,0,0.8,0.1c0.1,0,0.3,0.1,0.4,0.1c0.1,0.1,0.2,0.1,0.3,0.2
				l0,0.4c0,0.2,0,0.3-0.1,0.5c-0.1,0.1-0.2,0.2-0.3,0.2c-0.1,0.1-0.3,0.1-0.4,0.1h-1.3L547.7,162.7z"/>
			<path class="st3" d="M549.3,164.2c0.1,0,0.2-0.1,0.3-0.2c0.1-0.1,0.1-0.3,0.1-0.5l0-0.4c-0.1-0.1-0.2-0.2-0.3-0.2
				c-0.1-0.1-0.3-0.1-0.4-0.1c-0.3,0-0.5,0-0.8-0.1h-0.4l-0.2,1.6h1.3C549,164.3,549.1,164.3,549.3,164.2z"/>
			<path class="st15" d="M549.3,164.2c0.1,0,0.2-0.1,0.3-0.2c0.1-0.1,0.1-0.3,0.1-0.5l0-0.4c-0.1-0.1-0.2-0.2-0.3-0.2
				c-0.1-0.1-0.3-0.1-0.4-0.1c-0.3,0-0.5,0-0.8-0.1h-0.4l-0.2,1.6h1.3C549,164.3,549.1,164.3,549.3,164.2z"/>
			<path class="st13" d="M572.6,165.9l0.6,0.1c0.4,0,0.7,0.1,1.1,0.1c0.4,0,0.7-0.1,1.1-0.2c0.2-0.1,0.3-0.2,0.4-0.4
				c0.1-0.2,0.1-0.4-0.1-0.5c-0.1-0.2-0.3-0.3-0.6-0.3l-1.1-0.2l-1.6-0.2l-1.2,2.4l1,0.1L572.6,165.9z M573.1,164.8L573.1,164.8
				l0.5,0.1l0.7,0.1c0.1,0,0.3,0.1,0.4,0.2c0.1,0.1,0.1,0.1,0.1,0.2c-0.1,0.2-0.3,0.3-0.6,0.3c-0.3,0-0.5,0-0.8-0.1l-0.5-0.1
				L573.1,164.8z"/>
			<path class="st15" d="M572.6,165.9l0.6,0.1c0.4,0,0.7,0.1,1.1,0.1c0.4,0,0.7-0.1,1.1-0.2c0.2-0.1,0.3-0.2,0.4-0.4
				c0.1-0.2,0.1-0.4-0.1-0.5c-0.1-0.2-0.3-0.3-0.6-0.3l-1.1-0.2l-1.6-0.2l-1.2,2.4l1,0.1L572.6,165.9z M573.1,164.8L573.1,164.8
				l0.5,0.1l0.7,0.1c0.1,0,0.3,0.1,0.4,0.2c0.1,0.1,0.1,0.1,0.1,0.2c-0.1,0.2-0.3,0.3-0.6,0.3c-0.3,0-0.5,0-0.8-0.1l-0.5-0.1
				L573.1,164.8z"/>
			<path class="st3" d="M574.2,165.6c0.2,0,0.4-0.1,0.6-0.3c0-0.1,0-0.2-0.1-0.2c-0.1-0.1-0.2-0.1-0.4-0.2l-0.7-0.1l-0.5-0.1h0
				l-0.3,0.7l0.5,0.1C573.6,165.6,573.9,165.6,574.2,165.6z"/>
			<path class="st15" d="M574.2,165.6c0.2,0,0.4-0.1,0.6-0.3c0-0.1,0-0.2-0.1-0.2c-0.1-0.1-0.2-0.1-0.4-0.2l-0.7-0.1l-0.5-0.1h0
				l-0.3,0.7l0.5,0.1C573.6,165.6,573.9,165.6,574.2,165.6z"/>
			<path class="st13" d="M577.5,166.6l0.2,0c0.2,0,0.3,0,0.5,0.1c0.1,0,0.2,0.1,0.2,0.1c0.1,0.1,0.2,0.3,0.2,0.4l0.4,0.6l1.1,0.2
				l-0.2-0.6l-0.3-0.5c-0.1-0.1-0.2-0.2-0.4-0.3c0.4,0,0.7,0,1.1-0.1c0.2-0.1,0.5-0.2,0.6-0.4c0.1-0.1,0.1-0.3,0-0.4
				c0-0.1-0.2-0.2-0.4-0.3c-0.4-0.1-0.7-0.2-1.1-0.3l-2-0.4l-1.7,2.4l0.9,0.2L577.5,166.6z M578.1,165.7l0.7,0.1l0.7,0.1
				c0.1,0,0.2,0.1,0.3,0.2c0.1,0,0.1,0.1,0,0.2c0,0,0,0,0,0c0,0.1-0.1,0.1-0.2,0.2c-0.1,0-0.2,0.1-0.3,0.1c-0.3,0-0.6-0.1-0.9-0.1
				l-0.7-0.1h0L578.1,165.7z"/>
			<path class="st15" d="M577.5,166.6l0.2,0c0.2,0,0.3,0,0.5,0.1c0.1,0,0.2,0.1,0.2,0.1c0.1,0.1,0.2,0.3,0.2,0.4l0.4,0.6l1.1,0.2
				l-0.2-0.6l-0.3-0.5c-0.1-0.1-0.2-0.2-0.4-0.3c0.4,0,0.7,0,1.1-0.1c0.2-0.1,0.5-0.2,0.6-0.4c0.1-0.1,0.1-0.3,0-0.4
				c0-0.1-0.2-0.2-0.4-0.3c-0.4-0.1-0.7-0.2-1.1-0.3l-2-0.4l-1.7,2.4l0.9,0.2L577.5,166.6z M578.1,165.7l0.7,0.1l0.7,0.1
				c0.1,0,0.2,0.1,0.3,0.2c0.1,0,0.1,0.1,0,0.2c0,0,0,0,0,0c0,0.1-0.1,0.1-0.2,0.2c-0.1,0-0.2,0.1-0.3,0.1c-0.3,0-0.6-0.1-0.9-0.1
				l-0.7-0.1h0L578.1,165.7z"/>
			<path class="st3" d="M578.4,166.4c0.3,0.1,0.6,0.1,0.9,0.1c0.1,0,0.2,0,0.3-0.1c0.1,0,0.2-0.1,0.2-0.2c0.1,0,0.1-0.1,0-0.2
				c0,0,0,0,0,0c-0.1-0.1-0.2-0.1-0.3-0.2l-0.7-0.1l-0.7-0.1l-0.4,0.6h0L578.4,166.4z"/>
			<path class="st15" d="M578.4,166.4c0.3,0.1,0.6,0.1,0.9,0.1c0.1,0,0.2,0,0.3-0.1c0.1,0,0.2-0.1,0.2-0.2c0.1,0,0.1-0.1,0-0.2
				c0,0,0,0,0,0c-0.1-0.1-0.2-0.1-0.3-0.2l-0.7-0.1l-0.7-0.1l-0.4,0.6h0L578.4,166.4z"/>
			<path class="st13" d="M583.3,168.9c0.6,0.1,1.3,0.1,1.9-0.1c0.5-0.1,0.9-0.4,1.2-0.8c0.2-0.3,0.2-0.7-0.1-1
				c-0.4-0.3-1-0.6-1.5-0.6c-0.4-0.1-0.7-0.1-1.1-0.1c-0.2,0-0.5,0.1-0.7,0.1c-0.2,0.1-0.4,0.2-0.6,0.3c-0.2,0.1-0.5,0.3-0.6,0.6
				c-0.3,0.3-0.2,0.7,0.1,1C582.2,168.6,582.7,168.8,583.3,168.9z M582.7,167.4c0.2-0.3,0.5-0.5,0.8-0.6c0.3-0.1,0.7-0.1,1.1-0.1
				c0.3,0,0.6,0.2,0.8,0.4c0.2,0.2,0.2,0.4,0,0.7c-0.2,0.3-0.4,0.5-0.7,0.6c-0.3,0.1-0.7,0.1-1.1,0.1c-0.3,0-0.6-0.2-0.8-0.4
				C582.5,167.9,582.5,167.7,582.7,167.4L582.7,167.4z"/>
			<path class="st15" d="M583.3,168.9c0.6,0.1,1.3,0.1,1.9-0.1c0.5-0.1,0.9-0.4,1.2-0.8c0.2-0.3,0.2-0.7-0.1-1
				c-0.4-0.3-1-0.6-1.5-0.6c-0.4-0.1-0.7-0.1-1.1-0.1c-0.2,0-0.5,0.1-0.7,0.1c-0.2,0.1-0.4,0.2-0.6,0.3c-0.2,0.1-0.5,0.3-0.6,0.6
				c-0.3,0.3-0.2,0.7,0.1,1C582.2,168.6,582.7,168.8,583.3,168.9z M582.7,167.4c0.2-0.3,0.5-0.5,0.8-0.6c0.3-0.1,0.7-0.1,1.1-0.1
				c0.3,0,0.6,0.2,0.8,0.4c0.2,0.2,0.2,0.4,0,0.7c-0.2,0.3-0.4,0.5-0.7,0.6c-0.3,0.1-0.7,0.1-1.1,0.1c-0.3,0-0.6-0.2-0.8-0.4
				C582.5,167.9,582.5,167.7,582.7,167.4L582.7,167.4z"/>
			<path class="st3" d="M583.5,168.5c0.4,0.1,0.7,0,1.1-0.1c0.3-0.1,0.6-0.3,0.7-0.6c0.2-0.3,0.2-0.5,0-0.7
				c-0.2-0.2-0.5-0.3-0.8-0.3c-0.4-0.1-0.7,0-1.1,0.1c-0.3,0.1-0.6,0.3-0.8,0.6c-0.1,0.3-0.2,0.5,0,0.7
				C582.9,168.3,583.2,168.4,583.5,168.5z"/>
			<path class="st15" d="M583.5,168.5c0.4,0.1,0.7,0,1.1-0.1c0.3-0.1,0.6-0.3,0.7-0.6c0.2-0.3,0.2-0.5,0-0.7
				c-0.2-0.2-0.5-0.3-0.8-0.3c-0.4-0.1-0.7,0-1.1,0.1c-0.3,0.1-0.6,0.3-0.8,0.6c-0.1,0.3-0.2,0.5,0,0.7
				C582.9,168.3,583.2,168.4,583.5,168.5z"/>
			<path class="st13" d="M592.3,171l1-0.9l0.2,0.1l0.4,0.1c0.1,0,0.1,0.1,0.2,0.2c0.1,0.1,0.1,0.3,0.1,0.4l0.1,0.7l1.1,0.3l-0.1-0.6
				c0-0.2-0.1-0.3-0.1-0.5c-0.1-0.1-0.2-0.2-0.3-0.3c0.4,0.1,0.7,0.1,1.1,0c0.3,0,0.5-0.2,0.7-0.4c0.1-0.1,0.2-0.2,0.1-0.4
				c0-0.1-0.1-0.2-0.3-0.3c-0.3-0.1-0.6-0.3-1-0.3l-1.9-0.5l-2.3,2.2L592.3,171z M594.2,169.2l0.7,0.2c0.2,0.1,0.4,0.1,0.6,0.2
				c0.1,0,0.2,0.1,0.2,0.2c0,0.1,0,0.1-0.1,0.2c-0.1,0.1-0.2,0.1-0.2,0.1c-0.1,0-0.2,0-0.4,0c-0.3,0-0.6-0.1-0.8-0.2l-0.7-0.2
				L594.2,169.2z"/>
			<path class="st15" d="M592.3,171l1-0.9l0.2,0.1l0.4,0.1c0.1,0,0.1,0.1,0.2,0.2c0.1,0.1,0.1,0.3,0.1,0.4l0.1,0.7l1.1,0.3l-0.1-0.6
				c0-0.2-0.1-0.3-0.1-0.5c-0.1-0.1-0.2-0.2-0.3-0.3c0.4,0.1,0.7,0.1,1.1,0c0.3,0,0.5-0.2,0.7-0.4c0.1-0.1,0.2-0.2,0.1-0.4
				c0-0.1-0.1-0.2-0.3-0.3c-0.3-0.1-0.6-0.3-1-0.3l-1.9-0.5l-2.3,2.2L592.3,171z M594.2,169.2l0.7,0.2c0.2,0.1,0.4,0.1,0.6,0.2
				c0.1,0,0.2,0.1,0.2,0.2c0,0.1,0,0.1-0.1,0.2c-0.1,0.1-0.2,0.1-0.2,0.1c-0.1,0-0.2,0-0.4,0c-0.3,0-0.6-0.1-0.8-0.2l-0.7-0.2
				L594.2,169.2z"/>
			<path class="st3" d="M595.1,170.1c0.1,0,0.2,0,0.4,0c0.1,0,0.2-0.1,0.2-0.1c0.1-0.1,0.1-0.1,0.1-0.2c-0.1-0.1-0.1-0.1-0.2-0.2
				c-0.2-0.1-0.4-0.1-0.6-0.2l-0.7-0.2l-0.6,0.6l0.7,0.2C594.6,170,594.9,170,595.1,170.1z"/>
			<path class="st15" d="M595.1,170.1c0.1,0,0.2,0,0.4,0c0.1,0,0.2-0.1,0.2-0.1c0.1-0.1,0.1-0.1,0.1-0.2c-0.1-0.1-0.1-0.1-0.2-0.2
				c-0.2-0.1-0.4-0.1-0.6-0.2l-0.7-0.2l-0.6,0.6l0.7,0.2C594.6,170,594.9,170,595.1,170.1z"/>
			<polygon class="st13" points="568.4,165.7 566.4,165.4 566.6,165 568.4,165.2 568.5,164.9 566.8,164.7 566.9,164.3 568.8,164.5 
				568.9,164.2 566.4,163.9 565.6,165.7 568.2,166 			"/>
			<polygon class="st15" points="568.4,165.7 566.4,165.4 566.6,165 568.4,165.2 568.5,164.9 566.8,164.7 566.9,164.3 568.8,164.5 
				568.9,164.2 566.4,163.9 565.6,165.7 568.2,166 			"/>
			<path class="st17" d="M524.9,207.9c2-5.1,2.3-10.7,0.7-15.9c-3.8-13.2-17.7-20.8-30.8-16.9c-11.9,3.5-19.4,15.2-17.7,27.4
				c0.4,2.6,1.2,5.1,2.4,7.4c6.2,12.3,21.1,17.3,33.5,11.1C518.5,218.3,522.7,213.6,524.9,207.9L524.9,207.9z M501.8,223
				c-13.4,0-24.2-10.8-24.2-24.1s10.8-24.1,24.2-24.1c13.4,0,24.2,10.8,24.2,24.1S515.2,223,501.8,223L501.8,223z"/>
			<path class="st18" d="M526,198.9c0-13.3-10.8-24.1-24.2-24.1c-13.4,0-24.2,10.8-24.2,24.1s10.8,24.1,24.2,24.1
				C515.1,223,526,212.2,526,198.9z M483.5,198.9c-0.1-10.1,8-18.3,18.1-18.3c10.1-0.1,18.3,8,18.3,18.1c0.1,10.1-8,18.3-18.1,18.3
				c0,0-0.1,0-0.1,0C491.7,217,483.6,208.9,483.5,198.9L483.5,198.9z"/>
			<path d="M520,198.9c0.1-10.1-8-18.3-18.1-18.3c-10.1-0.1-18.3,8-18.3,18.1c-0.1,10.1,8,18.3,18.1,18.3c0,0,0.1,0,0.1,0
				C511.8,217,520,208.9,520,198.9z M484.4,198.9c-0.1-9.6,7.7-17.4,17.2-17.4c9.6-0.1,17.4,7.7,17.4,17.2
				c0.1,9.6-7.7,17.4-17.2,17.4c0,0-0.1,0-0.1,0C492.2,216.2,484.5,208.5,484.4,198.9C484.4,198.9,484.4,198.9,484.4,198.9z"/>
			<path class="st3" d="M519.1,198.9c0.1-9.6-7.7-17.4-17.2-17.4c-9.6-0.1-17.4,7.7-17.4,17.2s7.7,17.4,17.2,17.4c0,0,0.1,0,0.1,0
				C511.3,216.2,519.1,208.5,519.1,198.9C519.1,198.9,519.1,198.9,519.1,198.9z M485.3,198.9c-0.1-9.1,7.3-16.5,16.3-16.5
				s16.5,7.3,16.5,16.3c0.1,9.1-7.3,16.5-16.3,16.5c0,0-0.1,0-0.1,0C492.7,215.3,485.4,208,485.3,198.9
				C485.3,198.9,485.3,198.9,485.3,198.9z"/>
			<path class="st19" d="M518.2,198.9c0.1-9.1-7.3-16.5-16.3-16.5s-16.5,7.3-16.5,16.3c-0.1,9.1,7.3,16.5,16.3,16.5c0,0,0.1,0,0.1,0
				C510.8,215.3,518.2,208,518.2,198.9C518.2,198.9,518.2,198.9,518.2,198.9z M491.5,198.9c0-5.6,4.5-10.2,10.2-10.3
				c5.6,0,10.2,4.5,10.3,10.2c0,5.6-4.5,10.2-10.2,10.3c0,0,0,0-0.1,0C496.1,209.1,491.6,204.5,491.5,198.9
				C491.5,198.9,491.5,198.9,491.5,198.9z"/>
			<path class="st20" d="M501.8,209.1c5.6,0,10.1-4.6,10.1-10.2c0-5.6-4.6-10.1-10.2-10.1c-5.6,0-10.1,4.6-10.1,10.2
				C491.6,204.5,496.1,209.1,501.8,209.1C501.8,209.1,501.8,209.1,501.8,209.1z M492.4,198.9c0-5.2,4.1-9.4,9.3-9.4
				c5.2,0,9.4,4.1,9.4,9.3c0,5.2-4.1,9.4-9.3,9.4c0,0,0,0-0.1,0C496.6,208.2,492.4,204,492.4,198.9L492.4,198.9z"/>
			<path class="st21" d="M501.8,208.2c5.1,0,9.2-4.2,9.2-9.3c0-5.1-4.2-9.2-9.3-9.2c-5.1,0-9.2,4.2-9.2,9.3
				C492.4,204,496.6,208.2,501.8,208.2C501.8,208.2,501.8,208.2,501.8,208.2z"/>
			<path class="st17" d="M665.1,206.7c3.3-9.8,0.1-20.7-8.1-27.1c-10.8-8.6-26.5-6.8-35.1,4c-2.1,2.6-3.6,5.6-4.5,8.9
				c-2.2,8.2-0.1,16.9,5.6,23.1c9.4,10.2,25.2,10.8,35.3,1.5c0.5-0.5,1-0.9,1.5-1.5C662.2,213,664,210,665.1,206.7z M641.5,223
				c-13.4,0-24.2-10.8-24.2-24.1s10.8-24.1,24.2-24.1s24.2,10.8,24.2,24.1S654.9,223,641.5,223z"/>
			<path class="st18" d="M665.7,198.9c0-13.3-10.8-24.1-24.2-24.1c-13.4,0-24.2,10.8-24.2,24.1s10.8,24.1,24.2,24.1
				S665.7,212.2,665.7,198.9z M641.5,217c-10-0.1-18.1-8.2-18-18.2c0.1-10,8.2-18.1,18.2-18c10,0.1,18,8.2,18,18.1
				C659.7,208.9,651.5,217,641.5,217C641.5,217,641.5,217,641.5,217z"/>
			<path d="M659.7,198.9c0.1-10.1-8-18.3-18.1-18.3c-10.1-0.1-18.3,8-18.3,18.1c-0.1,10.1,8,18.3,18.1,18.3c0,0,0.1,0,0.1,0
				C651.5,217.1,659.7,208.9,659.7,198.9C659.7,198.9,659.7,198.9,659.7,198.9z M641.5,216.1c-9.5-0.1-17.2-7.8-17.1-17.3
				c0.1-9.5,7.8-17.2,17.3-17.1c9.5,0.1,17.1,7.8,17.1,17.2C658.8,208.5,651,216.2,641.5,216.1C641.5,216.1,641.5,216.1,641.5,216.1
				z"/>
			<path class="st3" d="M658.8,198.9c0.1-9.6-7.7-17.4-17.2-17.4c-9.6-0.1-17.4,7.7-17.4,17.2c-0.1,9.6,7.7,17.4,17.2,17.4
				c0,0,0.1,0,0.1,0C651,216.2,658.8,208.5,658.8,198.9C658.8,198.9,658.8,198.9,658.8,198.9z M625,198.9
				c-0.1-9.1,7.3-16.5,16.3-16.5c9.1-0.1,16.5,7.3,16.5,16.3c0.1,9.1-7.3,16.5-16.3,16.5c0,0-0.1,0-0.1,0
				C632.4,215.3,625.1,208,625,198.9L625,198.9z"/>
			<path class="st19" d="M657.9,198.9c0.1-9.1-7.3-16.5-16.3-16.5c-9.1-0.1-16.5,7.3-16.5,16.3c-0.1,9.1,7.3,16.5,16.3,16.5
				c0,0,0.1,0,0.1,0C650.5,215.3,657.9,208,657.9,198.9C657.9,198.9,657.9,198.9,657.9,198.9z M631.3,198.9
				c0-5.6,4.5-10.2,10.2-10.3c5.6,0,10.2,4.5,10.3,10.2s-4.5,10.2-10.2,10.3c0,0,0,0-0.1,0C635.9,209.1,631.3,204.5,631.3,198.9z"/>
			<path class="st20" d="M651.7,198.9c0-5.6-4.5-10.2-10.2-10.3c-5.6,0-10.2,4.5-10.3,10.2s4.5,10.2,10.2,10.3c0,0,0,0,0.1,0
				C647.1,209.1,651.7,204.5,651.7,198.9C651.7,198.9,651.7,198.9,651.7,198.9z M632.2,198.9c0-5.2,4.1-9.4,9.3-9.4s9.4,4.1,9.4,9.3
				c0,5.2-4.1,9.4-9.3,9.4c0,0-0.1,0-0.1,0C636.3,208.2,632.2,204,632.2,198.9L632.2,198.9z"/>
			<path class="st21" d="M650.8,198.9c0-5.2-4.1-9.4-9.3-9.4c-5.2,0-9.4,4.1-9.4,9.3c0,5.2,4.1,9.4,9.3,9.4c0,0,0,0,0.1,0
				C646.6,208.2,650.8,204.1,650.8,198.9C650.8,198.9,650.8,198.9,650.8,198.9z"/>
			<path class="st10" d="M590.6,150.8c-6.4-7.7-9.7-7.3-9.7-7.3s-17.1-0.4-22.5,0s-7.2,3.6-7.2,3.6l-4.9,6.9
				c7.7-3,17.3-4.7,27.7-4.7C579.6,149.2,585.2,149.7,590.6,150.8z"/>
			
				<linearGradient id="SVGID_3_" gradientUnits="userSpaceOnUse" x1="545.06" y1="103.4162" x2="600.7601" y2="103.4162" gradientTransform="matrix(1 0 0 -1 0 252)">
				<stop  offset="0" style="stop-color:#C9E7F9"/>
				<stop  offset="1" style="stop-color:#AAFFF9"/>
			</linearGradient>
			<path class="st22" d="M590.6,150.8c-6.4-7.7-9.7-7.3-9.7-7.3s-17.1-0.4-22.5,0s-7.2,3.6-7.2,3.6l-4.9,6.9
				c7.7-3,17.3-4.7,27.7-4.7C579.6,149.2,585.2,149.7,590.6,150.8z"/>
			<path class="st11" d="M551.2,160c2.6,0.3,9.6,1.1,17.7,2.1c6.7,0.8,13.2,1.6,19,2.3l0.5-0.5l0.6,0.7h0.1l1.3,0.1l-0.1,0l10.2,1.2
				c-3.9-7.1-7.2-11.9-10-15.3c-5.5-1.1-11-1.6-16.6-1.6c-10.4,0-20,1.7-27.7,4.7l-0.5,0.8C545.8,154.7,542.2,159.1,551.2,160z"/>
			
				<linearGradient id="SVGID_4_" gradientUnits="userSpaceOnUse" x1="545.0602" y1="94.3999" x2="600.7604" y2="94.3999" gradientTransform="matrix(1 0 0 -1 0 252)">
				<stop  offset="0" style="stop-color:#C9E7F9"/>
				<stop  offset="1" style="stop-color:#AAFFF9"/>
			</linearGradient>
			<path class="st23" d="M551.2,160c2.6,0.3,9.6,1.1,17.7,2.1c6.7,0.8,13.2,1.6,19,2.3l0.5-0.5l0.6,0.7h0.1l1.3,0.1l-0.1,0l10.2,1.2
				c-3.9-7.1-7.2-11.9-10-15.3c-5.5-1.1-11-1.6-16.6-1.6c-10.4,0-20,1.7-27.7,4.7l-0.5,0.8C545.8,154.7,542.2,159.1,551.2,160z"/>
			<path class="st12" d="M590.5,164.7l-1.3-0.1L590.5,164.7L590.5,164.7z"/>
			
				<linearGradient id="SVGID_5_" gradientUnits="userSpaceOnUse" x1="545.06" y1="87.3039" x2="600.7601" y2="87.3039" gradientTransform="matrix(1 0 0 -1 0 252)">
				<stop  offset="0" style="stop-color:#C9E7F9"/>
				<stop  offset="1" style="stop-color:#AAFFF9"/>
			</linearGradient>
			<path class="st24" d="M590.5,164.7l-1.3-0.1L590.5,164.7L590.5,164.7z"/>
			<path class="st12" d="M588.4,163.9l-0.6,0.5l1.2,0.1L588.4,163.9z"/>
			
				<linearGradient id="SVGID_6_" gradientUnits="userSpaceOnUse" x1="545.06" y1="87.7148" x2="600.7601" y2="87.7148" gradientTransform="matrix(1 0 0 -1 0 252)">
				<stop  offset="0" style="stop-color:#C9E7F9"/>
				<stop  offset="1" style="stop-color:#AAFFF9"/>
			</linearGradient>
			<path class="st25" d="M588.4,163.9l-0.6,0.5l1.2,0.1L588.4,163.9z"/>
			<path class="st11" d="M589.2,164.6H589l0,0H589.2z"/>
			<path class="st15" d="M589.2,164.6H589l0,0H589.2z"/>
			
				<linearGradient id="SVGID_7_" gradientUnits="userSpaceOnUse" x1="545.06" y1="87.3796" x2="600.7601" y2="87.3796" gradientTransform="matrix(1 0 0 -1 0 252)">
				<stop  offset="0" style="stop-color:#C9E7F9"/>
				<stop  offset="1" style="stop-color:#AAFFF9"/>
			</linearGradient>
			<path class="st26" d="M589.2,164.6H589l0,0H589.2z"/>
			<path class="st11" d="M590.1,164.9l10.7,1.4l-0.2-0.3l-10.2-1.2L590.1,164.9z"/>
			<path class="st15" d="M590.1,164.9l10.7,1.4l-0.2-0.3l-10.2-1.2L590.1,164.9z"/>
			
				<linearGradient id="SVGID_8_" gradientUnits="userSpaceOnUse" x1="545.06" y1="86.4566" x2="600.7601" y2="86.4566" gradientTransform="matrix(1 0 0 -1 0 252)">
				<stop  offset="0" style="stop-color:#C9E7F9"/>
				<stop  offset="1" style="stop-color:#AAFFF9"/>
			</linearGradient>
			<path class="st27" d="M590.1,164.9l10.7,1.4l-0.2-0.3l-10.2-1.2L590.1,164.9z"/>
			<path class="st11" d="M587.9,164.5c-5.8-0.7-12.3-1.5-19-2.3c6.2,0.8,13.1,1.7,18.8,2.4h0.1L587.9,164.5z"/>
			<path class="st15" d="M587.9,164.5c-5.8-0.7-12.3-1.5-19-2.3c6.2,0.8,13.1,1.7,18.8,2.4h0.1L587.9,164.5z"/>
			
				<linearGradient id="SVGID_9_" gradientUnits="userSpaceOnUse" x1="545.06" y1="88.6092" x2="600.7601" y2="88.6092" gradientTransform="matrix(1 0 0 -1 0 252)">
				<stop  offset="0" style="stop-color:#C9E7F9"/>
				<stop  offset="1" style="stop-color:#AAFFF9"/>
			</linearGradient>
			<path class="st28" d="M587.9,164.5c-5.8-0.7-12.3-1.5-19-2.3c6.2,0.8,13.1,1.7,18.8,2.4h0.1L587.9,164.5z"/>
			<path class="st12" d="M589.2,164.6H589l0,0l-1.2-0.1l-0.1,0.1h-0.1l2.5,0.3l0.3-0.1L589.2,164.6z"/>
			<path class="st15" d="M589.2,164.6H589l0,0l-1.2-0.1l-0.1,0.1h-0.1l2.5,0.3l0.3-0.1L589.2,164.6z"/>
			
				<linearGradient id="SVGID_10_" gradientUnits="userSpaceOnUse" x1="545.06" y1="87.2971" x2="600.7601" y2="87.2971" gradientTransform="matrix(1 0 0 -1 0 252)">
				<stop  offset="0" style="stop-color:#C9E7F9"/>
				<stop  offset="1" style="stop-color:#AAFFF9"/>
			</linearGradient>
			<path class="st29" d="M589.2,164.6H589l0,0l-1.2-0.1l-0.1,0.1h-0.1l2.5,0.3l0.3-0.1L589.2,164.6z"/>
			
				<linearGradient id="SVGID_11_" gradientUnits="userSpaceOnUse" x1="595.5017" y1="100.6638" x2="620.5912" y2="100.6638" gradientTransform="matrix(1 0 0 -1 0 252)">
				<stop  offset="0" style="stop-color:#C9E7F9"/>
				<stop  offset="1" style="stop-color:#AAFFF9"/>
			</linearGradient>
			<path class="st30" d="M620.1,159.2L620.1,159.2l0.5-0.1l-16.2-15.7c1.2,1.9,2.6,3.7,4.1,5.3C613,153.9,618.4,158,620.1,159.2z"/>
			<path class="st9" d="M595.8,144.7l12.7,4.1c-1.5-1.7-2.9-3.5-4.1-5.3l-7.7,0.4C596.3,144.1,596,144.3,595.8,144.7z"/>
			
				<linearGradient id="SVGID_12_" gradientUnits="userSpaceOnUse" x1="595.5017" y1="105.8633" x2="620.5912" y2="105.8633" gradientTransform="matrix(1 0 0 -1 0 252)">
				<stop  offset="0" style="stop-color:#C9E7F9"/>
				<stop  offset="1" style="stop-color:#AAFFF9"/>
			</linearGradient>
			<path class="st31" d="M595.8,144.7l12.7,4.1c-1.5-1.7-2.9-3.5-4.1-5.3l-7.7,0.4C596.3,144.1,596,144.3,595.8,144.7z"/>
			<path class="st10" d="M596.7,147.9l4.6,5.8c6.2,2.3,11.1,5.4,14.3,9l4.4-3.6c-1.7-1.2-7-5.3-11.6-10.4l-12.7-4.1
				C594.8,146.1,596.7,147.9,596.7,147.9z"/>
			
				<linearGradient id="SVGID_13_" gradientUnits="userSpaceOnUse" x1="595.5026" y1="98.2485" x2="620.5955" y2="98.2485" gradientTransform="matrix(1 0 0 -1 0 252)">
				<stop  offset="0" style="stop-color:#C9E7F9"/>
				<stop  offset="1" style="stop-color:#AAFFF9"/>
			</linearGradient>
			<path class="st32" d="M596.7,147.9l4.6,5.8c6.2,2.3,11.1,5.4,14.3,9l4.4-3.6c-1.7-1.2-7-5.3-11.6-10.4l-12.7-4.1
				C594.8,146.1,596.7,147.9,596.7,147.9z"/>
			<path class="st11" d="M615.6,162.8c-3.2-3.6-8.1-6.7-14.3-9l10,12.6L615.6,162.8z"/>
			
				<linearGradient id="SVGID_14_" gradientUnits="userSpaceOnUse" x1="595.5017" y1="91.9307" x2="620.5912" y2="91.9307" gradientTransform="matrix(1 0 0 -1 0 252)">
				<stop  offset="0" style="stop-color:#C9E7F9"/>
				<stop  offset="1" style="stop-color:#AAFFF9"/>
			</linearGradient>
			<path class="st33" d="M615.6,162.8c-3.2-3.6-8.1-6.7-14.3-9l10,12.6L615.6,162.8z"/>
			<path class="st15" d="M620.3,159.3l-0.2-0.2l-0.1,0.1L620.3,159.3L620.3,159.3z"/>
			
				<linearGradient id="SVGID_15_" gradientUnits="userSpaceOnUse" x1="595.5017" y1="92.7358" x2="620.5912" y2="92.7358" gradientTransform="matrix(1 0 0 -1 0 252)">
				<stop  offset="0" style="stop-color:#C9E7F9"/>
				<stop  offset="1" style="stop-color:#AAFFF9"/>
			</linearGradient>
			<path class="st34" d="M620.3,159.3l-0.2-0.2l-0.1,0.1L620.3,159.3L620.3,159.3z"/>
			<path class="st10" d="M615.9,163.1l4.4-3.7l-0.2-0.2l-4.4,3.6C615.7,162.9,615.8,163,615.9,163.1z"/>
			<path class="st15" d="M615.9,163.1l4.4-3.7l-0.2-0.2l-4.4,3.6C615.7,162.9,615.8,163,615.9,163.1z"/>
			
				<linearGradient id="SVGID_16_" gradientUnits="userSpaceOnUse" x1="595.5017" y1="90.8342" x2="620.5912" y2="90.8342" gradientTransform="matrix(1 0 0 -1 0 252)">
				<stop  offset="0" style="stop-color:#C9E7F9"/>
				<stop  offset="1" style="stop-color:#AAFFF9"/>
			</linearGradient>
			<path class="st35" d="M615.9,163.1l4.4-3.7l-0.2-0.2l-4.4,3.6C615.7,162.9,615.8,163,615.9,163.1z"/>
			<polygon class="st10" points="620.3,159.3 620.6,159.1 620.1,159.1 			"/>
			<polygon class="st15" points="620.3,159.3 620.6,159.1 620.1,159.1 			"/>
			
				<linearGradient id="SVGID_17_" gradientUnits="userSpaceOnUse" x1="595.5017" y1="92.7543" x2="620.5912" y2="92.7543" gradientTransform="matrix(1 0 0 -1 0 252)">
				<stop  offset="0" style="stop-color:#C9E7F9"/>
				<stop  offset="1" style="stop-color:#AAFFF9"/>
			</linearGradient>
			<polygon class="st36" points="620.3,159.3 620.6,159.1 620.1,159.1 			"/>
			<path class="st11" d="M611.3,166.4l0.3,0.4l4.3-3.6c-0.1-0.1-0.2-0.2-0.3-0.3L611.3,166.4z"/>
			<path class="st15" d="M611.3,166.4l0.3,0.4l4.3-3.6c-0.1-0.1-0.2-0.2-0.3-0.3L611.3,166.4z"/>
			
				<linearGradient id="SVGID_18_" gradientUnits="userSpaceOnUse" x1="595.5017" y1="87.2112" x2="620.5912" y2="87.2112" gradientTransform="matrix(1 0 0 -1 0 252)">
				<stop  offset="0" style="stop-color:#C9E7F9"/>
				<stop  offset="1" style="stop-color:#AAFFF9"/>
			</linearGradient>
			<path class="st37" d="M611.3,166.4l0.3,0.4l4.3-3.6c-0.1-0.1-0.2-0.2-0.3-0.3L611.3,166.4z"/>
		</g>
	</g>
</g>
<g id="Layer_8">
	
		<linearGradient id="SVGID_19_" gradientUnits="userSpaceOnUse" x1="400" y1="148" x2="400" y2="398" gradientTransform="matrix(1 0 0 1 0 -148)">
		<stop  offset="0" style="stop-color:#666666"/>
		<stop  offset="1" style="stop-color:#333333"/>
	</linearGradient>
	<rect class="st38" width="800" height="250"/>
</g>
</svg>
