<?xml version="1.0" encoding="utf-8"?>
<!-- Generator: Adobe Illustrator 25.0.1, SVG Export Plug-In . SVG Version: 6.00 Build 0)  -->
<svg version="1.1" id="Layer_1" xmlns="http://www.w3.org/2000/svg" xmlns:xlink="http://www.w3.org/1999/xlink" x="0px" y="0px"
	 viewBox="0 0 378.9 315.1" style="enable-background:new 0 0 378.9 315.1;" xml:space="preserve">
<style type="text/css">
	.st0{fill:#232323;}
	.st1{fill:#229E45;}
	.st2{fill:#9E9E9E;}
	.st3{fill:#F8E509;}
	.st4{fill:#2B49A3;}
	.st5{fill:#FFFFFF;}
	.st6{fill:#BFBB1F;}
	.st7{fill:#E27A0A;}
	.st8{fill:#E5C507;}
	.st9{fill:#309E3A;}
	.st10{fill:#FFFFEF;}
	.st11{fill:#F7FFFF;}
	.st12{clip-path:url(#SVGID_2_);}
</style>
<g id="Layer_2_1_">
	<g id="Layer_1-2">
		<g>
			<g>
				<path class="st0" d="M42.8,315.1c-15.1,0-26.4-4.4-33.7-13.1c-15.4-18.3-6.8-49-6.4-50.3l21.4-72.4
					c2.7-13.8,13.9-20.1,23.4-22.9l4-19.2c4.1-29.5,31.5-29.9,32.7-29.9h210.5c1.2,0,28.6,0.3,32.7,29.8l4,19.2
					c9.5,2.8,20.6,9.1,23.4,22.9l21.4,72.4c0.4,1.3,9,31.9-6.4,50.3c-7.3,8.7-18.6,13.1-33.7,13.1L42.8,315.1z"/>
				<path id="main_body" class="st1" d="M373.6,252.4l-21.4-72.5c-2.6-13.3-13.8-19.1-23.1-21.5l-4.3-20.8
					c-3.8-28.1-30.1-27.8-30.1-27.8H84.2c0,0-26.2-0.3-30.1,27.8l-4.3,20.8c-9.3,2.5-20.5,8.2-23.1,21.5L5.3,252.4
					c0,0-17.4,60.2,37.5,60.2h293.3C391,312.6,373.6,252.4,373.6,252.4z"/>
			</g>
			<path class="st2" d="M71.1,68.9h236.6c9.7,0,17.6,7.9,17.6,17.6v5.4c0,9.7-7.9,17.6-17.6,17.6H71.1c-9.7,0-17.6-7.9-17.6-17.6
				v-5.4C53.5,76.7,61.4,68.9,71.1,68.9z"/>
			<path id="second_body" class="st3" d="M362.1,242L342,178.4c-2.4-11.7-13-16.7-21.7-18.9l-4-18.2c-3.6-24.6-28.2-24.3-28.2-24.3
				H90.7c0,0-24.6-0.2-28.2,24.3l-4,18.2c-8.7,2.1-19.2,7.2-21.7,18.9L16.7,242c0,0-16.3,52.8,35.2,52.8H327
				C378.5,294.7,362.1,242,362.1,242z"/>
			<path id="second_body-2" class="st4" d="M354,232.7l-19.1-62c-2.3-11.4-12.3-16.3-20.6-18.4l-3.8-17.8
				c-3.4-24-26.8-23.7-26.8-23.7H95.8c0,0-23.4-0.2-26.8,23.7l-3.8,17.8c-8.3,2.1-18.3,7-20.6,18.4l-19.1,62
				c0,0-15.5,51.5,33.5,51.5h261.7C369.6,284.1,354,232.7,354,232.7z"/>
			<path class="st5" d="M335.7,206.6l-16.6-48.7c-1.8-7.7-8.1-13.1-18.3-15.9l-3-12.4c-3.3-20.6-25.4-20.8-26.4-20.8h-164
				c-0.9,0-23,0.2-26.4,20.8L78,142c-10.2,2.8-16.5,8.2-18.3,15.9L43,206.6c-0.3,0.9-6.9,21.2,4.5,34c5.8,6.5,15.1,9.8,27.6,9.8
				h228.4c12.5,0,21.8-3.3,27.6-9.8C342.7,227.9,336,207.5,335.7,206.6z M285.7,145.1H96.1v-12.7c2.7-17,21.1-16.8,21.1-16.8h147.6
				c0,0,18.4-0.2,21.1,16.8L285.7,145.1z"/>
			<path class="st2" d="M283.9,133.3c-2.6-16.7-20.7-16.5-20.7-16.5H118.6c0,0-18-0.2-20.7,16.5v12.4h185.9L283.9,133.3z"/>
			<g>
				<path class="st2" d="M332.9,206.1l-16.3-47.7c-1.7-7.5-7.9-12.9-18-15.6l-2.9-12.2c-3.2-20.2-24.9-20.4-25.9-20.4H109
					c-0.9,0-22.6,0.2-25.8,20.4l-2.9,12.2c-10,2.7-16.2,8.1-18,15.6L46,206.1c-0.3,0.8-6.8,20.8,4.4,33.3c5.7,6.3,14.8,9.6,27,9.6
					h224c12.2,0,21.3-3.2,27-9.6C339.7,226.9,333.2,207,332.9,206.1z M283.8,145.7H97.9v-12.4c2.6-16.7,20.7-16.5,20.7-16.5h144.7
					c0,0,18-0.2,20.7,16.5L283.8,145.7z"/>
				<path class="st0" d="M330,206.8L313.6,159c-2-8.8-10.6-12.6-17.6-14.2l-3.3-13.7c-2.9-18.5-23-18.3-23-18.3H109.1
					c0,0-20-0.2-23,18.3l-3.3,13.7c-7.1,1.6-15.6,5.4-17.6,14.2l-16.4,47.8c0,0-13.3,39.7,28.6,39.7h224
					C343.3,246.5,330,206.8,330,206.8z M283.8,145.7H97.9v-12.4c2.6-16.7,20.7-16.5,20.7-16.5h144.7c0,0,18-0.2,20.7,16.5
					L283.8,145.7z"/>
			</g>
			<ellipse class="st6" cx="98.9" cy="174.3" rx="26.3" ry="15.6"/>
			<path class="st0" d="M98.9,192.2c-16,0-28.6-7.8-28.6-17.9s12.5-17.9,28.6-17.9s28.6,7.8,28.6,17.9S114.9,192.2,98.9,192.2z"/>
			<ellipse class="st7" cx="98.9" cy="174.3" rx="26.3" ry="15.6"/>
			<path class="st7" d="M98.9,187.6c-14.7,0-26.3-6.8-26.3-15.6s11.5-15.6,26.3-15.6s26.3,6.8,26.3,15.6S113.6,187.6,98.9,187.6z"/>
			<ellipse class="st8" cx="98.9" cy="170.9" rx="24" ry="13.3"/>
			<ellipse class="st6" cx="160.1" cy="174.3" rx="26.3" ry="15.6"/>
			<path class="st0" d="M160.1,192.2c-16,0-28.6-7.8-28.6-17.9s12.6-17.9,28.6-17.9s28.6,7.8,28.6,17.9S176.2,192.2,160.1,192.2z"/>
			<ellipse class="st7" cx="160.1" cy="174.3" rx="26.3" ry="15.6"/>
			<path class="st7" d="M160.1,187.6c-14.7,0-26.3-6.8-26.3-15.6s11.5-15.6,26.3-15.6s26.3,6.8,26.3,15.6S174.9,187.6,160.1,187.6z"
				/>
			<ellipse class="st8" cx="160.1" cy="170.9" rx="24" ry="13.3"/>
			<ellipse class="st6" cx="221.4" cy="174.3" rx="26.3" ry="15.6"/>
			<path class="st0" d="M221.4,192.2c-16,0-28.6-7.8-28.6-17.9s12.5-17.9,28.6-17.9s28.6,7.8,28.6,17.9S237.4,192.2,221.4,192.2z"/>
			<ellipse class="st7" cx="221.4" cy="174.3" rx="26.3" ry="15.6"/>
			<path class="st7" d="M221.4,187.6c-14.7,0-26.3-6.8-26.3-15.6s11.5-15.6,26.3-15.6s26.3,6.8,26.3,15.6S236.1,187.6,221.4,187.6z"
				/>
			<ellipse class="st8" cx="221.4" cy="170.9" rx="24" ry="13.3"/>
			<ellipse class="st6" cx="282.6" cy="174.3" rx="26.3" ry="15.6"/>
			<path class="st0" d="M282.6,192.2c-16,0-28.6-7.8-28.6-17.9s12.5-17.9,28.6-17.9s28.6,7.8,28.6,17.9S298.7,192.2,282.6,192.2z"/>
			<ellipse class="st7" cx="282.6" cy="174.3" rx="26.3" ry="15.6"/>
			<path class="st7" d="M282.6,187.6c-14.7,0-26.3-6.8-26.3-15.6s11.5-15.6,26.3-15.6s26.3,6.8,26.3,15.6S297.4,187.6,282.6,187.6z"
				/>
			<ellipse class="st8" cx="282.6" cy="170.9" rx="24" ry="13.3"/>
			<ellipse class="st6" cx="128.2" cy="196.6" rx="26.3" ry="15.6"/>
			<path class="st0" d="M128.2,214.5c-16,0-28.6-7.8-28.6-17.9s12.6-17.9,28.6-17.9s28.6,7.8,28.6,17.9S144.2,214.5,128.2,214.5z"/>
			<ellipse class="st7" cx="128.2" cy="196.6" rx="26.3" ry="15.6"/>
			<path class="st7" d="M128.2,209.9c-14.7,0-26.3-6.8-26.3-15.6s11.5-15.6,26.3-15.6s26.3,6.8,26.3,15.6S142.9,209.9,128.2,209.9z"
				/>
			<ellipse class="st8" cx="128.2" cy="193.2" rx="24" ry="13.3"/>
			<ellipse class="st6" cx="189.4" cy="196.6" rx="26.3" ry="15.6"/>
			<path class="st0" d="M189.4,214.5c-16,0-28.6-7.8-28.6-17.9s12.5-17.9,28.6-17.9s28.6,7.8,28.6,17.9S205.5,214.5,189.4,214.5z"/>
			<ellipse class="st7" cx="189.4" cy="196.6" rx="26.3" ry="15.6"/>
			<path class="st7" d="M189.4,209.9c-14.7,0-26.3-6.8-26.3-15.6s11.5-15.6,26.3-15.6s26.3,6.8,26.3,15.6S204.2,209.9,189.4,209.9z"
				/>
			<ellipse class="st8" cx="189.4" cy="193.2" rx="24" ry="13.3"/>
			<ellipse class="st6" cx="250.7" cy="196.6" rx="26.3" ry="15.6"/>
			<path class="st0" d="M250.7,214.5c-16,0-28.6-7.8-28.6-17.9s12.6-17.9,28.6-17.9s28.6,7.8,28.6,17.9S266.7,214.5,250.7,214.5z"/>
			<ellipse class="st7" cx="250.7" cy="196.6" rx="26.3" ry="15.6"/>
			<path class="st7" d="M250.7,209.9c-14.7,0-26.3-6.8-26.3-15.6s11.5-15.6,26.3-15.6s26.3,6.8,26.3,15.6S265.4,209.9,250.7,209.9z"
				/>
			<ellipse class="st8" cx="250.7" cy="193.2" rx="24" ry="13.3"/>
			<ellipse class="st6" cx="96.2" cy="220.8" rx="26.3" ry="15.6"/>
			<path class="st0" d="M96.2,238.7c-16,0-28.6-7.8-28.6-17.9s12.5-17.9,28.6-17.9s28.6,7.8,28.6,17.9S112.3,238.7,96.2,238.7z"/>
			<ellipse class="st7" cx="96.2" cy="220.8" rx="26.3" ry="15.6"/>
			<path class="st7" d="M96.2,234.1c-14.7,0-26.3-6.8-26.3-15.6s11.5-15.6,26.3-15.6s26.3,6.8,26.3,15.6S111,234.1,96.2,234.1z"/>
			<ellipse class="st8" cx="96.2" cy="217.4" rx="24" ry="13.3"/>
			<ellipse class="st6" cx="157.5" cy="220.8" rx="26.3" ry="15.6"/>
			<path class="st0" d="M157.5,238.7c-16,0-28.6-7.8-28.6-17.9s12.5-17.9,28.6-17.9s28.6,7.8,28.6,17.9S173.5,238.7,157.5,238.7z"/>
			<ellipse class="st7" cx="157.5" cy="220.8" rx="26.3" ry="15.6"/>
			<path class="st7" d="M157.5,234.1c-14.7,0-26.3-6.8-26.3-15.6s11.5-15.6,26.3-15.6s26.3,6.8,26.3,15.6S172.2,234.1,157.5,234.1z"
				/>
			<ellipse class="st8" cx="157.5" cy="217.4" rx="24" ry="13.3"/>
			<ellipse class="st6" cx="218.7" cy="220.8" rx="26.3" ry="15.6"/>
			<path class="st0" d="M218.7,238.7c-16,0-28.6-7.8-28.6-17.9s12.6-17.9,28.6-17.9s28.6,7.8,28.6,17.9S234.8,238.7,218.7,238.7z"/>
			<ellipse class="st7" cx="218.7" cy="220.8" rx="26.3" ry="15.6"/>
			<path class="st7" d="M218.7,234.1c-14.7,0-26.3-6.8-26.3-15.6s11.5-15.6,26.3-15.6s26.3,6.8,26.3,15.6S233.5,234.1,218.7,234.1z"
				/>
			<ellipse class="st8" cx="218.7" cy="217.4" rx="24" ry="13.3"/>
			<ellipse class="st6" cx="280" cy="220.8" rx="26.3" ry="15.6"/>
			<path class="st0" d="M280,238.7c-16,0-28.6-7.8-28.6-17.9s12.5-17.9,28.6-17.9s28.6,7.8,28.6,17.9S296,238.7,280,238.7z"/>
			<ellipse class="st7" cx="280" cy="220.8" rx="26.3" ry="15.6"/>
			<path class="st7" d="M280,234.1c-14.7,0-26.3-6.8-26.3-15.6s11.5-15.6,26.3-15.6s26.3,6.8,26.3,15.6S294.7,234.1,280,234.1z"/>
			<ellipse class="st8" cx="280" cy="217.4" rx="24" ry="13.3"/>
			<path class="st4" d="M370,268.6c0,0-2,28.2-25,31.6H33.9c-23-3.4-25-31.6-25-31.6c0,0.2-7,38.6,25.2,38.5h310.7
				C377,307.2,370,268.8,370,268.6z"/>
			<path class="st9" d="M350,240.8c0,0-1.8,27-22.2,30.2H52.2c-0.9,0-1.8-0.1-2.7-0.3c-19-4.3-20.7-30-20.7-30
				c0,0.2-6.2,37,22.4,36.9h276.3C356.2,277.8,350,241,350,240.8z"/>
			<g>
				<path class="st0" d="M272.5,0H107.9C97.5,0,89.2,8,89.2,17.9v111.2c0,9.9,8.4,17.9,18.7,17.9h164.6c10.3,0,18.7-8,18.7-17.9
					V17.9C291.2,8,282.8,0,272.5,0z"/>
				<g id="Layer_2_2_">
					<g id="Layer_21">
						<g>
							<path class="st1" d="M111,3.8h158.2c9.9,0,17.9,7.7,17.9,17.1v105c0,9.5-8,17.1-17.9,17.1H111c-9.9,0-17.9-7.7-17.9-17.1V21
								C93.1,11.5,101.1,3.8,111,3.8z"/>
							<path class="st3" d="M190.5,130.4l91.4-56.8L190,16.7L98.3,73.7L190.5,130.4z"/>
							<path class="st4" d="M230.4,73.5c0,20.4-17.3,36.9-38.6,36.9s-38.6-16.6-38.6-37s17.3-36.9,38.6-36.9c0,0,0,0,0,0
								C213.1,36.6,230.4,53.1,230.4,73.5z"/>
							<path class="st10" d="M179,95.7l-1.2-0.7l-1.2,0.6l0.3-1.3l-1-1l1.4-0.1l0.7-1.2l0.6,1.2l1.3,0.2l-1,0.9 M204.9,101.9
								l-1.2-0.7l-1.2,0.6l0.2-1.3l-0.9-1l1.4-0.1l0.6-1.2l0.6,1.2l1.3,0.2l-1,0.9 M193.7,91.9l-1-0.6l-1.1,0.5l0.2-1.1l-0.8-0.8
								l1.2-0.1l0.5-1l0.5,1.1l1.2,0.2l-0.9,0.8 M219.9,88.3l-1-0.6l-1.1,0.5l0.2-1.1l-0.8-0.8l1.2-0.1l0.5-1l0.5,1l1.2,0.2
								l-0.9,0.8 M193.3,80.8l-1.2-0.6l-1.2,0.6l0.2-1.3l-0.9-1l1.4-0.1l0.6-1.2l0.6,1.2l1.3,0.2l-1,0.9 M161.3,69.3l-1.2-0.6
								l-1.2,0.6l0.3-1.3l-1-1l1.4-0.1l0.6-1.2l0.6,1.2l1.3,0.2l-1,0.9 M165.2,84.6l-1.2-0.7l-1.2,0.6l0.3-1.3l-1-1l1.4-0.2l0.6-1.2
								l0.6,1.2l1.3,0.2l-1,0.9 M205,63.7l-1.1-0.6l-1.1,0.5l0.2-1.2l-0.8-0.9l1.2-0.1l0.6-1l0.5,1.1l1.2,0.2l-0.9,0.8 M202.8,73.6
								l-0.8-0.5l-0.9,0.4l0.2-0.9l-0.7-0.7l1-0.1l0.5-0.8l0.4,0.9l0.9,0.1l-0.7,0.6 M159.6,87.3l-0.8-0.4l-0.8,0.4l0.2-0.9
								l-0.6-0.6l0.9-0.1l0.4-0.8l0.4,0.8l0.9,0.2l-0.7,0.6 M220.1,90.9l-0.7-0.3l-0.7,0.3l0.2-0.7l-0.5-0.5l0.7-0.1l0.4-0.6
								l0.3,0.6l0.8,0.1l-0.6,0.4"/>
							<path class="st10" d="M159.6,87.3l-0.8-0.4l-0.8,0.4l0.2-0.9l-0.6-0.6l0.9-0.1l0.4-0.8l0.4,0.8l0.9,0.2l-0.7,0.6"/>
							<path class="st10" d="M159.6,87.3l-0.8-0.4l-0.8,0.4l0.2-0.9l-0.6-0.6l0.9-0.1l0.4-0.8l0.4,0.8l0.9,0.2l-0.7,0.6 M172.2,87.3
								l-0.8-0.4l-0.8,0.4l0.2-0.9l-0.6-0.6l0.9-0.1l0.4-0.8l0.4,0.8l0.9,0.1l-0.7,0.6 M170.7,91.4l-0.8-0.4l-0.8,0.4l0.2-0.9
								l-0.6-0.7l0.9-0.1l0.4-0.8l0.4,0.8l0.9,0.2l-0.7,0.6 M197,84l-0.8-0.5l-0.8,0.4l0.2-0.9l-0.6-0.7l0.9-0.1l0.4-0.8l0.4,0.8
								l0.9,0.1l-0.7,0.6 M189.3,84l-0.8-0.4l-0.8,0.4l0.2-0.9l-0.6-0.7l0.9-0.1l0.4-0.8l0.4,0.8l0.9,0.1l-0.7,0.6 M168.3,81.5
								l-0.5-0.3l-0.5,0.2l0.1-0.6l-0.4-0.4l0.6-0.1l0.2-0.5l0.2,0.5l0.6,0.1l-0.4,0.4 M219.1,94l-0.8-0.4l-0.8,0.4l0.2-0.9
								l-0.6-0.7l0.9-0.1l0.4-0.8l0.4,0.8l0.9,0.2l-0.7,0.6 M212.7,94.9l-0.7-0.4l-0.7,0.3l0.2-0.8l-0.5-0.5l0.8-0.1l0.4-0.7
								l0.3,0.7l0.8,0.1l-0.6,0.5 M215.7,94.8l-0.6-0.3l-0.6,0.3l0.1-0.7l-0.5-0.5l0.7-0.1l0.3-0.6l0.3,0.6l0.7,0.1l-0.5,0.5
								 M224.4,87.5l-0.6-0.3l-0.6,0.3l0.2-0.7l-0.5-0.5l0.7-0.1l0.3-0.6l0.3,0.6l0.6,0.1l-0.5,0.5 M212.6,99l-0.8-0.4l-0.8,0.3
								l0.2-0.8l-0.6-0.6l0.9-0.1l0.4-0.7l0.4,0.8l0.9,0.1l-0.7,0.6 M212.7,102.3l-0.7-0.4l-0.7,0.4l0.2-0.8l-0.6-0.6l0.8-0.1
								l0.4-0.7l0.3,0.8l0.8,0.1l-0.6,0.6 M206.8,94.8l-0.6-0.3l-0.6,0.3l0.1-0.6l-0.5-0.5l0.7-0.1l0.3-0.6l0.3,0.6l0.7,0.1
								l-0.5,0.5 M201.3,94.8l-0.6-0.3l-0.6,0.3l0.2-0.6l-0.5-0.5l0.7-0.1l0.3-0.6l0.3,0.6l0.6,0.1l-0.5,0.5 M192,87l-0.6-0.3
								l-0.6,0.3l0.2-0.7l-0.5-0.5l0.7-0.1l0.3-0.6l0.3,0.6l0.7,0.1l-0.5,0.4 M193,102.9l-0.5-0.3l-0.5,0.3l0.1-0.6l-0.4-0.4
								l0.6-0.1l0.3-0.5l0.2,0.5l0.6,0.1l-0.4,0.4 M179,77.2l-1.2-0.7l-1.2,0.6l0.3-1.3l-1-1l1.4-0.2l0.7-1.2l0.6,1.2l1.3,0.2
								l-1,0.9"/>
							<path class="st5" d="M227.8,86.8c0.8-1.9,1.3-3.8,1.8-5.7C209,63.8,186.1,55,157.2,56.8c-1,1.9-1.9,4-2.6,6.1
								C181.5,60.2,208.2,69,227.8,86.8L227.8,86.8z"/>
							<path class="st9" d="M218.6,77.1l0.7,0.4c-0.1,0.2-0.1,0.4-0.1,0.6c0.1,0.2,0.2,0.4,0.4,0.5c0.2,0.1,0.4,0.2,0.6,0.2
								c0.2,0,0.3-0.1,0.4-0.2c0.1-0.1,0.1-0.2,0.1-0.3c0-0.1-0.1-0.2-0.2-0.3c-0.1-0.2-0.3-0.4-0.5-0.5c-0.2-0.2-0.4-0.5-0.5-0.9
								c-0.2-0.5,0.1-1.1,0.6-1.3c0.2-0.1,0.5-0.1,0.7-0.1c0.3,0.1,0.6,0.2,0.8,0.3c0.4,0.2,0.7,0.5,0.8,0.9c0.1,0.3,0,0.7-0.2,1
								l-0.7-0.4c0.1-0.1,0.1-0.3,0.1-0.5c-0.1-0.2-0.2-0.3-0.4-0.4c-0.2-0.1-0.3-0.2-0.5-0.2c-0.1,0-0.2,0.1-0.3,0.1
								c-0.1,0.1-0.1,0.2,0,0.3c0.1,0.2,0.3,0.5,0.5,0.6c0.2,0.2,0.4,0.5,0.6,0.7c0.2,0.4,0.2,0.9-0.1,1.2c-0.1,0.2-0.3,0.3-0.6,0.4
								c-0.2,0.1-0.5,0.1-0.7,0.1c-0.3-0.1-0.6-0.2-0.8-0.4c-0.4-0.2-0.7-0.6-0.8-1C218.3,77.9,218.3,77.5,218.6,77.1L218.6,77.1z
								 M215.1,74.9l0.8,0.4c-0.1,0.2-0.1,0.4-0.1,0.6c0.1,0.2,0.2,0.4,0.4,0.5c0.2,0.1,0.4,0.2,0.6,0.2c0.2,0,0.3-0.1,0.4-0.2
								c0-0.1,0.1-0.2,0.1-0.2c0-0.1-0.1-0.2-0.2-0.3c-0.2-0.2-0.3-0.4-0.5-0.5c-0.3-0.2-0.5-0.5-0.6-0.8c-0.1-0.3-0.1-0.6,0.1-0.9
								c0.1-0.2,0.3-0.3,0.5-0.4c0.2-0.1,0.4-0.1,0.7-0.1c0.3,0,0.5,0.1,0.8,0.3c0.4,0.2,0.7,0.5,0.8,0.9c0.1,0.3,0.1,0.7-0.1,1
								l-0.8-0.4c0.1-0.1,0.1-0.3,0.1-0.5c-0.1-0.2-0.2-0.3-0.4-0.4c-0.2-0.1-0.4-0.2-0.6-0.2c-0.1,0-0.2,0.1-0.2,0.1
								c-0.1,0.1-0.1,0.2,0,0.3c0.1,0.2,0.3,0.5,0.5,0.6c0.2,0.2,0.4,0.4,0.6,0.7c0.2,0.4,0.2,0.8,0,1.2c-0.1,0.2-0.3,0.4-0.5,0.5
								c-0.2,0.1-0.5,0.1-0.7,0.1c-0.3-0.1-0.6-0.2-0.9-0.3c-0.4-0.2-0.7-0.5-0.8-0.9C214.8,75.7,214.9,75.3,215.1,74.9L215.1,74.9z
								 M210.8,73.8l2.2-3.5l2.7,1.6l-0.4,0.6l-1.9-1.2l-0.5,0.8l1.8,1.1l-0.4,0.6l-1.8-1.1l-0.6,1l2,1.2l-0.4,0.6L210.8,73.8
								L210.8,73.8z M204.5,68.9l0.3-0.6l1.6,0.8l-0.8,1.5c-0.3,0.1-0.6,0.1-0.9,0.1c-0.3,0-0.7-0.1-1-0.3c-0.4-0.2-0.7-0.4-0.9-0.8
								c-0.2-0.3-0.3-0.7-0.3-1c0-0.4,0.1-0.7,0.3-1.1c0.2-0.3,0.5-0.6,0.8-0.9c0.6-0.4,1.4-0.4,2.1,0c0.4,0.1,0.7,0.4,0.9,0.8
								c0.2,0.3,0.2,0.7,0.1,1l-0.8-0.2c0.1-0.2,0-0.4-0.1-0.6c-0.1-0.2-0.3-0.3-0.5-0.4c-0.3-0.2-0.6-0.2-0.9-0.1
								c-0.4,0.1-0.6,0.4-0.8,0.8c-0.2,0.3-0.3,0.7-0.2,1.1c0.1,0.3,0.3,0.6,0.6,0.7c0.2,0.1,0.3,0.1,0.5,0.1c0.2,0,0.4,0,0.5,0
								l0.2-0.5L204.5,68.9L204.5,68.9z M177.2,62.4l0.6-4.1l1.3,0.2l0.3,2.8l1.2-2.6l1.3,0.2l-0.6,4l-0.8-0.1l0.5-3.2l-1.3,3
								l-0.8-0.1l-0.3-3.3l-0.5,3.2L177.2,62.4L177.2,62.4z M172.9,61.9l0.4-4.1l3.1,0.3l-0.1,0.7l-2.3-0.2l-0.1,0.9l2.1,0.2
								l-0.1,0.7l-2.1-0.2l-0.1,1.1l2.4,0.2l-0.1,0.7C176.1,62.2,172.9,61.9,172.9,61.9z"/>
							<g>
								<path class="st9" d="M158.7,59.4c0-0.4,0.1-0.7,0.2-1c0.1-0.2,0.2-0.4,0.4-0.6c0.2-0.1,0.3-0.3,0.5-0.3
									c0.3-0.1,0.6-0.1,0.9-0.1c0.6,0,1.1,0.2,1.5,0.6c0.4,0.4,0.6,1,0.5,1.6c0,0.6-0.2,1.1-0.6,1.5c-0.4,0.4-1,0.5-1.5,0.5
									c-0.5,0-1.1-0.2-1.5-0.6C158.9,60.5,158.7,60,158.7,59.4z"/>
								<path class="st11" d="M159.6,59.4c0,0.4,0.1,0.7,0.3,1c0.2,0.2,0.5,0.4,0.8,0.4c0.3,0,0.6-0.1,0.8-0.3
									c0.2-0.3,0.4-0.7,0.3-1.1c0-0.4-0.1-0.7-0.3-1c-0.2-0.2-0.5-0.4-0.8-0.4c-0.3,0-0.6,0.1-0.8,0.3
									C159.7,58.7,159.6,59,159.6,59.4L159.6,59.4z"/>
							</g>
							<g>
								<path class="st9" d="M163.7,61.6l0.1-4.1h1.8c0.3,0,0.7,0,1,0.1c0.2,0.1,0.4,0.2,0.5,0.4c0.1,0.2,0.2,0.4,0.2,0.7
									c0,0.3-0.1,0.5-0.3,0.7c-0.2,0.2-0.5,0.3-0.8,0.3l0.4,0.3c0.2,0.2,0.3,0.4,0.4,0.7l0.5,0.8h-1l-0.6-0.9l-0.4-0.6
									c-0.1-0.1-0.2-0.1-0.3-0.2c-0.1,0-0.3-0.1-0.4-0.1h-0.2v1.7L163.7,61.6z"/>
								<path class="st5" d="M164.6,59.3h0.6c0.3,0,0.5-0.1,0.8-0.1c0.1,0,0.2-0.1,0.2-0.1c0.1-0.1,0.1-0.2,0.1-0.3
									c0-0.2,0-0.3-0.1-0.3c-0.1-0.1-0.2-0.2-0.3-0.2h-0.6l-0.7,0C164.6,58.1,164.6,59.3,164.6,59.3z"/>
							</g>
							<g>
								<path class="st9" d="M168.6,57.6l1.6,0.1c0.3,0,0.5,0,0.8,0.1c0.2,0.1,0.4,0.2,0.6,0.4c0.2,0.2,0.3,0.4,0.4,0.7
									c0.1,0.3,0.1,0.6,0.1,1c0,0.3-0.1,0.6-0.2,0.9c-0.1,0.3-0.3,0.5-0.5,0.7c-0.2,0.1-0.4,0.2-0.6,0.3c-0.2,0.1-0.5,0.1-0.8,0.1
									l-1.6-0.1L168.6,57.6L168.6,57.6z"/>
								<path class="st5" d="M169.4,58.4l-0.1,2.6h1.1c0.1,0,0.3,0,0.4-0.1c0.1-0.1,0.2-0.2,0.2-0.4c0.1-0.2,0.1-0.5,0.1-0.7l0-0.7
									c0-0.1-0.1-0.3-0.2-0.4c-0.1-0.1-0.2-0.2-0.4-0.2c-0.2,0-0.4-0.1-0.7-0.1L169.4,58.4z"/>
							</g>
							<g>
								<path class="st9" d="M189.4,64.9l1-3.9l1.3,0.3l1,0.3c0.2,0.1,0.4,0.3,0.5,0.6c0.1,0.3,0.1,0.5,0.1,0.8
									c0,0.2-0.1,0.4-0.3,0.6c-0.2,0.3-0.6,0.4-0.9,0.4c-0.3,0-0.6-0.1-0.9-0.1l-0.5-0.1l-0.4,1.5L189.4,64.9L189.4,64.9z"/>
								<path class="st5" d="M191,61.9l-0.2,1.1l0.5,0.1c0.2,0.1,0.4,0.1,0.7,0.1c0.2,0,0.4-0.2,0.5-0.4c0-0.1,0-0.3-0.1-0.4
									c-0.1-0.1-0.2-0.2-0.3-0.3l-0.6-0.1L191,61.9L191,61.9z"/>
							</g>
							<g>
								<path class="st9" d="M193.3,66l1.4-3.8l1.7,0.6c0.3,0.1,0.6,0.2,0.9,0.4c0.2,0.1,0.3,0.3,0.3,0.5c0,0.2,0,0.4,0,0.7
									c-0.1,0.3-0.3,0.5-0.5,0.6c-0.3,0.1-0.6,0.2-0.9,0.1c0.1,0.1,0.2,0.3,0.3,0.5l0.2,0.8l0.2,0.9l-0.9-0.3l-0.3-1
									c-0.1-0.2-0.1-0.5-0.2-0.7c0-0.1-0.1-0.2-0.2-0.2c-0.1-0.1-0.2-0.2-0.4-0.2l-0.2-0.1l-0.6,1.6L193.3,66L193.3,66z"/>
								<path class="st5" d="M195,64.2l0.6,0.2c0.2,0.1,0.5,0.2,0.8,0.2c0.1,0,0.2,0,0.3-0.1c0.1-0.1,0.2-0.2,0.2-0.3
									c0.1-0.1,0.1-0.2,0-0.3c0-0.1-0.1-0.2-0.2-0.3l-0.6-0.2l-0.6-0.2L195,64.2L195,64.2z"/>
							</g>
							<g>
								<path class="st9" d="M198.3,65.9c0.1-0.3,0.3-0.7,0.5-0.9c0.2-0.2,0.3-0.3,0.5-0.4c0.2-0.1,0.4-0.2,0.6-0.2
									c0.3,0,0.6,0,0.9,0.1c0.5,0.1,1,0.5,1.3,1c0.2,0.5,0.3,1.1,0.1,1.7c-0.2,0.5-0.5,1-1,1.3c-0.5,0.3-1.1,0.3-1.6,0.1
									c-0.5-0.1-1-0.5-1.3-1C198.1,67,198.1,66.4,198.3,65.9L198.3,65.9z"/>
								<path class="st5" d="M199.1,66.1c-0.1,0.4-0.1,0.7,0,1.1c0.1,0.3,0.4,0.5,0.7,0.6c0.3,0.1,0.6,0,0.9-0.1
									c0.3-0.2,0.6-0.5,0.6-0.9c0.2-0.3,0.2-0.7,0-1.1c-0.1-0.3-0.4-0.5-0.7-0.6c-0.3-0.1-0.6-0.1-0.9,0.1
									C199.5,65.4,199.2,65.7,199.1,66.1z"/>
							</g>
							<g>
								<path class="st9" d="M206.6,71.5l1.9-3.6l1.6,0.8c0.3,0.1,0.6,0.3,0.8,0.6c0.2,0.1,0.2,0.3,0.2,0.6c0,0.2,0,0.4-0.1,0.6
									c-0.1,0.3-0.3,0.5-0.6,0.6c-0.3,0.1-0.6,0-0.9-0.1c0.1,0.2,0.2,0.3,0.2,0.5c0.1,0.3,0.1,0.5,0.1,0.8l0.1,0.9l-0.9-0.4
									l-0.1-1.1c0-0.2,0-0.5-0.1-0.7c0-0.1-0.1-0.2-0.2-0.3l-0.4-0.2l-0.2-0.1l-0.8,1.5L206.6,71.5L206.6,71.5z"/>
								<path class="st5" d="M208.4,69.8l0.6,0.3c0.2,0.1,0.5,0.2,0.7,0.3c0.1,0,0.2,0,0.3-0.1c0.1,0,0.2-0.1,0.2-0.2
									c0.1-0.1,0.1-0.2,0.1-0.3c0-0.1-0.1-0.2-0.2-0.3c-0.2-0.1-0.4-0.2-0.5-0.3l-0.6-0.3L208.4,69.8z"/>
							</g>
							<g>
								<path class="st9" d="M222.3,79c0.2-0.3,0.5-0.6,0.8-0.8c0.2-0.1,0.4-0.2,0.7-0.3c0.2,0,0.4,0,0.7,0c0.3,0.1,0.6,0.2,0.8,0.3
									c0.5,0.3,0.8,0.7,0.9,1.3c0.1,0.6-0.1,1.1-0.4,1.6c-0.3,0.5-0.8,0.8-1.4,1c-0.5,0.1-1.1,0-1.6-0.3c-0.5-0.3-0.8-0.7-0.9-1.3
									C221.8,80,221.9,79.4,222.3,79z"/>
								<path class="st5" d="M223,79.6c-0.3,0.3-0.4,0.7-0.3,1c0,0.3,0.2,0.6,0.5,0.7c0.3,0.2,0.6,0.3,0.9,0.2
									c0.4-0.1,0.7-0.4,0.9-0.7c0.2-0.3,0.4-0.7,0.3-1c0-0.3-0.2-0.6-0.5-0.8c-0.3-0.2-0.6-0.2-0.9-0.1
									C223.5,79,223.2,79.2,223,79.6L223,79.6z"/>
							</g>
							<path class="st9" d="M184.6,63.2l0.7-2.8l2.2,0.5l-0.1,0.5l-1.6-0.3l-0.2,0.6l1.5,0.3l-0.1,0.5l-1.5-0.3l-0.2,0.8l1.7,0.4
								l-0.1,0.5L184.6,63.2L184.6,63.2z"/>
						</g>
					</g>
				</g>
			</g>
			<g>
				<g>
					<defs>
						<rect id="SVGID_1_" x="141.1" y="81.6" width="101.9" height="65.2"/>
					</defs>
					<clipPath id="SVGID_2_">
						<use xlink:href="#SVGID_1_"  style="overflow:visible;"/>
					</clipPath>
					<g class="st12">
						<path class="st0" d="M191.7,107.6c-28.4,0-51.4,23-51.4,51.4s23,51.4,51.4,51.4s51.4-23,51.4-51.4l0,0
							C243,130.6,220.1,107.6,191.7,107.6z M191.7,194.9c-19.9,0-35.9-16.1-35.9-35.9c0-19.9,16.1-35.9,35.9-35.9
							c19.9,0,35.9,16.1,35.9,35.9C227.6,178.9,211.5,194.9,191.7,194.9L191.7,194.9z"/>
						<path class="st2" d="M191.7,112c-25.5,0-46.2,20.7-46.2,46.2s20.7,46.2,46.2,46.2s46.2-20.7,46.2-46.2l0,0
							C237.9,132.7,217.2,112,191.7,112z M191.7,190.5c-17.9,0-32.4-14.5-32.4-32.4s14.5-32.4,32.4-32.4s32.4,14.5,32.4,32.4l0,0
							C224,176.1,209.6,190.5,191.7,190.5L191.7,190.5z"/>
						<polygon class="st0" points="191.7,132.2 180,152.4 203.4,152.4 						"/>
						<polygon class="st2" points="191.7,138.7 180,158.9 203.4,158.9 						"/>
					</g>
				</g>
			</g>
		</g>
	</g>
</g>
</svg>
