<?xml version="1.0" encoding="utf-8"?>
<!-- Generator: Adobe Illustrator 25.0.1, SVG Export Plug-In . SVG Version: 6.00 Build 0)  -->
<svg version="1.1" id="Layer_1" xmlns="http://www.w3.org/2000/svg" xmlns:xlink="http://www.w3.org/1999/xlink" x="0px" y="0px"
	 viewBox="0 0 800 250" style="enable-background:new 0 0 800 250;" xml:space="preserve">
<style type="text/css">
	.st0{fill:#CDF5F9;}
	.st1{fill:#FFFFFF;}
	.st2{fill:#444444;}
	.st3{fill:#0F5E0F;}
	.st4{fill:#094909;}
	.st5{fill:#09890C;}
	.st6{fill:#0C440C;}
	.st7{fill:#3B3B3B;}
	.st8{display:none;}
	.st9{display:inline;opacity:0.47;fill:url(#SVGID_1_);enable-background:new    ;}
	.st10{fill:#FF0000;}
	.st11{fill:#2D2D2D;}
	.st12{fill:#E0B861;}
	.st13{clip-path:url(#SVGID_3_);fill:#F7DA9F;}
	.st14{clip-path:url(#SVGID_5_);}
	.st15{fill:#91BCC6;}
	.st16{fill:#FFF3E1;}
	.st17{fill:#80969B;}
	.st18{clip-path:url(#SVGID_7_);}
	.st19{fill:#505A5B;}
	.st20{clip-path:url(#SVGID_9_);}
	.st21{fill:#5B3D00;}
	.st22{clip-path:url(#SVGID_11_);}
	.st23{clip-path:url(#SVGID_13_);}
	.st24{clip-path:url(#SVGID_15_);}
	.st25{opacity:0.15;enable-background:new    ;}
	.st26{fill:url(#SVGID_16_);}
	.st27{fill:url(#SVGID_17_);}
	.st28{fill:url(#SVGID_18_);}
	.st29{fill:#32323F;}
	.st30{fill:#474757;}
	.st31{fill:#DDDDDD;}
	.st32{fill:#BAC0D8;}
	.st33{fill:#ACAFBC;}
	.st34{fill:url(#SVGID_19_);}
	.st35{fill:url(#SVGID_20_);}
	.st36{fill:url(#SVGID_21_);}
	.st37{fill:url(#SVGID_22_);}
	.st38{fill:url(#SVGID_23_);}
	.st39{fill:url(#SVGID_24_);}
	.st40{fill:url(#SVGID_25_);}
	.st41{fill:url(#SVGID_26_);}
	.st42{fill:url(#SVGID_27_);}
</style>
<g>
	<g id="Layer_1_1_">
		<rect class="st0" width="800" height="250"/>
	</g>
	<g id="Layer_3">
		<g>
			<path class="st1" d="M713.8,64c-3-16.5-17.4-28.9-34.7-28.9c-4.8,0-9.4,1-13.6,2.7C658.7,28.2,647.6,22,635,22
				c-12.7,0-23.9,6.3-30.6,16c-4.7-3.3-10.3-5.3-16.5-5.3c-15.7,0-28.5,12.7-28.5,28.5c0,0.9,0,1.9,0.1,2.8H713.8z"/>
		</g>
		<g>
			<path class="st1" d="M414.4,94c2.2-12.1,12.8-21.4,25.6-21.4c3.6,0,7,0.7,10,2c5-7.1,13.2-11.7,22.5-11.7
				c9.4,0,17.6,4.7,22.6,11.8c3.4-2.4,7.6-3.9,12.2-3.9c11.6,0,21,9.4,21,21c0,0.7,0,1.4-0.1,2.1H414.4V94z"/>
		</g>
		<g>
			<path class="st1" d="M92.3,62.7c-6.2,0-11.8,2-16.5,5.3c-6.7-9.7-17.9-16-30.6-16c-12.6,0-23.7,6.2-30.5,15.8
				c-4.2-1.8-8.8-2.7-13.6-2.7c-0.4,0-0.7,0-1.1,0V94h120.6c0.1-0.9,0.1-1.9,0.1-2.8C120.8,75.5,108,62.7,92.3,62.7z"/>
		</g>
	</g>
	<path class="st2" d="M565.5,231.1L565.5,231.1c-2.9,0-5.2-2.3-5.2-5.2V31.3c0-2.9,2.3-5.2,5.2-5.2l0,0c2.9,0,5.2,2.3,5.2,5.2v194.6
		C570.7,228.8,568.4,231.1,565.5,231.1z"/>
	<g>
		<g>
			<path class="st3" d="M306,155.5c-6.4,8.9-15.2,16.4-25.9,21.3c-21.5,9.8-45.4,7-63.6-5.3c-8.4,13.6-13.7,29.4-14.8,46.3h-0.2V250
				h203.3v-32.2h-0.2c-1.4-20.6-8.9-39.5-20.7-54.9c-2.4,1.5-4.9,2.8-7.5,4C352,178,324.4,172.6,306,155.5z"/>
			<path class="st4" d="M303.1,123c-36.6,0-68.7,19.4-86.6,48.5c18.2,12.3,42.2,15.1,63.6,5.3c10.7-4.9,19.5-12.3,25.9-21.3
				c18.4,17.1,46,22.5,70.3,11.4c2.6-1.2,5.1-2.5,7.5-4C365.2,138.6,336,123,303.1,123z"/>
		</g>
		<g>
			<path class="st5" d="M254.6,245.9c-1.9-28-13.6-46.7-33.6-63.9c-4.7,1.8-9.8,2.8-15.2,2.8c-10.6,0-20.2-3.9-27.7-10.3
				c-4.5,5.1-9.9,9.3-16,12.4c-6.2,29-31.9,50.8-62.8,50.8c-15.2,0-29.1-5.3-40.1-14c-3.3,9-5.5,6.9-6.2,16.9l0,0l0,0h203.3l1.2,1.8
				l-0.5,3.8L254.6,245.9z"/>
			<path class="st6" d="M162.2,186.9c6.1-3.1,11.5-7.3,16-12.4c7.4,6.4,17.1,10.3,27.7,10.3c5.4,0,10.5-1,15.2-2.8
				c-17.8-15.4-41-24.7-66.4-24.7c-43.7,0-81,27.6-95.4,66.3c11,8.8,24.9,14,40.1,14C130.3,237.7,156,215.9,162.2,186.9z"/>
		</g>
	</g>
	<g id="Layer_5">
		<rect y="220" class="st7" width="800" height="30"/>
		<rect x="15" y="220" class="st1" width="99" height="6"/>
		<rect x="221" y="220" class="st1" width="99" height="6"/>
		<rect x="429" y="220" class="st1" width="99" height="6"/>
		<rect x="635" y="220" class="st1" width="99" height="6"/>
	</g>
	<g id="Layer_6">
	</g>
	<g id="Layer_8" class="st8">
		
			<linearGradient id="SVGID_1_" gradientUnits="userSpaceOnUse" x1="400" y1="-44" x2="400" y2="-294" gradientTransform="matrix(1 0 0 -1 0 -44)">
			<stop  offset="0" style="stop-color:#666666"/>
			<stop  offset="1" style="stop-color:#333333"/>
		</linearGradient>
		<rect class="st9" width="800" height="250"/>
	</g>
	<g>
		<g>
			<rect x="570.7" y="36.3" class="st1" width="33.7" height="33.7"/>
			<rect x="570.7" y="70" width="33.7" height="33.7"/>
			<rect x="604.5" y="70.1" class="st1" width="33.7" height="33.7"/>
			<rect x="604.5" y="36.3" width="33.7" height="33.7"/>
			<rect x="638.2" y="36.3" class="st1" width="33.7" height="33.7"/>
			<rect x="638.2" y="70" width="33.7" height="33.7"/>
			<rect x="672" y="70.1" class="st1" width="33.7" height="33.7"/>
			<rect x="672" y="36.3" width="33.7" height="33.7"/>
			<rect x="705.7" y="36.3" class="st1" width="33.7" height="33.7"/>
			<rect x="705.7" y="70" width="33.7" height="33.7"/>
			<rect x="739.5" y="70.1" class="st1" width="33.7" height="33.7"/>
			<rect x="739.5" y="36.3" width="33.7" height="33.7"/>
		</g>
		<g>
			<g>
				<g>
					<path class="st10" d="M620,84.1c-0.5,0-1.1,0-1.9-0.1c-0.8-0.1-1.6-0.2-2.4-0.4c-0.9-0.2-1.8-0.4-2.6-0.7
						c-0.9-0.3-1.7-0.6-2.5-1s-1.5-0.9-2-1.4c-0.6-0.7-0.9-1.4-0.9-2.3s0.3-1.7,1-2.4c0.7-0.7,1.5-1.1,2.4-1.1
						c0.6,0,1.1,0.1,1.6,0.4c0.6,0.3,1.2,0.6,1.8,0.9c0.6,0.2,1.2,0.4,1.8,0.6s1.2,0.3,1.8,0.4s1.3,0.1,2,0.1c0.4,0,1,0,1.6-0.1
						s1.1-0.2,1.6-0.3c0.5-0.2,0.8-0.4,1.2-0.7c0.1-0.1,0.3-0.3,0.3-0.8c0-0.3-0.1-0.7-0.7-1c-0.7-0.4-1.6-0.8-2.7-1.1
						c-1.1-0.4-2.4-0.7-3.7-1.1c-1.4-0.4-2.8-0.9-4-1.6c-1.3-0.7-2.3-1.6-3.2-2.7c-0.9-1.2-1.4-2.7-1.4-4.6c0-1.6,0.4-3,1.2-4.1
						c0.7-1.1,1.7-1.9,2.9-2.5c1.1-0.6,2.3-1,3.7-1.2c1.3-0.2,2.6-0.3,3.8-0.3c0.6,0,1.3,0,2.1,0.1s1.6,0.2,2.4,0.3
						c0.8,0.1,1.6,0.3,2.3,0.5c0.8,0.2,1.5,0.5,2.1,0.7c0.6,0.3,1.1,0.7,1.5,1.1c0.4,0.5,0.6,1.2,0.6,2c0,0.9-0.3,1.8-1,2.4
						s-1.5,1-2.4,1c-0.4,0-0.8-0.1-1.3-0.3c-1-0.4-2.1-0.7-3.1-0.9s-2.1-0.3-3.2-0.3c-0.4,0-0.9,0-1.5,0c-0.5,0-1.1,0.1-1.6,0.2
						c-0.4,0.1-0.8,0.3-1.1,0.5c-0.1,0.1-0.2,0.2-0.2,0.6c0,0.1,0,0.3,0.2,0.5c0.2,0.3,0.6,0.5,1,0.8c0.4,0.3,1,0.5,1.5,0.7
						c0.6,0.2,1.2,0.4,1.8,0.6s1.1,0.3,1.6,0.5c0.5,0.1,0.9,0.3,1.2,0.3c1,0.3,2,0.7,3,1.1s1.9,0.9,2.7,1.6c0.8,0.6,1.4,1.5,1.9,2.4
						c0.5,1,0.7,2.1,0.7,3.4c0,1.7-0.4,3.2-1.1,4.4c-0.7,1.1-1.7,2.1-2.9,2.8c-1.1,0.7-2.4,1.1-3.8,1.4
						C622.7,83.9,621.3,84.1,620,84.1z"/>
					<path d="M620.6,56c0.6,0,1.3,0,2.1,0.1s1.5,0.2,2.3,0.3s1.5,0.3,2.3,0.5c0.7,0.2,1.4,0.4,1.9,0.7c0.4,0.2,0.8,0.5,1.1,0.9
						s0.4,0.8,0.4,1.3c0,0.7-0.2,1.3-0.7,1.7c-0.5,0.5-1.1,0.7-1.7,0.7c-0.3,0-0.6-0.1-0.9-0.2c-1.1-0.4-2.2-0.7-3.2-0.9
						c-1.1-0.2-2.2-0.3-3.4-0.3c-0.4,0-0.9,0-1.5,0s-1.2,0.1-1.8,0.3s-1.1,0.4-1.5,0.7s-0.6,0.8-0.6,1.4c0,0.4,0.2,0.8,0.5,1.2
						s0.7,0.7,1.2,1s1.1,0.6,1.7,0.8c0.6,0.2,1.2,0.4,1.8,0.6s1.1,0.3,1.6,0.5c0.5,0.1,0.9,0.3,1.2,0.3c1,0.3,1.9,0.7,2.9,1
						c0.9,0.4,1.7,0.8,2.4,1.4s1.2,1.3,1.7,2.1c0.4,0.8,0.6,1.8,0.6,3c0,1.5-0.3,2.8-1,3.8s-1.5,1.8-2.5,2.4s-2.2,1-3.5,1.3
						c-1.3,0.2-2.6,0.4-3.9,0.4c-0.4,0-1,0-1.8-0.1c-0.7-0.1-1.5-0.2-2.3-0.4c-0.8-0.2-1.7-0.4-2.5-0.6c-0.8-0.3-1.6-0.6-2.3-0.9
						c-0.7-0.4-1.3-0.8-1.7-1.2c-0.4-0.5-0.7-1-0.7-1.6s0.2-1.2,0.7-1.7s1-0.7,1.7-0.7c0.4,0,0.8,0.1,1.1,0.3
						c0.7,0.4,1.3,0.7,1.9,0.9c0.6,0.3,1.3,0.5,1.9,0.6c0.6,0.2,1.3,0.3,1.9,0.4c0.7,0.1,1.4,0.1,2.1,0.1c0.5,0,1,0,1.7-0.1
						c0.6-0.1,1.3-0.2,1.8-0.4c0.6-0.2,1.1-0.5,1.5-0.9s0.6-0.9,0.6-1.5c0-0.8-0.4-1.4-1.2-1.9s-1.7-0.9-2.9-1.2
						c-1.1-0.4-2.4-0.7-3.8-1.1c-1.4-0.4-2.6-0.9-3.8-1.5c-1.1-0.6-2.1-1.4-2.9-2.5c-0.8-1-1.2-2.4-1.2-4c0-1.4,0.3-2.6,1-3.6
						s1.5-1.7,2.5-2.2s2.2-0.9,3.4-1.1C618.2,56.1,619.5,56,620.6,56 M620.6,54c-1.3,0-2.6,0.1-4,0.3c-1.5,0.2-2.8,0.7-4,1.3
						c-1.3,0.7-2.4,1.6-3.2,2.8c-0.9,1.3-1.3,2.9-1.3,4.7c0,2.1,0.5,3.9,1.6,5.2c0.9,1.2,2.1,2.3,3.5,3c1.3,0.7,2.7,1.3,4.2,1.7
						c1.3,0.4,2.6,0.7,3.7,1.1c1,0.3,1.8,0.6,2.4,1c0.1,0.1,0.2,0.1,0.2,0.1l0,0c0,0,0,0,0,0.1c-0.2,0.2-0.5,0.3-0.8,0.4
						c-0.4,0.1-0.9,0.2-1.4,0.3c-0.6,0.1-1.1,0.1-1.5,0.1c-0.7,0-1.3,0-1.9-0.1c-0.6-0.1-1.1-0.2-1.7-0.3c-0.5-0.1-1.1-0.3-1.6-0.6
						c-0.6-0.2-1.1-0.5-1.7-0.8c-0.7-0.4-1.4-0.6-2.1-0.6c-1.2,0-2.3,0.5-3.1,1.4s-1.3,1.9-1.3,3.1c0,1.1,0.4,2.1,1.2,2.9
						c0.6,0.6,1.4,1.2,2.2,1.6s1.7,0.8,2.6,1c0.9,0.3,1.8,0.5,2.7,0.7s1.7,0.3,2.5,0.4s1.5,0.1,2,0.1c1.4,0,2.8-0.1,4.2-0.4
						c1.5-0.3,2.9-0.8,4.1-1.5c1.3-0.8,2.4-1.8,3.2-3.1c0.9-1.3,1.3-3,1.3-4.9c0-1.5-0.3-2.8-0.8-3.9s-1.3-2-2.2-2.7
						c-0.8-0.7-1.8-1.3-2.9-1.7c-1-0.4-2-0.8-3-1.1l0,0l0,0c-0.3-0.1-0.7-0.2-1.2-0.3c-0.5-0.1-1-0.3-1.6-0.5
						c-0.5-0.2-1.1-0.4-1.7-0.6c-0.5-0.2-1-0.4-1.4-0.6c-0.2-0.1-0.4-0.3-0.6-0.4c0.1-0.1,0.3-0.1,0.5-0.2c0.4-0.1,0.9-0.2,1.3-0.2
						c0.6,0,1.1,0,1.5,0c1,0,2,0.1,3,0.3s2,0.5,3,0.8c0.6,0.2,1.1,0.3,1.6,0.3c1.2,0,2.3-0.5,3.2-1.3c0.9-0.9,1.3-1.9,1.3-3.2
						c0-1-0.3-1.9-0.9-2.6c-0.5-0.6-1.1-1.1-1.8-1.4c-0.7-0.3-1.4-0.6-2.3-0.8c-0.8-0.2-1.6-0.4-2.4-0.5c-0.8-0.2-1.7-0.3-2.5-0.3
						C622,54.1,621.3,54,620.6,54L620.6,54z"/>
				</g>
				<g>
					<path class="st10" d="M644.9,83.9c-1,0-1.9-0.4-2.6-1.1c-0.7-0.7-1-1.6-1-2.6V62.4h-6.2c-1,0-1.8-0.3-2.4-1s-1-1.5-1-2.4
						s0.3-1.8,1-2.4c0.7-0.7,1.5-1,2.4-1h19.6c0.9,0,1.8,0.3,2.4,1c0.7,0.7,1,1.5,1,2.4s-0.4,1.8-1,2.4c-0.7,0.7-1.5,1-2.4,1h-6.2
						v17.9c0,1-0.4,1.9-1.1,2.6C646.7,83.5,645.9,83.9,644.9,83.9z"/>
					<path d="M654.7,56.5c0.7,0,1.3,0.2,1.7,0.7c0.5,0.5,0.7,1.1,0.7,1.7c0,0.7-0.2,1.3-0.7,1.7c-0.5,0.5-1.1,0.7-1.7,0.7h-7.2v18.9
						c0,0.7-0.3,1.4-0.8,1.9s-1.1,0.8-1.9,0.8s-1.3-0.3-1.8-0.8s-0.7-1.1-0.7-1.9V61.4h-7.2c-0.7,0-1.3-0.2-1.7-0.7s-0.7-1-0.7-1.7
						s0.2-1.3,0.7-1.7s1-0.7,1.7-0.7L654.7,56.5 M654.7,54.5h-19.6c-1.2,0-2.3,0.5-3.2,1.3c-0.8,0.9-1.3,1.9-1.3,3.1
						c0,1.2,0.4,2.3,1.3,3.1c0.8,0.8,1.9,1.3,3.1,1.3h5.2v16.9c0,1.3,0.5,2.4,1.3,3.3c0.9,0.9,2,1.4,3.3,1.4s2.4-0.5,3.3-1.3
						c0.9-0.9,1.3-2,1.3-3.3V63.4h5.2c1.2,0,2.3-0.4,3.1-1.3c0.9-0.8,1.3-1.9,1.3-3.2c0-1.2-0.5-2.3-1.3-3.2
						C657,54.9,655.9,54.5,654.7,54.5L654.7,54.5z"/>
				</g>
				<g>
					<path class="st10" d="M680.2,83.9c-0.7,0-1.3-0.2-1.9-0.5c-0.5-0.3-1-0.8-1.2-1.4l-1.9-4.2h-10l-1.9,4.2
						c-0.3,0.6-0.7,1.1-1.3,1.5c-0.6,0.3-1.2,0.5-1.8,0.5c-1,0-1.8-0.3-2.4-1c-0.7-0.7-1-1.5-1-2.4c0-0.5,0.1-1,0.3-1.4l10-21.9
						c0.3-0.6,0.7-1.1,1.2-1.4c0.6-0.4,1.2-0.6,1.8-0.6s1.3,0.2,1.8,0.5c0.6,0.4,1,0.8,1.3,1.5l10,21.9c0.2,0.5,0.3,1,0.3,1.4
						c0,0.9-0.3,1.8-1,2.4C682,83.5,681.1,83.9,680.2,83.9z M672.3,71.3l-2.1-4.7l-2.1,4.7H672.3z"/>
					<path d="M670.1,56.1c0.5,0,0.9,0.1,1.3,0.4c0.4,0.2,0.7,0.6,0.9,1l10,21.9c0.1,0.3,0.2,0.7,0.2,1c0,0.7-0.2,1.3-0.7,1.7
						s-1,0.7-1.7,0.7c-0.5,0-0.9-0.1-1.3-0.4c-0.4-0.2-0.7-0.6-0.9-1l-2.2-4.8h-11.3l-2.2,4.8c-0.2,0.4-0.5,0.8-0.9,1
						s-0.8,0.4-1.3,0.4c-0.7,0-1.3-0.2-1.7-0.7c-0.5-0.5-0.7-1.1-0.7-1.7c0-0.3,0.1-0.7,0.2-1l10-21.9c0.2-0.4,0.5-0.8,0.9-1
						C669.2,56.3,669.6,56.1,670.1,56.1 M666.5,72.3h7.3l-3.7-8.1L666.5,72.3 M670.1,54.1c-0.9,0-1.7,0.2-2.4,0.7s-1.2,1.1-1.6,1.9
						l-10,21.8c-0.3,0.6-0.4,1.2-0.4,1.8c0,1.2,0.5,2.3,1.3,3.2c0.9,0.9,1.9,1.3,3.2,1.3c0.9,0,1.6-0.2,2.4-0.7
						c0.7-0.5,1.3-1.1,1.6-1.9l1.6-3.6h8.7l1.6,3.6c0.4,0.8,0.9,1.4,1.6,1.9c0.7,0.5,1.5,0.7,2.4,0.7c1.2,0,2.3-0.5,3.1-1.3
						s1.3-1.9,1.3-3.1c0-0.6-0.1-1.2-0.3-1.7v-0.1v-0.1l-10-21.9c-0.4-0.8-1-1.5-1.7-1.9C671.7,54.4,670.9,54.1,670.1,54.1
						L670.1,54.1z M669.6,70.3l0.6-1.3l0.6,1.3H669.6L669.6,70.3z"/>
				</g>
				<g>
					<path class="st10" d="M706.3,83.9c-0.7,0-1.3-0.2-1.8-0.5c-0.6-0.3-1-0.8-1.3-1.4c-0.1-0.2-0.3-0.5-0.5-1l-0.8-1.7
						c-0.4-0.8-0.7-1.5-1.1-2.3c-0.4-0.8-0.8-1.5-1.1-2.2c-0.3-0.6-0.6-1.2-0.8-1.6c0-0.1-0.1-0.1-0.1-0.2h-5.5v7.3
						c0,1-0.4,1.9-1.1,2.6c-0.7,0.7-1.6,1-2.5,1c-1,0-1.9-0.3-2.5-1c-0.7-0.7-1-1.5-1-2.5V59.1c0-1,0.3-1.9,1-2.5
						c0.7-0.7,1.5-1,2.5-1h9.7c1.3,0,2.7,0.1,3.9,0.4c1.3,0.3,2.4,0.8,3.4,1.5s1.8,1.7,2.4,2.8c0.6,1.1,0.9,2.5,0.9,4.1
						c0,1.7-0.4,3.3-1.2,4.6c-0.6,1.1-1.6,2-2.7,2.6c0,0.1,0.1,0.1,0.1,0.2c0.3,0.5,0.6,1.1,0.9,1.7c0.3,0.6,0.6,1.3,1,1.9
						c0.3,0.7,0.6,1.3,0.9,1.9c0.3,0.6,0.5,1.2,0.7,1.7c0.2,0.6,0.3,1,0.3,1.4c0,1-0.3,1.8-1,2.5C708.1,83.5,707.3,83.9,706.3,83.9z
						 M700.1,66.6c0.8,0,1.4-0.2,1.9-0.6c0.3-0.2,0.6-0.6,0.6-1.5c0-1-0.4-1.4-0.6-1.6c-0.5-0.4-1.1-0.6-1.9-0.6h-6.8v4.3
						C693.3,66.6,700.1,66.6,700.1,66.6z"/>
					<path d="M699.4,56.5c1.3,0,2.5,0.1,3.7,0.4c1.2,0.3,2.2,0.7,3,1.4c0.9,0.6,1.5,1.4,2.1,2.4s0.8,2.2,0.8,3.6
						c0,1.5-0.4,2.9-1.1,4.1c-0.7,1.2-1.8,2.1-3.2,2.7c0.1,0.3,0.3,0.6,0.6,1.1s0.5,1,0.9,1.7c0.3,0.6,0.6,1.3,1,1.9
						s0.6,1.3,0.9,1.9c0.3,0.6,0.5,1.1,0.7,1.6s0.3,0.8,0.3,1c0,0.7-0.2,1.3-0.7,1.8s-1.1,0.7-1.8,0.7c-0.5,0-0.9-0.1-1.3-0.4
						c-0.4-0.2-0.7-0.6-0.9-1c-0.1-0.1-0.2-0.5-0.5-1s-0.5-1.1-0.9-1.8c-0.3-0.7-0.7-1.4-1.1-2.2c-0.4-0.8-0.7-1.5-1.1-2.1
						c-0.3-0.7-0.6-1.2-0.8-1.6s-0.3-0.7-0.3-0.7h-7.2v8.3c0,0.7-0.3,1.3-0.8,1.8s-1.1,0.7-1.8,0.7s-1.3-0.2-1.8-0.7
						s-0.7-1.1-0.7-1.8V59.1c0-0.7,0.2-1.3,0.7-1.8s1.1-0.7,1.8-0.7L699.4,56.5 M692.3,67.6h7.8c1,0,1.8-0.3,2.5-0.8
						s1.1-1.3,1.1-2.3s-0.3-1.8-1-2.4c-0.7-0.5-1.5-0.8-2.5-0.8h-7.8L692.3,67.6 M699.4,54.5h-9.7c-1.3,0-2.4,0.5-3.3,1.3
						c-0.9,0.9-1.3,2-1.3,3.3v21.2c0,1.3,0.5,2.4,1.3,3.3c0.9,0.9,2,1.3,3.3,1.3c1.2,0,2.3-0.4,3.2-1.3s1.4-2,1.4-3.3V74h3.9
						c0.2,0.4,0.4,0.8,0.6,1.2c0.3,0.7,0.7,1.4,1.1,2.2c0.4,0.8,0.7,1.5,1.1,2.2v0.1l0.8,1.7c0.3,0.6,0.4,0.9,0.5,1
						c0.4,0.8,0.9,1.4,1.6,1.8c0.7,0.4,1.5,0.7,2.4,0.7c1.2,0,2.3-0.5,3.2-1.3c0.9-0.9,1.3-2,1.3-3.2c0-0.5-0.1-1-0.4-1.7
						c-0.2-0.5-0.4-1.1-0.7-1.7s-0.6-1.3-0.9-1.9c-0.3-0.7-0.7-1.3-1-2c-0.2-0.4-0.4-0.8-0.6-1.1c0.9-0.7,1.7-1.5,2.3-2.5
						c0.9-1.5,1.3-3.2,1.3-5.1c0-1.7-0.3-3.3-1-4.6s-1.5-2.3-2.7-3.1c-1.1-0.8-2.3-1.3-3.7-1.7C702.2,54.7,700.8,54.5,699.4,54.5
						L699.4,54.5z M694.3,63.3h5.8c0.7,0,1.1,0.2,1.3,0.4c0.1,0.1,0.3,0.2,0.3,0.8c0,0.5-0.2,0.7-0.2,0.7c-0.4,0.3-0.8,0.4-1.3,0.4
						h-5.8L694.3,63.3L694.3,63.3z"/>
				</g>
				<g>
					<path class="st10" d="M723.8,83.9c-1,0-1.9-0.4-2.6-1.1c-0.7-0.7-1-1.6-1-2.6V62.4H714c-1,0-1.8-0.3-2.4-1s-1-1.5-1-2.4
						s0.3-1.8,1-2.4c0.7-0.7,1.5-1,2.4-1h19.6c1,0,1.8,0.3,2.4,1c0.7,0.7,1,1.5,1,2.4s-0.4,1.8-1,2.4c-0.7,0.7-1.5,1-2.4,1h-6.2
						v17.9c0,1-0.4,1.9-1.1,2.6C725.7,83.5,724.8,83.9,723.8,83.9z"/>
					<path d="M733.6,56.5c0.7,0,1.3,0.2,1.7,0.7c0.5,0.5,0.7,1.1,0.7,1.7c0,0.7-0.2,1.3-0.7,1.7c-0.5,0.5-1.1,0.7-1.7,0.7h-7.2v18.9
						c0,0.7-0.3,1.4-0.8,1.9s-1.1,0.8-1.9,0.8s-1.3-0.3-1.8-0.8s-0.7-1.1-0.7-1.9V61.4H714c-0.7,0-1.3-0.2-1.7-0.7s-0.7-1-0.7-1.7
						s0.2-1.3,0.7-1.7s1-0.7,1.7-0.7L733.6,56.5 M733.6,54.5H714c-1.2,0-2.3,0.5-3.2,1.3c-0.8,0.9-1.3,1.9-1.3,3.1
						c0,1.2,0.4,2.3,1.3,3.1c0.8,0.8,1.9,1.3,3.1,1.3h5.2v16.9c0,1.3,0.5,2.4,1.3,3.3c0.9,0.9,2,1.4,3.3,1.4s2.4-0.5,3.3-1.3
						c0.9-0.9,1.3-2,1.3-3.3V63.4h5.2c1.2,0,2.3-0.4,3.1-1.3c0.9-0.8,1.3-1.9,1.3-3.2c0-1.2-0.5-2.3-1.3-3.2
						C735.9,54.9,734.8,54.5,733.6,54.5L733.6,54.5z"/>
				</g>
			</g>
		</g>
		<path class="st2" d="M778.4,231.1L778.4,231.1c-2.9,0-5.2-2.3-5.2-5.2V31.3c0-2.9,2.3-5.2,5.2-5.2l0,0c2.9,0,5.2,2.3,5.2,5.2
			v194.6C783.6,228.8,781.2,231.1,778.4,231.1z"/>
	</g>
</g>
<g id="Layer_2_1_">
	<g id="Premium">
		<g id="premium-mini-red">
			
				<rect x="473.5" y="176.2" transform="matrix(4.205205e-02 -0.9991 0.9991 4.205205e-02 262.7673 675.0002)" class="st11" width="19.8" height="48.5"/>
			<rect x="567.7" y="192.7" class="st11" width="48.5" height="19.8"/>
			<path class="st12" d="M623.8,192.2c-0.7-8.5-5-13.2-13.4-14.8L583,174l-13-17.6c-2.4-3.7-6.5-5.9-10.9-5.9h-69.5
				c-5.1,0-9.9,2.3-13.1,6.3l-15.3,19c-1.7,2.1-2.8,4.5-3.3,7.1l-3.8,18.6c-0.6,2.9,0.8,5.8,3.4,7.2l0.2,0.1c2.3,1.2,4.7,2,7.3,2.4
				c-2.2-8.3,2.7-16.8,10.9-19.1c8.3-2.2,16.8,2.7,19.1,10.9c0.8,2.9,0.7,6-0.2,8.9l89,1.7c-2.5-8.2,2.2-16.9,10.4-19.4
				s16.9,2.2,19.4,10.4c0.9,3.1,0.9,6.3-0.1,9.3c6.1-1,10.5-6.2,10.5-12.4L623.8,192.2z"/>
			<g>
				<g>
					<g>
						<g>
							<defs>
								<path id="SVGID_2_" d="M623.8,192.2c-0.7-8.5-5-13.2-13.4-14.8L583,174l-13-17.6c-2.4-3.7-6.5-5.9-10.9-5.9h-69.5
									c-5.1,0-9.9,2.3-13.1,6.3l-15.3,19c-1.7,2.1-2.8,4.5-3.3,7.1l-3.8,18.6c-0.6,2.9,0.8,5.8,3.4,7.2l0.2,0.1
									c2.3,1.2,4.7,2,7.3,2.4c-2.2-8.3,2.7-16.8,10.9-19.1c8.3-2.2,16.8,2.7,19.1,10.9c0.8,2.9,0.7,6-0.2,8.9l89,1.7
									c-2.5-8.2,2.2-16.9,10.4-19.4s16.9,2.2,19.4,10.4c0.9,3.1,0.9,6.3-0.1,9.3c6.1-1,10.5-6.2,10.5-12.4L623.8,192.2z"/>
							</defs>
							<clipPath id="SVGID_3_">
								<use xlink:href="#SVGID_2_"  style="overflow:visible;"/>
							</clipPath>
							<circle class="st13" cx="508.5" cy="192.7" r="21.9"/>
						</g>
						<g>
							<defs>
								<path id="SVGID_4_" d="M623.8,192.2c-0.7-8.5-5-13.2-13.4-14.8L583,174l-13-17.6c-2.4-3.7-6.5-5.9-10.9-5.9h-69.5
									c-5.1,0-9.9,2.3-13.1,6.3l-15.3,19c-1.7,2.1-2.8,4.5-3.3,7.1l-3.8,18.6c-0.6,2.9,0.8,5.8,3.4,7.2l0.2,0.1
									c2.3,1.2,4.7,2,7.3,2.4c-2.2-8.3,2.7-16.8,10.9-19.1c8.3-2.2,16.8,2.7,19.1,10.9c0.8,2.9,0.7,6-0.2,8.9l89,1.7
									c-2.5-8.2,2.2-16.9,10.4-19.4s16.9,2.2,19.4,10.4c0.9,3.1,0.9,6.3-0.1,9.3c6.1-1,10.5-6.2,10.5-12.4L623.8,192.2z"/>
							</defs>
							<clipPath id="SVGID_5_">
								<use xlink:href="#SVGID_4_"  style="overflow:visible;"/>
							</clipPath>
							<g class="st14">
								<g>
									<path class="st15" d="M503.7,214.2c-0.2,0-0.3,0-0.4-0.1l-1.6-0.5c-0.3-0.1-0.5-0.3-0.7-0.5c-0.2-0.3-0.3-0.7-0.2-1
										l1.1-3.7c-2.6-1.1-4.8-2.8-6.2-4.7c-1.7-2.3-2.3-4.9-1.6-7.2l1.4-4.7c0.1-0.4,0.5-0.7,1-0.7c0.1,0,0.2,0,0.3,0.1l23.1,7
										c0.2,0.1,0.4,0.2,0.6,0.4c0.2,0.3,0.3,0.6,0.2,0.9l-0.4,1.3l-0.1,0.3l-0.9,3.1c-0.7,2.3-2.6,4.1-5.4,5.1
										c-1.4,0.5-3,0.8-4.7,0.8l0,0c-1,0-2.1-0.1-3.1-0.3l-1.1,3.7C504.7,213.9,504.2,214.2,503.7,214.2z M497.7,197.6
										c-0.9,3.2,2.1,7,6.7,8.5c1.4,0.4,2.8,0.7,4.1,0.7c3.5,0,6.1-1.5,6.8-3.7l0.7-2.3l-17.7-5.4L497.7,197.6z"/>
									<path class="st16" d="M496.4,191.9c0,0,0.1,0,0.1,0l23.1,7c0.2,0.1,0.2,0.2,0.2,0.3l-0.4,1.3l-0.1,0.3l-0.9,3.1
										c-0.6,2.1-2.3,3.7-4.9,4.6c-1.3,0.5-2.8,0.7-4.4,0.7c-1.2,0-2.4-0.1-3.7-0.4l-1.3,4.4c-0.1,0.1-0.2,0.2-0.4,0.2
										c-0.1,0-0.1,0-0.2,0l-1.6-0.5l0,0c-0.3-0.1-0.4-0.3-0.4-0.5l1.3-4.4c-2.7-1.1-5-2.7-6.6-4.7c-1.6-2.1-2.1-4.5-1.5-6.5
										l1-3.4l0.4-1.3C496.2,191.9,496.3,191.9,496.4,191.9 M508.6,207.6c3.7,0,6.7-1.6,7.6-4.3l0.9-3.1l-19.2-5.8l-0.9,3
										c-1.1,3.6,2.1,7.8,7.2,9.5C505.7,207.3,507.2,207.6,508.6,207.6 M496.4,190.3c-0.8,0-1.5,0.5-1.7,1.2l-0.4,1.3l-1,3.4
										c-0.8,2.6-0.2,5.4,1.7,7.9c1.4,1.9,3.5,3.5,5.9,4.7l-0.9,3c-0.2,0.6-0.1,1.2,0.3,1.7c0.3,0.3,0.7,0.6,1.1,0.7l1.6,0.5
										c0.2,0.1,0.4,0.1,0.7,0.1c0.9,0,1.7-0.5,1.9-1.3l0.9-3c0.9,0.1,1.7,0.2,2.6,0.2c1.8,0,3.4-0.3,5-0.8c3-1.1,5.1-3.1,5.9-5.6
										l0.9-3.1l0.1-0.3l0,0l0,0l0.4-1.3c0.3-0.9-0.3-2-1.3-2.2l-23.1-7C496.8,190.4,496.6,190.3,496.4,190.3L496.4,190.3z
										 M508.6,206c-1.3,0-2.6-0.2-3.9-0.6c-4.2-1.4-7-4.8-6.2-7.5l0.4-1.5l16.2,4.9l-0.5,1.6C514,204.7,511.7,206,508.6,206
										L508.6,206z"/>
								</g>
								<g>
									<path class="st17" d="M511.5,206.6c-0.4,0-0.9-0.1-1.3-0.2l-10-3.1c-1.1-0.3-2-1.1-2.6-2.1c-0.6-1-0.7-2.2-0.3-3.3
										l5.4-17.8c0.6-1.8,2.2-3.1,4.2-3.1c0.4,0,0.9,0.1,1.3,0.2l10,3.1c1.1,0.3,2,1.1,2.6,2.1c0.6,1,0.7,2.2,0.3,3.3l-5.4,17.8
										C515.1,205.3,513.4,206.6,511.5,206.6L511.5,206.6z"/>
									<path class="st16" d="M506.8,177.7c0.3,0,0.7,0.1,1.1,0.2l10,3.1c1.9,0.6,3,2.6,2.4,4.5l-5.4,17.9
										c-0.5,1.6-1.9,2.5-3.4,2.5c-0.3,0-0.7-0.1-1.1-0.2l-10-3.1c-1.9-0.6-3-2.6-2.4-4.5l5.4-17.8
										C503.9,178.7,505.3,177.7,506.8,177.7 M506.8,176.1c-2.3,0-4.3,1.5-4.9,3.7l-5.4,17.8c-0.4,1.3-0.3,2.7,0.4,3.9
										c0.7,1.2,1.7,2.1,3.1,2.5l10,3.1c0.5,0.2,1,0.2,1.5,0.2c2.3,0,4.3-1.5,4.9-3.7l5.4-17.8c0.8-2.7-0.7-5.6-3.4-6.4l-10.1-3
										C507.9,176.2,507.4,176.1,506.8,176.1L506.8,176.1z"/>
								</g>
								<g>
									<g>
										<defs>
											<path id="SVGID_6_" d="M517.9,180.9l-10-3.1c-1.9-0.6-3.9,0.5-4.5,2.4l-5.4,17.8c-0.6,1.9,0.5,3.9,2.4,4.5l10,3.1
												c1.9,0.6,3.9-0.5,4.5-2.4l5.4-17.8C520.9,183.5,519.8,181.5,517.9,180.9z"/>
										</defs>
										<clipPath id="SVGID_7_">
											<use xlink:href="#SVGID_6_"  style="overflow:visible;"/>
										</clipPath>
										<g class="st18">
											<g>
												<path class="st19" d="M508.5,183.3c-0.2,0-0.4,0-0.5-0.1c-0.5-0.1-0.8-0.4-1.1-0.9s-0.3-0.9-0.1-1.4l1.9-6.2
													c0.2-0.8,0.9-1.3,1.7-1.3c0.2,0,0.4,0,0.5,0.1c0.5,0.1,0.8,0.4,1.1,0.9c0.2,0.4,0.3,0.9,0.1,1.4l-1.9,6.2
													C510,182.7,509.3,183.3,508.5,183.3z"/>
												<path class="st16" d="M510.4,174.2c0.1,0,0.2,0,0.3,0.1l0,0c0.6,0.2,0.8,0.7,0.7,1.3l-1.9,6.2c-0.1,0.4-0.6,0.7-1,0.7
													c-0.1,0-0.2,0-0.3-0.1c-0.6-0.2-0.8-0.7-0.7-1.3l1.9-6.2C509.5,174.5,510,174.2,510.4,174.2 M510.4,172.6
													c-1.2,0-2.2,0.7-2.5,1.8l-1.9,6.2c-0.2,0.7-0.1,1.4,0.2,2s0.9,1.1,1.6,1.3c0.2,0.1,0.5,0.1,0.8,0.1
													c1.2,0,2.2-0.7,2.5-1.8l1.9-6.2c0.4-1.4-0.4-2.8-1.7-3.2C510.9,172.7,510.6,172.6,510.4,172.6L510.4,172.6z"/>
											</g>
											<g>
												<path class="st19" d="M512,184.3c-0.2,0-0.4,0-0.5-0.1c-0.5-0.1-0.8-0.4-1.1-0.9c-0.2-0.4-0.3-0.9-0.1-1.4l1.9-6.2
													c0.2-0.8,0.9-1.3,1.7-1.3c0.2,0,0.4,0,0.5,0.1c0.9,0.3,1.5,1.3,1.2,2.3l-1.9,6.2C513.5,183.8,512.8,184.3,512,184.3z"/>
												<path class="st16" d="M513.9,175.3c0.1,0,0.2,0,0.3,0.1c0.6,0.2,0.8,0.7,0.7,1.3l-1.9,6.2c-0.1,0.4-0.6,0.7-1,0.7
													c-0.1,0-0.2,0-0.3-0.1l0,0c-0.6-0.2-0.8-0.7-0.7-1.3l1.9-6.2C513,175.5,513.4,175.3,513.9,175.3 M513.9,173.7
													L513.9,173.7c-1.2,0-2.2,0.7-2.5,1.8l-1.9,6.2c-0.2,0.7-0.1,1.4,0.2,2c0.3,0.6,0.9,1.1,1.6,1.3c0.2,0.1,0.5,0.1,0.8,0.1
													c1.2,0,2.2-0.7,2.5-1.8l1.9-6.2c0.2-0.7,0.1-1.4-0.2-2c-0.3-0.6-0.9-1.1-1.6-1.3C514.4,173.7,514.1,173.7,513.9,173.7
													L513.9,173.7z"/>
											</g>
											<g>
												<path class="st19" d="M515.4,185.4c-0.2,0-0.4,0-0.5-0.1c-0.9-0.3-1.5-1.3-1.2-2.3l1.9-6.2c0.2-0.8,0.9-1.3,1.7-1.3
													c0.2,0,0.4,0,0.5,0.1c0.9,0.3,1.5,1.3,1.2,2.3l-1.9,6.2C517,184.9,516.3,185.4,515.4,185.4z"/>
												<path class="st16" d="M517.3,176.3c0.1,0,0.2,0,0.3,0.1c0.6,0.2,0.8,0.7,0.7,1.3l-1.9,6.2c-0.1,0.4-0.6,0.7-1,0.7
													c-0.1,0-0.2,0-0.3-0.1c-0.6-0.2-0.8-0.7-0.7-1.3l1.9-6.2C516.5,176.6,516.9,176.3,517.3,176.3 M517.3,174.7
													c-1.2,0-2.2,0.7-2.5,1.8l-1.9,6.2c-0.4,1.4,0.4,2.8,1.7,3.2c0.2,0.1,0.5,0.1,0.8,0.1c1.2,0,2.2-0.7,2.5-1.8l1.9-6.2
													c0.2-0.7,0.1-1.4-0.2-2c-0.3-0.6-0.9-1.1-1.6-1.3C517.9,174.8,517.6,174.7,517.3,174.7L517.3,174.7z"/>
											</g>
											<g>
												<path class="st19" d="M501.1,207.5c-0.2,0-0.4,0-0.5-0.1c-0.5-0.1-0.8-0.4-1.1-0.9c-0.2-0.4-0.3-0.9-0.1-1.4l1.9-6.2
													c0.2-0.8,0.9-1.3,1.7-1.3c0.2,0,0.4,0,0.5,0.1c0.5,0.1,0.8,0.4,1.1,0.9c0.2,0.4,0.3,0.9,0.1,1.4l-1.9,6.2
													C502.6,207,501.9,207.5,501.1,207.5z"/>
												<path class="st16" d="M503,198.5c0.1,0,0.2,0,0.3,0.1c0.6,0.2,0.8,0.7,0.7,1.3l-1.9,6.2c-0.1,0.4-0.6,0.7-1,0.7
													c-0.1,0-0.2,0-0.3-0.1l0,0c-0.6-0.2-0.8-0.7-0.7-1.3l1.9-6.2C502.2,198.7,502.6,198.5,503,198.5 M503,196.9L503,196.9
													c-1.2,0-2.2,0.7-2.5,1.8l-1.9,6.2c-0.4,1.4,0.4,2.8,1.7,3.2c0.2,0.1,0.5,0.1,0.8,0.1c1.2,0,2.2-0.7,2.5-1.8l1.9-6.2
													c0.2-0.7,0.1-1.4-0.2-2c-0.3-0.6-0.9-1.1-1.6-1.3C503.5,196.9,503.3,196.9,503,196.9L503,196.9z"/>
											</g>
											<g>
												<path class="st19" d="M504.6,208.6c-0.2,0-0.4,0-0.5-0.1c-0.5-0.1-0.8-0.4-1.1-0.9c-0.2-0.4-0.3-0.9-0.1-1.4l1.9-6.2
													c0.2-0.8,0.9-1.3,1.7-1.3c0.2,0,0.4,0,0.5,0.1c0.5,0.1,0.8,0.4,1.1,0.9c0.2,0.4,0.3,0.9,0.1,1.4l-1.9,6.2
													C506.1,208.1,505.4,208.6,504.6,208.6z"/>
												<path class="st16" d="M506.5,199.5c0.1,0,0.2,0,0.3,0.1c0.6,0.2,0.8,0.7,0.7,1.3l-1.9,6.2c-0.1,0.4-0.6,0.7-1,0.7
													c-0.1,0-0.2,0-0.3-0.1c-0.6-0.2-0.8-0.7-0.7-1.3l1.9-6.2C505.7,199.8,506.1,199.5,506.5,199.5 M506.5,197.9L506.5,197.9
													c-1.2,0-2.2,0.7-2.5,1.8l-1.9,6.2c-0.4,1.4,0.4,2.8,1.7,3.2c0.2,0.1,0.5,0.1,0.8,0.1c1.2,0,2.2-0.7,2.5-1.8l1.9-6.2
													c0.4-1.4-0.4-2.8-1.7-3.2C507,198,506.8,197.9,506.5,197.9L506.5,197.9z"/>
											</g>
											<g>
												<path class="st19" d="M508.1,209.6c-0.2,0-0.4,0-0.5-0.1c-0.5-0.1-0.8-0.4-1.1-0.9s-0.3-0.9-0.1-1.4l1.9-6.2
													c0.2-0.8,0.9-1.3,1.7-1.3c0.2,0,0.4,0,0.5,0.1c0.5,0.1,0.8,0.4,1.1,0.9c0.2,0.4,0.3,0.9,0.1,1.4l-1.9,6.2
													C509.6,209.1,508.9,209.6,508.1,209.6z"/>
												<path class="st16" d="M510,200.6c0.1,0,0.2,0,0.3,0.1l0,0c0.6,0.2,0.8,0.7,0.7,1.3l-1.9,6.2c-0.1,0.4-0.6,0.7-1,0.7
													c-0.1,0-0.2,0-0.3-0.1c-0.6-0.2-0.8-0.7-0.7-1.3l1.9-6.2C509.1,200.9,509.5,200.6,510,200.6 M510,199
													c-1.2,0-2.2,0.7-2.5,1.8l-1.9,6.2c-0.4,1.4,0.4,2.8,1.7,3.2c0.2,0.1,0.5,0.1,0.8,0.1c1.2,0,2.2-0.7,2.5-1.8l1.9-6.2
													c0.4-1.4-0.4-2.8-1.7-3.2C510.5,199,510.2,199,510,199L510,199z"/>
											</g>
											<g>
												<path class="st19" d="M522.9,192c-0.2,0-0.4,0-0.5-0.1l-10.2-3.1c-0.9-0.3-1.5-1.3-1.2-2.3c0.2-0.8,0.9-1.3,1.7-1.3
													c0.2,0,0.4,0,0.5,0.1l10.2,3.1c0.9,0.3,1.5,1.3,1.2,2.3C524.4,191.5,523.7,192,522.9,192z"/>
												<path class="st16" d="M512.7,186.1c0.1,0,0.2,0,0.3,0.1l10.2,3.1c0.6,0.2,0.8,0.7,0.7,1.3c-0.1,0.4-0.6,0.7-1,0.7
													c-0.1,0-0.2,0-0.3-0.1l-10.2-3.1c-0.6-0.2-0.8-0.7-0.7-1.3C511.9,186.4,512.3,186.1,512.7,186.1 M512.7,184.5
													L512.7,184.5c-1.2,0-2.2,0.7-2.5,1.8c-0.4,1.4,0.4,2.8,1.7,3.2l10.2,3.1c0.2,0.1,0.5,0.1,0.8,0.1c1.2,0,2.2-0.7,2.5-1.8
													c0.4-1.4-0.4-2.8-1.7-3.2l-10.2-3.1C513.2,184.5,513,184.5,512.7,184.5L512.7,184.5z"/>
											</g>
											<g>
												<path class="st19" d="M521.9,195.5c-0.2,0-0.4,0-0.5-0.1l-10.2-3.1c-0.9-0.3-1.5-1.3-1.2-2.3c0.2-0.8,0.9-1.3,1.7-1.3
													c0.2,0,0.4,0,0.5,0.1l10.2,3.1c0.9,0.3,1.5,1.3,1.2,2.3C523.4,194.9,522.7,195.5,521.9,195.5z"/>
												<path class="st16" d="M511.7,189.5c0.1,0,0.2,0,0.3,0.1l10.2,3.1c0.6,0.2,0.8,0.7,0.7,1.3l0,0c-0.1,0.4-0.6,0.7-1,0.7
													c-0.1,0-0.2,0-0.3-0.1l-10.2-3.1c-0.6-0.2-0.8-0.7-0.7-1.3C510.8,189.8,511.2,189.5,511.7,189.5 M511.7,187.9
													L511.7,187.9c-1.2,0-2.2,0.7-2.5,1.8c-0.4,1.4,0.4,2.8,1.7,3.2l10.2,3.1c0.2,0.1,0.5,0.1,0.8,0.1c1.2,0,2.2-0.7,2.5-1.8
													c0.4-1.4-0.4-2.8-1.7-3.2l-10.2-3.1C512.2,188,511.9,187.9,511.7,187.9L511.7,187.9z"/>
											</g>
											<g>
												<path class="st19" d="M520.8,199c-0.2,0-0.4,0-0.5-0.1l-10.2-3.1c-0.9-0.3-1.5-1.3-1.2-2.3c0.2-0.8,0.9-1.3,1.7-1.3
													c0.2,0,0.4,0,0.5,0.1l10.2,3.1c0.5,0.1,0.8,0.4,1.1,0.9c0.2,0.4,0.3,0.9,0.1,1.4C522.3,198.4,521.6,199,520.8,199z"/>
												<path class="st16" d="M510.6,193c0.1,0,0.2,0,0.3,0.1l10.2,3.1c0.6,0.2,0.8,0.7,0.7,1.3c-0.1,0.4-0.6,0.7-1,0.7
													c-0.1,0-0.2,0-0.3-0.1l-10.2-3.1c-0.6-0.2-0.8-0.7-0.7-1.3C509.8,193.3,510.2,193,510.6,193 M510.6,191.4L510.6,191.4
													c-1.2,0-2.2,0.7-2.5,1.8c-0.2,0.7-0.1,1.4,0.2,2s0.9,1.1,1.6,1.3l10.2,3.1c0.2,0.1,0.5,0.1,0.8,0.1
													c1.2,0,2.2-0.7,2.5-1.8c0.4-1.4-0.4-2.8-1.7-3.2l-10.2-3.1C511.1,191.5,510.9,191.4,510.6,191.4L510.6,191.4z"/>
											</g>
											<g>
												<path class="st19" d="M519.8,202.4c-0.2,0-0.4,0-0.5-0.1l-10.2-3.1c-0.5-0.1-0.8-0.4-1.1-0.9s-0.3-0.9-0.1-1.4
													c0.2-0.8,0.9-1.3,1.7-1.3c0.2,0,0.4,0,0.5,0.1l10.2,3.1c0.5,0.1,0.8,0.4,1.1,0.9c0.2,0.4,0.3,0.9,0.1,1.4
													C521.3,201.9,520.6,202.4,519.8,202.4z"/>
												<path class="st16" d="M509.6,196.5c0.1,0,0.2,0,0.3,0.1l10.2,3.1c0.6,0.2,0.8,0.7,0.7,1.3c-0.1,0.4-0.6,0.7-1,0.7
													c-0.1,0-0.2,0-0.3-0.1l-10.2-3.1c-0.6-0.2-0.8-0.7-0.7-1.3C508.7,196.8,509.1,196.5,509.6,196.5 M509.6,194.9
													L509.6,194.9c-1.2,0-2.2,0.7-2.5,1.8c-0.2,0.7-0.1,1.4,0.2,2c0.3,0.6,0.9,1.1,1.6,1.3l10.2,3.1c0.2,0.1,0.5,0.1,0.8,0.1
													c1.2,0,2.2-0.7,2.5-1.8c0.4-1.4-0.4-2.8-1.7-3.2l-10.2-3.1C510.1,194.9,509.8,194.9,509.6,194.9L509.6,194.9z"/>
											</g>
											<g>
												<path class="st19" d="M508.8,187.7c-0.2,0-0.4,0-0.5-0.1l-10.2-3.1c-0.5-0.1-0.8-0.4-1.1-0.9c-0.2-0.4-0.3-0.9-0.1-1.4
													c0.2-0.8,0.9-1.3,1.7-1.3c0.2,0,0.4,0,0.5,0.1l10.2,3.1c0.5,0.1,0.8,0.4,1.1,0.9c0.2,0.4,0.3,0.9,0.1,1.4
													C510.3,187.2,509.6,187.7,508.8,187.7z"/>
												<path class="st16" d="M498.6,181.8c0.1,0,0.2,0,0.3,0.1l10.2,3.1c0.6,0.2,0.8,0.7,0.7,1.3c-0.1,0.4-0.6,0.7-1,0.7
													c-0.1,0-0.2,0-0.3-0.1l-10.2-3.1c-0.6-0.2-0.8-0.7-0.7-1.3l0,0C497.7,182.1,498.2,181.8,498.6,181.8 M498.6,180.2
													L498.6,180.2c-1.2,0-2.2,0.7-2.5,1.8c-0.4,1.4,0.4,2.8,1.7,3.2l10.2,3.1c0.2,0.1,0.5,0.1,0.8,0.1c1.2,0,2.2-0.7,2.5-1.8
													c0.2-0.7,0.1-1.4-0.2-2s-0.9-1.1-1.6-1.3l-10.2-3.1C499.1,180.2,498.9,180.2,498.6,180.2L498.6,180.2z"/>
											</g>
											<g>
												<path class="st19" d="M507.7,191.2c-0.2,0-0.4,0-0.5-0.1L497,188c-0.5-0.1-0.8-0.4-1.1-0.9c-0.2-0.4-0.3-0.9-0.1-1.4
													c0.2-0.8,0.9-1.3,1.7-1.3c0.2,0,0.4,0,0.5,0.1l10.2,3.1c0.5,0.1,0.8,0.4,1.1,0.9s0.3,0.9,0.1,1.4
													C509.2,190.7,508.6,191.2,507.7,191.2z"/>
												<path class="st16" d="M497.5,185.2c0.1,0,0.2,0,0.3,0.1l10.2,3.1c0.6,0.2,0.8,0.7,0.7,1.3l0,0c-0.1,0.4-0.6,0.7-1,0.7
													c-0.1,0-0.2,0-0.3-0.1l-10.2-3.1c-0.6-0.2-0.8-0.7-0.7-1.3C496.7,185.5,497.1,185.2,497.5,185.2 M497.5,183.7
													L497.5,183.7c-1.2,0-2.2,0.7-2.5,1.8c-0.4,1.4,0.4,2.8,1.7,3.2l10.2,3.1c0.2,0.1,0.5,0.1,0.8,0.1c1.2,0,2.2-0.7,2.5-1.8
													c0.4-1.4-0.4-2.8-1.7-3.2l-10.2-3.1C498.1,183.7,497.8,183.7,497.5,183.7L497.5,183.7z"/>
											</g>
											<g>
												<path class="st19" d="M506.7,194.7c-0.2,0-0.4,0-0.5-0.1l-10.2-3.1c-0.5-0.1-0.8-0.4-1.1-0.9c-0.2-0.4-0.3-0.9-0.1-1.4
													c0.2-0.8,0.9-1.3,1.7-1.3c0.2,0,0.4,0,0.5,0.1l10.2,3.1c0.5,0.1,0.8,0.4,1.1,0.9s0.3,0.9,0.1,1.4
													C508.2,194.1,507.5,194.7,506.7,194.7z"/>
												<path class="st16" d="M496.5,188.7c0.1,0,0.2,0,0.3,0.1l10.2,3.1c0.6,0.2,0.8,0.7,0.7,1.3c-0.1,0.4-0.6,0.7-1,0.7
													c-0.1,0-0.2,0-0.3-0.1l-10.2-3.1c-0.6-0.2-0.8-0.7-0.7-1.3C495.6,189,496.1,188.7,496.5,188.7 M496.5,187.1L496.5,187.1
													c-1.2,0-2.2,0.7-2.5,1.8c-0.4,1.4,0.4,2.8,1.7,3.2l10.2,3.1c0.2,0.1,0.5,0.1,0.8,0.1c1.2,0,2.2-0.7,2.5-1.8
													c0.2-0.7,0.1-1.4-0.2-2c-0.3-0.6-0.9-1.1-1.6-1.3l-10.2-3.1C497,187.2,496.7,187.1,496.5,187.1L496.5,187.1z"/>
											</g>
											<g>
												<path class="st19" d="M505.6,198.1c-0.2,0-0.4,0-0.5-0.1l-10.2-3.1c-0.5-0.1-0.8-0.4-1.1-0.9c-0.2-0.4-0.3-0.9-0.1-1.4
													c0.2-0.8,0.9-1.3,1.7-1.3c0.2,0,0.4,0,0.5,0.1l10.2,3.1c0.5,0.1,0.8,0.4,1.1,0.9c0.2,0.4,0.3,0.9,0.1,1.4
													C507.1,197.6,506.4,198.1,505.6,198.1z"/>
												<path class="st16" d="M495.4,192.2c0.1,0,0.2,0,0.3,0.1l10.2,3.1c0.6,0.2,0.8,0.7,0.7,1.3c-0.1,0.4-0.6,0.7-1,0.7
													c-0.1,0-0.2,0-0.3-0.1l-10.2-3.1c-0.6-0.2-0.8-0.7-0.7-1.3C494.6,192.5,495,192.2,495.4,192.2 M495.4,190.6L495.4,190.6
													c-1.2,0-2.2,0.7-2.5,1.8c-0.2,0.7-0.1,1.4,0.2,2s0.9,1.1,1.6,1.3l10.2,3.1c0.2,0.1,0.5,0.1,0.8,0.1
													c1.2,0,2.2-0.7,2.5-1.8c0.2-0.7,0.1-1.4-0.2-2c-0.3-0.6-0.9-1.1-1.6-1.3l-10.2-3.1C496,190.6,495.7,190.6,495.4,190.6
													L495.4,190.6z"/>
											</g>
										</g>
									</g>
								</g>
							</g>
						</g>
						<g>
							<defs>
								<path id="SVGID_8_" d="M623.8,192.2c-0.7-8.5-5-13.2-13.4-14.8L583,174l-13-17.6c-2.4-3.7-6.5-5.9-10.9-5.9h-69.5
									c-5.1,0-9.9,2.3-13.1,6.3l-15.3,19c-1.7,2.1-2.8,4.5-3.3,7.1l-3.8,18.6c-0.6,2.9,0.8,5.8,3.4,7.2l0.2,0.1
									c2.3,1.2,4.7,2,7.3,2.4c-2.2-8.3,2.7-16.8,10.9-19.1c8.3-2.2,16.8,2.7,19.1,10.9c0.8,2.9,0.7,6-0.2,8.9l89,1.7
									c-2.5-8.2,2.2-16.9,10.4-19.4s16.9,2.2,19.4,10.4c0.9,3.1,0.9,6.3-0.1,9.3c6.1-1,10.5-6.2,10.5-12.4L623.8,192.2z"/>
							</defs>
							<clipPath id="SVGID_9_">
								<use xlink:href="#SVGID_8_"  style="overflow:visible;"/>
							</clipPath>
							<g class="st20">
								<g>
									<g>
										<path class="st21" d="M542.7,192.2l2.7-14.6l4.2-1.1l8.4,12.4l-4.1,2.3l-1.7-2.9l-4.1,1.1l-0.4,3.4L542.7,192.2z
											 M548.5,184.4l1.1-0.3l-0.9-1.6L548.5,184.4z"/>
										<path class="st16" d="M549.4,176.9l8,11.8l-3.4,1.9l-1.7-2.8l-4.7,1.3l-0.3,3.2l-4.1-0.5l2.6-14L549.4,176.9 M548,185
											l2.2-0.6l-1.8-3.1L548,185 M549.7,175.9l-0.6,0.2l-3.7,1l-0.5,0.1l-0.1,0.5l-2.6,14l-0.2,0.8l0.8,0.1l4.1,0.5l0.8,0.1
											l0.1-0.8l0.3-2.7l3.6-1l1.4,2.3l0.4,0.7l0.7-0.4l3.4-1.9l0.7-0.4l-0.5-0.7l-8-11.8L549.7,175.9L549.7,175.9z M548.9,183.9
											l0-0.1l0.1,0.1L548.9,183.9L548.9,183.9z"/>
									</g>
									<g>
										<polygon class="st21" points="527.4,182.6 531.8,181.4 533.2,186.2 536.6,185.6 535.1,180.5 539.5,179.2 543.8,194 
											539.4,195.2 537.9,190 534.4,190.6 536,196.1 531.5,197.3 										"/>
										<path class="st16" d="M539.3,179.7l4.1,14.1l-3.7,1l-1.5-5.1l-4.2,0.7l1.6,5.5l-3.7,1l-3.9-13.9l3.7-1l1.3,4.8l4.2-0.7
											l-1.5-5.1L539.3,179.7 M539.8,178.7l-0.8,0.2l-3.6,1.1l-0.7,0.2l0.2,0.7l1.2,4.3l-2.6,0.4l-1.2-4.1l-0.2-0.8l-0.8,0.2
											l-3.7,1.1l-0.8,0.2l0.2,0.8L531,197l0.2,0.8l0.8-0.2l3.7-1l0.8-0.2l-0.2-0.8l-1.3-4.6l2.7-0.4l1.3,4.5l0.2,0.7l0.8-0.2
											l3.7-1l0.8-0.2l-0.2-0.8l-4.1-14.1L539.8,178.7L539.8,178.7z"/>
									</g>
								</g>
								<g>
									<g>
										<path class="st21" d="M575.1,198.3l0-2.6l-3-0.8l-1.5,2.1l-3.2-2.3l7.4-8.7l3.3,0.9l0.8,11.5L575.1,198.3z M575,191.9v-1
											l-0.6,0.8L575,191.9z"/>
										<path class="st16" d="M574.9,186.4l2.8,0.7l0.8,10.8l-3-0.1l0-2.5l-3.6-0.9l-1.5,2l-2.5-1.9L574.9,186.4 M575.4,192.4
											l0-2.7l-1.7,2.2L575.4,192.4 M574.7,185.5l-0.3,0.4l-7,8.2l-0.6,0.6l0.7,0.5l2.5,1.9l0.6,0.5l0.5-0.6l1.2-1.6l2.5,0.6
											l0,1.9v0.8h0.8l3,0.1h0.9l-0.1-0.9l-0.8-10.8l0-0.6l-0.6-0.2l-2.8-0.7L574.7,185.5L574.7,185.5z"/>
									</g>
									<g>
										<polygon class="st21" points="564.1,195.5 565.1,191.5 562.8,190.6 561.7,194.8 558.1,193.8 561,182.5 564.6,183.4 
											563.7,187.1 566,187.9 566.9,184 570.5,184.9 567.6,196.4 										"/>
										<path class="st16" d="M561.3,183l2.8,0.7l-0.9,3.7l3,1.1l1-4l2.8,0.7l-2.7,10.8l-2.8-0.7l1-4l-3.1-1.1l-1.1,4.2l-2.8-0.7
											L561.3,183 M560.8,182l-0.2,0.8l-2.7,10.6l-0.2,0.8l0.8,0.2l2.8,0.7l0.8,0.2l0.2-0.8l0.8-3.3l1.6,0.6l-0.8,3.3l-0.2,0.8
											l0.8,0.2l2.8,0.7l0.8,0.2l0.2-0.8l2.7-10.8l0.2-0.8l-0.8-0.2l-2.8-0.7l-0.8-0.2l-0.2,0.8l-0.8,3.1l-1.5-0.6l0.8-3l0.2-0.8
											l-0.8-0.2l-2.8-0.7L560.8,182L560.8,182z"/>
									</g>
								</g>
								<g>
									<g>
										<path class="st21" d="M560.6,206.4l-3.4-0.5l-1.4,2.5l-3.7-2.1L559,196l3.7,0.5l2.3,12.4l-4.1,0.4L560.6,206.4z
											 M560,202.4l-0.2-1.2l-0.6,1.1L560,202.4z"/>
										<path class="st16" d="M559.2,196.4l3.1,0.4l2.2,11.7l-3.2,0.3l-0.4-2.7l-4-0.6l-1.3,2.4l-3-1.7L559.2,196.4 M560.5,202.8
											l-0.4-2.9l-1.5,2.7L560.5,202.8 M558.8,195.5l-0.3,0.4l-6.6,9.8l-0.5,0.7l0.7,0.4l3,1.7l0.7,0.4l0.4-0.7l1.1-1.9l2.9,0.4
											l0.3,2.1l0.1,0.8l0.8-0.1l3.2-0.3l0.8-0.1l-0.2-0.8l-2.2-11.7l-0.1-0.6l-0.6-0.1l-3.1-0.4L558.8,195.5L558.8,195.5z"/>
									</g>
									<g>
										<polygon class="st21" points="548.6,207.6 549.1,203.1 546.4,202.5 545.8,207.2 541.9,206.6 543.6,193.9 547.5,194.4 
											546.9,198.6 549.6,199.2 550.2,194.8 554.1,195.3 552.5,208.2 										"/>
										<path class="st16" d="M543.9,194.4l3.1,0.4l-0.6,4.1l3.5,0.8l0.6-4.4l3.2,0.3l-1.5,12.1l-3.1-0.4l0.6-4.4l-3.5-0.8
											l-0.6,4.7l-3.1-0.4L543.9,194.4 M543.2,193.5l-0.1,0.8l-1.6,11.9l-0.1,0.8l0.8,0.1l3.1,0.4l0.8,0.1l0.1-0.8l0.5-3.8
											l1.9,0.5l-0.5,3.7l-0.1,0.8l0.8,0.1l3.1,0.4l0.8,0.1l0.1-0.8l1.5-12.1l0.1-0.8l-0.8-0.1l-3.2-0.3l-0.8-0.1l-0.1,0.8
											l-0.4,3.6l-1.9-0.4l0.4-3.4l0.1-0.8l-0.8-0.1l-3.1-0.4L543.2,193.5L543.2,193.5z"/>
									</g>
								</g>
							</g>
						</g>
						<g>
							<defs>
								<path id="SVGID_10_" d="M623.8,192.2c-0.7-8.5-5-13.2-13.4-14.8L583,174l-13-17.6c-2.4-3.7-6.5-5.9-10.9-5.9h-69.5
									c-5.1,0-9.9,2.3-13.1,6.3l-15.3,19c-1.7,2.1-2.8,4.5-3.3,7.1l-3.8,18.6c-0.6,2.9,0.8,5.8,3.4,7.2l0.2,0.1
									c2.3,1.2,4.7,2,7.3,2.4c-2.2-8.3,2.7-16.8,10.9-19.1c8.3-2.2,16.8,2.7,19.1,10.9c0.8,2.9,0.7,6-0.2,8.9l89,1.7
									c-2.5-8.2,2.2-16.9,10.4-19.4s16.9,2.2,19.4,10.4c0.9,3.1,0.9,6.3-0.1,9.3c6.1-1,10.5-6.2,10.5-12.4L623.8,192.2z"/>
							</defs>
							<clipPath id="SVGID_11_">
								<use xlink:href="#SVGID_10_"  style="overflow:visible;"/>
							</clipPath>
							<g class="st22">
								<path class="st15" d="M496.5,191.9c-0.2-0.1-0.3,0-0.3,0.1l0,0l-0.4,1.3l-1,3.4c-0.6,2.1-0.1,4.4,1.5,6.5
									c1.5,2,3.8,3.7,6.6,4.7l-1.3,4.4l0,0c-0.1,0.2,0.1,0.4,0.4,0.5l0,0l1.6,0.5l0,0c0.3,0.1,0.5,0,0.6-0.2l0,0l1.3-4.4
									c2.9,0.6,5.7,0.5,8.1-0.3c2.5-0.9,4.2-2.5,4.9-4.6l0.9-3.1l0.1-0.3l0.4-1.3l0,0c0-0.1-0.1-0.2-0.2-0.3L496.5,191.9z
									 M516.1,203.3c-1.1,3.7-6.5,5.4-12,3.6c-5.1-1.7-8.3-5.9-7.2-9.5l0.9-3l19.2,5.8L516.1,203.3z"/>
								<path class="st17" d="M517.9,180.9l-10-3.1c-1.9-0.6-3.9,0.5-4.5,2.4l-5.4,17.8c-0.6,1.9,0.5,3.9,2.4,4.5l10,3.1
									c1.9,0.6,3.9-0.5,4.5-2.4l5.4-17.8C520.9,183.5,519.8,181.5,517.9,180.9z"/>
								<g>
									<g>
										<defs>
											<path id="SVGID_12_" d="M517.9,180.9l-10-3.1c-1.9-0.6-3.9,0.5-4.5,2.4l-5.4,17.8c-0.6,1.9,0.5,3.9,2.4,4.5l10,3.1
												c1.9,0.6,3.9-0.5,4.5-2.4l5.4-17.8C520.9,183.5,519.8,181.5,517.9,180.9z"/>
										</defs>
										<clipPath id="SVGID_13_">
											<use xlink:href="#SVGID_12_"  style="overflow:visible;"/>
										</clipPath>
										<g class="st23">
											<path class="st19" d="M508.2,182.4L508.2,182.4c-0.6-0.2-0.8-0.7-0.7-1.3l1.9-6.2c0.2-0.6,0.7-0.8,1.3-0.7l0,0
												c0.6,0.2,0.8,0.7,0.7,1.3l-1.9,6.2C509.3,182.3,508.7,182.6,508.2,182.4z"/>
											<path class="st19" d="M511.7,183.5L511.7,183.5c-0.6-0.2-0.8-0.7-0.7-1.3l1.9-6.2c0.2-0.6,0.7-0.8,1.3-0.7l0,0
												c0.6,0.2,0.8,0.7,0.7,1.3l-1.9,6.2C512.8,183.3,512.2,183.6,511.7,183.5z"/>
											<path class="st19" d="M515.1,184.5L515.1,184.5c-0.6-0.2-0.8-0.7-0.7-1.3l1.9-6.2c0.2-0.6,0.7-0.8,1.3-0.7l0,0
												c0.6,0.2,0.8,0.7,0.7,1.3l-1.9,6.2C516.3,184.4,515.7,184.7,515.1,184.5z"/>
											<path class="st19" d="M500.8,206.7L500.8,206.7c-0.6-0.2-0.8-0.7-0.7-1.3l1.9-6.2c0.2-0.6,0.7-0.8,1.3-0.7l0,0
												c0.6,0.2,0.8,0.7,0.7,1.3l-1.9,6.2C501.9,206.5,501.4,206.8,500.8,206.7z"/>
											<path class="st19" d="M504.3,207.7L504.3,207.7c-0.6-0.2-0.8-0.7-0.7-1.3l1.9-6.2c0.2-0.6,0.7-0.8,1.3-0.7l0,0
												c0.6,0.2,0.8,0.7,0.7,1.3l-1.9,6.2C505.4,207.6,504.8,207.9,504.3,207.7z"/>
											<path class="st19" d="M507.8,208.8L507.8,208.8c-0.6-0.2-0.8-0.7-0.7-1.3l1.9-6.2c0.2-0.6,0.7-0.8,1.3-0.7l0,0
												c0.6,0.2,0.8,0.7,0.7,1.3l-1.9,6.2C508.9,208.6,508.3,208.9,507.8,208.8z"/>
											<path class="st19" d="M511.7,186.8L511.7,186.8c0.2-0.6,0.7-0.8,1.3-0.7l10.2,3.1c0.6,0.2,0.8,0.7,0.7,1.3l0,0
												c-0.2,0.6-0.7,0.8-1.3,0.7l-10.2-3.1C511.9,187.9,511.6,187.3,511.7,186.8z"/>
											<path class="st19" d="M510.7,190.3L510.7,190.3c0.2-0.6,0.7-0.8,1.3-0.7l10.2,3.1c0.6,0.2,0.8,0.7,0.7,1.3l0,0
												c-0.2,0.6-0.7,0.8-1.3,0.7l-10.2-3.1C510.8,191.4,510.5,190.8,510.7,190.3z"/>
											<path class="st19" d="M509.6,193.7L509.6,193.7c0.2-0.6,0.7-0.8,1.3-0.7l10.2,3.1c0.6,0.2,0.8,0.7,0.7,1.3l0,0
												c-0.2,0.6-0.7,0.8-1.3,0.7l-10.2-3.1C509.8,194.8,509.5,194.3,509.6,193.7z"/>
											<path class="st19" d="M508.6,197.2L508.6,197.2c0.2-0.6,0.7-0.8,1.3-0.7l10.2,3.1c0.6,0.2,0.8,0.7,0.7,1.3l0,0
												c-0.2,0.6-0.7,0.8-1.3,0.7l-10.2-3.1C508.7,198.3,508.4,197.7,508.6,197.2z"/>
											<path class="st19" d="M497.6,182.5L497.6,182.5c0.2-0.6,0.7-0.8,1.3-0.7l10.2,3.1c0.6,0.2,0.8,0.7,0.7,1.3l0,0
												c-0.2,0.6-0.7,0.8-1.3,0.7l-10.2-3.1C497.7,183.6,497.5,183,497.6,182.5z"/>
											<path class="st19" d="M496.6,186L496.6,186c0.2-0.6,0.7-0.8,1.3-0.7l10.2,3.1c0.6,0.2,0.8,0.7,0.7,1.3l0,0
												c-0.2,0.6-0.7,0.8-1.3,0.7l-10.2-3.1C496.7,187.1,496.4,186.5,496.6,186z"/>
											<path class="st19" d="M495.5,189.4L495.5,189.4c0.2-0.6,0.7-0.8,1.3-0.7l10.2,3.1c0.6,0.2,0.8,0.7,0.7,1.3l0,0
												c-0.2,0.6-0.7,0.8-1.3,0.7l-10.2-3.1C495.6,190.5,495.3,190,495.5,189.4z"/>
											<path class="st19" d="M494.5,192.9L494.5,192.9c0.2-0.6,0.7-0.8,1.3-0.7l10.2,3.1c0.6,0.2,0.8,0.7,0.7,1.3l0,0
												c-0.2,0.6-0.7,0.8-1.3,0.7l-10.2-3.1C494.6,194,494.3,193.4,494.5,192.9z"/>
										</g>
									</g>
								</g>
							</g>
						</g>
						<g>
							<defs>
								<path id="SVGID_14_" d="M623.8,192.2c-0.7-8.5-5-13.2-13.4-14.8L583,174l-13-17.6c-2.4-3.7-6.5-5.9-10.9-5.9h-69.5
									c-5.1,0-9.9,2.3-13.1,6.3l-15.3,19c-1.7,2.1-2.8,4.5-3.3,7.1l-3.8,18.6c-0.6,2.9,0.8,5.8,3.4,7.2l0.2,0.1
									c2.3,1.2,4.7,2,7.3,2.4c-2.2-8.3,2.7-16.8,10.9-19.1c8.3-2.2,16.8,2.7,19.1,10.9c0.8,2.9,0.7,6-0.2,8.9l89,1.7
									c-2.5-8.2,2.2-16.9,10.4-19.4s16.9,2.2,19.4,10.4c0.9,3.1,0.9,6.3-0.1,9.3c6.1-1,10.5-6.2,10.5-12.4L623.8,192.2z"/>
							</defs>
							<clipPath id="SVGID_15_">
								<use xlink:href="#SVGID_14_"  style="overflow:visible;"/>
							</clipPath>
							<g class="st24">
								<path class="st25" d="M453.1,178.7l134.5,9.5c0,0,33.5-10.8,41.1,8.4l-3.2,26.1c0,0-23.7,5-26.4,5s-77.8,0.5-82,0
									c-4.2-0.5-65.9-5-65.9-5l-6.9-26.6L453.1,178.7z"/>
								<path class="st1" d="M483.4,127.6l81,1c3.7,0.1,6.6,3.1,6.6,6.7l-0.2,13c-0.1,3.7-3.1,6.6-6.7,6.6l-81-1
									c-3.7-0.1-6.6-3.1-6.6-6.7l0.2-13C476.7,130.5,479.7,127.5,483.4,127.6z"/>
							</g>
						</g>
					</g>
				</g>
			</g>
			
				<linearGradient id="SVGID_16_" gradientUnits="userSpaceOnUse" x1="525.8249" y1="202.1591" x2="569.0314" y2="202.1591" gradientTransform="matrix(1 0 0 1 0 -36)">
				<stop  offset="0" style="stop-color:#C9E7F9"/>
				<stop  offset="1" style="stop-color:#AAFFF9"/>
			</linearGradient>
			<path class="st26" d="M564.9,176.2l-35-0.8c-2.2-0.1-4-1.9-4-4.1v-11c0-2.3,1.8-4.1,4.1-4.1c0.1,0,0.1,0,0.1,0l27.2,0.8
				c1.3,0.1,2.5,0.7,3.2,1.7l7.8,11c1.3,1.8,0.9,4.4-0.9,5.7C566.6,175.9,565.7,176.2,564.9,176.2z"/>
			
				<linearGradient id="SVGID_17_" gradientUnits="userSpaceOnUse" x1="482.6019" y1="201.9882" x2="521.3621" y2="201.9882" gradientTransform="matrix(1 0 0 1 0 -36)">
				<stop  offset="0" style="stop-color:#C9E7F9"/>
				<stop  offset="1" style="stop-color:#AAFFF9"/>
			</linearGradient>
			<path class="st27" d="M486.4,174.9l30.9,1c2.2,0.1,4-1.6,4-3.8c0-0.1,0-0.1,0-0.1v-12.1c0-2.2-1.7-3.9-3.9-3.9l0,0h-25.8
				c-1.5,0-2.9,0.9-3.6,2.3l-5.1,11.1c-0.9,2-0.1,4.3,1.9,5.2C485.3,174.8,485.9,174.9,486.4,174.9z"/>
			
				<linearGradient id="SVGID_18_" gradientUnits="userSpaceOnUse" x1="565.5901" y1="201.0573" x2="583.0356" y2="201.0573" gradientTransform="matrix(1 0 0 1 0 -36)">
				<stop  offset="0" style="stop-color:#C9E7F9"/>
				<stop  offset="1" style="stop-color:#AAFFF9"/>
			</linearGradient>
			<path class="st28" d="M583,174l-4.2,0.7c-0.8,0.3-1.7,0.1-2.2-0.6l-10.8-15.7c-0.6-0.8-0.3-2,0.5-2.5c0.2-0.2,0.5-0.2,0.7-0.3
				l2-0.3L583,174z"/>
			
				<ellipse transform="matrix(4.205501e-02 -0.9991 0.9991 4.205501e-02 250.1181 679.8881)" class="st29" cx="479.6" cy="209.5" rx="13.3" ry="13.4"/>
			
				<ellipse transform="matrix(4.206159e-02 -0.9991 0.9991 4.206159e-02 250.1151 679.8865)" class="st30" cx="479.6" cy="209.5" rx="12.9" ry="13"/>
			
				<ellipse transform="matrix(4.204250e-02 -0.9991 0.9991 4.204250e-02 250.124 679.8909)" cx="479.6" cy="209.5" rx="9.7" ry="9.8"/>
			
				<ellipse transform="matrix(4.206160e-02 -0.9991 0.9991 4.206160e-02 250.1151 679.8865)" class="st1" cx="479.6" cy="209.5" rx="9.3" ry="9.3"/>
			
				<ellipse transform="matrix(4.205205e-02 -0.9991 0.9991 4.205205e-02 250.1195 679.8887)" class="st31" cx="479.6" cy="209.5" rx="8.8" ry="8.8"/>
			
				<ellipse transform="matrix(4.205205e-02 -0.9991 0.9991 4.205205e-02 250.1195 679.8887)" class="st32" cx="479.6" cy="209.5" rx="5.5" ry="5.5"/>
			
				<ellipse transform="matrix(4.208066e-02 -0.9991 0.9991 4.208066e-02 250.1061 679.8823)" class="st33" cx="479.6" cy="209.5" rx="5" ry="5"/>
			
				<ellipse transform="matrix(4.205205e-02 -0.9991 0.9991 4.205205e-02 364.5341 799.2365)" class="st29" cx="599.1" cy="209.5" rx="13.3" ry="13.4"/>
			
				<ellipse transform="matrix(4.205205e-02 -0.9991 0.9991 4.205205e-02 364.5341 799.2365)" class="st30" cx="599.1" cy="209.5" rx="12.9" ry="13"/>
			
				<ellipse transform="matrix(4.205205e-02 -0.9991 0.9991 4.205205e-02 364.5341 799.2365)" cx="599.1" cy="209.5" rx="9.7" ry="9.8"/>
			
				<ellipse transform="matrix(4.205205e-02 -0.9991 0.9991 4.205205e-02 364.5341 799.2365)" class="st1" cx="599.1" cy="209.5" rx="9.3" ry="9.3"/>
			
				<ellipse transform="matrix(4.205205e-02 -0.9991 0.9991 4.205205e-02 364.5341 799.2365)" class="st31" cx="599.1" cy="209.5" rx="8.8" ry="8.8"/>
			
				<ellipse transform="matrix(4.205205e-02 -0.9991 0.9991 4.205205e-02 364.5341 799.2365)" class="st32" cx="599.1" cy="209.5" rx="5.5" ry="5.5"/>
			
				<ellipse transform="matrix(4.205205e-02 -0.9991 0.9991 4.205205e-02 364.5341 799.2365)" class="st33" cx="599.1" cy="209.5" rx="5" ry="5"/>
			
				<linearGradient id="SVGID_19_" gradientUnits="userSpaceOnUse" x1="452.0332" y1="239.2223" x2="460.6858" y2="239.2223" gradientTransform="matrix(1 0 0 1 -2.844527e-03 -35.9988)">
				<stop  offset="0" style="stop-color:#999999"/>
				<stop  offset="1" style="stop-color:#FFFFFF"/>
			</linearGradient>
			<path class="st34" d="M454.1,201.1l5,0.7c1,0.1,1.7,1.1,1.6,2.1l0,0c-0.1,1-1.1,1.7-2.1,1.6l-5-0.7c-1-0.1-1.7-1.1-1.6-2.1l0,0
				C452.2,201.6,453.1,200.9,454.1,201.1z"/>
			
				<linearGradient id="SVGID_20_" gradientUnits="userSpaceOnUse" x1="943.4554" y1="-924.7591" x2="952.129" y2="-924.7591" gradientTransform="matrix(0.99 -7.000000e-02 0.13 0.51 -285.95 719.0599)">
				<stop  offset="0" style="stop-color:#999999"/>
				<stop  offset="1" style="stop-color:#FFFFFF"/>
			</linearGradient>
			<path class="st35" d="M527.5,180.5h7.3c0.4,0,0.7,0.3,0.7,0.7l0,0c0,0.4-0.3,0.7-0.7,0.7h-7.3c-0.4,0-0.7-0.3-0.7-0.7l0,0
				C526.7,180.8,527.1,180.5,527.5,180.5z"/>
			
				<linearGradient id="SVGID_21_" gradientUnits="userSpaceOnUse" x1="899.0393" y1="-930.8629" x2="907.713" y2="-930.8629" gradientTransform="matrix(0.99 -7.000000e-02 0.13 0.51 -285.95 719.0599)">
				<stop  offset="0" style="stop-color:#999999"/>
				<stop  offset="1" style="stop-color:#FFFFFF"/>
			</linearGradient>
			<path class="st36" d="M482.6,180.5h7.3c0.4,0,0.7,0.3,0.7,0.7l0,0c0,0.4-0.3,0.7-0.7,0.7h-7.3c-0.4,0-0.7-0.3-0.7-0.7l0,0
				C481.9,180.8,482.2,180.5,482.6,180.5z"/>
			
				<linearGradient id="SVGID_22_" gradientUnits="userSpaceOnUse" x1="-2395.1362" y1="197.297" x2="-2386.2534" y2="197.297" gradientTransform="matrix(10.3026 7.600001e-02 1.3806 0.998 24899.4023 194.1876)">
				<stop  offset="0" style="stop-color:#999999"/>
				<stop  offset="1" style="stop-color:#FFFFFF"/>
			</linearGradient>
			<path class="st37" d="M496.1,206.7l86.8,1.7c1,0,1.8,0.8,1.8,1.8l0,0c0,1-0.8,1.8-1.8,1.8l-86.8-1.7c-1,0-1.8-0.8-1.8-1.8l0,0
				C494.3,207.5,495.1,206.7,496.1,206.7z"/>
			
				<linearGradient id="SVGID_23_" gradientUnits="userSpaceOnUse" x1="615.7275" y1="242.2585" x2="624.1641" y2="242.2585" gradientTransform="matrix(1 0 0 1 0 -36)">
				<stop  offset="0" style="stop-color:#999999"/>
				<stop  offset="1" style="stop-color:#FFFFFF"/>
			</linearGradient>
			<path class="st38" d="M617.4,204.5h5c0.9,0,1.7,0.8,1.7,1.7l0,0c0,0.9-0.8,1.7-1.7,1.7h-5c-0.9,0-1.7-0.8-1.7-1.7l0,0
				C615.7,205.3,616.5,204.5,617.4,204.5z"/>
			
				<linearGradient id="SVGID_24_" gradientUnits="userSpaceOnUse" x1="355.4238" y1="-160.5277" x2="358.8511" y2="-160.5277" gradientTransform="matrix(0.991 0.1342 -0.1342 0.991 248.3195 315.8059)">
				<stop  offset="0" style="stop-color:#999999"/>
				<stop  offset="1" style="stop-color:#FFFFFF"/>
			</linearGradient>
			<path class="st39" d="M624.5,199.3L624.5,199.3c0.9,0.1,1.6,1,1.5,1.9l-1,7.3c-0.1,0.9-1,1.6-1.9,1.5l0,0c-0.9-0.1-1.6-1-1.5-1.9
				l1-7.3C622.7,199.8,623.6,199.2,624.5,199.3z"/>
			
				<linearGradient id="SVGID_25_" gradientUnits="userSpaceOnUse" x1="622.0547" y1="223.7692" x2="625.4821" y2="223.8377" gradientTransform="matrix(1 0 0 1 0 -36)">
				<stop  offset="0.55" style="stop-color:#FFFFFF"/>
				<stop  offset="1" style="stop-color:#FFF994"/>
			</linearGradient>
			<path class="st40" d="M623.8,182.4L623.8,182.4c0.9,0,1.7,0.8,1.7,1.7v7.4c0,0.9-0.8,1.7-1.7,1.7l0,0c-0.9,0-1.7-0.8-1.7-1.7
				v-7.4C622.1,183.2,622.8,182.4,623.8,182.4z"/>
			
				<linearGradient id="SVGID_26_" gradientUnits="userSpaceOnUse" x1="615.2002" y1="223.8035" x2="623.6368" y2="223.8035" gradientTransform="matrix(1 0 0 1 0 -36)">
				<stop  offset="0" style="stop-color:#FFFFFF"/>
				<stop  offset="1" style="stop-color:#A1A1A1"/>
			</linearGradient>
			<polygon class="st41" points="615.2,191.4 623.6,193.2 623.6,182.4 615.2,184.5 			"/>
			
				<linearGradient id="SVGID_27_" gradientUnits="userSpaceOnUse" x1="463.8686" y1="200.663" x2="478.5965" y2="200.663" gradientTransform="matrix(1 0 0 1 0 -36)">
				<stop  offset="0" style="stop-color:#C9E7F9"/>
				<stop  offset="1" style="stop-color:#AAFFF9"/>
			</linearGradient>
			<path class="st42" d="M477.1,156l0.4,0.1c0.9,0.4,1.3,1.5,0.9,2.4c-0.1,0.2-0.2,0.3-0.3,0.4l-11,13.7c-0.4,0.5-1,0.7-1.6,0.7
				l-1.6-0.9L477.1,156z"/>
		</g>
	</g>
</g>
</svg>
