<svg xmlns="http://www.w3.org/2000/svg" width="379.221" height="330.318" viewBox="0 0 379.221 330.318">
  <g id="Layer_2" data-name="Layer 2">
    <g id="Layer_4" data-name="Layer 4">
      <g>
        <g>
          <g>
            <path d="M107.729,120.969a67,67,0,0,0-67,67v97h134v-97A67,67,0,0,0,107.729,120.969Z" fill="#e5d015"/>
            <path d="M159.729,67.969a52,52,0,1,0-64,50.593v10.859a6.629,6.629,0,0,0,2.951,5.516l4.122,2.747a8.881,8.881,0,0,0,9.853,0l4.122-2.747a6.63,6.63,0,0,0,2.952-5.516V118.562A52.011,52.011,0,0,0,159.729,67.969Z" fill="#6d3d18"/>
            <path d="M87.729,34.969s-7.553,27.544-32,30c1.447-31.456,21-47,44.914-50.5,34.086-2.5,58.086,26.5,58.086,43.5C132.789,63.7,106.6,44.219,87.729,34.969Z" fill="#281200"/>
          </g>
          <g>
            <path d="M279.729,120.969a67,67,0,0,0-67,67v97h134v-97A67,67,0,0,0,279.729,120.969Z" fill="#13949e"/>
            <path d="M331.729,67.969a52,52,0,1,0-64,50.593v10.859a6.629,6.629,0,0,0,2.951,5.516l4.122,2.747a8.881,8.881,0,0,0,9.853,0l4.122-2.747a6.63,6.63,0,0,0,2.952-5.516V118.562A52.011,52.011,0,0,0,331.729,67.969Z" fill="#e0a361"/>
            <path d="M259.729,34.969s-7.553,27.544-32,30c1.447-31.456,21-47,44.914-50.5,34.086-2.5,58.086,26.5,58.086,43.5C304.789,63.7,278.6,44.219,259.729,34.969Z" fill="#4c2200"/>
          </g>
          <g>
            <path d="M193.729,165.969a67,67,0,0,0-67,67v97h134v-97A67,67,0,0,0,193.729,165.969Z" fill="#1153a3"/>
            <path d="M245.729,112.969a52,52,0,1,0-64,50.593v10.859a6.629,6.629,0,0,0,2.951,5.516l4.122,2.747a8.881,8.881,0,0,0,9.853,0l4.122-2.747a6.63,6.63,0,0,0,2.952-5.516V163.562A52.011,52.011,0,0,0,245.729,112.969Z" fill="#ffbf8a"/>
            <path d="M173.729,79.969s-7.553,27.544-32,30c1.447-31.456,21-47,44.914-50.5,34.086-2.5,58.086,26.5,58.086,43.5C218.789,108.7,192.6,89.219,173.729,79.969Z" fill="#34383d"/>
          </g>
          <g>
            <path d="M293.69,227.556a56.281,56.281,0,0,0-56.281,56.281v46.481H349.971V283.837A56.281,56.281,0,0,0,293.69,227.556Z" fill="#a01f12"/>
            <path d="M337.371,183.036a43.681,43.681,0,1,0-53.761,42.5v9.123a5.569,5.569,0,0,0,2.479,4.633l3.463,2.308a7.462,7.462,0,0,0,8.276,0l3.463-2.308a5.569,5.569,0,0,0,2.479-4.633v-9.123A43.688,43.688,0,0,0,337.371,183.036Z" fill="#aa7146"/>
            <path d="M276.89,155.315s-6.345,23.138-26.881,25.2c1.216-26.423,17.641-39.481,37.729-42.42,28.632-2.1,48.793,22.26,48.793,36.54C314.741,179.451,292.74,163.086,276.89,155.315Z" fill="#421e00"/>
          </g>
          <g>
            <path d="M93.767,227.556a56.281,56.281,0,0,0-56.281,56.281v46.481H150.048V283.837A56.281,56.281,0,0,0,93.767,227.556Z" fill="#34383d"/>
            <path d="M137.448,183.036a43.681,43.681,0,1,0-53.761,42.5v9.123a5.569,5.569,0,0,0,2.479,4.633l3.463,2.308a7.462,7.462,0,0,0,8.276,0l3.463-2.308a5.569,5.569,0,0,0,2.479-4.633v-9.123A43.688,43.688,0,0,0,137.448,183.036Z" fill="#ffdbc0"/>
            <path d="M76.967,155.315s-6.345,23.138-26.88,25.2c1.215-26.423,17.64-39.481,37.728-42.42,28.632-2.1,48.793,22.26,48.793,36.54C114.818,179.451,92.817,163.086,76.967,155.315Z" fill="#6d3400"/>
          </g>
        </g>
        <g>
          <path d="M188.957,115.21l-.564-1.061a.667.667,0,0,0-.4-.326l-20.814-6.16a.667.667,0,0,0-.829.45l-.63,2.129a.666.666,0,0,0,.45.828l12.9,3.817a.667.667,0,0,1-.011,1.282l-12.907,3.575a.666.666,0,0,0-.465.82l.593,2.14a.665.665,0,0,0,.82.464l20.891-5.786a.67.67,0,0,0,.428-.364l.558-1.217A.668.668,0,0,0,188.957,115.21Z" fill="#34383d"/>
          <path d="M199.432,115.21l.563-1.061a.667.667,0,0,1,.4-.326l20.815-6.16a.666.666,0,0,1,.828.45l.63,2.129a.666.666,0,0,1-.45.828l-12.9,3.817a.667.667,0,0,0,.012,1.282l12.907,3.575a.666.666,0,0,1,.464.82l-.593,2.14a.665.665,0,0,1-.82.464l-20.89-5.786a.668.668,0,0,1-.428-.364l-.559-1.217A.668.668,0,0,1,199.432,115.21Z" fill="#34383d"/>
          <path d="M167.045,135.969c0,.1-.009.2-.009.3,0,11.677,12.171,21.143,27.184,21.143s27.185-9.466,27.185-21.143c0-.1-.008-.2-.009-.3Z" fill="#34383d"/>
        </g>
        <g>
          <path d="M274.957,72.21l-.564-1.061a.667.667,0,0,0-.4-.326l-20.814-6.16a.667.667,0,0,0-.829.45l-.63,2.129a.666.666,0,0,0,.45.828l12.9,3.817a.667.667,0,0,1-.011,1.282l-12.907,3.575a.666.666,0,0,0-.465.82l.593,2.14a.665.665,0,0,0,.82.464l20.891-5.786a.67.67,0,0,0,.428-.364l.558-1.217A.668.668,0,0,0,274.957,72.21Z" fill="#34383d"/>
          <path d="M285.432,72.21,286,71.149a.667.667,0,0,1,.4-.326l20.815-6.16a.666.666,0,0,1,.828.45l.63,2.129a.666.666,0,0,1-.45.828l-12.9,3.817a.667.667,0,0,0,.012,1.282l12.907,3.575a.666.666,0,0,1,.464.82l-.593,2.14a.665.665,0,0,1-.82.464L286.4,74.382a.668.668,0,0,1-.428-.364l-.559-1.217A.668.668,0,0,1,285.432,72.21Z" fill="#34383d"/>
          <path d="M253.045,92.969c0,.1-.009.2-.009.3,0,11.677,12.171,21.143,27.184,21.143S307.4,104.944,307.4,93.267c0-.1-.008-.2-.009-.3Z" fill="#34383d"/>
        </g>
        <g>
          <path d="M101.957,72.21l-.564-1.061a.667.667,0,0,0-.4-.326l-20.814-6.16a.667.667,0,0,0-.829.45l-.63,2.129a.666.666,0,0,0,.45.828l12.9,3.817a.667.667,0,0,1-.011,1.282L79.149,76.744a.666.666,0,0,0-.465.82l.593,2.14a.665.665,0,0,0,.82.464l20.891-5.786a.67.67,0,0,0,.428-.364l.558-1.217A.668.668,0,0,0,101.957,72.21Z" fill="#34383d"/>
          <path d="M112.432,72.21,113,71.149a.667.667,0,0,1,.4-.326l20.815-6.16a.666.666,0,0,1,.828.45l.63,2.129a.666.666,0,0,1-.45.828l-12.9,3.817a.667.667,0,0,0,.012,1.282l12.907,3.575a.666.666,0,0,1,.464.82l-.593,2.14a.665.665,0,0,1-.82.464L113.4,74.382a.668.668,0,0,1-.428-.364l-.559-1.217A.668.668,0,0,1,112.432,72.21Z" fill="#34383d"/>
          <path d="M80.045,92.969c0,.1-.009.2-.009.3,0,11.677,12.171,21.143,27.184,21.143s27.185-9.466,27.185-21.143c0-.1-.008-.2-.009-.3Z" fill="#34383d"/>
        </g>
        <g>
          <path d="M89.658,183.529l-.488-.919a.579.579,0,0,0-.346-.282L70.8,176.993a.576.576,0,0,0-.717.389l-.546,1.844a.578.578,0,0,0,.39.718l11.169,3.305a.577.577,0,0,1-.01,1.11l-11.178,3.1a.579.579,0,0,0-.4.711l.513,1.853a.578.578,0,0,0,.711.4l18.092-5.011a.577.577,0,0,0,.371-.316l.483-1.053A.576.576,0,0,0,89.658,183.529Z" fill="#34383d"/>
          <path d="M98.73,183.529l.488-.919a.582.582,0,0,1,.346-.282l18.027-5.335a.578.578,0,0,1,.718.389l.545,1.844a.578.578,0,0,1-.389.718l-11.17,3.305a.577.577,0,0,0,.01,1.11l11.178,3.1a.578.578,0,0,1,.4.711l-.514,1.853a.577.577,0,0,1-.71.4L99.569,185.41a.575.575,0,0,1-.37-.316l-.484-1.053A.58.58,0,0,1,98.73,183.529Z" fill="#34383d"/>
          <path d="M70.682,201.507c0,.086-.009.172-.009.258,0,10.113,10.541,18.312,23.544,18.312s23.544-8.2,23.544-18.312c0-.086-.007-.172-.009-.258Z" fill="#34383d"/>
        </g>
        <g>
          <path d="M288.658,183.991l-.488-.919a.577.577,0,0,0-.346-.283L269.8,177.454a.577.577,0,0,0-.717.39l-.546,1.844a.577.577,0,0,0,.39.717l11.169,3.306a.577.577,0,0,1-.01,1.11l-11.178,3.1a.577.577,0,0,0-.4.71l.513,1.854a.578.578,0,0,0,.711.4l18.092-5.012a.575.575,0,0,0,.371-.315l.483-1.054A.574.574,0,0,0,288.658,183.991Z" fill="#34383d"/>
          <path d="M297.73,183.991l.488-.919a.58.58,0,0,1,.346-.283l18.027-5.335a.578.578,0,0,1,.718.39l.545,1.844a.576.576,0,0,1-.389.717l-11.17,3.306a.577.577,0,0,0,.01,1.11l11.178,3.1a.577.577,0,0,1,.4.71l-.514,1.854a.577.577,0,0,1-.71.4l-18.093-5.012a.573.573,0,0,1-.37-.315l-.484-1.054A.578.578,0,0,1,297.73,183.991Z" fill="#34383d"/>
          <path d="M269.682,201.969c0,.086-.009.171-.009.258,0,10.113,10.541,18.311,23.544,18.311s23.544-8.2,23.544-18.311c0-.087-.007-.172-.009-.258Z" fill="#34383d"/>
        </g>
        <g>
          <g>
            <path d="M15.761,146.034a4.146,4.146,0,0,1-1.2-.181,4.033,4.033,0,0,1-2.434-2L2,124.99a4.1,4.1,0,0,1,1.679-5.57,3.956,3.956,0,0,1,3.134-.306,4.079,4.079,0,0,1,2.4,2l3.016,5.619,7.734-4.152-3.016-5.62a4.093,4.093,0,1,1,7.213-3.872L34.29,131.958a4.074,4.074,0,0,1,.343,3.106,3.965,3.965,0,0,1-1.986,2.444,4.067,4.067,0,0,1-1.939.5,4.139,4.139,0,0,1-1.2-.181,4.031,4.031,0,0,1-2.434-2l-3.386-6.306-7.734,4.151,3.386,6.307a4.076,4.076,0,0,1,.343,3.1,3.97,3.97,0,0,1-1.988,2.446A4.066,4.066,0,0,1,15.761,146.034Z" fill="#fff"/>
            <path d="M20.545,112.4a2.617,2.617,0,0,1,2.3,1.4l10.127,18.865a2.553,2.553,0,0,1,.224,1.982,2.459,2.459,0,0,1-1.256,1.537,2.568,2.568,0,0,1-1.228.323,2.632,2.632,0,0,1-.764-.117,2.52,2.52,0,0,1-1.545-1.272l-4.1-7.629-10.377,5.571,4.1,7.629a2.557,2.557,0,0,1,.223,1.982,2.457,2.457,0,0,1-1.255,1.537,2.571,2.571,0,0,1-1.228.323,2.632,2.632,0,0,1-.764-.117,2.513,2.513,0,0,1-1.546-1.272L3.324,124.28a2.6,2.6,0,0,1,1.066-3.538,2.524,2.524,0,0,1,1.208-.319,2.617,2.617,0,0,1,2.3,1.4l3.726,6.941L22,123.2l-3.727-6.941a2.627,2.627,0,0,1,2.274-3.857m0-3a5.613,5.613,0,0,0-4.917,8.276l2.307,4.3-5.091,2.733-2.307-4.3A5.538,5.538,0,0,0,2.971,118.1a5.6,5.6,0,0,0-2.29,7.6l10.127,18.865a5.5,5.5,0,0,0,3.325,2.726,5.622,5.622,0,0,0,1.628.244,5.545,5.545,0,0,0,2.647-.68,5.436,5.436,0,0,0,2.719-3.351,5.545,5.545,0,0,0-.463-4.23l-2.676-4.985,5.091-2.733,2.676,4.985a5.507,5.507,0,0,0,3.324,2.725,5.635,5.635,0,0,0,1.629.245,5.545,5.545,0,0,0,2.647-.68,5.436,5.436,0,0,0,2.72-3.352,5.54,5.54,0,0,0-.464-4.229L25.484,112.384a5.613,5.613,0,0,0-4.939-2.985Z" fill="#161616"/>
          </g>
          <g>
            <path d="M39.182,133.483a4.033,4.033,0,0,1-1.166-.176,3.877,3.877,0,0,1-2.345-1.914,3.664,3.664,0,0,1-.432-1.635l-1.512-23.88a3.856,3.856,0,0,1,2.013-3.668,4.04,4.04,0,0,1,1.93-.481l.186,0a3.834,3.834,0,0,1,2.144.762l19.087,14.515a4.4,4.4,0,0,1,1.066,1.286,3.883,3.883,0,0,1,.331,2.957,3.778,3.778,0,0,1-1.9,2.33,3.875,3.875,0,0,1-1.842.479c-.108,0-.217-.005-.326-.015a3.92,3.92,0,0,1-2.026-.787l-3.389-2.6-8.223,4.415.294,4.24a3.905,3.905,0,0,1-.493,2.177,3.956,3.956,0,0,1-3.4,1.993Zm3.035-16.513,2.34-1.256-2.574-1.971Z" fill="#fff"/>
            <path d="M37.67,103.228q.061,0,.123,0a2.334,2.334,0,0,1,1.313.468L58.18,118.2a2.828,2.828,0,0,1,.652.8,2.368,2.368,0,0,1,.21,1.834,2.268,2.268,0,0,1-1.163,1.421,2.369,2.369,0,0,1-1.132.3c-.064,0-.129,0-.194-.008a2.438,2.438,0,0,1-1.262-.5l-4.14-3.177L41.22,124.21l.361,5.206a2.406,2.406,0,0,1-.3,1.335,2.462,2.462,0,0,1-2.1,1.233,2.52,2.52,0,0,1-.731-.113,2.362,2.362,0,0,1-1.457-1.187,2.181,2.181,0,0,1-.255-.97l-1.514-23.931a2.309,2.309,0,0,1,.276-1.3,2.269,2.269,0,0,1,.949-.952,2.541,2.541,0,0,1,1.221-.3m3.218,16.158,6.426-3.449-7.067-5.414.641,8.863M37.67,100.228h0a5.538,5.538,0,0,0-2.639.66,5.36,5.36,0,0,0-2.8,5.106l1.511,23.869a5.141,5.141,0,0,0,.608,2.24,5.348,5.348,0,0,0,3.237,2.642,5.53,5.53,0,0,0,1.594.239,5.41,5.41,0,0,0,5.4-5.724l0-.026v-.025l-.227-3.273,6.515-3.5,2.6,2a5.449,5.449,0,0,0,2.83,1.1c.147.013.3.019.452.019A5.345,5.345,0,0,0,59.3,124.9a5.246,5.246,0,0,0,2.628-3.239,5.357,5.357,0,0,0-.451-4.078,5.808,5.808,0,0,0-1.336-1.654l-.07-.061L60,115.815l-19.074-14.5a5.394,5.394,0,0,0-2.995-1.077c-.091,0-.174-.006-.257-.006Z" fill="#161616"/>
          </g>
        </g>
        <g>
          <g>
            <path d="M179.183,36.109a4.083,4.083,0,0,1-1.615-.342,4.1,4.1,0,0,1-2.161-5.4l2.819-6.58-8.069-3.456-2.819,6.58a4.076,4.076,0,0,1-2.212,2.2,4,4,0,0,1-1.537.313,4.079,4.079,0,0,1-1.615-.342,4.1,4.1,0,0,1-2.161-5.4l8.43-19.682a4.129,4.129,0,0,1,3.771-2.5,4.128,4.128,0,0,1,1.63.344A3.971,3.971,0,0,1,175.838,4.1a4.081,4.081,0,0,1-.069,3.127l-2.512,5.862,8.07,3.456,2.511-5.862a4.037,4.037,0,0,1,2.25-2.206,4.08,4.08,0,0,1,1.521-.3,4.123,4.123,0,0,1,1.629.344,3.974,3.974,0,0,1,2.195,2.26,4.078,4.078,0,0,1-.07,3.126l-8.43,19.681a4.073,4.073,0,0,1-2.214,2.2A4.006,4.006,0,0,1,179.183,36.109Z" fill="#fff"/>
            <path d="M172.015,3a2.609,2.609,0,0,1,1.038.223,2.457,2.457,0,0,1,1.386,1.421,2.554,2.554,0,0,1-.049,1.994l-3.1,7.242,10.827,4.638,3.1-7.242a2.519,2.519,0,0,1,1.428-1.4,2.566,2.566,0,0,1,.964-.193,2.614,2.614,0,0,1,1.039.223,2.459,2.459,0,0,1,1.385,1.421,2.561,2.561,0,0,1-.048,2L181.554,33a2.558,2.558,0,0,1-1.411,1.411,2.485,2.485,0,0,1-.959.2,2.587,2.587,0,0,1-1.025-.221,2.6,2.6,0,0,1-1.373-3.43L180.2,23l-10.826-4.638-3.41,7.959a2.556,2.556,0,0,1-1.41,1.411,2.486,2.486,0,0,1-.96.2,2.582,2.582,0,0,1-1.024-.221,2.6,2.6,0,0,1-1.374-3.431L169.622,4.6a2.521,2.521,0,0,1,1.429-1.4A2.566,2.566,0,0,1,172.015,3m0-3a5.584,5.584,0,0,0-2.079.407,5.5,5.5,0,0,0-3.071,3.008L158.434,23.1a5.6,5.6,0,0,0,2.949,7.37,5.588,5.588,0,0,0,2.206.463,5.473,5.473,0,0,0,2.11-.428,5.547,5.547,0,0,0,3.018-3l2.228-5.2,5.311,2.275-2.228,5.2a5.6,5.6,0,0,0,2.95,7.37,5.58,5.58,0,0,0,2.206.463,5.481,5.481,0,0,0,2.111-.428,5.543,5.543,0,0,0,3.016-3L192.742,14.5a5.544,5.544,0,0,0,.091-4.254,5.439,5.439,0,0,0-3-3.1,5.621,5.621,0,0,0-2.22-.465,5.631,5.631,0,0,0-5.15,3.415l-1.92,4.484L175.227,12.3l1.921-4.484a5.551,5.551,0,0,0,.091-4.253,5.444,5.444,0,0,0-3-3.1A5.611,5.611,0,0,0,172.015,0Z" fill="#161616"/>
          </g>
          <g>
            <path d="M206.177,47.688a3.9,3.9,0,0,1-1.542-.327,3.81,3.81,0,0,1-1.715-1.4,3.923,3.923,0,0,1-.648-2.073l-.082-4.273-8.578-3.674-3.131,2.874a3.939,3.939,0,0,1-6.245-4.491,3.644,3.644,0,0,1,1.009-1.359l17.723-16.075a3.781,3.781,0,0,1,1.923-.958,3.867,3.867,0,0,1,.707-.065,3.789,3.789,0,0,1,1.493.309,4.052,4.052,0,0,1,1.694,1.358,3.826,3.826,0,0,1,.74,2.149l.559,23.975a4.437,4.437,0,0,1-.341,1.634,3.888,3.888,0,0,1-2.1,2.1A3.8,3.8,0,0,1,206.177,47.688Zm-4.144-16.2-.063-3.24-2.377,2.2Z" fill="#fff"/>
            <path d="M205.6,17.362a2.276,2.276,0,0,1,.9.189,2.556,2.556,0,0,1,1.072.862,2.337,2.337,0,0,1,.454,1.319l.557,23.955a2.82,2.82,0,0,1-.22,1.01,2.37,2.37,0,0,1-1.3,1.308,2.284,2.284,0,0,1-.884.183,2.4,2.4,0,0,1-.952-.206,2.317,2.317,0,0,1-1.055-.855,2.439,2.439,0,0,1-.4-1.3l-.1-5.218-10.36-4.439-3.846,3.53a2.41,2.41,0,0,1-1.618.628,2.46,2.46,0,0,1-2.233-3.424,2.158,2.158,0,0,1,.6-.8L203.976,18a2.313,2.313,0,0,1,1.188-.595,2.373,2.373,0,0,1,.433-.04m-2.018,16.417-.176-8.9-6.528,6.029,6.7,2.871M205.6,14.362a5.41,5.41,0,0,0-3.653,1.427L184.228,31.855a5.146,5.146,0,0,0-1.371,1.873,5.456,5.456,0,0,0,4.991,7.6,5.462,5.462,0,0,0,.864-.07,5.362,5.362,0,0,0,2.745-1.314l.019-.017.019-.017,2.417-2.219,6.8,2.912.062,3.28a5.449,5.449,0,0,0,.9,2.9,5.275,5.275,0,0,0,2.371,1.95,5.393,5.393,0,0,0,2.133.448,5.27,5.27,0,0,0,2.038-.414,5.35,5.35,0,0,0,2.906-2.9,5.784,5.784,0,0,0,.46-2.076l0-.092,0-.092-.557-23.956A5.394,5.394,0,0,0,210,16.649a5.529,5.529,0,0,0-2.317-1.856,5.268,5.268,0,0,0-2.085-.431Z" fill="#161616"/>
          </g>
        </g>
        <g>
          <g>
            <path d="M345.427,138.483a4.232,4.232,0,0,1-1.071-.141,4.1,4.1,0,0,1-2.937-5.021l1.812-6.924-8.492-2.223-1.812,6.925a4.071,4.071,0,0,1-1.863,2.508,3.923,3.923,0,0,1-2.049.581,4.247,4.247,0,0,1-1.072-.142,4.1,4.1,0,0,1-2.937-5.021l5.422-20.713a4.11,4.11,0,0,1,3.943-3.08,4.232,4.232,0,0,1,1.078.143,3.962,3.962,0,0,1,2.5,1.909,4.078,4.078,0,0,1,.4,3.1l-1.616,6.171,8.493,2.223,1.614-6.17a4.035,4.035,0,0,1,1.9-2.514,4,4,0,0,1,2.044-.566,4.269,4.269,0,0,1,1.078.142,3.975,3.975,0,0,1,2.506,1.911,4.073,4.073,0,0,1,.394,3.1L349.338,135.4a4.064,4.064,0,0,1-1.863,2.509A3.921,3.921,0,0,1,345.427,138.483Z" fill="#fff"/>
            <path d="M334.371,106.732a2.717,2.717,0,0,1,.7.094,2.46,2.46,0,0,1,1.581,1.2,2.562,2.562,0,0,1,.247,1.979l-2,7.622,11.4,2.982,1.995-7.621a2.609,2.609,0,0,1,2.491-1.96,2.717,2.717,0,0,1,.7.094,2.457,2.457,0,0,1,1.581,1.2,2.557,2.557,0,0,1,.247,1.979l-5.422,20.714a2.558,2.558,0,0,1-1.185,1.6,2.433,2.433,0,0,1-1.275.364,2.755,2.755,0,0,1-.691-.092,2.6,2.6,0,0,1-1.866-3.19l2.192-8.376-11.394-2.982-2.193,8.376a2.558,2.558,0,0,1-1.185,1.6,2.436,2.436,0,0,1-1.275.364,2.755,2.755,0,0,1-.691-.092,2.6,2.6,0,0,1-1.867-3.19l5.422-20.713a2.611,2.611,0,0,1,2.492-1.96m0-3a5.611,5.611,0,0,0-5.394,4.2l-5.422,20.714a5.6,5.6,0,0,0,4.009,6.851,5.754,5.754,0,0,0,1.451.19,5.4,5.4,0,0,0,2.822-.794,5.547,5.547,0,0,0,2.54-3.415l1.433-5.473,5.59,1.463-1.433,5.474a5.6,5.6,0,0,0,4.009,6.851,5.754,5.754,0,0,0,1.451.19,5.4,5.4,0,0,0,2.824-.8,5.545,5.545,0,0,0,2.538-3.414l5.422-20.713a5.547,5.547,0,0,0-.54-4.22,5.443,5.443,0,0,0-3.43-2.622,5.8,5.8,0,0,0-1.458-.191,5.611,5.611,0,0,0-5.394,4.2l-1.235,4.719-5.59-1.463,1.235-4.719a5.545,5.545,0,0,0-.54-4.219,5.44,5.44,0,0,0-3.43-2.623,5.8,5.8,0,0,0-1.458-.191Z" fill="#161616"/>
          </g>
          <g>
            <path d="M373.864,145.933a4.027,4.027,0,0,1-1.022-.135,3.813,3.813,0,0,1-1.9-1.136,3.922,3.922,0,0,1-.95-1.953l-.713-4.214-9.028-2.364-2.671,3.307a3.918,3.918,0,0,1-6.426-.519,3.868,3.868,0,0,1-.415-3,3.666,3.666,0,0,1,.795-1.491l15.148-18.524a3.776,3.776,0,0,1,1.758-1.232,3.78,3.78,0,0,1,2.213-.085,4.045,4.045,0,0,1,1.876,1.092,3.817,3.817,0,0,1,1.052,2.015l4.1,23.627a4.4,4.4,0,0,1-.094,1.666,3.887,3.887,0,0,1-1.77,2.392A3.727,3.727,0,0,1,373.864,145.933Zm-5.948-15.45-.543-3.2-2.025,2.522Z" fill="#fff"/>
            <path d="M369.679,115.962a2.319,2.319,0,0,1,.591.078,2.555,2.555,0,0,1,1.188.694,2.335,2.335,0,0,1,.644,1.237l4.1,23.608a2.8,2.8,0,0,1-.068,1.031,2.367,2.367,0,0,1-1.094,1.487,2.239,2.239,0,0,1-1.175.336,2.56,2.56,0,0,1-.644-.086,2.323,2.323,0,0,1-1.17-.69,2.437,2.437,0,0,1-.588-1.221l-.87-5.147-10.9-2.854-3.28,4.06a2.406,2.406,0,0,1-1.13.773,2.361,2.361,0,0,1-.721.114,2.442,2.442,0,0,1-.618-.082,2.464,2.464,0,0,1-1.755-3,2.163,2.163,0,0,1,.474-.884l15.179-18.562a2.386,2.386,0,0,1,1.84-.893m.106,16.56-1.493-8.776-5.563,6.93,7.056,1.846m-.105-19.56a5.386,5.386,0,0,0-4.177,2.011l-15.14,18.513a5.135,5.135,0,0,0-1.079,2.056,5.463,5.463,0,0,0,3.9,6.66,5.434,5.434,0,0,0,1.377.18,5.4,5.4,0,0,0,4.152-1.962l.016-.02.016-.02,2.062-2.552,7.153,1.873.547,3.235a5.451,5.451,0,0,0,1.322,2.736,5.287,5.287,0,0,0,2.634,1.577,5.559,5.559,0,0,0,1.4.184,5.2,5.2,0,0,0,2.726-.769,5.352,5.352,0,0,0,2.446-3.294,5.812,5.812,0,0,0,.147-2.121l-.01-.092-.016-.091-4.1-23.608a5.4,5.4,0,0,0-1.462-2.829,5.54,5.54,0,0,0-2.567-1.492,5.342,5.342,0,0,0-1.349-.175Z" fill="#161616"/>
          </g>
        </g>
        <g>
          <g>
            <path d="M346.659,241.514a3.73,3.73,0,0,1-.94-.124,3.6,3.6,0,0,1-2.578-4.408l1.391-5.317-6.3-1.65-1.392,5.317a3.573,3.573,0,0,1-1.633,2.2,3.454,3.454,0,0,1-1.806.511,3.694,3.694,0,0,1-.937-.123,3.6,3.6,0,0,1-2.581-4.407l4.381-16.738a3.606,3.606,0,0,1,3.465-2.7,3.763,3.763,0,0,1,.945.124,3.487,3.487,0,0,1,2.2,1.68,3.577,3.577,0,0,1,.347,2.722l-1.232,4.706,6.305,1.65,1.232-4.707a3.609,3.609,0,0,1,3.465-2.7,3.734,3.734,0,0,1,.942.124,3.492,3.492,0,0,1,2.2,1.681,3.573,3.573,0,0,1,.347,2.721L350.1,238.8a3.578,3.578,0,0,1-1.635,2.2A3.446,3.446,0,0,1,346.659,241.514Z" fill="#fff"/>
            <path d="M337.725,215.57a2.233,2.233,0,0,1,.564.075,1.989,1.989,0,0,1,1.277.97,2.067,2.067,0,0,1,.2,1.6l-1.612,6.158,9.207,2.41,1.612-6.158a2.108,2.108,0,0,1,2.013-1.584,2.191,2.191,0,0,1,.564.076,1.982,1.982,0,0,1,1.277.969,2.062,2.062,0,0,1,.2,1.6l-4.381,16.737a2.063,2.063,0,0,1-.958,1.3,1.956,1.956,0,0,1-1.029.3,2.2,2.2,0,0,1-.559-.075,2.1,2.1,0,0,1-1.508-2.577l1.772-6.768-9.207-2.41-1.772,6.768a2.066,2.066,0,0,1-.958,1.3,1.968,1.968,0,0,1-1.03.294,2.244,2.244,0,0,1-.559-.074,2.1,2.1,0,0,1-1.508-2.578l4.381-16.737a2.111,2.111,0,0,1,2.014-1.583m0-3a5.108,5.108,0,0,0-4.916,3.824l-4.381,16.737a5.1,5.1,0,0,0,3.651,6.239,5.23,5.23,0,0,0,1.318.172,4.934,4.934,0,0,0,2.578-.724,5.047,5.047,0,0,0,2.312-3.107l1.012-3.865,3.4.89L341.69,236.6a5.1,5.1,0,0,0,3.65,6.239,5.2,5.2,0,0,0,1.319.173,4.922,4.922,0,0,0,2.578-.726,5.042,5.042,0,0,0,2.312-3.105l4.381-16.737a5.049,5.049,0,0,0-.493-3.84,4.959,4.959,0,0,0-3.127-2.392,5.225,5.225,0,0,0-1.323-.173,5.111,5.111,0,0,0-4.916,3.824l-.852,3.256-3.4-.891.852-3.256a5.046,5.046,0,0,0-.492-3.838,4.96,4.96,0,0,0-3.127-2.393,5.233,5.233,0,0,0-1.324-.173Z" fill="#161616"/>
          </g>
          <g>
            <path d="M369.638,247.533a3.536,3.536,0,0,1-.9-.118,3.367,3.367,0,0,1-1.681-1,3.443,3.443,0,0,1-.836-1.721l-.545-3.223-6.936-1.816-2.041,2.527a3.451,3.451,0,0,1-1.625,1.11,3.383,3.383,0,0,1-1.037.163,3.471,3.471,0,0,1-.879-.114,3.49,3.49,0,0,1-2.49-4.252,3.249,3.249,0,0,1,.705-1.325l12.233-14.96a3.332,3.332,0,0,1,1.549-1.086,3.334,3.334,0,0,1,1.955-.074,3.555,3.555,0,0,1,1.648.957,3.364,3.364,0,0,1,.929,1.78L373,243.471a3.9,3.9,0,0,1-.08,1.466,3.424,3.424,0,0,1-1.562,2.109A3.294,3.294,0,0,1,369.638,247.533Zm-5.165-13.164-.257-1.511-.958,1.194Z" fill="#fff"/>
            <path d="M366.255,223.028a1.861,1.861,0,0,1,.477.063,2.062,2.062,0,0,1,.961.561,1.889,1.889,0,0,1,.52,1l3.313,19.077a2.277,2.277,0,0,1-.055.832,1.913,1.913,0,0,1-.884,1.2,1.809,1.809,0,0,1-.95.272,2.075,2.075,0,0,1-.52-.07,1.881,1.881,0,0,1-.946-.557,1.976,1.976,0,0,1-.474-.988l-.7-4.158-8.811-2.306-2.65,3.28a1.932,1.932,0,0,1-1.5.717,1.963,1.963,0,0,1-.5-.066,1.991,1.991,0,0,1-1.418-2.424,1.744,1.744,0,0,1,.383-.714l12.265-15a1.926,1.926,0,0,1,1.487-.721m.085,13.381-1.2-7.091-4.5,5.6,5.7,1.492m-.085-16.381h0a4.926,4.926,0,0,0-3.823,1.839l-12.227,14.952a4.731,4.731,0,0,0-.987,1.884,4.992,4.992,0,0,0,3.561,6.085,4.926,4.926,0,0,0,5.055-1.628l.016-.02.016-.019,1.433-1.773,5.06,1.324.38,2.248a4.98,4.98,0,0,0,1.209,2.5,4.9,4.9,0,0,0,2.409,1.445,5.074,5.074,0,0,0,1.28.168,4.766,4.766,0,0,0,2.5-.7,4.895,4.895,0,0,0,2.236-3.009,5.269,5.269,0,0,0,.134-1.923l-.01-.092-.016-.091-3.313-19.076a4.946,4.946,0,0,0-1.338-2.591,5.05,5.05,0,0,0-2.339-1.359,4.911,4.911,0,0,0-1.237-.16Z" fill="#161616"/>
          </g>
        </g>
        <g>
          <g>
            <path d="M207.808,226.3a3.5,3.5,0,0,1-2.019-.637,3.544,3.544,0,0,1-1.5-2.32l-3.146-17.015a3.6,3.6,0,0,1,2.9-4.208,3.774,3.774,0,0,1,.686-.063,3.435,3.435,0,0,1,2.019.649,3.576,3.576,0,0,1,1.47,2.314l.886,4.785,6.408-1.185-.885-4.785a3.6,3.6,0,0,1,2.894-4.208,3.723,3.723,0,0,1,.687-.064,3.441,3.441,0,0,1,2.02.648,3.579,3.579,0,0,1,1.47,2.317l3.147,17.012a3.571,3.571,0,0,1-.544,2.687,3.488,3.488,0,0,1-2.32,1.515,3.8,3.8,0,0,1-.689.065,3.5,3.5,0,0,1-2.016-.636,3.539,3.539,0,0,1-1.5-2.324l-1-5.4-6.41,1.185,1,5.4a3.579,3.579,0,0,1-.543,2.688,3.5,3.5,0,0,1-2.318,1.516A3.864,3.864,0,0,1,207.808,226.3Z" fill="#fff"/>
            <path d="M218.2,201.059a1.962,1.962,0,0,1,1.154.374,2.065,2.065,0,0,1,.861,1.363l3.147,17.013a2.067,2.067,0,0,1-.316,1.58,1.986,1.986,0,0,1-1.345.874,2.313,2.313,0,0,1-.417.039,2.016,2.016,0,0,1-1.167-.371,2.04,2.04,0,0,1-.876-1.36l-1.273-6.88-9.358,1.732,1.272,6.879a2.069,2.069,0,0,1-.316,1.581,1.986,1.986,0,0,1-1.345.873,2.228,2.228,0,0,1-.417.04,2.106,2.106,0,0,1-2.043-1.731l-3.147-17.013a2.1,2.1,0,0,1,1.692-2.46,2.283,2.283,0,0,1,.414-.04,1.956,1.956,0,0,1,1.154.375,2.065,2.065,0,0,1,.861,1.363l1.158,6.259,9.359-1.731-1.158-6.259a2.1,2.1,0,0,1,1.692-2.461,2.28,2.28,0,0,1,.414-.039m0-3a5.31,5.31,0,0,0-.96.089,5.1,5.1,0,0,0-4.1,5.956l.612,3.31-3.459.64-.612-3.31a5.05,5.05,0,0,0-2.077-3.266,4.988,4.988,0,0,0-2.888-.926,5.312,5.312,0,0,0-.96.09,5.1,5.1,0,0,0-4.1,5.956l3.147,17.012a5.1,5.1,0,0,0,4.993,4.186,5.255,5.255,0,0,0,.963-.09,4.953,4.953,0,0,0,3.292-2.155,5.045,5.045,0,0,0,.773-3.795l-.727-3.929,3.459-.64.727,3.93a5.1,5.1,0,0,0,4.993,4.185,5.342,5.342,0,0,0,.963-.089,4.961,4.961,0,0,0,3.293-2.157,5.045,5.045,0,0,0,.772-3.793l-3.147-17.013a5.044,5.044,0,0,0-2.079-3.266,4.972,4.972,0,0,0-2.886-.925Z" fill="#161616"/>
          </g>
          <g>
            <path d="M228.883,222.4a3.5,3.5,0,0,1-3.406-2.853,3.229,3.229,0,0,1,.076-1.5l4.715-18.739a3.4,3.4,0,0,1,2.678-2.54,3.554,3.554,0,0,1,1.9.167,3.367,3.367,0,0,1,1.595,1.214l11.118,15.876a3.87,3.87,0,0,1,.55,1.365,3.416,3.416,0,0,1-.518,2.57,3.327,3.327,0,0,1-2.221,1.449,3.587,3.587,0,0,1-.662.062,3.272,3.272,0,0,1-1.284-.258,3.43,3.43,0,0,1-1.486-1.2l-1.864-2.687-7.05,1.305-.773,3.154a3.454,3.454,0,0,1-1,1.7,3.4,3.4,0,0,1-1.712.857A3.545,3.545,0,0,1,228.883,222.4Zm5.85-12.758,1.235-.228-.874-1.258Z" fill="#fff"/>
            <path d="M233.6,198.209a2.121,2.121,0,0,1,.733.134,1.888,1.888,0,0,1,.9.684l11.106,15.86a2.263,2.263,0,0,1,.3.777,1.911,1.911,0,0,1-.29,1.464,1.832,1.832,0,0,1-1.244.807,2.137,2.137,0,0,1-.392.037,1.79,1.79,0,0,1-.7-.14,1.965,1.965,0,0,1-.849-.691l-2.4-3.466-8.955,1.657-1,4.1a1.944,1.944,0,0,1-.561.953,1.915,1.915,0,0,1-.968.483,2.11,2.11,0,0,1-.383.036,2,2,0,0,1-1.931-1.627,1.751,1.751,0,0,1,.043-.809l4.729-18.79a1.859,1.859,0,0,1,.532-.931,1.838,1.838,0,0,1,.965-.5,2.076,2.076,0,0,1,.375-.034m-.864,13.329,5.8-1.072-4.105-5.907-1.69,6.979m.864-16.329h0a5.079,5.079,0,0,0-.92.084,4.911,4.911,0,0,0-3.867,3.669l-4.714,18.732a4.73,4.73,0,0,0-.093,2.125,5,5,0,0,0,4.881,4.081,5.12,5.12,0,0,0,.928-.086,4.927,4.927,0,0,0,3.885-3.622l.006-.025.006-.024.543-2.214,5.144-.951,1.3,1.872a4.979,4.979,0,0,0,2.157,1.751,4.792,4.792,0,0,0,1.858.371,5.146,5.146,0,0,0,.937-.087,4.8,4.8,0,0,0,3.195-2.093,4.891,4.891,0,0,0,.744-3.674,5.27,5.27,0,0,0-.695-1.8l-.049-.078-.052-.076-11.107-15.86a4.94,4.94,0,0,0-2.312-1.777,5.133,5.133,0,0,0-1.774-.32Z" fill="#161616"/>
          </g>
        </g>
        <g>
          <g>
            <path d="M27.223,265.861a3.5,3.5,0,0,1-1.913-.567,3.545,3.545,0,0,1-1.581-2.27L20,246.128a3.6,3.6,0,0,1,2.749-4.3,3.785,3.785,0,0,1,.806-.09,3.449,3.449,0,0,1,1.919.582,3.577,3.577,0,0,1,1.549,2.265l1.048,4.751,6.365-1.4-1.048-4.751a3.6,3.6,0,0,1,2.748-4.306,3.788,3.788,0,0,1,.8-.089,3.441,3.441,0,0,1,1.921.583,3.569,3.569,0,0,1,1.548,2.261l3.725,16.9a3.571,3.571,0,0,1-.452,2.7,3.485,3.485,0,0,1-2.265,1.593,3.781,3.781,0,0,1-.811.09,3.507,3.507,0,0,1-1.916-.569,3.548,3.548,0,0,1-1.578-2.271L35.933,254.7l-6.365,1.4,1.184,5.368a3.572,3.572,0,0,1-.452,2.7,3.486,3.486,0,0,1-2.268,1.594A3.79,3.79,0,0,1,27.223,265.861Z" fill="#fff"/>
            <path d="M36.945,240.282a1.959,1.959,0,0,1,1.1.336,2.067,2.067,0,0,1,.907,1.333l3.726,16.9a2.065,2.065,0,0,1-.263,1.59,1.983,1.983,0,0,1-1.314.919,2.231,2.231,0,0,1-.487.055,2.106,2.106,0,0,1-2.029-1.662l-1.507-6.832-9.294,2.05,1.507,6.832a2.064,2.064,0,0,1-.262,1.59,1.985,1.985,0,0,1-1.314.919,2.24,2.24,0,0,1-.488.055,2.108,2.108,0,0,1-2.029-1.662l-3.726-16.895a2.1,2.1,0,0,1,1.608-2.517,2.254,2.254,0,0,1,.482-.054,1.965,1.965,0,0,1,1.1.336,2.063,2.063,0,0,1,.906,1.333l1.371,6.216,9.294-2.05-1.371-6.216a2.1,2.1,0,0,1,1.607-2.517,2.263,2.263,0,0,1,.483-.054m0-3a5.233,5.233,0,0,0-1.128.125,5.1,5.1,0,0,0-3.891,6.092l.725,3.287-3.435.757-.725-3.286a5.045,5.045,0,0,0-2.187-3.193,4.993,4.993,0,0,0-2.746-.83,5.24,5.24,0,0,0-1.128.125,5.1,5.1,0,0,0-3.891,6.092l3.725,16.9a5.108,5.108,0,0,0,4.959,4.016,5.3,5.3,0,0,0,1.134-.125,4.961,4.961,0,0,0,3.216-2.266,5.05,5.05,0,0,0,.644-3.819l-.861-3.9,3.435-.757.86,3.9a5.1,5.1,0,0,0,4.959,4.016,5.279,5.279,0,0,0,1.133-.125,4.959,4.959,0,0,0,3.218-2.268A5.045,5.045,0,0,0,45.6,258.2l-3.725-16.895a5.044,5.044,0,0,0-2.189-3.194,4.986,4.986,0,0,0-2.744-.829Z" fill="#161616"/>
          </g>
          <g>
            <path d="M48.159,261.25a3.507,3.507,0,0,1-3.384-2.738,3.244,3.244,0,0,1,.024-1.5l4.075-18.892a3.4,3.4,0,0,1,2.593-2.63,3.584,3.584,0,0,1,.764-.084,3.628,3.628,0,0,1,1.136.186A3.372,3.372,0,0,1,55,236.755l11.652,15.487a3.866,3.866,0,0,1,.6,1.346,3.415,3.415,0,0,1-.43,2.584,3.327,3.327,0,0,1-2.17,1.524,3.546,3.546,0,0,1-.777.087,3.275,3.275,0,0,1-1.172-.214,3.452,3.452,0,0,1-1.53-1.151L59.22,253.8l-7,1.543-.666,3.18a3.442,3.442,0,0,1-.939,1.728,3.385,3.385,0,0,1-1.686.916A3.534,3.534,0,0,1,48.159,261.25Zm5.53-12.952,1.226-.271L54,246.8Z" fill="#fff"/>
            <path d="M52.23,236.908a2.112,2.112,0,0,1,.668.111,1.884,1.884,0,0,1,.919.653l11.641,15.472a2.283,2.283,0,0,1,.33.766,1.915,1.915,0,0,1-.24,1.473,1.838,1.838,0,0,1-1.216.849,2.141,2.141,0,0,1-.456.052,1.779,1.779,0,0,1-.64-.117,1.97,1.97,0,0,1-.872-.663l-2.521-3.381-8.893,1.961-.865,4.128a1.933,1.933,0,0,1-.528.971,1.911,1.911,0,0,1-.951.517,2.1,2.1,0,0,1-.447.05,2,2,0,0,1-1.919-1.562,1.748,1.748,0,0,1,.014-.81l4.086-18.94a1.866,1.866,0,0,1,.5-.949,1.836,1.836,0,0,1,.948-.532,2.071,2.071,0,0,1,.442-.049m-.478,13.353,5.755-1.269-4.3-5.764-1.451,7.033m.478-16.353h0a5.119,5.119,0,0,0-1.087.119,4.91,4.91,0,0,0-3.739,3.8l-4.073,18.88a4.731,4.731,0,0,0-.02,2.127,4.885,4.885,0,0,0,2.189,3.128,4.936,4.936,0,0,0,2.66.788,5.091,5.091,0,0,0,1.093-.121,4.927,4.927,0,0,0,3.759-3.753l0-.024.005-.025.468-2.231L58.6,255.47l1.362,1.827a4.968,4.968,0,0,0,2.216,1.676,4.779,4.779,0,0,0,1.7.311,5.125,5.125,0,0,0,1.1-.122,4.8,4.8,0,0,0,3.121-2.2,4.889,4.889,0,0,0,.619-3.7,5.282,5.282,0,0,0-.757-1.773l-.051-.077-.055-.074L56.214,235.868a4.945,4.945,0,0,0-2.371-1.7,5.149,5.149,0,0,0-1.613-.263Z" fill="#161616"/>
          </g>
        </g>
      </g>
    </g>
  </g>
</svg>
