<svg xmlns="http://www.w3.org/2000/svg" xmlns:xlink="http://www.w3.org/1999/xlink" width="394.953" height="372.766" viewBox="0 0 394.953 372.766">
  <defs>
    <clipPath id="clip-path">
      <rect x="157.218" y="139.277" width="101.897" height="65.175" fill="none"/>
    </clipPath>
  </defs>
  <g id="Layer_2" data-name="Layer 2">
    <g id="Layer_1-2" data-name="Layer 1">
      <g>
        <g>
          <g>
            <path d="M58.886,372.766c-15.1,0-26.434-4.4-33.7-13.067-15.362-18.337-6.75-48.967-6.376-50.261l21.394-72.444c2.745-13.816,13.886-20.067,23.377-22.894l3.977-19.25C71.632,165.34,99.072,165,100.239,165H310.754c1.2,0,28.636.338,32.708,29.848l3.978,19.25c9.49,2.827,20.632,9.078,23.377,22.894l21.391,72.431c.378,1.307,8.99,31.937-6.374,50.274-7.264,8.67-18.6,13.067-33.7,13.067Z" fill="#232323"/>
            <path id="main_body" data-name="main body" d="M389.623,310.068,368.2,237.535c-2.6-13.349-13.832-19.068-23.093-21.519l-4.294-20.783c-3.826-28.051-30.062-27.772-30.062-27.772H100.269s-26.236-.279-30.063,27.772l-4.293,20.783c-9.261,2.451-20.49,8.169-23.093,21.519L21.4,310.068S4,370.307,58.885,370.307H352.137C407.028,370.307,389.623,310.068,389.623,310.068Z" fill="#ffce00"/>
          </g>
          <rect x="69.566" y="126.551" width="271.891" height="40.639" rx="17.634" fill="#9e9e9e"/>
          <path id="second_body" data-name="second body" d="M378.221,299.653l-20.094-63.566c-2.443-11.7-12.976-16.71-21.663-18.858l-4.027-18.214c-3.59-24.583-28.2-24.339-28.2-24.339H106.787s-24.611-.244-28.2,24.339l-4.027,18.214c-8.687,2.148-19.221,7.159-21.663,18.858L32.8,299.653s-16.326,52.792,35.165,52.792H343.056C394.547,352.445,378.221,299.653,378.221,299.653Z" fill="#2ab4eb"/>
          <path id="second_body-2" data-name="second body" d="M370.11,290.356l-19.116-61.97c-2.323-11.4-12.344-16.291-20.608-18.385l-3.832-17.757c-3.414-23.966-26.827-23.727-26.827-23.727H111.891s-23.413-.238-26.828,23.728L81.232,210c-8.265,2.094-18.285,6.979-20.609,18.385l-19.115,61.97S25.976,341.823,74.96,341.823h261.7C385.641,341.823,370.11,290.356,370.11,290.356Z" fill="#0af"/>
          <path d="M351.812,264.329l-16.649-48.688c-1.783-7.666-8.1-13.13-18.326-15.882l-2.967-12.4c-3.309-20.561-25.416-20.8-26.379-20.8H123.51c-.941,0-23.047.238-26.357,20.8l-2.967,12.4c-10.226,2.753-16.543,8.217-18.325,15.882l-16.653,48.7c-.288.86-6.918,21.221,4.535,33.994,5.8,6.472,15.075,9.754,27.554,9.754H319.726c12.48,0,21.751-3.282,27.554-9.754C358.734,285.565,352.1,265.2,351.812,264.329Zm-50.075-61.563H112.156V190.079c2.683-16.985,21.076-16.816,21.076-16.816H280.794s18.393-.169,21.075,16.816Z" fill="#fff"/>
          <path d="M299.98,191.005c-2.63-16.652-20.662-16.486-20.662-16.486H134.649s-18.032-.166-20.662,16.486v12.439H299.85Z" fill="#9e9e9e"/>
          <g>
            <path d="M348.943,263.8l-16.322-47.734c-1.748-7.515-7.943-12.872-17.967-15.571l-2.908-12.161c-3.245-20.157-24.918-20.39-25.863-20.39H125.118c-.923,0-22.6.233-25.841,20.39L96.369,200.5c-10.025,2.7-16.219,8.056-17.966,15.571L62.076,263.814c-.282.843-6.782,20.805,4.446,33.327,5.691,6.346,14.78,9.564,27.014,9.564H317.487c12.235,0,21.324-3.218,27.013-9.564C355.729,284.619,349.229,264.657,348.943,263.8ZM299.85,203.444H113.987V191.005c2.63-16.652,20.662-16.486,20.662-16.486H279.318s18.032-.166,20.662,16.486Z" fill="#9e9e9e"/>
            <path d="M346.114,264.489l-16.358-47.842c-1.988-8.8-10.563-12.576-17.636-14.193l-3.279-13.708c-2.922-18.5-22.958-18.318-22.958-18.318H125.14s-20.036-.184-22.958,18.318L98.9,202.454c-7.072,1.617-15.647,5.388-17.635,14.193L64.909,264.489s-13.291,39.732,28.627,39.732H317.487C359.405,304.221,346.114,264.489,346.114,264.489ZM299.85,203.444H113.987V191.005c2.63-16.652,20.662-16.486,20.662-16.486H279.318s18.032-.166,20.662,16.486Z" fill="#232323"/>
          </g>
          <ellipse cx="114.96" cy="232.007" rx="26.284" ry="15.581" fill="#bfbb1f"/>
          <path d="M114.96,249.874c-16.02,0-28.569-7.848-28.569-17.867s12.549-17.866,28.569-17.866,28.57,7.848,28.57,17.866S130.981,249.874,114.96,249.874Z" fill="#232323"/>
          <ellipse cx="114.96" cy="232.007" rx="26.284" ry="15.581" fill="#e27a0a"/>
          <path d="M114.96,245.3c-14.738,0-26.283-6.844-26.283-15.58s11.545-15.581,26.283-15.581,26.284,6.844,26.284,15.581S129.7,245.3,114.96,245.3Z" fill="#e27a0a"/>
          <ellipse cx="114.96" cy="228.579" rx="23.998" ry="13.295" fill="#e5c507"/>
          <ellipse cx="176.21" cy="232.007" rx="26.284" ry="15.581" fill="#bfbb1f"/>
          <path d="M176.21,249.874c-16.02,0-28.569-7.848-28.569-17.867s12.549-17.866,28.569-17.866,28.569,7.848,28.569,17.866S192.23,249.874,176.21,249.874Z" fill="#232323"/>
          <ellipse cx="176.21" cy="232.007" rx="26.284" ry="15.581" fill="#e27a0a"/>
          <path d="M176.21,245.3c-14.738,0-26.284-6.844-26.284-15.58s11.546-15.581,26.284-15.581,26.284,6.844,26.284,15.581S190.948,245.3,176.21,245.3Z" fill="#e27a0a"/>
          <ellipse cx="176.21" cy="228.579" rx="23.998" ry="13.295" fill="#e5c507"/>
          <ellipse cx="237.459" cy="232.007" rx="26.284" ry="15.581" fill="#bfbb1f"/>
          <path d="M237.459,249.874c-16.02,0-28.569-7.848-28.569-17.867s12.549-17.866,28.569-17.866,28.57,7.848,28.57,17.866S253.479,249.874,237.459,249.874Z" fill="#232323"/>
          <ellipse cx="237.459" cy="232.007" rx="26.284" ry="15.581" fill="#e27a0a"/>
          <path d="M237.459,245.3c-14.738,0-26.284-6.844-26.284-15.58s11.546-15.581,26.284-15.581,26.284,6.844,26.284,15.581S252.2,245.3,237.459,245.3Z" fill="#e27a0a"/>
          <ellipse cx="237.459" cy="228.579" rx="23.998" ry="13.295" fill="#e5c507"/>
          <ellipse cx="298.709" cy="232.007" rx="26.284" ry="15.581" fill="#bfbb1f"/>
          <path d="M298.709,249.874c-16.02,0-28.57-7.848-28.57-17.867s12.55-17.866,28.57-17.866,28.569,7.848,28.569,17.866S314.729,249.874,298.709,249.874Z" fill="#232323"/>
          <ellipse cx="298.709" cy="232.007" rx="26.284" ry="15.581" fill="#e27a0a"/>
          <path d="M298.709,245.3c-14.739,0-26.284-6.844-26.284-15.58s11.545-15.581,26.284-15.581,26.283,6.844,26.283,15.581S313.447,245.3,298.709,245.3Z" fill="#e27a0a"/>
          <ellipse cx="298.709" cy="228.579" rx="23.998" ry="13.295" fill="#e5c507"/>
          <ellipse cx="144.262" cy="254.311" rx="26.284" ry="15.581" fill="#bfbb1f"/>
          <path d="M144.262,272.177c-16.02,0-28.569-7.847-28.569-17.866s12.549-17.866,28.569-17.866,28.569,7.848,28.569,17.866S160.282,272.177,144.262,272.177Z" fill="#232323"/>
          <ellipse cx="144.262" cy="254.311" rx="26.284" ry="15.581" fill="#e27a0a"/>
          <path d="M144.262,267.606c-14.738,0-26.284-6.844-26.284-15.581s11.546-15.58,26.284-15.58,26.284,6.844,26.284,15.58S159,267.606,144.262,267.606Z" fill="#e27a0a"/>
          <ellipse cx="144.262" cy="250.883" rx="23.998" ry="13.295" fill="#e5c507"/>
          <ellipse cx="205.511" cy="254.311" rx="26.284" ry="15.581" fill="#bfbb1f"/>
          <path d="M205.511,272.177c-16.02,0-28.569-7.847-28.569-17.866s12.549-17.866,28.569-17.866,28.57,7.848,28.57,17.866S221.531,272.177,205.511,272.177Z" fill="#232323"/>
          <ellipse cx="205.511" cy="254.311" rx="26.284" ry="15.581" fill="#e27a0a"/>
          <path d="M205.511,267.606c-14.738,0-26.283-6.844-26.283-15.581s11.545-15.58,26.283-15.58,26.284,6.844,26.284,15.58S220.25,267.606,205.511,267.606Z" fill="#e27a0a"/>
          <ellipse cx="205.511" cy="250.883" rx="23.998" ry="13.295" fill="#e5c507"/>
          <ellipse cx="266.761" cy="254.311" rx="26.284" ry="15.581" fill="#bfbb1f"/>
          <path d="M266.761,272.177c-16.02,0-28.569-7.847-28.569-17.866s12.549-17.866,28.569-17.866,28.569,7.848,28.569,17.866S282.781,272.177,266.761,272.177Z" fill="#232323"/>
          <ellipse cx="266.761" cy="254.311" rx="26.284" ry="15.581" fill="#e27a0a"/>
          <path d="M266.761,267.606c-14.738,0-26.284-6.844-26.284-15.581s11.546-15.58,26.284-15.58,26.284,6.844,26.284,15.58S281.5,267.606,266.761,267.606Z" fill="#e27a0a"/>
          <ellipse cx="266.761" cy="250.883" rx="23.998" ry="13.295" fill="#e5c507"/>
          <ellipse cx="112.314" cy="278.505" rx="26.284" ry="15.581" fill="#bfbb1f"/>
          <path d="M112.314,296.371c-16.02,0-28.569-7.847-28.569-17.866s12.549-17.866,28.569-17.866,28.57,7.848,28.57,17.866S128.334,296.371,112.314,296.371Z" fill="#232323"/>
          <ellipse cx="112.314" cy="278.505" rx="26.284" ry="15.581" fill="#e27a0a"/>
          <path d="M112.314,291.8c-14.738,0-26.284-6.844-26.284-15.581s11.546-15.58,26.284-15.58,26.284,6.844,26.284,15.58S127.053,291.8,112.314,291.8Z" fill="#e27a0a"/>
          <ellipse cx="112.314" cy="275.077" rx="23.998" ry="13.295" fill="#e5c507"/>
          <ellipse cx="173.564" cy="278.505" rx="26.284" ry="15.581" fill="#bfbb1f"/>
          <path d="M173.564,296.371c-16.02,0-28.57-7.847-28.57-17.866s12.55-17.866,28.57-17.866,28.569,7.848,28.569,17.866S189.584,296.371,173.564,296.371Z" fill="#232323"/>
          <ellipse cx="173.564" cy="278.505" rx="26.284" ry="15.581" fill="#e27a0a"/>
          <path d="M173.564,291.8c-14.739,0-26.284-6.844-26.284-15.581s11.545-15.58,26.284-15.58,26.283,6.844,26.283,15.58S188.3,291.8,173.564,291.8Z" fill="#e27a0a"/>
          <ellipse cx="173.564" cy="275.077" rx="23.998" ry="13.295" fill="#e5c507"/>
          <ellipse cx="234.813" cy="278.505" rx="26.284" ry="15.581" fill="#bfbb1f"/>
          <path d="M234.813,296.371c-16.02,0-28.569-7.847-28.569-17.866s12.549-17.866,28.569-17.866,28.569,7.848,28.569,17.866S250.833,296.371,234.813,296.371Z" fill="#232323"/>
          <ellipse cx="234.813" cy="278.505" rx="26.284" ry="15.581" fill="#e27a0a"/>
          <path d="M234.813,291.8c-14.738,0-26.284-6.844-26.284-15.581s11.546-15.58,26.284-15.58,26.284,6.844,26.284,15.58S249.551,291.8,234.813,291.8Z" fill="#e27a0a"/>
          <ellipse cx="234.813" cy="275.077" rx="23.998" ry="13.295" fill="#e5c507"/>
          <ellipse cx="296.062" cy="278.505" rx="26.284" ry="15.581" fill="#bfbb1f"/>
          <path d="M296.062,296.371c-16.02,0-28.569-7.847-28.569-17.866s12.549-17.866,28.569-17.866,28.57,7.848,28.57,17.866S312.082,296.371,296.062,296.371Z" fill="#232323"/>
          <ellipse cx="296.062" cy="278.505" rx="26.284" ry="15.581" fill="#e27a0a"/>
          <path d="M296.062,291.8c-14.738,0-26.283-6.844-26.283-15.581s11.545-15.58,26.283-15.58,26.284,6.844,26.284,15.58S310.8,291.8,296.062,291.8Z" fill="#e27a0a"/>
          <ellipse cx="296.062" cy="275.077" rx="23.998" ry="13.295" fill="#e5c507"/>
          <path d="M386.094,326.346s-2.038,28.167-25.019,31.559H49.948c-22.981-3.392-25.019-31.559-25.019-31.559-.006.165-6.952,38.572,25.223,38.462H360.871C393.046,364.918,386.1,326.511,386.094,326.346Z" fill="#0af"/>
          <path d="M366.091,298.493s-1.812,27-22.248,30.249H68.294a11.957,11.957,0,0,1-2.659-.3c-18.983-4.327-20.7-29.951-20.7-29.951-.005.159-6.182,36.972,22.429,36.866h276.3C372.273,335.465,366.1,298.652,366.091,298.493Z" fill="#ffce00"/>
          <g id="Layer_2-2" data-name="Layer 2">
            <g id="Jokesicon">
              <g>
                <g>
                  <path d="M204.655,199.574a99.4,99.4,0,0,1-68.892-28.054c-.71-.71-.71-1.421-.355-1.773A182.966,182.966,0,0,0,145,149.506c1.773-3.907,1.064-8.878-1.066-12.784a13.73,13.73,0,0,0-10.654-6.748,188.057,188.057,0,0,0-18.817-1.068h-3.547c-.71,0-1.42-.354-1.42-1.065-12.076-42.968,6.037-89.133,44.389-111.86a98.659,98.659,0,0,1,119.32,14.2c.71.711.71,1.421.356,1.774A182.7,182.7,0,0,0,263.969,52.2c-1.773,3.907-1.065,8.879,1.066,12.784a13.725,13.725,0,0,0,10.653,6.747c7.1.711,13.494,1.066,18.82,1.066h3.552c.71,0,1.42.356,1.42,1.066,12.076,42.968-6.037,89.133-44.389,111.86A101.61,101.61,0,0,1,204.655,199.574ZM263.6,97.3a4.935,4.935,0,0,0-3.552,1.774c-8.522,9.587-22.372,20.6-38.707,30.184s-32.67,17.045-45.1,19.886a3.818,3.818,0,0,0-3.2,2.842,3.777,3.777,0,0,0,.71,4.261,34.1,34.1,0,0,0,17.045,9.943,53.265,53.265,0,0,0,13.14,1.42,72.672,72.672,0,0,0,34.8-9.233c24.858-14.914,35.157-42.613,29.12-58.238A4.417,4.417,0,0,0,263.6,97.3ZM147.127,87.713a2.752,2.752,0,0,0-2.841,2.486,3.177,3.177,0,0,0,2.131,3.551l19.531,6.747a1.954,1.954,0,0,1,1.065,1.774l-3.195,20.241c-.356,1.065.354,1.773.71,2.485a3.221,3.221,0,0,0,2.485,1.066,2.815,2.815,0,0,0,2.486-1.773l17.4-32.316a2.147,2.147,0,0,0,0-2.84,2.683,2.683,0,0,0-2.486-1.421Zm75.639-45.1a2.815,2.815,0,0,0-2.486,1.773l-17.4,32.318a2.148,2.148,0,0,0,0,2.841,2.883,2.883,0,0,0,2.841,1.42H242.3a2.752,2.752,0,0,0,2.841-2.486,3.64,3.64,0,0,0-2.131-3.551l-19.529-6.747a1.952,1.952,0,0,1-1.066-1.773l3.2-20.242c.356-1.065-.354-1.773-.71-2.486A2.532,2.532,0,0,0,222.766,42.614ZM106.289,180.4a21.749,21.749,0,0,1-18.466-10.3,21.21,21.21,0,0,1,7.1-29.119c3.2-2.131,9.589-2.841,18.466-2.841,7.458,0,14.915.71,18.466,1.066a5.816,5.816,0,0,1,3.906,2.485,5.942,5.942,0,0,1,.356,4.262c-4.972,12.428-12.43,27.7-19.531,31.6a19.422,19.422,0,0,1-10.3,2.842ZM294.854,63.211c-7.458,0-14.915-.71-18.466-1.066a5.816,5.816,0,0,1-3.906-2.485,5.937,5.937,0,0,1-.355-4.262c4.971-12.429,12.429-27.7,19.531-31.605a21.605,21.605,0,0,1,29.119,7.457,21.211,21.211,0,0,1-7.1,29.12c-3.547,1.773-9.588,2.841-18.821,2.841Z" fill="#ffce00"/>
                  <path d="M203.945,3.2c24.858,0,49.716,9.588,67.827,27.7a180.255,180.255,0,0,0-9.944,20.241c-3.2,7.457,0,19.886,13.139,21.662,7.813.71,13.849,1.066,19.177,1.066h3.55A97.424,97.424,0,0,1,204.3,197.8c-24.858,0-49.716-9.589-67.827-27.7a180.248,180.248,0,0,0,9.943-20.241c3.2-7.458,0-19.886-13.139-21.662-7.812-.71-13.849-1.065-18.821-1.065h-3.547A97.342,97.342,0,0,1,154.584,17.046,96.188,96.188,0,0,1,203.945,3.2m38,79.547c5.326,0,6.747-7.458,1.773-9.233l-19.531-6.748,3.2-20.241c.71-3.2-2.13-5.327-4.616-5.327a5.024,5.024,0,0,0-4.261,2.486h0L201.1,76c-1.773,2.841.71,6.747,4.261,6.747h36.577m-75.284,45.1a4.634,4.634,0,0,0,4.261-2.486l17.4-32.315a4.583,4.583,0,0,0-4.261-6.747H147.482c-5.327,0-6.747,7.457-1.774,9.233l19.532,6.747-3.2,20.242c-.71,3.2,2.131,5.326,4.617,5.326m37.286,41.547c12.43,0,25.569-3.551,35.512-9.588h0c20.241-12.075,37.642-40.127,29.829-60.368a6.453,6.453,0,0,0-5.681-3.907,5.729,5.729,0,0,0-4.617,2.131c-8.167,9.233-22.372,20.241-38.352,29.829-16.335,9.588-32.315,16.691-44.389,19.531a6.264,6.264,0,0,0-3.2,10.3,31.036,31.036,0,0,0,18.11,10.3c3.547,1.42,8.168,1.773,12.785,1.773M302.313,22.372a20.4,20.4,0,0,1,17.043,9.588,19.6,19.6,0,0,1-6.37,26.977l-.021.013c-3.547,2.13-10.654,2.841-17.756,2.841-6.748,0-13.849-.711-18.466-1.066a3.552,3.552,0,0,1-2.977-4.046,3.594,3.594,0,0,1,.136-.571c3.551-8.167,11.719-26.988,18.466-30.895a17,17,0,0,1,9.943-2.84M113.746,139.56c6.747,0,13.849.71,18.466,1.066a3.55,3.55,0,0,1,2.978,4.045,3.425,3.425,0,0,1-.137.574c-3.547,8.168-11.718,26.989-18.466,30.895A18.821,18.821,0,0,1,107,178.981a20.4,20.4,0,0,1-17.045-9.592,19.6,19.6,0,0,1,6.371-26.976l.02-.012c3.2-2.131,9.944-2.841,17.4-2.841M203.945,0h0a99.03,99.03,0,0,0-51.136,14.2,100.428,100.428,0,0,0-45.1,113.636,3.412,3.412,0,0,0,3.2,2.486h3.547c5.327,0,11.364.355,18.466,1.065,4.261.711,7.458,2.486,9.588,6.037,1.774,3.2,2.486,7.813.71,11.364a174.773,174.773,0,0,1-9.583,19.886c-.71,1.42-.71,2.841.71,3.906a100.379,100.379,0,0,0,121.448,14.207,100.426,100.426,0,0,0,45.1-113.638,3.411,3.411,0,0,0-3.2-2.486h-3.55A181.114,181.114,0,0,1,275.678,69.6c-4.262-.71-7.457-2.485-9.589-6.036A12.94,12.94,0,0,1,265.024,52.2a175.16,175.16,0,0,1,9.588-19.887c.71-1.42.71-2.841-.71-3.906A99.435,99.435,0,0,0,203.945,0Zm38,79.547h-36.58a1.846,1.846,0,0,1-1.42-.711c0-.355-.355-.71,0-1.42l17.4-32.315c.355-.71.711-.71,1.066-.71a2.694,2.694,0,0,1,1.421.71,1.3,1.3,0,0,1,.354,1.065l-3.2,20.242c-.355,1.42.71,2.841,2.13,3.546L242.652,76.7c1.065.354,1.065,1.064,1.065,1.773a2.211,2.211,0,0,1-1.773,1.066Zm-75.287,45.093a2.7,2.7,0,0,1-1.42-.71,1.308,1.308,0,0,1-.356-1.066l3.2-20.241c.354-1.421-.711-2.841-2.131-3.547L146.417,92.33c-1.066-.356-1.066-1.066-1.066-1.773a1.494,1.494,0,0,1,1.421-1.421h36.576a1.851,1.851,0,0,1,1.421.71c0,.356.355.711,0,1.421l-17.4,32.313c0,.71-.355,1.065-.71,1.065Zm37.287,41.547a70.328,70.328,0,0,1-12.784-1.421c-7.1-1.773-12.429-4.972-16.335-9.588a3.3,3.3,0,0,1-.71-2.841c.354-.71.71-1.773,2.13-1.773,12.429-2.841,29.119-10.3,45.454-19.886s30.54-20.952,39.063-30.54a3.908,3.908,0,0,1,2.13-1.065h0a3.622,3.622,0,0,1,2.842,1.773c3.195,8.522,1.773,19.531-4.262,30.539a70.589,70.589,0,0,1-24.151,25.925c-8.877,5.682-21.662,8.878-33.381,8.878ZM302.311,19.17a22.022,22.022,0,0,0-11.362,3.2c-7.1,4.261-14.915,19.886-19.886,32.67a6.431,6.431,0,0,0,.355,5.682,6.9,6.9,0,0,0,4.972,3.2c3.905.355,11.364,1.065,18.821,1.065,9.232,0,15.622-1.065,19.531-3.2a22.365,22.365,0,0,0,10.3-13.849,23.064,23.064,0,0,0-2.847-17.4,23.541,23.541,0,0,0-19.886-11.364ZM113.746,136.364c-9.232,0-15.622,1.065-19.531,3.2a22.356,22.356,0,0,0-10.3,13.849,23.59,23.59,0,0,0,22.727,28.759,22.024,22.024,0,0,0,11.362-3.19c7.1-4.262,14.915-19.887,19.886-32.671a6.425,6.425,0,0,0-.354-5.681,6.909,6.909,0,0,0-4.973-3.2c-4.261-.355-11.718-1.065-18.821-1.065Z" fill="#232323"/>
                </g>
                <g>
                  <path d="M106.289,180.4a21.749,21.749,0,0,1-18.466-10.3,21.21,21.21,0,0,1,7.1-29.119c3.2-2.131,9.589-2.841,18.466-2.841,7.458,0,14.915.71,18.466,1.066a5.816,5.816,0,0,1,3.906,2.485,5.942,5.942,0,0,1,.356,4.262c-4.972,12.428-12.43,27.7-19.531,31.6a19.422,19.422,0,0,1-10.3,2.842ZM294.854,63.211c-7.458,0-14.915-.71-18.466-1.066a5.816,5.816,0,0,1-3.906-2.485,5.937,5.937,0,0,1-.355-4.262c4.971-12.429,12.429-27.7,19.531-31.605a21.605,21.605,0,0,1,29.119,7.457,21.211,21.211,0,0,1-7.1,29.12c-3.547,1.773-9.588,2.841-18.821,2.841Z" fill="#0af"/>
                  <path d="M302.311,22.373a20.4,20.4,0,0,1,17.045,9.587,19.6,19.6,0,0,1-6.37,26.977l-.021.013c-3.547,2.13-10.654,2.841-17.756,2.841-6.748,0-13.849-.711-18.466-1.066a3.552,3.552,0,0,1-2.977-4.046,3.594,3.594,0,0,1,.136-.571c3.551-8.167,11.719-26.988,18.466-30.895a17,17,0,0,1,9.943-2.84M113.746,139.56c6.747,0,13.849.71,18.466,1.066a3.55,3.55,0,0,1,2.978,4.045,3.425,3.425,0,0,1-.137.574c-3.547,8.168-11.718,26.989-18.466,30.895A18.821,18.821,0,0,1,107,178.981a20.4,20.4,0,0,1-17.045-9.592,19.6,19.6,0,0,1,6.371-26.976l.02-.012c3.2-2.131,9.944-2.841,17.4-2.841M302.311,19.176a22.038,22.038,0,0,0-11.362,3.2c-7.1,4.261-14.915,19.886-19.886,32.67a6.431,6.431,0,0,0,.355,5.682,6.9,6.9,0,0,0,4.972,3.2c3.905.355,11.364,1.065,18.821,1.065,9.232,0,15.622-1.065,19.531-3.2a22.365,22.365,0,0,0,10.3-13.849,23.064,23.064,0,0,0-2.847-17.4,23.541,23.541,0,0,0-19.886-11.364ZM113.746,136.364c-9.232,0-15.622,1.065-19.531,3.2a22.356,22.356,0,0,0-10.3,13.849,23.59,23.59,0,0,0,22.727,28.759,22.024,22.024,0,0,0,11.362-3.19c7.1-4.262,14.915-19.887,19.886-32.671a6.425,6.425,0,0,0-.354-5.681,6.909,6.909,0,0,0-4.973-3.2c-4.261-.355-11.718-1.065-18.821-1.065Z" fill="#232323"/>
                </g>
              </g>
            </g>
          </g>
          <g clip-path="url(#clip-path)">
            <path d="M207.759,165.343A51.356,51.356,0,1,0,259.115,216.7,51.356,51.356,0,0,0,207.759,165.343Zm0,87.305A35.949,35.949,0,1,1,243.708,216.7,35.949,35.949,0,0,1,207.759,252.648Z" fill="#232323"/>
            <path d="M207.759,169.663a46.221,46.221,0,1,0,46.221,46.221A46.22,46.22,0,0,0,207.759,169.663Zm0,78.575a32.355,32.355,0,1,1,32.355-32.354A32.354,32.354,0,0,1,207.759,248.238Z" fill="#9e9e9e"/>
            <polygon points="207.759 189.862 196.067 210.112 219.451 210.112 207.759 189.862" fill="#232323"/>
            <polygon points="207.759 196.383 196.067 216.634 219.451 216.634 207.759 196.383" fill="#9e9e9e"/>
          </g>
        </g>
        <g>
          <g>
            <path d="M333.646,118.722a4.907,4.907,0,0,1-2.074-.467l-13.017-6.049a5.1,5.1,0,0,1-2.483-6.791l8.893-19.135a5.016,5.016,0,0,1,2.884-2.655,5.017,5.017,0,0,1,3.91.174,5.1,5.1,0,0,1,2.48,6.79l-6.885,14.816,8.378,3.895a4.889,4.889,0,0,1,2.56,2.744,4.787,4.787,0,0,1-.139,3.806,4.849,4.849,0,0,1-2.8,2.562A4.965,4.965,0,0,1,333.646,118.722Z" fill="#fff"/>
            <path d="M329.6,85.81a2.607,2.607,0,0,1,1.105.255,2.6,2.6,0,0,1,1.268,3.471l-7.939,17.082,10.645,4.948a2.4,2.4,0,0,1,1.278,1.368,2.3,2.3,0,0,1-.069,1.86,2.367,2.367,0,0,1-1.385,1.27,2.49,2.49,0,0,1-.856.158,2.411,2.411,0,0,1-1.022-.235l-13.015-6.049a2.6,2.6,0,0,1-1.269-3.471l8.892-19.133a2.522,2.522,0,0,1,1.471-1.36,2.612,2.612,0,0,1,.9-.164m0-5h0a7.63,7.63,0,0,0-6.9,4.416l-8.892,19.134a7.6,7.6,0,0,0,3.695,10.112l13.016,6.049a7.374,7.374,0,0,0,3.129.7,7.484,7.484,0,0,0,2.572-.462,7.428,7.428,0,0,0,.568-13.728l-6.112-2.841,5.832-12.548A7.636,7.636,0,0,0,329.6,80.81Z"/>
          </g>
          <g>
            <path d="M353.812,127.763a15.814,15.814,0,0,1-14.425-10.49,16.314,16.314,0,0,1,4.357-17.313,15.668,15.668,0,0,1,10.7-4.153c.153,0,.308,0,.463.006a15.813,15.813,0,0,1,14.415,10.463,16.306,16.306,0,0,1-4.368,17.288,16.324,16.324,0,0,1-5.139,3.191,15.4,15.4,0,0,1-5.546,1.014Q354.039,127.769,353.812,127.763Zm.814-22.13a5.319,5.319,0,0,0-2.078.4,5.717,5.717,0,0,0-1.861,1.261,7.212,7.212,0,0,0-1.447,2.093,7.083,7.083,0,0,0-.665,2.452,5.934,5.934,0,0,0,.233,2.272,5.2,5.2,0,0,0,1.053,1.891,5.993,5.993,0,0,0,4.171,1.938h0a5.034,5.034,0,0,0,2.083-.412,6.128,6.128,0,0,0,1.892-1.3,7.228,7.228,0,0,0,1.446-2.092,7.1,7.1,0,0,0,.666-2.452,5.911,5.911,0,0,0-.224-2.25,5.138,5.138,0,0,0-1.043-1.863,6,6,0,0,0-4.171-1.938l-.057-2.5Z" fill="#fff"/>
            <path d="M354.438,98.307c.132,0,.265,0,.4.006a13.309,13.309,0,0,1,12.125,8.8,13.812,13.812,0,0,1-3.691,14.605,13.786,13.786,0,0,1-4.355,2.707,12.843,12.843,0,0,1-4.65.848c-.128,0-.256,0-.386-.006a13.311,13.311,0,0,1-12.135-8.822,13.612,13.612,0,0,1-.756-5.082,13.647,13.647,0,0,1,8.8-12.23,13.232,13.232,0,0,1,4.648-.822m-.354,22.137a7.514,7.514,0,0,0,3.034-.621A8.682,8.682,0,0,0,359.77,118a10.021,10.021,0,0,0,2.843-6.118,8.446,8.446,0,0,0-.326-3.184,7.665,7.665,0,0,0-1.536-2.757,8.484,8.484,0,0,0-6.048-2.81h-.073a7.831,7.831,0,0,0-3.042.6,8.256,8.256,0,0,0-2.662,1.8,10.014,10.014,0,0,0-2.843,6.118,8.476,8.476,0,0,0,.336,3.209,7.72,7.72,0,0,0,1.545,2.783,8.49,8.49,0,0,0,6.048,2.811h.072m.354-27.137h0a18.644,18.644,0,0,0-18.446,17.868,18.635,18.635,0,0,0,1.038,6.933,18.443,18.443,0,0,0,16.712,12.153c.176,0,.35.008.523.008a17.892,17.892,0,0,0,6.442-1.18,18.854,18.854,0,0,0,5.925-3.674,18.711,18.711,0,0,0,5.044-19.97,18.442,18.442,0,0,0-16.7-12.13c-.179,0-.357-.008-.534-.008Zm-.354,22.137h-.03a3.535,3.535,0,0,1-2.293-1.064,2.728,2.728,0,0,1-.563-1,3.493,3.493,0,0,1-.131-1.339,5.026,5.026,0,0,1,1.379-2.968,3.283,3.283,0,0,1,1.059-.728,2.869,2.869,0,0,1,1.125-.214,3.521,3.521,0,0,1,2.327,1.068,2.694,2.694,0,0,1,.55.966,3.452,3.452,0,0,1,.122,1.314,5.024,5.024,0,0,1-1.379,2.971,3.688,3.688,0,0,1-1.13.788,2.506,2.506,0,0,1-1.036.2Z"/>
          </g>
          <g>
            <path d="M382.31,141.339a4.888,4.888,0,0,1-2.076-.469l-13.015-6.048a5.1,5.1,0,0,1-2.481-6.793L373.63,108.9a5.019,5.019,0,0,1,2.88-2.654,5.029,5.029,0,0,1,3.911.172,5.1,5.1,0,0,1,2.482,6.792l-6.885,14.815,8.379,3.894a4.9,4.9,0,0,1,2.56,2.745,4.8,4.8,0,0,1-.138,3.8,4.861,4.861,0,0,1-2.794,2.564A4.99,4.99,0,0,1,382.31,141.339Z" fill="#fff"/>
            <path d="M378.263,108.427a2.6,2.6,0,0,1,1.105.255,2.6,2.6,0,0,1,1.268,3.471L372.7,129.235l10.646,4.948a2.4,2.4,0,0,1,1.278,1.368,2.306,2.306,0,0,1-.07,1.86,2.37,2.37,0,0,1-1.385,1.27,2.484,2.484,0,0,1-.856.157,2.41,2.41,0,0,1-1.022-.234l-13.015-6.049A2.6,2.6,0,0,1,367,129.084L375.9,109.95a2.522,2.522,0,0,1,1.47-1.359,2.588,2.588,0,0,1,.9-.164m0-5a7.63,7.63,0,0,0-6.9,4.416l-8.892,19.134a7.6,7.6,0,0,0,3.7,10.112l13.015,6.049a7.373,7.373,0,0,0,3.129.7,7.5,7.5,0,0,0,6.776-4.32,7.432,7.432,0,0,0-3.636-9.87l-6.111-2.84,5.831-12.548a7.636,7.636,0,0,0-6.907-10.833Z"/>
          </g>
        </g>
        <g>
          <g>
            <path d="M14.141,143.984A4.725,4.725,0,0,1,9.8,141.067L2.865,124.328a4.7,4.7,0,0,1,2.551-6.155,4.678,4.678,0,0,1,1.8-.367,4.59,4.59,0,0,1,1.82.38,4.66,4.66,0,0,1,2.5,2.548l1.594,3.849,4.588-1.9-1.594-3.849a4.7,4.7,0,0,1,2.549-6.155,4.7,4.7,0,0,1,1.8-.367,4.573,4.573,0,0,1,1.819.381,4.655,4.655,0,0,1,2.5,2.547l6.933,16.739a4.656,4.656,0,0,1,.034,3.57,4.565,4.565,0,0,1-2.551,2.572,4.723,4.723,0,0,1-1.815.369,4.723,4.723,0,0,1-4.342-2.917l-1.847-4.459-4.587,1.9,1.846,4.459a4.653,4.653,0,0,1,.034,3.569,4.568,4.568,0,0,1-2.554,2.574A4.71,4.71,0,0,1,14.141,143.984Z" fill="#fff"/>
            <path d="M20.479,114.812a2.082,2.082,0,0,1,.834.178,2.159,2.159,0,0,1,1.179,1.208l6.934,16.738a2.165,2.165,0,0,1,.02,1.688,2.083,2.083,0,0,1-1.186,1.188,2.22,2.22,0,0,1-.857.178,2.18,2.18,0,0,1-.838-.173,2.133,2.133,0,0,1-1.194-1.2l-2.8-6.769-9.207,3.814,2.8,6.769a2.165,2.165,0,0,1,.02,1.688A2.083,2.083,0,0,1,15,141.306a2.243,2.243,0,0,1-.857.178,2.18,2.18,0,0,1-.838-.173,2.132,2.132,0,0,1-1.194-1.2L5.175,123.371a2.2,2.2,0,0,1,1.2-2.888,2.191,2.191,0,0,1,.845-.177,2.082,2.082,0,0,1,.834.178,2.163,2.163,0,0,1,1.179,1.208l2.551,6.158,9.207-3.814-2.551-6.158a2.2,2.2,0,0,1,1.2-2.889,2.191,2.191,0,0,1,.845-.177m0-5a7.211,7.211,0,0,0-6.838,9.507,7.189,7.189,0,0,0-3.616-3.429,7.08,7.08,0,0,0-2.808-.584,7.211,7.211,0,0,0-6.661,9.979l6.933,16.738a7.194,7.194,0,0,0,13.471-5.034,7.194,7.194,0,0,0,13.085-5.966l-6.933-16.739a7.205,7.205,0,0,0-3.824-3.888,7.089,7.089,0,0,0-2.809-.584Z"/>
          </g>
          <g>
            <path d="M34.907,135.394a4.564,4.564,0,0,1-1.757-.357,4.485,4.485,0,0,1-2.477-2.475,4.3,4.3,0,0,1-.317-1.973L31.1,110.4a4.387,4.387,0,0,1,.763-2.369,4.454,4.454,0,0,1,2-1.641,4.633,4.633,0,0,1,1.782-.355,4.754,4.754,0,0,1,.688.05,4.5,4.5,0,0,1,2.393,1.13l14.913,13.894.053.056a4.874,4.874,0,0,1,.977,1.493A4.5,4.5,0,0,1,54.7,126.1a4.406,4.406,0,0,1-2.465,2.485,4.579,4.579,0,0,1-1.751.356,4.422,4.422,0,0,1-.812-.076,4.544,4.544,0,0,1-2.241-1.133l-2.069-1.945L39.536,128.2,39.45,131a4.545,4.545,0,0,1-.822,2.462,4.476,4.476,0,0,1-1.971,1.576A4.56,4.56,0,0,1,34.907,135.394Z" fill="#fff"/>
            <path d="M35.64,108.535a2.235,2.235,0,0,1,.333.025,1.977,1.977,0,0,1,1.067.5l14.834,13.822a2.4,2.4,0,0,1,.481.73,2,2,0,0,1,.022,1.562,1.924,1.924,0,0,1-1.1,1.1,2.065,2.065,0,0,1-.8.166,1.835,1.835,0,0,1-.346-.033,2.069,2.069,0,0,1-1.021-.523L45.9,122.861l-8.811,3.65-.136,4.415a2.033,2.033,0,0,1-.366,1.1,1.992,1.992,0,0,1-.886.706,2.044,2.044,0,0,1-.792.164,2.066,2.066,0,0,1-.8-.166,2,2,0,0,1-1.126-1.123,1.839,1.839,0,0,1-.133-.838l.746-20.275a1.954,1.954,0,0,1,.342-1.071,1.925,1.925,0,0,1,.88-.722,2.136,2.136,0,0,1,.823-.164m1.575,13.887,5.7-2.362-5.493-5.154-.208,7.516M35.64,103.535a7.125,7.125,0,0,0-2.737.545,7,7,0,0,0-4.306,6.259l-.742,20.186a6.792,6.792,0,0,0,.508,2.994,7.056,7.056,0,0,0,13.582-2.355l0-.042,0-.043.036-1.185,2.842-1.177.864.812.029.027.029.027a7.1,7.1,0,0,0,3.459,1.74,6.846,6.846,0,0,0,1.275.12,7.036,7.036,0,0,0,2.708-.547,6.943,6.943,0,0,0,3.831-3.868,7.045,7.045,0,0,0-.048-5.326,7.376,7.376,0,0,0-1.474-2.258l-.1-.111-.113-.105L40.448,105.406l-.023-.021-.023-.021a6.994,6.994,0,0,0-3.708-1.752,7.32,7.32,0,0,0-1.054-.077Z"/>
          </g>
          <g>
            <path d="M57.829,125.886a4.725,4.725,0,0,1-4.342-2.917L46.554,106.23a4.7,4.7,0,0,1,2.549-6.155,4.71,4.71,0,0,1,1.8-.367,4.587,4.587,0,0,1,1.822.381,4.656,4.656,0,0,1,2.5,2.547l1.595,3.85,4.587-1.9-1.594-3.848a4.7,4.7,0,0,1,2.55-6.156,4.675,4.675,0,0,1,1.8-.367,4.589,4.589,0,0,1,1.822.382,4.653,4.653,0,0,1,2.5,2.547l6.934,16.738a4.658,4.658,0,0,1,.034,3.569,4.561,4.561,0,0,1-2.553,2.573,4.627,4.627,0,0,1-3.607.006,4.62,4.62,0,0,1-2.548-2.554L64.9,113.016l-4.587,1.9,1.847,4.458a4.66,4.66,0,0,1,.033,3.57,4.565,4.565,0,0,1-2.551,2.572A4.719,4.719,0,0,1,57.829,125.886Z" fill="#fff"/>
            <path d="M64.168,96.714a2.107,2.107,0,0,1,.834.178A2.166,2.166,0,0,1,66.181,98.1l6.933,16.738a2.165,2.165,0,0,1,.021,1.688,2.079,2.079,0,0,1-1.187,1.188,2.215,2.215,0,0,1-.856.178,2.158,2.158,0,0,1-.838-.173,2.132,2.132,0,0,1-1.2-1.2l-2.8-6.769-9.207,3.814,2.8,6.769a2.165,2.165,0,0,1,.021,1.688,2.082,2.082,0,0,1-1.187,1.188,2.216,2.216,0,0,1-.857.178,2.175,2.175,0,0,1-.837-.173,2.135,2.135,0,0,1-1.2-1.2l-6.934-16.738a2.2,2.2,0,0,1,1.2-2.889,2.192,2.192,0,0,1,.846-.177,2.081,2.081,0,0,1,.833.178,2.164,2.164,0,0,1,1.18,1.208l2.551,6.158,9.207-3.814L62.126,99.78a2.2,2.2,0,0,1,1.2-2.889,2.183,2.183,0,0,1,.845-.177m0-5a7.213,7.213,0,0,0-6.839,9.507,7.191,7.191,0,0,0-3.615-3.429,7.084,7.084,0,0,0-2.808-.584,7.212,7.212,0,0,0-6.662,9.979l6.934,16.738a7.194,7.194,0,0,0,13.471-5.034,7.194,7.194,0,0,0,13.085-5.967L70.8,96.186A7.208,7.208,0,0,0,66.976,92.3a7.084,7.084,0,0,0-2.808-.584Z"/>
          </g>
          <g>
            <path d="M78.6,117.3a4.564,4.564,0,0,1-1.757-.357,4.489,4.489,0,0,1-2.477-2.474,4.305,4.305,0,0,1-.317-1.973l.74-20.19a4.5,4.5,0,0,1,2.765-4.01,4.625,4.625,0,0,1,1.779-.354,4.9,4.9,0,0,1,.688.049,4.5,4.5,0,0,1,2.394,1.13l14.912,13.895.053.055a4.861,4.861,0,0,1,.978,1.5A4.489,4.489,0,0,1,98.388,108a4.4,4.4,0,0,1-2.465,2.484,4.546,4.546,0,0,1-1.751.357,4.494,4.494,0,0,1-.809-.075,4.548,4.548,0,0,1-2.243-1.134l-2.069-1.945-5.826,2.414-.086,2.8a4.556,4.556,0,0,1-.822,2.463,4.473,4.473,0,0,1-1.974,1.575A4.543,4.543,0,0,1,78.6,117.3Z" fill="#fff"/>
            <path d="M79.328,90.437a2.38,2.38,0,0,1,.334.025,1.968,1.968,0,0,1,1.066.5l14.834,13.821a2.384,2.384,0,0,1,.481.73,2.006,2.006,0,0,1,.022,1.563,1.923,1.923,0,0,1-1.1,1.1,2.057,2.057,0,0,1-.794.166,1.845,1.845,0,0,1-.347-.033,2.065,2.065,0,0,1-1.021-.523l-3.218-3.026-8.811,3.65-.135,4.415a2.034,2.034,0,0,1-.367,1.1,2,2,0,0,1-.886.707,2,2,0,0,1-1.59,0,2,2,0,0,1-1.126-1.123,1.813,1.813,0,0,1-.133-.838l.745-20.275a1.962,1.962,0,0,1,.342-1.071,1.922,1.922,0,0,1,.88-.721,2.118,2.118,0,0,1,.823-.165M80.9,104.324l5.7-2.362-5.492-5.154-.209,7.516M79.328,85.437a7.12,7.12,0,0,0-2.736.545,7,7,0,0,0-4.307,6.259l-.742,20.186a6.79,6.79,0,0,0,.508,2.994,7.057,7.057,0,0,0,13.583-2.355l0-.042v-.042l.037-1.186,2.841-1.177.864.813.029.027.029.026a7.1,7.1,0,0,0,3.46,1.74,6.839,6.839,0,0,0,1.275.12,7.044,7.044,0,0,0,2.708-.547,6.935,6.935,0,0,0,3.83-3.868,7.041,7.041,0,0,0-.048-5.326,7.391,7.391,0,0,0-1.473-2.258l-.106-.111-.112-.105L84.136,87.308l-.022-.021-.023-.021a7,7,0,0,0-3.709-1.752,7.445,7.445,0,0,0-1.054-.077Z"/>
          </g>
        </g>
      </g>
    </g>
  </g>
</svg>
