<?xml version="1.0" encoding="utf-8"?>
<!-- Generator: Adobe Illustrator 25.0.1, SVG Export Plug-In . SVG Version: 6.00 Build 0)  -->
<svg version="1.1" id="Layer_1" xmlns="http://www.w3.org/2000/svg" xmlns:xlink="http://www.w3.org/1999/xlink" x="0px" y="0px"
	 viewBox="0 0 800 250" style="enable-background:new 0 0 800 250;" xml:space="preserve">
<style type="text/css">
	.st0{fill:#CDF5F9;}
	.st1{fill:#FFFFFF;}
	.st2{fill:#444444;}
	.st3{fill:#3B3B3B;}
	.st4{display:none;}
	.st5{display:inline;opacity:0.47;fill:url(#SVGID_1_);enable-background:new    ;}
	.st6{fill:#FF0000;}
	.st7{fill:#262626;}
	.st8{fill:#686868;}
	.st9{fill:#919191;}
	.st10{fill:#7F120D;}
	.st11{fill:#E82010;}
	.st12{fill:#FCE5C0;}
	.st13{fill:#EFCD9C;}
	.st14{fill:#F9CE91;}
	.st15{fill:#EFC88E;}
	.st16{clip-path:url(#SVGID_3_);}
	.st17{opacity:0.63;}
	.st18{opacity:0.12;}
	.st19{fill:#474757;}
	.st20{fill:#BA1911;}
	.st21{fill:#F7DD41;}
	.st22{clip-path:url(#SVGID_5_);}
	.st23{fill:#AAFFF9;}
	.st24{clip-path:url(#SVGID_7_);}
	.st25{clip-path:url(#SVGID_9_);}
	.st26{clip-path:url(#SVGID_11_);}
</style>
<g>
	<g id="Layer_1_1_">
		<rect class="st0" width="800" height="250"/>
	</g>
	<g id="Layer_3">
		<g>
			<path class="st1" d="M713.8,64c-3-16.5-17.4-28.9-34.7-28.9c-4.8,0-9.4,1-13.6,2.7C658.7,28.2,647.6,22,635,22
				c-12.7,0-23.9,6.3-30.6,16c-4.7-3.3-10.3-5.3-16.5-5.3c-15.7,0-28.5,12.7-28.5,28.5c0,0.9,0,1.9,0.1,2.8H713.8z"/>
		</g>
		<g>
			<path class="st1" d="M414.4,94c2.2-12.1,12.8-21.4,25.6-21.4c3.6,0,7,0.7,10,2c5-7.1,13.2-11.7,22.5-11.7
				c9.4,0,17.6,4.7,22.6,11.8c3.4-2.4,7.6-3.9,12.2-3.9c11.6,0,21,9.4,21,21c0,0.7,0,1.4-0.1,2.1H414.4V94z"/>
		</g>
		<g>
			<path class="st1" d="M92.3,62.7c-6.2,0-11.8,2-16.5,5.3c-6.7-9.7-17.9-16-30.6-16c-12.6,0-23.7,6.2-30.5,15.8
				c-4.2-1.8-8.8-2.7-13.6-2.7c-0.4,0-0.7,0-1.1,0V94h120.6c0.1-0.9,0.1-1.9,0.1-2.8C120.8,75.5,108,62.7,92.3,62.7z"/>
		</g>
	</g>
	<path class="st2" d="M565.5,231.1L565.5,231.1c-2.9,0-5.2-2.3-5.2-5.2V31.3c0-2.9,2.3-5.2,5.2-5.2l0,0c2.9,0,5.2,2.3,5.2,5.2v194.6
		C570.7,228.8,568.4,231.1,565.5,231.1z"/>
	<g id="Layer_5">
		<rect y="220" class="st3" width="800" height="30"/>
		<rect x="15" y="220" class="st1" width="99" height="6"/>
		<rect x="221" y="220" class="st1" width="99" height="6"/>
		<rect x="429" y="220" class="st1" width="99" height="6"/>
		<rect x="635" y="220" class="st1" width="99" height="6"/>
	</g>
	<g id="Layer_6">
	</g>
	<g id="Layer_8" class="st4">
		
			<linearGradient id="SVGID_1_" gradientUnits="userSpaceOnUse" x1="400" y1="544" x2="400" y2="794" gradientTransform="matrix(1 0 0 1 0 -544)">
			<stop  offset="0" style="stop-color:#666666"/>
			<stop  offset="1" style="stop-color:#333333"/>
		</linearGradient>
		<rect class="st5" width="800" height="250"/>
	</g>
	<g>
		<g>
			<rect x="570.7" y="36.3" class="st1" width="33.7" height="33.7"/>
			<rect x="570.7" y="70" width="33.7" height="33.7"/>
			<rect x="604.5" y="70.1" class="st1" width="33.7" height="33.7"/>
			<rect x="604.5" y="36.3" width="33.7" height="33.7"/>
			<rect x="638.2" y="36.3" class="st1" width="33.7" height="33.7"/>
			<rect x="638.2" y="70" width="33.7" height="33.7"/>
			<rect x="672" y="70.1" class="st1" width="33.7" height="33.7"/>
			<rect x="672" y="36.3" width="33.7" height="33.7"/>
			<rect x="705.7" y="36.3" class="st1" width="33.7" height="33.7"/>
			<rect x="705.7" y="70" width="33.7" height="33.7"/>
			<rect x="739.5" y="70.1" class="st1" width="33.7" height="33.7"/>
			<rect x="739.5" y="36.3" width="33.7" height="33.7"/>
		</g>
		<g>
			<g>
				<g>
					<path class="st6" d="M620,84.1c-0.5,0-1.1,0-1.9-0.1c-0.8-0.1-1.6-0.2-2.4-0.4c-0.9-0.2-1.8-0.4-2.6-0.7
						c-0.9-0.3-1.7-0.6-2.5-1s-1.5-0.9-2-1.4c-0.6-0.7-0.9-1.4-0.9-2.3s0.3-1.7,1-2.4c0.7-0.7,1.5-1.1,2.4-1.1
						c0.6,0,1.1,0.1,1.6,0.4c0.6,0.3,1.2,0.6,1.8,0.9c0.6,0.2,1.2,0.4,1.8,0.6s1.2,0.3,1.8,0.4s1.3,0.1,2,0.1c0.4,0,1,0,1.6-0.1
						s1.1-0.2,1.6-0.3c0.5-0.2,0.8-0.4,1.2-0.7c0.1-0.1,0.3-0.3,0.3-0.8c0-0.3-0.1-0.7-0.7-1c-0.7-0.4-1.6-0.8-2.7-1.1
						c-1.1-0.4-2.4-0.7-3.7-1.1c-1.4-0.4-2.8-0.9-4-1.6c-1.3-0.7-2.3-1.6-3.2-2.7c-0.9-1.2-1.4-2.7-1.4-4.6c0-1.6,0.4-3,1.2-4.1
						c0.7-1.1,1.7-1.9,2.9-2.5c1.1-0.6,2.3-1,3.7-1.2c1.3-0.2,2.6-0.3,3.8-0.3c0.6,0,1.3,0,2.1,0.1s1.6,0.2,2.4,0.3
						c0.8,0.1,1.6,0.3,2.3,0.5c0.8,0.2,1.5,0.5,2.1,0.7c0.6,0.3,1.1,0.7,1.5,1.1c0.4,0.5,0.6,1.2,0.6,2c0,0.9-0.3,1.8-1,2.4
						s-1.5,1-2.4,1c-0.4,0-0.8-0.1-1.3-0.3c-1-0.4-2.1-0.7-3.1-0.9s-2.1-0.3-3.2-0.3c-0.4,0-0.9,0-1.5,0c-0.5,0-1.1,0.1-1.6,0.2
						c-0.4,0.1-0.8,0.3-1.1,0.5c-0.1,0.1-0.2,0.2-0.2,0.6c0,0.1,0,0.3,0.2,0.5c0.2,0.3,0.6,0.5,1,0.8c0.4,0.3,1,0.5,1.5,0.7
						c0.6,0.2,1.2,0.4,1.8,0.6s1.1,0.3,1.6,0.5c0.5,0.1,0.9,0.3,1.2,0.3c1,0.3,2,0.7,3,1.1s1.9,0.9,2.7,1.6c0.8,0.6,1.4,1.5,1.9,2.4
						c0.5,1,0.7,2.1,0.7,3.4c0,1.7-0.4,3.2-1.1,4.4c-0.7,1.1-1.7,2.1-2.9,2.8c-1.1,0.7-2.4,1.1-3.8,1.4
						C622.7,83.9,621.3,84.1,620,84.1z"/>
					<path d="M620.6,56c0.6,0,1.3,0,2.1,0.1s1.5,0.2,2.3,0.3s1.5,0.3,2.3,0.5c0.7,0.2,1.4,0.4,1.9,0.7c0.4,0.2,0.8,0.5,1.1,0.9
						s0.4,0.8,0.4,1.3c0,0.7-0.2,1.3-0.7,1.7c-0.5,0.5-1.1,0.7-1.7,0.7c-0.3,0-0.6-0.1-0.9-0.2c-1.1-0.4-2.2-0.7-3.2-0.9
						c-1.1-0.2-2.2-0.3-3.4-0.3c-0.4,0-0.9,0-1.5,0s-1.2,0.1-1.8,0.3s-1.1,0.4-1.5,0.7s-0.6,0.8-0.6,1.4c0,0.4,0.2,0.8,0.5,1.2
						s0.7,0.7,1.2,1s1.1,0.6,1.7,0.8c0.6,0.2,1.2,0.4,1.8,0.6s1.1,0.3,1.6,0.5c0.5,0.1,0.9,0.3,1.2,0.3c1,0.3,1.9,0.7,2.9,1
						c0.9,0.4,1.7,0.8,2.4,1.4s1.2,1.3,1.7,2.1c0.4,0.8,0.6,1.8,0.6,3c0,1.5-0.3,2.8-1,3.8s-1.5,1.8-2.5,2.4s-2.2,1-3.5,1.3
						c-1.3,0.2-2.6,0.4-3.9,0.4c-0.4,0-1,0-1.8-0.1c-0.7-0.1-1.5-0.2-2.3-0.4c-0.8-0.2-1.7-0.4-2.5-0.6c-0.8-0.3-1.6-0.6-2.3-0.9
						c-0.7-0.4-1.3-0.8-1.7-1.2c-0.4-0.5-0.7-1-0.7-1.6s0.2-1.2,0.7-1.7s1-0.7,1.7-0.7c0.4,0,0.8,0.1,1.1,0.3
						c0.7,0.4,1.3,0.7,1.9,0.9c0.6,0.3,1.3,0.5,1.9,0.6c0.6,0.2,1.3,0.3,1.9,0.4c0.7,0.1,1.4,0.1,2.1,0.1c0.5,0,1,0,1.7-0.1
						c0.6-0.1,1.3-0.2,1.8-0.4c0.6-0.2,1.1-0.5,1.5-0.9s0.6-0.9,0.6-1.5c0-0.8-0.4-1.4-1.2-1.9s-1.7-0.9-2.9-1.2
						c-1.1-0.4-2.4-0.7-3.8-1.1c-1.4-0.4-2.6-0.9-3.8-1.5c-1.1-0.6-2.1-1.4-2.9-2.5c-0.8-1-1.2-2.4-1.2-4c0-1.4,0.3-2.6,1-3.6
						s1.5-1.7,2.5-2.2s2.2-0.9,3.4-1.1C618.2,56.1,619.5,56,620.6,56 M620.6,54c-1.3,0-2.6,0.1-4,0.3c-1.5,0.2-2.8,0.7-4,1.3
						c-1.3,0.7-2.4,1.6-3.2,2.8c-0.9,1.3-1.3,2.9-1.3,4.7c0,2.1,0.5,3.9,1.6,5.2c0.9,1.2,2.1,2.3,3.5,3c1.3,0.7,2.7,1.3,4.2,1.7
						c1.3,0.4,2.6,0.7,3.7,1.1c1,0.3,1.8,0.6,2.4,1c0.1,0.1,0.2,0.1,0.2,0.1l0,0c0,0,0,0,0,0.1c-0.2,0.2-0.5,0.3-0.8,0.4
						c-0.4,0.1-0.9,0.2-1.4,0.3c-0.6,0.1-1.1,0.1-1.5,0.1c-0.7,0-1.3,0-1.9-0.1c-0.6-0.1-1.1-0.2-1.7-0.3c-0.5-0.1-1.1-0.3-1.6-0.6
						c-0.6-0.2-1.1-0.5-1.7-0.8c-0.7-0.4-1.4-0.6-2.1-0.6c-1.2,0-2.3,0.5-3.1,1.4s-1.3,1.9-1.3,3.1c0,1.1,0.4,2.1,1.2,2.9
						c0.6,0.6,1.4,1.2,2.2,1.6s1.7,0.8,2.6,1c0.9,0.3,1.8,0.5,2.7,0.7s1.7,0.3,2.5,0.4s1.5,0.1,2,0.1c1.4,0,2.8-0.1,4.2-0.4
						c1.5-0.3,2.9-0.8,4.1-1.5c1.3-0.8,2.4-1.8,3.2-3.1c0.9-1.3,1.3-3,1.3-4.9c0-1.5-0.3-2.8-0.8-3.9s-1.3-2-2.2-2.7
						c-0.8-0.7-1.8-1.3-2.9-1.7c-1-0.4-2-0.8-3-1.1l0,0l0,0c-0.3-0.1-0.7-0.2-1.2-0.3c-0.5-0.1-1-0.3-1.6-0.5
						c-0.5-0.2-1.1-0.4-1.7-0.6c-0.5-0.2-1-0.4-1.4-0.6c-0.2-0.1-0.4-0.3-0.6-0.4c0.1-0.1,0.3-0.1,0.5-0.2c0.4-0.1,0.9-0.2,1.3-0.2
						c0.6,0,1.1,0,1.5,0c1,0,2,0.1,3,0.3s2,0.5,3,0.8c0.6,0.2,1.1,0.3,1.6,0.3c1.2,0,2.3-0.5,3.2-1.3c0.9-0.9,1.3-1.9,1.3-3.2
						c0-1-0.3-1.9-0.9-2.6c-0.5-0.6-1.1-1.1-1.8-1.4c-0.7-0.3-1.4-0.6-2.3-0.8c-0.8-0.2-1.6-0.4-2.4-0.5c-0.8-0.2-1.7-0.3-2.5-0.3
						C622,54.1,621.3,54,620.6,54L620.6,54z"/>
				</g>
				<g>
					<path class="st6" d="M644.9,83.9c-1,0-1.9-0.4-2.6-1.1c-0.7-0.7-1-1.6-1-2.6V62.4h-6.2c-1,0-1.8-0.3-2.4-1s-1-1.5-1-2.4
						s0.3-1.8,1-2.4c0.7-0.7,1.5-1,2.4-1h19.6c0.9,0,1.8,0.3,2.4,1c0.7,0.7,1,1.5,1,2.4s-0.4,1.8-1,2.4c-0.7,0.7-1.5,1-2.4,1h-6.2
						v17.9c0,1-0.4,1.9-1.1,2.6C646.7,83.5,645.9,83.9,644.9,83.9z"/>
					<path d="M654.7,56.5c0.7,0,1.3,0.2,1.7,0.7c0.5,0.5,0.7,1.1,0.7,1.7c0,0.7-0.2,1.3-0.7,1.7c-0.5,0.5-1.1,0.7-1.7,0.7h-7.2v18.9
						c0,0.7-0.3,1.4-0.8,1.9s-1.1,0.8-1.9,0.8s-1.3-0.3-1.8-0.8s-0.7-1.1-0.7-1.9V61.4h-7.2c-0.7,0-1.3-0.2-1.7-0.7s-0.7-1-0.7-1.7
						s0.2-1.3,0.7-1.7s1-0.7,1.7-0.7L654.7,56.5 M654.7,54.5h-19.6c-1.2,0-2.3,0.5-3.2,1.3c-0.8,0.9-1.3,1.9-1.3,3.1
						c0,1.2,0.4,2.3,1.3,3.1c0.8,0.8,1.9,1.3,3.1,1.3h5.2v16.9c0,1.3,0.5,2.4,1.3,3.3c0.9,0.9,2,1.4,3.3,1.4s2.4-0.5,3.3-1.3
						c0.9-0.9,1.3-2,1.3-3.3V63.4h5.2c1.2,0,2.3-0.4,3.1-1.3c0.9-0.8,1.3-1.9,1.3-3.2c0-1.2-0.5-2.3-1.3-3.2
						C657,54.9,655.9,54.5,654.7,54.5L654.7,54.5z"/>
				</g>
				<g>
					<path class="st6" d="M680.2,83.9c-0.7,0-1.3-0.2-1.9-0.5c-0.5-0.3-1-0.8-1.2-1.4l-1.9-4.2h-10l-1.9,4.2
						c-0.3,0.6-0.7,1.1-1.3,1.5c-0.6,0.3-1.2,0.5-1.8,0.5c-1,0-1.8-0.3-2.4-1c-0.7-0.7-1-1.5-1-2.4c0-0.5,0.1-1,0.3-1.4l10-21.9
						c0.3-0.6,0.7-1.1,1.2-1.4c0.6-0.4,1.2-0.6,1.8-0.6s1.3,0.2,1.8,0.5c0.6,0.4,1,0.8,1.3,1.5l10,21.9c0.2,0.5,0.3,1,0.3,1.4
						c0,0.9-0.3,1.8-1,2.4C682,83.5,681.1,83.9,680.2,83.9z M672.3,71.3l-2.1-4.7l-2.1,4.7H672.3z"/>
					<path d="M670.1,56.1c0.5,0,0.9,0.1,1.3,0.4c0.4,0.2,0.7,0.6,0.9,1l10,21.9c0.1,0.3,0.2,0.7,0.2,1c0,0.7-0.2,1.3-0.7,1.7
						s-1,0.7-1.7,0.7c-0.5,0-0.9-0.1-1.3-0.4c-0.4-0.2-0.7-0.6-0.9-1l-2.2-4.8h-11.3l-2.2,4.8c-0.2,0.4-0.5,0.8-0.9,1
						s-0.8,0.4-1.3,0.4c-0.7,0-1.3-0.2-1.7-0.7c-0.5-0.5-0.7-1.1-0.7-1.7c0-0.3,0.1-0.7,0.2-1l10-21.9c0.2-0.4,0.5-0.8,0.9-1
						C669.2,56.3,669.6,56.1,670.1,56.1 M666.5,72.3h7.3l-3.7-8.1L666.5,72.3 M670.1,54.1c-0.9,0-1.7,0.2-2.4,0.7s-1.2,1.1-1.6,1.9
						l-10,21.8c-0.3,0.6-0.4,1.2-0.4,1.8c0,1.2,0.5,2.3,1.3,3.2c0.9,0.9,1.9,1.3,3.2,1.3c0.9,0,1.6-0.2,2.4-0.7
						c0.7-0.5,1.3-1.1,1.6-1.9l1.6-3.6h8.7l1.6,3.6c0.4,0.8,0.9,1.4,1.6,1.9c0.7,0.5,1.5,0.7,2.4,0.7c1.2,0,2.3-0.5,3.1-1.3
						s1.3-1.9,1.3-3.1c0-0.6-0.1-1.2-0.3-1.7v-0.1v-0.1l-10-21.9c-0.4-0.8-1-1.5-1.7-1.9C671.7,54.4,670.9,54.1,670.1,54.1
						L670.1,54.1z M669.6,70.3l0.6-1.3l0.6,1.3H669.6L669.6,70.3z"/>
				</g>
				<g>
					<path class="st6" d="M706.3,83.9c-0.7,0-1.3-0.2-1.8-0.5c-0.6-0.3-1-0.8-1.3-1.4c-0.1-0.2-0.3-0.5-0.5-1l-0.8-1.7
						c-0.4-0.8-0.7-1.5-1.1-2.3c-0.4-0.8-0.8-1.5-1.1-2.2c-0.3-0.6-0.6-1.2-0.8-1.6c0-0.1-0.1-0.1-0.1-0.2h-5.5v7.3
						c0,1-0.4,1.9-1.1,2.6c-0.7,0.7-1.6,1-2.5,1c-1,0-1.9-0.3-2.5-1c-0.7-0.7-1-1.5-1-2.5V59.1c0-1,0.3-1.9,1-2.5
						c0.7-0.7,1.5-1,2.5-1h9.7c1.3,0,2.7,0.1,3.9,0.4c1.3,0.3,2.4,0.8,3.4,1.5s1.8,1.7,2.4,2.8c0.6,1.1,0.9,2.5,0.9,4.1
						c0,1.7-0.4,3.3-1.2,4.6c-0.6,1.1-1.6,2-2.7,2.6c0,0.1,0.1,0.1,0.1,0.2c0.3,0.5,0.6,1.1,0.9,1.7c0.3,0.6,0.6,1.3,1,1.9
						c0.3,0.7,0.6,1.3,0.9,1.9c0.3,0.6,0.5,1.2,0.7,1.7c0.2,0.6,0.3,1,0.3,1.4c0,1-0.3,1.8-1,2.5C708.1,83.5,707.3,83.9,706.3,83.9z
						 M700.1,66.6c0.8,0,1.4-0.2,1.9-0.6c0.3-0.2,0.6-0.6,0.6-1.5c0-1-0.4-1.4-0.6-1.6c-0.5-0.4-1.1-0.6-1.9-0.6h-6.8v4.3
						C693.3,66.6,700.1,66.6,700.1,66.6z"/>
					<path d="M699.4,56.5c1.3,0,2.5,0.1,3.7,0.4c1.2,0.3,2.2,0.7,3,1.4c0.9,0.6,1.5,1.4,2.1,2.4s0.8,2.2,0.8,3.6
						c0,1.5-0.4,2.9-1.1,4.1c-0.7,1.2-1.8,2.1-3.2,2.7c0.1,0.3,0.3,0.6,0.6,1.1s0.5,1,0.9,1.7c0.3,0.6,0.6,1.3,1,1.9
						s0.6,1.3,0.9,1.9c0.3,0.6,0.5,1.1,0.7,1.6s0.3,0.8,0.3,1c0,0.7-0.2,1.3-0.7,1.8s-1.1,0.7-1.8,0.7c-0.5,0-0.9-0.1-1.3-0.4
						c-0.4-0.2-0.7-0.6-0.9-1c-0.1-0.1-0.2-0.5-0.5-1s-0.5-1.1-0.9-1.8c-0.3-0.7-0.7-1.4-1.1-2.2c-0.4-0.8-0.7-1.5-1.1-2.1
						c-0.3-0.7-0.6-1.2-0.8-1.6s-0.3-0.7-0.3-0.7h-7.2v8.3c0,0.7-0.3,1.3-0.8,1.8s-1.1,0.7-1.8,0.7s-1.3-0.2-1.8-0.7
						s-0.7-1.1-0.7-1.8V59.1c0-0.7,0.2-1.3,0.7-1.8s1.1-0.7,1.8-0.7L699.4,56.5 M692.3,67.6h7.8c1,0,1.8-0.3,2.5-0.8
						s1.1-1.3,1.1-2.3s-0.3-1.8-1-2.4c-0.7-0.5-1.5-0.8-2.5-0.8h-7.8L692.3,67.6 M699.4,54.5h-9.7c-1.3,0-2.4,0.5-3.3,1.3
						c-0.9,0.9-1.3,2-1.3,3.3v21.2c0,1.3,0.5,2.4,1.3,3.3c0.9,0.9,2,1.3,3.3,1.3c1.2,0,2.3-0.4,3.2-1.3s1.4-2,1.4-3.3V74h3.9
						c0.2,0.4,0.4,0.8,0.6,1.2c0.3,0.7,0.7,1.4,1.1,2.2c0.4,0.8,0.7,1.5,1.1,2.2v0.1l0.8,1.7c0.3,0.6,0.4,0.9,0.5,1
						c0.4,0.8,0.9,1.4,1.6,1.8c0.7,0.4,1.5,0.7,2.4,0.7c1.2,0,2.3-0.5,3.2-1.3c0.9-0.9,1.3-2,1.3-3.2c0-0.5-0.1-1-0.4-1.7
						c-0.2-0.5-0.4-1.1-0.7-1.7s-0.6-1.3-0.9-1.9c-0.3-0.7-0.7-1.3-1-2c-0.2-0.4-0.4-0.8-0.6-1.1c0.9-0.7,1.7-1.5,2.3-2.5
						c0.9-1.5,1.3-3.2,1.3-5.1c0-1.7-0.3-3.3-1-4.6s-1.5-2.3-2.7-3.1c-1.1-0.8-2.3-1.3-3.7-1.7C702.2,54.7,700.8,54.5,699.4,54.5
						L699.4,54.5z M694.3,63.3h5.8c0.7,0,1.1,0.2,1.3,0.4c0.1,0.1,0.3,0.2,0.3,0.8c0,0.5-0.2,0.7-0.2,0.7c-0.4,0.3-0.8,0.4-1.3,0.4
						h-5.8L694.3,63.3L694.3,63.3z"/>
				</g>
				<g>
					<path class="st6" d="M723.8,83.9c-1,0-1.9-0.4-2.6-1.1c-0.7-0.7-1-1.6-1-2.6V62.4H714c-1,0-1.8-0.3-2.4-1s-1-1.5-1-2.4
						s0.3-1.8,1-2.4c0.7-0.7,1.5-1,2.4-1h19.6c1,0,1.8,0.3,2.4,1c0.7,0.7,1,1.5,1,2.4s-0.4,1.8-1,2.4c-0.7,0.7-1.5,1-2.4,1h-6.2
						v17.9c0,1-0.4,1.9-1.1,2.6C725.7,83.5,724.8,83.9,723.8,83.9z"/>
					<path d="M733.6,56.5c0.7,0,1.3,0.2,1.7,0.7c0.5,0.5,0.7,1.1,0.7,1.7c0,0.7-0.2,1.3-0.7,1.7c-0.5,0.5-1.1,0.7-1.7,0.7h-7.2v18.9
						c0,0.7-0.3,1.4-0.8,1.9s-1.1,0.8-1.9,0.8s-1.3-0.3-1.8-0.8s-0.7-1.1-0.7-1.9V61.4H714c-0.7,0-1.3-0.2-1.7-0.7s-0.7-1-0.7-1.7
						s0.2-1.3,0.7-1.7s1-0.7,1.7-0.7L733.6,56.5 M733.6,54.5H714c-1.2,0-2.3,0.5-3.2,1.3c-0.8,0.9-1.3,1.9-1.3,3.1
						c0,1.2,0.4,2.3,1.3,3.1c0.8,0.8,1.9,1.3,3.1,1.3h5.2v16.9c0,1.3,0.5,2.4,1.3,3.3c0.9,0.9,2,1.4,3.3,1.4s2.4-0.5,3.3-1.3
						c0.9-0.9,1.3-2,1.3-3.3V63.4h5.2c1.2,0,2.3-0.4,3.1-1.3c0.9-0.8,1.3-1.9,1.3-3.2c0-1.2-0.5-2.3-1.3-3.2
						C735.9,54.9,734.8,54.5,733.6,54.5L733.6,54.5z"/>
				</g>
			</g>
		</g>
		<path class="st2" d="M778.4,231.1L778.4,231.1c-2.9,0-5.2-2.3-5.2-5.2V31.3c0-2.9,2.3-5.2,5.2-5.2l0,0c2.9,0,5.2,2.3,5.2,5.2
			v194.6C783.6,228.8,781.2,231.1,778.4,231.1z"/>
	</g>
</g>
<g>
	<path class="st7" d="M392.1,143.5C284.6,89,198.6,244.4,91.7,195.2c-3.8-1.8-8.1,1.3-7.6,5.5c0.6,4.4,1.2,8.8,1.7,13.1
		c0.2,1.7,1.2,3.1,2.7,3.9c108.1,60,194.6-92.3,301.8-41.5c3.8,1.8,8.1-1.3,7.6-5.5c-1-7.8-1.9-15.5-2.9-23.3
		C394.8,145.9,393.7,144.3,392.1,143.5z"/>
	<path class="st8" d="M141.7,234.5c-17.6,0-35.7-4.1-54.4-14.5c-2.1-1.2-3.6-3.4-3.9-5.8l-1.7-13.1c-0.4-2.9,0.8-5.6,3.1-7.3
		c2.3-1.7,5.3-2,8-0.8c23.4,10.8,47,12.4,74.3,5.1c24.2-6.5,48.3-19.4,71.6-31.9c48.7-26.1,99-53.1,154.6-24.9l0,0
		c2.4,1.2,4,3.5,4.3,6.1l2.9,23.3c0.4,2.9-0.8,5.6-3.2,7.3c-2.3,1.7-5.4,2-8,0.7c-23.3-11.1-46.8-13.2-73.9-6.8
		c-24.1,5.7-48.1,17.7-71.3,29.3C211,217.7,177.3,234.5,141.7,234.5z M89.4,197.2c-0.6,0-1.2,0.2-1.7,0.6c-0.4,0.3-1.3,1.1-1.1,2.6
		l1.7,13.1c0.1,0.9,0.6,1.7,1.4,2.1c24.6,13.6,49.2,17.1,77.6,11.1c25.2-5.4,50.3-17.9,74.5-30c47.2-23.6,96-48,149.5-22.6
		c1,0.5,2.1,0.4,2.9-0.3c0.4-0.3,1.3-1.1,1.1-2.6l-2.9-23.3c-0.1-0.9-0.7-1.8-1.6-2.2c-24.2-12.3-48.5-14.7-76.5-7.6
		c-24.9,6.3-49.6,19.6-73.5,32.4c-34,18.2-68.8,36.9-105.6,36.9c-14.6,0-29.5-2.9-44.7-9.9C90.2,197.3,89.8,197.2,89.4,197.2z"/>
</g>
<g>
	<circle class="st7" cx="88.7" cy="172.4" r="55"/>
	<path class="st9" d="M88.7,103.7c-37.9,0-68.7,30.8-68.7,68.7s30.8,68.7,68.7,68.7s68.7-30.8,68.7-68.7S126.6,103.7,88.7,103.7
		L88.7,103.7z M134.3,126.8c6.6,6.6,6.6,17.3,0,23.9c-6.6,6.6-17.3,6.6-23.9,0s-6.6-17.3,0-23.9c0,0,0,0,0,0
		C117,120.2,127.7,120.2,134.3,126.8z M88.7,107.9c9.3,0,16.9,7.6,16.9,16.9c0,9.3-7.6,16.9-16.9,16.9s-16.9-7.6-16.9-16.9
		C71.8,115.5,79.4,107.9,88.7,107.9C88.7,107.9,88.7,107.9,88.7,107.9z M97.2,173.5c0,4.7-3.8,8.5-8.5,8.4c-4.7,0-8.5-3.8-8.4-8.5
		c0-4.7,3.8-8.4,8.5-8.4C93.4,165,97.2,168.8,97.2,173.5C97.2,173.5,97.2,173.5,97.2,173.5z M43.1,126.8c6.6-6.6,17.3-6.6,23.9,0
		c6.6,6.6,6.6,17.3,0,23.9c-6.6,6.6-17.3,6.6-23.9,0c0,0,0,0,0,0C36.5,144.1,36.5,133.4,43.1,126.8z M24.2,172.4
		c0-9.3,7.6-16.9,16.9-16.9c9.3,0,16.9,7.6,16.9,16.9c0,9.3-7.6,16.9-16.9,16.9c0,0,0,0,0,0C31.8,189.3,24.2,181.7,24.2,172.4
		C24.2,172.4,24.2,172.4,24.2,172.4z M43.1,218c-6.6-6.6-6.6-17.3,0-23.9c6.6-6.6,17.3-6.6,23.9,0s6.6,17.3,0,23.9c0,0,0,0,0,0
		C60.4,224.6,49.7,224.6,43.1,218z M88.7,236.9c-9.3,0-16.9-7.6-16.9-16.9c0-9.3,7.6-16.9,16.9-16.9s16.9,7.6,16.9,16.9l0,0
		C105.6,229.3,98,236.9,88.7,236.9L88.7,236.9z M134.3,218c-6.6,6.6-17.3,6.6-23.9,0c-6.6-6.6-6.6-17.3,0-23.9
		c6.6-6.6,17.3-6.6,23.9,0c0,0,0,0,0,0C140.9,200.7,140.9,211.4,134.3,218z M136.3,189.3c-9.3,0-16.9-7.6-16.9-16.9
		s7.6-16.9,16.9-16.9s16.9,7.6,16.9,16.9l0,0C153.2,181.7,145.6,189.3,136.3,189.3z"/>
</g>
<g>
	<g id="Layer_2_1_">
		<g id="Layer_1-2">
			<g id="Premium_Mustang">
				<path class="st10" d="M459.7,204.4l-21.2-5l-5.7-3.9l-1.8-8.9l1.8-2.8h2l6.5-12.7l14.7-2.5l39.8-12.7l7.4-1.8l23.8-0.4
					c6.1-0.1,12.1,0.7,17.9,2.4l1.5,0.4l29.4,15.6l5-1.1l34.7,2.8l17,4.2l7.8,3.2l-1.4,0.7l-0.7,1.4v7.8l5.3,1.4l-2.8,1.4l0.7,1.4
					l1.8,1.8l-0.4,1.1l-2.1,1.4l-3.2,4.2l-1.4,3.5h-46.9L459.7,204.4z"/>
				<path class="st11" d="M432.8,183.5h2l4-15.2h17.2l39.8-12.7l7.4-1.8l26.4-0.5c4.3-0.1,8.6,0.5,12.7,1.7l0,0
					c2.7,0.8,5.3,1.9,7.7,3.2l25.7,13.6l5-1.1l34.7,2.8l17,4.2l7.8,3.2v1.8l-1.1,0.4l-1.1,7.8l5.3,1.4l0.7,1.4l-1.1,1.1v2.1l1.1,1.2
					l-1.1,0.9l-3.2,5.3l-3.9,2.8l-9.9,0.4h-0.7c0-9.8-7.9-18.1-17.7-18.1c-9.8,0-17.7,7.9-17.7,17.7c0,0,0,0,0,0h-0.9l-94.4-1.8
					c-1-8.8-8.6-15.9-17.7-15.9c-8.7,0-16,6.3-17.5,14.8l-23.6-2.4l-4.6-4.6l-1.8-11L432.8,183.5z"/>
				<g>
					<path class="st12" d="M510.3,181.8c0-2-1.6-3.6-3.6-3.6c-0.9,0-1.8,0.4-2.5,1c-1.5-1.1-3.6-0.7-4.7,0.8
						c-1.1,1.5-0.7,3.6,0.8,4.7c0.3,0.2,0.6,0.4,1,0.5c-0.9,2,0,4.4,2,5.2c2,0.9,4.4,0,5.2-2c0.5-1.1,0.4-2.5-0.2-3.5
						C509.6,184.3,510.3,183.1,510.3,181.8z"/>
					<path class="st13" d="M528.1,185.6c1.8-0.7,2.8-2.7,2.1-4.6c-0.3-0.9-1-1.6-1.8-2c0.5-1.8-0.6-3.6-2.4-4.1
						c-1.8-0.5-3.6,0.6-4.1,2.4c-0.1,0.4-0.1,0.7-0.1,1.1c-2.2-0.1-4.1,1.5-4.2,3.7s1.5,4.1,3.7,4.2c1.2,0.1,2.5-0.4,3.3-1.4
						C525.6,185.8,526.9,186.1,528.1,185.6z"/>
					<path class="st13" d="M618.3,187.3c1.8-0.7,2.8-2.7,2.1-4.6c-0.3-0.9-1-1.6-1.8-2c0.5-1.8-0.6-3.6-2.4-4.1s-3.6,0.6-4.1,2.4
						c-0.1,0.4-0.1,0.7-0.1,1.1c-2.2-0.1-4.1,1.5-4.2,3.7s1.5,4.1,3.7,4.2c1.2,0.1,2.5-0.4,3.3-1.4
						C615.8,187.4,617.1,187.7,618.3,187.3z"/>
					<path class="st12" d="M544.3,191.3c1.6,1.1,3.8,0.6,4.9-1c0.5-0.8,0.7-1.7,0.5-2.6c1.7-0.7,2.5-2.6,1.8-4.4
						c-0.7-1.7-2.6-2.5-4.4-1.8c-0.3,0.1-0.7,0.3-0.9,0.6c-1.2-1.8-3.7-2.4-5.5-1.2c-1.8,1.2-2.4,3.7-1.2,5.5c0.7,1,1.8,1.7,3.1,1.8
						C542.6,189.4,543.2,190.7,544.3,191.3z"/>
					<path class="st12" d="M487.7,181.7c1.6,1.1,3.8,0.6,4.9-1c0.5-0.8,0.7-1.7,0.5-2.6c1.7-0.7,2.5-2.6,1.8-4.4
						c-0.7-1.7-2.6-2.5-4.4-1.8c-0.3,0.1-0.7,0.3-0.9,0.6c-1.2-1.8-3.7-2.4-5.5-1.2c-1.8,1.2-2.4,3.7-1.2,5.5c0.7,1,1.8,1.7,3.1,1.8
						C486,179.8,486.6,181,487.7,181.7z"/>
					<path class="st14" d="M579.4,192.7c1.6,1.1,3.8,0.6,4.9-1c0.5-0.8,0.7-1.7,0.5-2.6c1.7-0.7,2.5-2.6,1.8-4.4
						c-0.7-1.7-2.6-2.5-4.4-1.8c-0.3,0.1-0.7,0.3-0.9,0.6c-1.2-1.8-3.7-2.4-5.5-1.2c-1.8,1.2-2.4,3.7-1.2,5.5c0.7,1,1.8,1.7,3.1,1.8
						C577.8,190.8,578.4,192,579.4,192.7z"/>
					<path class="st14" d="M447.4,185.5c1.6,1.1,3.8,0.6,4.9-1c0.5-0.8,0.7-1.7,0.5-2.6c1.7-0.7,2.5-2.6,1.8-4.4
						c-0.7-1.7-2.6-2.5-4.4-1.8c-0.3,0.1-0.7,0.3-0.9,0.6c-1.2-1.8-3.7-2.4-5.5-1.2c-1.8,1.2-2.4,3.7-1.2,5.5c0.7,1,1.8,1.7,3.1,1.8
						C445.7,183.6,446.4,184.8,447.4,185.5z"/>
					<path class="st15" d="M567.6,185.3c1.6-1.1,2.1-3.3,1-4.9c-0.5-0.8-1.3-1.3-2.2-1.5c0-1.8-1.4-3.4-3.3-3.4
						c-1.8,0-3.4,1.4-3.4,3.3c0,0.4,0,0.7,0.2,1.1c-2.2,0.4-3.6,2.4-3.3,4.6c0.4,2.2,2.4,3.6,4.6,3.3c1.2-0.2,2.3-1,2.9-2.1
						C565.2,186.1,566.5,186,567.6,185.3z"/>
					<path class="st15" d="M462.3,195.4c1.6-1.1,2.1-3.3,1-4.9c-0.5-0.8-1.3-1.3-2.2-1.5c0-1.8-1.4-3.4-3.3-3.4
						c-1.8,0-3.4,1.4-3.4,3.3c0,0.4,0,0.7,0.2,1.1c-2.2,0.4-3.6,2.4-3.3,4.6s2.4,3.6,4.6,3.3c1.2-0.2,2.3-1,2.9-2.1
						C459.9,196.1,461.3,196.1,462.3,195.4z"/>
					<path class="st15" d="M479.9,186.9c1.6-1.1,2.1-3.3,1-4.9c-0.5-0.8-1.3-1.3-2.2-1.5c0-1.8-1.4-3.4-3.3-3.4
						c-1.8,0-3.4,1.4-3.4,3.3c0,0.4,0,0.7,0.2,1.1c-2.2,0.4-3.6,2.4-3.3,4.6c0.4,2.2,2.4,3.6,4.6,3.3c1.2-0.2,2.3-1,2.9-2.1
						C477.5,187.7,478.8,187.6,479.9,186.9z"/>
					<path class="st12" d="M601.2,184.4c1.6-1.1,2.1-3.3,1-4.9c-0.5-0.8-1.3-1.3-2.2-1.5c0-1.8-1.4-3.4-3.3-3.4
						c-1.8,0-3.4,1.4-3.4,3.3c0,0.4,0,0.7,0.2,1.1c-2.2,0.4-3.6,2.4-3.3,4.6c0.4,2.2,2.4,3.6,4.6,3.3c1.2-0.2,2.3-1,2.9-2.1
						C598.8,185.2,600.1,185.1,601.2,184.4z"/>
					<path class="st12" d="M468.6,180.2c1.6-1.1,2.1-3.3,1-4.9c-0.5-0.8-1.3-1.3-2.2-1.5c0-1.8-1.4-3.4-3.3-3.4
						c-1.8,0-3.4,1.4-3.4,3.3c0,0.4,0,0.7,0.2,1.1c-2.2,0.4-3.6,2.4-3.3,4.6c0.4,2.2,2.4,3.6,4.6,3.3c1.2-0.2,2.3-1,2.9-2.1
						C466.2,180.9,467.6,180.9,468.6,180.2z"/>
				</g>
				<g>
					<defs>
						<path id="SVGID_2_" d="M432.8,183.5h2l4-15.2h17.2l39.8-12.7l7.4-1.8l26.4-0.5c4.3-0.1,8.6,0.5,12.7,1.7l0,0
							c2.7,0.8,5.3,1.9,7.7,3.2l25.7,13.6l5-1.1l34.7,2.8l17,4.2l7.8,3.2v1.8l-1.1,0.4l-1.1,7.8l5.3,1.4l0.7,1.4l-1.1,1.1v2.1
							l1.1,1.2l-1.1,0.9l-3.2,5.3l-3.9,2.8h-10.6c-0.1-9.8-8-17.7-17.8-17.6c-9.7,0.1-17.6,7.9-17.6,17.6h-0.9l-94.5-2.1
							c-1.1-9.7-9.9-16.7-19.7-15.5c-7.8,0.9-14.1,6.9-15.4,14.7l-23.6-2.4l-4.6-4.6l-1.8-11L432.8,183.5z"/>
					</defs>
					<clipPath id="SVGID_3_">
						<use xlink:href="#SVGID_2_"  style="overflow:visible;"/>
					</clipPath>
					<g class="st16">
						<g class="st17">
							
								<rect x="535.3" y="137.3" transform="matrix(2.392622e-02 -0.9997 0.9997 2.392622e-02 329.8052 730.6317)" width="7.4" height="118.3"/>
						</g>
						<g class="st18">
							<polygon points="428.6,173.6 506.5,176.4 571.3,178.5 607.8,180.3 623.4,183.1 643.5,183.1 646,183.1 613.9,177.1 
								571.7,175.5 429.6,169.7 							"/>
						</g>
					</g>
				</g>
				<path class="st19" d="M590.6,204.7l-0.4,4.4c-0.1,0.9-0.9,1.6-1.8,1.6l-92.1-2.8c-0.5,0-0.9-0.4-1-0.8l-1.2-4.5
					c-0.2-0.6,0.2-1.2,0.8-1.4c0.1,0,0.2,0,0.3,0l92.3,3.8l1.9-1.1c0.4-0.2,0.8-0.1,1,0.3C590.6,204.4,590.7,204.6,590.6,204.7z"/>
				<path class="st19" d="M638.5,183.5l-1.6,6.9c0,0.1-0.1,0.3-0.2,0.3l-0.7,0.7c-0.1,0.1-0.3,0.2-0.5,0.2h-3.7
					c-0.2,0-0.4-0.2-0.4-0.4c0,0,0-0.1,0-0.1l2-5.9c0.2-0.4,0.4-0.8,0.8-1.2l0,0c0.5-0.4,1.1-0.7,1.7-0.7l2.3-0.2
					C638.3,183.2,638.5,183.3,638.5,183.5C638.5,183.5,638.5,183.5,638.5,183.5z"/>
				<path class="st20" d="M441.6,172.5l-1.6,6.9c0,0.1-0.1,0.3-0.2,0.3l-0.7,0.7c-0.1,0.1-0.3,0.2-0.5,0.2h-3.7
					c-0.2,0-0.4-0.2-0.4-0.4c0,0,0-0.1,0-0.1l2-5.9c0.2-0.4,0.4-0.8,0.8-1.2l0,0c0.5-0.4,1.1-0.7,1.7-0.7l2.3-0.2
					C441.4,172.2,441.6,172.3,441.6,172.5C441.6,172.5,441.6,172.5,441.6,172.5z"/>
				<path class="st21" d="M641.2,195.7l-0.4,1.3c-0.1,0.2-0.2,0.3-0.4,0.3h-8.9c-0.1,0-0.3-0.1-0.3-0.2l-0.8-1.3
					c-0.1-0.2-0.1-0.4,0.1-0.6c0.1,0,0.1-0.1,0.2-0.1h10.1c0.2,0,0.4,0.2,0.4,0.4C641.3,195.6,641.2,195.7,641.2,195.7z"/>
				<path class="st20" d="M445.1,191.9l-0.6,1.2c-0.1,0.2-0.3,0.2-0.4,0.2l-8.8-1.3c-0.1,0-0.3-0.1-0.3-0.2l-0.6-1.4
					c-0.1-0.2,0-0.5,0.2-0.5c0.1,0,0.2,0,0.2,0l10,1.5c0.2,0,0.4,0.2,0.3,0.5C445.1,191.9,445.1,191.9,445.1,191.9z"/>
				<path class="st19" d="M636.4,207.9h-9.5c-0.1,0-0.1,0-0.2-0.1l-0.5-1.1c0-0.1,0-0.2,0.1-0.2c0,0,0,0,0.1,0h11.5
					c0.1,0,0.2,0.1,0.2,0.2c0,0.1,0,0.1-0.1,0.1L636.4,207.9C636.5,207.9,636.4,207.9,636.4,207.9z"/>
				<g>
					<defs>
						<path id="SVGID_4_" d="M571.3,173.6c0,0-22.3-18.4-40.7-17.4c0,0-19.8,0.4-21.2,1.4c0,0-3.5,0.4-2.5,3.9l3.2,10.3L571.3,173.6
							z"/>
					</defs>
					<clipPath id="SVGID_5_">
						<use xlink:href="#SVGID_4_"  style="overflow:visible;"/>
					</clipPath>
					<g class="st22">
						<path class="st23" d="M569.2,155.2h-63.4v18.4h65.5v-18.4H569.2z"/>
					</g>
				</g>
				<g>
					<defs>
						<path id="SVGID_6_" d="M479.2,164.4l16.3-4.2c0,0,2.1-0.7,2.8,1.4l2.1,6c0,0,0.4,2.1-1.8,2.1l-18.8-0.7c0,0-2.5,0.4-2.8-1.8
							C477.1,167.2,476.7,165.1,479.2,164.4z"/>
					</defs>
					<clipPath id="SVGID_7_">
						<use xlink:href="#SVGID_6_"  style="overflow:visible;"/>
					</clipPath>
					<g class="st24">
						<path class="st23" d="M500.5,159.4h-23.7v10.3h24.1v-10.3H500.5z"/>
					</g>
				</g>
				<g>
					<circle class="st7" cx="477.2" cy="207.3" r="13.2"/>
					<path class="st9" d="M477.2,190.8c-9.1,0-16.5,7.4-16.5,16.5c0,9.1,7.4,16.5,16.5,16.5s16.5-7.4,16.5-16.5l0,0
						C493.6,198.2,486.3,190.8,477.2,190.8z M488.1,196.4c1.6,1.6,1.6,4.1,0,5.7c-1.6,1.6-4.1,1.6-5.7,0c-1.6-1.6-1.6-4.1,0-5.7
						c0,0,0,0,0,0C484,194.8,486.5,194.8,488.1,196.4z M477.2,191.8c2.2,0,4.1,1.8,4.1,4.1s-1.8,4.1-4.1,4.1c-2.2,0-4.1-1.8-4.1-4.1
						S474.9,191.8,477.2,191.8C477.2,191.8,477.2,191.8,477.2,191.8z M479.2,207.5c0,1.1-0.9,2-2,2c-1.1,0-2-0.9-2-2
						c0-1.1,0.9-2,2-2C478.3,205.5,479.2,206.4,479.2,207.5C479.2,207.5,479.2,207.5,479.2,207.5L479.2,207.5z M466.3,196.4
						c1.6-1.6,4.1-1.6,5.7,0c1.6,1.6,1.6,4.1,0,5.7c-1.6,1.6-4.1,1.6-5.7,0c0,0,0,0,0,0C464.7,200.5,464.7,198,466.3,196.4z
						 M461.7,207.3c0-2.2,1.8-4.1,4.1-4.1c2.2,0,4.1,1.8,4.1,4.1c0,2.2-1.8,4.1-4.1,4.1l0,0C463.5,211.3,461.7,209.5,461.7,207.3
						C461.7,207.3,461.7,207.3,461.7,207.3z M466.3,218.2c-1.6-1.6-1.6-4.1,0-5.7s4.1-1.6,5.7,0c1.6,1.6,1.6,4.1,0,5.7c0,0,0,0,0,0
						C470.4,219.8,467.8,219.8,466.3,218.2z M477.2,222.7c-2.2,0-4.1-1.8-4.1-4.1c0-2.2,1.8-4.1,4.1-4.1c2.2,0,4.1,1.8,4.1,4.1
						c0,0,0,0,0,0C481.2,220.9,479.4,222.7,477.2,222.7L477.2,222.7z M488.1,218.2c-1.6,1.6-4.1,1.6-5.7,0c-1.6-1.6-1.6-4.1,0-5.7
						c1.6-1.6,4.1-1.6,5.7,0c0,0,0,0,0,0C489.7,214.1,489.7,216.6,488.1,218.2z M488.6,211.3c-2.2,0-4.1-1.8-4.1-4.1
						s1.8-4.1,4.1-4.1c2.2,0,4.1,1.8,4.1,4.1c0,0,0,0,0,0C492.6,209.5,490.8,211.3,488.6,211.3L488.6,211.3z"/>
				</g>
				<g>
					<circle class="st7" cx="607.8" cy="207.3" r="13.2"/>
					<path class="st9" d="M607.8,190.8c-9.1,0-16.5,7.4-16.5,16.5c0,9.1,7.4,16.5,16.5,16.5c9.1,0,16.5-7.4,16.5-16.5l0,0
						C624.3,198.2,616.9,190.8,607.8,190.8z M618.8,196.4c1.6,1.6,1.6,4.1,0,5.7c-1.6,1.6-4.1,1.6-5.7,0c-1.6-1.6-1.6-4.1,0-5.7
						c0,0,0,0,0,0C614.6,194.8,617.2,194.8,618.8,196.4z M607.8,191.8c2.2,0,4.1,1.8,4.1,4.1s-1.8,4.1-4.1,4.1
						c-2.2,0-4.1-1.8-4.1-4.1S605.6,191.8,607.8,191.8C607.8,191.8,607.8,191.8,607.8,191.8z M609.9,207.5c0,1.1-0.9,2-2,2
						c-1.1,0-2-0.9-2-2c0-1.1,0.9-2,2-2C609,205.5,609.9,206.4,609.9,207.5C609.9,207.5,609.9,207.5,609.9,207.5L609.9,207.5z
						 M596.9,196.4c1.6-1.6,4.1-1.6,5.7,0s1.6,4.1,0,5.7c-1.6,1.6-4.1,1.6-5.7,0c0,0,0,0,0,0C595.3,200.5,595.3,198,596.9,196.4z
						 M592.4,207.3c0-2.2,1.8-4.1,4.1-4.1c2.2,0,4.1,1.8,4.1,4.1c0,2.2-1.8,4.1-4.1,4.1l0,0C594.2,211.3,592.4,209.5,592.4,207.3
						C592.4,207.3,592.4,207.3,592.4,207.3z M596.9,218.2c-1.6-1.6-1.6-4.1,0-5.7s4.1-1.6,5.7,0c1.6,1.6,1.6,4.1,0,5.7c0,0,0,0,0,0
						C601.1,219.8,598.5,219.8,596.9,218.2z M607.8,222.7c-2.2,0-4.1-1.8-4.1-4.1c0-2.2,1.8-4.1,4.1-4.1c2.2,0,4.1,1.8,4.1,4.1
						c0,0,0,0,0,0C611.9,220.9,610.1,222.7,607.8,222.7L607.8,222.7z M618.8,218.2c-1.6,1.6-4.1,1.6-5.7,0c-1.6-1.6-1.6-4.1,0-5.7
						c1.6-1.6,4.1-1.6,5.7,0c0,0,0,0,0,0C620.3,214.1,620.3,216.6,618.8,218.2z M619.2,211.3c-2.2,0-4.1-1.8-4.1-4.1
						s1.8-4.1,4.1-4.1c2.2,0,4.1,1.8,4.1,4.1c0,0,0,0,0,0C623.3,209.5,621.5,211.3,619.2,211.3L619.2,211.3z"/>
				</g>
				<path class="st19" d="M434.9,203.8l22.8,3.4c0.4,0.1,0.7-0.1,0.9-0.5l2.1-4.4c0.2-0.4,0-0.9-0.4-1.1c-0.1,0-0.2-0.1-0.3-0.1
					l-24.9-2c-0.4,0-0.8,0.3-0.9,0.7c0,0,0,0,0,0.1v3C434.2,203.4,434.5,203.7,434.9,203.8z"/>
			</g>
		</g>
	</g>
	<g>
		<path class="st7" d="M432.3,148.6l29.3-3.3l0,0l2.3,20.5c0.1,1.3-0.8,2.4-2,2.5c0,0,0,0,0,0l-24.8,2.8c-1.3,0.1-2.4-0.8-2.5-2l0,0
			C434.6,169,432.3,148.6,432.3,148.6z"/>
		<path d="M431.5,144.6l27.5-9.1c0.3-0.1,0.7,0.1,0.8,0.4l0.9,2.6c0.1,0.3-0.1,0.7-0.4,0.8l-27.5,9.1c-0.3,0.1-0.7-0.1-0.8-0.4
			l-0.9-2.6C431,145.1,431.2,144.7,431.5,144.6z"/>
		<g>
			<defs>
				<path id="SVGID_8_" d="M431.5,144.6l27.5-9.1c0.3-0.1,0.7,0.1,0.8,0.4l0.9,2.6c0.1,0.3-0.1,0.7-0.4,0.8l-27.5,9.1
					c-0.3,0.1-0.7-0.1-0.8-0.4l-0.9-2.6C431,145.1,431.2,144.7,431.5,144.6z"/>
			</defs>
			<clipPath id="SVGID_9_">
				<use xlink:href="#SVGID_8_"  style="overflow:visible;"/>
			</clipPath>
			<g class="st25">
				<polygon class="st1" points="441.7,146.8 438.7,147.8 439.9,139.5 442.9,138.5 				"/>
				<polygon class="st1" points="457.2,141.8 454.1,142.7 455.3,134.4 458.4,133.4 				"/>
				<polygon class="st1" points="451.6,143.5 448.6,144.5 449.8,136.2 452.8,135.2 				"/>
				<polygon class="st1" points="446.9,145.1 443.9,146.1 445.1,137.8 448.1,136.8 				"/>
			</g>
		</g>
		<path d="M432.6,148.2l28.8-3.2c0.4,0,0.7,0.2,0.7,0.6l0.3,2.7c0,0.4-0.2,0.7-0.6,0.7l-28.8,3.2c-0.4,0-0.7-0.2-0.7-0.6l-0.3-2.7
			C432,148.5,432.2,148.2,432.6,148.2z"/>
		<g>
			<defs>
				<path id="SVGID_10_" d="M432.6,148.2l28.8-3.2c0.4,0,0.7,0.2,0.7,0.6l0.3,2.7c0,0.4-0.2,0.7-0.6,0.7l-28.8,3.2
					c-0.4,0-0.7-0.2-0.7-0.6l-0.3-2.7C432,148.5,432.2,148.2,432.6,148.2z"/>
			</defs>
			<clipPath id="SVGID_11_">
				<use xlink:href="#SVGID_10_"  style="overflow:visible;"/>
			</clipPath>
			<g class="st26">
				<polygon class="st1" points="441.3,145 438.1,145.3 442.7,152.4 445.8,152 				"/>
				<polygon class="st1" points="457.4,143.1 454.3,143.5 458.9,150.5 462,150.2 				"/>
				<polygon class="st1" points="451.6,143.8 448.5,144.1 453,151.2 456.2,150.9 				"/>
				<polygon class="st1" points="446.7,144.3 443.6,144.7 448.2,151.8 451.3,151.4 				"/>
			</g>
		</g>
		<path class="st1" d="M435,153.8l24.7-2.8c0.4,0,0.8,0.2,0.8,0.6l0,0c0,0.4-0.2,0.8-0.6,0.8l-24.7,2.8c-0.4,0-0.8-0.2-0.8-0.6l0,0
			C434.4,154.2,434.6,153.8,435,153.8z"/>
		<path class="st1" d="M435.3,156.4l24.7-2.8c0.4,0,0.8,0.2,0.8,0.6l0,0c0,0.4-0.2,0.8-0.6,0.8l-24.7,2.8c-0.4,0-0.8-0.2-0.8-0.6
			l0,0C434.6,156.8,434.9,156.4,435.3,156.4z"/>
		<path class="st1" d="M436.7,159.7l22.8-2.6c0.9-0.1,1.8,0.6,1.9,1.5l0.5,4.4c0.1,0.9-0.6,1.8-1.5,1.9l-22.8,2.6
			c-0.9,0.1-1.8-0.6-1.9-1.5l-0.5-4.4C435.1,160.6,435.7,159.8,436.7,159.7z"/>
	</g>
</g>
<g>
	<path class="st12" d="M286.5,154c-1.3-3.9-5.5-6.1-9.4-4.9c-1.9,0.6-3.4,1.9-4.3,3.6c-3.7-1.1-7.7,0.9-8.8,4.7
		c-1.1,3.7,0.9,7.7,4.7,8.8c0.7,0.2,1.5,0.3,2.3,0.3c-0.5,4.6,2.8,8.7,7.4,9.2s8.7-2.8,9.2-7.4c0.3-2.6-0.7-5.2-2.6-7
		C286.7,159.3,287.3,156.6,286.5,154z"/>
	<path class="st13" d="M351.7,130.6c3.3-2.5,3.9-7.2,1.4-10.5c-1.2-1.6-2.9-2.6-4.9-2.9c-0.2-3.9-3.5-6.9-7.4-6.7
		c-3.9,0.2-6.9,3.5-6.7,7.4c0,0.8,0.2,1.5,0.5,2.3c-4.5,1.1-7.3,5.6-6.1,10.1c1.1,4.5,5.6,7.3,10.1,6.1c2.6-0.6,4.7-2.4,5.7-4.9
		C346.7,132.6,349.6,132.2,351.7,130.6z"/>
	<path class="st13" d="M448.3,128.9c3.3-2.5,3.9-7.2,1.4-10.5c-1.2-1.6-2.9-2.6-4.9-2.9c-0.2-3.9-3.5-6.9-7.4-6.7
		c-3.9,0.2-6.9,3.5-6.7,7.4c0,0.8,0.2,1.5,0.5,2.3c-4.5,1.1-7.3,5.6-6.1,10.1c1.1,4.5,5.6,7.3,10.1,6.1c2.6-0.6,4.7-2.4,5.7-4.9
		C443.4,130.9,446.2,130.5,448.3,128.9z"/>
	<path class="st12" d="M330.4,192c4,1.1,8.1-1.2,9.2-5.2c0.5-1.9,0.3-3.9-0.6-5.6c3-2.5,3.4-6.9,0.9-9.9c-2.5-3-6.9-3.4-9.9-0.9
		c-0.6,0.5-1.1,1.1-1.5,1.7c-3.6-2.9-8.9-2.4-11.8,1.2c-2.9,3.6-2.4,8.9,1.2,11.8c2,1.7,4.8,2.3,7.3,1.7
		C325.8,189.2,327.8,191.2,330.4,192z"/>
	<path class="st12" d="M272.7,140.1c4,1.1,8.1-1.2,9.2-5.2c0.5-1.9,0.3-3.9-0.6-5.6c3-2.5,3.4-6.9,0.9-9.9c-2.5-3-6.9-3.4-9.9-0.9
		c-0.6,0.5-1.1,1.1-1.5,1.7c-3.6-2.9-8.9-2.4-11.8,1.2c-2.9,3.6-2.4,8.9,1.2,11.8c2,1.7,4.8,2.3,7.3,1.7
		C268.2,137.4,270.2,139.4,272.7,140.1z"/>
	<path class="st14" d="M389.1,151.9c4,1.1,8.1-1.2,9.2-5.2c0.5-1.9,0.3-3.9-0.6-5.6c3-2.5,3.4-6.9,0.9-9.9c-2.5-3-6.9-3.4-9.9-0.9
		c-0.6,0.5-1.1,1.1-1.5,1.7c-3.6-2.9-8.9-2.4-11.8,1.2c-2.9,3.6-2.4,8.9,1.2,11.8c2,1.7,4.8,2.3,7.3,1.7
		C384.6,149.2,386.6,151.2,389.1,151.9z"/>
	<path class="st14" d="M169.7,237.5c4,1.1,8.1-1.2,9.2-5.2c0.5-1.9,0.3-3.9-0.6-5.6c3-2.5,3.4-6.9,0.9-9.9c-2.5-3-6.9-3.4-9.9-0.9
		c-0.6,0.5-1.1,1.1-1.5,1.7c-3.6-2.9-8.9-2.4-11.8,1.2c-2.9,3.6-2.4,8.9,1.2,11.8c2,1.7,4.8,2.3,7.3,1.7
		C165.1,234.8,167.1,236.8,169.7,237.5z"/>
	<path class="st15" d="M397.9,186.3c2.6-3.2,2.1-7.9-1.1-10.6c-1.5-1.2-3.5-1.8-5.4-1.6c-1.1-3.7-5-5.9-8.7-4.8
		c-3.7,1.1-5.9,5-4.8,8.7c0.2,0.7,0.6,1.4,1,2.1c-4.1,2.1-5.7,7.2-3.6,11.3c2.1,4.1,7.2,5.7,11.3,3.6c2.3-1.2,4-3.5,4.4-6.1
		C393.5,189.4,396.2,188.4,397.9,186.3z"/>
	<path class="st15" d="M219.3,201.8c2.6-3.2,2.1-7.9-1.1-10.6c-1.5-1.2-3.5-1.8-5.4-1.6c-1.1-3.7-5-5.9-8.7-4.8
		c-3.7,1.1-5.9,5-4.8,8.7c0.2,0.7,0.6,1.4,1,2.1c-4.1,2.1-5.7,7.2-3.6,11.3c2.1,4.1,7.2,5.7,11.3,3.6c2.3-1.2,4-3.5,4.4-6.1
		C215,204.9,217.7,203.9,219.3,201.8z"/>
	<path class="st15" d="M261.9,199c2.6-3.2,2.1-7.9-1.1-10.6c-1.5-1.2-3.5-1.8-5.4-1.6c-1.1-3.7-5-5.9-8.7-4.8
		c-3.7,1.1-5.9,5-4.8,8.7c0.2,0.7,0.6,1.4,1,2.1c-4.1,2.1-5.7,7.2-3.6,11.3c2.1,4.1,7.2,5.7,11.3,3.6c2.3-1.2,4-3.5,4.4-6.1
		C257.6,202.1,260.2,201.1,261.9,199z"/>
	<path class="st12" d="M365.6,160c2.6-3.2,2.1-7.9-1.1-10.6c-1.5-1.2-3.5-1.8-5.4-1.6c-1.1-3.7-5-5.9-8.7-4.8
		c-3.7,1.1-5.9,5-4.8,8.7c0.2,0.7,0.6,1.5,1,2.1c-4.1,2.1-5.7,7.2-3.6,11.3s7.2,5.7,11.3,3.6c2.3-1.2,4-3.5,4.4-6.1
		C361.3,163.1,363.9,162.1,365.6,160z"/>
	<path class="st12" d="M244.6,152.3c2.6-3.2,2.1-7.9-1.1-10.6c-1.5-1.2-3.5-1.8-5.4-1.6c-1.1-3.7-5-5.9-8.7-4.8
		c-3.7,1.1-5.9,5-4.8,8.7c0.2,0.7,0.6,1.5,1,2.1c-4.1,2.1-5.7,7.2-3.6,11.3c2.1,4.1,7.2,5.7,11.3,3.6c2.3-1.2,4-3.5,4.4-6.1
		C240.3,155.4,243,154.4,244.6,152.3z"/>
</g>
</svg>
