<?xml version="1.0" encoding="utf-8"?>
<!-- Generator: Adobe Illustrator 25.0.0, SVG Export Plug-In . SVG Version: 6.00 Build 0)  -->
<svg version="1.1" id="Layer_1" xmlns="http://www.w3.org/2000/svg" xmlns:xlink="http://www.w3.org/1999/xlink" x="0px" y="0px"
	 viewBox="0 0 800 250" style="enable-background:new 0 0 800 250;" xml:space="preserve">
<style type="text/css">
	.st0{fill:#222222;}
	.st1{fill:#303030;}
	.st2{fill:#FFFFFF;}
	.st3{opacity:0.8;fill:#FFFFFF;enable-background:new    ;}
	.st4{fill:#3B3B3B;}
	.st5{fill:#2B2B2B;}
	.st6{fill:#5B5B5B;}
	.st7{fill:url(#SVGID_1_);}
	.st8{fill:#FF9100;}
	.st9{fill:#703D00;}
	.st10{fill:url(#SVGID_2_);}
	.st11{fill:url(#SVGID_3_);}
	.st12{fill:#0B4704;}
	.st13{clip-path:url(#SVGID_5_);}
	.st14{fill:#826900;}
	.st15{fill:#9B9B9B;}
	.st16{fill:#191919;}
	.st17{fill:#D6D6D6;}
	.st18{fill:#0D6805;}
	.st19{clip-path:url(#SVGID_7_);}
	.st20{clip-path:url(#SVGID_9_);}
	.st21{fill:#DDA300;}
	.st22{fill:#C49E00;}
	.st23{fill:#5E5E5E;}
	.st24{fill:#777777;}
	.st25{fill:#32323F;}
	.st26{fill:#474757;}
	.st27{fill:#DDDDDD;}
	.st28{fill:#BAC0D8;}
	.st29{fill:#ACAFBC;}
	.st30{fill:#FFCE00;}
	.st31{opacity:0.65;}
	.st32{fill:none;stroke:#AD7B00;stroke-linecap:round;stroke-linejoin:round;stroke-miterlimit:10;}
	.st33{opacity:0.47;fill:url(#SVGID_10_);enable-background:new    ;}
</style>
<g id="Layer_1_1_">
	<rect class="st0" width="800" height="250"/>
</g>
<g id="Layer_7">
	<path d="M263.8,163.2c0.3-0.9,0.6-1.8,1-2.7c0.1-0.3,0.2-0.5,0.3-0.8c0.2-1.1,0.2-2.1,0.6-3.2c0.3-0.9,0.2-1.5-0.4-2.2
		c-1.8-1.9-3.5-3.8-5.4-5.8c-0.8,2.6-1.4,5.1-2,7.5c-0.1,0-0.2,0-0.3,0c0.2-2.5,0.5-5.1,0.8-7.7c0.2-1.5-0.7-2.8-2.3-2.8
		c-1.2,0-2-0.4-2.4-1.3c-0.6-1.3-1.7-2-3.2-2.3c-1-0.3-1-1,0.1-2.1c-0.4-0.4-0.8-0.7-1.2-1.1c0.1-0.1,0.1-0.1,0.2-0.2
		c0.6,0.5,1.3,1,1.9,1.5c0.2-0.1,0.3-0.2,0.5-0.3c-0.2-0.6-0.3-1.2-0.5-1.8c-0.2-0.5-0.6-0.9-0.7-1.4c-0.3-1.1,0.5-1.9,1.8-1.9
		c1.2,0,2.5-0.1,3,1.1c0.1,0.3,1,0.2,1.3,0.5c0.2,0.3,0.2,0.7,0.5,0.8c3.4,1.5,7,1.3,11.1-1.2c0.8-0.5,1.8-0.5,2.6-0.8
		c0.7-0.2,1.3-0.5,2-0.8c0,0.3-0.1,0.8-0.1,1.4c-0.4,0.1-0.8,0.3-1.2,0.4c0.1,0.1,0.2,0.1,0.3,0.2c-0.4,0.5-0.7,0.9-1,1.4
		c-0.4,0.6-0.7,1.2-1.1,2.1c-1.1,0.3-2.6,0.7-4.1,1.1c0,0.1,0,0.1,0,0.2c0.9-0.1,1.8-0.3,2.4-0.3c0.3,1.5,0.5,2.9,0.7,4.3
		c0,0.1,0.1,0.3,0.1,0.3c-1.4,1.6,0.5,2.2,0.4,3.5c0.6-0.8,1.2-1.4,1.7-2.2c0.7-1,1.5-2,1.2-3.3c-0.2-1,0.3-1.9,1.2-2.8
		c0.7-0.7,1-1.8,1.7-2.5c1.2-1,1.2-2.9,3-3.4c0.6-0.2,0.9-0.7,0.5-1.2c-0.7-0.8-1.3-1.5-1.1-2.8c0.1-1.4-1.3-1.7-2.5-2.1
		c1.7,1.3,1.6,3.3,1.5,5.2c-0.8-0.6-1.6-1.1-2.4-1.6c-0.2-0.1-0.4-0.2-0.4-0.4c-0.6-2.3-1.7-4.6-0.6-7.3c0.7-1.8,0.5-3.7,2.3-5.4
		c0.7-0.6,1.4-1.2,2.3-1.9c0-1,0.7-1.7,2-1.9c0.7-2.2,1.8-4.3,3.8-6.1c0.6-0.5,2.5-0.6,2.8-0.2c1,1.2,2,2.4,3,3.7
		c0.2-0.1,0.4-0.1,0.6-0.2c0-0.3,0.1-0.5,0-0.8c-0.4-1.1-0.9-2.1,0.8-3.3c0.1-0.1,0.1-0.5,0.1-0.8c0-0.7,0.3-1.5,1.2-1.6
		c0.7,0,1.7,0.5,1.8,1c0.2,3.1,2.3,5,4.6,6.8c0.3,0.2,0.5,0.4,0.8,0.7c0.1,0.1,0.2,0.3,0.2,0.3c-0.6,0.8-1.2,1.4-1.7,2.2
		c-0.2,0.3,0.1,0.7,0.2,1.3c1.8-1.4,3.3-2.7,5.1-4c-0.1-0.5-0.3-1.1-0.4-1.7c-0.1,0-0.2,0-0.4,0c-0.3,0.5-0.7,1-1.2,2
		c-0.2-0.6-0.4-0.9-0.4-1.3c0-1.9,0.1-3.8,0.2-5.7c-0.2,0-0.4,0-0.5,0c-0.3,1-0.7,2-1,3c-0.1,0-0.2,0-0.3,0.1c0-0.4-0.2-0.8-0.1-1.2
		c0.1-0.9,0.3-1.8,0.6-2.6c0.4-1.3,0.9-2.6-1-3.1c-0.4-0.1-0.6-0.6-0.6-1.2c0.5,0.3,1,0.6,1.3,0.8c0-0.5,0-1.1-0.1-1.6
		c-0.1-0.2-0.4-0.4-0.7-0.5c-0.5-0.1-1-0.1-1.7-0.1c-0.1,0.1-0.3,0.5-0.6,1.1c-0.3-1.1-0.4-2-0.7-2.9c-0.1-0.4-0.3-0.8-0.5-1.2
		c-0.1-0.3-0.4-0.5-0.4-0.8c0.3-1.7,0.7-3.4,1.2-5.2c0.5,0.4,0.8,0.7,1.5,1.2c0.2-0.9,0.3-1.5,0.6-2.1c0.3-0.6,0.7-1.2,1.1-1.8
		c0.7,0.2,1.7,0.3,2.1,0.7c0.5,0.5,0.7,1.3,0.7,2c-0.1,1.3,0.8,1.9,1.8,2.6c0.2,0.2,0.5,0.3,0.7,0.5c1.7,1.2,1.6,1.5,0,2.8
		c0.2,0.4,0.4,0.7,0.6,1c0.1,0.3,0.2,0.6,0.4,0.9c0.2,0.3,0.6,0.6,0.9,0.8c2.9,1.8,4.8,4.2,4.9,7.5c0,0.5,0.3,0.9,0.6,1.6
		c1.9-0.6,3.8-1,5.6-1.6c1.1-0.3,1.7-1,1.2-2.2c-0.5-1.3-0.8-2.8-1.3-4.1c-0.1-0.4-0.6-0.6-0.8-0.9c-0.4-0.6-0.8-1.3-1-2
		c-0.2-0.8,0-1.6,0-2.4v-0.1c1.7-0.8,0.6-2.1,1.2-3c0.2-0.4,1.1-1.1,1.3-1c0.7,0.3,1.4,0.8,1.7,1.3c0.4,0.8,0.4,1.8,0.9,2.7
		c0.8,1.5,2,2.5,4.3,2.3c0.3,0,1,0.3,1,0.4c-0.1,0.4-0.4,1-0.6,1.1c-1.3,0.1-1.1,1.1-1.4,1.7c-0.4,0.7,0.1,1.3,1.1,1.2
		c1.1-0.2,2.2-0.5,3.3-0.7c0-0.1,0-0.3,0-0.4c-1.1-0.2-2.2-0.3-3.5-0.5c0.2-0.2,0.5-0.7,0.8-0.7c1.2,0,1.4-0.7,1.5-1.4
		c0.2-1.3,1.2-2.6-0.6-3.9c-0.5-0.3-0.1-1.8,0.2-2.7c0.3-1,0.8-2,1.4-3c0.3-0.5,0.9-0.9,1.3-1.3c0.6,0.5,1.7,0.9,1.8,1.5
		c0.2,1.4,0,2.7,1,4c1.2,1.5,2.1,3.2,3.3,5.1c-1.8-0.5-2.1,0.1-2,1.1c2.2-0.5,4.3-0.8,6.1-1.1c-0.2-1.5-0.4-3.1-0.6-4.6
		c-0.1,0-0.3-0.1-0.4-0.1c-0.5,1.2-1,2.4-1.5,3.6c-0.4-0.3-0.7-0.6-1-0.9c0.6-1,1.1-2,1.7-2.9c0.8-1.1,0.7-2-0.9-2.6
		c-0.4-0.2-0.7-0.5-1.3-0.9c2.6-0.2,2.3-1.4,2-2.8s-0.1-2.7,0.9-3.9c0.3-0.3,0.2-1,0.2-1.5c-0.1-1.5,0.6-2.5,1.7-2.4
		c1.3,0.1,2.4,1.4,2.3,2.8c0,0.2-0.1,0.4,0,0.6c1.2,2.4,2.3,4.8,3.2,7c1.7,0.6,3,1.1,4.8,1.7c-0.8,0.9-1.7,1.9-2.6,3
		c-0.6-0.5-0.9-0.7-1.2-0.9c-0.1,0-0.1,0.1-0.2,0.1c0.6,1.2,1.1,2.4,1.7,3.7c1.6-0.1,3.1-0.2,5-0.2c0,0.1,0.1-0.1,0.1-0.3
		c0-1.7,0-3.4-0.1-5.1c0-0.3-0.3-0.7-0.6-1.2c0.1-1.4,0.2-3.2,0.3-5.1c0-0.4-0.3-0.8-0.5-1.2c-1.3-1.8-1.6-3.5-1.5-5.3
		c0.1-1-0.3-2-0.5-3.1c-0.2,0,0,0,0.4,0c-0.6-0.9-1.2-1.9-1.8-2.8c0.1,0,0.3-0.1,0.4-0.1c0.6,0.7,1.2,1.5,2.2,2.6
		c-0.2-0.8-0.2-1.2-0.3-1.8c0.5,0.3,0.8,0.5,1.2,0.7c0.2-0.6,0.2-1.3,0.6-1.9c0.2-0.3,0.9-0.7,1.4-0.5c0.6,0.2,1.3,0.7,1.6,1.2
		c0.3,0.5,0.5,1.1,0.3,1.6c-0.3,1.1-0.3,2,1.8,2.8c-1.7,0.2,0,5.8,2.3,8.1c0.6-0.9,1.2-1.5,1.5-2.4c0.3-0.8,0.2-1.9,0.5-2.7
		c0.2,1.8,0.3,3.5-0.9,4.8c-0.3,0.3-0.6,0.6-0.8,0.9c-0.5,0.7-0.9,1.3,0,2.4c0.6,0.8,0.6,1.9,0.7,2.8c0.1,1.2-0.1,2.3-0.2,3.6
		c1.9,0.5,3.6,1.1,5.7,1.7c-1.4-1.5-2.5-2.7-3.8-4c0.4-0.1,0.8-0.3,1.3-0.2c1.5,0.3,1.7-0.4,1.7-1.4c0.1-1.8,0-3.8,0.9-5.2
		c0.6-0.9,1-2,1.7-2.8c0.3-0.3,1.5-0.4,2.1-0.1s1.4,1.4,1.3,1.9c-0.4,2.7-0.1,5.6,0.6,8.6c0.1,0.6,0.3,1.3,0.3,1.9
		c0.1,1,0.1,1.9-1.5,1.8c-0.2,0-0.3,0.3-0.5,0.5c4.5,1,6.2-1,8-2.9s2.2-4.6,2.8-7.1c0.1-0.3-0.1-0.7-0.2-1.1
		c-0.7-2.1,0.3-3.2,1.9-3.9c0.4-0.2,0.8-0.5,1.3-0.8c-0.7-0.5-1.2-0.8-1.7-1.1c0.1-0.1,0.1-0.2,0.2-0.3c0.8-0.3,1.6-0.5,2.4-0.7
		c1.3-0.4,1.1-1.1-0.3-2.7c-0.8-0.9-1.4-1.8-2.3-2.9c1.5,1.1,2.7,1.9,3.8,2.8c0.4,0.3,0.8,0.6,1.1,1c0.8,1.1,1.5,2.2,2.4,3.4
		c0.8,1.1,1.8,2.2,2.8,3.5c-0.8-0.2-1.5-0.4-2.2-0.5c-0.2,1.7-0.4,3.4-0.6,5.2c0.3,0.3,0.7,0.7,1.1,1.1c1.8,1.6,2.7,1.8,3,0.4
		c0.4-2.2,0.6-4.5,0.8-6.7c0-0.3,0.1-0.5,0.2-0.7c0.2,0,0.3,0.1,0.5,0.1c0.3,0.8,0.7,1.6,1,2.3c0.4,0.9,0.6,1.5-0.4,1.6
		c-0.7,0.1-0.7,1-0.9,1.7c-0.2,1.4-0.2,3-0.6,4.3c-0.4,1.7-1.2,3.2-1.7,5c-0.4,1.5-0.6,3.1-0.7,4.7c1.3-0.5,2.6,0.5,4,1.4
		c0.7,0.5,1.5,0.7,2.2,1.1c0.5,0.4,1,1,1.2,1.5c2,4,3.6,7.8,5.4,11.7c1.1,2.3,2.4,4.6,3.6,6.9c0.2,0.3,0.2,0.6,0.4,0.9
		c-28.8-14.3-57.6-16.6-82.7-8.6c-25.1,7.6-46.5,25.4-61.5,43C264.5,162.8,264.1,163,263.8,163.2z M289,124.7
		c-0.2-0.1-0.4-0.1-0.6-0.2c0.5-1.2,1.9-2.5,0.1-3.5c-0.5,0.5-1.4,1-1.4,1.4c0.1,1.3,0.5,2.5,0.8,4.1c2.1-2.2,3.9-4.1,5.8-5.9
		c-0.3-0.7-0.6-1.6-1-2.4c-0.4-0.9-0.6-2-1.3-2.6c-1-0.8-2.4-1.3-3.7-1.9c-0.5-0.3-1.1-0.8-1.7,0c-0.4,0.5-0.6,1.3-0.4,1.8
		c0.5,1.5,1.3,2.9,1.9,4.2c0.7,0.3,1.6,0.4,2,0.9c0.5,0.6,0.8,1.5,0.7,2.3C290.1,123.5,289.4,124.1,289,124.7z M281.4,125.9
		c0.7,1,1.3,2,2.1,2.9c0.4,0.4,1,1.2,1.8,0.3c0.8-0.8,1.9-2,1.8-2.8c-0.1-1.3-1.1-2.4-1.6-3.5C284,123.9,282.9,124.8,281.4,125.9z
		 M358.8,91.5c-2.2-0.1-4.1-0.2-3.9,2c0,0.2-0.3,0.4-0.3,0.7c-0.2,1.1-0.3,2.2-0.5,3.4c0.5-0.1,0.8-0.1,0.9-0.2
		c1-0.6,1.7-1.6,3.4-1.3c0.1,0,0.4-0.3,0.4-0.5C358.9,94.2,358.9,92.9,358.8,91.5z M279.7,128c0.2,2-1.7,4.3,0.2,5.8
		c1.4-1.2,2.8-2.3,4.1-3.3C282.5,129.5,281.1,128.7,279.7,128z M266.6,153.7c2.1-2.1,2-4,0.2-5.7c-0.1-0.1-0.1-0.1-0.1-0.2
		c-0.4-1-1.4-0.9-2.5-0.6c1,0.5,1.9,1,2.9,1.6c-0.7,0.5-1.3,0.8-1.7,1.2c-0.3,0.3-0.5,0.9-0.4,1.1
		C265.4,152,266.1,152.9,266.6,153.7z M304.6,112.7c0.5-0.3,0.8-0.7,1.2-0.8c2.9-0.7,3.7-1.6,2.8-3.8c-0.2-0.4-0.8-0.6-1.3-1
		c-0.3,0.4-0.7,0.8-1,1.3c-0.4,0.6-0.6,1.4-1.2,1.9C304.3,111.1,304,111.8,304.6,112.7z M390.2,104.4c0.2,0.1,0.4,0.2,0.6,0.3
		c0.8-3.1,1.5-6.2,2.3-9.3c-0.1-0.1-0.3-0.2-0.4-0.2C391,97.7,388.5,99.9,390.2,104.4z M343.6,91c-0.3,1.3,1.1,1.7,1.7,2.6
		C346,92.2,344.9,91.7,343.6,91z"/>
	<g>
		<path class="st1" d="M456,193.7c-1.8-27.5-14.6-51.9-33.9-69.1c-5.8,5.3-13.3,8.8-21.8,9.5c-15.4,1.2-29.3-7.2-35.8-20.3
			c-4.6,3-9.8,5-15.6,5.7c-4.7,7.7-13,13.1-22.6,13.8c-9.5,0.8-18.4-3.1-24.3-9.8c-3.7,3.3-8.5,5.4-13.8,5.8c-2,0.2-4,0.1-6-0.3
			c-16.7,16.8-27.5,39.5-29.2,64.6h-0.2V250h203.3v-56.3H456z"/>
		<path class="st2" d="M288.3,129.3c5.3-0.4,10.1-2.6,13.8-5.8c5.9,6.6,14.7,10.5,24.3,9.8c9.7-0.8,17.9-6.2,22.6-13.8
			c5.8-0.7,11.1-2.7,15.6-5.7c6.5,13,20.4,21.5,35.8,20.3c8.4-0.7,16-4.2,21.8-9.5c-18-16-41.6-25.7-67.5-25.7
			c-28.3,0-53.8,11.5-72.3,30.2C284.2,129.4,286.2,129.5,288.3,129.3z"/>
	</g>
	<circle class="st3" cx="579.5" cy="72.5" r="3.5"/>
	<circle class="st3" cx="694.5" cy="30.5" r="3.5"/>
	<circle class="st3" cx="464.5" cy="34.5" r="3.5"/>
	<circle class="st3" cx="727.5" cy="125.5" r="3.5"/>
	<circle class="st3" cx="486.5" cy="130.5" r="3.5"/>
	<circle class="st3" cx="201.5" cy="20.5" r="3.5"/>
	<circle class="st3" cx="83.5" cy="34.5" r="3.5"/>
	<circle class="st3" cx="29.5" cy="98.5" r="3.5"/>
</g>
<g id="Layer_5">
	<rect y="220" class="st4" width="800" height="30"/>
	<rect x="15" y="220" class="st2" width="99" height="6"/>
	<rect x="221" y="220" class="st2" width="99" height="6"/>
	<rect x="429" y="220" class="st2" width="99" height="6"/>
	<rect x="635" y="220" class="st2" width="99" height="6"/>
</g>
<g id="Layer_6">
</g>
<path class="st5" d="M775.9,196.4h-6l-1.7-102.9h10.2V26.1c-6.4,0-11.6,5.2-11.6,11.6v30.7h-14.4V26.1h-8.1v42.3h-13.9V37.6
	c0-6.4-5.2-11.6-11.6-11.6v67.4H729l-1.7,102.9h-6l-8.3,23.6h13.9H739h19h12.1H784L775.9,196.4z"/>
<g>
	<polygon class="st6" points="779.4,197.2 768.7,197.2 767.7,93.5 775,93.5 	"/>
	<polygon class="st6" points="718,197.2 728.7,197.2 729.7,93.5 722.4,93.5 	"/>
	<rect x="744.9" y="93.5" class="st6" width="7.6" height="103.7"/>
</g>
<radialGradient id="SVGID_1_" cx="748.7" cy="216.6" r="34.4503" gradientTransform="matrix(1 0 0 -1 0 252)" gradientUnits="userSpaceOnUse">
	<stop  offset="0" style="stop-color:#FF9100"/>
	<stop  offset="1" style="stop-color:#FF9100;stop-opacity:0"/>
</radialGradient>
<ellipse class="st7" cx="748.7" cy="35.4" rx="34.3" ry="34.6"/>
<g>
	<ellipse class="st8" cx="748.7" cy="35.4" rx="19" ry="19.1"/>
	<path class="st9" d="M748.7,51L748.7,51c-8.5-8.6-8.5-22.5,0-31l0,0l0,0C757.2,28.5,757.2,42.4,748.7,51L748.7,51z"/>
</g>
<g id="Layer_3">
	
		<linearGradient id="SVGID_2_" gradientUnits="userSpaceOnUse" x1="699.0475" y1="251.7" x2="744.9475" y2="251.7" gradientTransform="matrix(1 0 0 1 0 -48)">
		<stop  offset="0" style="stop-color:#FCEE21"/>
		<stop  offset="1" style="stop-color:#FCEE21;stop-opacity:0"/>
	</linearGradient>
	<polygon class="st10" points="744.9,228.6 699,210.5 699,198.2 744.9,178.8 	"/>
</g>
<g>
	<g id="Layer_2_1_">
		<g id="Premium">
			<g id="premium-drag-green">
				
					<linearGradient id="SVGID_3_" gradientUnits="userSpaceOnUse" x1="596.6" y1="222.45" x2="609.3163" y2="222.45" gradientTransform="matrix(1 0 0 1 0 -48)">
					<stop  offset="0" style="stop-color:#C9E7F9"/>
					<stop  offset="1" style="stop-color:#AAFFF9"/>
				</linearGradient>
				<polygon class="st11" points="609.3,177.9 596.6,178.9 599.9,170 608.4,172.5 				"/>
				<path class="st12" d="M608.5,172C608.4,172,608.4,172,608.5,172C608.4,172,608.4,172,608.5,172c-0.6-1.5-2.1-4-5.7-4.2
					c-5-0.4-6.1,3.5-6.1,4.8v3.2c0,0.4,0.2,0.7,0.4,1H597v2.6l8.3,1.4v-0.4l2.1,0.9c0.5,0.2,1.1,0,1.4-0.4c0.5-0.7,0.8-1.6,0.9-2.4
					l0,0v-0.1C609.8,175.1,608.5,172.2,608.5,172z M599.1,174.3c0.5,0,0.9,0.4,0.9,0.9s-0.4,0.9-0.9,0.9s-0.9-0.4-0.9-0.9
					S598.6,174.3,599.1,174.3L599.1,174.3z M608.7,177.6c-0.7,0-1.8-0.2-3.1-1.1c-1.5-1.1-2.2-2.6-2.6-3.6c-0.2-0.5,0-1.3,0.6-1.3
					c0.3,0,0.8,0.2,1.4,0.6c1,0.7,2.1,0.8,2.9,0.7c0.1,0,0.2-0.1,0.3-0.1c0.6,1.5,0.9,3.1,0.9,4.7
					C608.9,177.6,608.8,177.6,608.7,177.6L608.7,177.6z"/>
				<g>
					<g>
						<defs>
							<path id="SVGID_4_" d="M608.5,172C608.4,172,608.4,172,608.5,172C608.4,172,608.4,172,608.5,172c-0.6-1.5-2.1-4-5.7-4.2
								c-5-0.4-6.1,3.5-6.1,4.8v3.2c0,0.4,0.2,0.7,0.4,1H597v2.6l8.3,1.4v-0.4l2.1,0.9c0.5,0.2,1.1,0,1.4-0.4
								c0.5-0.7,0.8-1.6,0.9-2.4l0,0v-0.1C609.8,175.1,608.5,172.2,608.5,172z M599.1,174.3c0.5,0,0.9,0.4,0.9,0.9s-0.4,0.9-0.9,0.9
								s-0.9-0.4-0.9-0.9S598.6,174.3,599.1,174.3L599.1,174.3z M608.7,177.6c-0.7,0-1.8-0.2-3.1-1.1c-1.5-1.1-2.2-2.6-2.6-3.6
								c-0.2-0.5,0-1.3,0.6-1.3c0.3,0,0.8,0.2,1.4,0.6c1,0.7,2.1,0.8,2.9,0.7c0.1,0,0.2-0.1,0.3-0.1c0.6,1.5,0.9,3.1,0.9,4.7
								C608.9,177.6,608.8,177.6,608.7,177.6L608.7,177.6z"/>
						</defs>
						<clipPath id="SVGID_5_">
							<use xlink:href="#SVGID_4_"  style="overflow:visible;"/>
						</clipPath>
						<g class="st13">
							<polygon class="st14" points="584.7,160.4 583.7,161.9 600.6,173.8 600.6,194.6 602.3,194.6 602.3,173 							"/>
						</g>
					</g>
				</g>
				<rect x="661.9" y="183.3" class="st15" width="21.6" height="9.4"/>
				<polygon class="st15" points="679.1,184.6 666.4,184.6 666.4,178.1 682.3,177.6 				"/>
				<path class="st16" d="M682.3,177.6l-2.6,5.7C679.7,183.3,678.8,180.3,682.3,177.6z"/>
				<path class="st17" d="M661.9,183.3h13.3c0,0-5.5,1.4-13.3,1.2V183.3z"/>
				
					<rect x="679.8" y="182.9" transform="matrix(0.1893 -0.9819 0.9819 0.1893 369.5174 817.8721)" class="st16" width="0.5" height="4.5"/>
				
					<rect x="679.4" y="183.9" transform="matrix(0.1893 -0.9819 0.9819 0.1893 368.1959 818.2442)" class="st16" width="0.5" height="4.5"/>
				<path class="st18" d="M686.8,212.9L533,201.3c-7.4-0.6-13-7-12.5-14.5l0,0l0,0c0.6-7.4,7-13,14.5-12.5l0,0l110.5,8.5
					c7.4,0.6,47.8,10.8,55.7,17.6l0,0C700.7,207.9,694.2,213.5,686.8,212.9z"/>
				<g>
					<g>
						<defs>
							<path id="SVGID_6_" d="M686.8,212.9L533,201.3c-7.4-0.6-13-7-12.5-14.5l0,0l0,0c0.6-7.4,7-13,14.5-12.5l0,0l110.5,8.5
								c7.4,0.6,47.8,10.8,55.7,17.6l0,0C700.7,207.9,694.2,213.5,686.8,212.9z"/>
						</defs>
						<clipPath id="SVGID_7_">
							<use xlink:href="#SVGID_6_"  style="overflow:visible;"/>
						</clipPath>
						<g class="st19">
							
								<rect x="638.5" y="144.7" transform="matrix(0.8894 -0.4571 0.4571 0.8894 -13.0306 313.2825)" class="st14" width="4.9" height="77.7"/>
							
								<rect x="629.8" y="147.1" transform="matrix(0.8894 -0.4571 0.4571 0.8894 -15.0799 309.5708)" class="st14" width="4.9" height="77.7"/>
							
								<rect x="620.6" y="149.8" transform="matrix(0.8894 -0.4571 0.4571 0.8894 -17.328 305.6612)" class="st14" width="4.9" height="77.7"/>
						</g>
					</g>
					<g>
						<defs>
							<path id="SVGID_8_" d="M686.8,212.9L533,201.3c-7.4-0.6-13-7-12.5-14.5l0,0l0,0c0.6-7.4,7-13,14.5-12.5l0,0l110.5,8.5
								c7.4,0.6,47.8,10.8,55.7,17.6l0,0C700.7,207.9,694.2,213.5,686.8,212.9z"/>
						</defs>
						<clipPath id="SVGID_9_">
							<use xlink:href="#SVGID_8_"  style="overflow:visible;"/>
						</clipPath>
						<g class="st20">
							<path class="st21" d="M614.1,195.3l0.9-6.7l-3.1-0.3l-1.8,1.2c-0.1,0-0.1,0-0.1,0s-0.1,0-0.1-0.1c0,0-0.1-0.1-0.1-0.2
								c-0.1-0.1-0.1-0.1-0.1-0.2c0,0,0.1-0.1,0.1-0.3c0.1-0.1,0.1-0.2,0.2-0.3c0.2-0.2,0.5-0.4,0.8-0.7c0.4-0.3,0.7-0.6,1-0.8
								c0.3-0.3,0.7-0.6,1.2-1c0.7,0.1,1.4,0.2,2.1,0.3c0.7,0.1,1.4,0.2,2.2,0.2c0.7,0.1,1.5,0.1,2.2,0.2c0.7,0.1,1.5,0.1,2.3,0.2
								c0.5-0.4,1.1-0.6,1.7-0.5c-0.1,0.5-0.3,0.9-0.6,1.3c-0.4,0.4-0.8,0.7-1.3,0.9s-1.1,0.4-1.6,0.5c-0.6,0.1-1.1,0.1-1.5,0.1
								h-0.2c-0.1,0-0.2,0-0.2,0l-0.6,0.5c0,0,0,0.1-0.1,0.4c-0.1,0.3-0.1,0.6-0.2,0.9c-0.1,0.4-0.1,0.7-0.2,1.1
								c-0.1,0.4-0.1,0.7-0.2,0.9l-0.1,1.1c0,0.4,0,0.7,0.1,1s0.3,0.5,0.6,0.5c0.2,0,0.4,0,0.6-0.1c0.2-0.1,0.3-0.1,0.5-0.2
								c0.2-0.1,0.3-0.1,0.5-0.2c0.2-0.1,0.3-0.1,0.5-0.1c0,0.4-0.2,0.7-0.5,1s-0.6,0.6-1,0.9c-0.4,0.3-0.8,0.5-1.2,0.7
								s-0.8,0.3-1.1,0.3c0,0-0.1,0-0.2,0c-0.2,0-0.4-0.2-0.6-0.4c-0.2-0.2-0.3-0.5-0.4-0.8c-0.1-0.3-0.2-0.6-0.2-0.9
								C614.1,195.7,614.1,195.5,614.1,195.3z M616.1,183.5c0-0.4,0.2-0.7,0.5-1s0.7-0.4,1.1-0.3c0.1,0,0.1,0,0.1,0
								c0.2,0,0.3,0.1,0.4,0.1c0.2,0.1,0.5,0.6,0.9,1.4v0.1c0,0.1,0,0.1,0,0.2c0,0.2-0.1,0.4-0.2,0.5c-0.1,0.1-0.3,0.2-0.5,0.3
								s-0.4,0.1-0.6,0.1c-0.2,0-0.4,0-0.6,0c-0.4,0-0.8-0.2-1-0.5C616.1,184.2,616,183.9,616.1,183.5z"/>
							<path class="st21" d="M624.9,192.8c0.2-1.4,0.4-2.7,0.5-4.2l0.1-0.6c-0.1,0-0.1,0-0.2-0.1c-0.1,0-0.2-0.1-0.3-0.1
								c-0.1-0.1-0.2-0.1-0.2-0.2c-0.1-0.1-0.1-0.2-0.1-0.3l0,0c0,0,0,0,0-0.1c0.3-0.3,0.7-0.6,1-0.8s0.7-0.3,1.2-0.2
								c0.2,0,0.4,0.1,0.5,0.2c0.1,0.1,0.2,0.2,0.3,0.4s0.1,0.3,0.1,0.5s0,0.4,0,0.6c0.2-0.1,0.5-0.2,0.8-0.3s0.5-0.3,0.8-0.4
								c0.3-0.1,0.6-0.2,0.9-0.3c0.3-0.1,0.6-0.1,0.8-0.1c0.4,0,0.7,0.2,1,0.4c0.2,0.3,0.4,0.6,0.6,0.9c0.1,0.4,0.2,0.7,0.2,1.1
								c0,0.4,0,0.7,0,1v0.2c0,0.2,0,0.3-0.1,0.5c0,0.2-0.1,0.3-0.1,0.4c-0.1,0.2-0.2,0.4-0.4,0.6c-0.2,0.2-0.4,0.3-0.7,0.5
								c-0.2,0.2-0.4,0.3-0.6,0.5c-0.2,0.2-0.3,0.4-0.3,0.6v0.1l1.7,1.2c0,0,0.2,0,0.3,0.1c0.2,0,0.3,0.1,0.5,0.1c0,0,0,0,0.2,0
								c0.1,0,0.3,0,0.4,0c0.2,0,0.3,0.1,0.3,0.2c-0.2,0.2-0.4,0.4-0.6,0.6c-0.2,0.2-0.4,0.3-0.5,0.5c-0.2,0.1-0.4,0.2-0.6,0.3
								c-0.2,0.1-0.5,0.1-0.8,0c-0.3,0-0.7-0.2-1-0.4s-0.6-0.5-0.9-0.7c-0.3-0.3-0.6-0.5-0.9-0.7c-0.3-0.2-0.6-0.3-1-0.4
								c-0.2,0-0.5,0-0.8,0.1s-0.5,0.3-0.7,0.4c0,0.4-0.1,0.8-0.3,1.4c-0.1,0.5-0.4,1-0.6,1.4c-0.3,0.4-0.6,0.8-1,1.1
								s-0.9,0.4-1.5,0.3c0-0.2,0.1-0.4,0.2-0.6c0.1-0.2,0.2-0.3,0.4-0.5c0.1-0.1,0.3-0.3,0.4-0.5c0.1-0.2,0.2-0.4,0.2-0.6
								C624.4,195.6,624.7,194.2,624.9,192.8z M629.6,188.2c-0.1,0-0.1,0-0.2,0l-2.1,1c0,0-0.1,0.1-0.2,0.3
								c-0.1,0.2-0.1,0.3-0.2,0.5l-0.1,1.4v0.3l-0.1,1.2c0.2,0,0.4,0,0.6-0.1c0.3,0,0.5-0.1,0.8-0.1c0.3-0.1,0.6-0.1,0.9-0.2
								c0.3-0.1,0.6-0.2,0.8-0.3s0.5-0.3,0.6-0.4c0.2-0.2,0.3-0.4,0.3-0.6c0-0.2,0-0.5,0-0.8s0-0.6-0.1-0.9
								c-0.1-0.3-0.2-0.6-0.3-0.8C630.1,188.5,629.9,188.3,629.6,188.2L629.6,188.2z M627.8,196.8c0.2-0.2,0.5-0.3,0.9-0.2h0.1
								c0,0,0.1,0,0.1,0.1c0.1,0,0.1,0,0.2,0.1c0.1,0,0.2,0.2,0.3,0.4s0.2,0.4,0.4,0.7c0,0,0,0,0,0.1v0.1c0,0.2-0.1,0.3-0.2,0.4
								c-0.1,0.1-0.2,0.2-0.4,0.2c-0.1,0.1-0.3,0.1-0.5,0.1s-0.3,0-0.4,0c-0.3,0-0.6-0.2-0.8-0.4s-0.2-0.5-0.2-0.8
								C627.4,197.2,627.5,197,627.8,196.8z"/>
							<path class="st21" d="M644.4,194.9c0.1,0.2,0.2,0.4,0.3,0.5c0.1,0.2,0.3,0.3,0.4,0.4c0.2,0.1,0.3,0.2,0.5,0.2h0.1
								c0,0,0.1,0,0.2,0c0.1,0,0.3-0.1,0.4-0.1c0.1-0.1,0.3-0.1,0.4-0.2c0.1-0.1,0.2-0.2,0.2-0.3s0-0.3-0.1-0.5s-0.2-0.4-0.3-0.6
								c-0.1-0.2-0.3-0.4-0.5-0.5c-0.2-0.2-0.4-0.2-0.6-0.3l0,0c-0.2,0-0.5,0-0.7,0.2s-0.3,0.4-0.4,0.6
								C644.3,194.5,644.3,194.7,644.4,194.9z"/>
						</g>
					</g>
				</g>
				<path class="st22" d="M530.5,196.6l166.9,9.7c2.2,0.1,3.9,2,3.7,4.2l0,0c-0.1,2.2-2,3.9-4.2,3.7L530,204.5
					c-2.2-0.1-3.9-2-3.7-4.2l0,0C526.4,198.2,528.3,196.5,530.5,196.6z"/>
				<polygon class="st18" points="602.6,163 552.4,154.5 552.4,182.7 601.8,185.8 594,167.6 				"/>
				
					<rect x="569.1" y="181.5" transform="matrix(0.9362 -0.3515 0.3515 0.9362 -27.5889 212.6765)" class="st23" width="5.7" height="1.6"/>
				
					<rect x="570.7" y="185.6" transform="matrix(0.9362 -0.3515 0.3515 0.9362 -28.9232 213.4951)" class="st23" width="5.7" height="1.6"/>
				
					<rect x="566.6" y="140.4" transform="matrix(0.9362 -0.3515 0.3515 0.9362 -19.6925 210.1117)" class="st24" width="4.5" height="37.8"/>
				
					<ellipse transform="matrix(0.9362 -0.3515 0.3515 0.9362 -14.0949 206.7576)" class="st23" cx="562.4" cy="142.2" rx="2.2" ry="2.1"/>
				
					<ellipse transform="matrix(0.9372 -0.3489 0.3489 0.9372 -14.15 205.1033)" class="st15" cx="562.3" cy="141.8" rx="2.2" ry="2.1"/>
				
					<ellipse transform="matrix(0.9362 -0.3515 0.3515 0.9362 -13.8979 206.6426)" class="st16" cx="562.2" cy="141.6" rx="1.9" ry="1.8"/>
				
					<rect x="574.6" y="169" transform="matrix(0.9362 -0.3515 0.3515 0.9362 -28.1615 215.1289)" class="st15" width="7.6" height="32.2"/>
				
					<rect x="557" y="144" transform="matrix(0.9362 -0.3515 0.3515 0.9362 -21.5784 206.9735)" class="st24" width="4.5" height="37.8"/>
				
					<ellipse transform="matrix(0.9362 -0.3515 0.3515 0.9362 -15.9803 203.6191)" class="st23" cx="552.8" cy="145.8" rx="2.2" ry="2.1"/>
				
					<ellipse transform="matrix(0.9362 -0.3515 0.3515 0.9362 -15.7839 203.504)" class="st15" cx="552.6" cy="145.2" rx="2.2" ry="2.1"/>
				
					<ellipse transform="matrix(0.9362 -0.3515 0.3515 0.9362 -15.7839 203.504)" class="st16" cx="552.6" cy="145.2" rx="1.9" ry="1.8"/>
				
					<rect x="565.1" y="172.5" transform="matrix(0.9362 -0.3515 0.3515 0.9362 -29.9987 212.0028)" class="st15" width="7.6" height="32.2"/>
				
					<rect x="527" y="172" transform="matrix(0.9362 -0.3515 0.3515 0.9362 -26.9515 197.2684)" class="st23" width="5.7" height="1.7"/>
				
					<rect x="528.6" y="176.4" transform="matrix(0.9362 -0.3515 0.3515 0.9362 -28.4025 198.1138)" class="st23" width="5.7" height="1.7"/>
				
					<rect x="523.9" y="128.4" transform="matrix(0.9362 -0.3515 0.3515 0.9362 -18.6403 194.4259)" class="st24" width="4.5" height="40.3"/>
				
					<ellipse transform="matrix(0.9362 -0.3515 0.3515 0.9362 -12.661 190.8545)" class="st23" cx="519.3" cy="130.3" rx="2.2" ry="2.2"/>
				
					<ellipse transform="matrix(0.9372 -0.3489 0.3489 0.9372 -12.6365 189.2675)" class="st15" cx="519.1" cy="129.7" rx="2.2" ry="2.2"/>
				
					<ellipse transform="matrix(0.9362 -0.3515 0.3515 0.9362 -12.461 190.7435)" class="st16" cx="519.1" cy="129.7" rx="1.9" ry="1.9"/>
				
					<rect x="532.6" y="158.8" transform="matrix(0.9362 -0.3515 0.3515 0.9362 -27.6247 199.7756)" class="st15" width="7.6" height="34.3"/>
				
					<rect x="514.4" y="132" transform="matrix(0.9362 -0.3515 0.3515 0.9362 -20.5078 191.3178)" class="st24" width="4.5" height="40.3"/>
				
					<ellipse transform="matrix(0.9362 -0.3515 0.3515 0.9362 -14.498 187.7286)" class="st23" cx="509.8" cy="133.8" rx="2.2" ry="2.2"/>
				
					<ellipse transform="matrix(0.9362 -0.3515 0.3515 0.9362 -14.3165 187.587)" class="st15" cx="509.5" cy="133.2" rx="2.2" ry="2.2"/>
				<ellipse class="st16" cx="509.5" cy="133.2" rx="1.9" ry="1.9"/>
				
					<rect x="523.1" y="162.4" transform="matrix(0.9362 -0.3515 0.3515 0.9362 -29.4923 196.6677)" class="st15" width="7.6" height="34.3"/>
				
					<rect x="548.4" y="178.6" transform="matrix(0.9372 -0.3489 0.3489 0.9372 -27.9816 203.6148)" class="st23" width="5.7" height="1.7"/>
				
					<rect x="550" y="182.7" transform="matrix(0.9362 -0.3515 0.3515 0.9362 -29.2509 206.0345)" class="st23" width="5.7" height="1.7"/>
				
					<rect x="545.2" y="134.2" transform="matrix(0.9362 -0.3515 0.3515 0.9362 -19.3869 202.2926)" class="st24" width="4.5" height="40.7"/>
				
					<ellipse transform="matrix(0.9362 -0.3515 0.3515 0.9362 -13.3148 198.6578)" class="st23" cx="540.5" cy="136" rx="2.2" ry="2.2"/>
				
					<ellipse transform="matrix(0.9372 -0.3489 0.3489 0.9372 -13.3188 197.0565)" class="st15" cx="540.4" cy="135.5" rx="2.2" ry="2.2"/>
				
					<ellipse transform="matrix(0.9362 -0.3515 0.3515 0.9362 -13.1632 198.5353)" class="st16" cx="540.2" cy="135.5" rx="1.9" ry="1.9"/>
				
					<rect x="554" y="164.9" transform="matrix(0.9362 -0.3515 0.3515 0.9362 -28.4739 207.6956)" class="st15" width="7.6" height="34.7"/>
				
					<rect x="535.7" y="137.7" transform="matrix(0.9362 -0.3515 0.3515 0.9362 -21.224 199.1667)" class="st24" width="4.5" height="40.7"/>
				
					<ellipse transform="matrix(0.9362 -0.3515 0.3515 0.9362 -15.201 195.5196)" class="st23" cx="530.9" cy="139.6" rx="2.2" ry="2.2"/>
				
					<ellipse transform="matrix(0.9362 -0.3515 0.3515 0.9362 -15.0003 195.409)" class="st15" cx="530.7" cy="139" rx="2.2" ry="2.2"/>
				
					<ellipse transform="matrix(0.9362 -0.3515 0.3515 0.9362 -15.0003 195.409)" class="st16" cx="530.7" cy="139" rx="1.9" ry="1.9"/>
				
					<rect x="544.5" y="168.7" transform="matrix(0.9372 -0.3489 0.3489 0.9372 -30.4809 203.0123)" class="st15" width="7.7" height="34.8"/>
				
					<ellipse transform="matrix(4.205197e-02 -0.9991 0.9991 4.205197e-02 325.4455 726.6932)" class="st25" cx="541.7" cy="193.6" rx="26.4" ry="26.5"/>
				
					<ellipse transform="matrix(4.204823e-02 -0.9991 0.9991 4.204823e-02 325.4472 726.6941)" class="st26" cx="541.7" cy="193.6" rx="25.7" ry="25.8"/>
				
					<ellipse transform="matrix(4.205075e-02 -0.9991 0.9991 4.205075e-02 325.4461 726.6935)" cx="541.7" cy="193.6" rx="19.3" ry="19.4"/>
				
					<ellipse transform="matrix(4.205248e-02 -0.9991 0.9991 4.205248e-02 325.4452 726.6932)" class="st2" cx="541.7" cy="193.6" rx="18.4" ry="18.5"/>
				
					<ellipse transform="matrix(4.205075e-02 -0.9991 0.9991 4.205075e-02 325.4461 726.6935)" class="st27" cx="541.7" cy="193.6" rx="17.4" ry="17.5"/>
				
					<ellipse transform="matrix(4.205075e-02 -0.9991 0.9991 4.205075e-02 325.4461 726.6935)" class="st28" cx="541.7" cy="193.6" rx="10.8" ry="10.9"/>
				
					<ellipse transform="matrix(4.205075e-02 -0.9991 0.9991 4.205075e-02 325.4461 726.6935)" class="st29" cx="541.7" cy="193.6" rx="9.9" ry="10"/>
				
					<ellipse transform="matrix(4.205075e-02 -0.9991 0.9991 4.205075e-02 420.6269 847.4096)" class="st25" cx="652.2" cy="204.4" rx="15.2" ry="15.3"/>
				
					<ellipse transform="matrix(4.205076e-02 -0.9991 0.9991 4.205076e-02 420.6269 847.4096)" class="st26" cx="652.2" cy="204.4" rx="14.8" ry="14.8"/>
				
					<ellipse transform="matrix(4.205075e-02 -0.9991 0.9991 4.205075e-02 420.6269 847.4096)" cx="652.2" cy="204.4" rx="11.1" ry="11.2"/>
				
					<ellipse transform="matrix(4.205075e-02 -0.9991 0.9991 4.205075e-02 420.6269 847.4096)" class="st2" cx="652.2" cy="204.4" rx="10.6" ry="10.6"/>
				
					<ellipse transform="matrix(4.205075e-02 -0.9991 0.9991 4.205075e-02 420.6269 847.4096)" class="st27" cx="652.2" cy="204.4" rx="10" ry="10.1"/>
				
					<ellipse transform="matrix(3.996808e-02 -0.9992 0.9992 3.996808e-02 422.0629 847.3401)" class="st28" cx="652" cy="204" rx="6.2" ry="6.3"/>
				
					<ellipse transform="matrix(4.205076e-02 -0.9991 0.9991 4.205076e-02 420.6269 847.4096)" class="st29" cx="652.2" cy="204.4" rx="5.7" ry="5.7"/>
			</g>
		</g>
	</g>
	<g>
		<path class="st22" d="M593.7,193.7c-4.4-3.7-6.2-9-3.9-11.9c-0.7,0.3-1.4,0.7-1.8,1.3c-2.4,2.8-0.7,8.2,3.8,12s10.1,4.5,12.5,1.7
			l0.1-0.1C601.6,197.8,597.3,196.7,593.7,193.7z"/>
		<path class="st30" d="M601.7,184c-4.5-3.8-10.1-4.5-12.5-1.7l-0.1,0.1c2.8-1.1,7.1,0,10.6,3c4.4,3.7,6.2,9,3.9,11.9
			c0.7-0.3,1.4-0.7,1.8-1.3C608,193.2,606.3,187.8,601.7,184z"/>
	</g>
	<g class="st31">
		<path class="st32" d="M590.6,181.7c1.7-0.1,2.1-0.4,3-0.5c-0.3,0,0.3,0.9,0.6,1s2.6,0.2,2.9,0c0.5-0.3,0.9,1.2,1.2,1.4
			c0.2,0.2,1.8,0.1,1.7,0.3c0,0-1.9,0.3-0.2,1c2.2,0.8,1,0.3,2.3,1.8c0.5,0.6,1,1.4,1.6,1.6c0.3,0.1,0.8,0,1.1,0.1
			c0.1,0.4,0.7,1,0.8,1.4c-0.1,0.3-1.2-0.3-1.2,0c0.3,0.5,1.5,1.6,0.9,2.2l0.9,1.6l-1.1,1.9"/>
		<line class="st32" x1="595" y1="181.7" x2="596.8" y2="182.8"/>
		<line class="st32" x1="600.9" y1="185.8" x2="603.1" y2="186.6"/>
	</g>
</g>
<g id="Layer_8">
	
		<linearGradient id="SVGID_10_" gradientUnits="userSpaceOnUse" x1="400" y1="48" x2="400" y2="298" gradientTransform="matrix(1 0 0 1 0 -48)">
		<stop  offset="0" style="stop-color:#666666"/>
		<stop  offset="1" style="stop-color:#333333"/>
	</linearGradient>
	<rect class="st33" width="800" height="250"/>
</g>
</svg>
