<?xml version="1.0" encoding="utf-8"?>
<!-- Generator: Adobe Illustrator 25.0.0, SVG Export Plug-In . SVG Version: 6.00 Build 0)  -->
<svg version="1.1" id="Layer_1" xmlns="http://www.w3.org/2000/svg" xmlns:xlink="http://www.w3.org/1999/xlink" x="0px" y="0px"
	 viewBox="0 0 800 250" style="enable-background:new 0 0 800 250;" xml:space="preserve">
<style type="text/css">
	.st0{fill:#CDF5F9;}
	.st1{fill:#17C61F;}
	.st2{fill:#09890C;}
	.st3{fill:#3B3B3B;}
	.st4{fill:#FFFFFF;}
	.st5{display:none;}
	.st6{display:inline;opacity:0.47;fill:url(#SVGID_1_);enable-background:new    ;}
	.st7{fill:#2B2B2B;}
	.st8{fill:#5B5B5B;}
	.st9{fill:url(#SVGID_2_);}
	.st10{fill:#FF9100;}
	.st11{fill:#703D00;}
	.st12{fill:url(#SVGID_3_);}
	.st13{fill:#0B4704;}
	.st14{clip-path:url(#SVGID_5_);}
	.st15{fill:#826900;}
	.st16{fill:#9B9B9B;}
	.st17{fill:#191919;}
	.st18{fill:#D6D6D6;}
	.st19{fill:#0D6805;}
	.st20{clip-path:url(#SVGID_7_);}
	.st21{clip-path:url(#SVGID_9_);}
	.st22{fill:#DDA300;}
	.st23{fill:#C49E00;}
	.st24{fill:#5E5E5E;}
	.st25{fill:#777777;}
	.st26{fill:#32323F;}
	.st27{fill:#474757;}
	.st28{fill:#DDDDDD;}
	.st29{fill:#BAC0D8;}
	.st30{fill:#ACAFBC;}
	.st31{fill:#FFCE00;}
	.st32{opacity:0.65;}
	.st33{fill:none;stroke:#AD7B00;stroke-linecap:round;stroke-linejoin:round;stroke-miterlimit:10;}
</style>
<g id="Layer_1_2_">
	<g id="Layer_1_1_">
		<rect class="st0" width="800" height="250"/>
	</g>
	<g id="Layer_7">
		<g>
			<path d="M263.8,163.2c0.3-0.9,0.6-1.8,1-2.7c0.1-0.3,0.2-0.5,0.3-0.8c0.2-1.1,0.2-2.1,0.6-3.2c0.3-0.9,0.2-1.5-0.4-2.2
				c-1.8-1.9-3.5-3.8-5.4-5.8c-0.8,2.6-1.4,5.1-2,7.5c-0.1,0-0.2,0-0.3,0c0.2-2.5,0.5-5.1,0.8-7.7c0.2-1.5-0.7-2.8-2.3-2.8
				c-1.2,0-2-0.4-2.4-1.3c-0.6-1.3-1.7-2-3.2-2.3c-1-0.3-1-1,0.1-2.1c-0.4-0.4-0.8-0.7-1.2-1.1c0.1-0.1,0.1-0.1,0.2-0.2
				c0.6,0.5,1.3,1,1.9,1.5c0.2-0.1,0.3-0.2,0.5-0.3c-0.2-0.6-0.3-1.2-0.5-1.8c-0.2-0.5-0.6-0.9-0.7-1.4c-0.3-1.1,0.5-1.9,1.8-1.9
				c1.2,0,2.5-0.1,3,1.1c0.1,0.3,1,0.2,1.3,0.5c0.2,0.3,0.2,0.7,0.5,0.8c3.4,1.5,7,1.3,11.1-1.2c0.8-0.5,1.8-0.5,2.6-0.8
				c0.7-0.2,1.3-0.5,2-0.8c0,0.3-0.1,0.8-0.1,1.4c-0.4,0.1-0.8,0.3-1.2,0.4c0.1,0.1,0.2,0.1,0.3,0.2c-0.4,0.5-0.7,0.9-1,1.4
				c-0.4,0.6-0.7,1.2-1.1,2.1c-1.1,0.3-2.6,0.7-4.1,1.1c0,0.1,0,0.1,0,0.2c0.9-0.1,1.8-0.3,2.4-0.3c0.3,1.5,0.5,2.9,0.7,4.3
				c0,0.1,0.1,0.3,0.1,0.3c-1.4,1.6,0.5,2.2,0.4,3.5c0.6-0.8,1.2-1.4,1.7-2.2c0.7-1,1.5-2,1.2-3.3c-0.2-1,0.3-1.9,1.2-2.8
				c0.7-0.7,1-1.8,1.7-2.5c1.2-1,1.2-2.9,3-3.4c0.6-0.2,0.9-0.7,0.5-1.2c-0.7-0.8-1.3-1.5-1.1-2.8c0.1-1.4-1.3-1.7-2.5-2.1
				c1.7,1.3,1.6,3.3,1.5,5.2c-0.8-0.6-1.6-1.1-2.4-1.6c-0.2-0.1-0.4-0.2-0.4-0.4c-0.6-2.3-1.7-4.6-0.6-7.3c0.7-1.8,0.5-3.7,2.3-5.4
				c0.7-0.6,1.4-1.2,2.3-1.9c0-1,0.7-1.7,2-1.9c0.7-2.2,1.8-4.3,3.8-6.1c0.6-0.5,2.5-0.6,2.8-0.2c1,1.2,2,2.4,3,3.7
				c0.2-0.1,0.4-0.1,0.6-0.2c0-0.3,0.1-0.5,0-0.8c-0.4-1.1-0.9-2.1,0.8-3.3c0.1-0.1,0.1-0.5,0.1-0.8c0-0.7,0.3-1.5,1.2-1.6
				c0.7,0,1.7,0.5,1.8,1c0.2,3.1,2.3,5,4.6,6.8c0.3,0.2,0.5,0.4,0.8,0.7c0.1,0.1,0.2,0.3,0.2,0.3c-0.6,0.8-1.2,1.4-1.7,2.2
				c-0.2,0.3,0.1,0.7,0.2,1.3c1.8-1.4,3.3-2.7,5.1-4c-0.1-0.5-0.3-1.1-0.4-1.7c-0.1,0-0.2,0-0.4,0c-0.3,0.5-0.7,1-1.2,2
				c-0.2-0.6-0.4-0.9-0.4-1.3c0-1.9,0.1-3.8,0.2-5.7c-0.2,0-0.4,0-0.5,0c-0.3,1-0.7,2-1,3c-0.1,0-0.2,0-0.3,0.1
				c0-0.4-0.2-0.8-0.1-1.2c0.1-0.9,0.3-1.8,0.6-2.6c0.4-1.3,0.9-2.6-1-3.1c-0.4-0.1-0.6-0.6-0.6-1.2c0.5,0.3,1,0.6,1.3,0.8
				c0-0.5,0-1.1-0.1-1.6c-0.1-0.2-0.4-0.4-0.7-0.5c-0.5-0.1-1-0.1-1.7-0.1c-0.1,0.1-0.3,0.5-0.6,1.1c-0.3-1.1-0.4-2-0.7-2.9
				c-0.1-0.4-0.3-0.8-0.5-1.2c-0.1-0.3-0.4-0.5-0.4-0.8c0.3-1.7,0.7-3.4,1.2-5.2c0.5,0.4,0.8,0.7,1.5,1.2c0.2-0.9,0.3-1.5,0.6-2.1
				c0.3-0.6,0.7-1.2,1.1-1.8c0.7,0.2,1.7,0.3,2.1,0.7c0.5,0.5,0.7,1.3,0.7,2c-0.1,1.3,0.8,1.9,1.8,2.6c0.2,0.2,0.5,0.3,0.7,0.5
				c1.7,1.2,1.6,1.5,0,2.8c0.2,0.4,0.4,0.7,0.6,1c0.1,0.3,0.2,0.6,0.4,0.9c0.2,0.3,0.6,0.6,0.9,0.8c2.9,1.8,4.8,4.2,4.9,7.5
				c0,0.5,0.3,0.9,0.6,1.6c1.9-0.6,3.8-1,5.6-1.6c1.1-0.3,1.7-1,1.2-2.2c-0.5-1.3-0.8-2.8-1.3-4.1c-0.1-0.4-0.6-0.6-0.8-0.9
				c-0.4-0.6-0.8-1.3-1-2c-0.2-0.8,0-1.6,0-2.4v-0.1c1.7-0.8,0.6-2.1,1.2-3c0.2-0.4,1.1-1.1,1.3-1c0.7,0.3,1.4,0.8,1.7,1.3
				c0.4,0.8,0.4,1.8,0.9,2.7c0.8,1.5,2,2.5,4.3,2.3c0.3,0,1,0.3,1,0.4c-0.1,0.4-0.4,1-0.6,1.1c-1.3,0.1-1.1,1.1-1.4,1.7
				c-0.4,0.7,0.1,1.3,1.1,1.2c1.1-0.2,2.2-0.5,3.3-0.7c0-0.1,0-0.3,0-0.4c-1.1-0.2-2.2-0.3-3.5-0.5c0.2-0.2,0.5-0.7,0.8-0.7
				c1.2,0,1.4-0.7,1.5-1.4c0.2-1.3,1.2-2.6-0.6-3.9c-0.5-0.3-0.1-1.8,0.2-2.7c0.3-1,0.8-2,1.4-3c0.3-0.5,0.9-0.9,1.3-1.3
				c0.6,0.5,1.7,0.9,1.8,1.5c0.2,1.4,0,2.7,1,4c1.2,1.5,2.1,3.2,3.3,5.1c-1.8-0.5-2.1,0.1-2,1.1c2.2-0.5,4.3-0.8,6.1-1.1
				c-0.2-1.5-0.4-3.1-0.6-4.6c-0.1,0-0.3-0.1-0.4-0.1c-0.5,1.2-1,2.4-1.5,3.6c-0.4-0.3-0.7-0.6-1-0.9c0.6-1,1.1-2,1.7-2.9
				c0.8-1.1,0.7-2-0.9-2.6c-0.4-0.2-0.7-0.5-1.3-0.9c2.6-0.2,2.3-1.4,2-2.8s-0.1-2.7,0.9-3.9c0.3-0.3,0.2-1,0.2-1.5
				c-0.1-1.5,0.6-2.5,1.7-2.4c1.3,0.1,2.4,1.4,2.3,2.8c0,0.2-0.1,0.4,0,0.6c1.2,2.4,2.3,4.8,3.2,7c1.7,0.6,3,1.1,4.8,1.7
				c-0.8,0.9-1.7,1.9-2.6,3c-0.6-0.5-0.9-0.7-1.2-0.9c-0.1,0-0.1,0.1-0.2,0.1c0.6,1.2,1.1,2.4,1.7,3.7c1.6-0.1,3.1-0.2,5-0.2
				c0,0.1,0.1-0.1,0.1-0.3c0-1.7,0-3.4-0.1-5.1c0-0.3-0.3-0.7-0.6-1.2c0.1-1.4,0.2-3.2,0.3-5.1c0-0.4-0.3-0.8-0.5-1.2
				c-1.3-1.8-1.6-3.5-1.5-5.3c0.1-1-0.3-2-0.5-3.1c-0.2,0,0,0,0.4,0c-0.6-0.9-1.2-1.9-1.8-2.8c0.1,0,0.3-0.1,0.4-0.1
				c0.6,0.7,1.2,1.5,2.2,2.6c-0.2-0.8-0.2-1.2-0.3-1.8c0.5,0.3,0.8,0.5,1.2,0.7c0.2-0.6,0.2-1.3,0.6-1.9c0.2-0.3,0.9-0.7,1.4-0.5
				c0.6,0.2,1.3,0.7,1.6,1.2c0.3,0.5,0.5,1.1,0.3,1.6c-0.3,1.1-0.3,2,1.8,2.8c-1.7,0.2,0,5.8,2.3,8.1c0.6-0.9,1.2-1.5,1.5-2.4
				c0.3-0.8,0.2-1.9,0.5-2.7c0.2,1.8,0.3,3.5-0.9,4.8c-0.3,0.3-0.6,0.6-0.8,0.9c-0.5,0.7-0.9,1.3,0,2.4c0.6,0.8,0.6,1.9,0.7,2.8
				c0.1,1.2-0.1,2.3-0.2,3.6c1.9,0.5,3.6,1.1,5.7,1.7c-1.4-1.5-2.5-2.7-3.8-4c0.4-0.1,0.8-0.3,1.3-0.2c1.5,0.3,1.7-0.4,1.7-1.4
				c0.1-1.8,0-3.8,0.9-5.2c0.6-0.9,1-2,1.7-2.8c0.3-0.3,1.5-0.4,2.1-0.1s1.4,1.4,1.3,1.9c-0.4,2.7-0.1,5.6,0.6,8.6
				c0.1,0.6,0.3,1.3,0.3,1.9c0.1,1,0.1,1.9-1.5,1.8c-0.2,0-0.3,0.3-0.5,0.5c4.5,1,6.2-1,8-2.9s2.2-4.6,2.8-7.1
				c0.1-0.3-0.1-0.7-0.2-1.1c-0.7-2.1,0.3-3.2,1.9-3.9c0.4-0.2,0.8-0.5,1.3-0.8c-0.7-0.5-1.2-0.8-1.7-1.1c0.1-0.1,0.1-0.2,0.2-0.3
				c0.8-0.3,1.6-0.5,2.4-0.7c1.3-0.4,1.1-1.1-0.3-2.7c-0.8-0.9-1.4-1.8-2.3-2.9c1.5,1.1,2.7,1.9,3.8,2.8c0.4,0.3,0.8,0.6,1.1,1
				c0.8,1.1,1.5,2.2,2.4,3.4c0.8,1.1,1.8,2.2,2.8,3.5c-0.8-0.2-1.5-0.4-2.2-0.5c-0.2,1.7-0.4,3.4-0.6,5.2c0.3,0.3,0.7,0.7,1.1,1.1
				c1.8,1.6,2.7,1.8,3,0.4c0.4-2.2,0.6-4.5,0.8-6.7c0-0.3,0.1-0.5,0.2-0.7c0.2,0,0.3,0.1,0.5,0.1c0.3,0.8,0.7,1.6,1,2.3
				c0.4,0.9,0.6,1.5-0.4,1.6c-0.7,0.1-0.7,1-0.9,1.7c-0.2,1.4-0.2,3-0.6,4.3c-0.4,1.7-1.2,3.2-1.7,5c-0.4,1.5-0.6,3.1-0.7,4.7
				c1.3-0.5,2.6,0.5,4,1.4c0.7,0.5,1.5,0.7,2.2,1.1c0.5,0.4,1,1,1.2,1.5c2,4,3.6,7.8,5.4,11.7c1.1,2.3,2.4,4.6,3.6,6.9
				c0.2,0.3,0.2,0.6,0.4,0.9c-28.8-14.3-57.6-16.6-82.7-8.6c-25.1,7.6-46.5,25.4-61.5,43C264.5,162.8,264.1,163,263.8,163.2z
				 M289,124.7c-0.2-0.1-0.4-0.1-0.6-0.2c0.5-1.2,1.9-2.5,0.1-3.5c-0.5,0.5-1.4,1-1.4,1.4c0.1,1.3,0.5,2.5,0.8,4.1
				c2.1-2.2,3.9-4.1,5.8-5.9c-0.3-0.7-0.6-1.6-1-2.4c-0.4-0.9-0.6-2-1.3-2.6c-1-0.8-2.4-1.3-3.7-1.9c-0.5-0.3-1.1-0.8-1.7,0
				c-0.4,0.5-0.6,1.3-0.4,1.8c0.5,1.5,1.3,2.9,1.9,4.2c0.7,0.3,1.6,0.4,2,0.9c0.5,0.6,0.8,1.5,0.7,2.3
				C290.1,123.5,289.4,124.1,289,124.7z M281.4,125.9c0.7,1,1.3,2,2.1,2.9c0.4,0.4,1,1.2,1.8,0.3c0.8-0.8,1.9-2,1.8-2.8
				c-0.1-1.3-1.1-2.4-1.6-3.5C284,123.9,282.9,124.8,281.4,125.9z M358.8,91.5c-2.2-0.1-4.1-0.2-3.9,2c0,0.2-0.3,0.4-0.3,0.7
				c-0.2,1.1-0.3,2.2-0.5,3.4c0.5-0.1,0.8-0.1,0.9-0.2c1-0.6,1.7-1.6,3.4-1.3c0.1,0,0.4-0.3,0.4-0.5
				C358.9,94.2,358.9,92.9,358.8,91.5z M279.7,128c0.2,2-1.7,4.3,0.2,5.8c1.4-1.2,2.8-2.3,4.1-3.3
				C282.5,129.5,281.1,128.7,279.7,128z M266.6,153.7c2.1-2.1,2-4,0.2-5.7c-0.1-0.1-0.1-0.1-0.1-0.2c-0.4-1-1.4-0.9-2.5-0.6
				c1,0.5,1.9,1,2.9,1.6c-0.7,0.5-1.3,0.8-1.7,1.2c-0.3,0.3-0.5,0.9-0.4,1.1C265.4,152,266.1,152.9,266.6,153.7z M304.6,112.7
				c0.5-0.3,0.8-0.7,1.2-0.8c2.9-0.7,3.7-1.6,2.8-3.8c-0.2-0.4-0.8-0.6-1.3-1c-0.3,0.4-0.7,0.8-1,1.3c-0.4,0.6-0.6,1.4-1.2,1.9
				C304.3,111.1,304,111.8,304.6,112.7z M390.2,104.4c0.2,0.1,0.4,0.2,0.6,0.3c0.8-3.1,1.5-6.2,2.3-9.3c-0.1-0.1-0.3-0.2-0.4-0.2
				C391,97.7,388.5,99.9,390.2,104.4z M343.6,91c-0.3,1.3,1.1,1.7,1.7,2.6C346,92.2,344.9,91.7,343.6,91z"/>
		</g>
		<g>
			<path class="st1" d="M456,193.7c-1.8-27.5-14.6-51.9-33.9-69.1c-5.8,5.3-13.3,8.8-21.8,9.5c-15.4,1.2-29.3-7.2-35.8-20.3
				c-4.6,3-9.8,5-15.6,5.7c-4.7,7.7-13,13.1-22.6,13.8c-9.5,0.8-18.4-3.1-24.3-9.8c-3.7,3.3-8.5,5.4-13.8,5.8c-2,0.2-4,0.1-6-0.3
				c-16.7,16.8-27.5,39.5-29.2,64.6h-0.2V250h203.3v-56.3H456z"/>
			<path class="st2" d="M288.3,129.3c5.3-0.4,10.1-2.6,13.8-5.8c5.9,6.6,14.7,10.5,24.3,9.8c9.7-0.8,17.9-6.2,22.6-13.8
				c5.8-0.7,11.1-2.7,15.6-5.7c6.5,13,20.4,21.5,35.8,20.3c8.4-0.7,16-4.2,21.8-9.5c-18-16-41.6-25.7-67.5-25.7
				c-28.3,0-53.8,11.5-72.3,30.2C284.2,129.4,286.2,129.5,288.3,129.3z"/>
		</g>
	</g>
	<g id="Layer_5">
		<rect y="220" class="st3" width="800" height="30"/>
		<rect x="15" y="220" class="st4" width="99" height="6"/>
		<rect x="221" y="220" class="st4" width="99" height="6"/>
		<rect x="429" y="220" class="st4" width="99" height="6"/>
		<rect x="635" y="220" class="st4" width="99" height="6"/>
	</g>
	<g id="Layer_6">
	</g>
	<g id="Layer_8" class="st5">
		
			<linearGradient id="SVGID_1_" gradientUnits="userSpaceOnUse" x1="400" y1="48" x2="400" y2="298" gradientTransform="matrix(1 0 0 1 0 -48)">
			<stop  offset="0" style="stop-color:#666666"/>
			<stop  offset="1" style="stop-color:#333333"/>
		</linearGradient>
		<rect class="st6" width="800" height="250"/>
	</g>
	<path class="st7" d="M775.9,196.4h-6l-1.7-102.9h10.2V26.1c-6.4,0-11.6,5.2-11.6,11.6v30.7h-14.4V26.1h-8.1v42.3h-13.9V37.6
		c0-6.4-5.2-11.6-11.6-11.6v67.4H729l-1.7,102.9h-6l-8.3,23.6h13.9H739h19h12.1H784L775.9,196.4z"/>
	<g>
		<polygon class="st8" points="779.4,197.2 768.7,197.2 767.7,93.5 775,93.5 		"/>
		<polygon class="st8" points="718,197.2 728.7,197.2 729.7,93.5 722.4,93.5 		"/>
		<rect x="744.9" y="93.5" class="st8" width="7.6" height="103.7"/>
	</g>
	
		<radialGradient id="SVGID_2_" cx="748.7" cy="216.6" r="34.4503" gradientTransform="matrix(1 0 0 -1 0 252)" gradientUnits="userSpaceOnUse">
		<stop  offset="0" style="stop-color:#FF9100"/>
		<stop  offset="1" style="stop-color:#FF9100;stop-opacity:0"/>
	</radialGradient>
	<ellipse class="st9" cx="748.7" cy="35.4" rx="34.3" ry="34.6"/>
	<g>
		<ellipse class="st10" cx="748.7" cy="35.4" rx="19" ry="19.1"/>
		<path class="st11" d="M748.7,51L748.7,51c-8.5-8.6-8.5-22.5,0-31l0,0l0,0C757.2,28.5,757.2,42.4,748.7,51L748.7,51z"/>
	</g>
	<g>
		<g id="Layer_2_1_">
			<g id="Premium">
				<g id="premium-drag-green">
					
						<linearGradient id="SVGID_3_" gradientUnits="userSpaceOnUse" x1="578.6" y1="222.45" x2="591.3163" y2="222.45" gradientTransform="matrix(1 0 0 1 0 -48)">
						<stop  offset="0" style="stop-color:#C9E7F9"/>
						<stop  offset="1" style="stop-color:#AAFFF9"/>
					</linearGradient>
					<polygon class="st12" points="591.3,177.9 578.6,178.9 581.9,170 590.4,172.5 					"/>
					<path class="st13" d="M590.5,172C590.4,172,590.4,172,590.5,172C590.4,172,590.4,172,590.5,172c-0.6-1.5-2.1-4-5.7-4.2
						c-5-0.4-6.1,3.5-6.1,4.8v3.2c0,0.4,0.2,0.7,0.4,1H579v2.6l8.3,1.4v-0.4l2.1,0.9c0.5,0.2,1.1,0,1.4-0.4c0.5-0.7,0.8-1.6,0.9-2.4
						l0,0v-0.1C591.8,175.1,590.5,172.2,590.5,172z M581.1,174.3c0.5,0,0.9,0.4,0.9,0.9s-0.4,0.9-0.9,0.9s-0.9-0.4-0.9-0.9
						S580.6,174.3,581.1,174.3L581.1,174.3z M590.7,177.6c-0.7,0-1.8-0.2-3.1-1.1c-1.5-1.1-2.2-2.6-2.6-3.6c-0.2-0.5,0-1.3,0.6-1.3
						c0.3,0,0.8,0.2,1.4,0.6c1,0.7,2.1,0.8,2.9,0.7c0.1,0,0.2-0.1,0.3-0.1c0.6,1.5,0.9,3.1,0.9,4.7
						C590.9,177.6,590.8,177.6,590.7,177.6L590.7,177.6z"/>
					<g>
						<g>
							<defs>
								<path id="SVGID_4_" d="M590.5,172C590.4,172,590.4,172,590.5,172C590.4,172,590.4,172,590.5,172c-0.6-1.5-2.1-4-5.7-4.2
									c-5-0.4-6.1,3.5-6.1,4.8v3.2c0,0.4,0.2,0.7,0.4,1H579v2.6l8.3,1.4v-0.4l2.1,0.9c0.5,0.2,1.1,0,1.4-0.4
									c0.5-0.7,0.8-1.6,0.9-2.4l0,0v-0.1C591.8,175.1,590.5,172.2,590.5,172z M581.1,174.3c0.5,0,0.9,0.4,0.9,0.9
									s-0.4,0.9-0.9,0.9s-0.9-0.4-0.9-0.9S580.6,174.3,581.1,174.3L581.1,174.3z M590.7,177.6c-0.7,0-1.8-0.2-3.1-1.1
									c-1.5-1.1-2.2-2.6-2.6-3.6c-0.2-0.5,0-1.3,0.6-1.3c0.3,0,0.8,0.2,1.4,0.6c1,0.7,2.1,0.8,2.9,0.7c0.1,0,0.2-0.1,0.3-0.1
									c0.6,1.5,0.9,3.1,0.9,4.7C590.9,177.6,590.8,177.6,590.7,177.6L590.7,177.6z"/>
							</defs>
							<clipPath id="SVGID_5_">
								<use xlink:href="#SVGID_4_"  style="overflow:visible;"/>
							</clipPath>
							<g class="st14">
								<polygon class="st15" points="566.7,160.4 565.7,161.9 582.6,173.8 582.6,194.6 584.3,194.6 584.3,173 								"/>
							</g>
						</g>
					</g>
					<rect x="643.9" y="183.3" class="st16" width="21.6" height="9.4"/>
					<polygon class="st16" points="661.1,184.6 648.4,184.6 648.4,178.1 664.3,177.6 					"/>
					<path class="st17" d="M664.3,177.6l-2.6,5.7C661.7,183.3,660.8,180.3,664.3,177.6z"/>
					<path class="st18" d="M643.9,183.3h13.3c0,0-5.5,1.4-13.3,1.2V183.3z"/>
					
						<rect x="661.8" y="182.9" transform="matrix(0.1893 -0.9819 0.9819 0.1893 354.9249 800.1976)" class="st17" width="0.5" height="4.5"/>
					
						<rect x="661.4" y="183.9" transform="matrix(0.1893 -0.9819 0.9819 0.1893 353.6034 800.5696)" class="st17" width="0.5" height="4.5"/>
					<path class="st19" d="M668.8,212.9L515,201.3c-7.4-0.6-13-7-12.5-14.5l0,0l0,0c0.6-7.4,7-13,14.5-12.5l0,0l110.5,8.5
						c7.4,0.6,47.8,10.8,55.7,17.6l0,0C682.7,207.9,676.2,213.5,668.8,212.9z"/>
					<g>
						<g>
							<defs>
								<path id="SVGID_6_" d="M668.8,212.9L515,201.3c-7.4-0.6-13-7-12.5-14.5l0,0l0,0c0.6-7.4,7-13,14.5-12.5l0,0l110.5,8.5
									c7.4,0.6,47.8,10.8,55.7,17.6l0,0C682.7,207.9,676.2,213.5,668.8,212.9z"/>
							</defs>
							<clipPath id="SVGID_7_">
								<use xlink:href="#SVGID_6_"  style="overflow:visible;"/>
							</clipPath>
							<g class="st20">
								
									<rect x="620.5" y="144.7" transform="matrix(0.8894 -0.4571 0.4571 0.8894 -15.0212 305.0546)" class="st15" width="4.9" height="77.7"/>
								
									<rect x="611.8" y="147.1" transform="matrix(0.8894 -0.4571 0.4571 0.8894 -17.0705 301.3429)" class="st15" width="4.9" height="77.7"/>
								
									<rect x="602.6" y="149.8" transform="matrix(0.8894 -0.4571 0.4571 0.8894 -19.3185 297.4333)" class="st15" width="4.9" height="77.7"/>
							</g>
						</g>
						<g>
							<defs>
								<path id="SVGID_8_" d="M668.8,212.9L515,201.3c-7.4-0.6-13-7-12.5-14.5l0,0l0,0c0.6-7.4,7-13,14.5-12.5l0,0l110.5,8.5
									c7.4,0.6,47.8,10.8,55.7,17.6l0,0C682.7,207.9,676.2,213.5,668.8,212.9z"/>
							</defs>
							<clipPath id="SVGID_9_">
								<use xlink:href="#SVGID_8_"  style="overflow:visible;"/>
							</clipPath>
							<g class="st21">
								<path class="st22" d="M596.1,195.3l0.9-6.7l-3.1-0.3l-1.8,1.2c-0.1,0-0.1,0-0.1,0s-0.1,0-0.1-0.1c0,0-0.1-0.1-0.1-0.2
									c-0.1-0.1-0.1-0.1-0.1-0.2c0,0,0.1-0.1,0.1-0.3c0.1-0.1,0.1-0.2,0.2-0.3c0.2-0.2,0.5-0.4,0.8-0.7c0.4-0.3,0.7-0.6,1-0.8
									c0.3-0.3,0.7-0.6,1.2-1c0.7,0.1,1.4,0.2,2.1,0.3c0.7,0.1,1.4,0.2,2.2,0.2c0.7,0.1,1.5,0.1,2.2,0.2c0.7,0.1,1.5,0.1,2.3,0.2
									c0.5-0.4,1.1-0.6,1.7-0.5c-0.1,0.5-0.3,0.9-0.6,1.3c-0.4,0.4-0.8,0.7-1.3,0.9s-1.1,0.4-1.6,0.5c-0.6,0.1-1.1,0.1-1.5,0.1
									h-0.2c-0.1,0-0.2,0-0.2,0l-0.6,0.5c0,0,0,0.1-0.1,0.4c-0.1,0.3-0.1,0.6-0.2,0.9c-0.1,0.4-0.1,0.7-0.2,1.1
									c-0.1,0.4-0.1,0.7-0.2,0.9l-0.1,1.1c0,0.4,0,0.7,0.1,1s0.3,0.5,0.6,0.5c0.2,0,0.4,0,0.6-0.1c0.2-0.1,0.3-0.1,0.5-0.2
									c0.2-0.1,0.3-0.1,0.5-0.2c0.2-0.1,0.3-0.1,0.5-0.1c0,0.4-0.2,0.7-0.5,1s-0.6,0.6-1,0.9c-0.4,0.3-0.8,0.5-1.2,0.7
									s-0.8,0.3-1.1,0.3c0,0-0.1,0-0.2,0c-0.2,0-0.4-0.2-0.6-0.4c-0.2-0.2-0.3-0.5-0.4-0.8c-0.1-0.3-0.2-0.6-0.2-0.9
									C596.1,195.7,596.1,195.5,596.1,195.3z M598.1,183.5c0-0.4,0.2-0.7,0.5-1s0.7-0.4,1.1-0.3c0.1,0,0.1,0,0.1,0
									c0.2,0,0.3,0.1,0.4,0.1c0.2,0.1,0.5,0.6,0.9,1.4v0.1c0,0.1,0,0.1,0,0.2c0,0.2-0.1,0.4-0.2,0.5c-0.1,0.1-0.3,0.2-0.5,0.3
									s-0.4,0.1-0.6,0.1c-0.2,0-0.4,0-0.6,0c-0.4,0-0.8-0.2-1-0.5C598.1,184.2,598,183.9,598.1,183.5z"/>
								<path class="st22" d="M606.9,192.8c0.2-1.4,0.4-2.7,0.5-4.2l0.1-0.6c-0.1,0-0.1,0-0.2-0.1c-0.1,0-0.2-0.1-0.3-0.1
									c-0.1-0.1-0.2-0.1-0.2-0.2c-0.1-0.1-0.1-0.2-0.1-0.3l0,0c0,0,0,0,0-0.1c0.3-0.3,0.7-0.6,1-0.8s0.7-0.3,1.2-0.2
									c0.2,0,0.4,0.1,0.5,0.2c0.1,0.1,0.2,0.2,0.3,0.4s0.1,0.3,0.1,0.5s0,0.4,0,0.6c0.2-0.1,0.5-0.2,0.8-0.3s0.5-0.3,0.8-0.4
									c0.3-0.1,0.6-0.2,0.9-0.3c0.3-0.1,0.6-0.1,0.8-0.1c0.4,0,0.7,0.2,1,0.4c0.2,0.3,0.4,0.6,0.6,0.9c0.1,0.4,0.2,0.7,0.2,1.1
									c0,0.4,0,0.7,0,1v0.2c0,0.2,0,0.3-0.1,0.5c0,0.2-0.1,0.3-0.1,0.4c-0.1,0.2-0.2,0.4-0.4,0.6c-0.2,0.2-0.4,0.3-0.7,0.5
									c-0.2,0.2-0.4,0.3-0.6,0.5c-0.2,0.2-0.3,0.4-0.3,0.6v0.1l1.7,1.2c0,0,0.2,0,0.3,0.1c0.2,0,0.3,0.1,0.5,0.1c0,0,0,0,0.2,0
									c0.1,0,0.3,0,0.4,0c0.2,0,0.3,0.1,0.3,0.2c-0.2,0.2-0.4,0.4-0.6,0.6c-0.2,0.2-0.4,0.3-0.5,0.5c-0.2,0.1-0.4,0.2-0.6,0.3
									c-0.2,0.1-0.5,0.1-0.8,0c-0.3,0-0.7-0.2-1-0.4s-0.6-0.5-0.9-0.7c-0.3-0.3-0.6-0.5-0.9-0.7c-0.3-0.2-0.6-0.3-1-0.4
									c-0.2,0-0.5,0-0.8,0.1s-0.5,0.3-0.7,0.4c0,0.4-0.1,0.8-0.3,1.4c-0.1,0.5-0.4,1-0.6,1.4c-0.3,0.4-0.6,0.8-1,1.1
									s-0.9,0.4-1.5,0.3c0-0.2,0.1-0.4,0.2-0.6c0.1-0.2,0.2-0.3,0.4-0.5c0.1-0.1,0.3-0.3,0.4-0.5c0.1-0.2,0.2-0.4,0.2-0.6
									C606.4,195.6,606.7,194.2,606.9,192.8z M611.6,188.2c-0.1,0-0.1,0-0.2,0l-2.1,1c0,0-0.1,0.1-0.2,0.3
									c-0.1,0.2-0.1,0.3-0.2,0.5l-0.1,1.4v0.3l-0.1,1.2c0.2,0,0.4,0,0.6-0.1c0.3,0,0.5-0.1,0.8-0.1c0.3-0.1,0.6-0.1,0.9-0.2
									c0.3-0.1,0.6-0.2,0.8-0.3s0.5-0.3,0.6-0.4c0.2-0.2,0.3-0.4,0.3-0.6c0-0.2,0-0.5,0-0.8s0-0.6-0.1-0.9
									c-0.1-0.3-0.2-0.6-0.3-0.8C612.1,188.5,611.9,188.3,611.6,188.2L611.6,188.2z M609.8,196.8c0.2-0.2,0.5-0.3,0.9-0.2h0.1
									c0,0,0.1,0,0.1,0.1c0.1,0,0.1,0,0.2,0.1c0.1,0,0.2,0.2,0.3,0.4s0.2,0.4,0.4,0.7c0,0,0,0,0,0.1v0.1c0,0.2-0.1,0.3-0.2,0.4
									c-0.1,0.1-0.2,0.2-0.4,0.2c-0.1,0.1-0.3,0.1-0.5,0.1s-0.3,0-0.4,0c-0.3,0-0.6-0.2-0.8-0.4s-0.2-0.5-0.2-0.8
									C609.4,197.2,609.5,197,609.8,196.8z"/>
								<path class="st22" d="M626.4,194.9c0.1,0.2,0.2,0.4,0.3,0.5c0.1,0.2,0.3,0.3,0.4,0.4c0.2,0.1,0.3,0.2,0.5,0.2h0.1
									c0,0,0.1,0,0.2,0c0.1,0,0.3-0.1,0.4-0.1c0.1-0.1,0.3-0.1,0.4-0.2c0.1-0.1,0.2-0.2,0.2-0.3s0-0.3-0.1-0.5s-0.2-0.4-0.3-0.6
									c-0.1-0.2-0.3-0.4-0.5-0.5c-0.2-0.2-0.4-0.2-0.6-0.3l0,0c-0.2,0-0.5,0-0.7,0.2s-0.3,0.4-0.4,0.6
									C626.3,194.5,626.3,194.7,626.4,194.9z"/>
							</g>
						</g>
					</g>
					<path class="st23" d="M512.5,196.6l166.9,9.7c2.2,0.1,3.9,2,3.7,4.2l0,0c-0.1,2.2-2,3.9-4.2,3.7L512,204.5
						c-2.2-0.1-3.9-2-3.7-4.2l0,0C508.4,198.2,510.3,196.5,512.5,196.6z"/>
					<polygon class="st19" points="584.6,163 534.4,154.5 534.4,182.7 583.8,185.8 576,167.6 					"/>
					
						<rect x="551.1" y="181.5" transform="matrix(0.9362 -0.3515 0.3515 0.9362 -28.7375 206.3495)" class="st24" width="5.7" height="1.6"/>
					
						<rect x="552.7" y="185.6" transform="matrix(0.9362 -0.3515 0.3515 0.9362 -30.0718 207.1682)" class="st24" width="5.7" height="1.6"/>
					
						<rect x="548.6" y="140.4" transform="matrix(0.9362 -0.3515 0.3515 0.9362 -20.8411 203.7848)" class="st25" width="4.5" height="37.8"/>
					
						<ellipse transform="matrix(0.9362 -0.3515 0.3515 0.9362 -15.2435 200.4306)" class="st24" cx="544.4" cy="142.2" rx="2.2" ry="2.1"/>
					
						<ellipse transform="matrix(0.9372 -0.3489 0.3489 0.9372 -15.2812 198.8227)" class="st16" cx="544.3" cy="141.8" rx="2.2" ry="2.1"/>
					
						<ellipse transform="matrix(0.9362 -0.3515 0.3515 0.9362 -15.0465 200.3157)" class="st17" cx="544.2" cy="141.6" rx="1.9" ry="1.8"/>
					
						<rect x="556.6" y="169" transform="matrix(0.9362 -0.3515 0.3515 0.9362 -29.3101 208.802)" class="st16" width="7.6" height="32.2"/>
					
						<rect x="539" y="144" transform="matrix(0.9362 -0.3515 0.3515 0.9362 -22.7269 200.6465)" class="st25" width="4.5" height="37.8"/>
					
						<ellipse transform="matrix(0.9362 -0.3515 0.3515 0.9362 -17.1289 197.2922)" class="st24" cx="534.8" cy="145.8" rx="2.2" ry="2.1"/>
					
						<ellipse transform="matrix(0.9362 -0.3515 0.3515 0.9362 -16.9325 197.1771)" class="st16" cx="534.6" cy="145.2" rx="2.2" ry="2.1"/>
					
						<ellipse transform="matrix(0.9362 -0.3515 0.3515 0.9362 -16.9325 197.1771)" class="st17" cx="534.6" cy="145.2" rx="1.9" ry="1.8"/>
					
						<rect x="547.1" y="172.5" transform="matrix(0.9362 -0.3515 0.3515 0.9362 -31.1473 205.6758)" class="st16" width="7.6" height="32.2"/>
					
						<rect x="509" y="172" transform="matrix(0.9362 -0.3515 0.3515 0.9362 -28.1001 190.9414)" class="st24" width="5.7" height="1.7"/>
					
						<rect x="510.6" y="176.4" transform="matrix(0.9362 -0.3515 0.3515 0.9362 -29.5511 191.7869)" class="st24" width="5.7" height="1.7"/>
					
						<rect x="505.9" y="128.4" transform="matrix(0.9362 -0.3515 0.3515 0.9362 -19.7889 188.099)" class="st25" width="4.5" height="40.3"/>
					
						<ellipse transform="matrix(0.9362 -0.3515 0.3515 0.9362 -13.8096 184.5275)" class="st24" cx="501.3" cy="130.3" rx="2.2" ry="2.2"/>
					
						<ellipse transform="matrix(0.9372 -0.3489 0.3489 0.9372 -13.7678 182.9869)" class="st16" cx="501.1" cy="129.7" rx="2.2" ry="2.2"/>
					
						<ellipse transform="matrix(0.9362 -0.3515 0.3515 0.9362 -13.6096 184.4165)" class="st17" cx="501.1" cy="129.7" rx="1.9" ry="1.9"/>
					
						<rect x="514.6" y="158.8" transform="matrix(0.9362 -0.3515 0.3515 0.9362 -28.7733 193.4487)" class="st16" width="7.6" height="34.3"/>
					
						<rect x="496.4" y="132" transform="matrix(0.9362 -0.3515 0.3515 0.9362 -21.6564 184.9909)" class="st25" width="4.5" height="40.3"/>
					
						<ellipse transform="matrix(0.9362 -0.3515 0.3515 0.9362 -15.6466 181.4017)" class="st24" cx="491.8" cy="133.8" rx="2.2" ry="2.2"/>
					
						<ellipse transform="matrix(0.9362 -0.3515 0.3515 0.9362 -15.4651 181.26)" class="st16" cx="491.5" cy="133.2" rx="2.2" ry="2.2"/>
					<ellipse class="st17" cx="491.5" cy="133.2" rx="1.9" ry="1.9"/>
					
						<rect x="505.1" y="162.4" transform="matrix(0.9362 -0.3515 0.3515 0.9362 -30.6409 190.3407)" class="st16" width="7.6" height="34.3"/>
					
						<rect x="530.4" y="178.6" transform="matrix(0.9372 -0.3489 0.3489 0.9372 -29.1128 197.3342)" class="st24" width="5.7" height="1.7"/>
					
						<rect x="532" y="182.7" transform="matrix(0.9362 -0.3515 0.3515 0.9362 -30.3995 199.7075)" class="st24" width="5.7" height="1.7"/>
					
						<rect x="527.2" y="134.2" transform="matrix(0.9362 -0.3515 0.3515 0.9362 -20.5355 195.9657)" class="st25" width="4.5" height="40.7"/>
					
						<ellipse transform="matrix(0.9362 -0.3515 0.3515 0.9362 -14.4634 192.3309)" class="st24" cx="522.5" cy="136" rx="2.2" ry="2.2"/>
					
						<ellipse transform="matrix(0.9372 -0.3489 0.3489 0.9372 -14.4501 190.7759)" class="st16" cx="522.4" cy="135.5" rx="2.2" ry="2.2"/>
					
						<ellipse transform="matrix(0.9362 -0.3515 0.3515 0.9362 -14.3118 192.2084)" class="st17" cx="522.2" cy="135.5" rx="1.9" ry="1.9"/>
					
						<rect x="536" y="164.9" transform="matrix(0.9362 -0.3515 0.3515 0.9362 -29.6225 201.3687)" class="st16" width="7.6" height="34.7"/>
					
						<rect x="517.7" y="137.7" transform="matrix(0.9362 -0.3515 0.3515 0.9362 -22.3726 192.8398)" class="st25" width="4.5" height="40.7"/>
					
						<ellipse transform="matrix(0.9362 -0.3515 0.3515 0.9362 -16.3495 189.1927)" class="st24" cx="512.9" cy="139.6" rx="2.2" ry="2.2"/>
					
						<ellipse transform="matrix(0.9362 -0.3515 0.3515 0.9362 -16.1489 189.0821)" class="st16" cx="512.7" cy="139" rx="2.2" ry="2.2"/>
					
						<ellipse transform="matrix(0.9362 -0.3515 0.3515 0.9362 -16.1489 189.0821)" class="st17" cx="512.7" cy="139" rx="1.9" ry="1.9"/>
					
						<rect x="526.5" y="168.7" transform="matrix(0.9372 -0.3489 0.3489 0.9372 -31.6122 196.7317)" class="st16" width="7.7" height="34.8"/>
					
						<ellipse transform="matrix(4.205197e-02 -0.9991 0.9991 4.205197e-02 308.2024 708.7091)" class="st26" cx="523.7" cy="193.6" rx="26.4" ry="26.5"/>
					
						<ellipse transform="matrix(4.204823e-02 -0.9991 0.9991 4.204823e-02 308.2041 708.71)" class="st27" cx="523.7" cy="193.6" rx="25.7" ry="25.8"/>
					
						<ellipse transform="matrix(4.205075e-02 -0.9991 0.9991 4.205075e-02 308.203 708.7095)" cx="523.7" cy="193.6" rx="19.3" ry="19.4"/>
					
						<ellipse transform="matrix(4.205248e-02 -0.9991 0.9991 4.205248e-02 308.2021 708.7091)" class="st4" cx="523.7" cy="193.6" rx="18.4" ry="18.5"/>
					
						<ellipse transform="matrix(4.205075e-02 -0.9991 0.9991 4.205075e-02 308.203 708.7095)" class="st28" cx="523.7" cy="193.6" rx="17.4" ry="17.5"/>
					
						<ellipse transform="matrix(4.205075e-02 -0.9991 0.9991 4.205075e-02 308.203 708.7095)" class="st29" cx="523.7" cy="193.6" rx="10.8" ry="10.9"/>
					
						<ellipse transform="matrix(4.205075e-02 -0.9991 0.9991 4.205075e-02 308.203 708.7095)" class="st30" cx="523.7" cy="193.6" rx="9.9" ry="10"/>
					
						<ellipse transform="matrix(4.205075e-02 -0.9991 0.9991 4.205075e-02 403.3838 829.4255)" class="st26" cx="634.2" cy="204.4" rx="15.2" ry="15.3"/>
					
						<ellipse transform="matrix(4.205076e-02 -0.9991 0.9991 4.205076e-02 403.3838 829.4255)" class="st27" cx="634.2" cy="204.4" rx="14.8" ry="14.8"/>
					
						<ellipse transform="matrix(4.205075e-02 -0.9991 0.9991 4.205075e-02 403.3838 829.4255)" cx="634.2" cy="204.4" rx="11.1" ry="11.2"/>
					
						<ellipse transform="matrix(4.205075e-02 -0.9991 0.9991 4.205075e-02 403.3838 829.4255)" class="st4" cx="634.2" cy="204.4" rx="10.6" ry="10.6"/>
					
						<ellipse transform="matrix(4.205075e-02 -0.9991 0.9991 4.205075e-02 403.3838 829.4255)" class="st28" cx="634.2" cy="204.4" rx="10" ry="10.1"/>
					
						<ellipse transform="matrix(3.996808e-02 -0.9992 0.9992 3.996808e-02 404.7823 829.3544)" class="st29" cx="634" cy="204" rx="6.2" ry="6.3"/>
					
						<ellipse transform="matrix(4.205076e-02 -0.9991 0.9991 4.205076e-02 403.3838 829.4255)" class="st30" cx="634.2" cy="204.4" rx="5.7" ry="5.7"/>
				</g>
			</g>
		</g>
		<g>
			<path class="st23" d="M575.7,193.7c-4.4-3.7-6.2-9-3.9-11.9c-0.7,0.3-1.4,0.7-1.8,1.3c-2.4,2.8-0.7,8.2,3.8,12s10.1,4.5,12.5,1.7
				l0.1-0.1C583.6,197.8,579.3,196.7,575.7,193.7z"/>
			<path class="st31" d="M583.7,184c-4.5-3.8-10.1-4.5-12.5-1.7l-0.1,0.1c2.8-1.1,7.1,0,10.6,3c4.4,3.7,6.2,9,3.9,11.9
				c0.7-0.3,1.4-0.7,1.8-1.3C590,193.2,588.3,187.8,583.7,184z"/>
		</g>
		<g class="st32">
			<path class="st33" d="M572.6,181.7c1.7-0.1,2.1-0.4,3-0.5c-0.3,0,0.3,0.9,0.6,1s2.6,0.2,2.9,0c0.5-0.3,0.9,1.2,1.2,1.4
				c0.2,0.2,1.8,0.1,1.7,0.3c0,0-1.9,0.3-0.2,1c2.2,0.8,1,0.3,2.3,1.8c0.5,0.6,1,1.4,1.6,1.6c0.3,0.1,0.8,0,1.1,0.1
				c0.1,0.4,0.7,1,0.8,1.4c-0.1,0.3-1.2-0.3-1.2,0c0.3,0.5,1.5,1.6,0.9,2.2l0.9,1.6l-1.1,1.9"/>
			<line class="st33" x1="577" y1="181.7" x2="578.8" y2="182.8"/>
			<line class="st33" x1="582.9" y1="185.8" x2="585.1" y2="186.6"/>
		</g>
	</g>
</g>
<g id="Layer_2_2_">
	<g>
		<path class="st4" d="M594,94.1c-3-16.5-17.4-28.9-34.7-28.9c-4.8,0-9.4,1-13.6,2.7c-6.8-9.6-17.9-15.8-30.5-15.8
			c-12.7,0-23.9,6.3-30.6,16c-4.7-3.3-10.3-5.3-16.5-5.3c-15.7,0-28.5,12.7-28.5,28.5c0,0.9,0,1.9,0.1,2.8
			C439.7,94.1,594,94.1,594,94.1z"/>
	</g>
	<g>
		<path class="st4" d="M230.1,51c2.2-12.1,12.8-21.4,25.6-21.4c3.6,0,7,0.7,10,2c5-7.1,13.2-11.7,22.5-11.7
			c9.4,0,17.6,4.7,22.6,11.8c3.4-2.4,7.6-3.9,12.2-3.9c11.6,0,21,9.4,21,21c0,0.7,0,1.4-0.1,2.1L230.1,51L230.1,51z"/>
	</g>
	<g>
		<path class="st4" d="M92.3,62.7c-6.2,0-11.8,2-16.5,5.3c-6.7-9.7-17.9-16-30.6-16c-12.6,0-23.7,6.2-30.5,15.8
			c-4.2-1.8-8.8-2.7-13.6-2.7c-0.4,0-0.7,0-1.1,0V94h120.6c0.1-0.9,0.1-1.9,0.1-2.8C120.8,75.5,108,62.7,92.3,62.7z"/>
	</g>
</g>
</svg>
