<?xml version="1.0" encoding="utf-8"?>
<!-- Generator: Adobe Illustrator 25.0.1, SVG Export Plug-In . SVG Version: 6.00 Build 0)  -->
<svg version="1.1" xmlns="http://www.w3.org/2000/svg" xmlns:xlink="http://www.w3.org/1999/xlink" x="0px" y="0px"
	 viewBox="0 0 800 250" style="enable-background:new 0 0 800 250;" xml:space="preserve">
<style type="text/css">
	.st0{fill:#212121;}
	.st1{fill:#3F3F3F;}
	.st2{fill:#444444;}
	.st3{fill:#155418;}
	.st4{fill:#303030;}
	.st5{fill:#D3D3D3;}
	.st6{fill:#C6EFEF;}
	.st7{fill:#88B8A4;}
	.st8{fill:#6CA082;}
	.st9{fill:#6FA386;}
	.st10{fill:#87B8A3;}
	.st11{fill:#FFFFFF;}
	.st12{opacity:0.48;}
	.st13{fill:#3A3A3A;}
	.st14{fill:#CDCDCD;}
	.st15{fill:#747474;}
	.st16{opacity:0.9;fill:#F9FF00;}
	.st17{opacity:0.76;fill:#F9FF00;}
	.st18{opacity:0.63;fill:#F9FF00;}
	.st19{opacity:0.56;fill:#F9FF00;}
	.st20{opacity:0.38;fill:#F9FF00;}
	.st21{fill:#9D9D9D;}
	.st22{fill:#181818;}
	.st23{fill:#FF0303;}
	.st24{fill:#8E2424;}
	.st25{fill:#B5F6F9;}
	.st26{fill:#C01515;}
	.st27{fill:#464656;}
	.st28{fill:#121212;}
	.st29{fill:#DDDDDD;}
	.st30{fill:#ACAEBB;}
	.st31{fill:#B9C0D7;}
	.st32{fill:#FF0000;}
	.st33{opacity:0.47;fill:url(#SVGID_1_);enable-background:new    ;}
</style>
<g id="Layer_2">
	<rect class="st0" width="800" height="250"/>
</g>
<g id="Layer_1">
	<rect x="777.1" y="227.3" class="st1" width="5.7" height="5.7"/>
	<g>
		<path class="st2" d="M245.7,215.9c0-2.1,0-4.3,0-5.7v-5.7H240c0-2.1,0-4.2,0-5.6h-5.7v-5.7v-5.7h-5.7v5.7h0v-5.7v-5.7h-5.7v5.7
			h-0.1v-5.7h-5.7v5.7h0v-5.7h-5.7h-5.7H200h-5.7c-1.6,0-3.7,0-5.7,0v-5.7h-5.7v5.7c0,0-0.1,0-0.1,0v-5.7c-3,0-8.3,0-11.4,0v5.7
			h-5.7v5.7H160c0,3.3,0,7.5,0,11.4h-5.7v5.6v0.1v5.6h-5.7c0,2.8,0,8.6,0,11.4c32.3,0,64.8,0,97.1,0h5.7v-5.7H245.7z"/>
		<rect x="142.9" y="215.9" class="st2" width="5.7" height="5.7"/>
	</g>
	<rect x="222.9" y="159.1" class="st3" width="5.7" height="5.7"/>
	<path class="st4" d="M400,210.2c0-7.1,0-15.6,0-22.7h-5.7c0-2.8,0-8.6,0-11.4h-5.7v-5.6v-5.7h-5.7v5.7c0,0-0.1,0-0.1,0v-5.7h-5.7
		h-5.7v5.7c-3.9,0-7.7,0-11.4,0h-5.7h0h-5.7h-5.7v5.6c0,0-0.1,0-0.1,0v-5.6c-5.3,0-11.4,0-17.1,0v-5.7H320c-1.4,0-3.6,0-5.7,0v-5.7
		h-5.7v-5.7h-5.7v5.7v5.7h-5.8h-5.7v5.7h-5.7v5.6c-2.1,0-4.3,0-5.7,0h-5.7v5.7c-13.3,0-26.9,0-40,0v-5.7c-3.6,0-7.6,0-11.5,0v-5.6
		h-5.7v5.6v0.1v5.6c3.2,0,8.3,0,11.5,0v5.7h5.7c0,2.8,0,8.6,0,11.4h5.7v5.7h5.7c0,2.8,0,8.5,0,11.3h5.7v5.7c51.4,0,102.9,0,154.3,0
		c0-2.8,0-8.6,0-11.4H400z"/>
	<path class="st5" d="M211.4,176.1h-5.7v-5.6c-2.8,0-8.6,0-11.4,0v-5.7c-3.6,0-7.6,0-11.5,0v-5.7h-5.7v5.7h0v-5.7
		c-3.8,0-7.6,0-11.4,0v-5.7H160h-5.7h-5.7v5.7c0,0,0,0,0,0v-5.7h-5.7v5.7c-3.9,0-7.7,0-11.5,0h-5.7v5.7c-3.9,0-8.1,0-11.4,0h-5.7
		v5.7c-2.1,0-4.3,0-5.7,0v5.6c0,0-0.1,0-0.1,0v-5.6h-5.7v5.6c-2.1,0-4.3,0-5.7,0v5.7h-5.7H80v5.7v5.7h-5.7c0,1.4,0,3.6,0,5.7h-5.7
		v5.6v0.1c0,1.4,0,3.5,0,5.6h-5.7v5.7v5.7c26.5,0,53.4,0,79.9,0v-5.7h5.8v-5.7h5.7c0-2.8,0-8.5,0-11.3h5.7c0-2.8,0-8.6,0-11.4h5.7
		v-5.7h5.7v-5.6c5.4,0,11.8,0,17.2,0v5.6c9.1,0,19.4,0,28.5,0v-5.7H211.4z"/>
	<path class="st5" d="M377.1,159.1v-5.7h-5.7v-5.7h-5.7V142c-2.8,0-8.6,0-11.4,0v-5.6c-2.9,0-8.6,0-11.5,0v-5.7c-5.1,0-12,0-17.1,0
		V125c-15,0-30.7,0-45.7,0v5.7c-5.1,0-12,0-17.1,0v5.7c-2.9,0-8.6,0-11.5,0v5.6c-2.8,0-8.6,0-11.4,0v5.7h-5.7v5.7h-5.7
		c0,2.8,0,8.6,0,11.4h-5.7c0,2.8,0,8.6,0,11.4c3.2,0,8.2,0,11.4,0v5.6c13.1,0,26.9,0,40,0v-5.6c2.8,0,8.6,0,11.4,0v-5.7h5.7v-5.7
		c2.8,0,8.6,0,11.4,0c0-2.8,0-8.6,0-11.4h5.8v5.7h5.7v5.7c2.8,0,8.6,0,11.4,0v5.7c15,0,30.7,0,45.7,0v-5.7c2.8,0,8.6,0,11.4,0v-5.7
		H377.1z"/>
	<line class="st6" x1="320" y1="125" x2="314.3" y2="125"/>
	<line class="st7" x1="314.3" y1="125" x2="308.6" y2="125"/>
	<line class="st8" x1="308.6" y1="125" x2="302.9" y2="125"/>
	<line class="st9" x1="302.8" y1="125" x2="297.1" y2="125"/>
	<line class="st10" x1="297.1" y1="125" x2="291.4" y2="125"/>
	<g>
		<polygon class="st2" points="777.1,90.9 771.4,90.9 771.4,96.6 771.4,102.3 771.4,108 771.4,113.6 771.4,113.7 771.4,119.3 
			771.4,125 771.4,130.7 771.4,136.4 771.4,142 771.4,142.1 771.4,147.7 771.4,153.4 771.4,159.1 771.4,164.8 771.4,170.5 
			771.4,176.1 771.4,176.2 771.4,181.8 771.4,187.5 771.4,193.2 771.4,198.9 771.4,204.5 771.4,204.6 771.4,210.2 771.4,215.9 
			771.4,221.6 771.4,227.3 777.1,227.3 777.1,227.3 782.8,227.3 782.8,221.6 782.8,215.9 782.8,210.2 782.8,204.6 782.8,204.5 
			782.8,198.9 782.8,193.2 782.8,187.5 782.8,181.8 782.8,176.2 782.8,176.1 782.8,170.5 782.8,164.8 782.8,159.1 782.8,153.4 
			782.8,147.7 782.8,142.1 782.8,142 782.8,136.4 782.8,130.7 782.8,125 782.8,119.3 782.8,113.7 782.8,113.6 782.8,108 
			782.8,102.3 782.8,96.6 782.8,90.9 777.1,90.9 		"/>
		<polygon class="st2" points="777.1,73.9 771.4,73.9 771.4,79.5 771.4,79.6 771.4,85.2 771.4,90.9 777.1,90.9 777.1,90.9 
			782.8,90.9 782.8,85.2 782.8,79.6 782.8,79.5 782.8,73.9 777.1,73.9 		"/>
		<polygon class="st2" points="777.1,28.4 777.1,28.4 771.4,28.4 771.4,34.1 771.4,39.8 771.4,45.5 771.4,51.1 771.4,51.2 
			771.4,56.8 771.4,62.5 771.4,68.2 771.4,73.9 777.1,73.9 777.1,73.9 782.8,73.9 782.8,68.2 782.8,62.5 782.8,56.8 782.8,51.2 
			782.8,51.1 782.8,45.5 782.8,39.8 782.8,34.1 782.8,28.4 		"/>
		<path class="st2" d="M565.7,28.4H560c0,14.9,0,30.6,0,45.5h0l0,0c0,5.1,0,11.9,0,17l0,0h0c0,43.5,0,87.2,0,130.7
			c2.8,0,8.6,0,11.4,0c0-43.5,0-87.2,0-130.7h0l0,0c0-5.1,0-11.9,0-17l0,0h0c0-14.9,0-30.6,0-45.5H565.7z"/>
	</g>
	<g>
		<path class="st11" d="M725.7,221.6c-30.4,0-61,0-91.4,0v5.7c32.3,0,64.8,0,97.1,0v-5.7H725.7z"/>
		<path class="st11" d="M520,221.6c-30.4,0-61,0-91.4,0v5.7c32.3,0,64.8,0,97.1,0v-5.7H520z"/>
		<path class="st11" d="M314.3,221.6c-30.4,0-61,0-91.4,0v5.7c32.3,0,64.8,0,97.1,0v-5.7H314.3z"/>
		<path class="st11" d="M108.6,221.6c-32.3,0-64.9,0-97.2,0v5.7c34.2,0,68.7,0,102.9,0v-5.7H108.6z"/>
	</g>
	<g class="st12">
		<g>
			<polygon class="st13" points="222.9,233 222.9,238.6 222.9,238.7 222.9,244.3 222.9,250 228.6,250 228.6,244.3 228.6,238.7 
				228.6,238.6 228.6,233 228.6,227.3 222.9,227.3 			"/>
			<polygon class="st13" points="205.7,221.6 200,221.6 194.3,221.6 188.6,221.6 188.6,227.3 188.6,233 188.6,238.6 188.6,238.7 
				188.6,244.3 188.6,250 194.3,250 200,250 205.7,250 211.4,250 217.1,250 217.1,244.3 217.1,238.7 217.1,238.6 217.1,233 
				217.1,227.3 217.1,221.6 211.4,221.6 			"/>
			<polygon class="st13" points="177.1,227.3 177.1,233 177.1,238.6 177.1,238.7 177.1,244.3 177.1,250 182.8,250 182.8,244.3 
				182.8,238.7 182.8,238.6 182.8,233 182.8,227.3 182.8,221.6 177.1,221.6 			"/>
			<polygon class="st13" points="142.9,227.3 142.9,233 142.9,238.6 142.9,238.7 142.9,244.3 142.9,250 148.6,250 148.6,244.3 
				148.6,238.7 148.6,238.6 148.6,233 148.6,227.3 148.6,221.6 142.9,221.6 			"/>
			<polygon class="st13" points="137.1,227.3 137.1,233 137.1,238.6 137.1,238.7 137.1,244.3 137.1,250 142.8,250 142.8,244.3 
				142.8,238.7 142.8,238.6 142.8,233 142.8,227.3 142.8,221.6 137.1,221.6 			"/>
		</g>
	</g>
	<g id="Layer_8">
	</g>
	<g id="Layer_9">
	</g>
	<rect x="162.8" y="22.3" class="st14" width="5.7" height="5.7"/>
	<rect x="162.8" y="16.6" class="st15" width="5.7" height="5.7"/>
	<rect x="405.7" y="88.5" class="st14" width="5.7" height="5.7"/>
	<rect x="405.7" y="82.8" class="st15" width="5.7" height="5.7"/>
	<rect x="513.7" y="22.7" class="st14" width="5.7" height="5.7"/>
	<rect x="513.7" y="17" class="st15" width="5.7" height="5.7"/>
	<rect x="16.9" y="120.6" class="st14" width="5.7" height="5.7"/>
	<rect x="16.9" y="114.9" class="st15" width="5.7" height="5.7"/>
	<rect x="245.7" y="73.9" class="st14" width="5.7" height="5.7"/>
	<rect x="245.7" y="68.2" class="st15" width="5.7" height="5.7"/>
</g>
<g id="Layer_10">
	<rect x="642.9" y="175.9" class="st16" width="8.8" height="16.5"/>
	<rect x="651.7" y="172.8" class="st17" width="8.8" height="22.8"/>
	<rect x="660.5" y="170" class="st18" width="8.8" height="28.3"/>
	<rect x="669.3" y="166.9" class="st19" width="8.8" height="34.6"/>
	<rect x="678.1" y="163.9" class="st20" width="8.8" height="40.5"/>
</g>
<g id="CAR">
	<g>
		<g>
			<g>
				<polygon class="st21" points="642.9,180.8 642.9,175.9 624.7,175.9 624.7,180.8 619.7,180.8 619.7,199.7 646.2,199.7 
					646.2,180.8 				"/>
				<rect x="639.5" y="175.9" class="st22" width="3.4" height="3.4"/>
				<path class="st23" d="M664.3,202.2v-3.3h-5.2v-1.6h-4.7v-1.7h-3.6V194h-4.7v-1.6h-5v-1.7h-3.3v-1.6h-11v-3.3h-10.4v-1.7h-8.3
					v-1.6h-4.8v-1.7h-25v-1.6h-11.5h-1.6c0,0,0-1.7,0-1.7c-7.2,0-14.3,0-21.5,0v-1.6l-1.7,0c0-1.5,0-3.5,0-4.9l-1.6,0
					c0-2,0-4.6,0-6.6h-1.6v-1.6c0.6,0,1.2,0,1.6,0v0h1.7c0-0.1,0-1.7,0-1.8h1.6v-1.5c0.6,0,1.3,0,1.7,0c0-0.9,0-2.4,0-3.4
					c-3.8,0-7.8,0-11.6,0l0,0v-1.6c-3.8,0-7.7,0-11.5,0v-1.7c-2.1,0-4.5,0-6.6,0v-1.6c-1.2,0-6.8,0-10,0v-0.3h-1.6v-1.4h-1.7h-1.6
					h-0.1h-1.6v-1.6h-0.8v-0.1h-9.1v57.7h9.1v0h31.2v-3.4h1.1v0c10.8,0,21.7,0,32.6,0v7.5h45.9v2.5h27.7h2.9h24.7v-3.3h1.7v-6.6
					H664.3z"/>
				<g>
					<g>
						<polygon class="st22" points="500.9,129.8 500.8,129.8 499.2,129.8 499.2,131.4 499.2,131.4 499.2,133.1 500.8,133.1 
							500.9,133.1 502.5,133.1 502.5,131.4 502.5,131.4 502.5,129.8 						"/>
						<path class="st21" d="M529,197.2c0-1.5,0-3.4,0-4.9h-1.7c0-1.5,0-3.4,0-4.9h-1.6v-1.8h0.1V184h-1.7c0-1.5,0-3.4,0-4.9
							c-0.1,0-1.6,0-1.7,0v-1.6h-1.7c0-2.1,0-4.5,0-6.6h-1.6c0-2.1,0-4.5,0-6.6c-0.8,0-2.5,0-3.3,0v-1.8h-1.7V161h-1.6
							c0-1.5,0-3.4,0-4.9h-1.7c0-2.7,0-5.5,0-8.2h-1.7v-1.6h-1.6c0-1.5,0-3.5,0-4.9h-1.7c0-2.1,0-4.5,0-6.6h-1.6v-1.6
							c-1.5,0-3.5,0-5,0c0-0.8,0-2.5,0-3.3h-1.7c0,1.5,0,3.5,0,4.9h1.7c0,1.5,0,3.5,0,4.9h1.6c0,0.8,0,2.5,0,3.3h1.7
							c0,1.5,0,3.5,0,4.9h1.6c0,0.8,0,2.4,0,3.2h1.7c0,1.6,0,3.4,0,5h1.6c0,1.5,0,3.4,0,4.9h1.7c0,3.2,0,6.7,0,9.9l1.7,0
							c0,1.5,0,3.4,0,4.9h1.6c0,1,0,3.3,0,4.3h0.1v0.6h1.7c0,1.1,0,4.2,0,5.3h1.5c0,0.8,0,2.2,0,3h1.7c0,0.8,0,2.5,0,3.3h1.6
							c0,1.5,0,3.5,0,5h1.7c0,1.4,0,3.4,0,4.9h1.6v1.6h1.7v-1.6c1.5,0,3.5,0,5,0v-1.6h1.6c0-0.8,0-2.6,0-3.4H529z M522.4,182.4
							L522.4,182.4C522.3,182.3,522.4,182.3,522.4,182.4L522.4,182.4z"/>
					</g>
					<g>
						<polygon class="st22" points="486.8,129.4 486.7,129.4 485.1,129.4 485.1,131 485.1,131 485.1,132.7 486.7,132.7 486.8,132.7 
							488.4,132.7 488.4,131 488.4,131 488.4,129.4 						"/>
						<path class="st21" d="M514.9,196.8c0-1.5,0-3.4,0-4.9h-1.7c0-1.5,0-3.4,0-4.9h-1.6v-1.8h0.1v-1.6H510c0-1.5,0-3.4,0-4.9
							c-0.1,0-1.6,0-1.7,0v-1.6h-1.7c0-2.1,0-4.5,0-6.6H505c0-2.1,0-4.5,0-6.6c-0.8,0-2.5,0-3.3,0v-1.8H500v-1.5h-1.6
							c0-1.5,0-3.4,0-4.9h-1.7c0-2.7,0-5.5,0-8.2H495v-1.6h-1.6c0-1.5,0-3.5,0-4.9h-1.7c0-2.1,0-4.5,0-6.6h-1.6v-1.6
							c-1.5,0-3.5,0-5,0c0-0.8,0-2.5,0-3.3h-1.7c0,1.5,0,3.5,0,4.9h1.7c0,1.5,0,3.5,0,4.9h1.6c0,0.8,0,2.5,0,3.3h1.7
							c0,1.5,0,3.5,0,4.9h1.6c0,0.8,0,2.4,0,3.2h1.7c0,1.6,0,3.4,0,5h1.6c0,1.5,0,3.4,0,4.9h1.7c0,3.2,0,6.7,0,9.9l1.7,0
							c0,1.5,0,3.4,0,4.9h1.6c0,1,0,3.3,0,4.3h0.1v0.6h1.7c0,1.1,0,4.2,0,5.3h1.5c0,0.8,0,2.2,0,3h1.7c0,0.8,0,2.5,0,3.3h1.6
							c0,1.5,0,3.5,0,5h1.7c0,1.4,0,3.4,0,4.9h1.6v1.6h1.7v-1.6c1.5,0,3.5,0,5,0v-1.6h1.6c0-0.8,0-2.6,0-3.4H514.9z M508.3,182
							L508.3,182C508.2,181.9,508.3,181.9,508.3,182L508.3,182z"/>
					</g>
					<g>
						<polygon class="st22" points="475.2,122.8 475.1,122.8 473.5,122.8 473.5,124.4 473.5,124.4 473.5,126.1 475.1,126.1 
							475.2,126.1 476.8,126.1 476.8,124.4 476.8,124.4 476.8,122.8 						"/>
						<path class="st21" d="M503.3,190.2c0-1.5,0-3.4,0-4.9h-1.7c0-1.5,0-3.4,0-4.9H500v-1.8h0.1V177h-1.7c0-1.5,0-3.4,0-4.9
							c-0.1,0-1.6,0-1.7,0v-1.6H495c0-2.1,0-4.5,0-6.6h-1.6c0-2.1,0-4.5,0-6.6c-0.8,0-2.5,0-3.3,0v-1.8h-1.7V154h-1.6
							c0-1.5,0-3.4,0-4.9h-1.7c0-2.7,0-5.5,0-8.2h-1.7v-1.6h-1.6c0-1.5,0-3.5,0-4.9h-1.7c0-2.1,0-4.5,0-6.6h-1.6v-1.6
							c-1.5,0-3.5,0-5,0c0-0.8,0-2.5,0-3.3h-1.7c0,1.5,0,3.5,0,4.9h1.7c0,1.5,0,3.5,0,4.9h1.6c0,0.8,0,2.5,0,3.3h1.7
							c0,1.5,0,3.5,0,4.9h1.6c0,0.8,0,2.4,0,3.2h1.7c0,1.6,0,3.4,0,5h1.6c0,1.5,0,3.4,0,4.9h1.7c0,3.2,0,6.7,0,9.9l1.7,0
							c0,1.5,0,3.4,0,4.9h1.6c0,1,0,3.3,0,4.3h0.1v0.6h1.7c0,1.1,0,4.2,0,5.3h1.5c0,0.8,0,2.2,0,3h1.7c0,0.8,0,2.5,0,3.3h1.6
							c0,1.5,0,3.5,0,5h1.7c0,1.4,0,3.4,0,4.9h1.6v1.6h1.7v-1.6c1.5,0,3.5,0,5,0v-1.6h1.6c0-0.8,0-2.6,0-3.4H503.3z M496.7,175.4
							L496.7,175.4C496.6,175.3,496.7,175.3,496.7,175.4L496.7,175.4z"/>
					</g>
					<g>
						<polygon class="st22" points="463.6,127.7 463.5,127.7 461.9,127.7 461.9,129.3 461.9,129.3 461.9,131 463.5,131 463.6,131 
							465.2,131 465.2,129.3 465.2,129.3 465.2,127.7 						"/>
						<path class="st21" d="M491.7,195.1c0-1.5,0-3.4,0-4.9H490c0-1.5,0-3.4,0-4.9h-1.6v-1.8h0.1v-1.6h-1.7c0-1.5,0-3.4,0-4.9
							c-0.1,0-1.6,0-1.7,0v-1.6h-1.7c0-2.1,0-4.5,0-6.6h-1.6c0-2.1,0-4.5,0-6.6c-0.8,0-2.5,0-3.3,0v-1.8h-1.7v-1.5h-1.6
							c0-1.5,0-3.4,0-4.9h-1.7c0-2.7,0-5.5,0-8.2h-1.7v-1.6h-1.6c0-1.5,0-3.5,0-4.9h-1.7c0-2.1,0-4.5,0-6.6h-1.6V131
							c-1.5,0-3.5,0-5,0c0-0.8,0-2.5,0-3.3h-1.7c0,1.5,0,3.5,0,4.9h1.7c0,1.5,0,3.5,0,4.9h1.6c0,0.8,0,2.5,0,3.3h1.7
							c0,1.5,0,3.5,0,4.9h1.6c0,0.8,0,2.4,0,3.2h1.7c0,1.6,0,3.4,0,5h1.6c0,1.5,0,3.4,0,4.9h1.7c0,3.2,0,6.7,0,9.9l1.7,0
							c0,1.5,0,3.4,0,4.9h1.6c0,1,0,3.3,0,4.3h0.1v0.6h1.7c0,1.1,0,4.2,0,5.3h1.5c0,0.8,0,2.2,0,3h1.7c0,0.8,0,2.5,0,3.3h1.6
							c0,1.5,0,3.5,0,5h1.7c0,1.4,0,3.4,0,4.9h1.6v1.6h1.7v-1.6c1.5,0,3.5,0,5,0v-1.6h1.6c0-0.8,0-2.6,0-3.4H491.7z M485.1,180.3
							L485.1,180.3C485,180.2,485.1,180.2,485.1,180.3L485.1,180.3z"/>
					</g>
					<g>
						<polygon class="st22" points="449.8,115.7 449.6,115.7 448,115.7 448,117.3 448,117.3 448,119 449.6,119 449.8,119 451.3,119 
							451.3,117.3 451.3,117.3 451.3,115.7 						"/>
						<path class="st21" d="M477.8,183.1c0-1.5,0-3.4,0-4.9h-1.7c0-1.5,0-3.4,0-4.9h-1.6v-1.8h0.1v-1.6h-1.7c0-1.5,0-3.4,0-4.9
							c-0.1,0-1.6,0-1.7,0v-1.6h-1.7c0-2.1,0-4.5,0-6.6H468c0-2.1,0-4.5,0-6.6c-0.8,0-2.5,0-3.3,0v-1.8H463v-1.5h-1.6
							c0-1.5,0-3.4,0-4.9h-1.7c0-2.7,0-5.5,0-8.2H458v-1.6h-1.6c0-1.5,0-3.5,0-4.9h-1.7c0-2.1,0-4.5,0-6.6H453V119c-1.5,0-3.5,0-5,0
							c0-0.8,0-2.5,0-3.3h-1.7c0,1.5,0,3.5,0,4.9h1.7c0,1.5,0,3.5,0,4.9h1.6c0,0.8,0,2.5,0,3.3h1.7c0,1.5,0,3.5,0,4.9h1.6
							c0,0.8,0,2.4,0,3.2h1.7c0,1.6,0,3.4,0,5h1.6c0,1.5,0,3.4,0,4.9h1.7c0,3.2,0,6.7,0,9.9l1.7,0c0,1.5,0,3.4,0,4.9h1.6
							c0,1,0,3.3,0,4.3h0.1v0.6h1.7c0,1.1,0,4.2,0,5.3h1.5c0,0.8,0,2.2,0,3h1.7c0,0.8,0,2.5,0,3.3h1.6c0,1.5,0,3.5,0,5h1.7
							c0,1.4,0,3.4,0,4.9h1.6v1.6h1.7v-1.6c1.5,0,3.5,0,5,0v-1.6h1.6c0-0.8,0-2.6,0-3.4H477.8z M471.2,168.3L471.2,168.3
							C471.1,168.2,471.2,168.2,471.2,168.3L471.2,168.3z"/>
					</g>
					<g>
						<polygon class="st22" points="438.2,119 438.1,119 436.5,119 436.5,120.6 436.5,120.6 436.5,122.3 438.1,122.3 438.2,122.3 
							439.8,122.3 439.8,120.6 439.8,120.6 439.8,119 						"/>
						<path class="st21" d="M466.3,186.4c0-1.5,0-3.4,0-4.9h-1.7c0-1.5,0-3.4,0-4.9H463v-1.8h0.1v-1.6h-1.7c0-1.5,0-3.4,0-4.9
							c-0.1,0-1.6,0-1.7,0v-1.6H458c0-2.1,0-4.5,0-6.6h-1.6c0-2.1,0-4.5,0-6.6c-0.8,0-2.5,0-3.3,0v-1.8h-1.7v-1.5h-1.6
							c0-1.5,0-3.4,0-4.9h-1.7c0-2.7,0-5.5,0-8.2h-1.7v-1.6h-1.6c0-1.5,0-3.5,0-4.9h-1.7c0-2.1,0-4.5,0-6.6h-1.6v-1.6
							c-1.5,0-3.5,0-5,0c0-0.8,0-2.5,0-3.3h-1.7c0,1.5,0,3.5,0,4.9h1.7c0,1.5,0,3.5,0,4.9h1.6c0,0.8,0,2.5,0,3.3h1.7
							c0,1.5,0,3.5,0,4.9h1.6c0,0.8,0,2.4,0,3.2h1.7c0,1.6,0,3.4,0,5h1.6c0,1.5,0,3.4,0,4.9h1.7c0,3.2,0,6.7,0,9.9l1.7,0
							c0,1.5,0,3.4,0,4.9h1.6c0,1,0,3.3,0,4.3h0.1v0.6h1.7c0,1.1,0,4.2,0,5.3h1.5c0,0.8,0,2.2,0,3h1.7c0,0.8,0,2.5,0,3.3h1.6
							c0,1.5,0,3.5,0,5h1.7c0,1.4,0,3.4,0,4.9h1.6v1.6h1.7v-1.6c1.5,0,3.5,0,5,0v-1.6h1.6c0-0.8,0-2.6,0-3.4H466.3z M459.7,171.6
							L459.7,171.6C459.6,171.5,459.7,171.5,459.7,171.6L459.7,171.6z"/>
					</g>
				</g>
				<path class="st24" d="M659.4,210.6v-1.8h-21.5v-1.6h-27.5v-6.7h-2.2v-3.3h-1.7v-3.3h-1.6v-1.6h-1.6v-1.5v-1.7v-1.7h-1.7v-3.3
					h-1.7v-1.7h-1.6v-1.6h-5v4.9h1.7v3.4h1.6v3.2h1.7v1.7h1.6v3.3h1.7v3.2h1.7v6.7h-6.1v-6.7H595v-3.3h-1.7v-3.3h-1.6v-1.6h-1.6
					v-1.5v-1.7v-1.7h-1.7v-3.3h-1.7v-1.7h-1.6v-1.6h-5v4.9h1.7v3.4h1.6v3.2h1.7v1.7h1.6v3.3h1.7v3.2h1.7v4.8h-1.7
					c-0.8,0-2.5,0-3.3,0v-1.6h-1.7v-1.5h-1.6c0-0.5,0-1.5,0-2.3v-1v-1.6h-1.7c0-1.1,0-2.4,0-3.3h-1.6v-1.6h-1.7c0-1.5,0-3.4,0-4.9
					h-1.6v-1.6h-1.7c0-0.7,0-2,0-2.9v-0.4v-1.7h-1.6c0-0.6,0-1.2,0-1.6c-1.5,0-3.5,0-5,0c0,1.5,0,3.4,0,4.9h1.6c0,0.9,0,2.4,0,3.3
					h1.7c0,0.8,0,2.5,0,3.3h1.6c0,0.8,0,2.4,0,3.2h1.7c0,0.8,0,2.5,0,3.3h1.6v1.6h1.7c0,0.8,0,2.5,0,3.3h0.1l-0.1,0v1.5
					c-4.3,0-8.9,0-13.2,0V202c-11.4,0-22.9,0-34.3,0c-1.8,0-3.5,0-5.3,0h-1.6c-0.8,0-2.6,0-3.4,0h-13.2v0.2h0v1.7v0.9v0.7v1.5
					c-0.6,0-1.1,0-1.7,0c0,0.8,0,2.4,0,3.2c11,0,22.1,0,33.1,0v1.9h1.6h0.1h1.6h1.6h0.1h1.6h1.6h0.1h1.6h0h1.6h0.1h1.6h1.6h0.1h1.6
					v1.6h1.6h0.1h1.6h1.6h0.1h1.6h1.6h0.1h1.6h0h1.6h0.1h1.6h1.6h0.1h1.6h1.6h0.1h1.6h1.6h0.1h1.6h1.6h0.1h1.6h0h1.6h0.1h1.6h1.6
					h0.1h1.6h1.7v1.7h0.6h1.1h1.6H623v1.6h18.2v1.7h23.1V217h1.7v-6.4H659.4z"/>
				<g>
					<polygon class="st24" points="555.4,171 555.4,166.1 553.7,166.1 553.7,164.4 542.1,164.4 542.1,177.6 549.4,177.6 
						553.7,177.6 557,177.6 557,171 					"/>
					<rect x="543.8" y="171" class="st25" width="1.7" height="1.6"/>
					<polygon class="st26" points="547.1,169.4 547.1,171 545.4,171 545.4,172.7 545.4,173.6 545.4,174.3 545.4,175.9 543.8,175.9 
						543.8,177.5 545.4,177.5 545.5,177.5 547.1,177.5 548,177.5 548.8,177.5 548.8,176.9 548.8,176 548.8,175.3 548.8,174.3 
						548.8,173.6 548.8,172.7 548.8,172 548.8,171 548.8,169.4 					"/>
					<polygon class="st25" points="555.4,171 553.7,171 553.7,169.4 552.1,169.4 552.1,169.4 552.1,169.4 552.1,169.3 552.1,167.7 
						550.4,167.7 548.7,167.7 548.7,169.4 548.7,169.9 548.7,171 550.4,171 550.4,172.6 552,172.6 552,172.7 552,174.3 553.7,174.3 
						553.7,175.1 553.7,175.9 555.4,175.9 555.4,174.3 555.4,172.7 555.4,172.6 555.4,172.6 					"/>
					<polygon class="st23" points="545.5,167.7 545.5,166 544.8,166 543.8,166 542.1,166 542.1,167.7 543.8,167.7 543.8,168.7 
						543.8,169.3 545.4,169.3 545.4,169.4 545.4,170.3 545.4,171 547.1,171 547.1,170.3 547.1,169.4 547.1,167.7 					"/>
				</g>
			</g>
		</g>
		<g>
			<polygon class="st27" points="505.8,185.7 505.8,180.7 505.8,180.7 505.7,180.7 504.2,180.7 504.2,179.1 502.5,179.1 
				502.5,175.8 500.8,175.8 500.8,174.3 499.2,174.3 499.2,172.5 497.5,172.5 497.5,169.2 494.2,169.2 494.2,167.5 492.6,167.5 
				492.6,165.8 489.3,165.8 489.3,164.2 489.3,164.2 489.2,164.2 484.3,164.2 484.3,162.5 484.3,162.5 467.9,162.5 467.9,162.5 
				467.9,164.2 462.9,164.2 462.9,164.2 462.9,164.3 462.9,165.8 461.3,165.8 461.3,167.5 458,167.5 458,169.2 456.5,169.2 
				456.5,170.8 454.7,170.8 454.7,172.5 451.4,172.5 451.4,175.8 449.7,175.8 449.7,177.4 448,177.4 448,180.7 446.4,180.7 
				446.4,180.7 446.4,180.8 446.4,185.7 444.7,185.7 444.7,185.7 444.7,202.1 444.7,202.1 446.4,202.1 446.4,207.1 446.4,207.1 
				446.5,207.1 448,207.1 448,208.7 449.7,208.7 449.7,212 451.4,212 451.4,213.5 453,213.5 453,215.3 454.7,215.3 454.7,218.6 
				458,218.6 458,220.3 459.6,220.3 459.6,222 462.9,222 462.9,223.6 462.9,223.6 463,223.6 467.9,223.6 467.9,225.3 467.9,225.3 
				484.3,225.3 484.3,225.3 484.3,223.6 489.3,223.6 489.3,223.6 489.3,223.5 489.3,222 490.9,222 490.9,220.3 494.2,220.3 
				494.2,218.6 495.7,218.6 495.7,217 497.5,217 497.5,215.3 500.8,215.3 500.8,212 502.5,212 502.5,210.4 504.2,210.4 504.2,207.1 
				505.8,207.1 505.8,207.1 505.8,207 505.8,202.1 507.5,202.1 507.5,202.1 507.5,185.7 507.5,185.7 			"/>
			<polygon class="st28" points="501.1,187 501.1,182.8 501.1,182.8 501,182.8 499.7,182.8 499.7,181.5 498.3,181.5 498.3,178.7 
				496.8,178.7 496.8,177.4 495.5,177.4 495.5,175.9 494.1,175.9 494.1,173.1 491.3,173.1 491.3,171.7 490,171.7 490,170.3 
				487.2,170.3 487.2,168.9 487.2,168.9 487.1,168.9 483,168.9 483,167.5 483,167.5 469.2,167.5 469.2,167.5 469.2,168.9 465,168.9 
				465,168.9 465,169 465,170.3 463.7,170.3 463.7,171.7 460.9,171.7 460.9,173.2 459.6,173.2 459.6,174.5 458.1,174.5 458.1,175.9 
				455.3,175.9 455.3,178.7 453.9,178.7 453.9,180 452.5,180 452.5,182.8 451.1,182.8 451.1,182.8 451.1,182.9 451.1,187 449.7,187 
				449.7,187 449.7,200.8 449.7,200.8 451.1,200.8 451.1,205 451.1,205 451.2,205 452.5,205 452.5,206.3 453.9,206.3 453.9,209.1 
				455.4,209.1 455.4,210.4 456.7,210.4 456.7,211.9 458.1,211.9 458.1,214.7 460.9,214.7 460.9,216.1 462.2,216.1 462.2,217.5 
				465,217.5 465,218.9 465,218.9 465.1,218.9 469.2,218.9 469.2,220.3 469.2,220.3 483,220.3 483,220.3 483,218.9 487.2,218.9 
				487.2,218.9 487.2,218.8 487.2,217.5 488.5,217.5 488.5,216.1 491.3,216.1 491.3,214.6 492.6,214.6 492.6,213.3 494.1,213.3 
				494.1,211.9 496.9,211.9 496.9,209.1 498.3,209.1 498.3,207.8 499.7,207.8 499.7,205 501.1,205 501.1,205 501.1,204.9 
				501.1,200.8 502.5,200.8 502.5,200.8 502.5,187 502.5,187 			"/>
			<polygon class="st29" points="499.3,187.5 499.3,183.6 499.3,183.6 499.2,183.6 498,183.6 498,182.3 496.7,182.3 496.7,179.8 
				495.4,179.8 495.4,178.6 494.1,178.6 494.1,177.2 492.8,177.2 492.8,174.6 490.2,174.6 490.2,173.3 489,173.3 489,172 486.4,172 
				486.4,170.7 486.4,170.7 486.3,170.7 482.5,170.7 482.5,169.4 482.5,169.4 469.7,169.4 469.7,169.4 469.7,170.7 465.8,170.7 
				465.8,170.7 465.8,170.8 465.8,172 464.5,172 464.5,173.3 462,173.3 462,174.6 460.8,174.6 460.8,175.9 459.4,175.9 459.4,177.2 
				456.8,177.2 456.8,179.8 455.5,179.8 455.5,181 454.2,181 454.2,183.6 452.9,183.6 452.9,183.6 452.9,183.7 452.9,187.5 
				451.6,187.5 451.6,187.5 451.6,200.3 451.6,200.3 452.9,200.3 452.9,204.2 452.9,204.2 453,204.2 454.2,204.2 454.2,205.5 
				455.5,205.5 455.5,208 456.8,208 456.8,209.2 458.1,209.2 458.1,210.6 459.4,210.6 459.4,213.2 462,213.2 462,214.5 463.2,214.5 
				463.2,215.8 465.8,215.8 465.8,217.1 465.8,217.1 465.9,217.1 469.7,217.1 469.7,218.4 469.7,218.4 482.5,218.4 482.5,218.4 
				482.5,217.1 486.4,217.1 486.4,217.1 486.4,217 486.4,215.8 487.7,215.8 487.7,214.5 490.2,214.5 490.2,213.2 491.4,213.2 
				491.4,211.9 492.8,211.9 492.8,210.6 495.4,210.6 495.4,208 496.7,208 496.7,206.8 498,206.8 498,204.2 499.3,204.2 499.3,204.2 
				499.3,204.1 499.3,200.3 500.6,200.3 500.6,200.3 500.6,187.5 500.6,187.5 			"/>
			<polygon class="st30" points="488.3,190.5 488.3,188.5 488.3,188.5 488.2,188.5 487.6,188.5 487.6,187.8 486.9,187.8 
				486.9,186.5 486.2,186.5 486.2,185.9 485.6,185.9 485.6,185.1 484.9,185.1 484.9,183.8 483.5,183.8 483.5,183.1 482.9,183.1 
				482.9,182.4 481.5,182.4 481.5,181.7 481.5,181.7 481.5,181.7 479.5,181.7 479.5,181 479.5,181 472.7,181 472.7,181 472.7,181.7 
				470.7,181.7 470.7,181.7 470.7,181.8 470.7,182.4 470,182.4 470,183.1 468.7,183.1 468.7,183.8 468.1,183.8 468.1,184.4 
				467.3,184.4 467.3,185.1 466,185.1 466,186.5 465.3,186.5 465.3,187.1 464.6,187.1 464.6,188.5 463.9,188.5 463.9,188.5 
				463.9,188.5 463.9,190.5 463.2,190.5 463.2,190.5 463.2,197.3 463.2,197.3 463.9,197.3 463.9,199.3 463.9,199.3 464,199.3 
				464.6,199.3 464.6,200 465.3,200 465.3,201.3 466,201.3 466,201.9 466.6,201.9 466.6,202.7 467.3,202.7 467.3,204 468.7,204 
				468.7,204.7 469.3,204.7 469.3,205.4 470.7,205.4 470.7,206.1 470.7,206.1 470.7,206.1 472.7,206.1 472.7,206.8 472.7,206.8 
				479.5,206.8 479.5,206.8 479.5,206.1 481.5,206.1 481.5,206.1 481.5,206 481.5,205.4 482.2,205.4 482.2,204.7 483.5,204.7 
				483.5,204 484.1,204 484.1,203.4 484.9,203.4 484.9,202.7 486.2,202.7 486.2,201.3 486.9,201.3 486.9,200.7 487.6,200.7 
				487.6,199.3 488.3,199.3 488.3,199.3 488.3,199.3 488.3,197.3 489,197.3 489,197.3 489,190.5 489,190.5 			"/>
			<polygon class="st31" points="486.9,190.9 486.9,189.1 486.9,189.1 486.9,189.1 486.3,189.1 486.3,188.5 485.7,188.5 
				485.7,187.3 485.1,187.3 485.1,186.8 484.5,186.8 484.5,186.1 483.9,186.1 483.9,184.9 482.7,184.9 482.7,184.3 482.1,184.3 
				482.1,183.7 480.9,183.7 480.9,183.1 480.9,183.1 480.9,183.1 479.1,183.1 479.1,182.4 479.1,182.4 473.1,182.4 473.1,182.4 
				473.1,183.1 471.3,183.1 471.3,183.1 471.3,183.1 471.3,183.7 470.7,183.7 470.7,184.3 469.5,184.3 469.5,184.9 469,184.9 
				469,185.5 468.3,185.5 468.3,186.1 467.1,186.1 467.1,187.3 466.5,187.3 466.5,187.9 465.9,187.9 465.9,189.1 465.3,189.1 
				465.3,189.1 465.3,189.1 465.3,190.9 464.6,190.9 464.6,190.9 464.6,196.9 464.6,196.9 465.3,196.9 465.3,198.7 465.3,198.7 
				465.3,198.7 465.9,198.7 465.9,199.3 466.5,199.3 466.5,200.5 467.1,200.5 467.1,201 467.7,201 467.7,201.7 468.3,201.7 
				468.3,202.9 469.5,202.9 469.5,203.5 470.1,203.5 470.1,204.1 471.3,204.1 471.3,204.7 471.3,204.7 471.3,204.7 473.1,204.7 
				473.1,205.4 473.1,205.4 479.1,205.4 479.1,205.4 479.1,204.7 480.9,204.7 480.9,204.7 480.9,204.7 480.9,204.1 481.5,204.1 
				481.5,203.5 482.7,203.5 482.7,202.9 483.2,202.9 483.2,202.3 483.9,202.3 483.9,201.7 485.1,201.7 485.1,200.5 485.7,200.5 
				485.7,199.9 486.3,199.9 486.3,198.7 486.9,198.7 486.9,198.7 486.9,198.7 486.9,196.9 487.6,196.9 487.6,196.9 487.6,190.9 
				487.6,190.9 			"/>
		</g>
		<g>
			<polygon class="st27" points="626.2,207 626.2,204.5 626.2,204.5 626.1,204.5 625.4,204.5 625.4,203.7 624.5,203.7 624.5,202.1 
				623.7,202.1 623.7,201.3 622.9,201.3 622.9,200.4 622,200.4 622,198.8 620.4,198.8 620.4,197.9 619.6,197.9 619.6,197.1 
				617.9,197.1 617.9,196.3 617.9,196.3 617.9,196.3 615.4,196.3 615.4,195.4 615.4,195.4 607.2,195.4 607.2,195.4 607.2,196.3 
				604.7,196.3 604.7,196.3 604.7,196.3 604.7,197.1 603.9,197.1 603.9,197.9 602.3,197.9 602.3,198.8 601.5,198.8 601.5,199.6 
				600.6,199.6 600.6,200.4 599,200.4 599,202.1 598.1,202.1 598.1,202.9 597.3,202.9 597.3,204.5 596.5,204.5 596.5,204.5 
				596.5,204.6 596.5,207 595.6,207 595.6,207 595.6,215.2 595.6,215.2 596.5,215.2 596.5,217.7 596.5,217.7 596.5,217.7 
				597.3,217.7 597.3,218.5 598.1,218.5 598.1,220.2 599,220.2 599,220.9 599.8,220.9 599.8,221.8 600.6,221.8 600.6,223.5 
				602.3,223.5 602.3,224.3 603.1,224.3 603.1,225.2 604.7,225.2 604.7,226 604.7,226 604.8,226 607.2,226 607.2,226.8 607.2,226.8 
				615.4,226.8 615.4,226.8 615.4,226 617.9,226 617.9,226 617.9,225.9 617.9,225.2 618.7,225.2 618.7,224.3 620.4,224.3 
				620.4,223.4 621.1,223.4 621.1,222.7 622,222.7 622,221.8 623.7,221.8 623.7,220.2 624.5,220.2 624.5,219.4 625.4,219.4 
				625.4,217.7 626.2,217.7 626.2,217.7 626.2,217.7 626.2,215.2 627,215.2 627,215.2 627,207 627,207 			"/>
			<polygon class="st28" points="623.8,207.7 623.8,205.6 623.8,205.6 623.8,205.6 623.1,205.6 623.1,204.9 622.4,204.9 
				622.4,203.5 621.7,203.5 621.7,202.9 621,202.9 621,202.1 620.3,202.1 620.3,200.7 618.9,200.7 618.9,200 618.2,200 618.2,199.3 
				616.9,199.3 616.9,198.6 616.9,198.6 616.8,198.6 614.8,198.6 614.8,197.9 614.8,197.9 607.9,197.9 607.9,197.9 607.9,198.6 
				605.8,198.6 605.8,198.6 605.8,198.7 605.8,199.3 605.1,199.3 605.1,200 603.7,200 603.7,200.7 603.1,200.7 603.1,201.4 
				602.3,201.4 602.3,202.1 600.9,202.1 600.9,203.5 600.2,203.5 600.2,204.2 599.5,204.2 599.5,205.6 598.8,205.6 598.8,205.6 
				598.8,205.6 598.8,207.7 598.1,207.7 598.1,207.7 598.1,214.5 598.1,214.5 598.8,214.5 598.8,216.7 598.8,216.7 598.9,216.7 
				599.5,216.7 599.5,217.3 600.2,217.3 600.2,218.7 600.9,218.7 600.9,219.3 601.6,219.3 601.6,220.1 602.3,220.1 602.3,221.5 
				603.7,221.5 603.7,222.2 604.4,222.2 604.4,222.9 605.8,222.9 605.8,223.6 605.8,223.6 605.8,223.6 607.9,223.6 607.9,224.3 
				607.9,224.3 614.8,224.3 614.8,224.3 614.8,223.6 616.9,223.6 616.9,223.6 616.9,223.5 616.9,222.9 617.5,222.9 617.5,222.2 
				618.9,222.2 618.9,221.5 619.6,221.5 619.6,220.8 620.3,220.8 620.3,220.1 621.7,220.1 621.7,218.7 622.4,218.7 622.4,218 
				623.1,218 623.1,216.7 623.8,216.7 623.8,216.7 623.8,216.6 623.8,214.5 624.5,214.5 624.5,214.5 624.5,207.7 624.5,207.7 			"/>
			<polygon class="st29" points="622.9,207.9 622.9,205.9 622.9,205.9 622.9,205.9 622.3,205.9 622.3,205.3 621.6,205.3 621.6,204 
				620.9,204 620.9,203.5 620.3,203.5 620.3,202.7 619.7,202.7 619.7,201.5 618.4,201.5 618.4,200.8 617.8,200.8 617.8,200.1 
				616.5,200.1 616.5,199.5 616.5,199.5 616.4,199.5 614.5,199.5 614.5,198.8 614.5,198.8 608.1,198.8 608.1,198.8 608.1,199.5 
				606.2,199.5 606.2,199.5 606.2,199.5 606.2,200.1 605.5,200.1 605.5,200.8 604.2,200.8 604.2,201.5 603.7,201.5 603.7,202.1 
				603,202.1 603,202.7 601.7,202.7 601.7,204 601,204 601,204.7 600.3,204.7 600.3,205.9 599.7,205.9 599.7,205.9 599.7,206 
				599.7,207.9 599.1,207.9 599.1,207.9 599.1,214.3 599.1,214.3 599.7,214.3 599.7,216.3 599.7,216.3 599.8,216.3 600.3,216.3 
				600.3,216.9 601,216.9 601,218.2 601.7,218.2 601.7,218.8 602.3,218.8 602.3,219.5 603,219.5 603,220.7 604.2,220.7 604.2,221.4 
				604.9,221.4 604.9,222.1 606.2,222.1 606.2,222.7 606.2,222.7 606.2,222.7 608.1,222.7 608.1,223.4 608.1,223.4 614.5,223.4 
				614.5,223.4 614.5,222.7 616.5,222.7 616.5,222.7 616.5,222.7 616.5,222.1 617.1,222.1 617.1,221.4 618.4,221.4 618.4,220.7 
				619,220.7 619,220.1 619.7,220.1 619.7,219.5 621,219.5 621,218.2 621.6,218.2 621.6,217.5 622.3,217.5 622.3,216.3 622.9,216.3 
				622.9,216.3 622.9,216.2 622.9,214.3 623.6,214.3 623.6,214.3 623.6,207.9 623.6,207.9 			"/>
			<polygon class="st30" points="617.4,209.4 617.4,208.4 617.4,208.4 617.4,208.4 617.1,208.4 617.1,208.1 616.7,208.1 
				616.7,207.4 616.4,207.4 616.4,207.1 616,207.1 616,206.7 615.7,206.7 615.7,206 615,206 615,205.7 614.7,205.7 614.7,205.3 
				614,205.3 614,205 614,205 614,205 613,205 613,204.7 613,204.7 609.6,204.7 609.6,204.7 609.6,205 608.6,205 608.6,205 
				608.6,205 608.6,205.3 608.3,205.3 608.3,205.7 607.6,205.7 607.6,206.1 607.3,206.1 607.3,206.4 606.9,206.4 606.9,206.7 
				606.3,206.7 606.3,207.4 605.9,207.4 605.9,207.7 605.6,207.7 605.6,208.4 605.2,208.4 605.2,208.4 605.2,208.4 605.2,209.4 
				604.9,209.4 604.9,209.4 604.9,212.8 604.9,212.8 605.2,212.8 605.2,213.8 605.2,213.8 605.3,213.8 605.6,213.8 605.6,214.1 
				605.9,214.1 605.9,214.8 606.3,214.8 606.3,215.1 606.6,215.1 606.6,215.5 606.9,215.5 606.9,216.2 607.6,216.2 607.6,216.5 
				607.9,216.5 607.9,216.9 608.6,216.9 608.6,217.2 608.6,217.2 608.6,217.2 609.6,217.2 609.6,217.5 609.6,217.5 613,217.5 
				613,217.5 613,217.2 614,217.2 614,217.2 614,217.2 614,216.9 614.3,216.9 614.3,216.5 615,216.5 615,216.2 615.3,216.2 
				615.3,215.8 615.7,215.8 615.7,215.5 616.4,215.5 616.4,214.8 616.7,214.8 616.7,214.5 617.1,214.5 617.1,213.8 617.4,213.8 
				617.4,213.8 617.4,213.8 617.4,212.8 617.7,212.8 617.7,212.8 617.7,209.4 617.7,209.4 			"/>
			<polygon class="st31" points="616.7,209.6 616.7,208.7 616.7,208.7 616.7,208.7 616.4,208.7 616.4,208.4 616.1,208.4 
				616.1,207.8 615.8,207.8 615.8,207.5 615.5,207.5 615.5,207.2 615.2,207.2 615.2,206.6 614.6,206.6 614.6,206.3 614.3,206.3 
				614.3,206 613.7,206 613.7,205.7 613.7,205.7 613.7,205.7 612.8,205.7 612.8,205.4 612.8,205.4 609.8,205.4 609.8,205.4 
				609.8,205.7 608.9,205.7 608.9,205.7 608.9,205.7 608.9,206 608.6,206 608.6,206.3 608,206.3 608,206.6 607.7,206.6 607.7,206.9 
				607.4,206.9 607.4,207.2 606.8,207.2 606.8,207.8 606.5,207.8 606.5,208.1 606.2,208.1 606.2,208.7 605.9,208.7 605.9,208.7 
				605.9,208.7 605.9,209.6 605.6,209.6 605.6,209.6 605.6,212.6 605.6,212.6 605.9,212.6 605.9,213.5 605.9,213.5 605.9,213.5 
				606.2,213.5 606.2,213.8 606.5,213.8 606.5,214.4 606.8,214.4 606.8,214.7 607.1,214.7 607.1,215 607.4,215 607.4,215.6 
				608,215.6 608,215.9 608.3,215.9 608.3,216.2 608.9,216.2 608.9,216.5 608.9,216.5 608.9,216.5 609.8,216.5 609.8,216.8 
				609.8,216.8 612.8,216.8 612.8,216.8 612.8,216.5 613.7,216.5 613.7,216.5 613.7,216.5 613.7,216.2 614,216.2 614,215.9 
				614.6,215.9 614.6,215.6 614.9,215.6 614.9,215.3 615.2,215.3 615.2,215 615.8,215 615.8,214.4 616.1,214.4 616.1,214.1 
				616.4,214.1 616.4,213.5 616.7,213.5 616.7,213.5 616.7,213.5 616.7,212.6 617,212.6 617,212.6 617,209.6 617,209.6 			"/>
		</g>
	</g>
</g>
<g id="Layer_4">
	<g>
		<rect x="571.4" y="34.1" class="st11" width="34.1" height="34.1"/>
		<rect x="571.4" y="68.2" width="34.1" height="34.1"/>
		
			<rect x="605.5" y="68.2" transform="matrix(-1 -1.224647e-16 1.224647e-16 -1 1245.1001 170.5)" class="st11" width="34.1" height="34.1"/>
		<rect x="605.5" y="34.1" transform="matrix(-1 -1.224647e-16 1.224647e-16 -1 1245.1001 102.3)" width="34.1" height="34.1"/>
		<rect x="639.6" y="34.1" class="st11" width="34.1" height="34.1"/>
		<rect x="639.6" y="68.2" width="34.1" height="34.1"/>
		
			<rect x="673.7" y="68.2" transform="matrix(-1 -1.224647e-16 1.224647e-16 -1 1381.5001 170.5)" class="st11" width="34.1" height="34.1"/>
		<rect x="673.7" y="34.1" transform="matrix(-1 -1.224647e-16 1.224647e-16 -1 1381.5001 102.3)" width="34.1" height="34.1"/>
		<rect x="707.8" y="34.1" class="st11" width="34.1" height="34.1"/>
		<rect x="707.8" y="68.2" width="34.1" height="34.1"/>
		
			<rect x="741.9" y="68.2" transform="matrix(-1 -1.224647e-16 1.224647e-16 -1 1517.9001 170.5)" class="st11" width="34.1" height="34.1"/>
		<rect x="741.9" y="34.1" transform="matrix(-1 -1.224647e-16 1.224647e-16 -1 1517.9001 102.3)" width="34.1" height="34.1"/>
		<g>
			<g>
				<polygon class="st32" points="616.7,82.8 616.7,75.7 631.1,75.7 631.1,70.5 620.8,70.5 620.8,66.3 616.7,66.3 616.7,59.2 
					620.8,59.2 620.8,55.1 638.3,55.1 638.3,62.2 623.8,62.2 623.8,63.3 634.1,63.3 634.1,67.5 638.3,67.5 638.3,78.7 634.1,78.7 
					634.1,82.8 				"/>
				<path d="M636.8,56.6v2.1v2.1h-2.1h-2.1h-2.1h-2.1h-2.1h-2.1h-2.1v-2.1v-2.1h2.1h2.1h2.1h2.1h2.1h2.1H636.8 M622.3,60.7v2.1v2.1
					h-2.1h-2.1v-2.1v-2.1h2.1H622.3 M632.6,64.8v2.1V69h-2.1h-2.1h-2.1h-2.1h-2.1v-2.1v-2.1h2.1h2.1h2.1h2.1H632.6 M636.8,69V71v2.1
					v2.1v2.1h-2.1h-2.1v-2.1v-2.1V71V69h2.1H636.8 M632.6,77.2v2.1v2.1h-2.1h-2.1h-2.1h-2.1h-2.1h-2.1h-2.1v-2.1v-2.1h2.1h2.1h2.1
					h2.1h2.1h2.1H632.6 M639.8,53.6h-3h-2.1h-2.1h-2.1h-2.1h-2.1h-2.1h-2.1h-3v3v1.1h-1.1h-3v3v2.1v2.1v3h3h1.1V69v3h3h2.1h2.1h2.1
					h1.1v1.1v1.1h-1.1h-2.1h-2.1h-2.1h-2.1h-2.1h-3v3v2.1v2.1v3h3h2.1h2.1h2.1h2.1h2.1h2.1h2.1h3v-3v-1.1h1.1h3v-3v-2.1v-2.1V71V69
					v-3h-3h-1.1v-1.1v-1.1h1.1h3v-3v-2.1v-2.1V53.6L639.8,53.6z"/>
			</g>
			<g>
				<polygon class="st32" points="645.6,82.8 645.6,62.2 637.3,62.2 637.3,55.1 661,55.1 661,62.2 652.7,62.2 652.7,82.8 				"/>
				<path d="M659.5,56.6v2.1v2.1h-2.1h-2.1h-2.1h-2.1v2.1v2.1v2.1V69V71v2.1v2.1v2.1v2.1v2.1h-2.1h-2.1v-2.1v-2.1v-2.1v-2.1V71V69
					v-2.1v-2.1v-2.1v-2.1H645H643h-2.1h-2.1v-2.1v-2.1h2.1h2.1h2.1h2.1h2.1h2.1h2.1h2.1h2.1H659.5 M662.5,53.6h-3h-2.1h-2.1h-2.1
					h-2.1h-2.1h-2.1H645H643h-2.1h-2.1h-3v3v2.1v2.1v3h3h2.1h2.1h1.1v1.1v2.1V69V71v2.1v2.1v2.1v2.1v2.1v3h3h2.1h2.1h3v-3v-2.1v-2.1
					v-2.1v-2.1V71V69v-2.1v-2.1v-1.1h1.1h2.1h2.1h3v-3v-2.1v-2.1V53.6L662.5,53.6z"/>
			</g>
			<g>
				<path class="st32" d="M674.5,82.8V70.5h-7.3v12.4H660V59.2h4.1v-4.1h13.3v4.1h4.1v23.6H674.5z M674.5,63.3v-1.1h-7.3v1.1H674.5z
					"/>
				<path d="M676,56.6v2.1v2.1h-2.1h-2.1h-2.1h-2.1h-2.1v-2.1v-2.1h2.1h2.1h2.1h2.1H676 M680.1,60.7v2.1v2.1v2.1V69V71v2.1v2.1v2.1
					v2.1v2.1H678H676v-2.1v-2.1v-2.1v-2.1V71V69h-2.1h-2.1h-2.1h-2.1h-2.1V71v2.1v2.1v2.1v2.1v2.1h-2.1h-2.1v-2.1v-2.1v-2.1v-2.1V71
					V69v-2.1v-2.1v-2.1v-2.1h2.1h2.1v2.1v2.1h2.1h2.1h2.1h2.1h2.1v-2.1v-2.1h2.1H680.1 M679,53.6h-3h-2.1h-2.1h-2.1h-2.1h-2.1h-3v3
					v1.1h-1.1h-3v3v2.1v2.1v2.1V69V71v2.1v2.1v2.1v2.1v2.1v3h3h2.1h2.1h3v-3v-2.1v-2.1v-2.1v-2.1V72h1.1h2.1h1.1v1.1v2.1v2.1v2.1
					v2.1v3h3h2.1h2.1h3v-3v-2.1v-2.1v-2.1v-2.1V71V69v-2.1v-2.1v-2.1v-2.1v-3h-3H679v-1.1V53.6L679,53.6z"/>
			</g>
			<g>
				<path class="st32" d="M701.3,82.8v-4.1h-4.1v-4.1H693v-4.1h-5.2v12.4h-7.1V55.1h21.6v4.1h4.1v7.1h-4.1v4.1h-2.1v1.1h4.1v4.1h4.1
					v7.1H701.3z M699.2,63.3v-1.1h-11.4v1.1H699.2z"/>
				<path d="M700.7,56.6v2.1v2.1h-2.1h-2.1h-2.1h-2.1h-2.1h-2.1h-2.1v2.1v2.1h2.1h2.1h2.1h2.1h2.1h2.1h2.1v2.1V69h-2.1V71v2.1h-2.1
					h-2.1V71V69h-2.1h-2.1h-2.1h-2.1V71v2.1v2.1v2.1v2.1v2.1h-2.1h-2.1v-2.1v-2.1v-2.1v-2.1V71V69v-2.1v-2.1v-2.1v-2.1v-2.1v-2.1
					h2.1h2.1h2.1h2.1h2.1h2.1h2.1h2.1H700.7 M704.8,60.7v2.1v2.1h-2.1h-2.1v-2.1v-2.1h2.1H704.8 M702.8,73.1v2.1v2.1h-2.1h-2.1v-2.1
					v-2.1h2.1H702.8 M706.9,77.2v2.1v2.1h-2.1h-2.1v-2.1v-2.1h2.1H706.9 M703.7,53.6h-3h-2.1h-2.1h-2.1h-2.1h-2.1h-2.1h-2.1h-2.1
					h-2.1h-3v3v2.1v2.1v2.1v2.1v2.1V69V71v2.1v2.1v2.1v2.1v2.1v3h3h2.1h2.1h3v-3v-2.1v-2.1v-2.1v-2.1V72h1.1h1.1v1.1v3h3h1.1v1.1v3
					h3h1.1v1.1v3h3h2.1h2.1h3v-3v-2.1v-2.1v-3h-3h-1.1v-1.1v-3h-2.1V69v-1.1h1.1h3v-3v-2.1v-2.1v-3h-3h-1.1v-1.1V53.6L703.7,53.6z"
					/>
			</g>
			<g>
				<polygon class="st32" points="715.7,82.8 715.7,62.2 707.5,62.2 707.5,55.1 731.1,55.1 731.1,62.2 722.8,62.2 722.8,82.8 				
					"/>
				<path d="M729.6,56.6v2.1v2.1h-2.1h-2.1h-2.1h-2.1v2.1v2.1v2.1V69V71v2.1v2.1v2.1v2.1v2.1h-2.1h-2.1v-2.1v-2.1v-2.1v-2.1V71V69
					v-2.1v-2.1v-2.1v-2.1h-2.1h-2.1H711H709v-2.1v-2.1h2.1h2.1h2.1h2.1h2.1h2.1h2.1h2.1h2.1H729.6 M732.6,53.6h-3h-2.1h-2.1h-2.1
					h-2.1h-2.1h-2.1h-2.1h-2.1H711H709h-3v3v2.1v2.1v3h3h2.1h2.1h1.1v1.1v2.1V69V71v2.1v2.1v2.1v2.1v2.1v3h3h2.1h2.1h3v-3v-2.1v-2.1
					v-2.1v-2.1V71V69v-2.1v-2.1v-1.1h1.1h2.1h2.1h3v-3v-2.1v-2.1V53.6L732.6,53.6z"/>
			</g>
		</g>
	</g>
</g>
<g id="Layer_3">
	<rect y="221.6" class="st13" width="800" height="28.4"/>
	<g id="Layer_8_1_">
		
			<linearGradient id="SVGID_1_" gradientUnits="userSpaceOnUse" x1="400" y1="104" x2="400" y2="-146" gradientTransform="matrix(1 0 0 -1 0 104)">
			<stop  offset="0" style="stop-color:#666666"/>
			<stop  offset="1" style="stop-color:#333333"/>
		</linearGradient>
		<rect class="st33" width="800" height="250"/>
	</g>
</g>
</svg>
