<svg xmlns="http://www.w3.org/2000/svg" width="312" height="316" viewBox="0 0 312 316">
  <g id="Layer_2" data-name="Layer 2">
    <g id="Layer_4_copy" data-name="Layer 4 copy">
      <g>
        <rect x="244.4" y="221.2" width="5.2" height="5.267" fill="#a75e3a"/>
        <polygon points="306.8 252.8 306.8 247.533 306.8 242.267 301.6 242.267 301.6 237 301.6 231.733 296.4 231.733 296.4 226.467 291.2 226.467 286 226.467 286 221.2 280.8 221.2 280.8 215.933 275.6 215.933 270.4 215.933 265.2 215.933 265.2 221.2 265.2 226.467 260 226.467 254.8 226.467 249.6 226.467 244.4 226.467 244.4 221.2 244.4 215.933 239.2 215.933 234 215.933 228.8 215.933 228.8 221.2 223.6 221.2 223.6 226.467 218.4 226.467 218.4 231.733 213.2 231.733 213.2 237 208 237 208 242.267 208 247.533 202.8 247.533 202.8 252.8 202.8 258.067 197.6 258.067 197.6 263.333 197.6 268.6 197.6 273.867 197.6 279.133 197.6 284.4 197.6 289.667 197.6 294.933 197.6 300.2 197.6 305.467 197.6 310.733 197.6 316 202.8 316 208 316 213.2 316 218.4 316 223.6 316 228.8 316 234 316 239.2 316 244.4 316 249.6 316 254.8 316 260 316 265.2 316 270.4 316 275.6 316 280.8 316 286 316 291.2 316 296.4 316 301.6 316 306.8 316 312 316 312 310.733 312 305.467 312 300.2 312 294.933 312 289.667 312 284.4 312 279.133 312 273.867 312 268.6 312 263.333 312 258.067 312 252.8 306.8 252.8" fill="#a01f12"/>
        <rect x="239.2" y="205.4" width="5.2" height="5.267" fill="#9a734f"/>
        <rect x="67.6" y="205.4" width="5.2" height="5.267" fill="#fcd9ad"/>
        <rect x="218.4" y="189.6" width="5.2" height="5.267" fill="#a97046"/>
        <rect x="88.4" y="189.6" width="5.2" height="5.267" fill="#fedbbe"/>
        <rect x="213.2" y="179.067" width="5.2" height="5.267" fill="#a77047"/>
        <rect x="93.6" y="179.067" width="5.2" height="5.267" fill="#fedabc"/>
        <rect x="296.4" y="168.533" width="5.2" height="5.267" fill="#797b62"/>
        <rect x="10.4" y="168.533" width="5.2" height="5.267" fill="#f6d789"/>
        <rect x="296.4" y="163.267" width="5.2" height="5.267" fill="#747c65"/>
        <rect x="218.4" y="163.267" width="5.2" height="5.267" fill="#a86e44"/>
        <rect x="213.2" y="163.267" width="5.2" height="5.267" fill="#4c2607"/>
        <rect x="15.6" y="163.267" width="5.2" height="5.267" fill="#c59974"/>
        <rect x="10.4" y="163.267" width="5.2" height="5.267" fill="#936515"/>
        <rect x="291.2" y="158" width="5.2" height="5.267" fill="#6f411e"/>
        <rect x="286" y="158" width="5.2" height="5.267" fill="#6c3f1c"/>
        <rect x="280.8" y="158" width="5.2" height="5.267" fill="#8d5932"/>
        <rect x="223.6" y="158" width="5.2" height="5.267" fill="#a16940"/>
        <rect x="93.6" y="158" width="5.2" height="5.267" fill="#ca9f7b"/>
        <rect x="88.4" y="158" width="5.2" height="5.267" fill="#a7774d"/>
        <rect x="83.2" y="158" width="5.2" height="5.267" fill="#c59975"/>
        <rect x="78" y="158" width="5.2" height="5.267" fill="#f7d2b5"/>
        <rect x="10.4" y="158" width="5.2" height="5.267" fill="#a8820c"/>
        <rect x="265.2" y="152.733" width="5.2" height="5.267" fill="#572e0e"/>
        <rect x="260" y="152.733" width="5.2" height="5.267" fill="#a86e45"/>
        <rect x="228.8" y="152.733" width="5.2" height="5.267" fill="#542c0c"/>
        <polygon points="218.4 200.133 218.4 194.867 218.4 189.6 218.4 184.333 213.2 184.333 213.2 179.067 208 179.067 208 173.8 202.8 173.8 202.8 168.533 197.6 168.533 197.6 163.267 192.4 163.267 192.4 158 187.2 158 182 158 176.8 158 176.8 152.733 171.6 152.733 166.4 152.733 166.4 158 166.4 163.267 166.4 168.533 161.2 168.533 156 168.533 150.8 168.533 145.6 168.533 145.6 163.267 145.6 158 145.6 152.733 140.4 152.733 135.2 152.733 135.2 158 130 158 124.8 158 119.6 158 119.6 163.267 114.4 163.267 114.4 168.533 109.2 168.533 109.2 173.8 104 173.8 104 179.067 98.8 179.067 98.8 184.333 93.6 184.333 93.6 189.6 93.6 194.867 93.6 200.133 88.4 200.133 88.4 205.4 88.4 210.667 88.4 215.933 88.4 221.2 88.4 226.467 93.6 226.467 93.6 231.733 98.8 231.733 98.8 237 104 237 104 242.267 104 247.533 109.2 247.533 109.2 252.8 109.2 258.067 114.4 258.067 114.4 263.333 114.4 268.6 114.4 273.867 114.4 279.133 114.4 284.4 114.4 289.667 114.4 294.933 114.4 300.2 114.4 305.467 114.4 310.733 114.4 316 119.6 316 124.8 316 130 316 135.2 316 140.4 316 145.6 316 150.8 316 156 316 161.2 316 166.4 316 171.6 316 176.8 316 182 316 187.2 316 192.4 316 197.6 316 197.6 310.733 197.6 305.467 197.6 300.2 197.6 294.933 197.6 289.667 197.6 284.4 197.6 279.133 197.6 273.867 197.6 268.6 197.6 263.333 197.6 258.067 202.8 258.067 202.8 252.8 202.8 247.533 208 247.533 208 242.267 208 237 213.2 237 213.2 231.733 218.4 231.733 218.4 226.467 223.6 226.467 223.6 221.2 223.6 215.933 223.6 210.667 223.6 205.4 223.6 200.133 218.4 200.133" fill="#1153a3"/>
        <rect x="62.4" y="152.733" width="5.2" height="5.267" fill="#d8af8e"/>
        <rect x="31.2" y="152.733" width="5.2" height="5.267" fill="#ecc5a7"/>
        <rect x="254.8" y="147.467" width="5.2" height="5.267" fill="#84522c"/>
        <rect x="57.2" y="147.467" width="5.2" height="5.267" fill="#8b5728"/>
        <polygon points="88.4 163.267 83.2 163.267 78 163.267 78 158 72.8 158 67.6 158 62.4 158 62.4 152.733 57.2 152.733 57.2 147.467 52 147.467 46.8 147.467 41.6 147.467 36.4 147.467 36.4 152.733 36.4 158 31.2 158 26 158 26 163.267 20.8 163.267 20.8 168.533 15.6 168.533 15.6 173.8 15.6 179.067 15.6 184.333 15.6 189.6 20.8 189.6 20.8 194.867 26 194.867 26 200.133 31.2 200.133 31.2 205.4 36.4 205.4 41.6 205.4 41.6 210.667 46.8 210.667 46.8 215.933 46.8 221.2 46.8 226.467 52 226.467 57.2 226.467 62.4 226.467 67.6 226.467 67.6 221.2 67.6 215.933 67.6 210.667 67.6 205.4 72.8 205.4 78 205.4 83.2 205.4 83.2 200.133 88.4 200.133 88.4 194.867 88.4 189.6 93.6 189.6 93.6 184.333 93.6 179.067 98.8 179.067 98.8 173.8 98.8 168.533 98.8 163.267 93.6 163.267 88.4 163.267" fill="#ffdbc0"/>
        <rect x="244.4" y="142.2" width="5.2" height="5.267" fill="#673b19"/>
        <polygon points="291.2 163.267 286 163.267 280.8 163.267 280.8 158 275.6 158 270.4 158 265.2 158 260 158 260 152.733 254.8 152.733 254.8 147.467 249.6 147.467 244.4 147.467 244.4 142.2 239.2 142.2 239.2 147.467 234 147.467 234 152.733 234 158 228.8 158 228.8 163.267 223.6 163.267 223.6 168.533 218.4 168.533 213.2 168.533 213.2 173.8 213.2 179.067 218.4 179.067 218.4 184.333 218.4 189.6 223.6 189.6 223.6 194.867 223.6 200.133 228.8 200.133 228.8 205.4 234 205.4 239.2 205.4 244.4 205.4 244.4 210.667 244.4 215.933 244.4 221.2 249.6 221.2 249.6 226.467 254.8 226.467 260 226.467 265.2 226.467 265.2 221.2 265.2 215.933 265.2 210.667 270.4 210.667 270.4 205.4 275.6 205.4 280.8 205.4 280.8 200.133 286 200.133 286 194.867 291.2 194.867 291.2 189.6 296.4 189.6 296.4 184.333 296.4 179.067 296.4 173.8 296.4 168.533 296.4 163.267 291.2 163.267" fill="#aa7046"/>
        <rect x="234" y="142.2" width="5.2" height="5.267" fill="#562e0e"/>
        <rect x="46.8" y="142.2" width="5.2" height="5.267" fill="#703906"/>
        <rect x="41.6" y="142.2" width="5.2" height="5.267" fill="#f6d1b4"/>
        <rect x="36.4" y="142.2" width="5.2" height="5.267" fill="#f7d2b6"/>
        <rect x="15.6" y="142.2" width="5.2" height="5.267" fill="#713b01"/>
        <rect x="119.6" y="136.933" width="5.2" height="5.267" fill="#efc844"/>
        <rect x="20.8" y="136.933" width="5.2" height="5.267" fill="#733d01"/>
        <rect x="223.6" y="131.667" width="5.2" height="5.267" fill="#411e00"/>
        <rect x="270.4" y="126.4" width="5.2" height="5.267" fill="#412408"/>
        <polygon points="291.2 142.2 286 142.2 286 136.933 280.8 136.933 280.8 131.667 275.6 131.667 270.4 131.667 270.4 126.4 265.2 126.4 260 126.4 254.8 126.4 249.6 126.4 244.4 126.4 239.2 126.4 234 126.4 234 131.667 228.8 131.667 228.8 136.933 223.6 136.933 223.6 142.2 218.4 142.2 218.4 147.467 218.4 152.733 213.2 152.733 213.2 158 213.2 163.267 218.4 163.267 223.6 163.267 223.6 158 228.8 158 228.8 152.733 234 152.733 234 147.467 234 142.2 239.2 142.2 244.4 142.2 249.6 142.2 249.6 147.467 254.8 147.467 260 147.467 260 152.733 265.2 152.733 270.4 152.733 270.4 158 275.6 158 280.8 158 286 158 291.2 158 296.4 158 296.4 152.733 296.4 147.467 291.2 147.467 291.2 142.2" fill="#421e00"/>
        <rect x="228.8" y="126.4" width="5.2" height="5.267" fill="#13929d"/>
        <polygon points="93.6 152.733 93.6 147.467 93.6 142.2 88.4 142.2 88.4 136.933 83.2 136.933 83.2 131.667 78 131.667 72.8 131.667 72.8 126.4 67.6 126.4 62.4 126.4 57.2 126.4 52 126.4 46.8 126.4 41.6 126.4 36.4 126.4 36.4 131.667 31.2 131.667 26 131.667 26 136.933 26 142.2 20.8 142.2 20.8 147.467 15.6 147.467 15.6 152.733 15.6 158 15.6 163.267 20.8 163.267 26 163.267 26 158 31.2 158 31.2 152.733 36.4 152.733 36.4 147.467 36.4 142.2 41.6 142.2 46.8 142.2 52 142.2 52 147.467 57.2 147.467 62.4 147.467 62.4 152.733 67.6 152.733 67.6 158 72.8 158 78 158 83.2 158 88.4 158 93.6 158 98.8 158 98.8 152.733 93.6 152.733" fill="#6c3400"/>
        <rect x="197.6" y="121.133" width="5.2" height="5.267" fill="#eaba8a"/>
        <rect x="109.2" y="121.133" width="5.2" height="5.267" fill="#fcbf7f"/>
        <rect x="275.6" y="115.867" width="5.2" height="5.267" fill="#2099a3"/>
        <rect x="249.6" y="110.6" width="5.2" height="5.267" fill="#d2a164"/>
        <g>
          <polygon points="301.6 152.733 301.6 147.467 301.6 142.2 296.4 142.2 296.4 136.933 296.4 131.667 291.2 131.667 291.2 126.4 286 126.4 286 121.133 280.8 121.133 275.6 121.133 275.6 115.867 270.4 115.867 270.4 110.6 265.2 110.6 260 110.6 254.8 110.6 254.8 115.867 249.6 115.867 249.6 121.133 244.4 121.133 244.4 126.4 249.6 126.4 254.8 126.4 260 126.4 265.2 126.4 270.4 126.4 275.6 126.4 275.6 131.667 280.8 131.667 280.8 136.933 286 136.933 286 142.2 291.2 142.2 291.2 147.467 296.4 147.467 296.4 152.733 296.4 158 296.4 163.267 301.6 163.267 301.6 168.533 301.6 173.8 296.4 173.8 296.4 179.067 296.4 184.333 296.4 189.6 291.2 189.6 291.2 194.867 286 194.867 286 200.133 280.8 200.133 280.8 205.4 275.6 205.4 270.4 205.4 270.4 210.667 265.2 210.667 265.2 215.933 270.4 215.933 275.6 215.933 280.8 215.933 280.8 221.2 286 221.2 286 226.467 291.2 226.467 296.4 226.467 296.4 231.733 301.6 231.733 301.6 237 301.6 242.267 306.8 242.267 306.8 237 306.8 231.733 306.8 226.467 306.8 221.2 306.8 215.933 306.8 210.667 306.8 205.4 306.8 200.133 306.8 194.867 306.8 189.6 306.8 184.333 306.8 179.067 306.8 173.8 306.8 168.533 306.8 163.267 306.8 158 306.8 152.733 301.6 152.733" fill="#13949e"/>
          <polygon points="239.2 205.4 234 205.4 228.8 205.4 228.8 200.133 223.6 200.133 223.6 205.4 223.6 210.667 223.6 215.933 223.6 221.2 228.8 221.2 228.8 215.933 234 215.933 239.2 215.933 244.4 215.933 244.4 210.667 239.2 210.667 239.2 205.4" fill="#13949e"/>
          <rect x="218.4" y="194.867" width="5.2" height="5.267" fill="#13949e"/>
          <polygon points="218.4 147.467 218.4 142.2 223.6 142.2 223.6 136.933 223.6 131.667 228.8 131.667 228.8 126.4 234 126.4 239.2 126.4 239.2 121.133 234 121.133 234 115.867 228.8 115.867 228.8 110.6 223.6 110.6 218.4 110.6 213.2 110.6 213.2 115.867 208 115.867 202.8 115.867 202.8 121.133 202.8 126.4 197.6 126.4 197.6 131.667 192.4 131.667 192.4 136.933 187.2 136.933 187.2 142.2 182 142.2 182 147.467 182 152.733 176.8 152.733 176.8 158 182 158 187.2 158 192.4 158 192.4 163.267 197.6 163.267 197.6 168.533 202.8 168.533 202.8 173.8 208 173.8 208 179.067 213.2 179.067 213.2 173.8 213.2 168.533 213.2 163.267 213.2 158 213.2 152.733 218.4 152.733 218.4 147.467" fill="#13949e"/>
        </g>
        <rect x="202.8" y="110.6" width="5.2" height="5.267" fill="#ffc18f"/>
        <rect x="104" y="110.6" width="5.2" height="5.267" fill="#ffc18f"/>
        <rect x="57.2" y="110.6" width="5.2" height="5.267" fill="#734517"/>
        <g>
          <polygon points="67.6 121.133 62.4 121.133 62.4 115.867 57.2 115.867 57.2 110.6 52 110.6 46.8 110.6 41.6 110.6 41.6 115.867 36.4 115.867 31.2 115.867 31.2 121.133 26 121.133 26 126.4 20.8 126.4 20.8 131.667 15.6 131.667 15.6 136.933 15.6 142.2 20.8 142.2 20.8 136.933 26 136.933 26 131.667 31.2 131.667 36.4 131.667 36.4 126.4 41.6 126.4 46.8 126.4 52 126.4 57.2 126.4 62.4 126.4 67.6 126.4 67.6 121.133" fill="#e5d015"/>
          <g>
            <polygon points="83.2 205.4 78 205.4 72.8 205.4 72.8 210.667 67.6 210.667 67.6 215.933 72.8 215.933 78 215.933 83.2 215.933 83.2 221.2 88.4 221.2 88.4 215.933 88.4 210.667 88.4 205.4 88.4 200.133 83.2 200.133 83.2 205.4" fill="#e5d015"/>
            <rect x="88.4" y="194.867" width="5.2" height="5.267" fill="#e5d015"/>
            <polygon points="130 152.733 130 147.467 130 142.2 124.8 142.2 119.6 142.2 119.6 136.933 119.6 131.667 114.4 131.667 114.4 126.4 109.2 126.4 109.2 121.133 109.2 115.867 104 115.867 98.8 115.867 98.8 110.6 93.6 110.6 88.4 110.6 83.2 110.6 83.2 115.867 78 115.867 78 121.133 72.8 121.133 72.8 126.4 72.8 131.667 78 131.667 83.2 131.667 83.2 136.933 88.4 136.933 88.4 142.2 93.6 142.2 93.6 147.467 93.6 152.733 98.8 152.733 98.8 158 98.8 163.267 98.8 168.533 98.8 173.8 98.8 179.067 104 179.067 104 173.8 109.2 173.8 109.2 168.533 114.4 168.533 114.4 163.267 119.6 163.267 119.6 158 124.8 158 130 158 135.2 158 135.2 152.733 130 152.733" fill="#e5d015"/>
            <polygon points="41.6 205.4 36.4 205.4 31.2 205.4 31.2 200.133 26 200.133 26 194.867 20.8 194.867 20.8 189.6 15.6 189.6 15.6 184.333 15.6 179.067 15.6 173.8 10.4 173.8 10.4 168.533 10.4 163.267 10.4 158 15.6 158 15.6 152.733 15.6 147.467 15.6 142.2 10.4 142.2 10.4 147.467 10.4 152.733 5.2 152.733 5.2 158 5.2 163.267 5.2 168.533 5.2 173.8 5.2 179.067 5.2 184.333 5.2 189.6 5.2 194.867 5.2 200.133 5.2 205.4 5.2 210.667 5.2 215.933 5.2 221.2 5.2 226.467 5.2 231.733 5.2 237 5.2 242.267 10.4 242.267 10.4 237 10.4 231.733 15.6 231.733 15.6 226.467 20.8 226.467 26 226.467 26 221.2 31.2 221.2 31.2 215.933 36.4 215.933 41.6 215.933 46.8 215.933 46.8 210.667 41.6 210.667 41.6 205.4" fill="#e5d015"/>
          </g>
        </g>
        <rect x="249.6" y="105.333" width="5.2" height="5.267" fill="#dea668"/>
        <rect x="57.2" y="105.333" width="5.2" height="5.267" fill="#744723"/>
        <rect x="213.2" y="94.8" width="5.2" height="5.267" fill="#e0a666"/>
        <rect x="93.6" y="94.8" width="5.2" height="5.267" fill="#724420"/>
        <rect x="114.4" y="89.533" width="5.2" height="5.267" fill="#febd89"/>
        <rect x="109.2" y="89.533" width="5.2" height="5.267" fill="#35383c"/>
        <rect x="176.8" y="84.267" width="5.2" height="5.267" fill="#bd9270"/>
        <rect x="119.6" y="84.267" width="5.2" height="5.267" fill="#977961"/>
        <rect x="202.8" y="79" width="5.2" height="5.267" fill="#564d43"/>
        <rect x="161.2" y="79" width="5.2" height="5.267" fill="#edb282"/>
        <rect x="124.8" y="79" width="5.2" height="5.267" fill="#393b3e"/>
        <rect x="104" y="79" width="5.2" height="5.267" fill="#3c3937"/>
        <rect x="202.8" y="73.733" width="5.2" height="5.267" fill="#d49b5d"/>
        <rect x="156" y="73.733" width="5.2" height="5.267" fill="#3d3e3f"/>
        <rect x="104" y="73.733" width="5.2" height="5.267" fill="#5f3b1f"/>
        <rect x="197.6" y="68.467" width="5.2" height="5.267" fill="#a57e54"/>
        <polygon points="202.8 89.533 197.6 89.533 192.4 89.533 187.2 89.533 182 89.533 176.8 89.533 176.8 84.267 171.6 84.267 166.4 84.267 161.2 84.267 161.2 79 156 79 156 73.733 150.8 73.733 145.6 73.733 145.6 68.467 140.4 68.467 135.2 68.467 135.2 73.733 130 73.733 130 79 130 84.267 124.8 84.267 124.8 89.533 119.6 89.533 119.6 94.8 114.4 94.8 109.2 94.8 104 94.8 104 100.067 104 105.333 104 110.6 109.2 110.6 109.2 115.867 109.2 121.133 114.4 121.133 114.4 126.4 114.4 131.667 119.6 131.667 119.6 136.933 124.8 136.933 124.8 142.2 130 142.2 135.2 142.2 135.2 147.467 140.4 147.467 145.6 147.467 145.6 152.733 145.6 158 145.6 163.267 145.6 168.533 150.8 168.533 156 168.533 161.2 168.533 166.4 168.533 166.4 163.267 166.4 158 166.4 152.733 166.4 147.467 171.6 147.467 176.8 147.467 176.8 142.2 182 142.2 187.2 142.2 187.2 136.933 192.4 136.933 192.4 131.667 197.6 131.667 197.6 126.4 197.6 121.133 202.8 121.133 202.8 115.867 202.8 110.6 208 110.6 208 105.333 208 100.067 208 94.8 208 89.533 202.8 89.533" fill="#ffbe89"/>
        <rect x="130" y="68.467" width="5.2" height="5.267" fill="#3b3d3e"/>
        <rect x="109.2" y="68.467" width="5.2" height="5.267" fill="#393838"/>
        <rect x="192.4" y="63.2" width="5.2" height="5.267" fill="#42413f"/>
        <rect x="135.2" y="63.2" width="5.2" height="5.267" fill="#383b3d"/>
        <rect x="114.4" y="57.933" width="5.2" height="5.267" fill="#503a29"/>
        <rect x="291.2" y="52.667" width="5.2" height="5.267" fill="#e2ab70"/>
        <rect x="15.6" y="52.667" width="5.2" height="5.267" fill="#7c5130"/>
        <rect x="291.2" y="47.4" width="5.2" height="5.267" fill="#e3ae75"/>
        <g>
          <polygon points="109.2 258.067 109.2 252.8 109.2 247.533 104 247.533 104 242.267 104 237 98.8 237 98.8 231.733 93.6 231.733 93.6 226.467 88.4 226.467 88.4 221.2 83.2 221.2 83.2 215.933 78 215.933 72.8 215.933 67.6 215.933 67.6 221.2 67.6 226.467 62.4 226.467 57.2 226.467 52 226.467 46.8 226.467 46.8 221.2 46.8 215.933 41.6 215.933 36.4 215.933 31.2 215.933 31.2 221.2 26 221.2 26 226.467 20.8 226.467 15.6 226.467 15.6 231.733 10.4 231.733 10.4 237 10.4 242.267 5.2 242.267 5.2 247.533 5.2 252.8 0 252.8 0 258.067 0 263.333 0 268.6 0 273.867 0 279.133 0 284.4 0 289.667 0 294.933 0 300.2 0 305.467 0 310.733 0 316 5.2 316 10.4 316 15.6 316 20.8 316 26 316 31.2 316 36.4 316 41.6 316 46.8 316 52 316 57.2 316 62.4 316 67.6 316 72.8 316 78 316 83.2 316 88.4 316 93.6 316 98.8 316 104 316 109.2 316 114.4 316 114.4 310.733 114.4 305.467 114.4 300.2 114.4 294.933 114.4 289.667 114.4 284.4 114.4 279.133 114.4 273.867 114.4 268.6 114.4 263.333 114.4 258.067 109.2 258.067" fill="#34383c"/>
          <polygon points="202.8 84.267 202.8 79 202.8 73.733 197.6 73.733 197.6 68.467 192.4 68.467 192.4 63.2 192.4 57.933 187.2 57.933 182 57.933 182 52.667 176.8 52.667 176.8 47.4 171.6 47.4 166.4 47.4 161.2 47.4 156 47.4 150.8 47.4 145.6 47.4 140.4 47.4 135.2 47.4 130 47.4 130 52.667 124.8 52.667 124.8 57.933 119.6 57.933 119.6 63.2 114.4 63.2 114.4 68.467 114.4 73.733 109.2 73.733 109.2 79 109.2 84.267 104 84.267 104 89.533 104 94.8 109.2 94.8 109.2 89.533 114.4 89.533 119.6 89.533 119.6 84.267 124.8 84.267 124.8 79 130 79 130 73.733 130 68.467 135.2 68.467 135.2 63.2 140.4 63.2 140.4 68.467 145.6 68.467 145.6 73.733 150.8 73.733 156 73.733 161.2 73.733 161.2 79 166.4 79 166.4 84.267 171.6 84.267 176.8 84.267 182 84.267 182 89.533 187.2 89.533 192.4 89.533 197.6 89.533 202.8 89.533 208 89.533 208 84.267 202.8 84.267" fill="#34383c"/>
        </g>
        <rect x="20.8" y="47.4" width="5.2" height="5.267" fill="#6b3c17"/>
        <rect x="15.6" y="47.4" width="5.2" height="5.267" fill="#694326"/>
        <rect x="286" y="42.133" width="5.2" height="5.267" fill="#c68c50"/>
        <rect x="280.8" y="42.133" width="5.2" height="5.267" fill="#ab753e"/>
        <rect x="275.6" y="42.133" width="5.2" height="5.267" fill="#b77f46"/>
        <rect x="202.8" y="42.133" width="5.2" height="5.267" fill="#8b5929"/>
        <rect x="114.4" y="42.133" width="5.2" height="5.267" fill="#5f3412"/>
        <rect x="109.2" y="42.133" width="5.2" height="5.267" fill="#542d0f"/>
        <rect x="104" y="42.133" width="5.2" height="5.267" fill="#5a3111"/>
        <rect x="31.2" y="42.133" width="5.2" height="5.267" fill="#3f2007"/>
        <rect x="15.6" y="42.133" width="5.2" height="5.267" fill="#6c5b4e"/>
        <rect x="254.8" y="36.867" width="5.2" height="5.267" fill="#a6703b"/>
        <rect x="208" y="36.867" width="5.2" height="5.267" fill="#62350f"/>
        <rect x="83.2" y="36.867" width="5.2" height="5.267" fill="#552e0f"/>
        <rect x="36.4" y="36.867" width="5.2" height="5.267" fill="#2e1602"/>
        <rect x="244.4" y="31.6" width="5.2" height="5.267" fill="#cf9455"/>
        <rect x="213.2" y="31.6" width="5.2" height="5.267" fill="#9a6634"/>
        <rect x="72.8" y="31.6" width="5.2" height="5.267" fill="#673915"/>
        <rect x="234" y="26.333" width="5.2" height="5.267" fill="#a06b37"/>
        <polygon points="286 47.4 280.8 47.4 275.6 47.4 275.6 42.133 270.4 42.133 265.2 42.133 260 42.133 254.8 42.133 254.8 36.867 249.6 36.867 244.4 36.867 244.4 31.6 239.2 31.6 234 31.6 234 26.333 228.8 26.333 223.6 26.333 218.4 26.333 218.4 31.6 218.4 36.867 213.2 36.867 213.2 42.133 208 42.133 208 47.4 202.8 47.4 197.6 47.4 192.4 47.4 192.4 52.667 192.4 57.933 192.4 63.2 197.6 63.2 197.6 68.467 202.8 68.467 202.8 73.733 208 73.733 208 79 208 84.267 208 89.533 208 94.8 213.2 94.8 218.4 94.8 218.4 100.067 223.6 100.067 228.8 100.067 228.8 105.333 228.8 110.6 228.8 115.867 234 115.867 234 121.133 239.2 121.133 239.2 126.4 244.4 126.4 244.4 121.133 249.6 121.133 249.6 115.867 249.6 110.6 249.6 105.333 254.8 105.333 254.8 100.067 260 100.067 265.2 100.067 270.4 100.067 270.4 94.8 275.6 94.8 275.6 89.533 280.8 89.533 280.8 84.267 286 84.267 286 79 286 73.733 291.2 73.733 291.2 68.467 291.2 63.2 291.2 57.933 291.2 52.667 291.2 47.4 286 47.4" fill="#dfa260"/>
        <rect x="192.4" y="26.333" width="5.2" height="5.267" fill="#80624b"/>
        <rect x="62.4" y="26.333" width="5.2" height="5.267" fill="#542d0f"/>
        <polygon points="114.4 47.4 109.2 47.4 104 47.4 104 42.133 98.8 42.133 93.6 42.133 88.4 42.133 83.2 42.133 83.2 36.867 78 36.867 72.8 36.867 72.8 31.6 67.6 31.6 62.4 31.6 62.4 26.333 57.2 26.333 52 26.333 46.8 26.333 46.8 31.6 41.6 31.6 41.6 36.867 41.6 42.133 36.4 42.133 36.4 47.4 31.2 47.4 26 47.4 26 52.667 20.8 52.667 20.8 57.933 20.8 63.2 20.8 68.467 20.8 73.733 26 73.733 26 79 26 84.267 31.2 84.267 31.2 89.533 36.4 89.533 36.4 94.8 41.6 94.8 41.6 100.067 46.8 100.067 52 100.067 57.2 100.067 57.2 105.333 62.4 105.333 62.4 110.6 62.4 115.867 62.4 121.133 67.6 121.133 67.6 126.4 72.8 126.4 72.8 121.133 78 121.133 78 115.867 83.2 115.867 83.2 110.6 83.2 105.333 83.2 100.067 88.4 100.067 93.6 100.067 93.6 94.8 98.8 94.8 104 94.8 104 89.533 104 84.267 104 79 104 73.733 109.2 73.733 109.2 68.467 114.4 68.467 114.4 63.2 114.4 57.933 119.6 57.933 119.6 52.667 119.6 47.4 114.4 47.4" fill="#6c3c17"/>
        <rect x="280.8" y="21.067" width="5.2" height="5.267" fill="#4e2503"/>
        <rect x="223.6" y="21.067" width="5.2" height="5.267" fill="#7b4b1f"/>
        <rect x="218.4" y="21.067" width="5.2" height="5.267" fill="#8b5929"/>
        <rect x="52" y="21.067" width="5.2" height="5.267" fill="#432209"/>
        <rect x="46.8" y="21.067" width="5.2" height="5.267" fill="#3c1e06"/>
        <rect x="197.6" y="15.8" width="5.2" height="5.267" fill="#735238"/>
        <rect x="26" y="15.8" width="5.2" height="5.267" fill="#706155"/>
        <rect x="270.4" y="10.533" width="5.2" height="5.267" fill="#4f2604"/>
        <rect x="98.8" y="10.533" width="5.2" height="5.267" fill="#291301"/>
        <rect x="213.2" y="5.267" width="5.2" height="5.267" fill="#7c5d45"/>
        <rect x="41.6" y="5.267" width="5.2" height="5.267" fill="#291301"/>
        <rect x="249.6" width="5.2" height="5.267" fill="#4c2201"/>
        <polygon points="286 31.6 286 26.333 280.8 26.333 280.8 21.067 280.8 15.8 275.6 15.8 270.4 15.8 270.4 10.533 265.2 10.533 265.2 5.267 260 5.267 254.8 5.267 249.6 5.267 249.6 0 244.4 0 239.2 0 234 0 228.8 0 223.6 0 223.6 5.267 218.4 5.267 218.4 10.533 213.2 10.533 208 10.533 208 15.8 202.8 15.8 202.8 21.067 197.6 21.067 197.6 26.333 197.6 31.6 192.4 31.6 192.4 36.867 192.4 42.133 192.4 47.4 197.6 47.4 202.8 47.4 202.8 42.133 208 42.133 208 36.867 213.2 36.867 213.2 31.6 218.4 31.6 218.4 26.333 218.4 21.067 223.6 21.067 228.8 21.067 228.8 26.333 234 26.333 239.2 26.333 239.2 31.6 244.4 31.6 249.6 31.6 249.6 36.867 254.8 36.867 260 36.867 260 42.133 265.2 42.133 270.4 42.133 275.6 42.133 280.8 42.133 286 42.133 291.2 42.133 291.2 36.867 291.2 31.6 286 31.6" fill="#4b2100"/>
        <polygon points="114.4 26.333 114.4 21.067 109.2 21.067 109.2 15.8 104 15.8 98.8 15.8 98.8 10.533 93.6 10.533 93.6 5.267 88.4 5.267 83.2 5.267 83.2 0 78 0 72.8 0 67.6 0 62.4 0 57.2 0 57.2 5.267 52 5.267 46.8 5.267 46.8 10.533 41.6 10.533 36.4 10.533 36.4 15.8 31.2 15.8 31.2 21.067 26 21.067 26 26.333 26 31.6 20.8 31.6 20.8 36.867 20.8 42.133 20.8 47.4 26 47.4 31.2 47.4 31.2 42.133 36.4 42.133 36.4 36.867 41.6 36.867 41.6 31.6 46.8 31.6 46.8 26.333 46.8 21.067 52 21.067 57.2 21.067 57.2 26.333 62.4 26.333 67.6 26.333 67.6 31.6 72.8 31.6 78 31.6 78 36.867 83.2 36.867 88.4 36.867 88.4 42.133 93.6 42.133 98.8 42.133 104 42.133 109.2 42.133 114.4 42.133 119.6 42.133 119.6 36.867 119.6 31.6 114.4 31.6 114.4 26.333" fill="#281200"/>
        <rect x="52" width="5.2" height="5.267" fill="#291301"/>
        <g>
          <path d="M119.98,223.333V204.764c0-.561,0-.561.581-.561,1.257,0,2.515-.02,3.772.011.4.01.445-.128.444-.472-.013-2.892,0-5.784-.016-8.677,0-.34.069-.446.428-.44,1.341.024,2.682,0,4.023.016.278,0,.353-.079.35-.353-.013-1.327.013-2.655-.017-3.982-.009-.4.127-.467.488-.465,2.864.014,5.728,0,8.592.017.387,0,.522-.065.512-.489-.033-1.313,0-2.626-.019-3.94,0-.281.055-.376.36-.376q14,.014,28,0c.34,0,.383.124.38.414-.013,1.3.013,2.6-.017,3.9-.009.42.123.5.515.494,2.85-.018,5.7,0,8.55-.019.4,0,.538.065.534.511-.025,2.879-.007,5.757-.021,8.635,0,.336.062.45.426.444,1.327-.025,2.654,0,3.981-.018.31,0,.4.069.394.388-.014,2.92,0,5.84-.017,8.76,0,.344.073.441.428.435,1.341-.024,2.683,0,4.024-.016.27,0,.346.066.346.343q-.012,14.02,0,28.041c0,.274-.07.354-.346.352-1.356-.014-2.711,0-4.066-.015-.324-.005-.386.093-.384.4.011,2.92,0,5.84.015,8.76,0,.349-.09.441-.437.435-1.313-.022-2.627.007-3.94-.019-.365-.007-.425.109-.423.443.013,2.878-.005,5.757.02,8.635,0,.445-.131.513-.532.51-2.878-.017-5.757,0-8.635-.018-.355,0-.435.093-.43.437.022,1.327,0,2.654.015,3.982,0,.28-.053.38-.36.38q-14.021-.014-28.041,0c-.287,0-.339-.091-.337-.352.012-1.341-.01-2.683.016-4.023.007-.366-.109-.423-.442-.422-2.906.014-5.812,0-8.718.017-.358,0-.433-.1-.428-.439.021-1.313,0-2.627.016-3.94,0-.315-.059-.429-.405-.423-1.327.022-2.655,0-3.982.017-.329.005-.416-.084-.414-.414.013-2.906,0-5.812.017-8.718,0-.38-.1-.462-.465-.456-1.3.023-2.6-.011-3.9.021-.405.009-.444-.142-.444-.48Q119.987,232.68,119.98,223.333ZM134.341,247.3q0,2.219,0,4.438c0,.189-.023.344.266.34,1.506-.019,3.013-.017,4.519-.023,1.467.006,2.933.021,4.4.009.313,0,.4.077.393.392-.019,1.341,0,2.682-.014,4.023,0,.276.047.384.358.383q6.831-.015,13.661,0c.276,0,.354-.079.351-.352-.013-1.327.008-2.655-.015-3.981-.006-.363.079-.468.457-.466,2.905.018,5.81,0,8.716.018.358,0,.438-.1.433-.445-.019-1.327,0-2.654-.014-3.981,0-.3.081-.376.374-.373,1.313.015,2.626-.007,3.939.015.371.006.493-.077.491-.475-.019-2.906-.006-5.811-.018-8.717,0-.312.081-.4.4-.4,1.34.017,2.682,0,4.022.013.287,0,.381-.073.381-.373q-.012-14,0-27.993c0-.293-.074-.377-.37-.373-1.341.015-2.682-.006-4.023.015-.343.006-.407-.106-.405-.421.011-2.92,0-5.839.013-8.759,0-.3-.064-.407-.389-.4-1.326.019-2.654,0-3.98.017-.359.006-.438-.108-.433-.447.02-1.313,0-2.626.016-3.939,0-.336-.1-.417-.422-.415-1.955.015-3.911.01-5.866.007-1.1,0-2.206-.014-3.309-.021,0-1.465-.006-2.93.008-4.4,0-.283-.059-.378-.362-.378q-6.824.015-13.646,0c-.3,0-.368.084-.366.372.012,1.479,0,2.958,0,4.437l.006-.007q-4.623,0-9.244-.015c-.257,0-.328.063-.326.324.013,1.492.007,2.984.007,4.476l.006-.007c-1.478,0-2.956,0-4.434-.006-.243,0-.366.02-.365.325.015,3.082.012,6.163.014,9.245l.007-.006c-1.438,0-2.877.022-4.316,0-.408-.008-.494.1-.494.5q.02,13.872.01,27.742a1.82,1.82,0,0,1,0,.209c-.026.217.06.295.282.29.517-.013,1.034-.012,1.551,0,.99.017,1.981-.048,2.97.036l-.007-.007c0,3.043,0,6.086-.017,9.129,0,.367.117.426.448.423,1.451-.012,2.9,0,4.354.012Z" fill="#2a2a2a"/>
          <path d="M158.265,194.613c1.1.007,2.206.019,3.309.021,1.955,0,3.911.008,5.866-.007.325,0,.427.079.422.415-.019,1.313,0,2.626-.016,3.939,0,.339.074.453.433.447,1.326-.022,2.654,0,3.98-.017.325,0,.39.1.389.4-.011,2.92,0,5.839-.013,8.759,0,.315.062.427.405.421,1.341-.021,2.682,0,4.023-.015.3,0,.37.08.37.373q-.012,14,0,27.993c0,.3-.094.376-.381.373-1.34-.013-2.682,0-4.022-.013-.315,0-.4.084-.4.4.012,2.906,0,5.811.018,8.717,0,.4-.12.481-.491.475-1.313-.022-2.626,0-3.939-.015-.293,0-.378.078-.374.373.015,1.327-.005,2.654.014,3.981,0,.34-.075.447-.433.445-2.906-.015-5.811,0-8.716-.018-.378,0-.463.1-.457.466.023,1.326,0,2.654.015,3.981,0,.273-.075.352-.351.352q-6.829-.012-13.661,0c-.311,0-.361-.107-.358-.383.013-1.341-.005-2.682.014-4.023,0-.315-.08-.4-.393-.392-1.466.012-2.932,0-4.4-.009,0-1.448-.007-2.9.009-4.344,0-.316-.064-.424-.405-.419-1.462.02-2.924.008-4.386.008l.007.007q0-2.216-.006-4.431,0-2.4,0-4.808c0-.19.02-.354-.265-.351-1.5.017-3.009.019-4.514.026l.007.007c0-.14-.013-.279-.013-.418q0-13.988,0-27.974c0-.125.007-.251.011-.376l-.007.006c1.453,0,2.905-.011,4.357.01.354,0,.433-.1.431-.441-.012-3.044,0-6.089,0-9.133l-.006.007,9.567,0v42.655c0,.139.01.279.016.418-.006,1.439,0,2.878-.025,4.316-.008.388.1.48.482.479q9.053-.018,18.106-.01c.632,0,.574.1.574-.583q0-23.367,0-46.733c0-.1-.008-.2,0-.293.02-.209-.083-.257-.273-.255q-2.263.016-4.525.022L143.9,199.43l0-4.788-.006.007c.167,0,.334-.014.5-.014h13.365C157.931,194.634,158.1,194.62,158.265,194.613Z" fill="#fdd600"/>
          <path d="M129.568,208.978c0,.125-.011.251-.011.376q0,13.987,0,27.974c0,.139.008.278.013.418-.989-.084-1.98-.019-2.97-.036-.517-.009-1.034-.01-1.551,0-.222,0-.308-.073-.282-.29a1.82,1.82,0,0,0,0-.209q0-13.87-.01-27.742c0-.4.086-.507.494-.5C126.691,209,128.13,208.98,129.568,208.978Z" fill="#f6f6f6"/>
          <path d="M158.265,194.613c-.167.007-.334.021-.5.021H144.4c-.168,0-.335.009-.5.014,0-1.479.014-2.958,0-4.437,0-.288.068-.373.366-.372q6.824.015,13.646,0c.3,0,.364.095.362.378C158.259,191.683,158.265,193.148,158.265,194.613Z" fill="#f6f6f6"/>
          <path d="M143.9,194.642l0,4.788.007-.007-9.567,0c0-1.492.006-2.984-.007-4.476,0-.261.069-.325.326-.324Q139.281,194.645,143.9,194.642Z" fill="#f6f6f6"/>
          <path d="M134.346,199.42c0,3.044-.009,6.089,0,9.133,0,.342-.077.446-.431.441-1.452-.021-2.9-.01-4.357-.01,0-3.082,0-6.163-.014-9.245,0-.305.122-.327.365-.325C131.39,199.423,132.868,199.42,134.346,199.42Z" fill="#f6f6f6"/>
          <path d="M129.563,237.739c1.505-.007,3.009-.009,4.514-.026.285,0,.266.161.265.351q0,2.4,0,4.808,0,2.215.006,4.431c-1.451-.007-2.9-.024-4.354-.012-.331,0-.451-.056-.448-.423C129.565,243.825,129.561,240.782,129.563,237.739Z" fill="#f6f6f6"/>
          <path d="M134.341,247.3c1.462,0,2.924.012,4.386-.008.341-.005.409.1.405.419-.016,1.448-.008,2.9-.009,4.344-1.506.006-3.013,0-4.519.023-.289,0-.266-.151-.266-.34Q134.343,249.515,134.341,247.3Z" fill="#f6f6f6"/>
          <path d="M158.264,199.439q2.262-.009,4.525-.022c.19,0,.293.046.273.255-.009.1,0,.195,0,.293q0,23.367,0,46.733c0,.687.058.583-.574.583q-9.053,0-18.106.01c-.38,0-.49-.091-.482-.479.029-1.438.019-2.877.025-4.316l4.756-.022c.152.008.305.023.458.023h8.591c.537,0,.537,0,.537-.54q0-18.649,0-37.3c0-.153-.013-.306-.02-.459Z" fill="#2a2a2a"/>
          <path d="M158.264,199.439q-.011,2.381-.02,4.761c-3.045,0-6.091.008-9.136,0-.351,0-.434.089-.433.436q.017,8.885.008,17.769,0,10.037,0,20.074l-4.756.022c-.006-.139-.016-.279-.016-.418V199.423l-.007.007Z" fill="#f6f6f6"/>
          <path d="M148.679,242.474q0-10.036,0-20.074,0-8.885-.008-17.769c0-.347.082-.438.433-.436,3.045.013,6.091.006,9.136,0,.007.153.02.306.02.459q0,18.65,0,37.3c0,.539,0,.54-.537.54h-8.591C148.984,242.5,148.831,242.482,148.679,242.474Z" fill="#fdd600"/>
        </g>
      </g>
    </g>
  </g>
</svg>
