<svg xmlns="http://www.w3.org/2000/svg" width="279" height="235" viewBox="0 0 279 235">
  <g id="Layer_2" data-name="Layer 2">
    <g id="Layer_1-2" data-name="Layer 1">
      <g>
        <g id="Layer_2-2" data-name="Layer 2">
          <g id="Layer_6" data-name="Layer 6">
            <g>
              <rect x="254.2" y="228.816" width="6.2" height="6.184" fill="#1a2445"/>
              <rect x="18.6" y="228.816" width="6.2" height="6.184" fill="#162554"/>
              <rect x="266.6" y="222.632" width="6.2" height="6.184" fill="#172550"/>
              <rect x="6.2" y="222.632" width="6.2" height="6.184" fill="#212328"/>
              <rect x="260.4" y="216.447" width="6.2" height="6.184" fill="#1658cf"/>
              <rect x="241.8" y="216.447" width="6.2" height="6.184" fill="#229de0"/>
              <rect x="235.6" y="216.447" width="6.2" height="6.184" fill="#29b1ea"/>
              <rect x="229.4" y="216.447" width="6.2" height="6.184" fill="#29b1ea"/>
              <rect x="223.2" y="216.447" width="6.2" height="6.184" fill="#29b1ea"/>
              <rect x="217" y="216.447" width="6.2" height="6.184" fill="#29b1ea"/>
              <rect x="210.8" y="216.447" width="6.2" height="6.184" fill="#29b1ea"/>
              <rect x="204.6" y="216.447" width="6.2" height="6.184" fill="#29b1ea"/>
              <rect x="198.4" y="216.447" width="6.2" height="6.184" fill="#29b1ea"/>
              <rect x="192.2" y="216.447" width="6.2" height="6.184" fill="#29b1ea"/>
              <rect x="186" y="216.447" width="6.2" height="6.184" fill="#29b1ea"/>
              <rect x="179.8" y="216.447" width="6.2" height="6.184" fill="#29b1ea"/>
              <rect x="173.6" y="216.447" width="6.2" height="6.184" fill="#29b1ea"/>
              <rect x="167.4" y="216.447" width="6.2" height="6.184" fill="#29b1ea"/>
              <rect x="161.2" y="216.447" width="6.2" height="6.184" fill="#29b1ea"/>
              <rect x="155" y="216.447" width="6.2" height="6.184" fill="#29b1ea"/>
              <rect x="148.8" y="216.447" width="6.2" height="6.184" fill="#29b1ea"/>
              <rect x="142.6" y="216.447" width="6.2" height="6.184" fill="#29b1ea"/>
              <rect x="136.4" y="216.447" width="6.2" height="6.184" fill="#29b1ea"/>
              <rect x="130.2" y="216.447" width="6.2" height="6.184" fill="#29b1ea"/>
              <rect x="124" y="216.447" width="6.2" height="6.184" fill="#29b1ea"/>
              <rect x="117.8" y="216.447" width="6.2" height="6.184" fill="#29b1ea"/>
              <rect x="111.6" y="216.447" width="6.2" height="6.184" fill="#29b1ea"/>
              <rect x="105.4" y="216.447" width="6.2" height="6.184" fill="#29b1ea"/>
              <rect x="99.2" y="216.447" width="6.2" height="6.184" fill="#29b1ea"/>
              <rect x="93" y="216.447" width="6.2" height="6.184" fill="#29b1ea"/>
              <rect x="86.8" y="216.447" width="6.2" height="6.184" fill="#29b1ea"/>
              <rect x="80.6" y="216.447" width="6.2" height="6.184" fill="#29b1ea"/>
              <rect x="74.4" y="216.447" width="6.2" height="6.184" fill="#29b1ea"/>
              <rect x="68.2" y="216.447" width="6.2" height="6.184" fill="#29b1ea"/>
              <rect x="62" y="216.447" width="6.2" height="6.184" fill="#29b1ea"/>
              <rect x="55.8" y="216.447" width="6.2" height="6.184" fill="#29b1ea"/>
              <rect x="49.6" y="216.447" width="6.2" height="6.184" fill="#29b1ea"/>
              <rect x="43.4" y="216.447" width="6.2" height="6.184" fill="#29b1ea"/>
              <rect x="37.2" y="216.447" width="6.2" height="6.184" fill="#29b1ea"/>
              <rect x="31" y="216.447" width="6.2" height="6.184" fill="#2096de"/>
              <rect x="24.8" y="216.447" width="6.2" height="6.184" fill="#002caf"/>
              <rect x="12.4" y="216.447" width="6.2" height="6.184" fill="#083dbc"/>
              <rect x="6.2" y="216.447" width="6.2" height="6.184" fill="#216edf"/>
              <rect x="272.8" y="210.263" width="6.2" height="6.184" fill="#0a2885"/>
              <rect x="266.6" y="210.263" width="6.2" height="6.184" fill="#216ee0"/>
              <g>
                <polygon points="254.2 222.632 248 222.632 241.8 222.632 235.6 222.632 235.6 228.816 241.8 228.816 248 228.816 254.2 228.816 260.4 228.816 266.6 228.816 266.6 222.632 260.4 222.632 254.2 222.632" fill="#2371e2"/>
                <polygon points="223.2 222.632 217 222.632 210.8 222.632 204.6 222.632 204.6 228.816 210.8 228.816 217 228.816 223.2 228.816 229.4 228.816 235.6 228.816 235.6 222.632 229.4 222.632 223.2 222.632" fill="#2371e2"/>
                <polygon points="192.2 222.632 186 222.632 179.8 222.632 173.6 222.632 173.6 228.816 179.8 228.816 186 228.816 192.2 228.816 198.4 228.816 204.6 228.816 204.6 222.632 198.4 222.632 192.2 222.632" fill="#2371e2"/>
                <polygon points="161.2 222.632 155 222.632 148.8 222.632 142.6 222.632 142.6 228.816 148.8 228.816 155 228.816 161.2 228.816 167.4 228.816 173.6 228.816 173.6 222.632 167.4 222.632 161.2 222.632" fill="#2371e2"/>
                <polygon points="130.2 222.632 124 222.632 117.8 222.632 111.6 222.632 105.4 222.632 99.2 222.632 93 222.632 86.8 222.632 80.6 222.632 74.4 222.632 68.2 222.632 62 222.632 55.8 222.632 49.6 222.632 43.4 222.632 37.2 222.632 31 222.632 24.8 222.632 18.6 222.632 12.4 222.632 12.4 228.816 18.6 228.816 24.8 228.816 31 228.816 37.2 228.816 43.4 228.816 49.6 228.816 55.8 228.816 62 228.816 68.2 228.816 74.4 228.816 80.6 228.816 86.8 228.816 93 228.816 99.2 228.816 105.4 228.816 111.6 228.816 117.8 228.816 124 228.816 130.2 228.816 136.4 228.816 142.6 228.816 142.6 222.632 136.4 222.632 130.2 222.632" fill="#2371e2"/>
                <rect x="266.6" y="216.447" width="6.2" height="6.184" fill="#2371e2"/>
                <rect x="6.2" y="210.263" width="6.2" height="6.184" fill="#2371e2"/>
              </g>
              <rect y="210.263" width="6.2" height="6.184" fill="#1d2439"/>
              <rect x="241.8" y="204.079" width="6.2" height="6.184" fill="#f0f9fd"/>
              <rect x="31" y="204.079" width="6.2" height="6.184" fill="#daf1fb"/>
              <rect y="204.079" width="6.2" height="6.184" fill="#002aae"/>
              <rect x="241.8" y="197.895" width="6.2" height="6.184" fill="#64c8f0"/>
              <rect x="31" y="197.895" width="6.2" height="6.184" fill="#94d9f4"/>
              <rect x="272.8" y="191.711" width="6.2" height="6.184" fill="#002aac"/>
              <rect x="254.2" y="191.711" width="6.2" height="6.184" fill="#32b7eb"/>
              <rect x="18.6" y="191.711" width="6.2" height="6.184" fill="#8fd7f4"/>
              <rect y="191.711" width="6.2" height="6.184" fill="#122663"/>
              <rect x="254.2" y="185.526" width="6.2" height="6.184" fill="#ecf8fc"/>
              <rect y="185.526" width="6.2" height="6.184" fill="#242424"/>
              <rect x="254.2" y="179.342" width="6.2" height="6.184" fill="#86d4f3"/>
              <rect x="235.6" y="179.342" width="6.2" height="6.184" fill="#c7c7c7"/>
              <rect x="37.2" y="179.342" width="6.2" height="6.184" fill="#e9e9e9"/>
              <rect x="18.6" y="179.342" width="6.2" height="6.184" fill="#51c1ee"/>
              <rect x="241.8" y="173.158" width="6.2" height="6.184" fill="#f9f9f9"/>
              <rect x="210.8" y="173.158" width="6.2" height="6.184" fill="#c06a0e"/>
              <rect x="204.6" y="173.158" width="6.2" height="6.184" fill="#e27a0a"/>
              <rect x="198.4" y="173.158" width="6.2" height="6.184" fill="#e27a0a"/>
              <rect x="192.2" y="173.158" width="6.2" height="6.184" fill="#2f2821"/>
              <rect x="167.4" y="173.158" width="6.2" height="6.184" fill="#7b4b17"/>
              <rect x="161.2" y="173.158" width="6.2" height="6.184" fill="#e27a0a"/>
              <rect x="155" y="173.158" width="6.2" height="6.184" fill="#e27a0a"/>
              <rect x="148.8" y="173.158" width="6.2" height="6.184" fill="#7d4b17"/>
              <rect x="117.8" y="173.158" width="6.2" height="6.184" fill="#e27a0a"/>
              <rect x="111.6" y="173.158" width="6.2" height="6.184" fill="#e27a0a"/>
              <rect x="105.4" y="173.158" width="6.2" height="6.184" fill="#c26b0e"/>
              <rect x="74.4" y="173.158" width="6.2" height="6.184" fill="#e27a0a"/>
              <rect x="68.2" y="173.158" width="6.2" height="6.184" fill="#e27a0a"/>
              <rect x="62" y="173.158" width="6.2" height="6.184" fill="#e27a0a"/>
              <rect x="266.6" y="166.974" width="6.2" height="6.184" fill="#092889"/>
              <rect x="217" y="166.974" width="6.2" height="6.184" fill="#e27a0a"/>
              <rect x="186" y="166.974" width="6.2" height="6.184" fill="#dd770a"/>
              <rect x="173.6" y="166.974" width="6.2" height="6.184" fill="#e27a0a"/>
              <rect x="142.6" y="166.974" width="6.2" height="6.184" fill="#e27a0a"/>
              <rect x="130.2" y="166.974" width="6.2" height="6.184" fill="#db770a"/>
              <rect x="124" y="166.974" width="6.2" height="6.184" fill="#e3a407"/>
              <rect x="99.2" y="166.974" width="6.2" height="6.184" fill="#e27a0a"/>
              <rect x="80.6" y="166.974" width="6.2" height="6.184" fill="#e27c09"/>
              <rect x="55.8" y="166.974" width="6.2" height="6.184" fill="#e39d08"/>
              <rect x="49.6" y="166.974" width="6.2" height="6.184" fill="#342b20"/>
              <rect x="12.4" y="166.974" width="6.2" height="6.184" fill="#094bbc"/>
              <rect x="6.2" y="166.974" width="6.2" height="6.184" fill="#1b243d"/>
              <rect x="266.6" y="160.789" width="6.2" height="6.184" fill="#525252"/>
              <rect x="241.8" y="160.789" width="6.2" height="6.184" fill="#898989"/>
              <rect x="93" y="160.789" width="6.2" height="6.184" fill="#724618"/>
              <rect x="86.8" y="160.789" width="6.2" height="6.184" fill="#955713"/>
              <rect x="49.6" y="160.789" width="6.2" height="6.184" fill="#e27c09"/>
              <rect x="217" y="154.605" width="6.2" height="6.184" fill="#e4ba07"/>
              <rect x="186" y="154.605" width="6.2" height="6.184" fill="#945613"/>
              <rect x="179.8" y="154.605" width="6.2" height="6.184" fill="#e27a0a"/>
              <rect x="173.6" y="154.605" width="6.2" height="6.184" fill="#da7a0a"/>
              <rect x="142.6" y="154.605" width="6.2" height="6.184" fill="#db7b0a"/>
              <rect x="136.4" y="154.605" width="6.2" height="6.184" fill="#e27a0a"/>
              <rect x="130.2" y="154.605" width="6.2" height="6.184" fill="#965713"/>
              <rect x="99.2" y="154.605" width="6.2" height="6.184" fill="#e4bb07"/>
              <rect x="93" y="154.605" width="6.2" height="6.184" fill="#e27a0a"/>
              <rect x="86.8" y="154.605" width="6.2" height="6.184" fill="#e27a0a"/>
              <rect x="31" y="154.605" width="6.2" height="6.184" fill="#a6a6a6"/>
              <rect x="260.4" y="148.421" width="6.2" height="6.184" fill="#14265c"/>
              <rect x="254.2" y="148.421" width="6.2" height="6.184" fill="#0337b4"/>
              <rect x="198.4" y="148.421" width="6.2" height="6.184" fill="#e27a0a"/>
              <rect x="167.4" y="148.421" width="6.2" height="6.184" fill="#e28a08"/>
              <rect x="155" y="148.421" width="6.2" height="6.184" fill="#372c20"/>
              <rect x="117.8" y="148.421" width="6.2" height="6.184" fill="#895115"/>
              <rect x="105.4" y="148.421" width="6.2" height="6.184" fill="#e3a607"/>
              <rect x="74.4" y="148.421" width="6.2" height="6.184" fill="#e27a0a"/>
              <rect x="31" y="148.421" width="6.2" height="6.184" fill="#edf8fd"/>
              <rect x="18.6" y="148.421" width="6.2" height="6.184" fill="#1675cf"/>
              <rect x="12.4" y="148.421" width="6.2" height="6.184" fill="#04299d"/>
              <rect x="260.4" y="142.237" width="6.2" height="6.184" fill="#595959"/>
              <rect x="161.2" y="142.237" width="6.2" height="6.184" fill="#362b20"/>
              <rect x="155" y="142.237" width="6.2" height="6.184" fill="#cf710c"/>
              <rect x="117.8" y="142.237" width="6.2" height="6.184" fill="#e27a0a"/>
              <rect x="74.4" y="142.237" width="6.2" height="6.184" fill="#e4c407"/>
              <rect x="217" y="136.053" width="6.2" height="6.184" fill="#e27a0a"/>
              <rect x="210.8" y="136.053" width="6.2" height="6.184" fill="#e27a0a"/>
              <rect x="204.6" y="136.053" width="6.2" height="6.184" fill="#e27a0a"/>
              <rect x="198.4" y="136.053" width="6.2" height="6.184" fill="#9f5b12"/>
              <rect x="167.4" y="136.053" width="6.2" height="6.184" fill="#e29708"/>
              <rect x="161.2" y="136.053" width="6.2" height="6.184" fill="#e27a0a"/>
              <rect x="155" y="136.053" width="6.2" height="6.184" fill="#e27a0a"/>
              <rect x="117.8" y="136.053" width="6.2" height="6.184" fill="#e27a0a"/>
              <rect x="111.6" y="136.053" width="6.2" height="6.184" fill="#e27a0a"/>
              <rect x="105.4" y="136.053" width="6.2" height="6.184" fill="#e3b407"/>
              <rect x="74.4" y="136.053" width="6.2" height="6.184" fill="#ca6f0c"/>
              <rect x="68.2" y="136.053" width="6.2" height="6.184" fill="#e27a0a"/>
              <rect x="62" y="136.053" width="6.2" height="6.184" fill="#e27a0a"/>
              <rect x="55.8" y="136.053" width="6.2" height="6.184" fill="#844e15"/>
              <rect x="248" y="129.868" width="6.2" height="6.184" fill="#2096de"/>
              <rect x="223.2" y="129.868" width="6.2" height="6.184" fill="#dd770a"/>
              <rect x="186" y="129.868" width="6.2" height="6.184" fill="#c66d0d"/>
              <rect x="142.6" y="129.868" width="6.2" height="6.184" fill="#e27a0a"/>
              <rect x="99.2" y="129.868" width="6.2" height="6.184" fill="#e29508"/>
              <rect x="86.8" y="129.868" width="6.2" height="6.184" fill="#e27a0a"/>
              <rect x="37.2" y="129.868" width="6.2" height="6.184" fill="#fefefe"/>
              <rect x="223.2" y="123.684" width="6.2" height="6.184" fill="#995813"/>
              <rect x="186" y="123.684" width="6.2" height="6.184" fill="#7b4b17"/>
              <rect x="142.6" y="123.684" width="6.2" height="6.184" fill="#e29308"/>
              <rect x="86.8" y="123.684" width="6.2" height="6.184" fill="#e29b08"/>
              <rect x="241.8" y="117.5" width="6.2" height="6.184" fill="#13265f"/>
              <rect x="217" y="117.5" width="6.2" height="6.184" fill="#3c2e1f"/>
              <rect x="198.4" y="117.5" width="6.2" height="6.184" fill="#e4be07"/>
              <rect x="192.2" y="117.5" width="6.2" height="6.184" fill="#332a20"/>
              <rect x="167.4" y="117.5" width="6.2" height="6.184" fill="#e4bc07"/>
              <rect x="148.8" y="117.5" width="6.2" height="6.184" fill="#965713"/>
              <rect x="124" y="117.5" width="6.2" height="6.184" fill="#e18908"/>
              <rect x="105.4" y="117.5" width="6.2" height="6.184" fill="#df8509"/>
              <rect x="80.6" y="117.5" width="6.2" height="6.184" fill="#9e5a12"/>
              <g>
                <path d="M161.2,166.974H148.8v6.184h24.8v-6.184Z" fill="#e5c507"/>
                <path d="M111.6,166.974h-6.2v6.184H124v-6.184Z" fill="#e5c507"/>
                <path d="M68.2,166.974H62v6.184H80.6v-6.184Z" fill="#e5c507"/>
                <rect x="173.6" y="160.789" width="6.2" height="6.184" fill="#e5c507"/>
                <path d="M161.2,154.6H155V136.053H142.6V154.6h6.2v6.184h-6.2v6.184h31V154.6Z" fill="#e5c507"/>
                <rect x="167.4" y="142.237" width="6.2" height="6.184" fill="#e5c507"/>
                <path d="M111.6,148.421v-6.184h-6.2v-6.184H80.6V154.6H55.8v12.368h31V154.6h18.6v-6.184Z" fill="#e5c507"/>
                <g>
                  <path d="M217,160.789V154.6H204.6v12.368h18.6v-6.184Z" fill="#e5c507"/>
                  <polygon points="192.2 166.974 192.2 173.158 198.4 173.158 204.6 173.158 204.6 166.974 198.4 166.974 192.2 166.974" fill="#e5c507"/>
                  <path d="M204.6,173.158H217v-6.184H204.6Z" fill="#e5c507"/>
                  <path d="M198.4,136.053H173.6V154.6h18.6v6.184H186v6.184h18.6V154.6h-6.2v-6.184h6.2v-6.184h-6.2Z" fill="#e5c507"/>
                </g>
                <path d="M130.2,136.053H124V154.6H105.4v6.184H99.2v6.184h37.2v-6.184h-6.2V154.6h12.4V136.053Z" fill="#e5c507"/>
                <path d="M179.8,129.868v-6.184h-6.2v12.368h6.2Z" fill="#e5c507"/>
                <path d="M105.4,136.052h31V123.684H124V117.5H111.6v6.184H99.2v6.184h6.2Z" fill="#e5c507"/>
                <path d="M68.2,136.052H86.8V123.684H80.6V117.5H68.2v6.184H55.8v12.368Z" fill="#e5c507"/>
                <path d="M217,123.684V117.5H204.6v18.552h18.6V123.684Z" fill="#e5c507"/>
                <path d="M192.2,123.684v12.368h12.4V123.684Z" fill="#e5c507"/>
                <path d="M167.4,117.5H155v6.184h-6.2v12.368h24.8V123.684h-6.2Z" fill="#e5c507"/>
              </g>
              <rect x="62" y="117.5" width="6.2" height="6.184" fill="#e4ba07"/>
              <rect x="31" y="117.5" width="6.2" height="6.184" fill="#1a2444"/>
              <rect x="43.4" y="111.316" width="6.2" height="6.184" fill="#e5f6fc"/>
              <rect x="217" y="105.132" width="6.2" height="6.184" fill="#b3b3b3"/>
              <rect x="198.4" y="105.132" width="6.2" height="6.184" fill="#333"/>
              <rect x="142.6" y="105.132" width="6.2" height="6.184" fill="#252525"/>
              <rect x="136.4" y="105.132" width="6.2" height="6.184" fill="#909090"/>
              <rect x="105.4" y="105.132" width="6.2" height="6.184" fill="#323232"/>
              <rect x="55.8" y="105.132" width="6.2" height="6.184" fill="#a6a6a6"/>
              <rect x="235.6" y="98.947" width="6.2" height="6.184" fill="#062993"/>
              <rect x="229.4" y="98.947" width="6.2" height="6.184" fill="#0847bb"/>
              <rect x="217" y="98.947" width="6.2" height="6.184" fill="#79cff2"/>
              <rect x="167.4" y="98.947" width="6.2" height="6.184" fill="#9c9c9c"/>
              <rect x="155" y="98.947" width="6.2" height="6.184" fill="#bdbdbd"/>
              <rect x="136.4" y="98.947" width="6.2" height="6.184" fill="#e5e5e5"/>
              <rect x="55.8" y="98.947" width="6.2" height="6.184" fill="#dbf2fb"/>
              <rect x="37.2" y="98.947" width="6.2" height="6.184" fill="#192447"/>
              <rect x="210.8" y="92.763" width="6.2" height="6.184" fill="#242424"/>
              <rect x="204.6" y="92.763" width="6.2" height="6.184" fill="#333"/>
              <rect x="167.4" y="92.763" width="6.2" height="6.184" fill="#363636"/>
              <rect x="142.6" y="92.763" width="6.2" height="6.184" fill="#f1f1f1"/>
              <rect x="229.4" y="86.579" width="6.2" height="6.184" fill="#1b243f"/>
              <rect x="192.2" y="86.579" width="6.2" height="6.184" fill="#afafaf"/>
              <rect x="186" y="86.579" width="6.2" height="6.184" fill="#cdcdcd"/>
              <rect x="179.8" y="86.579" width="6.2" height="6.184" fill="#cdcdcd"/>
              <rect x="173.6" y="86.579" width="6.2" height="6.184" fill="#cdcdcd"/>
              <rect x="167.4" y="86.579" width="6.2" height="6.184" fill="#cdcdcd"/>
              <rect x="161.2" y="86.579" width="6.2" height="6.184" fill="#b3b3b3"/>
              <rect x="155" y="86.579" width="6.2" height="6.184" fill="#595959"/>
              <rect x="111.6" y="86.579" width="6.2" height="6.184" fill="#cdcdcd"/>
              <rect x="105.4" y="86.579" width="6.2" height="6.184" fill="#cdcdcd"/>
              <rect x="99.2" y="86.579" width="6.2" height="6.184" fill="#cdcdcd"/>
              <rect x="93" y="86.579" width="6.2" height="6.184" fill="#cdcdcd"/>
              <rect x="86.8" y="86.579" width="6.2" height="6.184" fill="#cdcdcd"/>
              <rect x="80.6" y="86.579" width="6.2" height="6.184" fill="#727272"/>
              <rect x="62" y="86.579" width="6.2" height="6.184" fill="#fbfbfb"/>
              <g>
                <polygon points="223.2 210.263 217 210.263 210.8 210.263 204.6 210.263 204.6 216.447 210.8 216.447 217 216.447 223.2 216.447 229.4 216.447 235.6 216.447 235.6 210.263 229.4 210.263 223.2 210.263" fill="#2ab4eb"/>
                <polygon points="192.2 210.263 186 210.263 179.8 210.263 173.6 210.263 173.6 216.447 179.8 216.447 186 216.447 192.2 216.447 198.4 216.447 204.6 216.447 204.6 210.263 198.4 210.263 192.2 210.263" fill="#2ab4eb"/>
                <polygon points="161.2 210.263 155 210.263 148.8 210.263 142.6 210.263 142.6 216.447 148.8 216.447 155 216.447 161.2 216.447 167.4 216.447 173.6 216.447 173.6 210.263 167.4 210.263 161.2 210.263" fill="#2ab4eb"/>
                <polygon points="260.4 197.895 254.2 197.895 254.2 204.079 248 204.079 248 210.263 241.8 210.263 235.6 210.263 235.6 216.447 241.8 216.447 248 216.447 254.2 216.447 260.4 216.447 260.4 210.263 266.6 210.263 266.6 204.079 266.6 197.895 266.6 191.711 260.4 191.711 260.4 197.895" fill="#2ab4eb"/>
                <polygon points="248 191.711 241.8 191.711 235.6 191.711 235.6 197.895 235.6 204.079 241.8 204.079 241.8 197.895 248 197.895 254.2 197.895 254.2 191.711 248 191.711" fill="#2ab4eb"/>
                <polygon points="223.2 191.711 217 191.711 210.8 191.711 204.6 191.711 204.6 197.895 204.6 204.079 210.8 204.079 217 204.079 223.2 204.079 229.4 204.079 235.6 204.079 235.6 197.895 235.6 191.711 229.4 191.711 223.2 191.711" fill="#2ab4eb"/>
                <polygon points="192.2 191.711 186 191.711 179.8 191.711 173.6 191.711 173.6 197.895 173.6 204.079 179.8 204.079 186 204.079 192.2 204.079 198.4 204.079 204.6 204.079 204.6 197.895 204.6 191.711 198.4 191.711 192.2 191.711" fill="#2ab4eb"/>
                <polygon points="161.2 191.711 155 191.711 148.8 191.711 142.6 191.711 142.6 197.895 142.6 204.079 148.8 204.079 155 204.079 161.2 204.079 167.4 204.079 173.6 204.079 173.6 197.895 173.6 191.711 167.4 191.711 161.2 191.711" fill="#2ab4eb"/>
                <polygon points="130.2 191.711 124 191.711 117.8 191.711 111.6 191.711 105.4 191.711 99.2 191.711 93 191.711 86.8 191.711 80.6 191.711 74.4 191.711 68.2 191.711 62 191.711 55.8 191.711 49.6 191.711 43.4 191.711 37.2 191.711 31 191.711 24.8 191.711 24.8 197.895 31 197.895 37.2 197.895 37.2 204.079 43.4 204.079 49.6 204.079 55.8 204.079 62 204.079 68.2 204.079 74.4 204.079 80.6 204.079 86.8 204.079 93 204.079 99.2 204.079 105.4 204.079 111.6 204.079 117.8 204.079 124 204.079 130.2 204.079 136.4 204.079 142.6 204.079 142.6 197.895 142.6 191.711 136.4 191.711 130.2 191.711" fill="#2ab4eb"/>
                <polygon points="18.6 191.711 12.4 191.711 12.4 197.895 12.4 204.079 12.4 210.263 18.6 210.263 18.6 216.447 24.8 216.447 31 216.447 37.2 216.447 43.4 216.447 49.6 216.447 55.8 216.447 62 216.447 68.2 216.447 74.4 216.447 80.6 216.447 86.8 216.447 93 216.447 99.2 216.447 105.4 216.447 111.6 216.447 117.8 216.447 124 216.447 130.2 216.447 136.4 216.447 142.6 216.447 142.6 210.263 136.4 210.263 130.2 210.263 124 210.263 117.8 210.263 111.6 210.263 105.4 210.263 99.2 210.263 93 210.263 86.8 210.263 80.6 210.263 74.4 210.263 68.2 210.263 62 210.263 55.8 210.263 49.6 210.263 43.4 210.263 37.2 210.263 31 210.263 31 204.079 24.8 204.079 24.8 197.895 18.6 197.895 18.6 191.711" fill="#2ab4eb"/>
                <polygon points="223.2 185.526 217 185.526 210.8 185.526 204.6 185.526 204.6 191.71 210.8 191.71 217 191.71 223.2 191.71 229.4 191.71 235.6 191.71 235.6 185.526 229.4 185.526 223.2 185.526" fill="#2ab4eb"/>
                <polygon points="192.2 185.526 186 185.526 179.8 185.526 173.6 185.526 173.6 191.71 179.8 191.71 186 191.71 192.2 191.71 198.4 191.71 204.6 191.71 204.6 185.526 198.4 185.526 192.2 185.526" fill="#2ab4eb"/>
                <polygon points="161.2 185.526 155 185.526 148.8 185.526 142.6 185.526 142.6 191.71 148.8 191.71 155 191.71 161.2 191.71 167.4 191.71 173.6 191.71 173.6 185.526 167.4 185.526 161.2 185.526" fill="#2ab4eb"/>
                <polygon points="130.2 185.526 124 185.526 117.8 185.526 111.6 185.526 105.4 185.526 99.2 185.526 93 185.526 86.8 185.526 80.6 185.526 74.4 185.526 68.2 185.526 62 185.526 55.8 185.526 49.6 185.526 43.4 185.526 37.2 185.526 37.2 179.342 31 179.342 31 173.158 31 166.974 24.8 166.974 18.6 166.974 18.6 173.158 12.4 173.158 12.4 179.342 12.4 185.526 12.4 191.71 18.6 191.71 18.6 185.526 18.6 179.342 24.8 179.342 24.8 185.526 24.8 191.71 31 191.71 37.2 191.71 43.4 191.71 49.6 191.71 55.8 191.71 62 191.71 68.2 191.71 74.4 191.71 80.6 191.71 86.8 191.71 93 191.71 99.2 191.71 105.4 191.71 111.6 191.71 117.8 191.71 124 191.71 130.2 191.71 136.4 191.71 142.6 191.71 142.6 185.526 136.4 185.526 130.2 185.526" fill="#2ab4eb"/>
                <polygon points="260.4 173.158 260.4 166.974 254.2 166.974 248 166.974 248 173.158 248 179.342 241.8 179.342 241.8 185.526 235.6 185.526 235.6 191.71 241.8 191.71 248 191.71 254.2 191.71 254.2 185.526 254.2 179.342 260.4 179.342 260.4 185.526 260.4 191.71 266.6 191.71 266.6 185.526 266.6 179.342 266.6 173.158 260.4 173.158" fill="#2ab4eb"/>
                <polygon points="31 166.973 31 160.789 31 154.605 31 148.421 37.2 148.421 37.2 142.237 37.2 136.053 31 136.053 24.8 136.053 24.8 142.237 24.8 148.421 24.8 154.605 18.6 154.605 18.6 160.789 18.6 166.973 24.8 166.973 31 166.973" fill="#2ab4eb"/>
                <polygon points="254.2 142.237 254.2 136.053 248 136.053 241.8 136.053 241.8 142.237 241.8 148.421 248 148.421 248 154.605 248 160.789 248 166.973 254.2 166.973 260.4 166.973 260.4 160.789 260.4 154.605 254.2 154.605 254.2 148.421 254.2 142.237" fill="#2ab4eb"/>
                <polygon points="241.8 136.052 248 136.052 248 129.868 248 123.684 241.8 123.684 241.8 117.5 235.6 117.5 235.6 123.684 235.6 129.868 241.8 129.868 241.8 136.052" fill="#2ab4eb"/>
                <polygon points="37.2 136.052 37.2 129.868 43.4 129.868 43.4 123.684 43.4 117.5 37.2 117.5 37.2 123.684 31 123.684 31 129.868 24.8 129.868 24.8 136.052 31 136.052 37.2 136.052" fill="#2ab4eb"/>
                <polygon points="223.2 105.132 223.2 111.316 229.4 111.316 235.6 111.316 235.6 105.132 229.4 105.132 223.2 105.132" fill="#2ab4eb"/>
                <polygon points="55.8 111.316 55.8 105.132 49.6 105.132 43.4 105.132 43.4 111.316 49.6 111.316 55.8 111.316" fill="#2ab4eb"/>
                <polygon points="223.2 105.131 229.4 105.131 229.4 98.947 229.4 92.763 223.2 92.763 223.2 86.579 217 86.579 217 92.763 217 98.947 223.2 98.947 223.2 105.131" fill="#2ab4eb"/>
                <polygon points="55.8 98.947 62 98.947 62 92.763 62 86.579 55.8 86.579 55.8 92.763 49.6 92.763 49.6 98.947 49.6 105.131 55.8 105.131 55.8 98.947" fill="#2ab4eb"/>
              </g>
              <g>
                <polygon points="241.8 228.816 235.6 228.816 235.6 235 241.8 235 248 235 254.2 235 254.2 228.816 248 228.816 241.8 228.816" fill="#002baf"/>
                <polygon points="223.2 228.816 217 228.816 210.8 228.816 204.6 228.816 204.6 235 210.8 235 217 235 223.2 235 229.4 235 235.6 235 235.6 228.816 229.4 228.816 223.2 228.816" fill="#002baf"/>
                <polygon points="192.2 228.816 186 228.816 179.8 228.816 173.6 228.816 173.6 235 179.8 235 186 235 192.2 235 198.4 235 204.6 235 204.6 228.816 198.4 228.816 192.2 228.816" fill="#002baf"/>
                <polygon points="161.2 228.816 155 228.816 148.8 228.816 142.6 228.816 142.6 235 148.8 235 155 235 161.2 235 167.4 235 173.6 235 173.6 228.816 167.4 228.816 161.2 228.816" fill="#002baf"/>
                <polygon points="130.2 228.816 124 228.816 117.8 228.816 111.6 228.816 105.4 228.816 99.2 228.816 93 228.816 86.8 228.816 80.6 228.816 74.4 228.816 68.2 228.816 62 228.816 55.8 228.816 49.6 228.816 43.4 228.816 37.2 228.816 31 228.816 24.8 228.816 24.8 235 31 235 37.2 235 43.4 235 49.6 235 55.8 235 62 235 68.2 235 74.4 235 80.6 235 86.8 235 93 235 99.2 235 105.4 235 111.6 235 117.8 235 124 235 130.2 235 136.4 235 142.6 235 142.6 228.816 136.4 228.816 130.2 228.816" fill="#002baf"/>
                <polygon points="248 216.447 248 222.631 254.2 222.631 260.4 222.631 260.4 216.447 254.2 216.447 248 216.447" fill="#002baf"/>
                <rect x="18.6" y="216.447" width="6.2" height="6.184" fill="#002baf"/>
                <rect x="260.4" y="210.263" width="6.2" height="6.184" fill="#002baf"/>
                <rect x="12.4" y="210.263" width="6.2" height="6.184" fill="#002baf"/>
                <polygon points="272.8 197.895 272.8 191.711 266.6 191.711 266.6 197.895 266.6 204.079 266.6 210.263 272.8 210.263 272.8 210.263 279 210.263 279 204.079 279 197.895 272.8 197.895" fill="#002baf"/>
                <polygon points="12.4 197.895 12.4 191.711 6.2 191.711 6.2 197.895 0 197.895 0 204.079 6.2 204.079 6.2 210.263 12.4 210.263 12.4 204.079 12.4 197.895" fill="#002baf"/>
                <polygon points="12.4 185.526 12.4 179.342 12.4 173.158 6.2 173.158 6.2 179.342 6.2 185.526 6.2 191.71 12.4 191.71 12.4 185.526" fill="#002baf"/>
                <polygon points="266.6 185.526 266.6 191.71 272.8 191.71 272.8 185.526 272.8 179.342 272.8 173.158 266.6 173.158 266.6 179.342 266.6 185.526" fill="#002baf"/>
                <rect x="260.4" y="166.974" width="6.2" height="6.184" fill="#002baf"/>
                <polygon points="18.6 160.789 18.6 154.605 12.4 154.605 12.4 160.789 12.4 166.973 18.6 166.973 18.6 160.789" fill="#002baf"/>
                <polygon points="260.4 160.789 260.4 166.973 266.6 166.973 266.6 160.789 266.6 154.605 260.4 154.605 260.4 160.789" fill="#002baf"/>
                <polygon points="260.4 142.237 260.4 136.053 254.2 136.053 254.2 142.237 254.2 148.421 260.4 148.421 260.4 142.237" fill="#002baf"/>
                <polygon points="24.8 142.237 24.8 136.053 18.6 136.053 18.6 142.237 18.6 148.421 24.8 148.421 24.8 142.237" fill="#002baf"/>
                <rect x="254.2" y="129.868" width="6.2" height="6.184" fill="#002baf"/>
                <rect x="18.6" y="129.868" width="6.2" height="6.184" fill="#002baf"/>
                <rect x="248" y="123.684" width="6.2" height="6.184" fill="#002baf"/>
                <rect x="24.8" y="123.684" width="6.2" height="6.184" fill="#002baf"/>
                <polygon points="241.8 111.316 241.8 105.132 235.6 105.132 235.6 111.316 235.6 117.5 241.8 117.5 241.8 111.316" fill="#002baf"/>
                <polygon points="43.4 111.316 43.4 105.132 37.2 105.132 37.2 111.316 37.2 117.5 43.4 117.5 43.4 111.316" fill="#002baf"/>
                <polygon points="49.6 98.947 49.6 92.763 43.4 92.763 43.4 98.947 43.4 105.131 49.6 105.131 49.6 98.947" fill="#002baf"/>
                <rect x="229.4" y="92.763" width="6.2" height="6.184" fill="#002baf"/>
                <rect x="223.2" y="86.579" width="6.2" height="6.184" fill="#002baf"/>
                <rect x="49.6" y="86.579" width="6.2" height="6.184" fill="#002baf"/>
              </g>
              <rect x="43.4" y="86.579" width="6.2" height="6.184" fill="#222324"/>
              <rect x="223.2" y="80.395" width="6.2" height="6.184" fill="#c8c8c8"/>
              <rect x="217" y="80.395" width="6.2" height="6.184" fill="#293868"/>
              <rect x="210.8" y="80.395" width="6.2" height="6.184" fill="#1e3b94"/>
              <rect x="204.6" y="80.395" width="6.2" height="6.184" fill="#254196"/>
              <rect x="198.4" y="80.395" width="6.2" height="6.184" fill="#363636"/>
              <rect x="192.2" y="80.395" width="6.2" height="6.184" fill="#ddd"/>
              <rect x="186" y="80.395" width="6.2" height="6.184" fill="#ddd"/>
              <rect x="179.8" y="80.395" width="6.2" height="6.184" fill="#ddd"/>
              <rect x="173.6" y="80.395" width="6.2" height="6.184" fill="#ddd"/>
              <rect x="167.4" y="80.395" width="6.2" height="6.184" fill="#ddd"/>
              <rect x="161.2" y="80.395" width="6.2" height="6.184" fill="#ddd"/>
              <rect x="155" y="80.395" width="6.2" height="6.184" fill="#ddd"/>
              <rect x="124" y="80.395" width="6.2" height="6.184" fill="#9d9d9d"/>
              <rect x="117.8" y="80.395" width="6.2" height="6.184" fill="#ddd"/>
              <rect x="111.6" y="80.395" width="6.2" height="6.184" fill="#ddd"/>
              <rect x="105.4" y="80.395" width="6.2" height="6.184" fill="#ddd"/>
              <rect x="99.2" y="80.395" width="6.2" height="6.184" fill="#ddd"/>
              <rect x="93" y="80.395" width="6.2" height="6.184" fill="#ddd"/>
              <rect x="86.8" y="80.395" width="6.2" height="6.184" fill="#ddd"/>
              <rect x="80.6" y="80.395" width="6.2" height="6.184" fill="#ddd"/>
              <rect x="74.4" y="80.395" width="6.2" height="6.184" fill="#474747"/>
              <rect x="68.2" y="80.395" width="6.2" height="6.184" fill="#1e3b94"/>
              <rect x="62" y="80.395" width="6.2" height="6.184" fill="#1e3b94"/>
              <rect x="55.8" y="80.395" width="6.2" height="6.184" fill="#263972"/>
              <rect x="49.6" y="80.395" width="6.2" height="6.184" fill="#969696"/>
              <rect x="74.4" y="74.211" width="6.2" height="6.184" fill="#4d4d4d"/>
              <g>
                <rect x="272.8" y="185.526" width="6.2" height="6.184" fill="#232323"/>
                <polygon points="192.2 179.342 192.2 173.158 186 173.158 186 166.974 179.8 166.974 179.8 173.158 173.6 173.158 173.6 179.342 173.6 185.526 179.8 185.526 186 185.526 192.2 185.526 198.4 185.526 204.6 185.526 204.6 179.342 198.4 179.342 192.2 179.342" fill="#232323"/>
                <polygon points="161.2 179.342 155 179.342 148.8 179.342 148.8 173.158 142.6 173.158 142.6 179.342 142.6 185.526 148.8 185.526 155 185.526 161.2 185.526 167.4 185.526 173.6 185.526 173.6 179.342 167.4 179.342 161.2 179.342" fill="#232323"/>
                <polygon points="235.6 173.158 235.6 179.342 241.8 179.342 241.8 173.158 241.8 166.974 235.6 166.974 235.6 173.158" fill="#232323"/>
                <polygon points="223.2 166.974 223.2 173.158 217 173.158 217 179.342 210.8 179.342 204.6 179.342 204.6 185.526 210.8 185.526 217 185.526 223.2 185.526 229.4 185.526 235.6 185.526 235.6 179.342 235.6 173.158 235.6 166.974 229.4 166.974 223.2 166.974" fill="#232323"/>
                <polygon points="136.4 173.158 130.2 173.158 124 173.158 124 179.342 117.8 179.342 111.6 179.342 105.4 179.342 105.4 173.158 99.2 173.158 99.2 166.974 93 166.974 86.8 166.974 86.8 173.158 80.6 173.158 80.6 179.342 74.4 179.342 68.2 179.342 62 179.342 62 173.158 55.8 173.158 49.6 173.158 49.6 166.974 43.4 166.974 37.2 166.974 37.2 173.158 37.2 179.342 43.4 179.342 43.4 185.526 49.6 185.526 55.8 185.526 62 185.526 68.2 185.526 74.4 185.526 80.6 185.526 86.8 185.526 93 185.526 99.2 185.526 105.4 185.526 111.6 185.526 117.8 185.526 124 185.526 130.2 185.526 136.4 185.526 142.6 185.526 142.6 179.342 142.6 173.158 142.6 166.974 136.4 166.974 136.4 173.158" fill="#232323"/>
                <rect x="179.8" y="160.789" width="6.2" height="6.184" fill="#232323"/>
                <rect x="136.4" y="160.789" width="6.2" height="6.184" fill="#232323"/>
                <polygon points="49.6 166.973 49.6 160.789 55.8 160.789 55.8 154.605 62 154.605 68.2 154.605 74.4 154.605 74.4 148.421 74.4 142.237 68.2 142.237 62 142.237 55.8 142.237 55.8 136.053 49.6 136.053 43.4 136.053 43.4 142.237 37.2 142.237 37.2 148.421 37.2 154.605 37.2 160.789 37.2 166.973 43.4 166.973 49.6 166.973" fill="#232323"/>
                <rect x="161.2" y="148.421" width="6.2" height="6.184" fill="#232323"/>
                <polygon points="117.8 148.421 117.8 142.237 111.6 142.237 111.6 148.421 111.6 154.605 117.8 154.605 117.8 148.421" fill="#232323"/>
                <polygon points="235.6 148.421 235.6 154.605 235.6 160.789 235.6 166.973 241.8 166.973 241.8 160.789 241.8 154.605 241.8 148.421 241.8 142.237 235.6 142.237 235.6 148.421" fill="#232323"/>
                <rect x="12.4" y="142.237" width="6.2" height="6.184" fill="#232323"/>
                <polygon points="223.2 136.053 223.2 142.237 217 142.237 210.8 142.237 204.6 142.237 204.6 148.421 204.6 154.605 210.8 154.605 217 154.605 223.2 154.605 223.2 160.789 223.2 166.973 229.4 166.973 235.6 166.973 235.6 160.789 235.6 154.605 235.6 148.421 235.6 142.237 235.6 136.053 229.4 136.053 223.2 136.053" fill="#232323"/>
                <polygon points="229.4 129.868 229.4 136.052 235.6 136.052 235.6 129.868 235.6 123.684 229.4 123.684 229.4 129.868" fill="#232323"/>
                <polygon points="229.4 111.316 223.2 111.316 217 111.316 217 105.132 210.8 105.132 210.8 111.316 204.6 111.316 204.6 117.5 210.8 117.5 217 117.5 223.2 117.5 223.2 123.684 229.4 123.684 229.4 117.5 229.4 111.316" fill="#232323"/>
                <polygon points="192.2 111.316 186 111.316 179.8 111.316 179.8 105.132 173.6 105.132 173.6 111.316 173.6 117.5 173.6 123.684 179.8 123.684 179.8 129.868 179.8 136.052 186 136.052 186 129.868 186 123.684 192.2 123.684 192.2 117.5 198.4 117.5 204.6 117.5 204.6 111.316 198.4 111.316 192.2 111.316" fill="#232323"/>
                <polygon points="161.2 111.316 155 111.316 148.8 111.316 142.6 111.316 142.6 117.5 142.6 123.684 148.8 123.684 148.8 117.5 155 117.5 161.2 117.5 167.4 117.5 173.6 117.5 173.6 111.316 167.4 111.316 161.2 111.316" fill="#232323"/>
                <polygon points="130.2 111.316 124 111.316 117.8 111.316 111.6 111.316 105.4 111.316 99.2 111.316 93 111.316 86.8 111.316 80.6 111.316 80.6 105.132 74.4 105.132 68.2 105.132 62 105.132 62 111.316 55.8 111.316 49.6 111.316 49.6 117.5 49.6 123.684 43.4 123.684 43.4 129.868 43.4 136.052 49.6 136.052 55.8 136.052 55.8 129.868 55.8 123.684 62 123.684 62 117.5 68.2 117.5 74.4 117.5 80.6 117.5 86.8 117.5 86.8 123.684 93 123.684 93 129.868 93 136.052 99.2 136.052 99.2 129.868 99.2 123.684 105.4 123.684 105.4 117.5 111.6 117.5 117.8 117.5 124 117.5 130.2 117.5 130.2 123.684 136.4 123.684 136.4 129.868 136.4 136.052 142.6 136.052 142.6 129.868 142.6 123.684 142.6 117.5 142.6 111.316 136.4 111.316 130.2 111.316" fill="#232323"/>
                <rect x="210.8" y="98.947" width="6.2" height="6.184" fill="#232323"/>
                <rect x="105.4" y="98.947" width="6.2" height="6.184" fill="#232323"/>
                <polygon points="74.4 105.131 80.6 105.131 80.6 98.947 80.6 92.763 80.6 86.579 74.4 86.579 68.2 86.579 68.2 92.763 62 92.763 62 98.947 62 105.131 68.2 105.131 74.4 105.131" fill="#232323"/>
                <rect x="111.6" y="92.763" width="6.2" height="6.184" fill="#232323"/>
                <rect x="204.6" y="86.579" width="6.2" height="6.184" fill="#232323"/>
                <polygon points="198.4 92.763 198.4 98.947 198.4 105.131 204.6 105.131 204.6 98.947 204.6 92.763 204.6 86.579 198.4 86.579 198.4 92.763" fill="#232323"/>
                <rect x="117.8" y="86.579" width="6.2" height="6.184" fill="#232323"/>
                <polygon points="155 86.579 155 80.395 148.8 80.395 142.6 80.395 142.6 86.579 148.8 86.579 155 86.579" fill="#232323"/>
                <polygon points="130.2 80.395 130.2 86.579 136.4 86.579 142.6 86.579 142.6 80.395 136.4 80.395 130.2 80.395" fill="#232323"/>
                <rect x="198.4" y="74.211" width="6.2" height="6.184" fill="#232323"/>
                <rect x="198.4" y="68.026" width="6.2" height="6.184" fill="#232323"/>
              </g>
              <rect x="74.4" y="68.026" width="6.2" height="6.184" fill="#696969"/>
              <rect x="198.4" y="61.842" width="6.2" height="6.184" fill="#373737"/>
              <rect x="74.4" y="61.842" width="6.2" height="6.184" fill="#868686"/>
              <rect x="37.2" y="61.842" width="6.2" height="6.184" fill="#ababab"/>
              <rect x="198.4" y="55.658" width="6.2" height="6.184" fill="#535353"/>
              <g>
                <rect x="241.8" y="166.974" width="6.2" height="6.184" fill="#9e9e9e"/>
                <rect x="31" y="166.974" width="6.2" height="6.184" fill="#9e9e9e"/>
                <rect x="31" y="160.789" width="6.2" height="6.184" fill="#9e9e9e"/>
                <rect x="241.8" y="154.605" width="6.2" height="6.184" fill="#9e9e9e"/>
                <rect x="235.6" y="136.053" width="6.2" height="6.184" fill="#9e9e9e"/>
                <rect x="37.2" y="136.053" width="6.2" height="6.184" fill="#9e9e9e"/>
                <rect x="229.4" y="117.5" width="6.2" height="6.184" fill="#9e9e9e"/>
                <rect x="43.4" y="117.5" width="6.2" height="6.184" fill="#9e9e9e"/>
                <rect x="204.6" y="105.132" width="6.2" height="6.184" fill="#9e9e9e"/>
                <polygon points="161.2 105.132 161.2 111.316 167.4 111.316 173.6 111.316 173.6 105.132 167.4 105.132 161.2 105.132" fill="#9e9e9e"/>
                <rect x="111.6" y="105.132" width="6.2" height="6.184" fill="#9e9e9e"/>
                <rect x="204.6" y="98.947" width="6.2" height="6.184" fill="#9e9e9e"/>
                <polygon points="161.2 105.131 167.4 105.131 167.4 98.947 167.4 92.763 161.2 92.763 155 92.763 155 86.579 148.8 86.579 142.6 86.579 142.6 92.763 148.8 92.763 148.8 98.947 155 98.947 161.2 98.947 161.2 105.131" fill="#9e9e9e"/>
                <polygon points="130.2 86.579 124 86.579 124 92.763 117.8 92.763 117.8 98.947 111.6 98.947 111.6 105.131 117.8 105.131 124 105.131 124 98.947 130.2 98.947 136.4 98.947 136.4 92.763 142.6 92.763 142.6 86.579 136.4 86.579 130.2 86.579" fill="#9e9e9e"/>
                <polygon points="223.2 74.211 217 74.211 210.8 74.211 204.6 74.211 204.6 80.395 210.8 80.395 217 80.395 223.2 80.395 229.4 80.395 235.6 80.395 235.6 74.211 229.4 74.211 223.2 74.211" fill="#9e9e9e"/>
                <polygon points="62 74.211 55.8 74.211 49.6 74.211 43.4 74.211 43.4 80.395 49.6 80.395 55.8 80.395 62 80.395 68.2 80.395 74.4 80.395 74.4 74.211 68.2 74.211 62 74.211" fill="#9e9e9e"/>
                <polygon points="241.8 68.026 241.8 61.842 235.6 61.842 235.6 68.026 235.6 74.21 241.8 74.21 241.8 68.026" fill="#9e9e9e"/>
                <polygon points="223.2 55.658 217 55.658 210.8 55.658 204.6 55.658 204.6 61.842 204.6 68.026 204.6 74.21 210.8 74.21 217 74.21 223.2 74.21 229.4 74.21 235.6 74.21 235.6 68.026 235.6 61.842 235.6 55.658 229.4 55.658 223.2 55.658" fill="#9e9e9e"/>
                <polygon points="68.2 55.658 62 55.658 55.8 55.658 49.6 55.658 43.4 55.658 43.4 61.842 43.4 68.026 37.2 68.026 37.2 74.21 43.4 74.21 49.6 74.21 55.8 74.21 62 74.21 68.2 74.21 74.4 74.21 74.4 68.026 74.4 61.842 80.6 61.842 80.6 55.658 74.4 55.658 68.2 55.658" fill="#9e9e9e"/>
              </g>
              <g>
                <rect x="235.6" y="204.079" width="6.2" height="6.184" fill="#fff"/>
                <polygon points="223.2 204.079 217 204.079 210.8 204.079 204.6 204.079 204.6 210.263 210.8 210.263 217 210.263 223.2 210.263 229.4 210.263 235.6 210.263 235.6 204.079 229.4 204.079 223.2 204.079" fill="#fff"/>
                <polygon points="192.2 204.079 186 204.079 179.8 204.079 173.6 204.079 173.6 210.263 179.8 210.263 186 210.263 192.2 210.263 198.4 210.263 204.6 210.263 204.6 204.079 198.4 204.079 192.2 204.079" fill="#fff"/>
                <polygon points="161.2 204.079 155 204.079 148.8 204.079 142.6 204.079 142.6 210.263 148.8 210.263 155 210.263 161.2 210.263 167.4 210.263 173.6 210.263 173.6 204.079 167.4 204.079 161.2 204.079" fill="#fff"/>
                <polygon points="130.2 204.079 124 204.079 117.8 204.079 111.6 204.079 105.4 204.079 99.2 204.079 93 204.079 86.8 204.079 80.6 204.079 74.4 204.079 68.2 204.079 62 204.079 55.8 204.079 49.6 204.079 43.4 204.079 37.2 204.079 37.2 210.263 43.4 210.263 49.6 210.263 55.8 210.263 62 210.263 68.2 210.263 74.4 210.263 80.6 210.263 86.8 210.263 93 210.263 99.2 210.263 105.4 210.263 111.6 210.263 117.8 210.263 124 210.263 130.2 210.263 136.4 210.263 142.6 210.263 142.6 204.079 136.4 204.079 130.2 204.079" fill="#fff"/>
                <rect x="248" y="197.895" width="6.2" height="6.184" fill="#fff"/>
                <rect x="24.8" y="197.895" width="6.2" height="6.184" fill="#fff"/>
                <rect x="18.6" y="185.526" width="6.2" height="6.184" fill="#fff"/>
                <rect x="31" y="173.158" width="6.2" height="6.184" fill="#fff"/>
                <rect x="241.8" y="148.421" width="6.2" height="6.184" fill="#fff"/>
                <rect x="235.6" y="129.868" width="6.2" height="6.184" fill="#fff"/>
                <rect x="229.4" y="111.316" width="6.2" height="6.184" fill="#fff"/>
                <polygon points="186 105.132 179.8 105.132 179.8 111.316 186 111.316 192.2 111.316 198.4 111.316 198.4 105.132 192.2 105.132 186 105.132" fill="#fff"/>
                <polygon points="148.8 105.132 148.8 111.316 155 111.316 161.2 111.316 161.2 105.132 155 105.132 148.8 105.132" fill="#fff"/>
                <polygon points="130.2 111.316 136.4 111.316 136.4 105.132 130.2 105.132 124 105.132 117.8 105.132 117.8 111.316 124 111.316 130.2 111.316" fill="#fff"/>
                <polygon points="93 111.316 99.2 111.316 105.4 111.316 105.4 105.132 99.2 105.132 93 105.132 86.8 105.132 80.6 105.132 80.6 111.316 86.8 111.316 93 111.316" fill="#fff"/>
                <polygon points="186 105.131 192.2 105.131 198.4 105.131 198.4 98.947 198.4 92.763 192.2 92.763 186 92.763 179.8 92.763 173.6 92.763 173.6 98.947 173.6 105.131 179.8 105.131 186 105.131" fill="#fff"/>
                <polygon points="155 105.131 155 98.947 148.8 98.947 142.6 98.947 142.6 105.131 148.8 105.131 155 105.131" fill="#fff"/>
                <polygon points="124 98.947 124 105.131 130.2 105.131 136.4 105.131 136.4 98.947 130.2 98.947 124 98.947" fill="#fff"/>
                <polygon points="93 105.131 99.2 105.131 105.4 105.131 105.4 98.947 111.6 98.947 111.6 92.763 105.4 92.763 99.2 92.763 93 92.763 86.8 92.763 80.6 92.763 80.6 98.947 80.6 105.131 86.8 105.131 93 105.131" fill="#fff"/>
                <rect x="136.4" y="92.763" width="6.2" height="6.184" fill="#fff"/>
                <rect x="210.8" y="86.579" width="6.2" height="6.184" fill="#fff"/>
                <polygon points="186 80.395 192.2 80.395 198.4 80.395 198.4 74.211 192.2 74.211 186 74.211 179.8 74.211 173.6 74.211 173.6 80.395 179.8 80.395 186 80.395" fill="#fff"/>
                <polygon points="161.2 74.211 155 74.211 148.8 74.211 142.6 74.211 142.6 80.395 148.8 80.395 155 80.395 161.2 80.395 167.4 80.395 173.6 80.395 173.6 74.211 167.4 74.211 161.2 74.211" fill="#fff"/>
                <polygon points="130.2 74.211 124 74.211 117.8 74.211 111.6 74.211 105.4 74.211 99.2 74.211 93 74.211 86.8 74.211 80.6 74.211 80.6 80.395 86.8 80.395 93 80.395 99.2 80.395 105.4 80.395 111.6 80.395 117.8 80.395 124 80.395 130.2 80.395 136.4 80.395 142.6 80.395 142.6 74.211 136.4 74.211 130.2 74.211" fill="#fff"/>
                <polygon points="186 74.21 192.2 74.21 198.4 74.21 198.4 68.026 198.4 61.842 198.4 55.658 192.2 55.658 192.2 49.474 186 49.474 179.8 49.474 173.6 49.474 173.6 55.658 173.6 61.842 173.6 68.026 173.6 74.21 179.8 74.21 186 74.21" fill="#fff"/>
                <polygon points="161.2 49.474 155 49.474 148.8 49.474 142.6 49.474 142.6 55.658 142.6 61.842 142.6 68.026 142.6 74.21 148.8 74.21 155 74.21 161.2 74.21 167.4 74.21 173.6 74.21 173.6 68.026 173.6 61.842 173.6 55.658 173.6 49.474 167.4 49.474 161.2 49.474" fill="#fff"/>
                <polygon points="130.2 49.474 124 49.474 117.8 49.474 111.6 49.474 105.4 49.474 99.2 49.474 93 49.474 86.8 49.474 86.8 55.658 80.6 55.658 80.6 61.842 80.6 68.026 80.6 74.21 86.8 74.21 93 74.21 99.2 74.21 105.4 74.21 111.6 74.21 117.8 74.21 124 74.21 130.2 74.21 136.4 74.21 142.6 74.21 142.6 68.026 142.6 61.842 142.6 55.658 142.6 49.474 136.4 49.474 130.2 49.474" fill="#fff"/>
                <polygon points="186 49.473 192.2 49.473 192.2 43.289 192.2 37.105 192.2 30.921 192.2 24.737 192.2 18.553 186 18.553 179.8 18.553 173.6 18.553 173.6 24.737 173.6 30.921 173.6 37.105 173.6 43.289 173.6 49.473 179.8 49.473 186 49.473" fill="#fff"/>
                <polygon points="161.2 18.553 155 18.553 148.8 18.553 142.6 18.553 142.6 24.737 142.6 30.921 142.6 37.105 142.6 43.289 142.6 49.473 148.8 49.473 155 49.473 161.2 49.473 167.4 49.473 173.6 49.473 173.6 43.289 173.6 37.105 173.6 30.921 173.6 24.737 173.6 18.553 167.4 18.553 161.2 18.553" fill="#fff"/>
                <polygon points="130.2 18.553 124 18.553 117.8 18.553 111.6 18.553 105.4 18.553 99.2 18.553 93 18.553 86.8 18.553 86.8 24.737 86.8 30.921 86.8 37.105 86.8 43.289 86.8 49.473 93 49.473 99.2 49.473 105.4 49.473 111.6 49.473 117.8 49.473 124 49.473 130.2 49.473 136.4 49.473 142.6 49.473 142.6 43.289 142.6 37.105 142.6 30.921 142.6 24.737 142.6 18.553 136.4 18.553 130.2 18.553" fill="#fff"/>
                <polygon points="186 18.552 192.2 18.552 192.2 12.368 192.2 6.184 186 6.184 179.8 6.184 173.6 6.184 173.6 12.368 173.6 18.552 179.8 18.552 186 18.552" fill="#fff"/>
                <polygon points="161.2 6.184 155 6.184 148.8 6.184 142.6 6.184 142.6 12.368 142.6 18.552 148.8 18.552 155 18.552 161.2 18.552 167.4 18.552 173.6 18.552 173.6 12.368 173.6 6.184 167.4 6.184 161.2 6.184" fill="#fff"/>
                <polygon points="130.2 6.184 124 6.184 117.8 6.184 111.6 6.184 105.4 6.184 99.2 6.184 93 6.184 86.8 6.184 86.8 12.368 86.8 18.552 93 18.552 99.2 18.552 105.4 18.552 111.6 18.552 117.8 18.552 124 18.552 130.2 18.552 136.4 18.552 142.6 18.552 142.6 12.368 142.6 6.184 136.4 6.184 130.2 6.184" fill="#fff"/>
              </g>
              <polygon points="192.2 0 186 0 179.8 0 173.6 0 173.6 6.184 179.8 6.184 186 6.184 192.2 6.184 192.2 12.368 192.2 18.552 192.2 18.553 192.2 24.737 192.2 30.921 192.2 37.105 192.2 43.289 192.2 49.473 192.2 49.474 192.2 55.658 192.2 79.994 198.4 79.994 198.4 55.658 198.4 49.474 198.4 49.473 198.4 43.289 198.4 37.105 198.4 30.921 198.4 24.737 198.4 18.553 198.4 18.552 198.4 12.368 198.4 6.184 198.4 6 198.4 0 192.2 0" fill="#2f2f2f"/>
              <g>
                <polygon points="167.4 0 161.2 0 155 0 148.8 0 142.6 0 142.6 6.184 148.8 6.184 155 6.184 161.2 6.184 167.4 6.184 173.6 6.184 173.6 0 167.4 0" fill="#2f2f2f"/>
                <polygon points="130.2 0 124 0 117.8 0 111.6 0 105.4 0 99.2 0 93 0 86.8 0 80.6 0 80.6 5.994 80.6 6.184 80.6 12.368 80.6 18.552 80.6 18.553 80.6 24.737 80.6 30.921 80.6 37.105 80.6 43.289 80.6 49.473 80.6 49.474 80.6 55.658 80.6 80.184 86.8 80.184 86.8 55.658 86.8 49.474 86.8 49.473 86.8 43.289 86.8 37.105 86.8 30.921 86.8 24.737 86.8 18.553 86.8 18.552 86.8 12.368 86.8 6.184 93 6.184 99.2 6.184 105.4 6.184 111.6 6.184 117.8 6.184 124 6.184 130.2 6.184 136.4 6.184 142.6 6.184 142.6 0 136.4 0 130.2 0" fill="#2f2f2f"/>
              </g>
            </g>
          </g>
        </g>
        <g id="wq3FKe.tif">
          <g>
            <path d="M104.493,47.519V38.788H99.564V23.359h1.671c.8,0,1.611-.022,2.414.008.444.017.6-.116.588-.575-.028-1.225,0-2.452-.015-3.677-.006-.4.108-.563.544-.563q9.687.018,19.373,0c.466,0,.584.163.576.595-.021,1.226.012,2.452-.015,3.677-.009.43.132.552.549.544,1.184-.024,2.368-.008,3.623-.008.01.233.026.425.026.616,0,1.065.031,2.131-.01,3.2-.022.551.138.728.7.722,2.655-.027,5.311-.013,7.967-.012.815,0,.815,0,.816.818v.06c0,2.019,0,2.019,1.2,2.018.861,0,.861,0,.862-2.047v-.939h37.743v3.255h3.009v2.911h2.964c.012.265.031.476.031.686,0,4.923-.008,9.847.014,14.77,0,.579-.154.774-.737.735-.718-.049-1.442-.012-2.258-.012,0,.788-.038,1.527.012,2.259.04.6-.137.791-.764.785-3.641-.03-7.283,0-10.924-.025-.528,0-.689.135-.679.673.032,1.825.012,3.65.012,5.533-.271.018-.465.042-.659.042-3.862,0-7.725-.006-11.587.012-.5,0-.674-.14-.645-.644.039-.681,0-1.366.014-2.049.009-.377-.106-.55-.516-.53-.6.029-1.2.008-1.86.008-.016.325-.034.6-.044.874-.026.679-.049,1.357-.073,2.035-.7.032-1.392.088-2.088.09q-5.763.014-11.527,0h-.777c-.014.266-.034.48-.034.694,0,2.31-.015,4.622.008,6.932,0,.506-.1.694-.661.693q-19.1-.024-38.2,0c-.524,0-.641-.182-.631-.661.027-1.245,0-2.491.015-3.737.006-.415-.133-.565-.557-.557-1.227.022-2.455-.008-3.681.015-.427.008-.548-.137-.547-.555q.02-6.963,0-13.926c0-.506.187-.591.636-.588,2.756.017,5.512.009,8.268.008Zm-4.279,5.342c0,1.355.032,2.6-.014,3.843-.022.6.184.732.751.73q10.923-.027,21.846-.011c1.67,0,3.34-.017,5.009.009.506.008.663-.16.648-.657-.031-1.064-.037-2.131,0-3.194.02-.543-.169-.677-.69-.673-2.635.024-5.27.012-7.905.011-.888,0-.889,0-.889-.861V24.75c0-.377.044-.7-.531-.692-2.655.025-5.311.019-7.966,0-.443,0-.536.175-.53.575.021,1.205-.009,2.411.016,3.617.009.442-.124.6-.58.591-1.266-.025-2.534,0-3.8-.013-.374,0-.55.09-.542.5.021,1.145.019,2.291,0,3.436-.006.39.125.531.522.524,1.085-.02,2.172-.007,3.258-.006h1.066V52.861Zm34.465-3.31V31.622h-5.193c-.418,0-.333.319-.334.567v6.149c0,3.517.01,7.034-.01,10.55,0,.524.138.723.679.683.6-.043,1.206.005,1.809-.014.362-.011.5.114.488.488-.026.662.024,1.328-.017,1.988-.032.519.171.634.658.632q6.789-.024,13.579,0c.584,0,.772-.157.735-.738-.048-.771-.012-1.546-.012-2.37.869,0,1.631-.025,2.39.009.489.023.659-.12.658-.635q-.027-8.35,0-16.7c0-.531-.188-.633-.662-.626-1.529.024-3.059.033-4.587,0-.568-.013-.7.173-.7.719.02,5.486.012,10.973.012,16.459v.768Zm39.831-5.78c.833,0,1.575-.015,2.315.006.382.01.536-.107.534-.511q-.018-4.158,0-8.316c0-.405-.158-.526-.536-.515-.643.018-1.288-.009-1.931.009-.358.009-.514-.116-.5-.487.018-.541-.038-1.088.014-1.625.059-.608-.194-.725-.75-.723q-8.174.027-16.348,0c-.538,0-.725.119-.719.7.03,3.032.013,6.066.013,9.1,0,3.515.006,7.03-.006,10.545,0,.421.084.617.561.609,1.528-.025,3.056-.021,4.584,0,.43.006.547-.151.542-.565-.02-1.607-.008-3.214-.007-4.821,0-.8,0-.8.768-.8h10.738c.23,0,.459-.028.729-.046Z" fill="#2f2f2f"/>
            <path d="M100.214,52.861h9.673V33.289h-1.066c-1.086,0-2.173-.014-3.258.006-.4.007-.528-.134-.522-.524.018-1.145.02-2.291,0-3.436-.008-.414.168-.508.542-.5,1.267.015,2.535-.012,3.8.013.456.009.589-.149.58-.591-.025-1.206.005-2.412-.016-3.617-.006-.4.087-.577.53-.575,2.655.016,5.311.022,7.966,0,.575-.005.531.315.531.692V52.065c0,.861,0,.861.889.861,2.635,0,5.27.013,7.905-.011.521,0,.71.13.69.673-.039,1.063-.033,2.13,0,3.194.015.5-.142.665-.648.657-1.669-.026-3.339-.009-5.009-.009q-10.923,0-21.846.011c-.567,0-.773-.132-.751-.73C100.249,55.462,100.214,54.216,100.214,52.861Z" fill="#fff"/>
            <path d="M134.679,49.551h9.494v-.766c0-5.486.008-10.973-.012-16.459,0-.546.13-.732.7-.719,1.528.037,3.058.028,4.587,0,.474-.007.664.1.662.626q-.03,8.351,0,16.7c0,.515-.169.658-.658.635-.759-.034-1.521-.009-2.39-.009,0,.824-.036,1.6.012,2.37.037.581-.151.741-.735.738q-6.789-.036-13.579,0c-.487,0-.69-.113-.658-.632.041-.66-.009-1.326.017-1.988.014-.374-.126-.5-.488-.488-.6.019-1.209-.029-1.809.014-.541.04-.683-.159-.679-.683.02-3.516.01-7.033.01-10.55V32.191c0-.248-.084-.566.334-.567h5.193Z" fill="#fff"/>
            <path d="M174.51,43.77v2.552c-.27.018-.5.046-.729.046H163.043c-.766,0-.767,0-.768.8,0,1.607-.013,3.214.007,4.821,0,.414-.112.571-.542.565-1.528-.019-3.056-.023-4.584,0-.477.008-.563-.188-.561-.609.012-3.515.006-7.03.006-10.545,0-3.033.017-6.067-.013-9.1-.006-.578.181-.7.719-.7q8.174.027,16.348,0c.556,0,.809.115.75.723-.052.537,0,1.084-.014,1.625-.013.371.143.5.5.487.643-.018,1.288.009,1.931-.009.378-.011.538.11.536.515q-.019,4.158,0,8.316c0,.4-.152.521-.534.511C176.085,43.751,175.343,43.77,174.51,43.77Zm-2.836.035V34.433a3.311,3.311,0,0,0-.345-.04c-2.857,0-5.714.008-8.57-.012-.5,0-.487.266-.486.61,0,2.753.014,5.506-.01,8.259,0,.5.165.6.623.6,2.736-.017,5.472-.008,8.208-.01C171.289,43.842,171.484,43.817,171.674,43.805Z" fill="#fff"/>
            <path d="M171.674,43.805c-.19.012-.385.037-.58.037-2.736,0-5.472-.007-8.208.01-.458,0-.627-.106-.623-.6.024-2.753.014-5.506.01-8.259,0-.344-.014-.614.486-.61,2.856.02,5.713.01,8.57.012a3.311,3.311,0,0,1,.345.04Z" fill="#2f2f2f"/>
          </g>
        </g>
      </g>
    </g>
  </g>
</svg>
