<?xml version="1.0" encoding="utf-8"?>
<!-- Generator: Adobe Illustrator 25.0.0, SVG Export Plug-In . SVG Version: 6.00 Build 0)  -->
<svg version="1.1" xmlns="http://www.w3.org/2000/svg" xmlns:xlink="http://www.w3.org/1999/xlink" x="0px" y="0px"
	 viewBox="0 0 800 250" style="enable-background:new 0 0 800 250;" xml:space="preserve">
<style type="text/css">
	.st0{fill:#222222;}
	.st1{opacity:0.8;fill:#FFFFFF;}
	.st2{fill:#1C1C1C;}
	.st3{fill:#FFFFFF;}
	.st4{fill:#444444;}
	.st5{fill:#FF0000;}
	.st6{fill:#3B3B3B;}
	.st7{fill:url(#SVGID_1_);}
	.st8{fill:#2D2D2D;}
	.st9{fill:#FF0303;}
	.st10{clip-path:url(#SVGID_3_);}
	.st11{opacity:0.15;enable-background:new    ;}
	.st12{fill:url(#SVGID_4_);}
	.st13{fill:url(#SVGID_5_);}
	.st14{fill:url(#SVGID_6_);}
	.st15{fill:#32323F;}
	.st16{fill:#474757;}
	.st17{fill:#DDDDDD;}
	.st18{fill:#BAC0D8;}
	.st19{fill:#ACAFBC;}
	.st20{fill:url(#SVGID_7_);}
	.st21{fill:url(#SVGID_8_);}
	.st22{fill:url(#SVGID_9_);}
	.st23{fill:url(#SVGID_10_);}
	.st24{fill:url(#SVGID_11_);}
	.st25{fill:url(#SVGID_12_);}
	.st26{fill:url(#SVGID_13_);}
	.st27{fill:url(#SVGID_14_);}
	.st28{fill:url(#SVGID_15_);}
	.st29{opacity:0.47;fill:url(#SVGID_16_);}
</style>
<g id="Layer_1">
	<rect class="st0" width="800" height="250"/>
</g>
<g id="Layer_7">
	<circle class="st1" cx="579.5" cy="72.5" r="3.5"/>
	<circle class="st1" cx="694.5" cy="30.5" r="3.5"/>
	<circle class="st1" cx="464.5" cy="34.5" r="3.5"/>
	<circle class="st1" cx="727.5" cy="125.5" r="3.5"/>
	<circle class="st1" cx="486.5" cy="130.5" r="3.5"/>
	<circle class="st1" cx="201.5" cy="20.5" r="3.5"/>
	<circle class="st1" cx="83.5" cy="34.5" r="3.5"/>
	<circle class="st1" cx="29.5" cy="98.5" r="3.5"/>
	<g>
		<g>
			<path class="st2" d="M306,155.5c-6.4,8.9-15.2,16.4-25.9,21.3c-21.5,9.8-45.4,7-63.6-5.3c-8.4,13.6-13.7,29.4-14.8,46.3h-0.2v28
				h203.3v-28h-0.2c-1.4-20.6-8.9-39.5-20.7-54.9c-2.4,1.5-4.9,2.8-7.5,4C352,178,324.4,172.6,306,155.5z"/>
			<path class="st3" d="M303.1,123c-36.6,0-68.7,19.4-86.6,48.5c18.2,12.3,42.2,15.1,63.6,5.3c10.7-4.9,19.5-12.3,25.9-21.3
				c18.4,17.1,46,22.5,70.3,11.4c2.6-1.2,5.1-2.5,7.5-4C365.2,138.6,336,123,303.1,123z"/>
		</g>
		<g>
			<path class="st4" d="M256.1,252.1c-1.9-28-15.1-52.9-35.1-70.1c-4.7,1.8-9.8,2.8-15.2,2.8c-10.6,0-20.2-3.9-27.7-10.3
				c-4.5,5.1-9.9,9.3-16,12.4c-6.2,29-31.9,50.8-62.8,50.8c-15.2,0-29.1-5.3-40.1-14c-3.3,9-5.4,18.5-6.1,28.5H53V250h203.3v2.1
				H256.1z"/>
			<path class="st3" d="M162.2,186.9c6.1-3.1,11.5-7.3,16-12.4c7.4,6.4,17.1,10.3,27.7,10.3c5.4,0,10.5-1,15.2-2.8
				c-17.8-15.4-41-24.7-66.4-24.7c-43.7,0-81,27.6-95.4,66.3c11,8.8,24.9,14,40.1,14C130.3,237.7,156,215.9,162.2,186.9z"/>
		</g>
	</g>
	<path class="st4" d="M565.5,231.1L565.5,231.1c-2.9,0-5.2-2.3-5.2-5.2V31.3c0-2.9,2.3-5.2,5.2-5.2l0,0c2.9,0,5.2,2.3,5.2,5.2v194.6
		C570.7,228.8,568.4,231.1,565.5,231.1z"/>
	<g>
		<g>
			<rect x="570.7" y="36.3" class="st3" width="33.7" height="33.7"/>
			<rect x="570.7" y="70" width="33.7" height="33.7"/>
			
				<rect x="604.5" y="70" transform="matrix(-1 -1.224647e-16 1.224647e-16 -1 1242.6901 173.7682)" class="st3" width="33.7" height="33.7"/>
			<rect x="604.5" y="36.3" transform="matrix(-1 -1.224647e-16 1.224647e-16 -1 1242.6901 106.2816)" width="33.7" height="33.7"/>
			<rect x="638.2" y="36.3" class="st3" width="33.7" height="33.7"/>
			<rect x="638.2" y="70" width="33.7" height="33.7"/>
			
				<rect x="672" y="70" transform="matrix(-1 -1.224647e-16 1.224647e-16 -1 1377.6633 173.7682)" class="st3" width="33.7" height="33.7"/>
			<rect x="672" y="36.3" transform="matrix(-1 -1.224647e-16 1.224647e-16 -1 1377.6633 106.2816)" width="33.7" height="33.7"/>
			<rect x="705.7" y="36.3" class="st3" width="33.7" height="33.7"/>
			<rect x="705.7" y="70" width="33.7" height="33.7"/>
			
				<rect x="739.4" y="70" transform="matrix(-1 -1.224647e-16 1.224647e-16 -1 1512.6367 173.7682)" class="st3" width="33.7" height="33.7"/>
			<rect x="739.4" y="36.3" transform="matrix(-1 -1.224647e-16 1.224647e-16 -1 1512.6367 106.2816)" width="33.7" height="33.7"/>
		</g>
		<g>
			<g>
				<g>
					<path class="st5" d="M620,84.1c-0.5,0-1.1,0-1.9-0.1c-0.8-0.1-1.6-0.2-2.4-0.4c-0.9-0.2-1.8-0.4-2.6-0.7
						c-0.9-0.3-1.7-0.6-2.5-1c-0.8-0.4-1.5-0.9-2-1.4c-0.6-0.7-0.9-1.4-0.9-2.3c0-0.9,0.3-1.7,1-2.4c0.7-0.7,1.5-1.1,2.4-1.1
						c0.6,0,1.1,0.1,1.6,0.4c0.6,0.3,1.2,0.6,1.8,0.9c0.6,0.2,1.2,0.4,1.8,0.6c0.6,0.2,1.2,0.3,1.8,0.4c0.6,0.1,1.3,0.1,2,0.1
						c0.4,0,1,0,1.6-0.1c0.6-0.1,1.1-0.2,1.6-0.3c0.5-0.2,0.8-0.4,1.2-0.7c0.1-0.1,0.3-0.3,0.3-0.8c0-0.3-0.1-0.7-0.7-1
						c-0.7-0.4-1.6-0.8-2.7-1.1c-1.1-0.4-2.4-0.7-3.7-1.1c-1.4-0.4-2.8-0.9-4-1.6c-1.3-0.7-2.3-1.6-3.2-2.7
						c-0.9-1.2-1.4-2.7-1.4-4.6c0-1.6,0.4-3,1.2-4.1c0.7-1.1,1.7-1.9,2.9-2.5c1.1-0.6,2.3-1,3.7-1.2c1.3-0.2,2.6-0.3,3.8-0.3
						c0.6,0,1.3,0,2.1,0.1c0.8,0.1,1.6,0.2,2.4,0.3c0.8,0.1,1.6,0.3,2.3,0.5c0.8,0.2,1.5,0.5,2.1,0.7c0.6,0.3,1.1,0.7,1.5,1.1
						c0.4,0.5,0.6,1.2,0.6,2c0,0.9-0.3,1.8-1,2.4s-1.5,1-2.4,1c-0.4,0-0.8-0.1-1.3-0.3c-1-0.4-2.1-0.7-3.1-0.9
						c-1-0.2-2.1-0.3-3.2-0.3c-0.4,0-0.9,0-1.5,0c-0.5,0-1.1,0.1-1.6,0.2c-0.4,0.1-0.8,0.3-1.1,0.5c-0.1,0.1-0.2,0.2-0.2,0.6
						c0,0.1,0,0.3,0.2,0.5c0.2,0.3,0.6,0.5,1,0.8c0.4,0.3,1,0.5,1.5,0.7c0.6,0.2,1.2,0.4,1.8,0.6c0.6,0.2,1.1,0.3,1.6,0.5
						c0.5,0.1,0.9,0.3,1.2,0.3c1,0.3,2,0.7,3,1.1c1,0.4,1.9,0.9,2.7,1.6c0.8,0.6,1.4,1.5,1.9,2.4c0.5,1,0.7,2.1,0.7,3.4
						c0,1.7-0.4,3.2-1.1,4.4c-0.7,1.1-1.7,2.1-2.9,2.8c-1.1,0.7-2.4,1.1-3.8,1.4C622.7,83.9,621.3,84.1,620,84.1z"/>
					<path d="M620.6,56c0.6,0,1.3,0,2.1,0.1c0.8,0.1,1.5,0.2,2.3,0.3c0.8,0.1,1.5,0.3,2.3,0.5c0.7,0.2,1.4,0.4,1.9,0.7
						c0.4,0.2,0.8,0.5,1.1,0.9c0.3,0.4,0.4,0.8,0.4,1.3c0,0.7-0.2,1.3-0.7,1.7c-0.5,0.5-1.1,0.7-1.7,0.7c-0.3,0-0.6-0.1-0.9-0.2
						c-1.1-0.4-2.2-0.7-3.2-0.9c-1.1-0.2-2.2-0.3-3.4-0.3c-0.4,0-0.9,0-1.5,0c-0.6,0-1.2,0.1-1.8,0.3c-0.6,0.2-1.1,0.4-1.5,0.7
						c-0.4,0.3-0.6,0.8-0.6,1.4c0,0.4,0.2,0.8,0.5,1.2c0.3,0.4,0.7,0.7,1.2,1c0.5,0.3,1.1,0.6,1.7,0.8c0.6,0.2,1.2,0.4,1.8,0.6
						c0.6,0.2,1.1,0.3,1.6,0.5c0.5,0.1,0.9,0.3,1.2,0.3c1,0.3,1.9,0.7,2.9,1c0.9,0.4,1.7,0.8,2.4,1.4c0.7,0.6,1.2,1.3,1.7,2.1
						c0.4,0.8,0.6,1.8,0.6,3c0,1.5-0.3,2.8-1,3.8c-0.7,1-1.5,1.8-2.5,2.4c-1,0.6-2.2,1-3.5,1.3c-1.3,0.2-2.6,0.4-3.9,0.4
						c-0.4,0-1,0-1.8-0.1c-0.7-0.1-1.5-0.2-2.3-0.4c-0.8-0.2-1.7-0.4-2.5-0.6c-0.8-0.3-1.6-0.6-2.3-0.9c-0.7-0.4-1.3-0.8-1.7-1.2
						c-0.4-0.5-0.7-1-0.7-1.6c0-0.6,0.2-1.2,0.7-1.7c0.5-0.5,1-0.7,1.7-0.7c0.4,0,0.8,0.1,1.1,0.3c0.7,0.4,1.3,0.7,1.9,0.9
						c0.6,0.3,1.3,0.5,1.9,0.6c0.6,0.2,1.3,0.3,1.9,0.4c0.7,0.1,1.4,0.1,2.1,0.1c0.5,0,1,0,1.7-0.1c0.6-0.1,1.3-0.2,1.8-0.4
						c0.6-0.2,1.1-0.5,1.5-0.9c0.4-0.4,0.6-0.9,0.6-1.5c0-0.8-0.4-1.4-1.2-1.9c-0.8-0.5-1.7-0.9-2.9-1.2c-1.1-0.4-2.4-0.7-3.8-1.1
						c-1.4-0.4-2.6-0.9-3.8-1.5c-1.1-0.6-2.1-1.4-2.9-2.5c-0.8-1-1.2-2.4-1.2-4c0-1.4,0.3-2.6,1-3.6s1.5-1.7,2.5-2.2
						s2.2-0.9,3.4-1.1C618.2,56.1,619.5,56,620.6,56 M620.6,54c-1.3,0-2.6,0.1-4,0.3c-1.5,0.2-2.8,0.7-4,1.3
						c-1.3,0.7-2.4,1.6-3.2,2.8c-0.9,1.3-1.3,2.9-1.3,4.7c0,2.1,0.5,3.9,1.6,5.2c0.9,1.2,2.1,2.3,3.5,3c1.3,0.7,2.7,1.3,4.2,1.7
						c1.3,0.4,2.6,0.7,3.7,1.1c1,0.3,1.8,0.6,2.4,1c0.1,0.1,0.2,0.1,0.2,0.1c0,0,0,0,0,0c0,0,0,0,0,0.1c-0.2,0.2-0.5,0.3-0.8,0.4
						c-0.4,0.1-0.9,0.2-1.4,0.3c-0.6,0.1-1.1,0.1-1.5,0.1c-0.7,0-1.3,0-1.9-0.1c-0.6-0.1-1.1-0.2-1.7-0.3c-0.5-0.1-1.1-0.3-1.6-0.6
						c-0.6-0.2-1.1-0.5-1.7-0.8c-0.7-0.4-1.4-0.6-2.1-0.6c-1.2,0-2.3,0.5-3.1,1.4c-0.8,0.9-1.3,1.9-1.3,3.1c0,1.1,0.4,2.1,1.2,2.9
						c0.6,0.6,1.4,1.2,2.2,1.6c0.8,0.4,1.7,0.8,2.6,1c0.9,0.3,1.8,0.5,2.7,0.7c0.9,0.2,1.7,0.3,2.5,0.4c0.8,0.1,1.5,0.1,2,0.1
						c1.4,0,2.8-0.1,4.2-0.4c1.5-0.3,2.9-0.8,4.1-1.5c1.3-0.8,2.4-1.8,3.2-3.1c0.9-1.3,1.3-3,1.3-4.9c0-1.5-0.3-2.8-0.8-3.9
						c-0.5-1.1-1.3-2-2.2-2.7c-0.8-0.7-1.8-1.3-2.9-1.7c-1-0.4-2-0.8-3-1.1l0,0l0,0c-0.3-0.1-0.7-0.2-1.2-0.3
						c-0.5-0.1-1-0.3-1.6-0.5c-0.5-0.2-1.1-0.4-1.7-0.6c-0.5-0.2-1-0.4-1.4-0.6c-0.2-0.1-0.4-0.3-0.6-0.4c0.1-0.1,0.3-0.1,0.5-0.2
						c0.4-0.1,0.9-0.2,1.3-0.2c0.6,0,1.1,0,1.5,0c1,0,2,0.1,3,0.3c1,0.2,2,0.5,3,0.8c0.6,0.2,1.1,0.3,1.6,0.3c1.2,0,2.3-0.5,3.2-1.3
						c0.9-0.9,1.3-1.9,1.3-3.2c0-1-0.3-1.9-0.9-2.6c-0.5-0.6-1.1-1.1-1.8-1.4c-0.7-0.3-1.4-0.6-2.3-0.8c-0.8-0.2-1.6-0.4-2.4-0.5
						c-0.8-0.2-1.7-0.3-2.5-0.3C622,54.1,621.3,54,620.6,54L620.6,54z"/>
				</g>
				<g>
					<path class="st5" d="M644.9,83.9c-1,0-1.9-0.4-2.6-1.1c-0.7-0.7-1-1.6-1-2.6V62.4h-6.2c-1,0-1.8-0.3-2.4-1s-1-1.5-1-2.4
						c0-0.9,0.3-1.8,1-2.4c0.7-0.7,1.5-1,2.4-1h19.6c0.9,0,1.8,0.3,2.4,1c0.7,0.7,1,1.5,1,2.4c0,0.9-0.4,1.8-1,2.4
						c-0.7,0.7-1.5,1-2.4,1h-6.2v17.9c0,1-0.4,1.9-1.1,2.6C646.7,83.5,645.9,83.9,644.9,83.9z"/>
					<path d="M654.7,56.5c0.7,0,1.3,0.2,1.7,0.7c0.5,0.5,0.7,1.1,0.7,1.7c0,0.7-0.2,1.3-0.7,1.7c-0.5,0.5-1.1,0.7-1.7,0.7h-7.2v18.9
						c0,0.7-0.3,1.4-0.8,1.9s-1.1,0.8-1.9,0.8s-1.3-0.3-1.8-0.8s-0.7-1.1-0.7-1.9V61.4h-7.2c-0.7,0-1.3-0.2-1.7-0.7s-0.7-1-0.7-1.7
						c0-0.7,0.2-1.3,0.7-1.7s1-0.7,1.7-0.7H654.7 M654.7,54.5h-19.6c-1.2,0-2.3,0.5-3.2,1.3c-0.8,0.9-1.3,1.9-1.3,3.1
						c0,1.2,0.4,2.3,1.3,3.1c0.8,0.8,1.9,1.3,3.1,1.3h5.2v16.9c0,1.3,0.5,2.4,1.3,3.3c0.9,0.9,2,1.4,3.3,1.4c1.3,0,2.4-0.5,3.3-1.3
						c0.9-0.9,1.3-2,1.3-3.3V63.4h5.2c1.2,0,2.3-0.4,3.1-1.3c0.9-0.8,1.3-1.9,1.3-3.2c0-1.2-0.5-2.3-1.3-3.2
						C657,54.9,655.9,54.5,654.7,54.5L654.7,54.5z"/>
				</g>
				<g>
					<path class="st5" d="M680.2,83.9c-0.7,0-1.3-0.2-1.9-0.5c-0.5-0.3-1-0.8-1.2-1.4l-1.9-4.2h-10l-1.9,4.2
						c-0.3,0.6-0.7,1.1-1.3,1.5c-0.6,0.3-1.2,0.5-1.8,0.5c-1,0-1.8-0.3-2.4-1c-0.7-0.7-1-1.5-1-2.4c0-0.5,0.1-1,0.3-1.4l10-21.9
						c0.3-0.6,0.7-1.1,1.2-1.4c0.6-0.4,1.2-0.6,1.8-0.6c0.6,0,1.3,0.2,1.8,0.5c0.6,0.4,1,0.8,1.3,1.5l10,21.9c0.2,0.5,0.3,1,0.3,1.4
						c0,0.9-0.3,1.8-1,2.4C682,83.5,681.1,83.9,680.2,83.9z M672.3,71.3l-2.1-4.7l-2.1,4.7H672.3z"/>
					<path d="M670.1,56.1c0.5,0,0.9,0.1,1.3,0.4c0.4,0.2,0.7,0.6,0.9,1l10,21.9c0.1,0.3,0.2,0.7,0.2,1c0,0.7-0.2,1.3-0.7,1.7
						s-1,0.7-1.7,0.7c-0.5,0-0.9-0.1-1.3-0.4c-0.4-0.2-0.7-0.6-0.9-1l-2.2-4.8h-11.3l-2.2,4.8c-0.2,0.4-0.5,0.8-0.9,1
						c-0.4,0.2-0.8,0.4-1.3,0.4c-0.7,0-1.3-0.2-1.7-0.7c-0.5-0.5-0.7-1.1-0.7-1.7c0-0.3,0.1-0.7,0.2-1l10-21.9
						c0.2-0.4,0.5-0.8,0.9-1C669.2,56.3,669.6,56.1,670.1,56.1 M666.5,72.3h7.3l-3.7-8.1L666.5,72.3 M670.1,54.1
						c-0.9,0-1.7,0.2-2.4,0.7c-0.7,0.5-1.2,1.1-1.6,1.9l-10,21.8c-0.3,0.6-0.4,1.2-0.4,1.8c0,1.2,0.5,2.3,1.3,3.2
						c0.9,0.9,1.9,1.3,3.2,1.3c0.9,0,1.6-0.2,2.4-0.7c0.7-0.5,1.3-1.1,1.6-1.9l1.6-3.6h8.7l1.6,3.6c0.4,0.8,0.9,1.4,1.6,1.9
						c0.7,0.5,1.5,0.7,2.4,0.7c1.2,0,2.3-0.5,3.1-1.3c0.8-0.8,1.3-1.9,1.3-3.1c0-0.6-0.1-1.2-0.3-1.7l0-0.1l0-0.1l-10-21.9
						c-0.4-0.8-1-1.5-1.7-1.9C671.7,54.4,670.9,54.1,670.1,54.1L670.1,54.1z M669.6,70.3l0.6-1.3l0.6,1.3H669.6L669.6,70.3z"/>
				</g>
				<g>
					<path class="st5" d="M706.3,83.9c-0.7,0-1.3-0.2-1.8-0.5c-0.6-0.3-1-0.8-1.3-1.4c-0.1-0.2-0.3-0.5-0.5-1l-0.8-1.7
						c-0.4-0.8-0.7-1.5-1.1-2.3c-0.4-0.8-0.8-1.5-1.1-2.2c-0.3-0.6-0.6-1.2-0.8-1.6c0-0.1-0.1-0.1-0.1-0.2h-5.5v7.3
						c0,1-0.4,1.9-1.1,2.6c-0.7,0.7-1.6,1-2.5,1c-1,0-1.9-0.3-2.5-1c-0.7-0.7-1-1.5-1-2.5V59.1c0-1,0.3-1.9,1-2.5
						c0.7-0.7,1.5-1,2.5-1h9.7c1.3,0,2.7,0.1,3.9,0.4c1.3,0.3,2.4,0.8,3.4,1.5c1,0.7,1.8,1.7,2.4,2.8c0.6,1.1,0.9,2.5,0.9,4.1
						c0,1.7-0.4,3.3-1.2,4.6c-0.6,1.1-1.6,2-2.7,2.6c0,0.1,0.1,0.1,0.1,0.2c0.3,0.5,0.6,1.1,0.9,1.7c0.3,0.6,0.6,1.3,1,1.9
						c0.3,0.7,0.6,1.3,0.9,1.9c0.3,0.6,0.5,1.2,0.7,1.7c0.2,0.6,0.3,1,0.3,1.4c0,1-0.3,1.8-1,2.5C708.1,83.5,707.3,83.9,706.3,83.9z
						 M700.1,66.6c0.8,0,1.4-0.2,1.9-0.6c0.3-0.2,0.6-0.6,0.6-1.5c0-1-0.4-1.4-0.6-1.6c-0.5-0.4-1.1-0.6-1.9-0.6h-6.8v4.3H700.1z"/>
					<path d="M699.4,56.5c1.3,0,2.5,0.1,3.7,0.4c1.2,0.3,2.2,0.7,3,1.4c0.9,0.6,1.5,1.4,2.1,2.4s0.8,2.2,0.8,3.6
						c0,1.5-0.4,2.9-1.1,4.1c-0.7,1.2-1.8,2.1-3.2,2.7c0.1,0.3,0.3,0.6,0.6,1.1s0.5,1,0.9,1.7c0.3,0.6,0.6,1.3,1,1.9
						s0.6,1.3,0.9,1.9c0.3,0.6,0.5,1.1,0.7,1.6c0.2,0.5,0.3,0.8,0.3,1c0,0.7-0.2,1.3-0.7,1.8c-0.5,0.5-1.1,0.7-1.8,0.7
						c-0.5,0-0.9-0.1-1.3-0.4c-0.4-0.2-0.7-0.6-0.9-1c-0.1-0.1-0.2-0.5-0.5-1s-0.5-1.1-0.9-1.8c-0.3-0.7-0.7-1.4-1.1-2.2
						c-0.4-0.8-0.7-1.5-1.1-2.1c-0.3-0.7-0.6-1.2-0.8-1.6c-0.2-0.4-0.3-0.7-0.3-0.7h-7.2v8.3c0,0.7-0.3,1.3-0.8,1.8
						c-0.5,0.5-1.1,0.7-1.8,0.7c-0.7,0-1.3-0.2-1.8-0.7c-0.5-0.5-0.7-1.1-0.7-1.8V59.1c0-0.7,0.2-1.3,0.7-1.8
						c0.5-0.5,1.1-0.7,1.8-0.7H699.4 M692.3,67.6h7.8c1,0,1.8-0.3,2.5-0.8c0.7-0.5,1.1-1.3,1.1-2.3c0-1-0.3-1.8-1-2.4
						c-0.7-0.5-1.5-0.8-2.5-0.8h-7.8V67.6 M699.4,54.5h-9.7c-1.3,0-2.4,0.5-3.3,1.3c-0.9,0.9-1.3,2-1.3,3.3v21.2
						c0,1.3,0.5,2.4,1.3,3.3c0.9,0.9,2,1.3,3.3,1.3c1.2,0,2.3-0.4,3.2-1.3c0.9-0.9,1.4-2,1.4-3.3V74h3.9c0.2,0.4,0.4,0.8,0.6,1.2
						c0.3,0.7,0.7,1.4,1.1,2.2c0.4,0.8,0.7,1.5,1.1,2.2l0,0.1l0.8,1.7c0.3,0.6,0.4,0.9,0.5,1c0.4,0.8,0.9,1.4,1.6,1.8
						c0.7,0.4,1.5,0.7,2.4,0.7c1.2,0,2.3-0.5,3.2-1.3c0.9-0.9,1.3-2,1.3-3.2c0-0.5-0.1-1-0.4-1.7c-0.2-0.5-0.4-1.1-0.7-1.7
						c-0.3-0.6-0.6-1.3-0.9-1.9c-0.3-0.7-0.7-1.3-1-2c-0.2-0.4-0.4-0.8-0.6-1.1c0.9-0.7,1.7-1.5,2.3-2.5c0.9-1.5,1.3-3.2,1.3-5.1
						c0-1.7-0.3-3.3-1-4.6c-0.7-1.3-1.5-2.3-2.7-3.1c-1.1-0.8-2.3-1.3-3.7-1.7C702.2,54.7,700.8,54.5,699.4,54.5L699.4,54.5z
						 M694.3,63.3h5.8c0.7,0,1.1,0.2,1.3,0.4c0.1,0.1,0.3,0.2,0.3,0.8c0,0.5-0.2,0.7-0.2,0.7c-0.4,0.3-0.8,0.4-1.3,0.4h-5.8V63.3
						L694.3,63.3z"/>
				</g>
				<g>
					<path class="st5" d="M723.8,83.9c-1,0-1.9-0.4-2.6-1.1c-0.7-0.7-1-1.6-1-2.6V62.4H714c-1,0-1.8-0.3-2.4-1s-1-1.5-1-2.4
						c0-0.9,0.3-1.8,1-2.4c0.7-0.7,1.5-1,2.4-1h19.6c1,0,1.8,0.3,2.4,1c0.7,0.7,1,1.5,1,2.4c0,0.9-0.4,1.8-1,2.4
						c-0.7,0.7-1.5,1-2.4,1h-6.2v17.9c0,1-0.4,1.9-1.1,2.6C725.7,83.5,724.8,83.9,723.8,83.9z"/>
					<path d="M733.6,56.5c0.7,0,1.3,0.2,1.7,0.7c0.5,0.5,0.7,1.1,0.7,1.7c0,0.7-0.2,1.3-0.7,1.7c-0.5,0.5-1.1,0.7-1.7,0.7h-7.2v18.9
						c0,0.7-0.3,1.4-0.8,1.9s-1.1,0.8-1.9,0.8s-1.3-0.3-1.8-0.8s-0.7-1.1-0.7-1.9V61.4H714c-0.7,0-1.3-0.2-1.7-0.7s-0.7-1-0.7-1.7
						c0-0.7,0.2-1.3,0.7-1.7s1-0.7,1.7-0.7H733.6 M733.6,54.5H714c-1.2,0-2.3,0.5-3.2,1.3c-0.8,0.9-1.3,1.9-1.3,3.1
						c0,1.2,0.4,2.3,1.3,3.1c0.8,0.8,1.9,1.3,3.1,1.3h5.2v16.9c0,1.3,0.5,2.4,1.3,3.3c0.9,0.9,2,1.4,3.3,1.4c1.3,0,2.4-0.5,3.3-1.3
						c0.9-0.9,1.3-2,1.3-3.3V63.4h5.2c1.2,0,2.3-0.4,3.1-1.3c0.9-0.8,1.3-1.9,1.3-3.2c0-1.2-0.5-2.3-1.3-3.2
						C735.9,54.9,734.8,54.5,733.6,54.5L733.6,54.5z"/>
				</g>
			</g>
		</g>
		<path class="st4" d="M778.4,231.1L778.4,231.1c-2.9,0-5.2-2.3-5.2-5.2V31.3c0-2.9,2.3-5.2,5.2-5.2l0,0c2.9,0,5.2,2.3,5.2,5.2
			v194.6C783.6,228.8,781.2,231.1,778.4,231.1z"/>
	</g>
</g>
<g id="Layer_5">
	<rect y="220" class="st6" width="800" height="30"/>
	<rect x="15" y="220" class="st3" width="99" height="6"/>
	<rect x="221" y="220" class="st3" width="99" height="6"/>
	<rect x="429" y="220" class="st3" width="99" height="6"/>
	<rect x="635" y="220" class="st3" width="99" height="6"/>
</g>
<g id="Layer_3">
	<linearGradient id="SVGID_1_" gradientUnits="userSpaceOnUse" x1="676.1203" y1="178.618" x2="722" y2="178.618">
		<stop  offset="0" style="stop-color:#FCEE21"/>
		<stop  offset="1" style="stop-color:#FCEE21;stop-opacity:0"/>
	</linearGradient>
	<polygon class="st7" points="722,203.5 676.1,185.4 676.1,173.1 722,153.7 	"/>
	<g id="Layer_2_1_">
		<g id="Premium">
			<g id="premium-mini-red">
				
					<rect x="498.2" y="165.5" transform="matrix(4.205010e-02 -0.9991 0.9991 4.205010e-02 294.4025 695.6408)" class="st8" width="23.5" height="57.6"/>
				<rect x="610.1" y="185.1" class="st8" width="57.6" height="23.5"/>
				<path class="st9" d="M676.7,184.5c-0.9-10.1-6-15.7-15.9-17.6l-32.5-4.1L612.8,142c-2.9-4.4-7.7-7-13-7h-82.5
					c-6.1,0-11.8,2.7-15.6,7.5L483.6,165c-2,2.5-3.3,5.4-4,8.5l-4.5,22c-0.7,3.4,1,6.9,4.1,8.5l0.2,0.1c2.7,1.4,5.6,2.4,8.6,2.9
					c-2.7-9.8,3.2-20,13-22.6c9.8-2.7,20,3.2,22.6,13c0.9,3.5,0.8,7.2-0.3,10.6l105.6,2.1c-2.9-9.8,2.6-20.1,12.4-23
					c9.8-2.9,20.1,2.6,23,12.4c1.1,3.6,1,7.5-0.1,11.1c7.2-1.2,12.5-7.4,12.5-14.7L676.7,184.5z"/>
				<g>
					<defs>
						<path id="SVGID_2_" d="M676.7,184.5c-0.9-10.1-6-15.7-15.9-17.6l-32.5-4.1L612.8,142c-2.9-4.4-7.7-7-13-7h-82.5
							c-6.1,0-11.8,2.7-15.6,7.5L483.6,165c-2,2.5-3.3,5.4-4,8.5l-4.5,22c-0.7,3.4,1,6.9,4.1,8.5l0.2,0.1c2.7,1.4,5.6,2.4,8.6,2.9
							c-2.7-9.8,3.2-20,13-22.6c9.8-2.7,20,3.2,22.6,13c0.9,3.5,0.8,7.2-0.3,10.6l105.6,2.1c-2.9-9.8,2.6-20.1,12.4-23
							c9.8-2.9,20.1,2.6,23,12.4c1.1,3.6,1,7.5-0.1,11.1c7.2-1.2,12.5-7.4,12.5-14.7L676.7,184.5z"/>
					</defs>
					<clipPath id="SVGID_3_">
						<use xlink:href="#SVGID_2_"  style="overflow:visible;"/>
					</clipPath>
					<g class="st10">
						<path class="st11" d="M474,168.5l159.6,11.3c0,0,39.7-12.8,48.8,10l-3.8,31c0,0-28.2,5.9-31.3,5.9s-92.3,0.6-97.3,0
							c-5-0.6-78.2-5.9-78.2-5.9l-8.1-31.6L474,168.5z"/>
						<path class="st3" d="M510,107.8l96.2,1.2c4.4,0.1,7.9,3.6,7.8,8l-0.2,15.4c-0.1,4.4-3.6,7.9-8,7.8l-96.2-1.2
							c-4.4-0.1-7.9-3.6-7.8-8l0.2-15.4C502,111.3,505.6,107.8,510,107.8z"/>
					</g>
				</g>
				
					<linearGradient id="SVGID_4_" gradientUnits="userSpaceOnUse" x1="560.3442" y1="98.4118" x2="611.6412" y2="98.4118" gradientTransform="matrix(1 0 0 -1 0 252)">
					<stop  offset="0" style="stop-color:#C9E7F9"/>
					<stop  offset="1" style="stop-color:#AAFFF9"/>
				</linearGradient>
				<path class="st12" d="M606.7,165.4l-41.6-0.9c-2.6-0.1-4.7-2.2-4.7-4.8v-13.1c0-2.7,2.2-4.8,4.9-4.8c0.1,0,0.1,0,0.2,0l32.3,1
					c1.5,0,2.9,0.8,3.8,2l9.3,13c1.6,2.2,1,5.2-1.1,6.8C608.7,165.2,607.7,165.5,606.7,165.4z"/>
				
					<linearGradient id="SVGID_5_" gradientUnits="userSpaceOnUse" x1="509.0474" y1="98.6149" x2="555.025" y2="98.6149" gradientTransform="matrix(1 0 0 -1 0 252)">
					<stop  offset="0" style="stop-color:#C9E7F9"/>
					<stop  offset="1" style="stop-color:#AAFFF9"/>
				</linearGradient>
				<path class="st13" d="M513.6,164l36.7,1.2c2.6,0.1,4.7-1.9,4.8-4.5c0,0,0-0.1,0-0.1v-14.3c0-2.6-2.1-4.6-4.6-4.6l0,0h-30.6
					c-1.8,0-3.5,1-4.2,2.7l-6.1,13.1c-1.1,2.3-0.1,5.1,2.2,6.2C512.3,163.8,512.9,164,513.6,164z"/>
				
					<linearGradient id="SVGID_6_" gradientUnits="userSpaceOnUse" x1="607.5488" y1="99.7322" x2="628.2415" y2="99.7322" gradientTransform="matrix(1 0 0 -1 0 252)">
					<stop  offset="0" style="stop-color:#C9E7F9"/>
					<stop  offset="1" style="stop-color:#AAFFF9"/>
				</linearGradient>
				<path class="st14" d="M628.2,162.8l-5,0.9c-0.9,0.4-2,0.1-2.6-0.8l-12.8-18.6c-0.7-1-0.4-2.3,0.6-3c0.3-0.2,0.5-0.3,0.9-0.3
					l2.3-0.4L628.2,162.8z"/>
				
					<ellipse transform="matrix(4.205308e-02 -0.9991 0.9991 4.205308e-02 279.3595 701.4685)" class="st15" cx="505.5" cy="205.1" rx="15.8" ry="15.9"/>
				
					<ellipse transform="matrix(4.205010e-02 -0.9991 0.9991 4.205010e-02 279.3609 701.4692)" class="st16" cx="505.5" cy="205.1" rx="15.4" ry="15.5"/>
				
					<ellipse transform="matrix(4.205010e-02 -0.9991 0.9991 4.205010e-02 279.3609 701.4692)" cx="505.5" cy="205.1" rx="11.6" ry="11.6"/>
				
					<ellipse transform="matrix(4.205010e-02 -0.9991 0.9991 4.205010e-02 279.3609 701.4692)" class="st3" cx="505.5" cy="205.1" rx="11" ry="11.1"/>
				
					<ellipse transform="matrix(4.205010e-02 -0.9991 0.9991 4.205010e-02 279.3609 701.4692)" class="st17" cx="505.5" cy="205.1" rx="10.4" ry="10.5"/>
				
					<ellipse transform="matrix(4.205010e-02 -0.9991 0.9991 4.205010e-02 279.3609 701.4692)" class="st18" cx="505.5" cy="205.1" rx="6.5" ry="6.5"/>
				
					<ellipse transform="matrix(4.205010e-02 -0.9991 0.9991 4.205010e-02 279.3609 701.4692)" class="st19" cx="505.5" cy="205.1" rx="5.9" ry="6"/>
				
					<ellipse transform="matrix(4.205010e-02 -0.9991 0.9991 4.205010e-02 415.1428 843.0862)" class="st15" cx="647.2" cy="205.1" rx="15.8" ry="15.9"/>
				
					<ellipse transform="matrix(4.205010e-02 -0.9991 0.9991 4.205010e-02 415.1428 843.0862)" class="st16" cx="647.2" cy="205.1" rx="15.4" ry="15.5"/>
				
					<ellipse transform="matrix(4.205010e-02 -0.9991 0.9991 4.205010e-02 415.1428 843.0862)" cx="647.2" cy="205.1" rx="11.6" ry="11.6"/>
				
					<ellipse transform="matrix(4.205010e-02 -0.9991 0.9991 4.205010e-02 415.1428 843.0862)" class="st3" cx="647.2" cy="205.1" rx="11" ry="11.1"/>
				
					<ellipse transform="matrix(4.205010e-02 -0.9991 0.9991 4.205010e-02 415.1428 843.0862)" class="st17" cx="647.2" cy="205.1" rx="10.4" ry="10.5"/>
				
					<ellipse transform="matrix(4.205010e-02 -0.9991 0.9991 4.205010e-02 415.1428 843.0862)" class="st18" cx="647.2" cy="205.1" rx="6.5" ry="6.5"/>
				
					<ellipse transform="matrix(4.205010e-02 -0.9991 0.9991 4.205010e-02 415.1428 843.0862)" class="st19" cx="647.2" cy="205.1" rx="5.9" ry="6"/>
				
					<linearGradient id="SVGID_7_" gradientUnits="userSpaceOnUse" x1="472.7681" y1="54.4228" x2="483.0403" y2="54.4228" gradientTransform="matrix(1 0 0 -1 -2.844527e-03 252.0012)">
					<stop  offset="0" style="stop-color:#999999"/>
					<stop  offset="1" style="stop-color:#FFFFFF"/>
				</linearGradient>
				<path class="st20" d="M475.2,195l5.9,0.8c1.2,0.2,2,1.3,1.9,2.5l0,0c-0.2,1.2-1.3,2-2.5,1.9l-5.9-0.8c-1.2-0.2-2-1.3-1.9-2.5
					l0,0C472.9,195.7,474.1,194.8,475.2,195z"/>
				
					<linearGradient id="SVGID_8_" gradientUnits="userSpaceOnUse" x1="988.5434" y1="1272.2611" x2="998.8407" y2="1272.2611" gradientTransform="matrix(0.99 -7.000000e-02 -0.13 -0.51 -250.51 889.74)">
					<stop  offset="0" style="stop-color:#999999"/>
					<stop  offset="1" style="stop-color:#FFFFFF"/>
				</linearGradient>
				<path class="st21" d="M562.3,170.6h8.7c0.5,0,0.8,0.4,0.8,0.8l0,0c0,0.5-0.4,0.8-0.8,0.8h-8.7c-0.5,0-0.8-0.4-0.8-0.8l0,0
					C561.5,171,561.8,170.6,562.3,170.6z"/>
				
					<linearGradient id="SVGID_9_" gradientUnits="userSpaceOnUse" x1="935.8307" y1="1279.5051" x2="946.128" y2="1279.5051" gradientTransform="matrix(0.99 -7.000000e-02 -0.13 -0.51 -250.51 889.74)">
					<stop  offset="0" style="stop-color:#999999"/>
					<stop  offset="1" style="stop-color:#FFFFFF"/>
				</linearGradient>
				<path class="st22" d="M509.1,170.6h8.7c0.5,0,0.8,0.4,0.8,0.8l0,0c0,0.5-0.4,0.8-0.8,0.8h-8.7c-0.5,0-0.8-0.4-0.8-0.8l0,0
					C508.3,171,508.6,170.6,509.1,170.6z"/>
				
					<linearGradient id="SVGID_10_" gradientUnits="userSpaceOnUse" x1="-2251.8315" y1="94.7227" x2="-2241.2883" y2="94.7227" gradientTransform="matrix(10.3026 7.600001e-02 -1.3806 -0.998 23855.0469 470.1896)">
					<stop  offset="0" style="stop-color:#999999"/>
					<stop  offset="1" style="stop-color:#FFFFFF"/>
				</linearGradient>
				<path class="st23" d="M525.1,201.7l103,2.1c1.2,0,2.1,1,2.1,2.2v0c0,1.2-1,2.1-2.2,2.1L525,206c-1.2,0-2.1-1-2.1-2.2v0
					C522.9,202.6,523.9,201.7,525.1,201.7z"/>
				
					<linearGradient id="SVGID_11_" gradientUnits="userSpaceOnUse" x1="667.04" y1="50.8236" x2="677.0525" y2="50.8236" gradientTransform="matrix(1 0 0 -1 0 252)">
					<stop  offset="0" style="stop-color:#999999"/>
					<stop  offset="1" style="stop-color:#FFFFFF"/>
				</linearGradient>
				<path class="st24" d="M669.1,199.1h5.9c1.1,0,2,0.9,2,2l0,0c0,1.1-0.9,2-2,2h-5.9c-1.1,0-2-0.9-2-2l0,0
					C667,200.1,668,199.1,669.1,199.1z"/>
				
					<linearGradient id="SVGID_12_" gradientUnits="userSpaceOnUse" x1="404.4924" y1="440.4309" x2="408.5599" y2="440.4309" gradientTransform="matrix(0.991 0.1342 0.1342 -0.991 214.6517 581.1974)">
					<stop  offset="0" style="stop-color:#999999"/>
					<stop  offset="1" style="stop-color:#FFFFFF"/>
				</linearGradient>
				<path class="st25" d="M677.5,192.9L677.5,192.9c1.1,0.2,1.9,1.2,1.7,2.3l-1.2,8.7c-0.2,1.1-1.2,1.9-2.3,1.7l0,0
					c-1.1-0.2-1.9-1.2-1.7-2.3l1.2-8.7C675.3,193.6,676.3,192.8,677.5,192.9z"/>
				
					<linearGradient id="SVGID_13_" gradientUnits="userSpaceOnUse" x1="674.5493" y1="72.7666" x2="678.6169" y2="72.6853" gradientTransform="matrix(1 0 0 -1 0 252)">
					<stop  offset="0.55" style="stop-color:#FFFFFF"/>
					<stop  offset="1" style="stop-color:#FFF994"/>
				</linearGradient>
				<path class="st26" d="M676.6,172.9L676.6,172.9c1.1,0,2,0.9,2,2v8.8c0,1.1-0.9,2-2,2l0,0c-1.1,0-2-0.9-2-2v-8.8
					C674.5,173.8,675.5,172.9,676.6,172.9z"/>
				
					<linearGradient id="SVGID_14_" gradientUnits="userSpaceOnUse" x1="666.4142" y1="72.7259" x2="676.4267" y2="72.7259" gradientTransform="matrix(1 0 0 -1 0 252)">
					<stop  offset="0" style="stop-color:#FFFFFF"/>
					<stop  offset="1" style="stop-color:#A1A1A1"/>
				</linearGradient>
				<polygon class="st27" points="666.4,183.5 676.4,185.7 676.4,172.9 666.4,175.4 				"/>
				
					<linearGradient id="SVGID_15_" gradientUnits="userSpaceOnUse" x1="486.8148" y1="100.173" x2="504.2815" y2="100.173" gradientTransform="matrix(1 0 0 -1 0 252)">
					<stop  offset="0" style="stop-color:#C9E7F9"/>
					<stop  offset="1" style="stop-color:#AAFFF9"/>
				</linearGradient>
				<path class="st28" d="M502.5,141.6l0.5,0.1c1.1,0.5,1.6,1.7,1.1,2.8c-0.1,0.2-0.2,0.3-0.3,0.5l-13.1,16.2
					c-0.5,0.6-1.2,0.9-2,0.8l-1.9-1.1L502.5,141.6z"/>
			</g>
		</g>
	</g>
</g>
<g id="Layer_6">
</g>
<g id="Layer_8">
	<linearGradient id="SVGID_16_" gradientUnits="userSpaceOnUse" x1="400" y1="0" x2="400" y2="250">
		<stop  offset="0" style="stop-color:#666666"/>
		<stop  offset="1" style="stop-color:#333333"/>
	</linearGradient>
	<rect class="st29" width="800" height="250"/>
</g>
</svg>
