<?xml version="1.0" encoding="utf-8"?>
<!-- Generator: Adobe Illustrator 25.0.1, SVG Export Plug-In . SVG Version: 6.00 Build 0)  -->
<svg version="1.1" xmlns="http://www.w3.org/2000/svg" xmlns:xlink="http://www.w3.org/1999/xlink" x="0px" y="0px"
	 viewBox="0 0 800 250" style="enable-background:new 0 0 800 250;" xml:space="preserve">
<style type="text/css">
	.st0{fill:#CDF5F9;}
	.st1{fill:#C99E23;}
	.st2{fill:#E8A42A;}
	.st3{fill:#DDA928;}
	.st4{fill:#FFFFFF;}
	.st5{fill:#444444;}
	.st6{fill:#3B3B3B;}
	.st7{display:none;}
	.st8{display:inline;opacity:0.47;fill:url(#SVGID_1_);enable-background:new    ;}
	.st9{fill:#FF0000;}
	.st10{fill:url(#SVGID_2_);}
	.st11{fill:#FF6E00;}
	.st12{clip-path:url(#SVGID_4_);}
	.st13{fill:#00DDFF;}
	.st14{fill:#CDEEFF;}
	.st15{fill:#551E1F;}
	.st16{opacity:0.13;enable-background:new    ;}
	.st17{fill:#323240;}
	.st18{fill:#474758;}
	.st19{fill:#DCDCDC;}
	.st20{fill:#B8BFD9;}
	.st21{fill:#ABAEBC;}
	.st22{fill:url(#SVGID_5_);}
	.st23{fill:url(#SVGID_6_);}
	.st24{fill:#28630D;}
	.st25{fill:#E8E38B;}
	.st26{fill:#CC3300;}
	.st27{fill:#CCCCCC;}
	.st28{fill:#2F7C0F;}
	.st29{fill:#F2790A;}
	.st30{fill:#C65218;}
	.st31{fill:#FFB77B;}
	.st32{fill:#C43A1A;}
</style>
<g id="Layer_1">
	<g>
		<g id="Layer_1_1_">
			<rect class="st0" width="800" height="250"/>
		</g>
		<g>
			<path class="st1" d="M512.6,137.1l-138.1-5.6c-6.9-0.3-13,5.5-14.1,13.4l-10.9,74.2h186l-11.3-70.5
				C523.1,142.1,518.3,137.3,512.6,137.1z"/>
			<path class="st2" d="M158,82.5H17.2C7.7,82.5,0,89,0,97v123h186L171,92.5C170.4,86.8,164.7,82.5,158,82.5z"/>
			<path class="st1" d="M287.4,113.2l-128.4,0.7c-9.1,0-16.8,5.6-18.3,13.2l-19.3,93h186l-6.2-95.8
				C300.7,118,294.7,113.2,287.4,113.2z"/>
			<path class="st3" d="M419.6,149.6l-138.1-4.8c-6.9-0.2-13,4.7-14.1,11.5L256.5,220h186l-11.3-60.5
				C430.1,153.9,425.3,149.8,419.6,149.6z"/>
		</g>
		<g id="Layer_3">
			<g>
				<path class="st4" d="M713.8,64c-3-16.5-17.4-28.9-34.7-28.9c-4.8,0-9.4,1-13.6,2.7C658.7,28.2,647.6,22,635,22
					c-12.7,0-23.9,6.3-30.6,16c-4.7-3.3-10.3-5.3-16.5-5.3c-15.7,0-28.5,12.7-28.5,28.5c0,0.9,0,1.9,0.1,2.8H713.8z"/>
			</g>
			<g>
				<path class="st4" d="M414.4,94c2.2-12.1,12.8-21.4,25.6-21.4c3.6,0,7,0.7,10,2c5-7.1,13.2-11.7,22.5-11.7
					c9.4,0,17.6,4.7,22.6,11.8c3.4-2.4,7.6-3.9,12.2-3.9c11.6,0,21,9.4,21,21c0,0.7,0,1.4-0.1,2.1H414.4V94z"/>
			</g>
			<g>
				<path class="st4" d="M92.3,33.3c-6.2,0-11.8,2-16.5,5.3c-6.7-9.7-17.9-16-30.6-16c-12.6,0-23.7,6.2-30.5,15.8
					c-4.2-1.8-8.8-2.7-13.6-2.7c-0.4,0-0.7,0-1.1,0v28.9h120.6c0.1-0.9,0.1-1.9,0.1-2.8C120.8,46.1,108,33.3,92.3,33.3z"/>
			</g>
		</g>
		<path class="st5" d="M565.5,231.1L565.5,231.1c-2.9,0-5.2-2.3-5.2-5.2V31.3c0-2.9,2.3-5.2,5.2-5.2l0,0c2.9,0,5.2,2.3,5.2,5.2
			v194.6C570.7,228.8,568.4,231.1,565.5,231.1z"/>
		<g id="Layer_5">
			<rect y="220" class="st6" width="800" height="30"/>
			<rect x="15" y="220" class="st4" width="99" height="6"/>
			<rect x="221" y="220" class="st4" width="99" height="6"/>
			<rect x="429" y="220" class="st4" width="99" height="6"/>
			<rect x="635" y="220" class="st4" width="99" height="6"/>
		</g>
		<g id="Layer_6">
		</g>
		<g id="Layer_8" class="st7">
			
				<linearGradient id="SVGID_1_" gradientUnits="userSpaceOnUse" x1="400" y1="812" x2="400" y2="1062" gradientTransform="matrix(1 0 0 1 0 -812)">
				<stop  offset="0" style="stop-color:#666666"/>
				<stop  offset="1" style="stop-color:#333333"/>
			</linearGradient>
			<rect class="st8" width="800" height="250"/>
		</g>
		<g>
			<g>
				<rect x="570.7" y="36.3" class="st4" width="33.7" height="33.7"/>
				<rect x="570.7" y="70" width="33.7" height="33.7"/>
				<rect x="604.5" y="70.1" class="st4" width="33.7" height="33.7"/>
				<rect x="604.5" y="36.3" width="33.7" height="33.7"/>
				<rect x="638.2" y="36.3" class="st4" width="33.7" height="33.7"/>
				<rect x="638.2" y="70" width="33.7" height="33.7"/>
				<rect x="672" y="70.1" class="st4" width="33.7" height="33.7"/>
				<rect x="672" y="36.3" width="33.7" height="33.7"/>
				<rect x="705.7" y="36.3" class="st4" width="33.7" height="33.7"/>
				<rect x="705.7" y="70" width="33.7" height="33.7"/>
				<rect x="739.5" y="70.1" class="st4" width="33.7" height="33.7"/>
				<rect x="739.5" y="36.3" width="33.7" height="33.7"/>
			</g>
			<path class="st5" d="M778.4,231.1L778.4,231.1c-2.9,0-5.2-2.3-5.2-5.2V31.3c0-2.9,2.3-5.2,5.2-5.2l0,0c2.9,0,5.2,2.3,5.2,5.2
				v194.6C783.6,228.8,781.2,231.1,778.4,231.1z"/>
			<g>
				<g>
					<path class="st9" d="M615,89.9c-0.4-0.7-1.1-1.7-1.7-2.2l-0.5-0.5l0.6-0.3c3-1.6,5.5-4.2,7.5-7.6c-1.2-0.9-2.5-1.8-3.8-2.6
						l-0.5,1.8l-3.3-1.7l0.1-0.4c1-3.4,2.2-8.3,3.4-13.8h-4.1v-3.7h4.9c0.5-2.6,1.1-5.4,1.7-8.5l0.1-0.5l4.4,0.5l-0.1,0.5
						c0,0.3-0.2,0.7-0.9,0.9c-0.4,1.9-0.9,4.2-1.5,7h5.8l0.6-0.1l2.3,0.6l-0.4,1c-0.1,1.6-0.3,3.2-0.5,4.6l3.2-0.1
						c1.6-4,3.6-10,4.6-14.6l0.1-0.5l4.8,1.2l-0.2,0.5c-0.1,0.3-0.4,0.6-1,0.8c-1,3.4-2.7,8.3-4.4,12.4l10.6-0.5
						c-1.1-1.9-2.4-3.7-3.7-5.3l-0.4-0.5l3.2-1.6l0.3,0.3c2.4,3,5.7,7.8,6.8,11.2l0.1,0.4l-3.4,1.8l-0.2-0.6
						c-0.2-0.7-0.6-1.5-1.1-2.5c-5.3,0.4-10.6,0.8-14.9,1.1l-2.4,0.2c-0.2,0.3-0.5,0.5-0.8,0.6l-0.4,0.1L629,66
						c-0.7,4.7-1.8,8.7-3.3,12.1c2.2,1.7,3.7,3.2,4.7,4.4l0.2,0.3l-2.3,3.1l-0.4-0.5c-0.9-1.1-2.2-2.5-4-3.9
						c-2.1,3.6-4.8,6.4-8.2,8.5l-0.5,0.3L615,89.9z M618,73c1.6,0.9,3.1,1.9,4.5,2.8c1.5-3.8,2.6-8.3,3.2-13.4h-5.2
						C619.8,65.8,619,69.4,618,73z M631.9,90V71.8h18.8v18.1H647v-1.8h-11.3v2L631.9,90L631.9,90z M647,84.4v-9h-11.3v9H647z"/>
					<path d="M637.5,50.4l3.7,0.9c-0.1,0.3-0.5,0.5-1,0.5c-1.1,3.9-3,9.4-4.8,13.4l12.3-0.6c-1.2-2.1-2.7-4.3-4.1-6.1l2.3-1.2
						c2.7,3.5,5.7,8,6.7,11.1l-2.5,1.3c-0.3-0.8-0.7-1.8-1.2-2.9c-6.7,0.5-13.5,1-17.9,1.3c-0.1,0.3-0.3,0.5-0.6,0.5l-1.2-3.3
						l3.4-0.1C634.5,61.2,636.4,54.9,637.5,50.4 M619.9,50.4l3.5,0.4c0,0.3-0.3,0.5-0.8,0.5c-0.5,2.4-1.1,5.1-1.7,8h6.5l0.5-0.1
						l1.6,0.4l-0.3,0.6c-0.6,7.5-1.9,13.4-4,18.1c2.1,1.6,3.8,3.2,5,4.6l-1.7,2.3c-1.1-1.3-2.7-2.9-4.5-4.4c-2.1,3.9-5,6.8-8.3,8.8
						c-0.4-0.7-1.2-1.7-1.8-2.3c3.2-1.7,5.8-4.4,7.9-8.2c-1.6-1.2-3.2-2.3-4.8-3.2l-0.5,1.9l-2.4-1.3c1.1-3.7,2.4-9.1,3.6-14.5h-4.2
						v-2.7h4.8C618.8,56.1,619.3,53.1,619.9,50.4 M626.3,62h-6.1c-0.9,3.9-1.9,7.9-2.7,11.3c1.8,1,3.6,2.1,5.3,3.3
						C624.5,72.7,625.7,67.8,626.3,62 M650.3,72.3v17.1h-2.8v-1.8h-12.3v2h-2.7V72.3H650.3 M635.1,84.9h12.3v-10h-12.3V84.9
						 M636.7,49.2l-0.2,1c-1,4.4-2.9,10.3-4.5,14.2l-2.3,0.1c0.2-1.3,0.3-2.6,0.4-4l0.2-0.4l0.5-1.1l-1.1-0.3l-1.6-0.4l-0.2-0.1
						l-0.2,0.1l-0.4,0.1H622c0.5-2.4,1-4.4,1.3-6.1c0.8-0.3,0.9-0.9,1-1.2l0.1-1l-1-0.1l-3.5-0.4l-0.9-0.1l-0.2,0.9
						c-0.6,3-1.1,5.6-1.6,8.1h-4h-1v1V62v1h1h3c-1.2,5.3-2.4,10-3.3,13.2l-0.2,0.8l0.7,0.4l2.4,1.3l1.1,0.6l0.3-1.2l0.2-0.6
						c1,0.6,2,1.3,2.9,2c-1.9,3.2-4.3,5.6-7.1,7.1l-1.2,0.6l1,1c0.6,0.6,1.3,1.5,1.6,2.1l0.5,0.9l0.9-0.5c3.3-2,6-4.7,8.1-8.1
						c1.5,1.3,2.7,2.5,3.4,3.5l0.8,1l0.8-1l1.7-2.3l0.5-0.6l-0.5-0.6c-1-1.2-2.5-2.6-4.5-4.3c1.2-2.9,2.2-6.2,2.8-10l0.4,1.1
						l0.3,0.8l0.8-0.1c0.4-0.1,0.8-0.3,1-0.6l2.1-0.1c4.2-0.3,9.3-0.6,14.5-1c0.4,0.8,0.7,1.5,0.9,2.1l0.4,1.1l1-0.6l2.5-1.3
						l0.7-0.4l-0.3-0.8c-1.2-3.5-4.5-8.3-6.9-11.4l-0.5-0.6l-0.7,0.4l-2.3,1.2l-1.1,0.5l0.7,1c1.1,1.4,2.2,3,3.2,4.6l-9,0.4
						c1.6-3.9,3.1-8.3,4-11.5c0.7-0.2,1-0.7,1.1-1l0.5-1.1l-1.1-0.3l-3.7-0.9L636.7,49.2L636.7,49.2z M621,63h4.2
						c-0.5,4.6-1.5,8.7-2.8,12.1c-1.2-0.8-2.4-1.6-3.7-2.3C619.5,69.4,620.3,66.1,621,63L621,63z M651.3,71.3h-1h-17.8h-1v1v17.3v1
						h1h2.7h1v-1v-1h10.3v0.8v1h1h2.8h1v-1V72.3V71.3L651.3,71.3z M636.1,75.9h10.3v8h-10.3V75.9L636.1,75.9z"/>
				</g>
				<g>
					<path class="st9" d="M676.4,88.3c-0.3-0.7-0.8-1.7-1.3-2.5l-0.4-0.7l0.8-0.1c6.5-0.8,14.2-3.4,14.2-10.7c0-5-3.2-8.8-8.4-9.9
						c-1.8,5.8-4.3,10.8-7.3,14.4c0.5,0.6,1.1,1.2,1.6,1.7l0.4,0.4l-2.9,2.8l-0.3-0.3c-0.5-0.5-1-1.1-1.5-1.7
						c-2.7,2.4-5.6,3.7-8.5,3.7c-3.9,0-6.5-3.2-6.5-8.2c0-5.3,2.6-9.9,7.3-13.1c-0.7-3-1.4-6.3-2-10.2l-0.1-0.6l5.2-0.1l-0.1,0.6
						c0,0.4-0.3,0.9-0.8,1.2c0.4,3,0.8,5.3,1.3,7.3c4.5-2.1,8.8-2.1,10.6-2.1c0.2,0,0.4,0,0.6,0c0.7-2.8,1.2-5.8,1.6-8.7L680,51
						l5.2,1.2l-0.1,0.5c-0.1,0.6-0.7,0.8-1.1,0.9c-0.4,2.6-0.9,5.1-1.5,7.4c7,1.5,11.3,6.7,11.3,13.6c0,7.8-5.8,12.7-16.8,14.3
						l-0.4,0.1L676.4,88.3z M664.6,67.8c-1.7,1.4-4.6,4.3-4.6,9c0,1.1,0.2,4.6,2.9,4.6c2,0,3.9-0.9,6.1-2.9
						C667.3,75.7,665.8,72.1,664.6,67.8z M667.9,65.8c1.1,4.1,2.3,7.2,3.7,9.7c2.3-3,4.2-6.9,5.7-11.7c-0.3,0-0.5,0-0.8,0l0,0
						C673.3,63.8,670.3,64.5,667.9,65.8z"/>
					<path d="M680.3,51.4l4.2,0.9c-0.1,0.4-0.5,0.5-1.1,0.6c-0.5,2.9-1.1,5.7-1.7,8.2c7.4,1.4,11.5,6.7,11.5,13.2
						c0,7.5-5.7,12.3-16.3,13.8c-0.4-0.9-0.9-1.8-1.3-2.6c9.3-1.2,14.6-5,14.6-11.2c0-5.1-3.2-9.4-9.2-10.5c-2,6.5-4.7,11.5-7.6,15
						c0.5,0.8,1.3,1.4,1.9,2.1L673,83c-0.6-0.6-1.2-1.3-1.8-2.1c-2.7,2.6-5.7,3.9-8.5,3.9c-3.7,0-6-3.2-6-7.7
						c0-5.7,3.2-10.1,7.4-12.9c-0.8-3.2-1.5-6.7-2.1-10.5l4-0.1c0,0.4-0.3,0.8-0.9,0.9c0.4,2.9,0.9,5.7,1.5,8.3
						c4.6-2.3,9.1-2.3,11-2.3c0.3,0,0.7,0,1,0C679.3,57.8,679.9,54.7,680.3,51.4 M671.5,76.4c2.5-3.1,4.7-7.4,6.4-13.1
						c-0.5,0-1,0-1.5,0c-3.2,0-6.4,0.8-9.1,2.3C668.4,69.7,669.7,73.5,671.5,76.4 M662.9,82c2.6,0,4.8-1.5,6.7-3.3
						c-1.9-3.1-3.5-7-4.7-11.7c-2.7,1.9-5.4,5.2-5.4,9.9C659.5,79.9,660.6,82,662.9,82 M679.5,50.1l-0.1,1.1
						c-0.4,2.8-0.9,5.6-1.5,8.3c-0.1,0-0.2,0-0.2,0c-1.8,0-5.9,0-10.3,1.9c-0.4-1.8-0.7-3.8-1.1-6.3c0.4-0.3,0.7-0.8,0.8-1.4
						l0.1-1.1h-1.1l-4,0.1H661l0.2,1.1c0.6,3.7,1.2,7,1.9,9.9c-4.7,3.3-7.3,8-7.3,13.4c0,5.2,2.8,8.7,7,8.7c2.9,0,5.8-1.2,8.4-3.5
						c0.4,0.5,0.8,0.9,1.2,1.3l0.7,0.7l0.7-0.7l2.1-2.1l0.8-0.7l-0.8-0.7c-0.4-0.4-0.9-0.9-1.3-1.3c2.8-3.6,5.2-8.3,7-13.8
						c4.7,1.2,7.5,4.7,7.5,9.3c0,6.9-7.5,9.3-13.7,10.2l-1.5,0.2l0.8,1.3c0.5,0.8,1,1.8,1.3,2.5l0.3,0.7l0.7-0.1
						c11.1-1.6,17.2-6.8,17.2-14.8c0-7-4.3-12.3-11.2-14c0.5-2.1,1-4.3,1.4-6.6c0.7-0.2,1.1-0.6,1.2-1.2l0.2-1l-1-0.2l-4.2-0.9
						L679.5,50.1L679.5,50.1z M668.5,66.1c2.3-1.1,5.1-1.8,8-1.8h0.1c-1.3,4.1-3,7.6-4.9,10.3C670.4,72.3,669.4,69.5,668.5,66.1
						L668.5,66.1z M662.9,81c-2.2,0-2.4-2.9-2.4-4.1c0-4,2.2-6.7,3.9-8.1c1.1,3.8,2.5,7.1,4,9.8C666.4,80.2,664.6,81,662.9,81
						L662.9,81z"/>
				</g>
				<g>
					<path class="st9" d="M715.4,88.9c-5.9,0-9.7-2.5-9.7-6.4c0-3.4,3.3-6.1,7.4-6.1c4.8,0,8.1,3.6,9,7.4c3.1-1.4,4.9-4,4.9-7.2
						c0-4.3-3.1-7-8.2-7c-6.2,0-12.2,2.7-14.9,5.4c-1.3,1.2-3,3-4,4.2l-0.4,0.4l-2.9-2.9l0.3-0.4c3.7-3.8,14.8-14.4,20.5-19.8
						c-3.6,0.3-10.5,0.6-14,0.7c-0.3,0.3-0.7,0.5-1,0.6l-0.6,0.1l-0.4-4.7h0.5c5.5,0,16.3-0.4,19.5-0.9l0.9-0.4l2.8,3.4l-0.4,0.3
						c-0.3,0.2-0.7,0.4-1.1,0.5c-2.5,2.1-8.4,7.5-12.2,11.2c2.6-0.9,5.7-1.5,8.2-1.5c6.9,0,11.4,4.2,11.4,10.6
						C731,83.9,724.7,88.9,715.4,88.9z M712.8,79.8c-1.8,0-3.6,0.9-3.6,2.6c0,2.6,4.8,2.8,5.8,2.8s2.2-0.1,3.3-0.3
						C717.6,82,715.4,79.8,712.8,79.8z"/>
					<path d="M722.2,52.7l2.2,2.7c-0.2,0.2-0.6,0.3-1,0.4c-3,2.4-11,9.9-14.3,13.1l0,0c2.8-1.4,7.1-2.4,10.4-2.4
						c6.7,0,10.9,3.9,10.9,10.1c0,7.6-6.7,11.8-15.2,11.8c-5.5,0-9.2-2.2-9.2-5.9c0-3.1,3.1-5.6,6.9-5.6c4.8,0,8,3.8,8.6,7.6
						c3.4-1.3,5.8-4,5.8-7.9c0-4.5-3.4-7.5-8.7-7.5c-6.3,0-12.5,2.8-15.3,5.5c-1.3,1.2-2.9,2.9-4,4.3l-2.1-2.1
						c3.8-4,15.8-15.4,21.6-20.8c-2.4,0.3-10.9,0.7-15.7,0.8c-0.1,0.3-0.5,0.5-0.9,0.6l-0.3-3.6c5.7,0,16.5-0.5,19.6-0.9L722.2,52.7
						 M715,85.7c1.3,0,2.7-0.2,3.8-0.4c-0.5-3.2-2.9-6-6-6c-2.2,0-4.1,1.2-4.1,3.1C708.7,85,712.2,85.7,715,85.7 M722.5,51.4
						l-0.7,0.3l-0.5,0.2c-3.3,0.5-13.9,0.9-19.3,0.9h-1.1L701,54l0.3,3.6l0.1,1.2l1.1-0.3c0.4-0.1,0.8-0.3,1.1-0.6
						c3.6-0.1,8.9-0.3,12.4-0.6c-5.9,5.6-16,15.2-19.5,18.9l-0.7,0.7l0.7,0.7l2.1,2.1l0.8,0.8l0.7-0.8c1-1.2,2.7-3,4-4.2
						c2.6-2.6,8.6-5.2,14.6-5.2c4.7,0,7.7,2.5,7.7,6.5c0,2.8-1.5,5.1-4.1,6.5c-1.1-3.8-4.4-7.2-9.3-7.2c-4.4,0-7.9,3-7.9,6.6
						c0,4.2,4,6.9,10.2,6.9c9.7,0,16.2-5.2,16.2-12.8c0-6.7-4.7-11.1-11.9-11.1c-2,0-4.2,0.3-6.3,0.9c3.7-3.5,8.4-7.8,10.6-9.6
						c0.5-0.1,0.9-0.3,1.2-0.5l0.8-0.6l-0.6-0.8L723,52L722.5,51.4L722.5,51.4z M715,84.7c-2.4,0-5.3-0.6-5.3-2.3
						c0-1.4,1.6-2.1,3.1-2.1c2.2,0,4.1,1.7,4.8,4.2C716.8,84.7,715.8,84.7,715,84.7L715,84.7z"/>
				</g>
			</g>
		</g>
	</g>
	<g>
		<g id="Layer_2_1_">
			<g id="Premium">
				<g id="premium-fire">
					
						<radialGradient id="SVGID_2_" cx="499.7807" cy="584.3854" r="8.4087" gradientTransform="matrix(1.03 0.1 -0.11 1.13 19.54 -566.41)" gradientUnits="userSpaceOnUse">
						<stop  offset="0" style="stop-color:#DBDBDB"/>
						<stop  offset="0.69" style="stop-color:#A2A2A2"/>
						<stop  offset="1" style="stop-color:#868686"/>
					</radialGradient>
					<polygon class="st10" points="471.9,151.7 460.7,135.4 473.4,136.7 479.5,152.5 					"/>
					<path class="st11" d="M592.6,163.3l21.1,2.1c16.5,1.6,28.4,17.6,26.7,35.6l-1.2,11.7c2.1,0.2,3.6,2.2,3.4,4.6
						c-0.2,2.3-2.1,4-4.2,3.8l-136-13.5l-48.5-12.4c-2-0.2-3.5-2.1-3.2-4.3c0.2-2.2,2-3.8,4-3.6l2.9-31.2c0.5-5.2,4.8-9,9.6-8.5
						l31.6,3.1l31.9-13.7c2.3-0.9,4.7-1.4,7.1-1.4c3.9,0,30.6,3.9,30.6,3.9s8.6-0.4,12.4,8s12.3,16.4,12.3,16.4"/>
					<g>
						<g>
							<defs>
								<path id="SVGID_3_" d="M592.6,163.3l21.1,2.1c16.5,1.6,28.4,17.6,26.7,35.6l-1.2,11.7c2.1,0.2,3.6,2.2,3.4,4.6
									c-0.2,2.3-2.1,4-4.2,3.8l-136-13.5l-48.5-12.4c-2-0.2-3.5-2.1-3.2-4.3c0.2-2.2,2-3.8,4-3.6l2.9-31.2c0.5-5.2,4.8-9,9.6-8.5
									l31.6,3.1l31.9-13.7c2.3-0.9,4.7-1.4,7.1-1.4c3.9,0,30.6,3.9,30.6,3.9s8.6-0.4,12.4,8s12.3,16.4,12.3,16.4"/>
							</defs>
							<clipPath id="SVGID_4_">
								<use xlink:href="#SVGID_3_"  style="overflow:visible;"/>
							</clipPath>
							<g class="st12">
								<polygon class="st13" points="646.6,189.4 663.6,184.3 646.6,182 660.8,173.8 633.8,172.8 659.1,160.5 619,163 633.4,154.2 
									604.5,161 622.9,149.8 589.8,158.9 609.4,145.8 578.4,157.4 594.6,142 568.1,156 579.7,142.6 554.5,154.1 564.2,144.2 
									541.3,151.6 541.2,151.4 541.2,151.6 539.7,152.1 539.2,155.1 536,152 538.9,157.4 538.7,159.2 531.9,153.3 535.6,160.3 
									522.2,153.6 529.3,164.3 519.9,161.3 523.7,168 517.6,167.1 522.8,172.3 516.4,176 522.5,176.8 517,182.2 526.9,181.9 
									517.2,190.3 531.9,187.4 526.4,193.2 534.5,189.3 534.3,191.1 530,195.5 534,193.4 533.6,196.4 534.9,197.3 534.8,197.4 
									535,197.4 555.1,210.6 548.5,198.5 569.6,216.3 562,200.4 583.8,221 572.3,201.8 599,221.3 583.7,203.3 613.1,221.1 
									598.4,205.4 624.4,219.7 613,207.4 650.8,220.6 629.8,201.8 656.1,208.2 644.6,196.5 661.6,198.8 								"/>
								<polygon class="st14" points="555.6,192.5 549.3,196 544.4,192.8 544.6,192.5 544.9,190.8 533,184 529.6,179.7 529,178.6 
									530.5,168 531.4,167.2 535.8,163.9 549,160.6 549.2,158.9 549.2,158.5 554.7,156.7 559.9,161.8 568,158.1 574,163.4 
									578.9,160.8 583.1,165.4 590.3,162.6 593.5,167.2 604.5,164.1 607.8,169.3 618,166.9 620.3,171.6 630.2,171 633.8,181.5 
									642.6,181.8 640.7,195.5 632.2,193.5 625.8,202.6 616.5,199.4 613.1,203.3 603.8,198.2 599.3,202.3 589.5,196.4 
									585.2,199.9 579,195.4 573.7,198.6 569.7,194.8 562.5,198.3 								"/>
								
									<rect x="590.7" y="103.2" transform="matrix(0.1361 -0.9907 0.9907 0.1361 331.2969 743.5891)" class="st4" width="2.7" height="157.2"/>
							</g>
						</g>
					</g>
					<g id="_x33_ixXjE.tif">
						<g>
							<path class="st15" d="M516.1,152.1c0.1,0,0.2,0,0.2,0c1,1.1,2.1,2.2,3.1,3.2c0-0.3,0-0.8,0-1.3c0,0,0.1,0,0.1-0.1
								c0.5,0.7,0.9,1.4,1.4,2.1h0.1c-0.1-0.8-0.2-1.7-0.3-2.6c2.2,2.3,3.5,6.2,1.2,9.9c0.2,0.1,0.4,0.2,0.6,0.3
								c0.2,2.2-0.6,3.7-2.2,3.6c0-0.3,0-0.7-0.1-1c-0.9-0.1-1.1,0.7-1.5,1.1c0.4,0.7,0.4,0.7-0.4,0.8c-0.1,0-0.3,0.1-0.4,0.2
								c0,0.1,0,0.1,0,0.2c0.3,0,0.7,0.1,1,0.1c1.4-0.1,2.9-0.5,4,0.6c0.9,0.9,2.2,1,3.4,1.7c0.4-0.8,0.7-1.6,1-2.3
								c0.1-0.2,0.2-0.3,0.3-0.5c0.6-0.6,1.1-1.2,1.7-1.7c0.1-0.1,0.2-0.3,0.4-0.3c1.5-0.6,2.8,0,3.4,1.5c0.5,1.2,0.1,2-1.1,2.3
								c-0.1,0.4-0.1,0.7-0.3,1c-0.1,0.2-0.4,0.5-0.5,0.5c-0.6,0-0.7,0.4-0.9,0.8c-0.1,0.4-0.4,0.9-0.2,1.1c0.7,1,1,2.2,1.4,3.3
								c0.2,0.6,0.2,1.2,0.9,1.4c0,0,0.1,0.1,0.1,0.2c0,0.3-0.1,0.7-0.1,1c-0.1,0.2-0.2,0.5-0.4,0.7s-0.5,0.6-0.8,0.6
								c-1.5,0.1-2.7-0.3-3.3-1.8c-0.1-0.3-0.3-0.6-0.4-0.9c-0.4,0.2-0.8,0.5-1.2,0.7c-0.1,0.1-0.2,0.2-0.3,0.3
								c-0.5,0.6-1,1.2-1.5,1.7c-0.7,0.7-1.5,1.2-2.3,1.8c-0.3,0.3-0.6,0.3-1,0.2c-1.5-0.5-2.6-1.5-3.5-2.7
								c-0.3-0.3-0.5-0.5-0.9-0.6c-1.3-0.1-2.1-0.9-2.4-2.1c0-0.1-0.1-0.2-0.1-0.4c-0.7,0.5-1.4,1.1-2.1,1.6
								c-0.2,0.1-0.4,0.2-0.7,0.3c-0.8,0.1-1.4,0.4-1.9,1c-0.2,0.2-0.5,0.3-0.7,0.5c-0.1,0.1-0.2,0.3-0.1,0.5s0.3,0.4,0.5,0.7
								c3.8,0.5,7.5,1.7,11.1,3.2c0.8,0.3,1.5,0.9,1.9,1.7c0.5,1,0.8,2,1.2,3c0,0.1,0,0.3,0,0.4c-0.2,1.5-0.5,3.1-0.6,4.6
								c0,1.7-0.6,3-2,3.9c-0.1,0.1-0.2,0.4-0.2,0.6c0.1,1,0.3,2.1,0.3,3.1c0,0.8,0.3,1.5,0.9,2c0.9,0.7,1.9,1.4,2.9,2.1
								c0.5,0.4,0.6,0.6,0.1,1.1c-0.3,0.3-0.7,0.5-1,0.6c-3,0.7-5.6-0.5-7.9-2.3c-0.1-0.1-0.1-0.3-0.2-0.5c-0.3-0.9-0.6-1.8-0.9-2.7
								c-0.3-0.7-0.8-1.3-1-2s-0.2-1.4-0.3-2.1c-1.3-0.7-2.1-1.8-1.8-3.4c0.1-0.6,0-1.1,0.1-1.7c-0.6-0.1-1.1-0.2-1.6-0.3
								c-2.5-0.6-4.8-1.8-7-3c-0.4-0.2-0.8-0.2-1.1,0c-0.8,0.6-1.6,1.1-2.3,1.7c-0.9,0.8-1.9,1.5-3.1,1.9c-1.4,0.5-2.4,1.5-3.5,2.6
								c-0.6,0.6-1.5,1.2-2.4,1.4s-1.5,0.6-2,1.2c-0.7,0.9-1.8,1.2-2.8,1.6c-0.7,0.3-1.4,0.4-2.1,0.7c-0.5,0.2-1,0.4-1.6,0.5
								c-1.4,0.2-2.7-0.3-4-0.9c-0.2-0.1-0.4-0.1-0.5-0.1c-1,0.4-2,0.8-3,1.1c-0.4,0.1-0.7,0.3-0.8,0.7c-0.2,0.9-0.4,1.8-0.6,2.8
								c0,0.2-0.2,0.4-0.3,0.5c-1.8,0.9-3.7,0.1-4.1-1.8c0-0.4,0.1-0.8,0.1-1.2c0.1-0.1,0.1-0.3,0.2-0.4c0.3-1.5,1-2.7,2.3-3.6
								c0.1-0.1,0.2-0.2,0.3-0.3c1-1.6,2.3-2.8,4-3.6c0.2-0.1,0.4-0.3,0.5-0.5c0.4-1.2,1.2-2.1,2.3-2.8c1.1-0.6,2.2-1.1,3.4-1.7
								c0.3-0.2,0.7-0.3,1-0.5c0.6-0.4,1.3-0.6,1.9-0.4c0.7,0.2,1,0,1.4-0.5c0.8-1.1,2-1.8,3.3-2c1.4-0.3,2.5-1.1,3.5-2
								c0.9-0.8,1.8-1.6,2.7-2.4c0.6-0.6,1.2-1.1,1.7-1.8c0.6-0.8,1.2-1.8,1.8-2.7c0.1-0.2,0.1-0.5,0.1-0.7
								c-0.5-1.8-0.6-3.6,0.3-5.3c0.1-0.2,0.1-0.5,0.1-0.7c-0.2-1-0.1-1.9,0.4-2.9c1.4-2.9,3.8-4.6,6.9-5.4c1-0.2,2-0.3,2.9-0.5
								c-1.2-1-2.5-2-3.8-3.1l0.1-0.1c0.8,0,1.6-0.1,2.5-0.1c-1.4-1.2-2.7-2.3-4-3.4c0-0.1,0-0.1,0.1-0.2c2.4-0.2,4.8,0.3,7.3,0.6
								c-0.5-1.4-1.4-2.5-2.3-3.7c2.6,0.6,4.6,2.2,6.8,3.5C516.4,154.2,516.3,153.2,516.1,152.1z M520.8,175.2
								c0.2,0.4,0.3,0.8,0.4,1.1c0.8-0.4,1.5-0.8,2.2-1.3c0-0.1,0-0.1,0-0.2C522.6,175,521.7,175.1,520.8,175.2z"/>
						</g>
					</g>
					<path class="st15" d="M639.2,212.7c2.1,0.2,3.6,2.2,3.4,4.6c-0.2,2.3-2.1,4-4.2,3.8l-136-13.5l-48.5-12.4
						c-2-0.2-3.5-2.1-3.2-4.3c0.2-2.2,2-3.8,4-3.6l1.7-18.8l7.2,9.2l-1.4,10.4l-0.2,2.5l40,9.9L639.2,212.7z"/>
					<path class="st16" d="M640.1,203c0,0-7.9-33.7-49.3-25.6L457.5,156c0.5-5.2,4.8-9,9.6-8.5l31.6,3.1
						c5.4,0.5,84.8,19.4,84.8,19.4l9.2-6.7l21.1,2.1C613.7,165.4,643.7,167.5,640.1,203z"/>
					<ellipse class="st17" cx="484.4" cy="200.3" rx="23.5" ry="23.4"/>
					<ellipse class="st18" cx="484.4" cy="200.3" rx="22.9" ry="22.7"/>
					<ellipse cx="484.4" cy="200.3" rx="17.2" ry="17.1"/>
					<ellipse class="st4" cx="484.4" cy="200.3" rx="16.4" ry="16.3"/>
					<ellipse class="st19" cx="484.4" cy="200.3" rx="15.5" ry="15.4"/>
					<ellipse class="st20" cx="484.4" cy="200.3" rx="9.7" ry="9.6"/>
					<ellipse class="st21" cx="484.4" cy="200.3" rx="8.8" ry="8.8"/>
					<ellipse class="st17" cx="611.3" cy="207.9" rx="20.5" ry="20.4"/>
					<ellipse class="st18" cx="611.3" cy="207.9" rx="19.9" ry="19.8"/>
					<ellipse cx="611.3" cy="207.9" rx="15" ry="14.9"/>
					<ellipse class="st4" cx="611.3" cy="207.9" rx="14.3" ry="14.2"/>
					<ellipse class="st19" cx="611.3" cy="207.9" rx="13.5" ry="13.5"/>
					<ellipse class="st20" cx="611.3" cy="207.9" rx="8.4" ry="8.4"/>
					<ellipse class="st21" cx="611.3" cy="207.9" rx="7.7" ry="7.6"/>
					
						<linearGradient id="SVGID_5_" gradientUnits="userSpaceOnUse" x1="553.5224" y1="628.5762" x2="601.1146" y2="628.5762" gradientTransform="matrix(1 0.1 -0.1 1 39.04 -531.07)">
						<stop  offset="0" style="stop-color:#C1E7FA"/>
						<stop  offset="1" style="stop-color:#8EFFF9"/>
					</linearGradient>
					<path class="st22" d="M575.5,168.3c-8.9-23.2-14.7-23-14.7-23s-14.5-1.9-19.2-1.9c-4.6,0-6.5,2.7-6.5,2.7l-5.3,6.7
						c0,0-3.5,3.9,4.1,5.5C539.9,159.6,575.5,168.3,575.5,168.3z"/>
					
						<linearGradient id="SVGID_6_" gradientUnits="userSpaceOnUse" x1="596.6231" y1="628.8703" x2="618.0597" y2="628.8703" gradientTransform="matrix(1 0.1 -0.1 1 39.04 -531.07)">
						<stop  offset="0" style="stop-color:#C1E7FA"/>
						<stop  offset="1" style="stop-color:#8EFFF9"/>
					</linearGradient>
					<path class="st23" d="M580.7,147.3l12.3,16l-8.4,6.3l-10.9-18.8c0,0-2.1-2.7,0.4-3.8L580.7,147.3z"/>
					<g>
						<path class="st15" d="M473.9,156.3c-1.7,0.1-3.4,0-5-0.1c-1.2,2.8-2.9,5.7-5.1,8.9c-0.7-0.6-1.5-1.3-2.2-2
							c2-2.7,3.4-5,4.5-7.2c-1.3-0.1-2.1-0.2-3.2-0.4l0.4-2.7c1.1,0.2,2.5,0.3,3.9,0.5c0.5-1.2,0.9-2.3,1.4-3.4l2.7,0.8
							c-0.4,1.1-0.8,2-1.2,2.9c1.2,0.1,2.6,0.1,4.2,0L473.9,156.3z M477.2,169.4c-0.9-1.1-1.8-2-2.6-2.6c-1.1,2.3-2.4,2.4-4.7,2.1
							c-2.4-0.3-4.1-1.6-3.8-4c0.3-2.2,2.5-3.1,4.7-2.8c0.7,0.1,1.2,0.3,1.9,0.5l0.6-4.7l2.7,0.4l-0.8,5.8c1.6,0.9,2.8,2,3.8,3.4
							L477.2,169.4z M470.4,164.5c-0.6-0.1-1.5-0.1-1.6,0.6c-0.1,0.8,0.6,1,1.4,1.1c1,0.1,1.4-0.1,1.9-1.1
							C471.6,164.9,471.1,164.6,470.4,164.5z M478.7,161.2c-1-1.9-2.3-3.5-3.6-5l2.1-1.6c1.5,1.5,2.7,3.2,3.6,4.8L478.7,161.2z"/>
						<path class="st15" d="M487.4,153.3c-1.1,2.8-1.8,5.6-2.2,8.5c-0.4,3-0.7,5.7-0.9,8c-0.8,0-1.9,0-2.9-0.1
							c0.2-2.4,0.6-5.5,1-8.4s1.1-5.8,2.2-8.6C485.5,153,486.5,153.2,487.4,153.3z M498,171.1c-2.2,0-3.9-0.1-5.4-0.3
							c-2.1-0.3-3.6-0.8-4.6-1.4c-1.1-0.9-1.6-2-1.4-3.6c0.1-0.8,0.5-1.7,1.2-2.6c0.8,0.3,1.5,0.6,2.3,0.9c-0.4,0.9-0.6,1.6-0.7,2.1
							c-0.1,0.6,0.1,1,0.6,1.3s1.6,0.5,3,0.7s3.2,0.3,5.3,0.3C498.2,169.2,498.1,170.2,498,171.1z M498.9,159
							c-1.9,0.5-3.6,1.3-5.2,2.6c-0.6-0.5-1.2-0.9-1.8-1.4c1-0.9,2-1.5,2.4-1.7c-1.5-0.1-3.8-0.2-6-0.1c0.1-0.9,0.2-1.8,0.3-2.7
							c2.3-0.2,4.8-0.1,7.7,0.3c0.5,0.1,0.9,0.1,1.4,0.2c0.6,0.1,1.2,0.2,1.7,0.3L498.9,159z"/>
					</g>
					<polygon class="st15" points="481.1,143.4 450.5,134.9 449.3,126.3 477.7,134.9 					"/>
				</g>
			</g>
		</g>
	</g>
</g>
<g id="Layer_2">
</g>
<g id="Layer_4">
</g>
<g id="Layer_3_1_">
</g>
<g id="Layer_5_1_">
	<g>
		<path class="st24" d="M289.6,92.5c0,0-89.2,71.9-168.3,15.8c0,0-53.3-57.4-121.3-28.1v44.6c68-29.3,121.3,28.1,121.3,28.1
			C200.4,209,299,127.6,299,127.6l7.3,22.5c0.7-0.7,1.3-1.4,2-2L289.6,92.5z"/>
		<path class="st25" d="M299,127.6c0,0-98.7,81.4-177.7,25.3c0,0-53.3-57.4-121.3-28.1v26.3C33.6,140,81.6,134.8,122.1,171
			c0,0,78.1,84,183.6-22.9L299,127.6z"/>
		<path class="st26" d="M299.8,124.3c0,0-98.7,81.4-177.7,25.3c0,0-53.7-57.8-122.1-27.7v3c68-29.4,121.3,28.1,121.3,28.1
			C200.4,209,299,127.6,299,127.6l6.7,20.6c0.5-0.5,0.9-0.9,1.4-1.4L299.8,124.3z"/>
	</g>
	<g>
		<path class="st24" d="M411.2,96.7"/>
		<g>
			<path class="st27" d="M403.2,107.5c-6.8-6.1-14.6,0.6-14.6,0.6c2.7,5.6-1.7,13.2-1.7,13.2c4.8-2,6.4-10.7,6.4-10.7
				c1.4,3,0,9.2,0,9.2c3.3-1,4.8-9.2,4.8-9.2c1.1,3.1,0,9.2,0,9.2c2.7-0.5,4.3-5.4,5.1-8.7c0.5,5-2.5,10.2-2.5,10.2
				c4.8-2,6.4-10.7,6.4-10.7c1.4,3,0,9.2,0,9.2c3.3-1,4.8-9.2,4.8-9.2c1.1,3.1,0,9.2,0,9.2c4.1-0.8,5.8-11.7,5.8-11.7
				C412,102.4,405.5,106,403.2,107.5z"/>
			<path class="st27" d="M371.9,124.7c4.8-2,6.4-10.7,6.4-10.7c1.4,3,0,9.2,0,9.2c3.3-1,4.8-9.2,4.8-9.2c1.1,3.1,0,9.2,0,9.2
				c4.1-0.8,5.8-11.7,5.8-11.7c-7-7.1-15.3,0-15.3,0C376.3,117.1,371.9,124.7,371.9,124.7z"/>
			<path class="st27" d="M357.1,126.5c4.8-2,6.4-10.7,6.4-10.7c1.4,3,0,9.2,0,9.2c3.3-1,4.8-9.2,4.8-9.2c1.1,3.1,0,9.2,0,9.2
				c4.1-0.8,5.8-11.7,5.8-11.7c-7-7.1-15.3,0-15.3,0C361.6,118.9,357.1,126.5,357.1,126.5z"/>
			<path class="st27" d="M348.6,116.9c1.4,3,0,9.2,0,9.2c3.3-1,4.8-9.2,4.8-9.2c1.1,3.1,0,9.2,0,9.2c4.1-0.8,5.8-11.7,5.8-11.7
				c-7-7.1-15.3,0-15.3,0c2.7,5.6-1.7,13.2-1.7,13.2C347.1,125.5,348.6,116.9,348.6,116.9z"/>
			<path class="st27" d="M383.7,181.7c0,0,4.8-6.7,3.3-9.8c0,0-3.5,5.3-6.6,6.3c0,0,5.2-7.1,3.3-12c0,0-1.8,6.3-6.1,9.2
				c1-2.2,1.5-4.4,0.6-5.7c0,0-3.6,4.9-6.6,6.3c0,0,4.8-6.7,3.3-9.8c0,0-3.5,5.3-6.6,6.3c0,0,5.2-7.1,3.3-12c0,0-1.7,6-5.8,9
				c1.1-2.3,1.8-4.8,0.8-6.3c0,0-3.6,4.9-6.6,6.3c0,0,4.8-6.7,3.3-9.8c0,0-3.5,5.3-6.6,6.3c0,0,5.2-7.1,3.3-12c0,0-1.6,5.5-5.3,8.6
				c1.7-2.9,3.5-6.8,2.2-8.8c0,0-3.6,4.9-6.6,6.3c0,0,4.8-6.7,3.3-9.8c0,0-3.5,5.3-6.6,6.3c0,0,5.2-7.1,3.3-12c0,0-2.5,8.5-8.4,10.4
				c0,0,0.5,10.5,10,11c0.6,3.1,2.8,9.3,10.3,9.3c0,0,0.7-0.9,1.5-2.1c0.8,3.2,3.2,8.5,10.1,8.6c0,0,1-1.2,2-3
				c0.8,3.2,3.2,8.6,10.1,8.6c0,0,6.8-8.8,4.5-12.3C390.3,175.3,386.7,180.3,383.7,181.7z"/>
		</g>
		<path class="st28" d="M214.3,43.6l27.4,21.2c4.4,3.4,9.4,5.8,14.7,7.1l12.5,3.1c3.2,0.8,5.1-3.3,2.6-5.3l-15.8-12.3
			c-0.3-0.3,0-0.8,0.4-0.6l28.5,17.8l-4-9.9c-0.4-1,0.8-1.9,1.7-1.2l16.5,12.8l5-6.3l10,8.4l8.8-5.8l3.7,5.8l8.8,3.8l15.9-2.5l20,10
			h29.6c0,0,7.9-2.1,13.8,7.1c0,0,6.3,10,5.4,12.9c0,0-2.9,2.5-10,0c0,0-21.3,2.1-24.6,5.4c0,0-7.9,2.9-13.4,2.1
			c0,0-35.1-0.4-35.5,15.4c0,0-6.3,19.6,51.4,49.7c0,0,5.8-2.1,8.4,0c0,0-8.4,15.4-27.1,12.5c0,0,5.8-7.5,3.8-10.9c0,0-5,5-9.6,5.4
			c0,0,0.8-10-14.6-13.4c0,0-17.1,0.8-18,4.2c0,0-8.8,0.4-10,4.6l3.3-11.3l-11.3,4.6l4.6-7.1l-17.5-10.4c0,0-6.3-19.2-2.5-24
			c0,0-25.9-0.6-31.7,4.4c0,0-0.4-10,13.8-12.9c0,0-20.7,4.6-22.3,2.9l14.8-11.5l-18.8-14l16.7-3.3L220.1,67l11.4,3.8
			C231.6,70.8,215,54.5,214.3,43.6z"/>
		<path class="st26" d="M337.9,91.3L337.9,91.3L337.9,91.3c7-5.7,17.4-4.7,23.1,2.4l0,0l0,0C354,99.4,343.6,98.4,337.9,91.3z"/>
		<path class="st24" d="M411.2,96.7l-15-4.2C396.2,92.5,404.2,90.2,411.2,96.7"/>
		<path class="st24" d="M363.1,88.2c0,0,1.7,4.7-2.1,5.5c0,0-9.8-11.1-23.1-2.4c0,0,7.8-10.4,22.7-0.5L363.1,88.2z"/>
	</g>
	<path class="st24" d="M390.2,94c0,0-18.1,21-58.4,11.1c0,0-56.4-24.1-119.4,1.7c0,0,58.5-21.1,118,0.8c0,0,34.8,11.6,63.5-11
		C393.9,96.6,396.4,93.7,390.2,94z"/>
	<g>
		<g>
			<circle class="st29" cx="53" cy="187.4" r="22"/>
			<path class="st30" d="M53,210.1c-12.5,0-22.7-10.2-22.7-22.7c0-12.5,10.2-22.7,22.7-22.7s22.7,10.2,22.7,22.7c0,0,0,0,0,0l0,0
				C75.7,200,65.5,210.1,53,210.1z M53,166.2c-11.8,0-21.3,9.5-21.3,21.3s9.5,21.3,21.3,21.3s21.3-9.5,21.3-21.3c0,0,0,0,0,0l0,0
				C74.3,175.7,64.8,166.2,53,166.2z"/>
		</g>
		<path class="st31" d="M67.4,171.9c2.8,3.7,3.9,6.6,3.9,11.6c0,12.1-9.8,22-22,22c-5.4,0-9.9-2.6-13.8-5.8c4,5.3,9.9,9.3,17,9.3
			c12.1,0,22-9.8,22-22C74.5,180,70.9,174.7,67.4,171.9z"/>
		<g>
			<polygon class="st32" points="47.4,184.6 44.5,183.4 41.9,185.1 42.1,182 39.6,180.1 42.7,179.3 43.8,176.4 45.4,179 48.6,179.2 
				46.6,181.6 			"/>
			<polygon class="st32" points="63.5,183 60.6,181.8 58,183.5 58.2,180.4 55.8,178.4 58.8,177.7 59.9,174.8 61.6,177.4 64.7,177.6 
				62.7,179.9 			"/>
			<polygon class="st32" points="56.2,191.3 53.3,190.1 50.7,191.8 50.9,188.7 48.5,186.8 51.5,186 52.6,183.1 54.3,185.7 
				57.4,185.9 55.4,188.3 			"/>
			<polygon class="st32" points="65,197.3 62.1,196.2 59.5,197.9 59.7,194.8 57.2,192.8 60.3,192.1 61.4,189.1 63,191.8 66.2,191.9 
				64.2,194.3 			"/>
			<polygon class="st32" points="48.8,199 45.9,197.8 43.3,199.5 43.5,196.4 41.1,194.4 44.1,193.7 45.2,190.8 46.9,193.4 50,193.6 
				48,196 			"/>
		</g>
	</g>
	<g>
		<g>
			<circle class="st29" cx="177.9" cy="88.1" r="22"/>
			<path class="st30" d="M177.9,110.8c-12.5,0-22.7-10.2-22.7-22.7s10.2-22.7,22.7-22.7c12.5,0,22.7,10.2,22.7,22.7c0,0,0,0,0,0l0,0
				C200.6,100.6,190.4,110.8,177.9,110.8z M177.9,66.8c-11.8,0-21.3,9.5-21.3,21.3s9.5,21.3,21.3,21.3s21.3-9.5,21.3-21.3
				c0,0,0,0,0,0l0,0C199.2,76.3,189.7,66.8,177.9,66.8z"/>
		</g>
		<path class="st31" d="M192.3,72.6c2.8,3.7,3.9,6.6,3.9,11.6c0,12.1-9.8,22-22,22c-5.4,0-9.9-2.6-13.8-5.8c4,5.3,9.9,9.3,17,9.3
			c12.1,0,22-9.8,22-22C199.4,80.7,195.8,75.3,192.3,72.6z"/>
		<g>
			<polygon class="st32" points="180.5,87.7 177.6,86.5 175,88.2 175.2,85.1 172.8,83.1 175.8,82.4 176.9,79.5 178.6,82.1 
				181.7,82.2 179.7,84.6 			"/>
			<polygon class="st32" points="189.3,93.7 186.4,92.6 183.8,94.3 184,91.2 181.5,89.2 184.6,88.4 185.7,85.5 187.3,88.2 
				190.5,88.3 188.4,90.7 			"/>
			<polygon class="st32" points="173.1,95.3 170.2,94.2 167.6,95.9 167.8,92.8 165.4,90.8 168.4,90.1 169.5,87.1 171.2,89.8 
				174.3,89.9 172.3,92.3 			"/>
		</g>
	</g>
	<g>
		<g>
			<circle class="st29" cx="465.2" cy="96.7" r="11"/>
			<path class="st30" d="M465.2,108c-6.3,0-11.3-5.1-11.3-11.3s5.1-11.3,11.3-11.3c6.3,0,11.3,5.1,11.3,11.3c0,0,0,0,0,0l0,0
				C476.5,102.9,471.5,108,465.2,108z M465.2,86c-5.9,0-10.6,4.8-10.6,10.6s4.8,10.6,10.6,10.6c5.9,0,10.6-4.8,10.6-10.6
				c0,0,0,0,0,0l0,0C475.8,90.8,471.1,86.1,465.2,86z"/>
		</g>
		<path class="st31" d="M472.4,88.9c1.4,1.8,1.9,3.3,1.9,5.8c0,6.1-4.9,11-11,11c-2.7,0-5-1.3-6.9-2.9c2,2.7,4.9,4.7,8.5,4.7
			c6.1,0,11-4.9,11-11C475.9,93,474.2,90.3,472.4,88.9z"/>
		<g>
			<polygon class="st32" points="467.5,104.3 466,103.7 464.7,104.6 464.9,103 463.6,102 465.1,101.7 465.7,100.2 466.5,101.5 
				468.1,101.6 467.1,102.8 			"/>
			<polygon class="st32" points="470.5,93.9 469,93.3 467.7,94.2 467.8,92.6 466.6,91.7 468.1,91.3 468.7,89.8 469.5,91.1 
				471.1,91.2 470.1,92.4 			"/>
			<polygon class="st32" points="461.9,95 460.5,94.4 459.2,95.3 459.3,93.7 458.1,92.8 459.6,92.4 460.1,90.9 461,92.2 462.5,92.3 
				461.5,93.5 			"/>
			<polygon class="st32" points="466.8,98.1 465.4,97.5 464.1,98.4 464.2,96.8 462.9,95.8 464.5,95.4 465,94 465.8,95.3 467.4,95.4 
				466.4,96.6 			"/>
			<polygon class="st32" points="472.5,100.3 471.1,99.7 469.7,100.6 469.9,99 468.6,98 470.1,97.6 470.7,96.2 471.5,97.5 
				473.1,97.6 472.1,98.8 			"/>
			<polygon class="st32" points="461.9,101.3 460.5,100.7 459.2,101.5 459.3,100 458.1,99 459.6,98.6 460.1,97.2 461,98.5 
				462.5,98.6 461.5,99.8 			"/>
		</g>
	</g>
	<g>
		<g>
			<circle class="st29" cx="425.7" cy="176.3" r="11"/>
			<path class="st30" d="M425.7,187.6c-6.3,0-11.3-5.1-11.3-11.3s5.1-11.3,11.3-11.3s11.3,5.1,11.3,11.3c0,0,0,0,0,0l0,0
				C437.1,182.6,432,187.6,425.7,187.6z M425.7,165.7c-5.9,0-10.6,4.8-10.6,10.6s4.8,10.6,10.6,10.6c5.9,0,10.6-4.8,10.6-10.6
				c0,0,0,0,0,0l0,0C436.4,170.4,431.6,165.7,425.7,165.7z"/>
		</g>
		<path class="st31" d="M432.9,168.5c1.4,1.8,1.9,3.3,1.9,5.8c0,6.1-4.9,11-11,11c-2.7,0-5-1.3-6.9-2.9c2,2.7,4.9,4.7,8.5,4.7
			c6.1,0,11-4.9,11-11C436.5,172.6,434.7,169.9,432.9,168.5z"/>
		<g>
			<polygon class="st32" points="422.9,174.9 421.5,174.3 420.2,175.1 420.3,173.6 419.1,172.6 420.6,172.2 421.1,170.8 422,172.1 
				423.5,172.2 422.5,173.4 			"/>
			<polygon class="st32" points="431,174.1 429.6,173.5 428.3,174.3 428.4,172.8 427.1,171.8 428.7,171.4 429.2,170 430,171.3 
				431.6,171.4 430.6,172.6 			"/>
			<polygon class="st32" points="427.3,178.2 425.9,177.6 424.6,178.5 424.7,176.9 423.5,176 425,175.6 425.5,174.1 426.4,175.4 
				427.9,175.5 426.9,176.7 			"/>
			<polygon class="st32" points="434.6,177.3 433.2,176.7 431.9,177.6 432,176 430.8,175 432.3,174.7 432.8,173.2 433.7,174.5 
				435.2,174.6 434.2,175.8 			"/>
			<polygon class="st32" points="419.7,179.1 418.3,178.5 416.9,179.3 417.1,177.8 415.8,176.8 417.4,176.4 417.9,175 418.7,176.3 
				420.3,176.4 419.3,177.6 			"/>
			<polygon class="st32" points="431.7,181.3 430.3,180.7 429,181.5 429.1,180 427.9,179 429.4,178.6 429.9,177.1 430.8,178.5 
				432.3,178.5 431.3,179.7 			"/>
			<polygon class="st32" points="423.7,182.1 422.2,181.5 420.9,182.3 421,180.8 419.8,179.8 421.3,179.4 421.8,178 422.7,179.3 
				424.2,179.4 423.2,180.6 			"/>
		</g>
	</g>
	<g>
		<g>
			<circle class="st29" cx="74.3" cy="77" r="11"/>
			<path class="st30" d="M74.3,88.4c-6.3,0-11.3-5.1-11.3-11.3c0-6.3,5.1-11.3,11.3-11.3S85.6,70.8,85.6,77c0,0,0,0,0,0l0,0
				C85.6,83.3,80.5,88.4,74.3,88.4z M74.3,66.4c-5.9,0-10.6,4.8-10.6,10.6s4.8,10.6,10.6,10.6S84.9,82.9,84.9,77c0,0,0,0,0,0l0,0
				C84.9,71.2,80.2,66.4,74.3,66.4z"/>
		</g>
		<path class="st31" d="M81.5,69.3c1.4,1.8,1.9,3.3,1.9,5.8c0,6.1-4.9,11-11,11c-2.7,0-5-1.3-6.9-2.9c2,2.7,4.9,4.7,8.5,4.7
			c6.1,0,11-4.9,11-11C85,73.3,83.2,70.6,81.5,69.3z"/>
		<g>
			<polygon class="st32" points="71.5,75.6 70,75 68.7,75.9 68.8,74.3 67.6,73.3 69.1,73 69.7,71.5 70.5,72.8 72.1,72.9 71.1,74.1 
							"/>
			<polygon class="st32" points="79.6,74.8 78.1,74.2 76.8,75.1 76.9,73.5 75.7,72.5 77.2,72.2 77.8,70.7 78.6,72 80.1,72.1 
				79.1,73.3 			"/>
			<polygon class="st32" points="80.3,82 78.8,81.4 77.5,82.3 77.6,80.7 76.4,79.7 77.9,79.3 78.5,77.9 79.3,79.2 80.9,79.3 
				79.9,80.5 			"/>
			<polygon class="st32" points="72.2,82.8 70.8,82.2 69.4,83.1 69.6,81.5 68.3,80.5 69.8,80.2 70.4,78.7 71.2,80 72.8,80.1 
				71.8,81.3 			"/>
		</g>
	</g>
	<g>
		<g>
			<circle class="st29" cx="271.4" cy="190.7" r="18.5"/>
			<path class="st30" d="M271.4,209.7c-10.5,0-19-8.5-19-19s8.5-19,19-19s19,8.5,19,19c0,0,0,0,0,0l0,0
				C290.5,201.2,281.9,209.7,271.4,209.7z M271.4,172.8c-9.9,0-17.9,8-17.9,17.9s8,17.9,17.9,17.9s17.9-8,17.9-17.9c0,0,0,0,0,0l0,0
				C289.3,180.8,281.3,172.8,271.4,172.8z"/>
		</g>
		<path class="st31" d="M283.5,177.6c2.3,3.1,3.2,5.5,3.2,9.7c0,10.2-8.3,18.5-18.5,18.5c-4.6,0-8.3-2.2-11.6-4.9
			c3.4,4.5,8.3,7.8,14.3,7.8c10.2,0,18.5-8.3,18.5-18.5C289.5,184.5,286.5,180,283.5,177.6z"/>
		<g>
			<polygon class="st32" points="270.5,191.4 268,190.4 265.8,191.8 266,189.2 263.9,187.6 266.5,186.9 267.4,184.5 268.8,186.7 
				271.4,186.8 269.8,188.8 			"/>
			<polygon class="st32" points="277.8,196.5 275.4,195.5 273.2,196.9 273.4,194.3 271.3,192.7 273.9,192 274.8,189.6 276.2,191.8 
				278.8,191.9 277.1,193.9 			"/>
		</g>
	</g>
	<g>
		<g>
			<circle class="st29" cx="390.8" cy="60.1" r="14.1"/>
			<path class="st30" d="M390.8,74.6c-8.1,0-14.6-6.5-14.6-14.6s6.5-14.6,14.6-14.6c8.1,0,14.6,6.5,14.6,14.6c0,0,0,0,0,0l0,0
				C405.3,68.1,398.8,74.6,390.8,74.6z M390.8,46.3c-7.6,0-13.7,6.1-13.7,13.7s6.1,13.7,13.7,13.7s13.7-6.1,13.7-13.7c0,0,0,0,0,0
				l0,0C404.4,52.5,398.3,46.4,390.8,46.3z"/>
		</g>
		<path class="st31" d="M400,50c1.8,2.4,2.5,4.3,2.5,7.5c0,7.8-6.3,14.1-14.1,14.1c-3.5,0-6.4-1.6-8.9-3.8c2.6,3.4,6.4,6,11,6
			c7.8,0,14.1-6.3,14.1-14.1C404.6,55.3,402.3,51.8,400,50z"/>
		<g>
			<polygon class="st32" points="392.8,62.5 391,61.8 389.3,62.9 389.4,60.9 387.8,59.6 389.8,59.1 390.5,57.2 391.6,58.9 393.6,59 
				392.3,60.6 			"/>
		</g>
	</g>
</g>
</svg>
