<?xml version="1.0" encoding="utf-8"?>
<!-- Generator: Adobe Illustrator 25.0.0, SVG Export Plug-In . SVG Version: 6.00 Build 0)  -->
<svg version="1.1" id="Layer_1" xmlns="http://www.w3.org/2000/svg" xmlns:xlink="http://www.w3.org/1999/xlink" x="0px" y="0px"
	 viewBox="0 0 800 250" style="enable-background:new 0 0 800 250;" xml:space="preserve">
<style type="text/css">
	.st0{fill:#CDF5F9;}
	.st1{fill:#FFFFFF;}
	.st2{fill:#444444;}
	.st3{fill:#0F5E0F;}
	.st4{fill:#094909;}
	.st5{fill:#09890C;}
	.st6{fill:#0C440C;}
	.st7{fill:#3B3B3B;}
	.st8{display:none;}
	.st9{display:inline;opacity:0.47;fill:url(#SVGID_1_);enable-background:new    ;}
	.st10{fill:#FF0000;}
	.st11{fill:#FFF1E1;}
	.st12{fill:#9B9B9B;}
	.st13{fill:#191919;}
	.st14{fill:#D6D6D6;}
	.st15{fill:#F794ED;}
	.st16{clip-path:url(#SVGID_3_);}
	.st17{fill:#995996;}
	.st18{fill:#5E5E5E;}
	.st19{fill:#777777;}
	.st20{fill:#32323F;}
	.st21{fill:#474757;}
	.st22{fill:#DDDDDD;}
	.st23{fill:#BAC0D8;}
	.st24{fill:#ACAFBC;}
	.st25{fill:#FFC278;}
	.st26{fill:#282828;}
	.st27{opacity:0.65;fill:#FFFFFF;enable-background:new    ;}
</style>
<g>
	<g id="Layer_1_1_">
		<rect class="st0" width="800" height="250"/>
	</g>
	<g id="Layer_3">
		<g>
			<path class="st1" d="M713.8,64c-3-16.5-17.4-28.9-34.7-28.9c-4.8,0-9.4,1-13.6,2.7C658.7,28.2,647.6,22,635,22
				c-12.7,0-23.9,6.3-30.6,16c-4.7-3.3-10.3-5.3-16.5-5.3c-15.7,0-28.5,12.7-28.5,28.5c0,0.9,0,1.9,0.1,2.8H713.8z"/>
		</g>
		<g>
			<path class="st1" d="M414.4,94c2.2-12.1,12.8-21.4,25.6-21.4c3.6,0,7,0.7,10,2c5-7.1,13.2-11.7,22.5-11.7
				c9.4,0,17.6,4.7,22.6,11.8c3.4-2.4,7.6-3.9,12.2-3.9c11.6,0,21,9.4,21,21c0,0.7,0,1.4-0.1,2.1H414.4V94z"/>
		</g>
		<g>
			<path class="st1" d="M92.3,62.7c-6.2,0-11.8,2-16.5,5.3c-6.7-9.7-17.9-16-30.6-16c-12.6,0-23.7,6.2-30.5,15.8
				c-4.2-1.8-8.8-2.7-13.6-2.7c-0.4,0-0.7,0-1.1,0V94h120.6c0.1-0.9,0.1-1.9,0.1-2.8C120.8,75.5,108,62.7,92.3,62.7z"/>
		</g>
	</g>
	<path class="st2" d="M565.5,231.1L565.5,231.1c-2.9,0-5.2-2.3-5.2-5.2V31.3c0-2.9,2.3-5.2,5.2-5.2l0,0c2.9,0,5.2,2.3,5.2,5.2v194.6
		C570.7,228.8,568.4,231.1,565.5,231.1z"/>
	<g>
		<g>
			<path class="st3" d="M306,155.5c-6.4,8.9-15.2,16.4-25.9,21.3c-21.5,9.8-45.4,7-63.6-5.3c-8.4,13.6-13.7,29.4-14.8,46.3h-0.2V250
				h203.3v-32.2h-0.2c-1.4-20.6-8.9-39.5-20.7-54.9c-2.4,1.5-4.9,2.8-7.5,4C352,178,324.4,172.6,306,155.5z"/>
			<path class="st4" d="M303.1,123c-36.6,0-68.7,19.4-86.6,48.5c18.2,12.3,42.2,15.1,63.6,5.3c10.7-4.9,19.5-12.3,25.9-21.3
				c18.4,17.1,46,22.5,70.3,11.4c2.6-1.2,5.1-2.5,7.5-4C365.2,138.6,336,123,303.1,123z"/>
		</g>
		<g>
			<path class="st5" d="M254.6,245.9c-1.9-28-13.6-46.7-33.6-63.9c-4.7,1.8-9.8,2.8-15.2,2.8c-10.6,0-20.2-3.9-27.7-10.3
				c-4.5,5.1-9.9,9.3-16,12.4c-6.2,29-31.9,50.8-62.8,50.8c-15.2,0-29.1-5.3-40.1-14c-3.3,9-5.5,6.9-6.2,16.9l0,0l0,0h203.3l1.2,1.8
				l-0.5,3.8L254.6,245.9z"/>
			<path class="st6" d="M162.2,186.9c6.1-3.1,11.5-7.3,16-12.4c7.4,6.4,17.1,10.3,27.7,10.3c5.4,0,10.5-1,15.2-2.8
				c-17.8-15.4-41-24.7-66.4-24.7c-43.7,0-81,27.6-95.4,66.3c11,8.8,24.9,14,40.1,14C130.3,237.7,156,215.9,162.2,186.9z"/>
		</g>
	</g>
	<g id="Layer_5">
		<rect y="220" class="st7" width="800" height="30"/>
		<rect x="15" y="220" class="st1" width="99" height="6"/>
		<rect x="221" y="220" class="st1" width="99" height="6"/>
		<rect x="429" y="220" class="st1" width="99" height="6"/>
		<rect x="635" y="220" class="st1" width="99" height="6"/>
	</g>
	<g id="Layer_6">
	</g>
	<g id="Layer_8" class="st8">
		
			<linearGradient id="SVGID_1_" gradientUnits="userSpaceOnUse" x1="400" y1="-44" x2="400" y2="-294" gradientTransform="matrix(1 0 0 -1 0 -44)">
			<stop  offset="0" style="stop-color:#666666"/>
			<stop  offset="1" style="stop-color:#333333"/>
		</linearGradient>
		<rect class="st9" width="800" height="250"/>
	</g>
	<g>
		<g>
			<rect x="570.7" y="36.3" class="st1" width="33.7" height="33.7"/>
			<rect x="570.7" y="70" width="33.7" height="33.7"/>
			<rect x="604.5" y="70.1" class="st1" width="33.7" height="33.7"/>
			<rect x="604.5" y="36.3" width="33.7" height="33.7"/>
			<rect x="638.2" y="36.3" class="st1" width="33.7" height="33.7"/>
			<rect x="638.2" y="70" width="33.7" height="33.7"/>
			<rect x="672" y="70.1" class="st1" width="33.7" height="33.7"/>
			<rect x="672" y="36.3" width="33.7" height="33.7"/>
			<rect x="705.7" y="36.3" class="st1" width="33.7" height="33.7"/>
			<rect x="705.7" y="70" width="33.7" height="33.7"/>
			<rect x="739.5" y="70.1" class="st1" width="33.7" height="33.7"/>
			<rect x="739.5" y="36.3" width="33.7" height="33.7"/>
		</g>
		<g>
			<g>
				<g>
					<path class="st10" d="M620,84.1c-0.5,0-1.1,0-1.9-0.1c-0.8-0.1-1.6-0.2-2.4-0.4c-0.9-0.2-1.8-0.4-2.6-0.7
						c-0.9-0.3-1.7-0.6-2.5-1s-1.5-0.9-2-1.4c-0.6-0.7-0.9-1.4-0.9-2.3s0.3-1.7,1-2.4c0.7-0.7,1.5-1.1,2.4-1.1
						c0.6,0,1.1,0.1,1.6,0.4c0.6,0.3,1.2,0.6,1.8,0.9c0.6,0.2,1.2,0.4,1.8,0.6s1.2,0.3,1.8,0.4s1.3,0.1,2,0.1c0.4,0,1,0,1.6-0.1
						s1.1-0.2,1.6-0.3c0.5-0.2,0.8-0.4,1.2-0.7c0.1-0.1,0.3-0.3,0.3-0.8c0-0.3-0.1-0.7-0.7-1c-0.7-0.4-1.6-0.8-2.7-1.1
						c-1.1-0.4-2.4-0.7-3.7-1.1c-1.4-0.4-2.8-0.9-4-1.6c-1.3-0.7-2.3-1.6-3.2-2.7c-0.9-1.2-1.4-2.7-1.4-4.6c0-1.6,0.4-3,1.2-4.1
						c0.7-1.1,1.7-1.9,2.9-2.5c1.1-0.6,2.3-1,3.7-1.2c1.3-0.2,2.6-0.3,3.8-0.3c0.6,0,1.3,0,2.1,0.1s1.6,0.2,2.4,0.3
						c0.8,0.1,1.6,0.3,2.3,0.5c0.8,0.2,1.5,0.5,2.1,0.7c0.6,0.3,1.1,0.7,1.5,1.1c0.4,0.5,0.6,1.2,0.6,2c0,0.9-0.3,1.8-1,2.4
						s-1.5,1-2.4,1c-0.4,0-0.8-0.1-1.3-0.3c-1-0.4-2.1-0.7-3.1-0.9s-2.1-0.3-3.2-0.3c-0.4,0-0.9,0-1.5,0c-0.5,0-1.1,0.1-1.6,0.2
						c-0.4,0.1-0.8,0.3-1.1,0.5c-0.1,0.1-0.2,0.2-0.2,0.6c0,0.1,0,0.3,0.2,0.5c0.2,0.3,0.6,0.5,1,0.8c0.4,0.3,1,0.5,1.5,0.7
						c0.6,0.2,1.2,0.4,1.8,0.6s1.1,0.3,1.6,0.5c0.5,0.1,0.9,0.3,1.2,0.3c1,0.3,2,0.7,3,1.1s1.9,0.9,2.7,1.6c0.8,0.6,1.4,1.5,1.9,2.4
						c0.5,1,0.7,2.1,0.7,3.4c0,1.7-0.4,3.2-1.1,4.4c-0.7,1.1-1.7,2.1-2.9,2.8c-1.1,0.7-2.4,1.1-3.8,1.4
						C622.7,83.9,621.3,84.1,620,84.1z"/>
					<path d="M620.6,56c0.6,0,1.3,0,2.1,0.1s1.5,0.2,2.3,0.3s1.5,0.3,2.3,0.5c0.7,0.2,1.4,0.4,1.9,0.7c0.4,0.2,0.8,0.5,1.1,0.9
						s0.4,0.8,0.4,1.3c0,0.7-0.2,1.3-0.7,1.7c-0.5,0.5-1.1,0.7-1.7,0.7c-0.3,0-0.6-0.1-0.9-0.2c-1.1-0.4-2.2-0.7-3.2-0.9
						c-1.1-0.2-2.2-0.3-3.4-0.3c-0.4,0-0.9,0-1.5,0s-1.2,0.1-1.8,0.3s-1.1,0.4-1.5,0.7s-0.6,0.8-0.6,1.4c0,0.4,0.2,0.8,0.5,1.2
						s0.7,0.7,1.2,1s1.1,0.6,1.7,0.8c0.6,0.2,1.2,0.4,1.8,0.6s1.1,0.3,1.6,0.5c0.5,0.1,0.9,0.3,1.2,0.3c1,0.3,1.9,0.7,2.9,1
						c0.9,0.4,1.7,0.8,2.4,1.4s1.2,1.3,1.7,2.1c0.4,0.8,0.6,1.8,0.6,3c0,1.5-0.3,2.8-1,3.8s-1.5,1.8-2.5,2.4s-2.2,1-3.5,1.3
						c-1.3,0.2-2.6,0.4-3.9,0.4c-0.4,0-1,0-1.8-0.1c-0.7-0.1-1.5-0.2-2.3-0.4c-0.8-0.2-1.7-0.4-2.5-0.6c-0.8-0.3-1.6-0.6-2.3-0.9
						c-0.7-0.4-1.3-0.8-1.7-1.2c-0.4-0.5-0.7-1-0.7-1.6s0.2-1.2,0.7-1.7s1-0.7,1.7-0.7c0.4,0,0.8,0.1,1.1,0.3
						c0.7,0.4,1.3,0.7,1.9,0.9c0.6,0.3,1.3,0.5,1.9,0.6c0.6,0.2,1.3,0.3,1.9,0.4c0.7,0.1,1.4,0.1,2.1,0.1c0.5,0,1,0,1.7-0.1
						c0.6-0.1,1.3-0.2,1.8-0.4c0.6-0.2,1.1-0.5,1.5-0.9s0.6-0.9,0.6-1.5c0-0.8-0.4-1.4-1.2-1.9s-1.7-0.9-2.9-1.2
						c-1.1-0.4-2.4-0.7-3.8-1.1c-1.4-0.4-2.6-0.9-3.8-1.5c-1.1-0.6-2.1-1.4-2.9-2.5c-0.8-1-1.2-2.4-1.2-4c0-1.4,0.3-2.6,1-3.6
						s1.5-1.7,2.5-2.2s2.2-0.9,3.4-1.1C618.2,56.1,619.5,56,620.6,56 M620.6,54c-1.3,0-2.6,0.1-4,0.3c-1.5,0.2-2.8,0.7-4,1.3
						c-1.3,0.7-2.4,1.6-3.2,2.8c-0.9,1.3-1.3,2.9-1.3,4.7c0,2.1,0.5,3.9,1.6,5.2c0.9,1.2,2.1,2.3,3.5,3c1.3,0.7,2.7,1.3,4.2,1.7
						c1.3,0.4,2.6,0.7,3.7,1.1c1,0.3,1.8,0.6,2.4,1c0.1,0.1,0.2,0.1,0.2,0.1l0,0c0,0,0,0,0,0.1c-0.2,0.2-0.5,0.3-0.8,0.4
						c-0.4,0.1-0.9,0.2-1.4,0.3c-0.6,0.1-1.1,0.1-1.5,0.1c-0.7,0-1.3,0-1.9-0.1c-0.6-0.1-1.1-0.2-1.7-0.3c-0.5-0.1-1.1-0.3-1.6-0.6
						c-0.6-0.2-1.1-0.5-1.7-0.8c-0.7-0.4-1.4-0.6-2.1-0.6c-1.2,0-2.3,0.5-3.1,1.4s-1.3,1.9-1.3,3.1c0,1.1,0.4,2.1,1.2,2.9
						c0.6,0.6,1.4,1.2,2.2,1.6s1.7,0.8,2.6,1c0.9,0.3,1.8,0.5,2.7,0.7s1.7,0.3,2.5,0.4s1.5,0.1,2,0.1c1.4,0,2.8-0.1,4.2-0.4
						c1.5-0.3,2.9-0.8,4.1-1.5c1.3-0.8,2.4-1.8,3.2-3.1c0.9-1.3,1.3-3,1.3-4.9c0-1.5-0.3-2.8-0.8-3.9s-1.3-2-2.2-2.7
						c-0.8-0.7-1.8-1.3-2.9-1.7c-1-0.4-2-0.8-3-1.1l0,0l0,0c-0.3-0.1-0.7-0.2-1.2-0.3c-0.5-0.1-1-0.3-1.6-0.5
						c-0.5-0.2-1.1-0.4-1.7-0.6c-0.5-0.2-1-0.4-1.4-0.6c-0.2-0.1-0.4-0.3-0.6-0.4c0.1-0.1,0.3-0.1,0.5-0.2c0.4-0.1,0.9-0.2,1.3-0.2
						c0.6,0,1.1,0,1.5,0c1,0,2,0.1,3,0.3s2,0.5,3,0.8c0.6,0.2,1.1,0.3,1.6,0.3c1.2,0,2.3-0.5,3.2-1.3c0.9-0.9,1.3-1.9,1.3-3.2
						c0-1-0.3-1.9-0.9-2.6c-0.5-0.6-1.1-1.1-1.8-1.4c-0.7-0.3-1.4-0.6-2.3-0.8c-0.8-0.2-1.6-0.4-2.4-0.5c-0.8-0.2-1.7-0.3-2.5-0.3
						C622,54.1,621.3,54,620.6,54L620.6,54z"/>
				</g>
				<g>
					<path class="st10" d="M644.9,83.9c-1,0-1.9-0.4-2.6-1.1c-0.7-0.7-1-1.6-1-2.6V62.4h-6.2c-1,0-1.8-0.3-2.4-1s-1-1.5-1-2.4
						s0.3-1.8,1-2.4c0.7-0.7,1.5-1,2.4-1h19.6c0.9,0,1.8,0.3,2.4,1c0.7,0.7,1,1.5,1,2.4s-0.4,1.8-1,2.4c-0.7,0.7-1.5,1-2.4,1h-6.2
						v17.9c0,1-0.4,1.9-1.1,2.6C646.7,83.5,645.9,83.9,644.9,83.9z"/>
					<path d="M654.7,56.5c0.7,0,1.3,0.2,1.7,0.7c0.5,0.5,0.7,1.1,0.7,1.7c0,0.7-0.2,1.3-0.7,1.7c-0.5,0.5-1.1,0.7-1.7,0.7h-7.2v18.9
						c0,0.7-0.3,1.4-0.8,1.9s-1.1,0.8-1.9,0.8s-1.3-0.3-1.8-0.8s-0.7-1.1-0.7-1.9V61.4h-7.2c-0.7,0-1.3-0.2-1.7-0.7s-0.7-1-0.7-1.7
						s0.2-1.3,0.7-1.7s1-0.7,1.7-0.7L654.7,56.5 M654.7,54.5h-19.6c-1.2,0-2.3,0.5-3.2,1.3c-0.8,0.9-1.3,1.9-1.3,3.1
						c0,1.2,0.4,2.3,1.3,3.1c0.8,0.8,1.9,1.3,3.1,1.3h5.2v16.9c0,1.3,0.5,2.4,1.3,3.3c0.9,0.9,2,1.4,3.3,1.4s2.4-0.5,3.3-1.3
						c0.9-0.9,1.3-2,1.3-3.3V63.4h5.2c1.2,0,2.3-0.4,3.1-1.3c0.9-0.8,1.3-1.9,1.3-3.2c0-1.2-0.5-2.3-1.3-3.2
						C657,54.9,655.9,54.5,654.7,54.5L654.7,54.5z"/>
				</g>
				<g>
					<path class="st10" d="M680.2,83.9c-0.7,0-1.3-0.2-1.9-0.5c-0.5-0.3-1-0.8-1.2-1.4l-1.9-4.2h-10l-1.9,4.2
						c-0.3,0.6-0.7,1.1-1.3,1.5c-0.6,0.3-1.2,0.5-1.8,0.5c-1,0-1.8-0.3-2.4-1c-0.7-0.7-1-1.5-1-2.4c0-0.5,0.1-1,0.3-1.4l10-21.9
						c0.3-0.6,0.7-1.1,1.2-1.4c0.6-0.4,1.2-0.6,1.8-0.6s1.3,0.2,1.8,0.5c0.6,0.4,1,0.8,1.3,1.5l10,21.9c0.2,0.5,0.3,1,0.3,1.4
						c0,0.9-0.3,1.8-1,2.4C682,83.5,681.1,83.9,680.2,83.9z M672.3,71.3l-2.1-4.7l-2.1,4.7H672.3z"/>
					<path d="M670.1,56.1c0.5,0,0.9,0.1,1.3,0.4c0.4,0.2,0.7,0.6,0.9,1l10,21.9c0.1,0.3,0.2,0.7,0.2,1c0,0.7-0.2,1.3-0.7,1.7
						s-1,0.7-1.7,0.7c-0.5,0-0.9-0.1-1.3-0.4c-0.4-0.2-0.7-0.6-0.9-1l-2.2-4.8h-11.3l-2.2,4.8c-0.2,0.4-0.5,0.8-0.9,1
						s-0.8,0.4-1.3,0.4c-0.7,0-1.3-0.2-1.7-0.7c-0.5-0.5-0.7-1.1-0.7-1.7c0-0.3,0.1-0.7,0.2-1l10-21.9c0.2-0.4,0.5-0.8,0.9-1
						C669.2,56.3,669.6,56.1,670.1,56.1 M666.5,72.3h7.3l-3.7-8.1L666.5,72.3 M670.1,54.1c-0.9,0-1.7,0.2-2.4,0.7s-1.2,1.1-1.6,1.9
						l-10,21.8c-0.3,0.6-0.4,1.2-0.4,1.8c0,1.2,0.5,2.3,1.3,3.2c0.9,0.9,1.9,1.3,3.2,1.3c0.9,0,1.6-0.2,2.4-0.7
						c0.7-0.5,1.3-1.1,1.6-1.9l1.6-3.6h8.7l1.6,3.6c0.4,0.8,0.9,1.4,1.6,1.9c0.7,0.5,1.5,0.7,2.4,0.7c1.2,0,2.3-0.5,3.1-1.3
						s1.3-1.9,1.3-3.1c0-0.6-0.1-1.2-0.3-1.7v-0.1v-0.1l-10-21.9c-0.4-0.8-1-1.5-1.7-1.9C671.7,54.4,670.9,54.1,670.1,54.1
						L670.1,54.1z M669.6,70.3l0.6-1.3l0.6,1.3H669.6L669.6,70.3z"/>
				</g>
				<g>
					<path class="st10" d="M706.3,83.9c-0.7,0-1.3-0.2-1.8-0.5c-0.6-0.3-1-0.8-1.3-1.4c-0.1-0.2-0.3-0.5-0.5-1l-0.8-1.7
						c-0.4-0.8-0.7-1.5-1.1-2.3c-0.4-0.8-0.8-1.5-1.1-2.2c-0.3-0.6-0.6-1.2-0.8-1.6c0-0.1-0.1-0.1-0.1-0.2h-5.5v7.3
						c0,1-0.4,1.9-1.1,2.6c-0.7,0.7-1.6,1-2.5,1c-1,0-1.9-0.3-2.5-1c-0.7-0.7-1-1.5-1-2.5V59.1c0-1,0.3-1.9,1-2.5
						c0.7-0.7,1.5-1,2.5-1h9.7c1.3,0,2.7,0.1,3.9,0.4c1.3,0.3,2.4,0.8,3.4,1.5s1.8,1.7,2.4,2.8c0.6,1.1,0.9,2.5,0.9,4.1
						c0,1.7-0.4,3.3-1.2,4.6c-0.6,1.1-1.6,2-2.7,2.6c0,0.1,0.1,0.1,0.1,0.2c0.3,0.5,0.6,1.1,0.9,1.7c0.3,0.6,0.6,1.3,1,1.9
						c0.3,0.7,0.6,1.3,0.9,1.9c0.3,0.6,0.5,1.2,0.7,1.7c0.2,0.6,0.3,1,0.3,1.4c0,1-0.3,1.8-1,2.5C708.1,83.5,707.3,83.9,706.3,83.9z
						 M700.1,66.6c0.8,0,1.4-0.2,1.9-0.6c0.3-0.2,0.6-0.6,0.6-1.5c0-1-0.4-1.4-0.6-1.6c-0.5-0.4-1.1-0.6-1.9-0.6h-6.8v4.3
						C693.3,66.6,700.1,66.6,700.1,66.6z"/>
					<path d="M699.4,56.5c1.3,0,2.5,0.1,3.7,0.4c1.2,0.3,2.2,0.7,3,1.4c0.9,0.6,1.5,1.4,2.1,2.4s0.8,2.2,0.8,3.6
						c0,1.5-0.4,2.9-1.1,4.1c-0.7,1.2-1.8,2.1-3.2,2.7c0.1,0.3,0.3,0.6,0.6,1.1s0.5,1,0.9,1.7c0.3,0.6,0.6,1.3,1,1.9
						s0.6,1.3,0.9,1.9c0.3,0.6,0.5,1.1,0.7,1.6s0.3,0.8,0.3,1c0,0.7-0.2,1.3-0.7,1.8s-1.1,0.7-1.8,0.7c-0.5,0-0.9-0.1-1.3-0.4
						c-0.4-0.2-0.7-0.6-0.9-1c-0.1-0.1-0.2-0.5-0.5-1s-0.5-1.1-0.9-1.8c-0.3-0.7-0.7-1.4-1.1-2.2c-0.4-0.8-0.7-1.5-1.1-2.1
						c-0.3-0.7-0.6-1.2-0.8-1.6s-0.3-0.7-0.3-0.7h-7.2v8.3c0,0.7-0.3,1.3-0.8,1.8s-1.1,0.7-1.8,0.7s-1.3-0.2-1.8-0.7
						s-0.7-1.1-0.7-1.8V59.1c0-0.7,0.2-1.3,0.7-1.8s1.1-0.7,1.8-0.7L699.4,56.5 M692.3,67.6h7.8c1,0,1.8-0.3,2.5-0.8
						s1.1-1.3,1.1-2.3s-0.3-1.8-1-2.4c-0.7-0.5-1.5-0.8-2.5-0.8h-7.8L692.3,67.6 M699.4,54.5h-9.7c-1.3,0-2.4,0.5-3.3,1.3
						c-0.9,0.9-1.3,2-1.3,3.3v21.2c0,1.3,0.5,2.4,1.3,3.3c0.9,0.9,2,1.3,3.3,1.3c1.2,0,2.3-0.4,3.2-1.3s1.4-2,1.4-3.3V74h3.9
						c0.2,0.4,0.4,0.8,0.6,1.2c0.3,0.7,0.7,1.4,1.1,2.2c0.4,0.8,0.7,1.5,1.1,2.2v0.1l0.8,1.7c0.3,0.6,0.4,0.9,0.5,1
						c0.4,0.8,0.9,1.4,1.6,1.8c0.7,0.4,1.5,0.7,2.4,0.7c1.2,0,2.3-0.5,3.2-1.3c0.9-0.9,1.3-2,1.3-3.2c0-0.5-0.1-1-0.4-1.7
						c-0.2-0.5-0.4-1.1-0.7-1.7s-0.6-1.3-0.9-1.9c-0.3-0.7-0.7-1.3-1-2c-0.2-0.4-0.4-0.8-0.6-1.1c0.9-0.7,1.7-1.5,2.3-2.5
						c0.9-1.5,1.3-3.2,1.3-5.1c0-1.7-0.3-3.3-1-4.6s-1.5-2.3-2.7-3.1c-1.1-0.8-2.3-1.3-3.7-1.7C702.2,54.7,700.8,54.5,699.4,54.5
						L699.4,54.5z M694.3,63.3h5.8c0.7,0,1.1,0.2,1.3,0.4c0.1,0.1,0.3,0.2,0.3,0.8c0,0.5-0.2,0.7-0.2,0.7c-0.4,0.3-0.8,0.4-1.3,0.4
						h-5.8L694.3,63.3L694.3,63.3z"/>
				</g>
				<g>
					<path class="st10" d="M723.8,83.9c-1,0-1.9-0.4-2.6-1.1c-0.7-0.7-1-1.6-1-2.6V62.4H714c-1,0-1.8-0.3-2.4-1s-1-1.5-1-2.4
						s0.3-1.8,1-2.4c0.7-0.7,1.5-1,2.4-1h19.6c1,0,1.8,0.3,2.4,1c0.7,0.7,1,1.5,1,2.4s-0.4,1.8-1,2.4c-0.7,0.7-1.5,1-2.4,1h-6.2
						v17.9c0,1-0.4,1.9-1.1,2.6C725.7,83.5,724.8,83.9,723.8,83.9z"/>
					<path d="M733.6,56.5c0.7,0,1.3,0.2,1.7,0.7c0.5,0.5,0.7,1.1,0.7,1.7c0,0.7-0.2,1.3-0.7,1.7c-0.5,0.5-1.1,0.7-1.7,0.7h-7.2v18.9
						c0,0.7-0.3,1.4-0.8,1.9s-1.1,0.8-1.9,0.8s-1.3-0.3-1.8-0.8s-0.7-1.1-0.7-1.9V61.4H714c-0.7,0-1.3-0.2-1.7-0.7s-0.7-1-0.7-1.7
						s0.2-1.3,0.7-1.7s1-0.7,1.7-0.7L733.6,56.5 M733.6,54.5H714c-1.2,0-2.3,0.5-3.2,1.3c-0.8,0.9-1.3,1.9-1.3,3.1
						c0,1.2,0.4,2.3,1.3,3.1c0.8,0.8,1.9,1.3,3.1,1.3h5.2v16.9c0,1.3,0.5,2.4,1.3,3.3c0.9,0.9,2,1.4,3.3,1.4s2.4-0.5,3.3-1.3
						c0.9-0.9,1.3-2,1.3-3.3V63.4h5.2c1.2,0,2.3-0.4,3.1-1.3c0.9-0.8,1.3-1.9,1.3-3.2c0-1.2-0.5-2.3-1.3-3.2
						C735.9,54.9,734.8,54.5,733.6,54.5L733.6,54.5z"/>
				</g>
			</g>
		</g>
		<path class="st2" d="M778.4,231.1L778.4,231.1c-2.9,0-5.2-2.3-5.2-5.2V31.3c0-2.9,2.3-5.2,5.2-5.2l0,0c2.9,0,5.2,2.3,5.2,5.2
			v194.6C783.6,228.8,781.2,231.1,778.4,231.1z"/>
	</g>
</g>
<g>
	<path class="st11" d="M571.9,181.5h3.7c0.4,0,0.8-0.4,0.8-0.8v-12h-5.3v12C571.1,181.2,571.4,181.5,571.9,181.5z"/>
	<g id="Layer_2_1_">
		<g id="Premium">
			<g id="premium-drag-pink">
				<rect x="627.8" y="181.9" class="st12" width="24" height="10.4"/>
				<polygon class="st12" points="646.9,183.3 632.8,183.3 632.8,176.1 650.4,175.5 				"/>
				<path class="st13" d="M650.4,175.5l-2.9,6.3C647.5,181.9,646.5,178.5,650.4,175.5z"/>
				<path class="st14" d="M627.8,181.9l14.7,0c0,0-6.1,1.6-14.7,1.4V181.9z"/>
				
					<rect x="647.7" y="181.5" transform="matrix(0.1893 -0.9819 0.9819 0.1893 344.6438 785.3159)" class="st13" width="0.5" height="4.9"/>
				
					<rect x="647.1" y="182.5" transform="matrix(0.1893 -0.9819 0.9819 0.1893 343.1789 785.6766)" class="st13" width="0.5" height="4.9"/>
				<path class="st15" d="M655.4,214.7l-170.5-12.9c-8.3-0.6-14.4-7.8-13.8-16.1l0,0l0,0c0.6-8.3,7.8-14.4,16.1-13.8l0,0l122.6,9.4
					c8.3,0.6,53.1,12,61.8,19.5l0,0C670.8,209.2,663.6,215.3,655.4,214.7z"/>
				<path class="st15" d="M655.4,214.7l-170.5-12.9c-8.3-0.6-14.4-7.8-13.8-16.1l0,0l0,0c0.6-8.3,7.8-14.4,16.1-13.8l0,0l122.6,9.4
					c8.3,0.6,53.1,12,61.8,19.5l0,0C670.8,209.2,663.6,215.3,655.4,214.7z"/>
				<g>
					<g>
						<g>
							<defs>
								<path id="SVGID_2_" d="M655.4,214.7l-170.5-12.9c-8.3-0.6-14.4-7.8-13.8-16.1l0,0l0,0c0.6-8.3,7.8-14.4,16.1-13.8l0,0
									l122.6,9.4c8.3,0.6,53.1,12,61.8,19.5l0,0C670.8,209.2,663.6,215.3,655.4,214.7z"/>
							</defs>
							<clipPath id="SVGID_3_">
								<use xlink:href="#SVGID_2_"  style="overflow:visible;"/>
							</clipPath>
							<g class="st16">
								
									<rect x="601.9" y="139" transform="matrix(0.8894 -0.4571 0.4571 0.8894 -16.3949 296.5192)" class="st17" width="5.5" height="86.2"/>
								
									<rect x="592.2" y="141.7" transform="matrix(0.8894 -0.4571 0.4571 0.8894 -18.671 292.3918)" class="st17" width="5.5" height="86.2"/>
								
									<rect x="582" y="144.7" transform="matrix(0.8894 -0.4571 0.4571 0.8894 -21.1735 288.0417)" class="st17" width="5.5" height="86.2"/>
							</g>
						</g>
					</g>
				</g>
				<path class="st17" d="M482.1,196.7l185.1,10.8c2.4,0.1,4.3,2.2,4.2,4.6l0,0c-0.1,2.4-2.2,4.3-4.6,4.2l-185.1-10.8
					c-2.4-0.1-4.3-2.2-4.2-4.6l0,0C477.6,198.4,479.7,196.5,482.1,196.7z"/>
				<polygon class="st15" points="562.1,159.3 506.4,150 506.4,181.2 561.2,184.7 552.6,164.4 				"/>
				
					<rect x="524.9" y="179.9" transform="matrix(0.9362 -0.3515 0.3515 0.9362 -29.8456 197.1549)" class="st18" width="6.3" height="1.8"/>
				
					<rect x="526.6" y="184.5" transform="matrix(0.9362 -0.3515 0.3515 0.9362 -31.3444 198.0524)" class="st18" width="6.3" height="1.8"/>
				
					<rect x="522.1" y="134.3" transform="matrix(0.9362 -0.3515 0.3515 0.9362 -21.1109 194.2841)" class="st19" width="4.9" height="41.9"/>
				
					<ellipse transform="matrix(0.9362 -0.3515 0.3515 0.9362 -14.8957 190.5648)" class="st18" cx="517.4" cy="136.3" rx="2.5" ry="2.3"/>
				
					<ellipse transform="matrix(0.9372 -0.3489 0.3489 0.9372 -14.8813 189.044)" class="st12" cx="517.4" cy="135.8" rx="2.5" ry="2.3"/>
				
					<ellipse transform="matrix(0.9362 -0.3515 0.3515 0.9362 -14.6952 190.4423)" class="st13" cx="517.2" cy="135.7" rx="2.1" ry="2"/>
				
					<rect x="531" y="166" transform="matrix(0.9362 -0.3515 0.3515 0.9362 -30.462 199.8707)" class="st12" width="8.5" height="35.7"/>
				
					<rect x="511.5" y="138.3" transform="matrix(0.9362 -0.3515 0.3515 0.9362 -23.1786 190.8218)" class="st19" width="4.9" height="41.9"/>
				
					<ellipse transform="matrix(0.9362 -0.3515 0.3515 0.9362 -16.9634 187.1024)" class="st18" cx="506.8" cy="140.3" rx="2.5" ry="2.3"/>
				
					<ellipse transform="matrix(0.9362 -0.3515 0.3515 0.9362 -16.7607 186.9891)" class="st12" cx="506.6" cy="139.7" rx="2.5" ry="2.3"/>
				
					<ellipse transform="matrix(0.9362 -0.3515 0.3515 0.9362 -16.7607 186.9891)" class="st13" cx="506.6" cy="139.7" rx="2.1" ry="2"/>
				
					<rect x="520.5" y="169.9" transform="matrix(0.9362 -0.3515 0.3515 0.9362 -32.5276 196.4174)" class="st12" width="8.5" height="35.7"/>
				
					<rect x="478.2" y="169.4" transform="matrix(0.9362 -0.3515 0.3515 0.9362 -29.1582 180.0611)" class="st18" width="6.3" height="1.9"/>
				
					<rect x="480" y="174.3" transform="matrix(0.9362 -0.3515 0.3515 0.9362 -30.7573 181.0197)" class="st18" width="6.3" height="1.9"/>
				
					<rect x="474.8" y="121" transform="matrix(0.9362 -0.3515 0.3515 0.9362 -19.9187 176.8846)" class="st19" width="4.9" height="44.7"/>
				
					<ellipse transform="matrix(0.9362 -0.3515 0.3515 0.9362 -13.2832 172.9259)" class="st18" cx="469.6" cy="123" rx="2.5" ry="2.4"/>
				
					<ellipse transform="matrix(0.9372 -0.3489 0.3489 0.9372 -13.2202 171.4688)" class="st12" cx="469.4" cy="122.4" rx="2.5" ry="2.4"/>
				
					<ellipse transform="matrix(0.9362 -0.3515 0.3515 0.9362 -13.0674 172.794)" class="st13" cx="469.4" cy="122.4" rx="2.1" ry="2.1"/>
				
					<rect x="484.4" y="154.7" transform="matrix(0.9362 -0.3515 0.3515 0.9362 -29.8766 182.8473)" class="st12" width="8.5" height="38.1"/>
				
					<rect x="464.2" y="124.9" transform="matrix(0.9362 -0.3515 0.3515 0.9362 -21.9841 173.4314)" class="st19" width="4.9" height="44.7"/>
				
					<ellipse transform="matrix(0.9362 -0.3515 0.3515 0.9362 -15.3508 169.4647)" class="st18" cx="459.1" cy="127" rx="2.5" ry="2.4"/>
				
					<ellipse transform="matrix(0.9362 -0.3515 0.3515 0.9362 -15.1331 169.3396)" class="st12" cx="458.8" cy="126.3" rx="2.5" ry="2.4"/>
				
					<ellipse transform="matrix(0.9362 -0.3515 0.3515 0.9362 -15.1331 169.3396)" class="st13" cx="458.8" cy="126.3" rx="2.1" ry="2.1"/>
				
					<rect x="473.9" y="158.7" transform="matrix(0.9362 -0.3515 0.3515 0.9362 -31.9533 179.3869)" class="st12" width="8.5" height="38.1"/>
				
					<rect x="502" y="176.6" transform="matrix(0.9372 -0.3489 0.3489 0.9372 -30.2181 187.405)" class="st18" width="6.4" height="1.9"/>
				
					<rect x="503.7" y="181.3" transform="matrix(0.9362 -0.3515 0.3515 0.9362 -31.7117 189.8012)" class="st18" width="6.3" height="1.9"/>
				
					<rect x="498.3" y="127.4" transform="matrix(0.9362 -0.3515 0.3515 0.9362 -20.7602 185.6034)" class="st19" width="4.9" height="45.2"/>
				
					<ellipse transform="matrix(0.9362 -0.3515 0.3515 0.9362 -14.0388 181.5953)" class="st18" cx="493.1" cy="129.5" rx="2.5" ry="2.5"/>
				<ellipse class="st12" cx="493" cy="128.9" rx="2.5" ry="2.5"/>
				
					<ellipse transform="matrix(0.9362 -0.3515 0.3515 0.9362 -13.8327 181.4635)" class="st13" cx="492.9" cy="128.8" rx="2.1" ry="2.1"/>
				
					<rect x="508.1" y="161.5" transform="matrix(0.9362 -0.3515 0.3515 0.9362 -30.84 191.6305)" class="st12" width="8.5" height="38.5"/>
				
					<rect x="487.8" y="131.4" transform="matrix(0.9362 -0.3515 0.3515 0.9362 -22.8279 182.1409)" class="st19" width="4.9" height="45.2"/>
				
					<ellipse transform="matrix(0.9362 -0.3515 0.3515 0.9362 -16.1157 178.1349)" class="st18" cx="482.6" cy="133.5" rx="2.5" ry="2.5"/>
				
					<ellipse transform="matrix(0.9362 -0.3515 0.3515 0.9362 -15.9002 178.0011)" class="st12" cx="482.3" cy="132.8" rx="2.5" ry="2.5"/>
				
					<ellipse transform="matrix(0.9362 -0.3515 0.3515 0.9362 -15.9002 178.0011)" class="st13" cx="482.3" cy="132.8" rx="2.1" ry="2.1"/>
				
					<rect x="497.6" y="165.7" transform="matrix(0.9372 -0.3489 0.3489 0.9372 -33.0215 186.7283)" class="st12" width="8.5" height="38.6"/>
				
					<ellipse transform="matrix(4.204784e-02 -0.9991 0.9991 4.204784e-02 280.5551 679.2607)" class="st20" cx="494.5" cy="193.3" rx="29.3" ry="29.4"/>
				
					<ellipse transform="matrix(4.204888e-02 -0.9991 0.9991 4.204888e-02 280.5546 679.2604)" class="st21" cx="494.5" cy="193.3" rx="28.5" ry="28.7"/>
				
					<ellipse transform="matrix(4.205140e-02 -0.9991 0.9991 4.205140e-02 280.5533 679.2599)" cx="494.5" cy="193.3" rx="21.4" ry="21.6"/>
				
					<ellipse transform="matrix(4.204931e-02 -0.9991 0.9991 4.204931e-02 280.5544 679.2604)" class="st1" cx="494.5" cy="193.3" rx="20.4" ry="20.5"/>
				
					<ellipse transform="matrix(4.204822e-02 -0.9991 0.9991 4.204822e-02 280.5549 679.2606)" class="st22" cx="494.5" cy="193.3" rx="19.3" ry="19.5"/>
				
					<ellipse transform="matrix(4.204662e-02 -0.9991 0.9991 4.204662e-02 280.5557 679.2609)" class="st23" cx="494.5" cy="193.3" rx="12" ry="12.1"/>
				
					<ellipse transform="matrix(4.205140e-02 -0.9991 0.9991 4.205140e-02 280.5533 679.2599)" class="st24" cx="494.5" cy="193.3" rx="11" ry="11"/>
				
					<ellipse transform="matrix(4.205140e-02 -0.9991 0.9991 4.205140e-02 386.0456 813.0982)" class="st20" cx="617" cy="205.2" rx="16.8" ry="16.9"/>
				
					<ellipse transform="matrix(4.205140e-02 -0.9991 0.9991 4.205140e-02 386.0456 813.0982)" class="st21" cx="617" cy="205.2" rx="16.4" ry="16.5"/>
				
					<ellipse transform="matrix(4.205140e-02 -0.9991 0.9991 4.205140e-02 386.0456 813.0982)" cx="617" cy="205.2" rx="12.3" ry="12.4"/>
				
					<ellipse transform="matrix(4.205140e-02 -0.9991 0.9991 4.205140e-02 386.0456 813.0982)" class="st1" cx="617" cy="205.2" rx="11.7" ry="11.8"/>
				
					<ellipse transform="matrix(4.205140e-02 -0.9991 0.9991 4.205140e-02 386.0456 813.0982)" class="st22" cx="617" cy="205.2" rx="11.1" ry="11.2"/>
				
					<ellipse transform="matrix(3.996812e-02 -0.9992 0.9992 3.996812e-02 387.3678 812.9868)" class="st23" cx="616.8" cy="204.9" rx="6.9" ry="7"/>
				
					<ellipse transform="matrix(4.205140e-02 -0.9991 0.9991 4.205140e-02 386.0456 813.0982)" class="st24" cx="617" cy="205.2" rx="6.3" ry="6.3"/>
			</g>
		</g>
	</g>
	<g>
		<g>
			<g>
				<g>
					<circle class="st25" cx="566.8" cy="170.1" r="8.2"/>
				</g>
				<path class="st11" d="M566.9,159.1c-5.4-0.1-9.8,4.4-9.8,9.8v11.8c0,0.4,0.4,0.8,0.8,0.8h4.3c0.4,0,0.8-0.4,0.8-0.8v-12h13.2
					C576.3,163.5,572.1,159.2,566.9,159.1z"/>
				<path class="st26" d="M563.2,168.7L563.2,168.7c0,2.1,1.6,3.7,3.7,3.7c1,0,2-0.4,2.6-1.1c0.7,0.7,1.6,1.1,2.6,1.1
					c2,0,3.7-1.6,3.7-3.7v0H563.2z"/>
			</g>
		</g>
		<circle class="st27" cx="564.3" cy="169.7" r="0.6"/>
		<circle class="st1" cx="565.2" cy="170.9" r="0.6"/>
		<circle class="st1" cx="566.4" cy="169.8" r="0.6"/>
		<circle class="st27" cx="567.1" cy="171.3" r="0.6"/>
		<circle class="st1" cx="568.6" cy="170.8" r="0.6"/>
		<circle class="st1" cx="569.5" cy="169.5" r="0.6"/>
		<circle class="st1" cx="570.6" cy="171.1" r="0.6"/>
		<circle class="st27" cx="567.9" cy="169.6" r="0.6"/>
		<circle class="st27" cx="572.3" cy="171.1" r="0.6"/>
		<circle class="st1" cx="573.8" cy="170.9" r="0.6"/>
		<circle class="st1" cx="572.9" cy="169.5" r="0.6"/>
		<circle class="st27" cx="574.5" cy="169.5" r="0.6"/>
		<circle class="st27" cx="571.1" cy="169.7" r="0.6"/>
	</g>
</g>
</svg>
