<?xml version="1.0" encoding="utf-8"?>
<!-- Generator: Adobe Illustrator 25.0.1, SVG Export Plug-In . SVG Version: 6.00 Build 0)  -->
<svg version="1.1" id="Layer_1" xmlns="http://www.w3.org/2000/svg" xmlns:xlink="http://www.w3.org/1999/xlink" x="0px" y="0px"
	 viewBox="0 0 800 250" style="enable-background:new 0 0 800 250;" xml:space="preserve">
<style type="text/css">
	.st0{fill:#222222;}
	.st1{opacity:0.8;fill:#FFFFFF;enable-background:new    ;}
	.st2{fill:#1C1C1C;}
	.st3{fill:#FFFFFF;}
	.st4{fill:#444444;}
	.st5{fill:#FF0000;}
	.st6{fill:#3B3B3B;}
	.st7{fill:url(#SVGID_1_);}
	.st8{fill:url(#SVGID_2_);}
	.st9{fill:#E70011;}
	.st10{fill:#4E514E;}
	.st11{opacity:0.25;fill:#FFFFFF;enable-background:new    ;}
	.st12{fill:#32323F;}
	.st13{fill:#474757;}
	.st14{fill:#DDDDDD;}
	.st15{fill:#BAC0D8;}
	.st16{fill:#ACAFBC;}
	.st17{fill:url(#SVGID_3_);}
	.st18{fill:url(#SVGID_4_);}
	.st19{fill:url(#SVGID_5_);}
	.st20{fill:url(#SVGID_6_);}
	.st21{fill:url(#SVGID_7_);}
	.st22{fill:url(#SVGID_8_);}
	.st23{fill:url(#SVGID_9_);}
	.st24{opacity:0.47;fill:url(#SVGID_10_);enable-background:new    ;}
</style>
<g id="Layer_1_1_">
	<rect class="st0" width="800" height="250"/>
</g>
<g id="Layer_7">
	<circle class="st1" cx="579.5" cy="72.5" r="3.5"/>
	<circle class="st1" cx="694.5" cy="30.5" r="3.5"/>
	<circle class="st1" cx="464.5" cy="34.5" r="3.5"/>
	<circle class="st1" cx="727.5" cy="125.5" r="3.5"/>
	<circle class="st1" cx="486.5" cy="130.5" r="3.5"/>
	<circle class="st1" cx="201.5" cy="20.5" r="3.5"/>
	<circle class="st1" cx="83.5" cy="34.5" r="3.5"/>
	<circle class="st1" cx="29.5" cy="98.5" r="3.5"/>
	<g>
		<g>
			<path class="st2" d="M306,155.5c-6.4,8.9-15.2,16.4-25.9,21.3c-21.5,9.8-45.4,7-63.6-5.3c-8.4,13.6-13.7,29.4-14.8,46.3h-0.2v28
				h203.3v-28h-0.2c-1.4-20.6-8.9-39.5-20.7-54.9c-2.4,1.5-4.9,2.8-7.5,4C352,178,324.4,172.6,306,155.5z"/>
			<path class="st3" d="M303.1,123c-36.6,0-68.7,19.4-86.6,48.5c18.2,12.3,42.2,15.1,63.6,5.3c10.7-4.9,19.5-12.3,25.9-21.3
				c18.4,17.1,46,22.5,70.3,11.4c2.6-1.2,5.1-2.5,7.5-4C365.2,138.6,336,123,303.1,123z"/>
		</g>
		<g>
			<path class="st4" d="M256.1,252.1c-1.9-28-15.1-52.9-35.1-70.1c-4.7,1.8-9.8,2.8-15.2,2.8c-10.6,0-20.2-3.9-27.7-10.3
				c-4.5,5.1-9.9,9.3-16,12.4c-6.2,29-31.9,50.8-62.8,50.8c-15.2,0-29.1-5.3-40.1-14c-3.3,9-5.4,18.5-6.1,28.5H53V250h203.3v2.1
				H256.1z"/>
			<path class="st3" d="M162.2,186.9c6.1-3.1,11.5-7.3,16-12.4c7.4,6.4,17.1,10.3,27.7,10.3c5.4,0,10.5-1,15.2-2.8
				c-17.8-15.4-41-24.7-66.4-24.7c-43.7,0-81,27.6-95.4,66.3c11,8.8,24.9,14,40.1,14C130.3,237.7,156,215.9,162.2,186.9z"/>
		</g>
	</g>
	<path class="st4" d="M565.5,231.1L565.5,231.1c-2.9,0-5.2-2.3-5.2-5.2V31.3c0-2.9,2.3-5.2,5.2-5.2l0,0c2.9,0,5.2,2.3,5.2,5.2v194.6
		C570.7,228.8,568.4,231.1,565.5,231.1z"/>
	<g>
		<g>
			<rect x="570.7" y="36.3" class="st3" width="33.7" height="33.7"/>
			<rect x="570.7" y="70" width="33.7" height="33.7"/>
			<rect x="604.5" y="70.1" class="st3" width="33.7" height="33.7"/>
			<rect x="604.5" y="36.3" width="33.7" height="33.7"/>
			<rect x="638.2" y="36.3" class="st3" width="33.7" height="33.7"/>
			<rect x="638.2" y="70" width="33.7" height="33.7"/>
			<rect x="672" y="70.1" class="st3" width="33.7" height="33.7"/>
			<rect x="672" y="36.3" width="33.7" height="33.7"/>
			<rect x="705.7" y="36.3" class="st3" width="33.7" height="33.7"/>
			<rect x="705.7" y="70" width="33.7" height="33.7"/>
			<rect x="739.5" y="70.1" class="st3" width="33.7" height="33.7"/>
			<rect x="739.5" y="36.3" width="33.7" height="33.7"/>
		</g>
		<g>
			<g>
				<g>
					<path class="st5" d="M620,84.1c-0.5,0-1.1,0-1.9-0.1c-0.8-0.1-1.6-0.2-2.4-0.4c-0.9-0.2-1.8-0.4-2.6-0.7
						c-0.9-0.3-1.7-0.6-2.5-1s-1.5-0.9-2-1.4c-0.6-0.7-0.9-1.4-0.9-2.3s0.3-1.7,1-2.4c0.7-0.7,1.5-1.1,2.4-1.1
						c0.6,0,1.1,0.1,1.6,0.4c0.6,0.3,1.2,0.6,1.8,0.9c0.6,0.2,1.2,0.4,1.8,0.6s1.2,0.3,1.8,0.4s1.3,0.1,2,0.1c0.4,0,1,0,1.6-0.1
						s1.1-0.2,1.6-0.3c0.5-0.2,0.8-0.4,1.2-0.7c0.1-0.1,0.3-0.3,0.3-0.8c0-0.3-0.1-0.7-0.7-1c-0.7-0.4-1.6-0.8-2.7-1.1
						c-1.1-0.4-2.4-0.7-3.7-1.1c-1.4-0.4-2.8-0.9-4-1.6c-1.3-0.7-2.3-1.6-3.2-2.7c-0.9-1.2-1.4-2.7-1.4-4.6c0-1.6,0.4-3,1.2-4.1
						c0.7-1.1,1.7-1.9,2.9-2.5c1.1-0.6,2.3-1,3.7-1.2c1.3-0.2,2.6-0.3,3.8-0.3c0.6,0,1.3,0,2.1,0.1s1.6,0.2,2.4,0.3
						c0.8,0.1,1.6,0.3,2.3,0.5c0.8,0.2,1.5,0.5,2.1,0.7c0.6,0.3,1.1,0.7,1.5,1.1c0.4,0.5,0.6,1.2,0.6,2c0,0.9-0.3,1.8-1,2.4
						s-1.5,1-2.4,1c-0.4,0-0.8-0.1-1.3-0.3c-1-0.4-2.1-0.7-3.1-0.9s-2.1-0.3-3.2-0.3c-0.4,0-0.9,0-1.5,0c-0.5,0-1.1,0.1-1.6,0.2
						c-0.4,0.1-0.8,0.3-1.1,0.5c-0.1,0.1-0.2,0.2-0.2,0.6c0,0.1,0,0.3,0.2,0.5c0.2,0.3,0.6,0.5,1,0.8c0.4,0.3,1,0.5,1.5,0.7
						c0.6,0.2,1.2,0.4,1.8,0.6s1.1,0.3,1.6,0.5c0.5,0.1,0.9,0.3,1.2,0.3c1,0.3,2,0.7,3,1.1s1.9,0.9,2.7,1.6c0.8,0.6,1.4,1.5,1.9,2.4
						c0.5,1,0.7,2.1,0.7,3.4c0,1.7-0.4,3.2-1.1,4.4c-0.7,1.1-1.7,2.1-2.9,2.8c-1.1,0.7-2.4,1.1-3.8,1.4
						C622.7,83.9,621.3,84.1,620,84.1z"/>
					<path d="M620.6,56c0.6,0,1.3,0,2.1,0.1s1.5,0.2,2.3,0.3s1.5,0.3,2.3,0.5c0.7,0.2,1.4,0.4,1.9,0.7c0.4,0.2,0.8,0.5,1.1,0.9
						s0.4,0.8,0.4,1.3c0,0.7-0.2,1.3-0.7,1.7c-0.5,0.5-1.1,0.7-1.7,0.7c-0.3,0-0.6-0.1-0.9-0.2c-1.1-0.4-2.2-0.7-3.2-0.9
						c-1.1-0.2-2.2-0.3-3.4-0.3c-0.4,0-0.9,0-1.5,0s-1.2,0.1-1.8,0.3s-1.1,0.4-1.5,0.7s-0.6,0.8-0.6,1.4c0,0.4,0.2,0.8,0.5,1.2
						s0.7,0.7,1.2,1s1.1,0.6,1.7,0.8c0.6,0.2,1.2,0.4,1.8,0.6s1.1,0.3,1.6,0.5c0.5,0.1,0.9,0.3,1.2,0.3c1,0.3,1.9,0.7,2.9,1
						c0.9,0.4,1.7,0.8,2.4,1.4s1.2,1.3,1.7,2.1c0.4,0.8,0.6,1.8,0.6,3c0,1.5-0.3,2.8-1,3.8s-1.5,1.8-2.5,2.4s-2.2,1-3.5,1.3
						c-1.3,0.2-2.6,0.4-3.9,0.4c-0.4,0-1,0-1.8-0.1c-0.7-0.1-1.5-0.2-2.3-0.4c-0.8-0.2-1.7-0.4-2.5-0.6c-0.8-0.3-1.6-0.6-2.3-0.9
						c-0.7-0.4-1.3-0.8-1.7-1.2c-0.4-0.5-0.7-1-0.7-1.6s0.2-1.2,0.7-1.7s1-0.7,1.7-0.7c0.4,0,0.8,0.1,1.1,0.3
						c0.7,0.4,1.3,0.7,1.9,0.9c0.6,0.3,1.3,0.5,1.9,0.6c0.6,0.2,1.3,0.3,1.9,0.4c0.7,0.1,1.4,0.1,2.1,0.1c0.5,0,1,0,1.7-0.1
						c0.6-0.1,1.3-0.2,1.8-0.4c0.6-0.2,1.1-0.5,1.5-0.9s0.6-0.9,0.6-1.5c0-0.8-0.4-1.4-1.2-1.9s-1.7-0.9-2.9-1.2
						c-1.1-0.4-2.4-0.7-3.8-1.1c-1.4-0.4-2.6-0.9-3.8-1.5c-1.1-0.6-2.1-1.4-2.9-2.5c-0.8-1-1.2-2.4-1.2-4c0-1.4,0.3-2.6,1-3.6
						s1.5-1.7,2.5-2.2s2.2-0.9,3.4-1.1C618.2,56.1,619.5,56,620.6,56 M620.6,54c-1.3,0-2.6,0.1-4,0.3c-1.5,0.2-2.8,0.7-4,1.3
						c-1.3,0.7-2.4,1.6-3.2,2.8c-0.9,1.3-1.3,2.9-1.3,4.7c0,2.1,0.5,3.9,1.6,5.2c0.9,1.2,2.1,2.3,3.5,3c1.3,0.7,2.7,1.3,4.2,1.7
						c1.3,0.4,2.6,0.7,3.7,1.1c1,0.3,1.8,0.6,2.4,1c0.1,0.1,0.2,0.1,0.2,0.1l0,0c0,0,0,0,0,0.1c-0.2,0.2-0.5,0.3-0.8,0.4
						c-0.4,0.1-0.9,0.2-1.4,0.3c-0.6,0.1-1.1,0.1-1.5,0.1c-0.7,0-1.3,0-1.9-0.1c-0.6-0.1-1.1-0.2-1.7-0.3c-0.5-0.1-1.1-0.3-1.6-0.6
						c-0.6-0.2-1.1-0.5-1.7-0.8c-0.7-0.4-1.4-0.6-2.1-0.6c-1.2,0-2.3,0.5-3.1,1.4s-1.3,1.9-1.3,3.1c0,1.1,0.4,2.1,1.2,2.9
						c0.6,0.6,1.4,1.2,2.2,1.6s1.7,0.8,2.6,1c0.9,0.3,1.8,0.5,2.7,0.7s1.7,0.3,2.5,0.4s1.5,0.1,2,0.1c1.4,0,2.8-0.1,4.2-0.4
						c1.5-0.3,2.9-0.8,4.1-1.5c1.3-0.8,2.4-1.8,3.2-3.1c0.9-1.3,1.3-3,1.3-4.9c0-1.5-0.3-2.8-0.8-3.9s-1.3-2-2.2-2.7
						c-0.8-0.7-1.8-1.3-2.9-1.7c-1-0.4-2-0.8-3-1.1l0,0l0,0c-0.3-0.1-0.7-0.2-1.2-0.3c-0.5-0.1-1-0.3-1.6-0.5
						c-0.5-0.2-1.1-0.4-1.7-0.6c-0.5-0.2-1-0.4-1.4-0.6c-0.2-0.1-0.4-0.3-0.6-0.4c0.1-0.1,0.3-0.1,0.5-0.2c0.4-0.1,0.9-0.2,1.3-0.2
						c0.6,0,1.1,0,1.5,0c1,0,2,0.1,3,0.3s2,0.5,3,0.8c0.6,0.2,1.1,0.3,1.6,0.3c1.2,0,2.3-0.5,3.2-1.3c0.9-0.9,1.3-1.9,1.3-3.2
						c0-1-0.3-1.9-0.9-2.6c-0.5-0.6-1.1-1.1-1.8-1.4c-0.7-0.3-1.4-0.6-2.3-0.8c-0.8-0.2-1.6-0.4-2.4-0.5c-0.8-0.2-1.7-0.3-2.5-0.3
						C622,54.1,621.3,54,620.6,54L620.6,54z"/>
				</g>
				<g>
					<path class="st5" d="M644.9,83.9c-1,0-1.9-0.4-2.6-1.1c-0.7-0.7-1-1.6-1-2.6V62.4h-6.2c-1,0-1.8-0.3-2.4-1s-1-1.5-1-2.4
						s0.3-1.8,1-2.4c0.7-0.7,1.5-1,2.4-1h19.6c0.9,0,1.8,0.3,2.4,1c0.7,0.7,1,1.5,1,2.4s-0.4,1.8-1,2.4c-0.7,0.7-1.5,1-2.4,1h-6.2
						v17.9c0,1-0.4,1.9-1.1,2.6C646.7,83.5,645.9,83.9,644.9,83.9z"/>
					<path d="M654.7,56.5c0.7,0,1.3,0.2,1.7,0.7c0.5,0.5,0.7,1.1,0.7,1.7c0,0.7-0.2,1.3-0.7,1.7c-0.5,0.5-1.1,0.7-1.7,0.7h-7.2v18.9
						c0,0.7-0.3,1.4-0.8,1.9s-1.1,0.8-1.9,0.8s-1.3-0.3-1.8-0.8s-0.7-1.1-0.7-1.9V61.4h-7.2c-0.7,0-1.3-0.2-1.7-0.7s-0.7-1-0.7-1.7
						s0.2-1.3,0.7-1.7s1-0.7,1.7-0.7L654.7,56.5 M654.7,54.5h-19.6c-1.2,0-2.3,0.5-3.2,1.3c-0.8,0.9-1.3,1.9-1.3,3.1
						c0,1.2,0.4,2.3,1.3,3.1c0.8,0.8,1.9,1.3,3.1,1.3h5.2v16.9c0,1.3,0.5,2.4,1.3,3.3c0.9,0.9,2,1.4,3.3,1.4s2.4-0.5,3.3-1.3
						c0.9-0.9,1.3-2,1.3-3.3V63.4h5.2c1.2,0,2.3-0.4,3.1-1.3c0.9-0.8,1.3-1.9,1.3-3.2c0-1.2-0.5-2.3-1.3-3.2
						C657,54.9,655.9,54.5,654.7,54.5L654.7,54.5z"/>
				</g>
				<g>
					<path class="st5" d="M680.2,83.9c-0.7,0-1.3-0.2-1.9-0.5c-0.5-0.3-1-0.8-1.2-1.4l-1.9-4.2h-10l-1.9,4.2
						c-0.3,0.6-0.7,1.1-1.3,1.5c-0.6,0.3-1.2,0.5-1.8,0.5c-1,0-1.8-0.3-2.4-1c-0.7-0.7-1-1.5-1-2.4c0-0.5,0.1-1,0.3-1.4l10-21.9
						c0.3-0.6,0.7-1.1,1.2-1.4c0.6-0.4,1.2-0.6,1.8-0.6s1.3,0.2,1.8,0.5c0.6,0.4,1,0.8,1.3,1.5l10,21.9c0.2,0.5,0.3,1,0.3,1.4
						c0,0.9-0.3,1.8-1,2.4C682,83.5,681.1,83.9,680.2,83.9z M672.3,71.3l-2.1-4.7l-2.1,4.7H672.3z"/>
					<path d="M670.1,56.1c0.5,0,0.9,0.1,1.3,0.4c0.4,0.2,0.7,0.6,0.9,1l10,21.9c0.1,0.3,0.2,0.7,0.2,1c0,0.7-0.2,1.3-0.7,1.7
						s-1,0.7-1.7,0.7c-0.5,0-0.9-0.1-1.3-0.4c-0.4-0.2-0.7-0.6-0.9-1l-2.2-4.8h-11.3l-2.2,4.8c-0.2,0.4-0.5,0.8-0.9,1
						s-0.8,0.4-1.3,0.4c-0.7,0-1.3-0.2-1.7-0.7c-0.5-0.5-0.7-1.1-0.7-1.7c0-0.3,0.1-0.7,0.2-1l10-21.9c0.2-0.4,0.5-0.8,0.9-1
						C669.2,56.3,669.6,56.1,670.1,56.1 M666.5,72.3h7.3l-3.7-8.1L666.5,72.3 M670.1,54.1c-0.9,0-1.7,0.2-2.4,0.7s-1.2,1.1-1.6,1.9
						l-10,21.8c-0.3,0.6-0.4,1.2-0.4,1.8c0,1.2,0.5,2.3,1.3,3.2c0.9,0.9,1.9,1.3,3.2,1.3c0.9,0,1.6-0.2,2.4-0.7
						c0.7-0.5,1.3-1.1,1.6-1.9l1.6-3.6h8.7l1.6,3.6c0.4,0.8,0.9,1.4,1.6,1.9c0.7,0.5,1.5,0.7,2.4,0.7c1.2,0,2.3-0.5,3.1-1.3
						s1.3-1.9,1.3-3.1c0-0.6-0.1-1.2-0.3-1.7v-0.1v-0.1l-10-21.9c-0.4-0.8-1-1.5-1.7-1.9C671.7,54.4,670.9,54.1,670.1,54.1
						L670.1,54.1z M669.6,70.3l0.6-1.3l0.6,1.3H669.6L669.6,70.3z"/>
				</g>
				<g>
					<path class="st5" d="M706.3,83.9c-0.7,0-1.3-0.2-1.8-0.5c-0.6-0.3-1-0.8-1.3-1.4c-0.1-0.2-0.3-0.5-0.5-1l-0.8-1.7
						c-0.4-0.8-0.7-1.5-1.1-2.3c-0.4-0.8-0.8-1.5-1.1-2.2c-0.3-0.6-0.6-1.2-0.8-1.6c0-0.1-0.1-0.1-0.1-0.2h-5.5v7.3
						c0,1-0.4,1.9-1.1,2.6c-0.7,0.7-1.6,1-2.5,1c-1,0-1.9-0.3-2.5-1c-0.7-0.7-1-1.5-1-2.5V59.1c0-1,0.3-1.9,1-2.5
						c0.7-0.7,1.5-1,2.5-1h9.7c1.3,0,2.7,0.1,3.9,0.4c1.3,0.3,2.4,0.8,3.4,1.5s1.8,1.7,2.4,2.8c0.6,1.1,0.9,2.5,0.9,4.1
						c0,1.7-0.4,3.3-1.2,4.6c-0.6,1.1-1.6,2-2.7,2.6c0,0.1,0.1,0.1,0.1,0.2c0.3,0.5,0.6,1.1,0.9,1.7c0.3,0.6,0.6,1.3,1,1.9
						c0.3,0.7,0.6,1.3,0.9,1.9c0.3,0.6,0.5,1.2,0.7,1.7c0.2,0.6,0.3,1,0.3,1.4c0,1-0.3,1.8-1,2.5C708.1,83.5,707.3,83.9,706.3,83.9z
						 M700.1,66.6c0.8,0,1.4-0.2,1.9-0.6c0.3-0.2,0.6-0.6,0.6-1.5c0-1-0.4-1.4-0.6-1.6c-0.5-0.4-1.1-0.6-1.9-0.6h-6.8v4.3
						C693.3,66.6,700.1,66.6,700.1,66.6z"/>
					<path d="M699.4,56.5c1.3,0,2.5,0.1,3.7,0.4c1.2,0.3,2.2,0.7,3,1.4c0.9,0.6,1.5,1.4,2.1,2.4s0.8,2.2,0.8,3.6
						c0,1.5-0.4,2.9-1.1,4.1c-0.7,1.2-1.8,2.1-3.2,2.7c0.1,0.3,0.3,0.6,0.6,1.1s0.5,1,0.9,1.7c0.3,0.6,0.6,1.3,1,1.9
						s0.6,1.3,0.9,1.9c0.3,0.6,0.5,1.1,0.7,1.6s0.3,0.8,0.3,1c0,0.7-0.2,1.3-0.7,1.8s-1.1,0.7-1.8,0.7c-0.5,0-0.9-0.1-1.3-0.4
						c-0.4-0.2-0.7-0.6-0.9-1c-0.1-0.1-0.2-0.5-0.5-1s-0.5-1.1-0.9-1.8c-0.3-0.7-0.7-1.4-1.1-2.2c-0.4-0.8-0.7-1.5-1.1-2.1
						c-0.3-0.7-0.6-1.2-0.8-1.6s-0.3-0.7-0.3-0.7h-7.2v8.3c0,0.7-0.3,1.3-0.8,1.8s-1.1,0.7-1.8,0.7s-1.3-0.2-1.8-0.7
						s-0.7-1.1-0.7-1.8V59.1c0-0.7,0.2-1.3,0.7-1.8s1.1-0.7,1.8-0.7L699.4,56.5 M692.3,67.6h7.8c1,0,1.8-0.3,2.5-0.8
						s1.1-1.3,1.1-2.3s-0.3-1.8-1-2.4c-0.7-0.5-1.5-0.8-2.5-0.8h-7.8L692.3,67.6 M699.4,54.5h-9.7c-1.3,0-2.4,0.5-3.3,1.3
						c-0.9,0.9-1.3,2-1.3,3.3v21.2c0,1.3,0.5,2.4,1.3,3.3c0.9,0.9,2,1.3,3.3,1.3c1.2,0,2.3-0.4,3.2-1.3s1.4-2,1.4-3.3V74h3.9
						c0.2,0.4,0.4,0.8,0.6,1.2c0.3,0.7,0.7,1.4,1.1,2.2c0.4,0.8,0.7,1.5,1.1,2.2v0.1l0.8,1.7c0.3,0.6,0.4,0.9,0.5,1
						c0.4,0.8,0.9,1.4,1.6,1.8c0.7,0.4,1.5,0.7,2.4,0.7c1.2,0,2.3-0.5,3.2-1.3c0.9-0.9,1.3-2,1.3-3.2c0-0.5-0.1-1-0.4-1.7
						c-0.2-0.5-0.4-1.1-0.7-1.7s-0.6-1.3-0.9-1.9c-0.3-0.7-0.7-1.3-1-2c-0.2-0.4-0.4-0.8-0.6-1.1c0.9-0.7,1.7-1.5,2.3-2.5
						c0.9-1.5,1.3-3.2,1.3-5.1c0-1.7-0.3-3.3-1-4.6s-1.5-2.3-2.7-3.1c-1.1-0.8-2.3-1.3-3.7-1.7C702.2,54.7,700.8,54.5,699.4,54.5
						L699.4,54.5z M694.3,63.3h5.8c0.7,0,1.1,0.2,1.3,0.4c0.1,0.1,0.3,0.2,0.3,0.8c0,0.5-0.2,0.7-0.2,0.7c-0.4,0.3-0.8,0.4-1.3,0.4
						h-5.8L694.3,63.3L694.3,63.3z"/>
				</g>
				<g>
					<path class="st5" d="M723.8,83.9c-1,0-1.9-0.4-2.6-1.1c-0.7-0.7-1-1.6-1-2.6V62.4H714c-1,0-1.8-0.3-2.4-1s-1-1.5-1-2.4
						s0.3-1.8,1-2.4c0.7-0.7,1.5-1,2.4-1h19.6c1,0,1.8,0.3,2.4,1c0.7,0.7,1,1.5,1,2.4s-0.4,1.8-1,2.4c-0.7,0.7-1.5,1-2.4,1h-6.2
						v17.9c0,1-0.4,1.9-1.1,2.6C725.7,83.5,724.8,83.9,723.8,83.9z"/>
					<path d="M733.6,56.5c0.7,0,1.3,0.2,1.7,0.7c0.5,0.5,0.7,1.1,0.7,1.7c0,0.7-0.2,1.3-0.7,1.7c-0.5,0.5-1.1,0.7-1.7,0.7h-7.2v18.9
						c0,0.7-0.3,1.4-0.8,1.9s-1.1,0.8-1.9,0.8s-1.3-0.3-1.8-0.8s-0.7-1.1-0.7-1.9V61.4H714c-0.7,0-1.3-0.2-1.7-0.7s-0.7-1-0.7-1.7
						s0.2-1.3,0.7-1.7s1-0.7,1.7-0.7L733.6,56.5 M733.6,54.5H714c-1.2,0-2.3,0.5-3.2,1.3c-0.8,0.9-1.3,1.9-1.3,3.1
						c0,1.2,0.4,2.3,1.3,3.1c0.8,0.8,1.9,1.3,3.1,1.3h5.2v16.9c0,1.3,0.5,2.4,1.3,3.3c0.9,0.9,2,1.4,3.3,1.4s2.4-0.5,3.3-1.3
						c0.9-0.9,1.3-2,1.3-3.3V63.4h5.2c1.2,0,2.3-0.4,3.1-1.3c0.9-0.8,1.3-1.9,1.3-3.2c0-1.2-0.5-2.3-1.3-3.2
						C735.9,54.9,734.8,54.5,733.6,54.5L733.6,54.5z"/>
				</g>
			</g>
		</g>
		<path class="st4" d="M778.4,231.1L778.4,231.1c-2.9,0-5.2-2.3-5.2-5.2V31.3c0-2.9,2.3-5.2,5.2-5.2l0,0c2.9,0,5.2,2.3,5.2,5.2
			v194.6C783.6,228.8,781.2,231.1,778.4,231.1z"/>
	</g>
</g>
<g id="Layer_5">
	<rect y="220" class="st6" width="800" height="30"/>
	<rect x="15" y="220" class="st3" width="99" height="6"/>
	<rect x="221" y="220" class="st3" width="99" height="6"/>
	<rect x="429" y="220" class="st3" width="99" height="6"/>
	<rect x="635" y="220" class="st3" width="99" height="6"/>
</g>
<g id="Layer_6">
</g>
<linearGradient id="SVGID_1_" gradientUnits="userSpaceOnUse" x1="618.4" y1="66" x2="664.2798" y2="66" gradientTransform="matrix(1 0 0 -1 0 252)">
	<stop  offset="0" style="stop-color:#FCEE21"/>
	<stop  offset="1" style="stop-color:#FCEE21;stop-opacity:0"/>
</linearGradient>
<polygon class="st7" points="664.2,210.9 618.4,192.8 618.4,180.5 664.2,161.1 "/>
<g id="Layer_2_1_">
	<g id="Layer_14">
		<g id="flagcar-id">
			
				<radialGradient id="SVGID_2_" cx="460.5631" cy="100.8687" r="8.2892" gradientTransform="matrix(1 0 0 -0.99 0 266.16)" gradientUnits="userSpaceOnUse">
				<stop  offset="0" style="stop-color:#DCDCDC"/>
				<stop  offset="0.69" style="stop-color:#A3A3A3"/>
				<stop  offset="1" style="stop-color:#878787"/>
			</radialGradient>
			<path class="st8" d="M464.7,162.9c-0.2,0.1-0.3,0.2-0.3,0.2s-6.5,0-11.1-0.6l6.6,7.1h8.5L464.7,162.9z"/>
			<path class="st9" d="M599.4,172.5c2,0.1,4,0.4,6,0.9C603.4,172.9,601.4,172.6,599.4,172.5z"/>
			<path class="st9" d="M482.1,184.7c3.4,0,6.7,0.8,9.7,2.5h94.1c6-3.3,13.3-3.3,19.4,0h7.5c-7.6-4.3-18.8-6.7-34.9-2.3l-128.1-7.1
				l0.1,9.4h22.6C475.4,185.6,478.7,184.7,482.1,184.7z"/>
			<path class="st9" d="M522.2,173.2c-7.3-0.7-4.4-4.4-4.4-4.4l4.4-6.2c0,0,1.5-2.5,5.9-2.9s18.3,0,18.3,0s5.4-0.7,16,18.3l7.8,1
				l0.8-0.7l-11.8-15c0,0-2.2-2.2,0-3.3l6.2-0.4C561,152.9,553,154,553,154s-25.6-1.1-29.3-0.7c-2.3,0.2-4.5,0.9-6.6,1.8l-28.9,14.6
				c2.8,0,27,2.8,48.4,5.4C530,174.2,524.3,173.4,522.2,173.2z"/>
			<path class="st9" d="M464.7,162.9c1.3-0.9,6.7-4.8,1.2-9.7h-19.4c0,0,0,7.6,4,8.7c0.9,0.2,1.9,0.4,2.9,0.5
				c4.6,0.6,11.1,0.6,11.1,0.6S464.5,163,464.7,162.9z"/>
			<path class="st3" d="M612.8,187.2h-7.5c8.6,4.6,12.6,14.7,9.5,24l12.2-0.1v-8.4C626.9,202.7,623.3,193.1,612.8,187.2z"/>
			<path class="st3" d="M457.5,195.8l-0.4,9.1v2.2l5,0.7c-1.2-8.3,2.9-16.5,10.3-20.5h-22.6v1.4L457.5,195.8z"/>
			<path class="st3" d="M626.9,200.9c0-2.6-0.4-5.2-1.1-7.7c0.7,3.1,1.1,6.3,1.1,9.5V200.9z"/>
			<path class="st3" d="M502.3,204.8c0,2.5-0.5,5-1.4,7.3l75.6-0.6c-3.3-9.3,0.7-19.6,9.4-24.3h-94.1
				C498.3,190.7,502.3,197.4,502.3,204.8z"/>
			<path class="st10" d="M457.1,207.1v-2.2l0.4-9.1l-7.6-7.2l-0.1-0.1l0.2,16.4c-1.9,0-3.5,1.5-3.5,3.5c0,1.9,1.5,3.5,3.5,3.5
				c0,0,0,0,0,0l14.1,2c-1-1.9-1.6-3.9-1.9-6L457.1,207.1z"/>
			<path class="st10" d="M626.9,211.1l-12.2,0.1c-0.9,2.7-2.3,5.1-4.2,7.2h16.4c2,0.1,3.7-1.5,3.7-3.5c0.1-2-1.5-3.7-3.5-3.7
				C627,211.1,626.9,211.1,626.9,211.1L626.9,211.1z"/>
			<path class="st10" d="M500.9,212.1c-0.9,2.3-2.2,4.4-3.9,6.2h83.6c-1.8-2-3.2-4.3-4.1-6.9L500.9,212.1z"/>
			<path class="st11" d="M623.3,187.2c1.1,1.9,1.9,3.9,2.5,6c-3.3-13.4-13.4-18.1-20.4-19.8C613,175.3,619.5,180.3,623.3,187.2z"/>
			<path class="st11" d="M578.6,172.9l-0.2-0.2l0,0L578.6,172.9z"/>
			<path class="st11" d="M598.3,172.5c0.4,0,0.7,0,1.1,0C598.7,172.5,598.3,172.5,598.3,172.5z"/>
			<path class="st9" d="M612.8,187.2h10.6c-3.8-6.9-10.3-11.8-17.9-13.8c-2-0.5-4-0.8-6-0.9c-0.4,0-0.7,0-1.1,0h-19.8l-0.2,0.2
				l0.2,0.2l-0.2-0.2l-7.1,6l-0.3-0.3l-0.8,0.7l-7.8-1l0.1,0.2c0,0-14.2-1.9-25.9-3.3c-21.4-2.6-45.6-5.4-48.4-5.4H458
				c-4.5,0-8.2,3.6-8.2,8.2c0,0,0,0,0,0l128.1,7.1C593.9,180.5,605.2,182.9,612.8,187.2z"/>
			<path class="st11" d="M612.8,187.2h10.6c-3.8-6.9-10.3-11.8-17.9-13.8c-2-0.5-4-0.8-6-0.9c-0.4,0-0.7,0-1.1,0h-19.8l-0.2,0.2
				l0.2,0.2l-0.2-0.2l-7.1,6l-0.3-0.3l-0.8,0.7l-7.8-1l0.1,0.2c0,0-14.2-1.9-25.9-3.3c-21.4-2.6-45.6-5.4-48.4-5.4H458
				c-4.5,0-8.2,3.6-8.2,8.2c0,0,0,0,0,0l128.1,7.1C593.9,180.5,605.2,182.9,612.8,187.2z"/>
			<path class="st3" d="M623.3,187.2h-10.6c10.5,6,14.1,15.5,14.1,15.5c0-3.2-0.3-6.4-1.1-9.5C625.2,191.1,624.4,189.1,623.3,187.2z
				"/>
			<path class="st11" d="M623.3,187.2h-10.6c10.5,6,14.1,15.5,14.1,15.5c0-3.2-0.3-6.4-1.1-9.5C625.2,191.1,624.4,189.1,623.3,187.2
				z"/>
			<path class="st12" d="M502.3,204.8c0-11.2-9.1-20.2-20.2-20.2c-11.2,0-20.2,9.1-20.2,20.2c0,1,0.1,1.9,0.2,2.9
				c0.3,2.1,1,4.1,1.9,6c5,10,17.2,14,27.2,9c4.5-2.2,7.9-6,9.8-10.7C501.8,209.8,502.3,207.3,502.3,204.8z M482.1,224.3
				c-10.9,0-19.7-8.8-19.7-19.5c0-10.8,8.8-19.5,19.7-19.5s19.7,8.8,19.7,19.5C501.8,215.6,493,224.3,482.1,224.3L482.1,224.3z"/>
			<path class="st13" d="M501.8,204.8c0-10.8-8.8-19.5-19.7-19.5c-10.9,0-19.7,8.8-19.7,19.5c0,10.8,8.8,19.5,19.7,19.5
				S501.8,215.6,501.8,204.8z M467.3,204.8c-0.1-8.2,6.5-14.8,14.7-14.9c8.2-0.1,14.8,6.5,14.9,14.7c0.1,8.2-6.5,14.8-14.7,14.9
				c0,0-0.1,0-0.1,0C474,219.5,467.3,212.9,467.3,204.8L467.3,204.8z"/>
			<path d="M496.9,204.8c0.1-8.2-6.5-14.8-14.7-14.9c-8.2-0.1-14.8,6.5-14.9,14.7c-0.1,8.2,6.5,14.8,14.7,14.9c0,0,0.1,0,0.1,0
				C490.2,219.5,496.9,212.9,496.9,204.8z M468,204.8c0-7.8,6.2-14.1,14-14.2c7.8,0,14.1,6.2,14.2,14s-6.2,14.1-14,14.2
				c0,0-0.1,0-0.1,0C474.4,218.8,468.1,212.5,468,204.8C468,204.8,468,204.8,468,204.8z"/>
			<path class="st3" d="M496.2,204.8c0-7.8-6.2-14.1-14-14.2c-7.8,0-14.1,6.2-14.2,14c0,7.8,6.2,14.1,14,14.2c0,0,0.1,0,0.1,0
				C489.8,218.8,496.1,212.5,496.2,204.8C496.2,204.8,496.2,204.8,496.2,204.8z M468.8,204.8c0-7.4,5.9-13.4,13.3-13.4
				c7.4,0,13.4,5.9,13.4,13.3c0,7.4-5.9,13.4-13.3,13.4c0,0-0.1,0-0.1,0C474.8,218.1,468.8,212.1,468.8,204.8
				C468.8,204.8,468.8,204.8,468.8,204.8z"/>
			<path class="st14" d="M495.4,204.8c0-7.4-5.9-13.4-13.3-13.4c-7.4,0-13.4,5.9-13.4,13.3s5.9,13.4,13.3,13.4c0,0,0.1,0,0.1,0
				C489.4,218.1,495.4,212.1,495.4,204.8C495.4,204.8,495.4,204.8,495.4,204.8z M473.8,204.8c0-4.6,3.7-8.3,8.2-8.3
				c4.6,0,8.3,3.7,8.3,8.2c0,4.6-3.7,8.3-8.2,8.3c0,0,0,0-0.1,0C477.5,213.1,473.8,209.4,473.8,204.8
				C473.8,204.8,473.8,204.8,473.8,204.8z"/>
			<path class="st15" d="M482.1,213c4.6,0,8.2-3.7,8.2-8.3c0-4.6-3.7-8.2-8.3-8.2c-4.5,0-8.2,3.7-8.2,8.2
				C473.8,209.4,477.5,213.1,482.1,213C482.1,213,482.1,213,482.1,213z M474.5,204.8c0-4.2,3.3-7.6,7.5-7.6c4.2,0,7.6,3.3,7.6,7.5
				s-3.3,7.6-7.5,7.6c0,0,0,0,0,0C477.9,212.3,474.5,209,474.5,204.8L474.5,204.8z"/>
			<ellipse class="st16" cx="482.1" cy="204.8" rx="7.6" ry="7.5"/>
			<path class="st12" d="M615.7,204.8c0-11-8.9-20-20-20c-11,0-20,8.9-20,20c0,11,8.9,20,20,20c8.6,0,16.2-5.5,19-13.6
				C615.4,209.1,615.7,207,615.7,204.8z M595.5,224.3c-10.9,0-19.7-8.8-19.7-19.5c0-10.8,8.8-19.5,19.7-19.5s19.7,8.8,19.7,19.5
				C615.2,215.6,606.4,224.3,595.5,224.3z"/>
			<path class="st13" d="M615.2,204.8c0-10.8-8.8-19.5-19.7-19.5c-10.9,0-19.7,8.8-19.7,19.5c0,10.8,8.8,19.5,19.7,19.5
				C606.4,224.3,615.2,215.6,615.2,204.8z M595.5,219.5c-8.1-0.1-14.7-6.7-14.6-14.8s6.7-14.7,14.8-14.6c8.1,0.1,14.6,6.6,14.6,14.7
				C610.3,212.9,603.7,219.5,595.5,219.5C595.5,219.5,595.5,219.5,595.5,219.5z"/>
			<path d="M610.3,204.8c0.1-8.2-6.5-14.8-14.7-14.9c-8.2-0.1-14.8,6.5-14.9,14.7c-0.1,8.2,6.5,14.8,14.7,14.9c0,0,0.1,0,0.1,0
				C603.7,219.5,610.3,212.9,610.3,204.8C610.3,204.8,610.3,204.8,610.3,204.8z M595.5,218.8c-7.7,0-13.9-6.3-13.9-14.1
				s6.3-13.9,14.1-13.9c7.7,0,13.9,6.3,13.9,14C609.6,212.5,603.3,218.8,595.5,218.8C595.5,218.8,595.5,218.8,595.5,218.8z"/>
			<path class="st3" d="M609.6,204.8c0-7.8-6.2-14.1-14-14.2c-7.8,0-14.1,6.2-14.2,14c0,7.8,6.2,14.1,14,14.2c0,0,0.1,0,0.1,0
				C603.3,218.8,609.6,212.6,609.6,204.8C609.6,204.8,609.6,204.8,609.6,204.8z M595.5,218.1c-7.3,0-13.2-6-13.2-13.3
				c0-7.3,6-13.2,13.3-13.2c7.3,0,13.2,6,13.2,13.3C608.8,212.1,602.9,218.1,595.5,218.1z"/>
			<path class="st14" d="M608.9,204.8c0-7.4-5.9-13.4-13.3-13.4c-7.4,0-13.4,5.9-13.4,13.3c0,7.4,5.9,13.4,13.3,13.4c0,0,0,0,0.1,0
				C602.9,218.1,608.9,212.2,608.9,204.8C608.9,204.8,608.9,204.8,608.9,204.8z M587.2,204.8c0-4.6,3.7-8.3,8.2-8.3
				c4.6,0,8.3,3.7,8.3,8.2s-3.7,8.3-8.2,8.3c0,0,0,0-0.1,0C591,213,587.2,209.4,587.2,204.8z"/>
			<path class="st15" d="M603.8,204.8c0-4.6-3.7-8.3-8.2-8.3c-4.6,0-8.3,3.7-8.3,8.2s3.7,8.3,8.2,8.3c0,0,0,0,0,0
				C600.1,213.1,603.8,209.4,603.8,204.8C603.8,204.8,603.8,204.8,603.8,204.8z M588,204.8c0-4.2,3.3-7.6,7.5-7.6
				c4.2,0,7.6,3.3,7.6,7.5s-3.3,7.6-7.5,7.6c0,0,0,0-0.1,0C591.4,212.3,588,209,588,204.8L588,204.8z"/>
			<path class="st16" d="M603.1,204.8c0-4.2-3.3-7.6-7.5-7.6c-4.2,0-7.6,3.3-7.6,7.5c0,4.2,3.3,7.6,7.5,7.6c0,0,0,0,0,0
				C599.7,212.3,603.1,209,603.1,204.8C603.1,204.8,603.1,204.8,603.1,204.8z"/>
			<path class="st9" d="M546.4,159.8c0,0-13.9-0.4-18.3,0s-5.8,2.9-5.8,2.9l-4.4,6.2c0,0-2.9,3.6,4.4,4.4c2.1,0.2,7.8,0.9,14.3,1.7
				c10.1,1.2,19.5,2.4,25.8,3.1C551.8,159.1,546.4,159.8,546.4,159.8z"/>
			
				<linearGradient id="SVGID_3_" gradientUnits="userSpaceOnUse" x1="517.2491" y1="83.1334" x2="562.4689" y2="83.1334" gradientTransform="matrix(1 0 0 -1 0 252)">
				<stop  offset="0" style="stop-color:#C9E7F9"/>
				<stop  offset="1" style="stop-color:#AAFFF9"/>
			</linearGradient>
			<path class="st17" d="M546.4,159.8c0,0-13.9-0.4-18.3,0s-5.8,2.9-5.8,2.9l-4.4,6.2c0,0-2.9,3.6,4.4,4.4c2.1,0.2,7.8,0.9,14.3,1.7
				c10.1,1.2,19.5,2.4,25.8,3.1C551.8,159.1,546.4,159.8,546.4,159.8z"/>
			<path class="st9" d="M562.5,178.3l-0.1-0.2c-6.3-0.8-15.7-1.9-25.8-3.1C548.3,176.5,562.5,178.3,562.5,178.3z"/>
			<path class="st11" d="M562.5,178.3l-0.1-0.2c-6.3-0.8-15.7-1.9-25.8-3.1C548.3,176.5,562.5,178.3,562.5,178.3z"/>
			
				<linearGradient id="SVGID_4_" gradientUnits="userSpaceOnUse" x1="517.2498" y1="75.3487" x2="562.4696" y2="75.3487" gradientTransform="matrix(1 0 0 -1 0 252)">
				<stop  offset="0" style="stop-color:#C9E7F9"/>
				<stop  offset="1" style="stop-color:#AAFFF9"/>
			</linearGradient>
			<path class="st18" d="M562.5,178.3l-0.1-0.2c-6.3-0.8-15.7-1.9-25.8-3.1C548.3,176.5,562.5,178.3,562.5,178.3z"/>
			
				<linearGradient id="SVGID_5_" gradientUnits="userSpaceOnUse" x1="558.2006" y1="85.827" x2="578.5693" y2="85.827" gradientTransform="matrix(1 0 0 -1 0 252)">
				<stop  offset="0" style="stop-color:#C9E7F9"/>
				<stop  offset="1" style="stop-color:#AAFFF9"/>
			</linearGradient>
			<path class="st19" d="M578.1,172.6L578.1,172.6l0.4-0.1l-13.2-12.7C569.2,165.8,576.3,171.2,578.1,172.6z"/>
			<path class="st9" d="M559.2,163.4l11.8,15l7.1-5.8c-1.8-1.3-8.9-6.8-12.7-12.8l-6.2,0.4C557,161.2,559.2,163.4,559.2,163.4z"/>
			
				<linearGradient id="SVGID_6_" gradientUnits="userSpaceOnUse" x1="558.2009" y1="82.9227" x2="578.5696" y2="82.9227" gradientTransform="matrix(1 0 0 -1 0 252)">
				<stop  offset="0" style="stop-color:#C9E7F9"/>
				<stop  offset="1" style="stop-color:#AAFFF9"/>
			</linearGradient>
			<path class="st20" d="M559.2,163.4l11.8,15l7.1-5.8c-1.8-1.3-8.9-6.8-12.7-12.8l-6.2,0.4C557,161.2,559.2,163.4,559.2,163.4z"/>
			<path class="st11" d="M578.1,172.6l0.2,0.1l0,0L578.1,172.6L578.1,172.6z"/>
			
				<linearGradient id="SVGID_7_" gradientUnits="userSpaceOnUse" x1="558.2006" y1="79.3907" x2="578.5693" y2="79.3907" gradientTransform="matrix(1 0 0 -1 0 252)">
				<stop  offset="0" style="stop-color:#C9E7F9"/>
				<stop  offset="1" style="stop-color:#AAFFF9"/>
			</linearGradient>
			<path class="st21" d="M578.1,172.6l0.2,0.1l0,0L578.1,172.6L578.1,172.6z"/>
			<path class="st9" d="M571,178.4l0.3,0.3l7.1-6l-0.2-0.1L571,178.4z"/>
			<path class="st11" d="M571,178.4l0.3,0.3l7.1-6l-0.2-0.1L571,178.4z"/>
			
				<linearGradient id="SVGID_8_" gradientUnits="userSpaceOnUse" x1="558.2006" y1="76.3729" x2="578.5693" y2="76.3729" gradientTransform="matrix(1 0 0 -1 0 252)">
				<stop  offset="0" style="stop-color:#C9E7F9"/>
				<stop  offset="1" style="stop-color:#AAFFF9"/>
			</linearGradient>
			<path class="st22" d="M571,178.4l0.3,0.3l7.1-6l-0.2-0.1L571,178.4z"/>
			<polygon class="st9" points="578.4,172.7 578.6,172.5 578.2,172.5 			"/>
			<polygon class="st11" points="578.4,172.7 578.6,172.5 578.2,172.5 			"/>
			
				<linearGradient id="SVGID_9_" gradientUnits="userSpaceOnUse" x1="558.2006" y1="79.4058" x2="578.5693" y2="79.4058" gradientTransform="matrix(1 0 0 -1 0 252)">
				<stop  offset="0" style="stop-color:#C9E7F9"/>
				<stop  offset="1" style="stop-color:#AAFFF9"/>
			</linearGradient>
			<polygon class="st23" points="578.4,172.7 578.6,172.5 578.2,172.5 			"/>
		</g>
	</g>
</g>
<g id="Layer_8">
	
		<linearGradient id="SVGID_10_" gradientUnits="userSpaceOnUse" x1="400" y1="516" x2="400" y2="766" gradientTransform="matrix(1 0 0 1 0 -516)">
		<stop  offset="0" style="stop-color:#666666"/>
		<stop  offset="1" style="stop-color:#333333"/>
	</linearGradient>
	<rect class="st24" width="800" height="250"/>
</g>
</svg>
