<?xml version="1.0" encoding="utf-8"?>
<!-- Generator: Adobe Illustrator 25.0.1, SVG Export Plug-In . SVG Version: 6.00 Build 0)  -->
<svg version="1.1" id="Layer_1" xmlns="http://www.w3.org/2000/svg" xmlns:xlink="http://www.w3.org/1999/xlink" x="0px" y="0px"
	 viewBox="0 0 800 250" style="enable-background:new 0 0 800 250;" xml:space="preserve">
<style type="text/css">
	.st0{fill:#CDF5F9;}
	.st1{opacity:0.2;}
	.st2{opacity:0.25;}
	.st3{fill:#FFFFFF;}
	.st4{opacity:0.75;}
	.st5{fill:#444444;}
	.st6{clip-path:url(#SVGID_2_);}
	.st7{fill:#FFFFFF;stroke:#000000;stroke-miterlimit:10;}
	.st8{fill:#3B3B3B;}
	.st9{fill:#FF0000;}
	.st10{fill:#ACAFBC;}
	.st11{fill:#EFB14D;}
	.st12{fill:#AF7000;}
	.st13{display:none;fill:#FF6661;}
	.st14{fill:#F4380C;}
	.st15{fill:#F7A90B;}
	.st16{fill:#A86B00;}
	.st17{opacity:0.64;fill:#FFFFFF;enable-background:new    ;}
	.st18{opacity:0.65;}
	.st19{display:none;fill:#0D6805;}
	.st20{fill:#A8240B;}
	.st21{opacity:0.12;enable-background:new    ;}
	.st22{fill:#32323F;}
	.st23{fill:#474757;}
	.st24{fill:#DDDDDD;}
	.st25{fill:#BAC0D8;}
	.st26{fill:url(#SVGID_3_);}
	.st27{fill:url(#SVGID_4_);}
</style>
<g id="Layer_1_2_">
	<g id="Layer_1_1_">
		<rect class="st0" width="800" height="250"/>
	</g>
	<g class="st1">
		<g>
			<path d="M333,87.8c-0.2-2.2-0.2-2.2,1.8-2.9c6.2-2.3,12.5-4.4,18.6-7c10.5-4.5,19.1-11.4,25.3-21.1c2.3-3.6,4.3-7.4,5.5-11.5
				c1.1-3.9,1.6-8,1-12.1c-1-7.1-5.3-11.3-12.5-12.2c-3.8-0.5-7.5-0.5-11,1.3c-2,1-3.5,2.5-4.6,4.5c-0.2,0.4,0,1.1,0.2,1.5
				c0.5,0.8,1.3,1.2,2.4,1.3c1.6,0.1,3.3,0.2,4.8,0.7c3.3,1.1,5.6,4.4,5.6,7.6c-0.1,3.4-2.3,6.3-5.8,7.6c-5.7,2.1-14.7-1.9-15.1-9.7
				c-0.2-4.5,1.6-8.3,4.8-11.4c3.1-3,6.8-4.6,11-5.3c6.9-1.2,13.5-0.5,19.7,2.9c9.5,5.2,14.6,16.2,12.4,26.7
				c-1.8,8.8-6.9,15.5-14,20.8c-8.7,6.5-18.5,10.7-28.9,13.4c-6.9,1.8-13.8,3.3-20.8,4.9C333.4,87.7,333.3,87.7,333,87.8z"/>
			<path d="M404.9,56.2c2.7,0.7,4.6,3.9,3.8,6.5c-0.8,2.9-3.7,4.6-6.6,3.8c-3-0.8-4.6-3.6-3.7-6.6C399.3,56.9,402,55.4,404.9,56.2z"
				/>
			<path d="M410.4,35.6c2.8,0.7,4.6,3.8,3.8,6.6c-0.8,2.8-3.7,4.4-6.6,3.7s-4.5-3.6-3.7-6.6C404.7,36.4,407.5,34.8,410.4,35.6z"/>
		</g>
	</g>
	<g class="st1">
		<g>
			<path d="M666.2,206.4c-0.3-3.5-0.2-3.5,2.9-4.6c9.9-3.7,19.9-7,29.7-11.2c16.7-7.1,30.5-18.1,40.4-33.6
				c3.7-5.7,6.9-11.8,8.7-18.3c1.8-6.3,2.6-12.7,1.7-19.2c-1.6-11.4-8.4-18-19.9-19.5c-6-0.8-11.9-0.7-17.5,2.1
				c-3.1,1.6-5.6,4-7.3,7.1c-0.3,0.6-0.1,1.8,0.3,2.4c0.8,1.3,2.2,2,3.8,2.1c2.6,0.2,5.3,0.3,7.7,1.1c5.3,1.8,8.9,7.1,8.9,12.1
				c-0.1,5.4-3.7,10.1-9.2,12.1c-9.1,3.3-23.5-3.1-24.1-15.5c-0.4-7.1,2.6-13.3,7.7-18.2c4.9-4.7,10.9-7.4,17.5-8.5
				c11-1.9,21.6-0.8,31.5,4.6c15.1,8.4,23.3,25.9,19.8,42.6c-2.9,14-11,24.7-22.3,33.2c-13.9,10.4-29.5,17-46.1,21.3
				c-11,2.8-22.1,5.2-33.1,7.8C666.8,206.3,666.5,206.3,666.2,206.4z"/>
			<path d="M780.9,156c4.3,1.2,7.3,6.2,6.1,10.4c-1.3,4.7-5.9,7.3-10.5,6c-4.9-1.3-7.3-5.7-6-10.6
				C771.8,157.1,776.1,154.7,780.9,156z"/>
			<path d="M789.5,123.2c4.5,1.2,7.3,6.1,6.1,10.5s-5.9,7-10.5,5.8s-7.1-5.7-5.9-10.5C780.4,124.5,784.9,121.9,789.5,123.2z"/>
		</g>
	</g>
	<g class="st2">
		<g>
			<path d="M213,23.8c0.5,5,0.4,9.1-0.3,13.1c-0.6,3.7-1.8,7.3-3.4,10.7c-2,4.5-5,8.3-8.5,11.7c-0.8,0.7-1.1,1.5-0.9,2.6
				c0.5,2.4,0.8,4.9,1.3,7.3c0.2,1.1,0.6,1.4,1.7,1.5c4.3,0.2,8.4,1.2,12.2,3c6,2.8,10.2,7.4,12.2,13.8c1.4,4.5,1.4,9,0.3,13.6
				c-1.3,5.6-4.1,10.3-8.5,14.1c-1.9,1.6-4.2,2.7-6.5,3.8c-0.6,0.3-1.2,0.5-1.7,0.8c-0.8,0.4-0.9,0.5-0.8,1.4c0.4,2.4,0.9,4.7,1.3,7
				c0.3,1.4,0.5,2.7,0.7,4.1c0.3,2.6,0.7,5.1,0.9,7.7c0.3,4.4-0.7,8.4-3.4,12c-1.9,2.6-4.5,4.3-7.5,5.4c-3.3,1.2-6.6,1.4-10.1,1
				c-2.9-0.4-5.7-1.2-8.2-2.7c-1.7-1.1-3.3-2.3-4.6-3.9c-2.7-3.5-4.1-7.4-3.2-11.8c0.7-3.7,2.3-6.9,5.5-9.1c3.8-2.7,7.8-3,11.9-0.9
				c4.9,2.6,6.9,6.7,6.7,12.1c-0.1,2.5-1.1,4.8-2.4,6.9c-0.3,0.4-0.5,0.9-0.6,1.3c-0.2,0.6,0.1,0.9,0.6,1c1.2,0.3,2.4-0.1,3.5-0.5
				c3.7-1.5,7-6.2,6.3-10.6c-0.4-2.8-0.9-5.7-1.4-8.5c-0.4-2.7-0.9-5.5-1.3-8.2c0-0.2-0.1-0.5-0.1-0.7c-0.2-0.8-0.6-1.2-1.5-1.2
				c-0.7,0-1.3,0.1-2,0.1c-3.2,0-6.4-0.5-9.5-1.1c-5-0.9-9.7-2.7-14.1-5.2c-2.6-1.5-4.9-3.4-6.7-5.8c-3.1-4.3-5.3-9-5.9-14.3
				c-0.7-5.4-0.1-10.6,1.9-15.7c1.5-4,3.4-7.7,5.8-11.2c2.4-3.5,5.2-6.8,8.2-9.8c2.6-2.5,5.2-4.9,7.8-7.4c0.6-0.6,1.3-1.1,1.9-1.6
				c0.4-0.3,0.6-0.8,0.5-1.3c-0.2-1.5-0.5-3.1-0.6-4.6c-0.5-4.2-1.1-8.4-1.4-12.6c-0.4-5.1,0.1-10.1,1.8-15c1.4-3.9,3.7-7,7.2-9.2
				c1.9-1.1,3.9-1.6,5.9-0.5c1,0.6,1.9,1.4,2.6,2.3c2.3,2.8,3.9,6.1,5.1,9.5C212.3,20.1,212.8,22.4,213,23.8z M195.3,68.4
				c-0.1,0-0.1,0-0.2,0c-0.1-0.8-0.2-1.6-0.3-2.4c-0.2-1-0.6-1.3-1.6-1c-0.2,0.1-0.5,0.1-0.7,0.3c-1.5,1-3,2-4.4,3.2
				c-2.9,2.5-5.5,5.2-7.7,8.4c-3.4,4.8-6,10-6.4,16c-0.1,1.3-0.2,2.5-0.1,3.8c0.1,3.9,1.9,7.2,4.4,10.1c3.4,3.9,7.8,6,12.8,7.2
				c3.3,0.8,6.6,1,10,0.8c1.8-0.1,2.2-0.5,1.9-2.3c-0.3-2-0.8-3.9-1.1-5.9c-0.7-4-1.3-8-2-12c-0.6-3.3-1.2-6.6-1.7-9.9
				c-0.1-0.5-0.3-0.8-0.7-0.9c-0.3-0.1-0.6-0.1-0.9-0.1c-1.2,0.1-2.3,0.7-3.5,1.1c-4.3,1.9-6.7,7-6.4,11.3c0.2,2.2,1,4.2,2.2,6.1
				c1.3,2.2,3.1,3.9,5.3,5.1c1,0.5,2,0.9,3,1.4c0.7,0.3,1.2,1.4,1,2.1c-0.1,0.2-0.3,0.4-0.5,0.5c-1.1,0.4-2.2,0.4-3.3,0.3
				c-2.4-0.4-4.6-1.5-6.5-3c-2.9-2.2-4.6-5.2-5.7-8.6c-1.3-4.1-1.3-8.2-0.1-12.4c1-3.6,2.7-6.8,5.3-9.6c2.2-2.3,4.5-4.4,7.4-5.7
				c0.8-0.4,1-0.7,0.9-1.6C195.5,69.9,195.4,69.1,195.3,68.4z M220.2,95.9c-0.1-0.5-0.3-1.5-0.6-2.4c-1-3.1-2.7-5.8-5.4-7.7
				c-2.5-1.8-5.3-2.7-8.3-3.3c-0.5-0.1-1.1-0.1-1.6,0c-0.7,0.1-0.9,0.5-0.8,1.2c0.4,2.8,0.9,5.6,1.3,8.4c0.8,4.8,1.7,9.5,2.5,14.3
				c0.3,1.6,0.6,3.3,1,4.9c0.2,1,0.9,1.3,1.8,1c0.2-0.1,0.5-0.2,0.7-0.3c1.2-0.8,2.4-1.6,3.6-2.5C218.6,106,220.6,101.7,220.2,95.9z
				 M194.4,37.3c-0.1,0-0.1,0-0.2,0c0.4,1.8,0.7,3.6,1.2,5.3c0.3,1.3,1.4,1.7,2.6,1.1c0.2-0.1,0.5-0.2,0.6-0.4
				c1.2-1.1,2.5-2.1,3.6-3.4c3-3.4,4.6-7.6,5.3-12c0.5-2.8-0.1-5.4-1.9-7.6c-1-1.3-2.4-1.8-4-1.4c-1.2,0.3-2.1,1-2.9,1.9
				c-1.7,2-2.7,4.4-3.4,6.9C194.5,30.9,194.1,34.1,194.4,37.3z"/>
		</g>
	</g>
	<g class="st2">
		<g>
			<path d="M630.4,33.9c-1.9,6.4-4.1,11.5-7,16.1c-2.7,4.3-5.9,8.1-9.6,11.6c-4.8,4.6-10.4,7.8-16.5,10.2c-1.3,0.5-2.1,1.3-2.4,2.7
				c-0.6,3.3-1.4,6.5-2.1,9.8c-0.3,1.5,0.1,2.1,1.4,2.7c5.2,2.4,9.8,5.7,13.6,9.9c6.1,6.6,8.9,14.4,8.2,23.3
				c-0.5,6.3-2.9,11.9-6.5,17c-4.4,6.3-10.3,10.8-17.6,13.2c-3.2,1-6.6,1.3-10,1.5c-0.9,0.1-1.7,0.1-2.6,0.1c-1.2,0-1.4,0.2-1.6,1.3
				c-0.6,3.1-1.2,6.3-1.9,9.4c-0.4,1.8-0.7,3.6-1.2,5.4c-0.9,3.3-1.7,6.7-2.8,10c-1.8,5.6-5.1,10.1-10.2,13.2
				c-3.7,2.2-7.8,3-12.1,2.9c-4.7-0.1-9-1.6-13-3.9c-3.5-1.9-6.5-4.3-8.9-7.6c-1.6-2.2-3-4.6-3.7-7.2c-1.6-5.7-1.4-11.2,1.9-16.3
				c2.7-4.2,6.4-7.4,11.4-8.6c6-1.4,11.2,0.1,15.2,4.9c4.8,5.6,5.1,11.8,2.2,18.4c-1.4,3.1-3.7,5.4-6.5,7.3
				c-0.5,0.4-1.1,0.8-1.5,1.3c-0.5,0.6-0.4,1.1,0.3,1.6c1.4,1,3,1.1,4.6,1.1c5.4,0.1,11.8-4.2,13.2-10c0.9-3.7,1.7-7.5,2.5-11.3
				c0.8-3.6,1.6-7.2,2.5-10.8c0.1-0.3,0.1-0.6,0.2-1c0.2-1.1-0.1-1.8-1.2-2.2c-0.8-0.3-1.7-0.6-2.5-0.9c-4-1.7-7.7-3.8-11.3-6.1
				c-5.8-3.6-10.7-8.3-14.9-13.6c-2.5-3.2-4.3-6.7-5.3-10.6c-1.8-6.9-2-13.8-0.2-20.8c1.9-7.1,5.3-13.2,10.3-18.6
				c3.9-4.2,8.2-7.9,12.9-11c4.8-3.2,9.8-5.8,15.2-8c4.5-1.8,9-3.5,13.5-5.2c1.1-0.4,2.2-0.7,3.2-1.1c0.7-0.2,1.1-0.7,1.3-1.4
				c0.5-2,1-4.1,1.5-6.1c1.5-5.5,2.8-10.9,4.5-16.3c2.1-6.5,5.2-12.6,9.8-17.7c3.7-4.1,8.1-6.9,13.6-7.8c2.9-0.5,5.6,0,7.6,2.4
				c0.9,1.2,1.6,2.7,2.1,4.2c1.4,4.7,1.8,9.5,1.6,14.4C631.5,29,630.9,32,630.4,33.9z M586,80.3c-0.1,0-0.2,0-0.3-0.1
				c0.3-1,0.6-2.1,0.9-3.2c0.3-1.3-0.1-1.9-1.5-2.1c-0.3,0-0.7-0.1-1,0c-2.4,0.6-4.7,1-7,1.7c-4.9,1.6-9.5,3.7-13.8,6.5
				c-6.6,4.3-12.5,9.4-16,16.7c-0.8,1.5-1.5,3.1-2.1,4.7c-1.8,5-1.3,9.9,0.3,14.8c2.2,6.6,6.7,11.4,12.2,15.4c3.7,2.6,7.7,4.6,12,6
				c2.3,0.7,3,0.5,3.5-1.9c0.6-2.6,1-5.3,1.6-7.9c1.2-5.3,2.4-10.6,3.6-15.9c1-4.4,1.9-8.8,2.8-13.2c0.1-0.6,0-1.1-0.5-1.5
				c-0.3-0.3-0.7-0.4-1.1-0.6c-1.6-0.5-3.2-0.4-4.9-0.3c-6.3,0.1-11.9,5.3-13.6,10.8c-0.9,2.8-0.9,5.7-0.4,8.7c0.6,3.3,1.9,6.4,4,9
				c0.9,1.1,2,2.2,3,3.3c0.7,0.8,0.8,2.3,0.2,3.1c-0.2,0.2-0.6,0.4-0.8,0.4c-1.5-0.1-2.9-0.5-4.2-1.3c-2.8-1.7-4.9-4.2-6.6-7
				c-2.4-4.2-3.1-8.8-2.8-13.5c0.5-5.7,2.5-10.9,6.1-15.5c3.1-4,6.8-7.1,11.4-9.2c3.9-1.8,7.8-3.2,12.1-3.4c1.2,0,1.6-0.4,2-1.6
				C585.4,82.3,585.7,81.3,586,80.3z M603,127.1c0.1-0.8,0.3-2,0.4-3.2c0.3-4.4-0.4-8.6-2.8-12.3c-2.2-3.4-5.2-6-8.6-8.3
				c-0.6-0.4-1.3-0.6-2-0.7c-0.9-0.2-1.3,0.2-1.5,1c-0.9,3.7-1.8,7.4-2.6,11.1c-1.4,6.3-2.7,12.7-4.1,19c-0.5,2.2-0.9,4.4-1.3,6.6
				c-0.2,1.3,0.5,2.1,1.8,2.1c0.3,0,0.7,0,1-0.1c1.9-0.4,3.8-0.8,5.7-1.3C595.9,138.9,600.6,134.6,603,127.1z M600.6,41.2
				c-0.1,0-0.1,0-0.2,0c-0.4,2.4-0.9,4.8-1.2,7.2c-0.2,1.7,0.9,2.8,2.7,2.7c0.3,0,0.7,0,1-0.2c2.1-0.8,4.2-1.4,6.2-2.4
				c5.5-2.8,9.5-7.1,12.7-12.2c2-3.2,2.6-6.7,1.5-10.4c-0.6-2.1-2-3.4-4.2-3.7c-1.6-0.3-3.1,0.2-4.6,0.9c-3.2,1.6-5.6,4.1-7.8,6.9
				C603.9,33.4,601.8,37.1,600.6,41.2z"/>
		</g>
	</g>
	<g id="Layer_3">
		<g>
			<path class="st3" d="M713.8,64c-3-16.5-17.4-28.9-34.7-28.9c-4.8,0-9.4,1-13.6,2.7C658.7,28.2,647.6,22,635,22
				c-12.7,0-23.9,6.3-30.6,16c-4.7-3.3-10.3-5.3-16.5-5.3c-15.7,0-28.5,12.7-28.5,28.5c0,0.9,0,1.9,0.1,2.8H713.8z"/>
		</g>
		<g>
			<path class="st3" d="M414.4,94c2.2-12.1,12.8-21.4,25.6-21.4c3.6,0,7,0.7,10,2c5-7.1,13.2-11.7,22.5-11.7
				c9.4,0,17.6,4.7,22.6,11.8c3.4-2.4,7.6-3.9,12.2-3.9c11.6,0,21,9.4,21,21c0,0.7,0,1.4-0.1,2.1H414.4V94z"/>
		</g>
		<g>
			<path class="st3" d="M92.3,62.7c-6.2,0-11.8,2-16.5,5.3c-6.7-9.7-17.9-16-30.6-16c-12.6,0-23.7,6.2-30.5,15.8
				c-4.2-1.8-8.8-2.7-13.6-2.7c-0.4,0-0.7,0-1.1,0V94h120.6c0.1-0.9,0.1-1.9,0.1-2.8C120.8,75.5,108,62.7,92.3,62.7z"/>
		</g>
	</g>
	<g>
		<g class="st4">
			<g>
				<path d="M90.1,155.3c-0.6-0.9-0.6-0.9,0.1-1.7c2.2-2.4,4.5-4.8,6.6-7.3c3.6-4.4,5.9-9.4,6.4-15.1c0.2-2.1,0.2-4.2-0.2-6.3
					c-0.4-2-1.1-3.9-2.3-5.6c-2.1-2.9-4.9-3.8-8.3-2.6c-1.8,0.6-3.4,1.5-4.5,3.1c-0.6,0.9-1,1.9-1,3c0,0.2,0.2,0.5,0.4,0.6
					c0.4,0.3,0.9,0.2,1.4,0.1c0.7-0.3,1.5-0.7,2.3-0.8c1.7-0.3,3.5,0.7,4.2,2.1c0.7,1.5,0.4,3.3-0.8,4.7c-2,2.2-6.9,2.5-8.9-0.8
					c-1.1-1.9-1.2-4-0.5-6.1c0.7-2,2-3.6,3.6-4.9c2.8-2.1,5.9-3.3,9.4-3.2c5.4,0.2,10.1,3.9,11.5,9c1.2,4.3,0.5,8.4-1.5,12.4
					c-2.4,4.8-5.7,8.9-9.7,12.5C95.7,150.7,92.9,153,90.1,155.3C90.3,155.2,90.2,155.2,90.1,155.3z"/>
				<path d="M114.7,125c1.4-0.3,2.9,0.7,3.2,2c0.3,1.5-0.6,2.9-2,3.2c-1.5,0.3-2.8-0.5-3.2-2.1C112.3,126.6,113.2,125.3,114.7,125z"
					/>
				<path d="M112.4,114.7c1.4-0.3,2.9,0.6,3.2,2c0.3,1.4-0.6,2.8-2.1,3.1c-1.4,0.3-2.8-0.6-3.1-2.1C110.1,116.3,111,115,112.4,114.7
					z"/>
			</g>
		</g>
		<g class="st4">
			<g>
				<path d="M493.8,96.7c0.1-1.1,0.1-1.1,1.1-1.3c3.2-0.6,6.5-1.1,9.7-1.8c5.5-1.3,10.3-3.9,14.2-8.1c1.4-1.6,2.7-3.2,3.7-5.2
					c0.9-1.8,1.5-3.8,1.6-5.8c0.1-3.6-1.6-6-5-7.1c-1.8-0.6-3.6-0.9-5.5-0.3c-1.1,0.3-1.9,0.9-2.6,1.8c-0.1,0.2-0.1,0.5,0,0.8
					c0.2,0.5,0.6,0.7,1.1,0.9c0.8,0.2,1.6,0.4,2.3,0.7c1.5,0.8,2.4,2.7,2.1,4.2c-0.3,1.6-1.7,2.9-3.5,3.2c-3,0.5-7-2.2-6.6-6.1
					c0.3-2.2,1.5-3.9,3.4-5.2c1.8-1.2,3.7-1.7,5.8-1.7c3.5,0,6.7,0.9,9.4,3.1c4.2,3.4,5.7,9.2,3.8,14.1c-1.7,4.1-4.7,7-8.7,9
					c-4.8,2.4-10,3.6-15.3,4c-3.5,0.3-7.1,0.4-10.6,0.6C494,96.7,493.9,96.7,493.8,96.7z"/>
				<path d="M531.7,87.5c1.3,0.6,1.9,2.3,1.3,3.5c-0.7,1.4-2.2,1.9-3.5,1.3c-1.4-0.7-1.9-2.1-1.3-3.6
					C528.8,87.4,530.3,86.8,531.7,87.5z"/>
				<path d="M536.1,77.9c1.3,0.6,1.9,2.3,1.3,3.6c-0.6,1.3-2.2,1.8-3.5,1.2c-1.3-0.6-1.9-2.1-1.2-3.6
					C533.3,77.8,534.8,77.3,536.1,77.9z"/>
			</g>
		</g>
		<g class="st4">
			<g>
				<path d="M743.4,210.4c-0.3-0.5-0.3-0.5,0.1-0.9c1.2-1.3,2.5-2.5,3.7-3.8c2-2.3,3.3-4.9,3.7-7.9c0.2-1.1,0.2-2.3,0-3.4
					c-0.2-1.1-0.5-2.1-1.1-3c-1-1.6-2.6-2.1-4.4-1.5c-1,0.3-1.9,0.7-2.5,1.6c-0.4,0.5-0.6,1-0.6,1.6c0,0.1,0.1,0.3,0.2,0.3
					c0.2,0.1,0.5,0.1,0.7,0.1c0.4-0.1,0.8-0.3,1.2-0.4c0.9-0.1,1.9,0.4,2.2,1.2c0.4,0.8,0.1,1.8-0.5,2.5c-1.1,1.1-3.8,1.2-4.7-0.6
					c-0.6-1.1-0.5-2.2-0.1-3.3s1.1-1.9,2-2.5c1.5-1.1,3.2-1.7,5.1-1.5c2.9,0.2,5.3,2.3,6,5c0.6,2.3,0.1,4.5-1,6.6
					c-1.4,2.5-3.2,4.7-5.5,6.5c-1.5,1.2-3,2.3-4.5,3.5C743.4,210.3,743.4,210.3,743.4,210.4z"/>
				<path d="M757.1,194.6c0.7-0.1,1.5,0.4,1.7,1.1c0.1,0.8-0.4,1.5-1.2,1.7c-0.8,0.1-1.5-0.3-1.6-1.2
					C755.8,195.4,756.3,194.8,757.1,194.6z"/>
				<path d="M756.1,189.1c0.8-0.1,1.5,0.4,1.7,1.2c0.1,0.8-0.4,1.5-1.2,1.6s-1.5-0.4-1.6-1.2C754.8,189.9,755.3,189.2,756.1,189.1z"
					/>
			</g>
		</g>
		<g class="st4">
			<g>
				<path d="M22.1,81.4c0.2,2.2,0.2,3.9-0.1,5.7c-0.3,1.6-0.8,3.1-1.5,4.6c-0.9,1.9-2.2,3.6-3.7,5c-0.3,0.3-0.5,0.6-0.4,1.1
					c0.2,1.1,0.4,2.1,0.6,3.2c0.1,0.5,0.3,0.6,0.8,0.6c1.8,0.1,3.6,0.5,5.3,1.3c2.6,1.2,4.4,3.2,5.3,6c0.6,1.9,0.6,3.9,0.1,5.9
					c-0.6,2.4-1.8,4.5-3.7,6.1c-0.8,0.7-1.8,1.2-2.8,1.7c-0.2,0.1-0.5,0.2-0.7,0.3c-0.4,0.2-0.4,0.2-0.3,0.6c0.2,1,0.4,2,0.6,3
					c0.1,0.6,0.2,1.2,0.3,1.8c0.1,1.1,0.3,2.2,0.4,3.3c0.1,1.9-0.3,3.6-1.5,5.2c-0.8,1.1-2,1.8-3.3,2.3c-1.4,0.5-2.9,0.6-4.4,0.4
					c-1.3-0.2-2.5-0.5-3.6-1.2c-0.7-0.5-1.4-1-2-1.7c-1.2-1.5-1.8-3.2-1.4-5.1c0.3-1.6,1-3,2.4-3.9c1.6-1.2,3.4-1.3,5.1-0.4
					c2.1,1.1,3,2.9,2.9,5.2c0,1.1-0.5,2.1-1,3c-0.1,0.2-0.2,0.4-0.3,0.6c-0.1,0.3,0,0.4,0.3,0.5c0.5,0.1,1,0,1.5-0.2
					c1.6-0.6,3-2.7,2.7-4.6c-0.2-1.2-0.4-2.4-0.6-3.7c-0.2-1.2-0.4-2.4-0.6-3.5c0-0.1,0-0.2-0.1-0.3c-0.1-0.4-0.3-0.5-0.6-0.5
					c-0.3,0-0.6,0-0.8,0c-1.4,0-2.8-0.2-4.1-0.5c-2.2-0.4-4.2-1.2-6.1-2.3c-1.1-0.6-2.1-1.5-2.9-2.5c-1.4-1.8-2.3-3.9-2.6-6.2
					c-0.3-2.3,0-4.6,0.8-6.8c0.7-1.7,1.5-3.3,2.5-4.9c1-1.5,2.2-2.9,3.6-4.2c1.1-1.1,2.3-2.1,3.4-3.2c0.3-0.3,0.6-0.5,0.8-0.7
					s0.3-0.3,0.2-0.6c-0.1-0.7-0.2-1.3-0.3-2c-0.2-1.8-0.5-3.6-0.6-5.4c-0.2-2.2,0-4.4,0.8-6.5c0.6-1.7,1.6-3,3.1-4
					c0.8-0.5,1.7-0.7,2.5-0.2c0.4,0.2,0.8,0.6,1.1,1c1,1.2,1.7,2.6,2.2,4.1C21.9,79.8,22.1,80.8,22.1,81.4z M14.5,100.6
					C14.5,100.6,14.4,100.6,14.5,100.6c-0.1-0.3-0.2-0.7-0.2-1c-0.1-0.4-0.3-0.6-0.7-0.4c-0.1,0-0.2,0.1-0.3,0.1
					c-0.6,0.4-1.3,0.9-1.9,1.4c-1.3,1.1-2.4,2.3-3.3,3.6c-1.5,2.1-2.6,4.3-2.8,6.9c0,0.5-0.1,1.1-0.1,1.6c0.1,1.7,0.8,3.1,1.9,4.4
					c1.5,1.7,3.4,2.6,5.5,3.1c1.4,0.3,2.9,0.4,4.3,0.3c0.8-0.1,0.9-0.2,0.8-1c-0.1-0.9-0.3-1.7-0.5-2.5c-0.3-1.7-0.6-3.5-0.9-5.2
					c-0.2-1.4-0.5-2.8-0.7-4.3c0-0.2-0.1-0.3-0.3-0.4c-0.1,0-0.3,0-0.4,0c-0.5,0-1,0.3-1.5,0.5c-1.9,0.8-2.9,3-2.8,4.9
					c0.1,1,0.4,1.8,0.9,2.6c0.6,0.9,1.3,1.7,2.3,2.2c0.4,0.2,0.9,0.4,1.3,0.6c0.3,0.1,0.5,0.6,0.4,0.9c0,0.1-0.1,0.2-0.2,0.2
					c-0.5,0.2-0.9,0.2-1.4,0.1c-1.1-0.2-2-0.6-2.8-1.3c-1.2-1-2-2.2-2.5-3.7c-0.6-1.8-0.6-3.6,0-5.4c0.5-1.6,1.2-3,2.3-4.1
					c0.9-1,1.9-1.9,3.2-2.5c0.4-0.2,0.4-0.3,0.4-0.7C14.6,101.3,14.5,101,14.5,100.6z M25.3,112.5c-0.1-0.2-0.1-0.6-0.3-1
					c-0.4-1.3-1.2-2.5-2.3-3.3c-1.1-0.8-2.3-1.2-3.6-1.4c-0.2,0-0.5,0-0.7,0c-0.3,0.1-0.4,0.2-0.3,0.5c0.2,1.2,0.4,2.4,0.6,3.6
					c0.4,2.1,0.7,4.1,1.1,6.2c0.1,0.7,0.3,1.4,0.4,2.1c0.1,0.4,0.4,0.6,0.8,0.4c0.1,0,0.2-0.1,0.3-0.1c0.5-0.4,1.1-0.7,1.5-1.1
					C24.6,116.9,25.5,115,25.3,112.5z M14.1,87.2L14.1,87.2c0.1,0.8,0.2,1.6,0.4,2.3c0.1,0.5,0.6,0.7,1.1,0.5c0.1,0,0.2-0.1,0.3-0.2
					c0.5-0.5,1.1-0.9,1.5-1.5c1.3-1.5,2-3.3,2.3-5.2c0.2-1.2,0-2.3-0.8-3.3c-0.4-0.6-1-0.8-1.7-0.6c-0.5,0.1-0.9,0.4-1.3,0.8
					c-0.7,0.9-1.2,1.9-1.5,3C14.2,84.4,14,85.8,14.1,87.2z"/>
			</g>
		</g>
		<g class="st4">
			<g>
				<path d="M458.5,67.8c-0.3,2.1-0.7,3.9-1.4,5.5c-0.6,1.5-1.5,2.9-2.4,4.2c-1.3,1.7-2.9,3-4.7,4.1c-0.4,0.2-0.6,0.5-0.6,1
					c0,1.1-0.1,2.1-0.1,3.2c0,0.5,0.1,0.7,0.6,0.8c1.8,0.5,3.4,1.3,4.9,2.4c2.3,1.8,3.6,4.1,3.8,7c0.2,2-0.3,3.9-1.2,5.8
					c-1.1,2.2-2.7,4-4.9,5.1c-1,0.5-2,0.8-3.1,1c-0.3,0.1-0.5,0.1-0.8,0.2c-0.4,0.1-0.4,0.1-0.5,0.5c0,1-0.1,2.1-0.1,3.1
					c0,0.6,0,1.2-0.1,1.8c-0.1,1.1-0.2,2.2-0.4,3.3c-0.3,1.9-1.1,3.5-2.6,4.7c-1.1,0.9-2.3,1.4-3.7,1.6c-1.5,0.2-2.9,0-4.3-0.5
					c-1.2-0.4-2.3-1-3.2-1.9c-0.6-0.6-1.2-1.3-1.6-2.1c-0.8-1.7-1-3.5-0.2-5.3c0.6-1.5,1.6-2.7,3.2-3.3c1.8-0.8,3.6-0.5,5.1,0.8
					c1.8,1.5,2.3,3.5,1.7,5.7c-0.3,1.1-0.9,1.9-1.7,2.7c-0.2,0.1-0.3,0.3-0.4,0.5s-0.1,0.4,0.2,0.5c0.5,0.2,1,0.2,1.5,0.1
					c1.7-0.3,3.5-2,3.7-3.9c0.1-1.2,0.1-2.5,0.2-3.7s0.1-2.4,0.2-3.6c0-0.1,0-0.2,0-0.3c0-0.4-0.1-0.6-0.5-0.6
					c-0.3-0.1-0.6-0.1-0.8-0.2c-1.4-0.3-2.6-0.8-3.9-1.3c-2-0.8-3.8-2.1-5.5-3.5c-1-0.9-1.7-1.9-2.3-3.1c-0.9-2.1-1.4-4.3-1.1-6.6
					c0.2-2.3,1-4.5,2.3-6.4c1-1.5,2.2-2.9,3.5-4.2c1.3-1.3,2.8-2.4,4.4-3.3c1.3-0.8,2.7-1.6,4-2.4c0.3-0.2,0.7-0.3,1-0.5
					c0.2-0.1,0.3-0.3,0.3-0.5c0.1-0.7,0.1-1.3,0.2-2c0.2-1.8,0.3-3.6,0.6-5.4c0.3-2.2,1-4.3,2.2-6.2c0.9-1.5,2.2-2.6,3.9-3.2
					c0.9-0.3,1.8-0.3,2.5,0.4c0.4,0.3,0.7,0.8,0.9,1.2c0.7,1.4,1.1,2.9,1.3,4.5C458.6,66.2,458.6,67.2,458.5,67.8z M446.9,84.9
					C446.8,84.9,446.8,84.9,446.9,84.9c0-0.4,0-0.7,0-1.1s-0.1-0.6-0.6-0.6c-0.1,0-0.2,0-0.3,0.1c-0.7,0.3-1.5,0.6-2.1,0.9
					c-1.5,0.8-2.8,1.7-4,2.8c-1.9,1.7-3.5,3.7-4.2,6.1c-0.2,0.5-0.3,1.1-0.4,1.6c-0.3,1.7,0.1,3.2,0.9,4.7c1.1,2,2.7,3.3,4.7,4.3
					c1.3,0.6,2.7,1.1,4.1,1.3c0.8,0.1,1,0,1-0.8c0-0.9,0.1-1.7,0.1-2.6c0.1-1.7,0.2-3.5,0.3-5.2c0.1-1.4,0.1-2.9,0.2-4.3
					c0-0.2-0.1-0.4-0.2-0.4c-0.1-0.1-0.3-0.1-0.4-0.1c-0.5-0.1-1,0.1-1.6,0.2c-2,0.4-3.5,2.3-3.8,4.1c-0.1,0.9,0,1.9,0.3,2.8
					c0.4,1,0.9,1.9,1.8,2.6c0.4,0.3,0.7,0.6,1.1,0.9c0.3,0.2,0.4,0.7,0.2,1c0,0.1-0.2,0.2-0.2,0.2c-0.5,0.1-1,0-1.4-0.2
					c-1-0.4-1.8-1.1-2.5-1.9c-1-1.2-1.5-2.6-1.6-4.2c-0.2-1.8,0.2-3.6,1.1-5.2c0.8-1.4,1.8-2.6,3.1-3.5c1.1-0.8,2.3-1.4,3.7-1.7
					c0.4-0.1,0.5-0.2,0.5-0.6C446.8,85.6,446.8,85.3,446.9,84.9z M454.8,98.9c0-0.2,0-0.7,0-1.1c-0.1-1.4-0.6-2.7-1.5-3.8
					c-0.9-1-2-1.6-3.2-2.2c-0.2-0.1-0.4-0.1-0.7-0.1c-0.3,0-0.4,0.1-0.4,0.4c-0.1,1.2-0.2,2.4-0.2,3.7c-0.1,2.1-0.2,4.2-0.3,6.3
					c0,0.7,0,1.4-0.1,2.2c0,0.4,0.3,0.6,0.7,0.6c0.1,0,0.2,0,0.3-0.1c0.6-0.2,1.2-0.4,1.7-0.7C453.1,103.1,454.4,101.4,454.8,98.9z
					 M449.4,71.8L449.4,71.8c-0.1,0.8-0.1,1.6-0.1,2.4c0,0.6,0.4,0.8,1,0.7c0.1,0,0.2,0,0.3-0.1c0.6-0.4,1.3-0.7,1.8-1.1
					c1.6-1.2,2.6-2.8,3.4-4.6c0.5-1.1,0.5-2.3-0.1-3.4c-0.3-0.6-0.8-1-1.5-1c-0.5,0-1,0.2-1.4,0.5c-0.9,0.7-1.6,1.6-2.1,2.6
					C450.1,69.1,449.6,70.4,449.4,71.8z"/>
			</g>
		</g>
		<g class="st4">
			<g>
				<path d="M676.6,133.3c0.4,1.7,0.6,3,0.5,4.4c0,1.3-0.3,2.5-0.6,3.8c-0.5,1.6-1.3,3-2.3,4.3c-0.2,0.3-0.3,0.6-0.2,0.9
					c0.3,0.8,0.5,1.6,0.8,2.4c0.1,0.4,0.3,0.4,0.7,0.4c1.4-0.1,2.9,0,4.2,0.4c2.2,0.7,3.8,2,4.8,4.1c0.7,1.4,0.9,3,0.8,4.6
					c-0.2,1.9-0.9,3.7-2.2,5.1c-0.6,0.6-1.3,1.1-2,1.6c-0.2,0.1-0.4,0.2-0.5,0.4c-0.3,0.2-0.3,0.2-0.2,0.5c0.3,0.8,0.5,1.5,0.8,2.3
					c0.2,0.4,0.3,0.9,0.4,1.3c0.2,0.8,0.5,1.7,0.7,2.6c0.3,1.5,0.2,2.9-0.6,4.2c-0.5,1-1.3,1.7-2.3,2.2c-1,0.6-2.2,0.8-3.3,0.8
					c-1,0-2-0.1-2.9-0.5c-0.6-0.3-1.2-0.6-1.7-1.1c-1.1-1-1.7-2.3-1.7-3.8c0.1-1.3,0.5-2.4,1.4-3.3c1.1-1.1,2.5-1.4,4-0.9
					c1.8,0.6,2.6,1.9,2.8,3.7c0.1,0.9-0.1,1.7-0.5,2.4c-0.1,0.2-0.1,0.3-0.2,0.5c0,0.2,0.1,0.3,0.3,0.3c0.4,0,0.8-0.1,1.2-0.3
					c1.2-0.7,2.1-2.4,1.6-3.9c-0.3-0.9-0.6-1.9-0.9-2.8c-0.3-0.9-0.6-1.8-0.8-2.7c0-0.1-0.1-0.2-0.1-0.2c-0.1-0.3-0.3-0.4-0.6-0.3
					c-0.2,0-0.4,0.1-0.7,0.1c-1.1,0.1-2.2,0.1-3.3,0.1c-1.7-0.1-3.4-0.5-5-1.1c-0.9-0.4-1.8-0.9-2.5-1.7c-1.3-1.3-2.2-2.8-2.7-4.5
					c-0.5-1.8-0.5-3.6-0.1-5.4c0.3-1.4,0.8-2.8,1.4-4.1c0.6-1.3,1.4-2.5,2.3-3.7c0.8-1,1.5-1.9,2.3-2.9c0.2-0.2,0.4-0.4,0.6-0.6
					c0.1-0.1,0.2-0.3,0.1-0.5c-0.1-0.5-0.3-1-0.4-1.5c-0.4-1.4-0.8-2.8-1.1-4.2c-0.4-1.7-0.5-3.4-0.1-5.1c0.3-1.4,0.9-2.5,2-3.4
					c0.6-0.5,1.2-0.7,2-0.4c0.4,0.1,0.7,0.4,1,0.7c0.9,0.9,1.6,1.9,2.2,3C676.2,132.1,676.5,132.8,676.6,133.3z M672.8,149.1
					C672.8,149.2,672.7,149.2,672.8,149.1c-0.1-0.3-0.2-0.5-0.3-0.8s-0.3-0.4-0.6-0.3c-0.1,0-0.2,0.1-0.2,0.1
					c-0.4,0.4-0.9,0.8-1.3,1.3c-0.9,1-1.6,2-2.2,3.2c-0.9,1.8-1.5,3.7-1.4,5.7c0,0.4,0.1,0.9,0.1,1.3c0.2,1.3,1,2.3,2,3.2
					c1.3,1.2,2.9,1.7,4.6,1.8c1.1,0.1,2.3,0,3.4-0.2c0.6-0.1,0.7-0.3,0.5-0.9c-0.2-0.6-0.4-1.3-0.7-1.9c-0.4-1.3-0.8-2.6-1.2-3.9
					c-0.3-1.1-0.7-2.2-1.1-3.2c0-0.1-0.1-0.2-0.3-0.3c-0.1,0-0.2,0-0.3,0c-0.4,0.1-0.8,0.3-1.1,0.6c-1.4,0.8-1.9,2.7-1.6,4.1
					c0.2,0.7,0.5,1.4,1,1.9c0.6,0.7,1.2,1.2,2,1.5c0.3,0.1,0.7,0.2,1.1,0.3c0.2,0.1,0.5,0.4,0.4,0.7c0,0.1-0.1,0.2-0.1,0.2
					c-0.3,0.2-0.7,0.3-1.1,0.2c-0.8,0-1.6-0.3-2.3-0.7c-1.1-0.6-1.8-1.5-2.3-2.6c-0.6-1.3-0.8-2.7-0.6-4.2c0.2-1.3,0.6-2.4,1.3-3.5
					c0.6-0.9,1.3-1.7,2.2-2.3c0.3-0.2,0.3-0.3,0.2-0.6C672.9,149.7,672.8,149.4,672.8,149.1z M682.5,157.2c-0.1-0.2-0.2-0.5-0.3-0.8
					c-0.5-1-1.2-1.8-2.2-2.4c-0.9-0.5-1.9-0.7-2.9-0.7c-0.2,0-0.4,0-0.5,0.1c-0.2,0.1-0.3,0.2-0.2,0.4c0.3,0.9,0.6,1.8,0.9,2.8
					c0.5,1.6,1,3.1,1.5,4.7c0.2,0.5,0.4,1.1,0.6,1.6c0.1,0.3,0.4,0.4,0.7,0.2c0.1,0,0.1-0.1,0.2-0.1c0.4-0.3,0.7-0.7,1.1-1
					C682.4,160.7,682.9,159.2,682.5,157.2z M671,138.7L671,138.7c0.2,0.6,0.4,1.2,0.6,1.8c0.2,0.4,0.5,0.5,0.9,0.2
					c0.1,0,0.1-0.1,0.2-0.2c0.4-0.4,0.7-0.8,1-1.3c0.8-1.3,1.2-2.8,1.2-4.3c0-1-0.3-1.8-1-2.5c-0.4-0.4-0.9-0.5-1.4-0.3
					c-0.4,0.2-0.7,0.4-0.9,0.8c-0.5,0.8-0.7,1.6-0.8,2.5C670.7,136.6,670.8,137.7,671,138.7z"/>
			</g>
		</g>
	</g>
	<path class="st5" d="M565.5,231.1L565.5,231.1c-2.9,0-5.2-2.3-5.2-5.2V31.3c0-2.9,2.3-5.2,5.2-5.2l0,0c2.9,0,5.2,2.3,5.2,5.2v194.6
		C570.7,228.8,568.4,231.1,565.5,231.1z"/>
	<g>
		<g>
			<defs>
				<rect id="SVGID_1_" x="0.1" y="67.2" width="424.1" height="182.6"/>
			</defs>
			<clipPath id="SVGID_2_">
				<use xlink:href="#SVGID_1_"  style="overflow:visible;"/>
			</clipPath>
			<g class="st6">
				<path class="st7" d="M22.4,258.5c-9.6-2.9-19.1-6.8-28.4-12c-3.5-33-7.1-65.9-10.7-98.7c9.2,6.1,18.5,10.9,28.1,14.4
					C15.1,194,18.8,226.1,22.4,258.5z"/>
				<path class="st7" d="M51.7,264.1c-9.9-0.9-19.7-2.7-29.3-5.6c-3.6-32.4-7.3-64.4-11-96.3c9.5,3.5,19.3,5.8,29.1,7.1
					C44.3,200.5,48,232.1,51.7,264.1z"/>
				<path class="st7" d="M81.8,264.4c-10.1,0.7-20.2,0.6-30.1-0.3c-3.7-32-7.4-63.6-11.2-94.8c9.9,1.3,19.9,1.5,30,0.9
					C74.3,201.1,78.1,232.5,81.8,264.4z"/>
				<path class="st7" d="M112.5,260.4c-10.3,1.9-20.6,3.3-30.7,4c-3.7-31.9-7.5-63.3-11.3-94.2c10.1-0.6,20.4-2.1,30.8-4.3
					C105.1,196.8,108.9,228.3,112.5,260.4z"/>
				<path class="st7" d="M143.7,253.2c-10.5,2.8-20.9,5.3-31.2,7.2c-3.7-32.1-7.4-63.6-11.3-94.5c10.4-2.2,20.8-5,31.3-8.4
					C136.4,188.7,140.1,220.5,143.7,253.2z"/>
				<path class="st7" d="M175.2,243.8c-10.5,3.4-21,6.5-31.5,9.4c-3.6-32.6-7.3-64.4-11.1-95.6c10.5-3.3,21.1-7.2,31.8-11.4
					C168.1,177.9,171.7,210.4,175.2,243.8z"/>
				<path class="st7" d="M206.8,233.4c-10.6,3.5-21.1,7.1-31.6,10.4c-3.5-33.4-7.1-65.9-10.8-97.6c10.6-4.2,21.3-8.7,32.1-13.3
					C200,165.4,203.5,198.9,206.8,233.4z"/>
				<path class="st7" d="M238.5,222.9c-10.5,3.4-21.1,6.9-31.6,10.5c-3.3-34.5-6.8-68-10.4-100.5c10.7-4.7,21.5-9.5,32.2-14.2
					C232.1,152.3,235.4,187,238.5,222.9z"/>
				<path class="st7" d="M270.1,213.4c-10.5,2.8-21,6-31.5,9.4c-3.1-35.9-6.4-70.6-9.9-104.3c10.7-4.8,21.5-9.5,32.2-14.1
					C264.2,139.6,267.3,175.9,270.1,213.4z"/>
				<path class="st7" d="M301.3,206.1c-10.3,2-20.7,4.5-31.2,7.3c-2.9-37.6-6-73.9-9.2-109c10.7-4.5,21.4-8.9,32-12.9
					C295.9,128.4,298.7,166.6,301.3,206.1z"/>
				<path class="st7" d="M332.1,202c-10.2,0.7-20.4,2.2-30.7,4.1c-2.6-39.5-5.4-77.7-8.4-114.5c10.6-4,21.2-7.5,31.7-10.6
					C327.3,119.9,329.8,160.2,332.1,202z"/>
				<path class="st7" d="M362.2,202c-9.9-0.9-20-0.8-30.1-0.1c-2.3-41.8-4.8-82.1-7.5-120.9c10.5-3,20.9-5.5,31.2-7.2
					C358.1,115,360.3,157.7,362.2,202z"/>
				<path class="st7" d="M391.6,207.4c-9.6-2.8-19.4-4.5-29.4-5.4c-1.9-44.3-4.1-87.1-6.4-128.2c10.3-1.7,20.5-2.7,30.5-2.8
					C388.3,114.8,390.1,160.2,391.6,207.4z"/>
				<path class="st7" d="M407.3,213c-5.2-2.2-10.5-4.1-15.8-5.6c-1.5-47.2-3.3-92.6-5.2-136.4c7.5-0.1,14.8,0.4,22.1,1.4
					c4.4,0.6,7.7,4.3,7.9,8.8c1.3,39.8,2.4,81,3.4,123.5C419.8,211.1,413.3,215.5,407.3,213z"/>
				<path d="M24.6,222.2c-4.7-1.3-9.4-2.8-14.1-4.6C8.3,198,6,178.5,3.8,159.1c4.6,2,9.3,3.8,14,5.3
					C20.1,183.5,22.3,202.8,24.6,222.2z"/>
				<path d="M54.6,227c-4.9-0.3-9.7-0.8-14.5-1.5c-2.3-19.2-4.5-38.3-6.8-57.3c4.8,0.9,9.6,1.5,14.5,1.9
					C50.1,188.9,52.3,207.9,54.6,227z"/>
				<path d="M114.4,221.4c-5.1,1.1-10.1,2.1-15.2,2.9c-2.3-19.1-4.6-38-6.9-56.7c5-0.9,10.1-1.9,15.2-3.1
					C109.8,183.2,112.1,202.2,114.4,221.4z"/>
				<path d="M147.1,212.6c-5.2,1.6-10.3,3.1-15.4,4.5c-2.2-19.3-4.5-38.4-6.8-57.2c5.1-1.5,10.3-3.2,15.5-4.9
					C142.6,173.9,144.9,193.1,147.1,212.6z"/>
				<path d="M178.8,201.9c-5.2,1.9-10.4,3.7-15.5,5.4c-2.2-19.7-4.4-39.1-6.7-58.2c5.2-2,10.4-4,15.6-6.1
					C174.4,162.4,176.6,182,178.8,201.9z"/>
				<path d="M243.3,177.8c-5.2,1.9-10.4,3.8-15.6,5.8c-2-21-4.1-41.6-6.2-61.8c5.3-2.3,10.5-4.7,15.8-7
					C239.3,135.4,241.3,156.4,243.3,177.8z"/>
				<path d="M275.6,166.6c-5.2,1.6-10.3,3.4-15.5,5.2c-1.9-21.9-3.8-43.4-5.8-64.5c5.2-2.3,10.5-4.5,15.7-6.7
					C272,122.2,273.8,144.1,275.6,166.6z"/>
				<path d="M336.7,152.1c-5,0.7-10.1,1.5-15.1,2.5c-1.5-24.2-3.1-48-4.8-71.2c5.2-1.6,10.3-3.1,15.4-4.4
					C333.7,102.8,335.2,127.2,336.7,152.1z"/>
				<path d="M368.4,150.3c-4.9-0.1-9.8-0.1-14.8,0.2c-1.3-25.8-2.7-51-4.2-75.6c5.1-1,10.1-1.8,15.1-2.4
					C365.9,97.9,367.2,123.8,368.4,150.3z"/>
				<path d="M398,154c-4.8-1.1-9.6-1.9-14.4-2.5c-1.1-27.4-2.2-54.2-3.5-80.3c5-0.2,9.9-0.2,14.8,0C396,98.1,397.1,125.8,398,154z"
					/>
			</g>
		</g>
	</g>
	<g id="Layer_5">
		<rect y="220" class="st8" width="800" height="30"/>
		<rect x="15" y="220" class="st3" width="99" height="6"/>
		<rect x="221" y="220" class="st3" width="99" height="6"/>
		<rect x="429" y="220" class="st3" width="99" height="6"/>
		<rect x="635" y="220" class="st3" width="99" height="6"/>
	</g>
	<g id="Layer_6">
	</g>
	<g>
		<g>
			<rect x="571.1" y="36.3" class="st3" width="33.7" height="33.7"/>
			<rect x="571.1" y="70" width="33.7" height="33.7"/>
			<rect x="604.9" y="70.1" class="st3" width="33.7" height="33.7"/>
			<rect x="604.9" y="36.3" width="33.7" height="33.7"/>
			<rect x="638.6" y="36.3" class="st3" width="33.7" height="33.7"/>
			<rect x="638.6" y="70" width="33.7" height="33.7"/>
			<rect x="672.4" y="70.1" class="st3" width="33.7" height="33.7"/>
			<rect x="672.4" y="36.3" width="33.7" height="33.7"/>
			<rect x="706.1" y="36.3" class="st3" width="33.7" height="33.7"/>
			<rect x="706.1" y="70" width="33.7" height="33.7"/>
			<rect x="739.9" y="70.1" class="st3" width="33.7" height="33.7"/>
			<rect x="739.9" y="36.3" width="33.7" height="33.7"/>
		</g>
		<g>
			<g>
				<g>
					<path class="st9" d="M620.4,84.1c-0.5,0-1.1,0-1.9-0.1c-0.8-0.1-1.6-0.2-2.4-0.4c-0.9-0.2-1.8-0.4-2.6-0.7
						c-0.9-0.3-1.7-0.6-2.5-1s-1.5-0.9-2-1.4c-0.6-0.7-0.9-1.4-0.9-2.3s0.3-1.7,1-2.4c0.7-0.7,1.5-1.1,2.4-1.1
						c0.6,0,1.1,0.1,1.6,0.4c0.6,0.3,1.2,0.6,1.8,0.9c0.6,0.2,1.2,0.4,1.8,0.6s1.2,0.3,1.8,0.4s1.3,0.1,2,0.1c0.4,0,1,0,1.6-0.1
						s1.1-0.2,1.6-0.3c0.5-0.2,0.8-0.4,1.2-0.7c0.1-0.1,0.3-0.3,0.3-0.8c0-0.3-0.1-0.7-0.7-1c-0.7-0.4-1.6-0.8-2.7-1.1
						c-1.1-0.4-2.4-0.7-3.7-1.1c-1.4-0.4-2.8-0.9-4-1.6c-1.3-0.7-2.3-1.6-3.2-2.7c-0.9-1.2-1.4-2.7-1.4-4.6c0-1.6,0.4-3,1.2-4.1
						c0.7-1.1,1.7-1.9,2.9-2.5c1.1-0.6,2.3-1,3.7-1.2c1.3-0.2,2.6-0.3,3.8-0.3c0.6,0,1.3,0,2.1,0.1s1.6,0.2,2.4,0.3
						c0.8,0.1,1.6,0.3,2.3,0.5c0.8,0.2,1.5,0.5,2.1,0.7c0.6,0.3,1.1,0.7,1.5,1.1c0.4,0.5,0.6,1.2,0.6,2c0,0.9-0.3,1.8-1,2.4
						s-1.5,1-2.4,1c-0.4,0-0.8-0.1-1.3-0.3c-1-0.4-2.1-0.7-3.1-0.9s-2.1-0.3-3.2-0.3c-0.4,0-0.9,0-1.5,0c-0.5,0-1.1,0.1-1.6,0.2
						c-0.4,0.1-0.8,0.3-1.1,0.5c-0.1,0.1-0.2,0.2-0.2,0.6c0,0.1,0,0.3,0.2,0.5c0.2,0.3,0.6,0.5,1,0.8c0.4,0.3,1,0.5,1.5,0.7
						c0.6,0.2,1.2,0.4,1.8,0.6s1.1,0.3,1.6,0.5c0.5,0.1,0.9,0.3,1.2,0.3c1,0.3,2,0.7,3,1.1s1.9,0.9,2.7,1.6c0.8,0.6,1.4,1.5,1.9,2.4
						c0.5,1,0.7,2.1,0.7,3.4c0,1.7-0.4,3.2-1.1,4.4c-0.7,1.1-1.7,2.1-2.9,2.8c-1.1,0.7-2.4,1.1-3.8,1.4
						C623.1,83.9,621.7,84.1,620.4,84.1z"/>
					<path d="M621,56c0.6,0,1.3,0,2.1,0.1s1.5,0.2,2.3,0.3s1.5,0.3,2.3,0.5c0.7,0.2,1.4,0.4,1.9,0.7c0.4,0.2,0.8,0.5,1.1,0.9
						s0.4,0.8,0.4,1.3c0,0.7-0.2,1.3-0.7,1.7c-0.5,0.5-1.1,0.7-1.7,0.7c-0.3,0-0.6-0.1-0.9-0.2c-1.1-0.4-2.2-0.7-3.2-0.9
						c-1.1-0.2-2.2-0.3-3.4-0.3c-0.4,0-0.9,0-1.5,0s-1.2,0.1-1.8,0.3s-1.1,0.4-1.5,0.7s-0.6,0.8-0.6,1.4c0,0.4,0.2,0.8,0.5,1.2
						s0.7,0.7,1.2,1s1.1,0.6,1.7,0.8c0.6,0.2,1.2,0.4,1.8,0.6s1.1,0.3,1.6,0.5c0.5,0.1,0.9,0.3,1.2,0.3c1,0.3,1.9,0.7,2.9,1
						c0.9,0.4,1.7,0.8,2.4,1.4s1.2,1.3,1.7,2.1c0.4,0.8,0.6,1.8,0.6,3c0,1.5-0.3,2.8-1,3.8s-1.5,1.8-2.5,2.4s-2.2,1-3.5,1.3
						c-1.3,0.2-2.6,0.4-3.9,0.4c-0.4,0-1,0-1.8-0.1c-0.7-0.1-1.5-0.2-2.3-0.4c-0.8-0.2-1.7-0.4-2.5-0.6c-0.8-0.3-1.6-0.6-2.3-0.9
						c-0.7-0.4-1.3-0.8-1.7-1.2c-0.4-0.5-0.7-1-0.7-1.6s0.2-1.2,0.7-1.7s1-0.7,1.7-0.7c0.4,0,0.8,0.1,1.1,0.3
						c0.7,0.4,1.3,0.7,1.9,0.9c0.6,0.3,1.3,0.5,1.9,0.6c0.6,0.2,1.3,0.3,1.9,0.4c0.7,0.1,1.4,0.1,2.1,0.1c0.5,0,1,0,1.7-0.1
						c0.6-0.1,1.3-0.2,1.8-0.4c0.6-0.2,1.1-0.5,1.5-0.9s0.6-0.9,0.6-1.5c0-0.8-0.4-1.4-1.2-1.9s-1.7-0.9-2.9-1.2
						c-1.1-0.4-2.4-0.7-3.8-1.1c-1.4-0.4-2.6-0.9-3.8-1.5c-1.1-0.6-2.1-1.4-2.9-2.5c-0.8-1-1.2-2.4-1.2-4c0-1.4,0.3-2.6,1-3.6
						s1.5-1.7,2.5-2.2s2.2-0.9,3.4-1.1C618.6,56.1,619.9,56,621,56 M621,54c-1.3,0-2.6,0.1-4,0.3c-1.5,0.2-2.8,0.7-4,1.3
						c-1.3,0.7-2.4,1.6-3.2,2.8c-0.9,1.3-1.3,2.9-1.3,4.7c0,2.1,0.5,3.9,1.6,5.2c0.9,1.2,2.1,2.3,3.5,3c1.3,0.7,2.7,1.3,4.2,1.7
						c1.3,0.4,2.6,0.7,3.7,1.1c1,0.3,1.8,0.6,2.4,1c0.1,0.1,0.2,0.1,0.2,0.1l0,0c0,0,0,0,0,0.1c-0.2,0.2-0.5,0.3-0.8,0.4
						c-0.4,0.1-0.9,0.2-1.4,0.3c-0.6,0.1-1.1,0.1-1.5,0.1c-0.7,0-1.3,0-1.9-0.1c-0.6-0.1-1.1-0.2-1.7-0.3c-0.5-0.1-1.1-0.3-1.6-0.6
						c-0.6-0.2-1.1-0.5-1.7-0.8c-0.7-0.4-1.4-0.6-2.1-0.6c-1.2,0-2.3,0.5-3.1,1.4S607,77,607,78.2c0,1.1,0.4,2.1,1.2,2.9
						c0.6,0.6,1.4,1.2,2.2,1.6s1.7,0.8,2.6,1c0.9,0.3,1.8,0.5,2.7,0.7s1.7,0.3,2.5,0.4s1.5,0.1,2,0.1c1.4,0,2.8-0.1,4.2-0.4
						c1.5-0.3,2.9-0.8,4.1-1.5c1.3-0.8,2.4-1.8,3.2-3.1c0.9-1.3,1.3-3,1.3-4.9c0-1.5-0.3-2.8-0.8-3.9s-1.3-2-2.2-2.7
						c-0.8-0.7-1.8-1.3-2.9-1.7c-1-0.4-2-0.8-3-1.1l0,0l0,0c-0.3-0.1-0.7-0.2-1.2-0.3c-0.5-0.1-1-0.3-1.6-0.5
						c-0.5-0.2-1.1-0.4-1.7-0.6c-0.5-0.2-1-0.4-1.4-0.6c-0.2-0.1-0.4-0.3-0.6-0.4c0.1-0.1,0.3-0.1,0.5-0.2c0.4-0.1,0.9-0.2,1.3-0.2
						c0.6,0,1.1,0,1.5,0c1,0,2,0.1,3,0.3s2,0.5,3,0.8c0.6,0.2,1.1,0.3,1.6,0.3c1.2,0,2.3-0.5,3.2-1.3c0.9-0.9,1.3-1.9,1.3-3.2
						c0-1-0.3-1.9-0.9-2.6c-0.5-0.6-1.1-1.1-1.8-1.4c-0.7-0.3-1.4-0.6-2.3-0.8c-0.8-0.2-1.6-0.4-2.4-0.5c-0.8-0.2-1.7-0.3-2.5-0.3
						C622.4,54.1,621.7,54,621,54L621,54z"/>
				</g>
				<g>
					<path class="st9" d="M645.3,83.9c-1,0-1.9-0.4-2.6-1.1c-0.7-0.7-1-1.6-1-2.6V62.4h-6.2c-1,0-1.8-0.3-2.4-1s-1-1.5-1-2.4
						s0.3-1.8,1-2.4c0.7-0.7,1.5-1,2.4-1h19.6c0.9,0,1.8,0.3,2.4,1c0.7,0.7,1,1.5,1,2.4s-0.4,1.8-1,2.4c-0.7,0.7-1.5,1-2.4,1h-6.2
						v17.9c0,1-0.4,1.9-1.1,2.6C647.1,83.5,646.3,83.9,645.3,83.9z"/>
					<path d="M655.1,56.5c0.7,0,1.3,0.2,1.7,0.7c0.5,0.5,0.7,1.1,0.7,1.7c0,0.7-0.2,1.3-0.7,1.7c-0.5,0.5-1.1,0.7-1.7,0.7h-7.2v18.9
						c0,0.7-0.3,1.4-0.8,1.9s-1.1,0.8-1.9,0.8s-1.3-0.3-1.8-0.8s-0.7-1.1-0.7-1.9V61.4h-7.2c-0.7,0-1.3-0.2-1.7-0.7s-0.7-1-0.7-1.7
						s0.2-1.3,0.7-1.7s1-0.7,1.7-0.7L655.1,56.5 M655.1,54.5h-19.6c-1.2,0-2.3,0.5-3.2,1.3c-0.8,0.9-1.3,1.9-1.3,3.1
						c0,1.2,0.4,2.3,1.3,3.1c0.8,0.8,1.9,1.3,3.1,1.3h5.2v16.9c0,1.3,0.5,2.4,1.3,3.3c0.9,0.9,2,1.4,3.3,1.4s2.4-0.5,3.3-1.3
						c0.9-0.9,1.3-2,1.3-3.3V63.4h5.2c1.2,0,2.3-0.4,3.1-1.3c0.9-0.8,1.3-1.9,1.3-3.2c0-1.2-0.5-2.3-1.3-3.2
						C657.4,54.9,656.3,54.5,655.1,54.5L655.1,54.5z"/>
				</g>
				<g>
					<path class="st9" d="M680.6,83.9c-0.7,0-1.3-0.2-1.9-0.5c-0.5-0.3-1-0.8-1.2-1.4l-1.9-4.2h-10l-1.9,4.2
						c-0.3,0.6-0.7,1.1-1.3,1.5c-0.6,0.3-1.2,0.5-1.8,0.5c-1,0-1.8-0.3-2.4-1c-0.7-0.7-1-1.5-1-2.4c0-0.5,0.1-1,0.3-1.4l10-21.9
						c0.3-0.6,0.7-1.1,1.2-1.4c0.6-0.4,1.2-0.6,1.8-0.6s1.3,0.2,1.8,0.5c0.6,0.4,1,0.8,1.3,1.5l10,21.9c0.2,0.5,0.3,1,0.3,1.4
						c0,0.9-0.3,1.8-1,2.4C682.4,83.5,681.5,83.9,680.6,83.9z M672.7,71.3l-2.1-4.7l-2.1,4.7H672.7z"/>
					<path d="M670.5,56.1c0.5,0,0.9,0.1,1.3,0.4c0.4,0.2,0.7,0.6,0.9,1l10,21.9c0.1,0.3,0.2,0.7,0.2,1c0,0.7-0.2,1.3-0.7,1.7
						s-1,0.7-1.7,0.7c-0.5,0-0.9-0.1-1.3-0.4c-0.4-0.2-0.7-0.6-0.9-1l-2.2-4.8h-11.3l-2.2,4.8c-0.2,0.4-0.5,0.8-0.9,1
						s-0.8,0.4-1.3,0.4c-0.7,0-1.3-0.2-1.7-0.7c-0.5-0.5-0.7-1.1-0.7-1.7c0-0.3,0.1-0.7,0.2-1l10-21.9c0.2-0.4,0.5-0.8,0.9-1
						C669.6,56.3,670,56.1,670.5,56.1 M666.9,72.3h7.3l-3.7-8.1L666.9,72.3 M670.5,54.1c-0.9,0-1.7,0.2-2.4,0.7s-1.2,1.1-1.6,1.9
						l-10,21.8c-0.3,0.6-0.4,1.2-0.4,1.8c0,1.2,0.5,2.3,1.3,3.2c0.9,0.9,1.9,1.3,3.2,1.3c0.9,0,1.6-0.2,2.4-0.7
						c0.7-0.5,1.3-1.1,1.6-1.9l1.6-3.6h8.7l1.6,3.6c0.4,0.8,0.9,1.4,1.6,1.9c0.7,0.5,1.5,0.7,2.4,0.7c1.2,0,2.3-0.5,3.1-1.3
						s1.3-1.9,1.3-3.1c0-0.6-0.1-1.2-0.3-1.7v-0.1v-0.1l-10-21.9c-0.4-0.8-1-1.5-1.7-1.9C672.1,54.4,671.3,54.1,670.5,54.1
						L670.5,54.1z M670,70.3l0.6-1.3l0.6,1.3H670L670,70.3z"/>
				</g>
				<g>
					<path class="st9" d="M706.7,83.9c-0.7,0-1.3-0.2-1.8-0.5c-0.6-0.3-1-0.8-1.3-1.4c-0.1-0.2-0.3-0.5-0.5-1l-0.8-1.7
						c-0.4-0.8-0.7-1.5-1.1-2.3c-0.4-0.8-0.8-1.5-1.1-2.2c-0.3-0.6-0.6-1.2-0.8-1.6c0-0.1-0.1-0.1-0.1-0.2h-5.5v7.3
						c0,1-0.4,1.9-1.1,2.6c-0.7,0.7-1.6,1-2.5,1c-1,0-1.9-0.3-2.5-1c-0.7-0.7-1-1.5-1-2.5V59.1c0-1,0.3-1.9,1-2.5
						c0.7-0.7,1.5-1,2.5-1h9.7c1.3,0,2.7,0.1,3.9,0.4c1.3,0.3,2.4,0.8,3.4,1.5s1.8,1.7,2.4,2.8c0.6,1.1,0.9,2.5,0.9,4.1
						c0,1.7-0.4,3.3-1.2,4.6c-0.6,1.1-1.6,2-2.7,2.6c0,0.1,0.1,0.1,0.1,0.2c0.3,0.5,0.6,1.1,0.9,1.7c0.3,0.6,0.6,1.3,1,1.9
						c0.3,0.7,0.6,1.3,0.9,1.9c0.3,0.6,0.5,1.2,0.7,1.7c0.2,0.6,0.3,1,0.3,1.4c0,1-0.3,1.8-1,2.5C708.5,83.5,707.7,83.9,706.7,83.9z
						 M700.5,66.6c0.8,0,1.4-0.2,1.9-0.6c0.3-0.2,0.6-0.6,0.6-1.5c0-1-0.4-1.4-0.6-1.6c-0.5-0.4-1.1-0.6-1.9-0.6h-6.8v4.3
						C693.7,66.6,700.5,66.6,700.5,66.6z"/>
					<path d="M699.8,56.5c1.3,0,2.5,0.1,3.7,0.4c1.2,0.3,2.2,0.7,3,1.4c0.9,0.6,1.5,1.4,2.1,2.4s0.8,2.2,0.8,3.6
						c0,1.5-0.4,2.9-1.1,4.1c-0.7,1.2-1.8,2.1-3.2,2.7c0.1,0.3,0.3,0.6,0.6,1.1s0.5,1,0.9,1.7c0.3,0.6,0.6,1.3,1,1.9
						s0.6,1.3,0.9,1.9c0.3,0.6,0.5,1.1,0.7,1.6s0.3,0.8,0.3,1c0,0.7-0.2,1.3-0.7,1.8s-1.1,0.7-1.8,0.7c-0.5,0-0.9-0.1-1.3-0.4
						c-0.4-0.2-0.7-0.6-0.9-1c-0.1-0.1-0.2-0.5-0.5-1s-0.5-1.1-0.9-1.8c-0.3-0.7-0.7-1.4-1.1-2.2c-0.4-0.8-0.7-1.5-1.1-2.1
						c-0.3-0.7-0.6-1.2-0.8-1.6s-0.3-0.7-0.3-0.7h-7.2v8.3c0,0.7-0.3,1.3-0.8,1.8s-1.1,0.7-1.8,0.7s-1.3-0.2-1.8-0.7
						s-0.7-1.1-0.7-1.8V59.1c0-0.7,0.2-1.3,0.7-1.8s1.1-0.7,1.8-0.7L699.8,56.5 M692.7,67.6h7.8c1,0,1.8-0.3,2.5-0.8
						s1.1-1.3,1.1-2.3s-0.3-1.8-1-2.4c-0.7-0.5-1.5-0.8-2.5-0.8h-7.8L692.7,67.6 M699.8,54.5h-9.7c-1.3,0-2.4,0.5-3.3,1.3
						c-0.9,0.9-1.3,2-1.3,3.3v21.2c0,1.3,0.5,2.4,1.3,3.3c0.9,0.9,2,1.3,3.3,1.3c1.2,0,2.3-0.4,3.2-1.3s1.4-2,1.4-3.3V74h3.9
						c0.2,0.4,0.4,0.8,0.6,1.2c0.3,0.7,0.7,1.4,1.1,2.2c0.4,0.8,0.7,1.5,1.1,2.2v0.1l0.8,1.7c0.3,0.6,0.4,0.9,0.5,1
						c0.4,0.8,0.9,1.4,1.6,1.8c0.7,0.4,1.5,0.7,2.4,0.7c1.2,0,2.3-0.5,3.2-1.3c0.9-0.9,1.3-2,1.3-3.2c0-0.5-0.1-1-0.4-1.7
						c-0.2-0.5-0.4-1.1-0.7-1.7s-0.6-1.3-0.9-1.9c-0.3-0.7-0.7-1.3-1-2c-0.2-0.4-0.4-0.8-0.6-1.1c0.9-0.7,1.7-1.5,2.3-2.5
						c0.9-1.5,1.3-3.2,1.3-5.1c0-1.7-0.3-3.3-1-4.6s-1.5-2.3-2.7-3.1c-1.1-0.8-2.3-1.3-3.7-1.7C702.6,54.7,701.2,54.5,699.8,54.5
						L699.8,54.5z M694.7,63.3h5.8c0.7,0,1.1,0.2,1.3,0.4c0.1,0.1,0.3,0.2,0.3,0.8c0,0.5-0.2,0.7-0.2,0.7c-0.4,0.3-0.8,0.4-1.3,0.4
						h-5.8L694.7,63.3L694.7,63.3z"/>
				</g>
				<g>
					<path class="st9" d="M724.2,83.9c-1,0-1.9-0.4-2.6-1.1c-0.7-0.7-1-1.6-1-2.6V62.4h-6.2c-1,0-1.8-0.3-2.4-1s-1-1.5-1-2.4
						s0.3-1.8,1-2.4c0.7-0.7,1.5-1,2.4-1H734c1,0,1.8,0.3,2.4,1c0.7,0.7,1,1.5,1,2.4s-0.4,1.8-1,2.4c-0.7,0.7-1.5,1-2.4,1h-6.2v17.9
						c0,1-0.4,1.9-1.1,2.6C726.1,83.5,725.2,83.9,724.2,83.9z"/>
					<path d="M734,56.5c0.7,0,1.3,0.2,1.7,0.7c0.5,0.5,0.7,1.1,0.7,1.7c0,0.7-0.2,1.3-0.7,1.7c-0.5,0.5-1.1,0.7-1.7,0.7h-7.2v18.9
						c0,0.7-0.3,1.4-0.8,1.9s-1.1,0.8-1.9,0.8s-1.3-0.3-1.8-0.8s-0.7-1.1-0.7-1.9V61.4h-7.2c-0.7,0-1.3-0.2-1.7-0.7s-0.7-1-0.7-1.7
						s0.2-1.3,0.7-1.7s1-0.7,1.7-0.7L734,56.5 M734,54.5h-19.6c-1.2,0-2.3,0.5-3.2,1.3c-0.8,0.9-1.3,1.9-1.3,3.1
						c0,1.2,0.4,2.3,1.3,3.1c0.8,0.8,1.9,1.3,3.1,1.3h5.2v16.9c0,1.3,0.5,2.4,1.3,3.3c0.9,0.9,2,1.4,3.3,1.4s2.4-0.5,3.3-1.3
						c0.9-0.9,1.3-2,1.3-3.3V63.4h5.2c1.2,0,2.3-0.4,3.1-1.3c0.9-0.8,1.3-1.9,1.3-3.2c0-1.2-0.5-2.3-1.3-3.2
						C736.3,54.9,735.2,54.5,734,54.5L734,54.5z"/>
				</g>
			</g>
		</g>
		<path class="st5" d="M778.8,231.1L778.8,231.1c-2.9,0-5.2-2.3-5.2-5.2V31.3c0-2.9,2.3-5.2,5.2-5.2l0,0c2.9,0,5.2,2.3,5.2,5.2
			v194.6C784,228.8,781.6,231.1,778.8,231.1z"/>
	</g>
	<g>
		<path class="st10" d="M456.5,136c0.2-0.7,1.2-1.1,2.3-0.8c1.1,0.3,1.8,1.1,1.6,1.8c-0.2,0.6-1,1-1.9,0.9l-0.4,1.7l-0.7-0.2
			l0.4-1.7C456.8,137.3,456.3,136.6,456.5,136z"/>
		<path class="st10" d="M451.6,134.7c0.2-0.7,1.2-1.1,2.3-0.8c1.1,0.3,1.8,1.1,1.6,1.8c-0.2,0.6-1,1-1.9,0.9l-0.4,1.7l-0.7-0.2
			l0.4-1.7C452,136,451.5,135.3,451.6,134.7z"/>
		<path class="st10" d="M446.8,133.5c0.2-0.7,1.2-1.1,2.3-0.8c1.1,0.3,1.8,1.1,1.6,1.8c-0.2,0.6-1,1-1.9,0.9l-0.4,1.7l-0.7-0.2
			l0.4-1.7C447.1,134.8,446.6,134.1,446.8,133.5z"/>
		<path class="st10" d="M441.9,132.2c0.2-0.7,1.2-1.1,2.3-0.8c1.1,0.3,1.8,1.1,1.6,1.8c-0.2,0.6-1,1-1.9,0.9l-0.4,1.7l-0.7-0.2
			l0.4-1.7C442.3,133.6,441.8,132.9,441.9,132.2z"/>
		<path class="st10" d="M437.2,131c0.2-0.7,1.2-1.1,2.3-0.8c1.1,0.3,1.8,1.1,1.6,1.8c-0.2,0.6-1,1-1.9,0.9l-0.4,1.7l-0.7-0.2
			l0.4-1.7C437.6,132.4,437,131.7,437.2,131z"/>
		<path class="st10" d="M432.4,129.8c0.2-0.7,1.2-1.1,2.3-0.8c1.1,0.3,1.8,1.1,1.6,1.8c-0.2,0.6-1,1-1.9,0.9l-0.4,1.7l-0.7-0.2
			l0.4-1.7C432.8,131.1,432.3,130.4,432.4,129.8z"/>
		<path class="st11" d="M454.6,149.8l27.6,17.1c0.8,0.5,1.9,0.3,2.4-0.6l3-4.9c0.5-0.8,0.3-1.9-0.6-2.4l-27.5-17
			c-0.8-0.5-1.9-0.3-2.4,0.6l-3,4.9C453.6,148.3,453.8,149.3,454.6,149.8z"/>
		<path class="st12" d="M464,144.8c0,0-0.8-1.5-0.6-3.1c0,0,0.1-1.4-2-1.8l-30.3-7.8c0,0-6.8-1.1-6.5,6.2c0,0,0.3,4.1,5.6,4.9
			c0,0,1.6,0.4,3.6-1.1c0,0,1.4-1.3,3.7,0.9c0,0,9.6,9.4,10.9,9.8c0,0,0.4,0.5,1.6-0.4c0,0,3.4-2.8,9,0L464,144.8z"/>
		<g>
			<path class="st13" d="M574.9,154.6h18.3c14.4,0,26,11.6,26,26v9.3c1.8,0,3.3,1.5,3.3,3.3s-1.5,3.3-3.3,3.3H500.9l-42.8-6
				c-1.7,0-3.2-1.4-3.2-3.2c0-1.7,1.4-3.2,3.2-3.2l-0.2-24.8c0-4.1,3.4-7.5,7.5-7.5h27.5l26.3-13.3c0,0,2.7-1.3,6-1.7
				s26.7,0.7,26.7,0.7s7.3-1,11.3,5.3s12,12,12,12"/>
			<path class="st14" d="M602.4,160.8H627c19.2,0,34.8,15.5,34.8,34.6v12.4c2.5,0,4.5,2,4.5,4.4s-2,4.4-4.5,4.4H503.5l-57.3-8
				c-2.3,0-4.2-1.9-4.2-4.2s1.9-4.2,4.2-4.2l-0.2-33c0-5.5,4.5-10,10-10h36.8l35.2-17.7c0,0,3.6-1.8,8-2.2s35.7,0.9,35.7,0.9
				s9.8-1.3,15.2,7.1c5.3,8.4,16,15.9,16,15.9"/>
			<g>
				<g>
					<g>
						
							<ellipse transform="matrix(0.1602 -0.9871 0.9871 0.1602 260.7426 653.4662)" class="st15" cx="514.4" cy="173.5" rx="40.6" ry="40.6"/>
						<path class="st12" d="M514.4,214.3c-2.6,0-5.2-0.3-7.8-0.8c-10.7-2.1-19.9-8.2-26-17.2s-8.3-19.9-6.2-30.6
							c4.3-22.1,25.7-36.5,47.8-32.3c10.7,2.1,19.9,8.2,26,17.2s8.3,19.9,6.2,30.6c-2.1,10.7-8.2,19.9-17.2,26
							C530.4,211.9,522.5,214.3,514.4,214.3z M514.3,133c-19,0-35.9,13.4-39.7,32.8c-2.1,10.6,0.1,21.4,6.2,30.3
							c6,9,15.2,15,25.8,17.1s21.4-0.1,30.3-6.2c9-6,15-15.2,17.1-25.8s-0.1-21.4-6.2-30.3c-6-9-15.2-15-25.8-17.1
							C519.5,133.3,516.9,133,514.3,133z"/>
					</g>
					<g>
						
							<ellipse transform="matrix(0.1602 -0.9871 0.9871 0.1602 260.7426 653.4662)" class="st15" cx="514.4" cy="173.5" rx="31.4" ry="31.4"/>
						<path class="st12" d="M514.4,205.1c-2,0-4-0.2-6-0.6c-17.1-3.3-28.3-19.9-25-37s19.9-28.3,37-25c8.3,1.6,15.5,6.3,20.2,13.3
							s6.4,15.4,4.8,23.7C542.5,194.6,529.2,205.1,514.4,205.1z M514.3,142.2c-14.7,0-27.8,10.4-30.7,25.3
							c-1.6,8.2,0.1,16.5,4.8,23.5c4.7,6.9,11.8,11.6,20,13.2c16.9,3.3,33.4-7.8,36.7-24.8c1.6-8.2-0.1-16.5-4.8-23.5
							c-4.7-6.9-11.8-11.6-20-13.2C518.3,142.4,516.3,142.2,514.3,142.2z"/>
					</g>
					<g>
						<circle class="st15" cx="514.4" cy="173.5" r="25.2"/>
						<path class="st12" d="M514.4,198.9c-1.6,0-3.2-0.2-4.8-0.5c-6.7-1.3-12.4-5.1-16.2-10.7c-3.8-5.6-5.2-12.4-3.9-19
							c2.7-13.7,16-22.8,29.8-20.1c6.7,1.3,12.4,5.1,16.2,10.7c3.8,5.6,5.2,12.4,3.9,19C536.9,190.4,526.3,198.9,514.4,198.9z
							 M514.3,148.4c-4.9,0-9.8,1.5-14,4.3c-5.5,3.7-9.3,9.4-10.6,16c-1.3,6.6,0.1,13.2,3.8,18.8c3.7,5.5,9.4,9.3,16,10.6
							c13.6,2.6,26.7-6.3,29.4-19.8h0.2h-0.2c2.6-13.6-6.3-26.7-19.8-29.4C517.5,148.6,515.9,148.4,514.3,148.4z"/>
					</g>
					<g>
						<circle class="st15" cx="514.4" cy="173.5" r="21.7"/>
						<path class="st12" d="M514.4,195.4c-1.4,0-2.8-0.1-4.2-0.4c-11.9-2.3-19.6-13.8-17.3-25.7c2.3-11.9,13.8-19.6,25.7-17.3
							c5.7,1.1,10.7,4.4,14,9.2s4.5,10.7,3.4,16.4h-0.2h0.2c-1.1,5.7-4.4,10.7-9.2,14C522.9,194.1,518.7,195.4,514.4,195.4z
							 M514.3,151.9c-4.3,0-8.4,1.3-12,3.7c-4.8,3.2-8,8.1-9.1,13.8s0.1,11.4,3.3,16.2c3.2,4.8,8.1,8,13.8,9.1s11.4-0.1,16.2-3.3
							s8-8.1,9.1-13.8s-0.1-11.4-3.3-16.2s-8.1-8-13.8-9.1C517.1,152,515.7,151.9,514.3,151.9z"/>
					</g>
					<g>
						<circle cx="514.4" cy="173.5" r="18"/>
					</g>
					<g>
						<circle class="st15" cx="514.4" cy="173.5" r="14.5"/>
					</g>
					<g>
						<circle cx="514.4" cy="173.5" r="1.2"/>
					</g>
					<g>
						<path class="st16" d="M523.7,170.3l-16.9-3.3c-0.4-0.1-0.6-0.4-0.6-0.8l0.3-1.7c0.1-0.4,0.4-0.6,0.8-0.6l16.9,3.3
							c0.4,0.1,0.6,0.4,0.6,0.8l-0.3,1.7C524.5,170.1,524.1,170.4,523.7,170.3z"/>
					</g>
					<g>
						<path class="st16" d="M523.7,171.9l-17.5-3.4c-0.2,0-0.4-0.2-0.3-0.5v-0.2c0-0.2,0.2-0.4,0.5-0.3l17.5,3.4
							c0.2,0,0.4,0.2,0.3,0.5v0.2C524.2,171.8,524,171.9,523.7,171.9z"/>
					</g>
				</g>
				<g>
					<polygon class="st17" points="546.9,149.5 473.9,174.3 474.1,177.3 548.8,152.3 					"/>
					<polygon class="st17" points="549.7,153.8 474.3,179.4 474.6,181.2 550.5,155.4 					"/>
				</g>
			</g>
			<g class="st18">
				<g>
					<g>
						<path d="M575.8,174.1c0.1,1.5,0.1,2.7-0.1,3.9c-0.2,1.1-0.6,2.2-1,3.2c-0.6,1.4-1.5,2.5-2.6,3.5c-0.2,0.2-0.3,0.4-0.3,0.8
							c0.1,0.7,0.3,1.5,0.4,2.2c0.1,0.3,0.2,0.4,0.5,0.4c1.3,0.1,2.5,0.4,3.7,0.9c1.8,0.8,3.1,2.2,3.7,4.2c0.4,1.4,0.4,2.7,0.1,4.1
							c-0.4,1.7-1.2,3.1-2.6,4.2c-0.6,0.5-1.3,0.8-1.9,1.2c-0.2,0.1-0.3,0.2-0.5,0.2c-0.2,0.1-0.3,0.2-0.2,0.4
							c0.1,0.7,0.3,1.4,0.4,2.1c0.1,0.4,0.2,0.8,0.2,1.2c0.1,0.8,0.2,1.5,0.3,2.3c0.1,1.3-0.2,2.5-1,3.6c-0.6,0.8-1.4,1.3-2.3,1.6
							c-1,0.4-2,0.4-3,0.3c-0.9-0.1-1.7-0.4-2.5-0.8c-0.5-0.3-1-0.7-1.4-1.2c-0.8-1-1.2-2.2-1-3.5c0.2-1.1,0.7-2.1,1.6-2.7
							c1.1-0.8,2.3-0.9,3.6-0.3c1.5,0.8,2.1,2,2,3.6c0,0.8-0.3,1.4-0.7,2.1c-0.1,0.1-0.2,0.3-0.2,0.4c-0.1,0.2,0,0.3,0.2,0.3
							c0.4,0.1,0.7,0,1.1-0.2c1.1-0.4,2.1-1.9,1.9-3.2c-0.1-0.9-0.3-1.7-0.4-2.6c-0.1-0.8-0.3-1.6-0.4-2.5c0-0.1,0-0.1,0-0.2
							c0-0.3-0.2-0.4-0.4-0.4s-0.4,0-0.6,0c-1,0-1.9-0.1-2.9-0.3c-1.5-0.3-2.9-0.8-4.2-1.6c-0.8-0.4-1.5-1-2-1.8
							c-0.9-1.3-1.6-2.7-1.8-4.3s0-3.2,0.6-4.7c0.5-1.2,1-2.3,1.8-3.4c0.7-1.1,1.5-2,2.5-2.9c0.8-0.7,1.6-1.5,2.4-2.2
							c0.2-0.2,0.4-0.3,0.6-0.5c0.1-0.1,0.2-0.2,0.2-0.4c-0.1-0.5-0.1-0.9-0.2-1.4c-0.2-1.3-0.3-2.5-0.4-3.8c-0.1-1.5,0-3,0.5-4.5
							c0.4-1.2,1.1-2.1,2.2-2.8c0.6-0.3,1.2-0.5,1.8-0.1c0.3,0.2,0.6,0.4,0.8,0.7c0.7,0.9,1.2,1.8,1.5,2.9
							C575.6,173,575.8,173.7,575.8,174.1z M570.5,187.5L570.5,187.5c-0.1-0.2-0.1-0.5-0.1-0.7c0-0.3-0.2-0.4-0.5-0.3
							c-0.1,0-0.1,0-0.2,0.1c-0.4,0.3-0.9,0.6-1.3,1c-0.9,0.7-1.7,1.6-2.3,2.5c-1,1.5-1.8,3-1.9,4.8c0,0.4-0.1,0.8,0,1.1
							c0,1.2,0.6,2.2,1.3,3c1,1.2,2.4,1.8,3.8,2.2c1,0.2,2,0.3,3,0.2c0.5,0,0.7-0.2,0.6-0.7c-0.1-0.6-0.2-1.2-0.3-1.8
							c-0.2-1.2-0.4-2.4-0.6-3.6c-0.2-1-0.3-2-0.5-3c0-0.1-0.1-0.2-0.2-0.3c-0.1,0-0.2,0-0.3,0c-0.4,0-0.7,0.2-1,0.3
							c-1.3,0.6-2,2.1-1.9,3.4c0.1,0.7,0.3,1.3,0.7,1.8c0.4,0.6,0.9,1.2,1.6,1.5c0.3,0.2,0.6,0.3,0.9,0.4c0.2,0.1,0.4,0.4,0.3,0.6
							c0,0.1-0.1,0.1-0.1,0.2c-0.3,0.1-0.7,0.1-1,0.1c-0.7-0.1-1.4-0.4-2-0.9c-0.9-0.7-1.4-1.6-1.7-2.6c-0.4-1.2-0.4-2.5,0-3.7
							c0.3-1.1,0.8-2.1,1.6-2.9c0.7-0.7,1.3-1.3,2.2-1.7c0.2-0.1,0.3-0.2,0.3-0.5C570.6,187.9,570.5,187.7,570.5,187.5z M578,195.8
							c0-0.2-0.1-0.4-0.2-0.7c-0.3-0.9-0.8-1.8-1.6-2.3c-0.7-0.5-1.6-0.8-2.5-1c-0.2,0-0.3,0-0.5,0s-0.3,0.1-0.2,0.3
							c0.1,0.8,0.3,1.7,0.4,2.5c0.2,1.4,0.5,2.9,0.8,4.3c0.1,0.5,0.2,1,0.3,1.5c0.1,0.3,0.3,0.4,0.6,0.3c0.1,0,0.1-0.1,0.2-0.1
							c0.4-0.2,0.7-0.5,1.1-0.8C577.5,198.8,578.1,197.5,578,195.8z M570.3,178.1C570.2,178.1,570.2,178.1,570.3,178.1
							c0.1,0.5,0.2,1.1,0.3,1.6c0.1,0.4,0.4,0.5,0.8,0.3c0.1,0,0.1-0.1,0.2-0.1c0.4-0.3,0.8-0.6,1.1-1c0.9-1,1.4-2.3,1.6-3.6
							c0.1-0.8,0-1.6-0.6-2.3c-0.3-0.4-0.7-0.5-1.2-0.4c-0.4,0.1-0.6,0.3-0.9,0.6c-0.5,0.6-0.8,1.3-1,2.1
							C570.3,176.2,570.2,177.2,570.3,178.1z"/>
					</g>
				</g>
				<g>
					<path d="M633.2,167.8l-52.1,6.7c-0.5,0.1-0.9-0.3-1-0.7l-0.1-0.5c-0.1-0.5,0.3-0.9,0.7-1l52.1-6.7c0.5-0.1,0.9,0.3,1,0.7
						l0.1,0.5C634,167.3,633.6,167.7,633.2,167.8z"/>
					<path d="M634.4,177.7l-52.1,6.7c-0.5,0.1-0.9-0.3-1-0.7l-0.1-0.5c-0.1-0.5,0.3-0.9,0.7-1l52.1-6.7c0.5-0.1,0.9,0.3,1,0.7
						l0.1,0.5C635.2,177.2,634.9,177.6,634.4,177.7z"/>
					<path d="M635.7,187.6l-52.1,6.7c-0.5,0.1-0.9-0.3-1-0.7l-0.1-0.5c-0.1-0.5,0.3-0.9,0.7-1l52.1-6.7c0.5-0.1,0.9,0.3,1,0.7
						l0.1,0.5C636.5,187.1,636.2,187.5,635.7,187.6z"/>
					<path d="M637,197.5l-52.1,6.7c-0.5,0.1-0.9-0.3-1-0.7l-0.1-0.5c-0.1-0.5,0.3-0.9,0.7-1l52.1-6.7c0.5-0.1,0.9,0.3,1,0.7l0.1,0.5
						C637.8,197,637.5,197.4,637,197.5z"/>
				</g>
			</g>
			<polygon class="st19" points="569.6,182.3 570.3,206.5 590.1,195.1 			"/>
			<polygon class="st19" points="542.4,182.7 543.2,206.9 562.9,195.4 			"/>
			<polygon class="st19" points="515.2,182.7 516,206.9 535.7,195.4 			"/>
			<path class="st20" d="M661.7,207.8c2.5,0,4.5,2,4.5,4.4s-2,4.4-4.5,4.4H503.5l-57.3-8c-2.3,0-4.2-1.9-4.2-4.2s1.9-4.2,4.2-4.2
				l-0.2-19.9l9.4,8.9l-0.4,11.1v2.7l47.3,6.2L661.7,207.8z"/>
			<path class="st21" d="M661.7,197.6c0,0-12.9-34.6-59.7-21.7l-156-8.6c0-5.5,4.5-10,10-10h36.8c6.2,0,99.9,11.5,99.9,11.5l9.8-8
				H627C627,160.8,661.7,159.9,661.7,197.6z"/>
			<g>
				<ellipse class="st22" cx="485.4" cy="200.1" rx="24.6" ry="24.5"/>
				<ellipse class="st23" cx="485.4" cy="200.1" rx="24" ry="23.8"/>
				<ellipse cx="485.4" cy="200.1" rx="18" ry="17.9"/>
				<ellipse class="st3" cx="485.4" cy="200.1" rx="17.1" ry="17"/>
				<ellipse class="st24" cx="485.4" cy="200.1" rx="16.3" ry="16.2"/>
				<ellipse class="st25" cx="485.4" cy="200.1" rx="10.1" ry="10"/>
				<ellipse class="st10" cx="485.4" cy="200.1" rx="9.2" ry="9.2"/>
			</g>
			<g>
				<ellipse class="st22" cx="623.6" cy="200.1" rx="24.6" ry="24.5"/>
				<ellipse class="st23" cx="623.6" cy="200.1" rx="24" ry="23.8"/>
				<ellipse cx="623.6" cy="200.1" rx="18" ry="17.9"/>
				<ellipse class="st3" cx="623.6" cy="200.1" rx="17.1" ry="17"/>
				<ellipse class="st24" cx="623.6" cy="200.1" rx="16.3" ry="16.2"/>
				<ellipse class="st25" cx="623.6" cy="200.1" rx="10.1" ry="10"/>
				<ellipse class="st10" cx="623.6" cy="200.1" rx="9.2" ry="9.2"/>
			</g>
			
				<linearGradient id="SVGID_3_" gradientUnits="userSpaceOnUse" x1="528.181" y1="95.4889" x2="583.2761" y2="95.4889" gradientTransform="matrix(1 0 0 -1 0 252)">
				<stop  offset="0" style="stop-color:#C9E7F9"/>
				<stop  offset="0.9996" style="stop-color:#AAFFF9"/>
			</linearGradient>
			<path class="st26" d="M583.3,167.9c-12.9-23.5-19.6-22.6-19.6-22.6s-16.9-0.4-22.3,0c-5.3,0.4-7.1,3.5-7.1,3.5l-5.3,7.5
				c0,0-3.6,4.4,5.3,5.3C541.3,162.4,583.3,167.9,583.3,167.9z"/>
			
				<linearGradient id="SVGID_4_" gradientUnits="userSpaceOnUse" x1="578.0748" y1="95.2" x2="602.8749" y2="95.2" gradientTransform="matrix(1 0 0 -1 0 252)">
				<stop  offset="0" style="stop-color:#C9E7F9"/>
				<stop  offset="0.9996" style="stop-color:#AAFFF9"/>
			</linearGradient>
			<path class="st27" d="M586.8,145.3l16,15.5l-8.9,7.5l-14.7-18.6c0,0-2.7-2.7,0-4L586.8,145.3z"/>
		</g>
		<g>
			<path class="st11" d="M440.8,143.2l-0.3-0.2l-0.8,0.9l-0.3-0.3l0.8-0.9l-0.3-0.2l0.3-0.3l0.9,0.8L440.8,143.2z"/>
			<path class="st11" d="M440.9,143.9l0.2-1l0.4,0.3l-0.1,0.5l0.5-0.2l0.4,0.3l-1,0.4l-0.4,0.5l-0.3-0.3L440.9,143.9z"/>
			<path class="st11" d="M442.3,143.9l0.5,0.4c0.3,0.2,0.3,0.6,0.1,0.8c-0.2,0.2-0.6,0.3-0.8,0.1l-0.1-0.1l-0.3,0.4l-0.3-0.3
				L442.3,143.9z M442.6,144.9c0.1-0.1,0-0.2,0-0.3l-0.1-0.1l-0.2,0.3l0.1,0.1C442.4,144.9,442.5,144.9,442.6,144.9z"/>
			<path class="st11" d="M443.5,145.4l-0.1,0.2l0.4,0.3l-0.2,0.3l-0.4-0.3L443,146l0.5,0.4l-0.3,0.3l-0.8-0.7l1-1.2l0.8,0.7
				l-0.2,0.3L443.5,145.4z"/>
			<path class="st11" d="M444,147.4l0.1-0.8l-0.4,0.5l-0.3-0.3l1-1.2l0.5,0.4c0.3,0.2,0.3,0.6,0.1,0.8c-0.1,0.2-0.3,0.2-0.5,0.2
				l-0.1,0.8L444,147.4z M444.2,146.4l0.1,0.1c0.1,0.1,0.2,0.1,0.2,0c0.1-0.1,0-0.2,0-0.2l-0.1-0.1L444.2,146.4z"/>
			<path class="st11" d="M445.4,148.3l-0.5-0.4l-0.2,0.1l-0.4-0.3l1.6-0.8l0.2,0.1l-0.5,1.7l-0.4-0.3L445.4,148.3z M445.5,148
				l0.1-0.4l-0.4,0.2L445.5,148z"/>
			<path class="st11" d="M446.2,148.1c0.3-0.4,0.8-0.4,1.2-0.1c0.2,0.1,0.3,0.3,0.3,0.6l-0.4,0.1c0-0.1-0.1-0.3-0.2-0.3
				c-0.2-0.2-0.5-0.1-0.6,0c-0.2,0.2-0.1,0.5,0.1,0.6c0.1,0.1,0.2,0.1,0.4,0.1v0.4c-0.2,0-0.4,0-0.6-0.2
				C446,149,445.9,148.5,446.2,148.1z"/>
			<path class="st11" d="M448,149.1l-0.1,0.2l0.4,0.3l-0.2,0.3l-0.4-0.3l-0.1,0.2l0.5,0.4l-0.3,0.3l-0.8-0.7l1-1.2l0.8,0.7l-0.2,0.3
				L448,149.1z"/>
			<path class="st11" d="M448.6,151.1l0.1-0.8l-0.4,0.5l-0.3-0.3l1-1.2l0.5,0.4c0.3,0.2,0.3,0.6,0.1,0.8c-0.1,0.2-0.3,0.2-0.5,0.2
				l-0.1,0.8L448.6,151.1z M448.8,150.2l0.1,0.1c0.1,0.1,0.2,0.1,0.2,0c0.1-0.1,0-0.2,0-0.2L449,150L448.8,150.2z"/>
		</g>
	</g>
</g>
<g id="Layer_2_1_">
</g>
</svg>
