<?xml version="1.0" encoding="utf-8"?>
<!-- Generator: Adobe Illustrator 25.0.1, SVG Export Plug-In . SVG Version: 6.00 Build 0)  -->
<svg version="1.1" id="Layer_1" xmlns="http://www.w3.org/2000/svg" xmlns:xlink="http://www.w3.org/1999/xlink" x="0px" y="0px"
	 viewBox="0 0 800 250" style="enable-background:new 0 0 800 250;" xml:space="preserve">
<style type="text/css">
	.st0{fill:#222222;}
	.st1{opacity:0.75;}
	.st2{fill:#FFFFFF;}
	.st3{opacity:0.2;}
	.st4{opacity:0.25;}
	.st5{opacity:0.8;fill:#FFFFFF;enable-background:new    ;}
	.st6{fill:#1C1C1C;}
	.st7{fill:#444444;}
	.st8{fill:#FF0000;}
	.st9{clip-path:url(#SVGID_2_);}
	.st10{fill:#FFFFFF;stroke:#000000;stroke-miterlimit:10;}
	.st11{fill:#3B3B3B;}
	.st12{fill:url(#SVGID_3_);}
	.st13{fill:#ACAFBC;}
	.st14{fill:#EFB14D;}
	.st15{fill:#AF7000;}
	.st16{display:none;fill:#FF6661;}
	.st17{fill:#F4380C;}
	.st18{fill:#F7A90B;}
	.st19{fill:#A86B00;}
	.st20{opacity:0.64;fill:#FFFFFF;enable-background:new    ;}
	.st21{opacity:0.65;}
	.st22{display:none;fill:#0D6805;}
	.st23{fill:#A8240B;}
	.st24{opacity:0.12;enable-background:new    ;}
	.st25{fill:#32323F;}
	.st26{fill:#474757;}
	.st27{fill:#DDDDDD;}
	.st28{fill:#BAC0D8;}
	.st29{fill:url(#SVGID_4_);}
	.st30{fill:url(#SVGID_5_);}
	.st31{opacity:0.47;fill:url(#SVGID_6_);enable-background:new    ;}
</style>
<g id="Layer_1_1_">
	<rect class="st0" width="800" height="250"/>
</g>
<g>
	<g class="st1">
		<g>
			<path class="st2" d="M89.8,153.8c-0.6-0.9-0.6-0.9,0.1-1.7c2.2-2.4,4.5-4.8,6.6-7.3c3.6-4.4,5.9-9.4,6.4-15.1
				c0.2-2.1,0.2-4.2-0.2-6.3c-0.4-2-1.1-3.9-2.3-5.6c-2.1-2.9-4.9-3.8-8.3-2.6c-1.8,0.6-3.4,1.5-4.5,3.1c-0.6,0.9-1,1.9-1,3
				c0,0.2,0.2,0.5,0.4,0.6c0.4,0.3,0.9,0.2,1.4,0.1c0.7-0.3,1.5-0.7,2.3-0.8c1.7-0.3,3.5,0.7,4.2,2.1c0.7,1.5,0.4,3.3-0.8,4.7
				c-2,2.2-6.9,2.5-8.9-0.8c-1.1-1.9-1.2-4-0.5-6.1c0.7-2,2-3.6,3.6-4.9c2.8-2.1,5.9-3.3,9.4-3.2c5.4,0.2,10.1,3.9,11.5,9
				c1.2,4.3,0.5,8.4-1.5,12.4c-2.4,4.8-5.7,8.9-9.7,12.5C95.4,149.2,92.6,151.5,89.8,153.8C90,153.7,89.9,153.8,89.8,153.8z"/>
			<path class="st2" d="M114.4,123.5c1.4-0.3,2.9,0.7,3.2,2c0.3,1.5-0.6,2.9-2,3.2c-1.5,0.3-2.8-0.5-3.2-2.1
				C112.1,125.1,112.9,123.9,114.4,123.5z"/>
			<path class="st2" d="M112.2,113.2c1.4-0.3,2.9,0.6,3.2,2c0.3,1.4-0.6,2.8-2.1,3.1c-1.4,0.3-2.8-0.6-3.1-2.1
				C109.8,114.9,110.7,113.5,112.2,113.2z"/>
		</g>
	</g>
	<g class="st1">
		<g>
			<path class="st2" d="M493.5,95.3c0.1-1.1,0.1-1.1,1.1-1.3c3.2-0.6,6.5-1.1,9.7-1.8c5.5-1.3,10.3-3.9,14.2-8.1
				c1.4-1.6,2.7-3.2,3.7-5.2c0.9-1.8,1.5-3.8,1.6-5.8c0.1-3.6-1.6-6-5-7.1c-1.8-0.6-3.6-0.9-5.5-0.3c-1.1,0.3-1.9,0.9-2.6,1.8
				c-0.1,0.2-0.1,0.5,0,0.8c0.2,0.5,0.6,0.7,1.1,0.9c0.8,0.2,1.6,0.4,2.3,0.7c1.5,0.8,2.4,2.7,2.1,4.2c-0.3,1.6-1.7,2.9-3.5,3.2
				c-3,0.5-7-2.2-6.6-6.1c0.3-2.2,1.5-3.9,3.4-5.2c1.8-1.2,3.7-1.7,5.8-1.7c3.5,0,6.7,0.9,9.4,3.1c4.2,3.4,5.7,9.2,3.8,14.1
				c-1.7,4.1-4.7,7-8.7,9c-4.8,2.4-10,3.6-15.3,4c-3.5,0.3-7.1,0.4-10.6,0.6C493.7,95.3,493.6,95.3,493.5,95.3z"/>
			<path class="st2" d="M531.4,86.1c1.3,0.6,1.9,2.3,1.3,3.5c-0.7,1.4-2.2,1.9-3.5,1.3c-1.4-0.7-1.9-2.1-1.3-3.6
				C528.6,85.9,530,85.4,531.4,86.1z"/>
			<path class="st2" d="M535.9,76.5c1.3,0.6,1.9,2.3,1.3,3.6c-0.6,1.3-2.2,1.8-3.5,1.2c-1.3-0.6-1.9-2.1-1.2-3.6
				C533,76.4,534.5,75.8,535.9,76.5z"/>
		</g>
	</g>
	<g class="st1">
		<g>
			<path class="st2" d="M743.1,208.9c-0.3-0.5-0.3-0.5,0.1-0.9c1.2-1.3,2.5-2.5,3.7-3.8c2-2.3,3.3-4.9,3.7-7.9
				c0.2-1.1,0.2-2.3,0-3.4c-0.2-1.1-0.5-2.1-1.1-3c-1-1.6-2.6-2.1-4.4-1.5c-1,0.3-1.9,0.7-2.5,1.6c-0.4,0.5-0.6,1-0.6,1.6
				c0,0.1,0.1,0.3,0.2,0.3c0.2,0.1,0.5,0.1,0.7,0.1c0.4-0.1,0.8-0.3,1.2-0.4c0.9-0.1,1.9,0.4,2.2,1.2c0.4,0.8,0.1,1.8-0.5,2.5
				c-1.1,1.1-3.8,1.2-4.7-0.6c-0.6-1.1-0.5-2.2-0.1-3.3s1.1-1.9,2-2.5c1.5-1.1,3.2-1.7,5.1-1.5c2.9,0.2,5.3,2.3,6,5
				c0.6,2.3,0.1,4.5-1,6.6c-1.4,2.5-3.2,4.7-5.5,6.5c-1.5,1.2-3,2.3-4.5,3.5C743.2,208.9,743.2,208.9,743.1,208.9z"/>
			<path class="st2" d="M756.9,193.2c0.7-0.1,1.5,0.4,1.7,1.1c0.1,0.8-0.4,1.5-1.2,1.7c-0.8,0.1-1.5-0.3-1.6-1.2
				C755.6,194,756.1,193.3,756.9,193.2z"/>
			<path class="st2" d="M755.9,187.6c0.8-0.1,1.5,0.4,1.7,1.2c0.1,0.8-0.4,1.5-1.2,1.6s-1.5-0.4-1.6-1.2
				C754.6,188.5,755.1,187.8,755.9,187.6z"/>
		</g>
	</g>
	<g class="st1">
		<g>
			<path class="st2" d="M21.9,79.9c0.2,2.2,0.2,3.9-0.1,5.7c-0.3,1.6-0.8,3.1-1.5,4.6c-0.9,1.9-2.2,3.6-3.7,5
				c-0.3,0.3-0.5,0.6-0.4,1.1c0.2,1.1,0.4,2.1,0.6,3.2c0.1,0.5,0.3,0.6,0.8,0.6c1.8,0.1,3.6,0.5,5.3,1.3c2.6,1.2,4.4,3.2,5.3,6
				c0.6,1.9,0.6,3.9,0.1,5.9c-0.6,2.4-1.8,4.5-3.7,6.1c-0.8,0.7-1.8,1.2-2.8,1.7c-0.2,0.1-0.5,0.2-0.7,0.3c-0.4,0.2-0.4,0.2-0.3,0.6
				c0.2,1,0.4,2,0.6,3c0.1,0.6,0.2,1.2,0.3,1.8c0.1,1.1,0.3,2.2,0.4,3.3c0.1,1.9-0.3,3.6-1.5,5.2c-0.8,1.1-2,1.8-3.3,2.3
				c-1.4,0.5-2.9,0.6-4.4,0.4c-1.3-0.2-2.5-0.5-3.6-1.2c-0.7-0.5-1.4-1-2-1.7c-1.2-1.5-1.8-3.2-1.4-5.1c0.3-1.6,1-3,2.4-3.9
				c1.6-1.2,3.4-1.3,5.1-0.4c2.1,1.1,3,2.9,2.9,5.2c0,1.1-0.5,2.1-1,3c-0.1,0.2-0.2,0.4-0.3,0.6c-0.1,0.3,0,0.4,0.3,0.5
				c0.5,0.1,1,0,1.5-0.2c1.6-0.6,3-2.7,2.7-4.6c-0.2-1.2-0.4-2.4-0.6-3.7c-0.2-1.2-0.4-2.4-0.6-3.5c0-0.1,0-0.2-0.1-0.3
				c-0.1-0.4-0.3-0.5-0.6-0.5c-0.3,0-0.6,0-0.8,0c-1.4,0-2.8-0.2-4.1-0.5c-2.2-0.4-4.2-1.2-6.1-2.3c-1.1-0.6-2.1-1.5-2.9-2.5
				c-1.4-1.8-2.3-3.9-2.6-6.2c-0.3-2.3,0-4.6,0.8-6.8c0.7-1.7,1.5-3.3,2.5-4.9c1-1.5,2.2-2.9,3.6-4.2c1.1-1.1,2.3-2.1,3.4-3.2
				c0.3-0.3,0.6-0.5,0.8-0.7s0.3-0.3,0.2-0.6c-0.1-0.7-0.2-1.3-0.3-2c-0.2-1.8-0.5-3.6-0.6-5.4c-0.2-2.2,0-4.4,0.8-6.5
				c0.6-1.7,1.6-3,3.1-4c0.8-0.5,1.7-0.7,2.5-0.2c0.4,0.2,0.8,0.6,1.1,1c1,1.2,1.7,2.6,2.2,4.1C21.6,78.3,21.8,79.3,21.9,79.9z
				 M14.2,99.2L14.2,99.2c-0.1-0.3-0.2-0.7-0.2-1c-0.1-0.4-0.3-0.6-0.7-0.4c-0.1,0-0.2,0.1-0.3,0.1c-0.6,0.4-1.3,0.9-1.9,1.4
				c-1.3,1.1-2.4,2.3-3.3,3.6c-1.5,2.1-2.6,4.3-2.8,6.9c0,0.5-0.1,1.1-0.1,1.6c0.1,1.7,0.8,3.1,1.9,4.4c1.5,1.7,3.4,2.6,5.5,3.1
				c1.4,0.3,2.9,0.4,4.3,0.3c0.8-0.1,0.9-0.2,0.8-1c-0.1-0.9-0.3-1.7-0.5-2.5c-0.3-1.7-0.6-3.5-0.9-5.2c-0.2-1.4-0.5-2.8-0.7-4.3
				c0-0.2-0.1-0.3-0.3-0.4c-0.1,0-0.3,0-0.4,0c-0.5,0-1,0.3-1.5,0.5c-1.9,0.8-2.9,3-2.8,4.9c0.1,1,0.4,1.8,0.9,2.6
				c0.6,0.9,1.3,1.7,2.3,2.2c0.4,0.2,0.9,0.4,1.3,0.6c0.3,0.1,0.5,0.6,0.4,0.9c0,0.1-0.1,0.2-0.2,0.2c-0.5,0.2-0.9,0.2-1.4,0.1
				c-1.1-0.2-2-0.6-2.8-1.3c-1.2-1-2-2.2-2.5-3.7c-0.6-1.8-0.6-3.6,0-5.4c0.5-1.6,1.2-3,2.3-4.1c0.9-1,1.9-1.9,3.2-2.5
				c0.4-0.2,0.4-0.3,0.4-0.7C14.3,99.9,14.3,99.5,14.2,99.2z M25,111.1c-0.1-0.2-0.1-0.6-0.3-1c-0.4-1.3-1.2-2.5-2.3-3.3
				c-1.1-0.8-2.3-1.2-3.6-1.4c-0.2,0-0.5,0-0.7,0c-0.3,0.1-0.4,0.2-0.3,0.5c0.2,1.2,0.4,2.4,0.6,3.6c0.4,2.1,0.7,4.1,1.1,6.2
				c0.1,0.7,0.3,1.4,0.4,2.1c0.1,0.4,0.4,0.6,0.8,0.4c0.1,0,0.2-0.1,0.3-0.1c0.5-0.4,1.1-0.7,1.5-1.1
				C24.3,115.5,25.2,113.6,25,111.1z M13.9,85.7C13.9,85.7,13.8,85.8,13.9,85.7c0.1,0.8,0.2,1.6,0.4,2.3c0.1,0.5,0.6,0.7,1.1,0.5
				c0.1,0,0.2-0.1,0.3-0.2c0.5-0.5,1.1-0.9,1.5-1.5c1.3-1.5,2-3.3,2.3-5.2c0.2-1.2,0-2.3-0.8-3.3c-0.4-0.6-1-0.8-1.7-0.6
				c-0.5,0.1-0.9,0.4-1.3,0.8c-0.7,0.9-1.2,1.9-1.5,3C13.9,83,13.8,84.4,13.9,85.7z"/>
		</g>
	</g>
	<g class="st1">
		<g>
			<path class="st2" d="M458.3,66.4c-0.3,2.1-0.7,3.9-1.4,5.5c-0.6,1.5-1.5,2.9-2.4,4.2c-1.3,1.7-2.9,3-4.7,4.1
				c-0.4,0.2-0.6,0.5-0.6,1c0,1.1-0.1,2.1-0.1,3.2c0,0.5,0.1,0.7,0.6,0.8c1.8,0.5,3.4,1.3,4.9,2.4c2.3,1.8,3.6,4.1,3.8,7
				c0.2,2-0.3,3.9-1.2,5.8c-1.1,2.2-2.7,4-4.9,5.1c-1,0.5-2,0.8-3.1,1c-0.3,0.1-0.5,0.1-0.8,0.2c-0.4,0.1-0.4,0.1-0.5,0.5
				c0,1-0.1,2.1-0.1,3.1c0,0.6,0,1.2-0.1,1.8c-0.1,1.1-0.2,2.2-0.4,3.3c-0.3,1.9-1.1,3.5-2.6,4.7c-1.1,0.9-2.3,1.4-3.7,1.6
				c-1.5,0.2-2.9,0-4.3-0.5c-1.2-0.4-2.3-1-3.2-1.9c-0.6-0.6-1.2-1.3-1.6-2.1c-0.8-1.7-1-3.5-0.2-5.3c0.6-1.5,1.6-2.7,3.2-3.3
				c1.8-0.8,3.6-0.5,5.1,0.8c1.8,1.5,2.3,3.5,1.7,5.7c-0.3,1.1-0.9,1.9-1.7,2.7c-0.2,0.1-0.3,0.3-0.4,0.5s-0.1,0.4,0.2,0.5
				c0.5,0.2,1,0.2,1.5,0.1c1.7-0.3,3.5-2,3.7-3.9c0.1-1.2,0.1-2.5,0.2-3.7s0.1-2.4,0.2-3.6c0-0.1,0-0.2,0-0.3c0-0.4-0.1-0.6-0.5-0.6
				c-0.3-0.1-0.6-0.1-0.8-0.2c-1.4-0.3-2.6-0.8-3.9-1.3c-2-0.8-3.8-2.1-5.5-3.5c-1-0.9-1.7-1.9-2.3-3.1c-0.9-2.1-1.4-4.3-1.1-6.6
				c0.2-2.3,1-4.5,2.3-6.4c1-1.5,2.2-2.9,3.5-4.2c1.3-1.3,2.8-2.4,4.4-3.3c1.3-0.8,2.7-1.6,4-2.4c0.3-0.2,0.7-0.3,1-0.5
				c0.2-0.1,0.3-0.3,0.3-0.5c0.1-0.7,0.1-1.3,0.2-2c0.2-1.8,0.3-3.6,0.6-5.4c0.3-2.2,1-4.3,2.2-6.2c0.9-1.5,2.2-2.6,3.9-3.2
				c0.9-0.3,1.8-0.3,2.5,0.4c0.4,0.3,0.7,0.8,0.9,1.2c0.7,1.4,1.1,2.9,1.3,4.5C458.4,64.8,458.4,65.8,458.3,66.4z M446.6,83.5
				L446.6,83.5c0-0.4,0-0.7,0-1.1s-0.1-0.6-0.6-0.6c-0.1,0-0.2,0-0.3,0.1c-0.7,0.3-1.5,0.6-2.1,0.9c-1.5,0.8-2.8,1.7-4,2.8
				c-1.9,1.7-3.5,3.7-4.2,6.1c-0.2,0.5-0.3,1.1-0.4,1.6c-0.3,1.7,0.1,3.2,0.9,4.7c1.1,2,2.7,3.3,4.7,4.3c1.3,0.6,2.7,1.1,4.1,1.3
				c0.8,0.1,1,0,1-0.8c0-0.9,0.1-1.7,0.1-2.6c0.1-1.7,0.2-3.5,0.3-5.2c0.1-1.4,0.1-2.9,0.2-4.3c0-0.2-0.1-0.4-0.2-0.4
				c-0.1-0.1-0.3-0.1-0.4-0.1c-0.5-0.1-1,0.1-1.6,0.2c-2,0.4-3.5,2.3-3.8,4.1c-0.1,0.9,0,1.9,0.3,2.8c0.4,1,0.9,1.9,1.8,2.6
				c0.4,0.3,0.7,0.6,1.1,0.9c0.3,0.2,0.4,0.7,0.2,1c0,0.1-0.2,0.2-0.2,0.2c-0.5,0.1-1,0-1.4-0.2c-1-0.4-1.8-1.1-2.5-1.9
				c-1-1.2-1.5-2.6-1.6-4.2c-0.2-1.8,0.2-3.6,1.1-5.2c0.8-1.4,1.8-2.6,3.1-3.5c1.1-0.8,2.3-1.4,3.7-1.7c0.4-0.1,0.5-0.2,0.5-0.6
				C446.5,84.2,446.6,83.8,446.6,83.5z M454.5,97.5c0-0.2,0-0.7,0-1.1c-0.1-1.4-0.6-2.7-1.5-3.8c-0.9-1-2-1.6-3.2-2.2
				c-0.2-0.1-0.4-0.1-0.7-0.1c-0.3,0-0.4,0.1-0.4,0.4c-0.1,1.2-0.2,2.4-0.2,3.7c-0.1,2.1-0.2,4.2-0.3,6.3c0,0.7,0,1.4-0.1,2.2
				c0,0.4,0.3,0.6,0.7,0.6c0.1,0,0.2,0,0.3-0.1c0.6-0.2,1.2-0.4,1.7-0.7C452.9,101.6,454.1,100,454.5,97.5z M449.2,70.3L449.2,70.3
				c-0.1,0.8-0.1,1.6-0.1,2.4c0,0.6,0.4,0.8,1,0.7c0.1,0,0.2,0,0.3-0.1c0.6-0.4,1.3-0.7,1.8-1.1c1.6-1.2,2.6-2.8,3.4-4.6
				c0.5-1.1,0.5-2.3-0.1-3.4c-0.3-0.6-0.8-1-1.5-1c-0.5,0-1,0.2-1.4,0.5c-0.9,0.7-1.6,1.6-2.1,2.6C449.8,67.7,449.4,68.9,449.2,70.3
				z"/>
		</g>
	</g>
	<g class="st1">
		<g>
			<path class="st2" d="M676.4,131.9c0.4,1.7,0.6,3,0.5,4.4c0,1.3-0.3,2.5-0.6,3.8c-0.5,1.6-1.3,3-2.3,4.3c-0.2,0.3-0.3,0.6-0.2,0.9
				c0.3,0.8,0.5,1.6,0.8,2.4c0.1,0.4,0.3,0.4,0.7,0.4c1.4-0.1,2.9,0,4.2,0.4c2.2,0.7,3.8,2,4.8,4.1c0.7,1.4,0.9,3,0.7,4.6
				c-0.2,1.9-0.9,3.7-2.2,5.1c-0.6,0.6-1.3,1.1-2,1.6c-0.2,0.1-0.4,0.2-0.5,0.4c-0.3,0.2-0.3,0.2-0.2,0.5c0.3,0.8,0.5,1.5,0.8,2.3
				c0.2,0.4,0.3,0.9,0.4,1.3c0.2,0.8,0.5,1.7,0.7,2.6c0.3,1.5,0.2,2.9-0.6,4.2c-0.5,1-1.3,1.7-2.3,2.2c-1,0.6-2.2,0.8-3.3,0.8
				c-1,0-2-0.1-2.9-0.5c-0.6-0.3-1.2-0.6-1.7-1.1c-1.1-1-1.7-2.3-1.7-3.8c0.1-1.3,0.5-2.4,1.4-3.3c1.1-1.1,2.5-1.4,4-0.9
				c1.8,0.6,2.6,1.9,2.8,3.7c0.1,0.9-0.1,1.7-0.5,2.4c-0.1,0.2-0.1,0.3-0.2,0.5c0,0.2,0.1,0.3,0.3,0.3c0.4,0,0.8-0.1,1.2-0.3
				c1.2-0.7,2.1-2.4,1.6-3.9c-0.3-0.9-0.6-1.9-0.9-2.8c-0.3-0.9-0.6-1.8-0.8-2.7c0-0.1-0.1-0.2-0.1-0.2c-0.1-0.3-0.3-0.4-0.6-0.3
				c-0.2,0-0.4,0.1-0.7,0.1c-1.1,0.1-2.2,0.1-3.3,0.1c-1.7-0.1-3.4-0.5-5-1.1c-0.9-0.4-1.8-0.9-2.5-1.7c-1.3-1.3-2.2-2.8-2.7-4.5
				c-0.5-1.8-0.5-3.6-0.1-5.4c0.3-1.4,0.8-2.8,1.4-4.1c0.6-1.3,1.4-2.5,2.3-3.7c0.8-1,1.5-1.9,2.3-2.9c0.2-0.2,0.4-0.4,0.6-0.6
				c0.1-0.1,0.2-0.3,0.1-0.5c-0.1-0.5-0.3-1-0.4-1.5c-0.4-1.4-0.8-2.8-1.1-4.2c-0.4-1.7-0.5-3.4-0.1-5.1c0.3-1.4,0.9-2.5,2-3.4
				c0.6-0.5,1.2-0.7,2-0.4c0.4,0.1,0.7,0.4,1,0.7c0.9,0.9,1.6,1.9,2.2,3C676,130.7,676.2,131.4,676.4,131.9z M672.5,147.7
				L672.5,147.7c-0.1-0.3-0.2-0.5-0.3-0.8s-0.3-0.4-0.6-0.3c-0.1,0-0.2,0.1-0.2,0.1c-0.4,0.4-0.9,0.8-1.3,1.3c-0.9,1-1.6,2-2.2,3.2
				c-0.9,1.8-1.5,3.7-1.4,5.7c0,0.4,0.1,0.9,0.1,1.3c0.2,1.3,1,2.3,2,3.2c1.3,1.2,2.9,1.7,4.6,1.8c1.1,0.1,2.3,0,3.4-0.2
				c0.6-0.1,0.7-0.3,0.5-0.9c-0.2-0.6-0.4-1.3-0.7-1.9c-0.4-1.3-0.8-2.6-1.2-3.9c-0.3-1.1-0.7-2.2-1.1-3.2c0-0.1-0.1-0.2-0.3-0.3
				c-0.1,0-0.2,0-0.3,0c-0.4,0.1-0.8,0.3-1.1,0.6c-1.4,0.8-1.9,2.7-1.6,4.1c0.2,0.7,0.5,1.4,1,1.9c0.6,0.7,1.2,1.2,2,1.5
				c0.3,0.1,0.7,0.2,1.1,0.3c0.2,0.1,0.5,0.4,0.4,0.7c0,0.1-0.1,0.2-0.1,0.2c-0.3,0.2-0.7,0.3-1.1,0.2c-0.8,0-1.6-0.3-2.3-0.7
				c-1.1-0.6-1.8-1.5-2.3-2.6c-0.6-1.3-0.8-2.7-0.6-4.2c0.2-1.3,0.6-2.4,1.3-3.5c0.6-0.9,1.3-1.7,2.2-2.3c0.3-0.2,0.3-0.3,0.2-0.6
				C672.7,148.2,672.6,148,672.5,147.7z M682.2,155.8c-0.1-0.2-0.2-0.5-0.3-0.8c-0.5-1-1.2-1.8-2.2-2.4c-0.9-0.5-1.9-0.7-2.9-0.7
				c-0.2,0-0.4,0-0.5,0.1c-0.2,0.1-0.3,0.2-0.2,0.4c0.3,0.9,0.6,1.8,0.9,2.8c0.5,1.6,1,3.1,1.5,4.7c0.2,0.5,0.4,1.1,0.6,1.6
				c0.1,0.3,0.4,0.4,0.7,0.2c0.1,0,0.1-0.1,0.2-0.1c0.4-0.3,0.7-0.7,1.1-1C682.2,159.3,682.6,157.7,682.2,155.8z M670.7,137.3
				L670.7,137.3c0.2,0.6,0.4,1.2,0.6,1.8c0.2,0.4,0.5,0.5,0.9,0.2c0.1,0,0.1-0.1,0.2-0.2c0.4-0.4,0.7-0.8,1-1.3
				c0.8-1.3,1.2-2.8,1.2-4.3c0-1-0.3-1.8-1-2.5c-0.4-0.4-0.9-0.5-1.4-0.3c-0.4,0.2-0.7,0.4-0.9,0.8c-0.5,0.8-0.7,1.6-0.8,2.5
				C670.5,135.1,670.5,136.2,670.7,137.3z"/>
		</g>
	</g>
</g>
<g class="st3">
	<g>
		<path class="st2" d="M332.8,86.3c-0.2-2.2-0.2-2.2,1.8-2.9c6.2-2.3,12.5-4.4,18.6-7c10.5-4.5,19.1-11.4,25.3-21.1
			c2.3-3.6,4.3-7.4,5.5-11.5c1.1-3.9,1.6-8,1-12.1c-1-7.1-5.3-11.3-12.5-12.2c-3.8-0.5-7.5-0.5-11,1.3c-2,1-3.5,2.5-4.6,4.5
			c-0.2,0.4,0,1.1,0.2,1.5c0.5,0.8,1.3,1.2,2.4,1.3c1.6,0.1,3.3,0.2,4.8,0.7c3.3,1.1,5.6,4.4,5.6,7.6c-0.1,3.4-2.3,6.3-5.8,7.6
			c-5.7,2.1-14.7-1.9-15.1-9.7c-0.2-4.5,1.6-8.3,4.8-11.4c3.1-3,6.8-4.6,11-5.3c6.9-1.2,13.5-0.5,19.7,2.9
			c9.5,5.2,14.6,16.2,12.4,26.7c-1.8,8.8-6.9,15.5-14,20.8c-8.7,6.5-18.5,10.7-28.9,13.4c-6.9,1.8-13.8,3.3-20.8,4.9
			C333.2,86.3,333,86.3,332.8,86.3z"/>
		<path class="st2" d="M404.7,54.7c2.7,0.7,4.6,3.9,3.8,6.5c-0.8,2.9-3.7,4.6-6.6,3.8c-3-0.8-4.6-3.6-3.7-6.6
			C399,55.5,401.7,53.9,404.7,54.7z"/>
		<path class="st2" d="M410.1,34.2c2.8,0.7,4.6,3.8,3.8,6.6c-0.8,2.8-3.7,4.4-6.6,3.7s-4.5-3.6-3.7-6.6
			C404.4,35,407.2,33.4,410.1,34.2z"/>
	</g>
</g>
<g class="st3">
	<g>
		<path class="st2" d="M665.9,204.9c-0.3-3.5-0.2-3.5,2.9-4.6c9.9-3.7,19.9-7,29.7-11.2c16.7-7.1,30.5-18.1,40.4-33.6
			c3.7-5.7,6.9-11.8,8.7-18.3c1.8-6.3,2.6-12.7,1.7-19.2c-1.6-11.4-8.4-18-19.9-19.5c-6-0.8-11.9-0.7-17.5,2.1
			c-3.1,1.6-5.6,4-7.3,7.1c-0.3,0.6-0.1,1.8,0.3,2.4c0.8,1.3,2.2,2,3.8,2.1c2.6,0.2,5.3,0.3,7.7,1.1c5.3,1.8,8.9,7.1,8.9,12.1
			c-0.1,5.4-3.7,10.1-9.2,12.1c-9.1,3.3-23.5-3.1-24.1-15.5c-0.4-7.1,2.6-13.3,7.7-18.2c4.9-4.7,10.9-7.4,17.5-8.5
			c11-1.9,21.6-0.8,31.5,4.6c15.1,8.4,23.3,25.9,19.8,42.6c-2.9,14-11,24.7-22.3,33.2c-13.9,10.4-29.5,17-46.1,21.3
			c-11,2.8-22.1,5.2-33.1,7.8C666.5,204.8,666.3,204.8,665.9,204.9z"/>
		<path class="st2" d="M780.6,154.5c4.3,1.2,7.3,6.2,6.1,10.4c-1.3,4.7-5.9,7.3-10.5,6c-4.9-1.3-7.3-5.7-6-10.6
			C771.6,155.7,775.8,153.2,780.6,154.5z"/>
		<path class="st2" d="M789.3,121.7c4.5,1.2,7.3,6.1,6.1,10.5c-1.2,4.4-5.9,7-10.5,5.8s-7.1-5.7-5.9-10.5
			C780.2,123,784.7,120.5,789.3,121.7z"/>
	</g>
</g>
<g class="st4">
	<g>
		<path class="st2" d="M630.2,32.4c-1.9,6.4-4.1,11.5-7,16.1c-2.7,4.3-5.9,8.1-9.6,11.6c-4.8,4.6-10.4,7.8-16.5,10.2
			c-1.3,0.5-2.1,1.3-2.4,2.7c-0.6,3.3-1.4,6.5-2.1,9.8c-0.3,1.5,0.1,2.1,1.4,2.7c5.2,2.4,9.8,5.7,13.6,9.9
			c6.1,6.6,8.9,14.4,8.2,23.3c-0.5,6.3-2.9,11.9-6.5,17c-4.4,6.3-10.3,10.8-17.6,13.2c-3.2,1-6.6,1.3-10,1.5
			c-0.9,0.1-1.7,0.1-2.6,0.1c-1.2,0-1.4,0.2-1.6,1.3c-0.6,3.1-1.2,6.3-1.9,9.4c-0.4,1.8-0.7,3.6-1.2,5.4c-0.9,3.3-1.7,6.7-2.8,10
			c-1.8,5.6-5.1,10.1-10.2,13.2c-3.7,2.2-7.8,3-12.1,2.9c-4.7-0.1-9-1.6-13-3.9c-3.5-1.9-6.5-4.3-8.9-7.6c-1.6-2.2-3-4.6-3.7-7.2
			c-1.6-5.7-1.4-11.2,1.9-16.3c2.7-4.2,6.4-7.4,11.4-8.6c6-1.4,11.2,0.1,15.2,4.9c4.8,5.6,5.1,11.8,2.2,18.4
			c-1.4,3.1-3.7,5.4-6.5,7.3c-0.5,0.4-1.1,0.8-1.5,1.3c-0.5,0.6-0.4,1.1,0.3,1.6c1.4,1,3,1.1,4.6,1.1c5.4,0.1,11.8-4.2,13.2-10
			c0.9-3.7,1.7-7.5,2.5-11.3c0.8-3.6,1.6-7.2,2.5-10.8c0.1-0.3,0.1-0.6,0.2-1c0.2-1.1-0.1-1.8-1.2-2.2c-0.8-0.3-1.7-0.6-2.5-0.9
			c-4-1.7-7.7-3.8-11.3-6.1c-5.8-3.6-10.7-8.3-14.9-13.6c-2.5-3.2-4.3-6.7-5.3-10.6c-1.8-6.9-2-13.8-0.2-20.8
			c1.9-7.1,5.3-13.2,10.3-18.6c3.9-4.2,8.2-7.9,12.9-11c4.8-3.2,9.8-5.8,15.2-8c4.5-1.8,9-3.5,13.5-5.2c1.1-0.4,2.2-0.7,3.2-1.1
			c0.7-0.2,1.1-0.7,1.3-1.4c0.5-2,1-4.1,1.5-6.1c1.5-5.5,2.8-10.9,4.5-16.3c2.1-6.5,5.2-12.6,9.8-17.7c3.7-4.1,8.1-6.9,13.6-7.8
			c2.9-0.5,5.6,0,7.6,2.4c0.9,1.2,1.6,2.7,2.1,4.2c1.4,4.7,1.8,9.5,1.6,14.4C631.2,27.5,630.7,30.6,630.2,32.4z M585.7,78.9
			c-0.1,0-0.2,0-0.3-0.1c0.3-1,0.6-2.1,0.9-3.2c0.3-1.3-0.1-1.9-1.5-2.1c-0.3,0-0.7-0.1-1,0c-2.4,0.6-4.7,1-7,1.7
			c-4.9,1.6-9.5,3.7-13.8,6.5c-6.6,4.3-12.5,9.4-16,16.7c-0.8,1.5-1.5,3.1-2.1,4.7c-1.8,5-1.3,9.9,0.3,14.8
			c2.2,6.6,6.7,11.4,12.2,15.4c3.7,2.6,7.7,4.6,12,6c2.3,0.7,3,0.5,3.5-1.9c0.6-2.6,1-5.3,1.6-7.9c1.2-5.3,2.4-10.6,3.6-15.9
			c1-4.4,1.9-8.8,2.8-13.2c0.1-0.6,0-1.1-0.5-1.5c-0.3-0.3-0.7-0.4-1.1-0.6c-1.6-0.5-3.2-0.4-4.9-0.3c-6.3,0.1-11.9,5.3-13.6,10.8
			c-0.9,2.8-0.9,5.7-0.4,8.7c0.6,3.3,1.9,6.4,4,9c0.9,1.1,2,2.2,3,3.3c0.7,0.8,0.8,2.3,0.2,3.1c-0.2,0.2-0.6,0.4-0.8,0.4
			c-1.5-0.1-2.9-0.5-4.2-1.3c-2.8-1.7-4.9-4.2-6.6-7c-2.4-4.2-3.1-8.8-2.8-13.5c0.5-5.7,2.5-10.9,6.1-15.5c3.1-4,6.8-7.1,11.4-9.2
			c3.9-1.8,7.8-3.2,12.1-3.4c1.2,0,1.6-0.4,2-1.6C585.2,80.9,585.4,79.9,585.7,78.9z M602.8,125.7c0.1-0.8,0.3-2,0.4-3.2
			c0.3-4.4-0.4-8.6-2.8-12.3c-2.2-3.4-5.2-6-8.6-8.3c-0.6-0.4-1.3-0.6-2-0.7c-0.9-0.2-1.3,0.2-1.5,1c-0.9,3.7-1.8,7.4-2.6,11.1
			c-1.4,6.3-2.7,12.7-4.1,19c-0.5,2.2-0.9,4.4-1.3,6.6c-0.2,1.3,0.5,2.1,1.8,2.1c0.3,0,0.7,0,1-0.1c1.9-0.4,3.8-0.8,5.7-1.3
			C595.7,137.5,600.4,133.1,602.8,125.7z M600.3,39.8c-0.1,0-0.1,0-0.2,0c-0.4,2.4-0.9,4.8-1.2,7.2c-0.2,1.7,0.9,2.8,2.7,2.7
			c0.3,0,0.7,0,1-0.2c2.1-0.8,4.2-1.4,6.2-2.4c5.5-2.8,9.5-7.1,12.7-12.2c2-3.2,2.6-6.7,1.5-10.4c-0.6-2.1-2-3.4-4.2-3.7
			c-1.6-0.3-3.1,0.2-4.6,0.9c-3.2,1.6-5.6,4.1-7.8,6.9C603.6,32,601.6,35.7,600.3,39.8z"/>
	</g>
</g>
<g id="Layer_7">
	<circle class="st5" cx="579.5" cy="72.5" r="3.5"/>
	<circle class="st5" cx="694.5" cy="30.5" r="3.5"/>
	<circle class="st5" cx="464.5" cy="34.5" r="3.5"/>
	<circle class="st5" cx="727.5" cy="125.5" r="3.5"/>
	<circle class="st5" cx="486.5" cy="130.5" r="3.5"/>
	<circle class="st5" cx="201.5" cy="20.5" r="3.5"/>
	<circle class="st5" cx="83.5" cy="34.5" r="3.5"/>
	<circle class="st5" cx="29.5" cy="98.5" r="3.5"/>
	<g>
		<g>
			<path class="st6" d="M306,155.5c-6.4,8.9-15.2,16.4-25.9,21.3c-21.5,9.8-45.4,7-63.6-5.3c-8.4,13.6-13.7,29.4-14.8,46.3h-0.2v28
				h203.3v-28h-0.2c-1.4-20.6-8.9-39.5-20.7-54.9c-2.4,1.5-4.9,2.8-7.5,4C352,178,324.4,172.6,306,155.5z"/>
			<path class="st2" d="M303.1,123c-36.6,0-68.7,19.4-86.6,48.5c18.2,12.3,42.2,15.1,63.6,5.3c10.7-4.9,19.5-12.3,25.9-21.3
				c18.4,17.1,46,22.5,70.3,11.4c2.6-1.2,5.1-2.5,7.5-4C365.2,138.6,336,123,303.1,123z"/>
		</g>
		<g>
			<path class="st7" d="M256.1,252.1c-1.9-28-15.1-52.9-35.1-70.1c-4.7,1.8-9.8,2.8-15.2,2.8c-10.6,0-20.2-3.9-27.7-10.3
				c-4.5,5.1-9.9,9.3-16,12.4c-6.2,29-31.9,50.8-62.8,50.8c-15.2,0-29.1-5.3-40.1-14c-3.3,9-5.4,18.5-6.1,28.5H53V250h203.3v2.1
				H256.1z"/>
			<path class="st2" d="M162.2,186.9c6.1-3.1,11.5-7.3,16-12.4c7.4,6.4,17.1,10.3,27.7,10.3c5.4,0,10.5-1,15.2-2.8
				c-17.8-15.4-41-24.7-66.4-24.7c-43.7,0-81,27.6-95.4,66.3c11,8.8,24.9,14,40.1,14C130.3,237.7,156,215.9,162.2,186.9z"/>
		</g>
	</g>
	<path class="st7" d="M565.5,231.1L565.5,231.1c-2.9,0-5.2-2.3-5.2-5.2V31.3c0-2.9,2.3-5.2,5.2-5.2l0,0c2.9,0,5.2,2.3,5.2,5.2v194.6
		C570.7,228.8,568.4,231.1,565.5,231.1z"/>
	<g>
		<g>
			<rect x="571.1" y="36.3" class="st2" width="33.7" height="33.7"/>
			<rect x="571.1" y="70" width="33.7" height="33.7"/>
			<rect x="604.9" y="70.1" class="st2" width="33.7" height="33.7"/>
			<rect x="604.9" y="36.3" width="33.7" height="33.7"/>
			<rect x="638.6" y="36.3" class="st2" width="33.7" height="33.7"/>
			<rect x="638.6" y="70" width="33.7" height="33.7"/>
			<rect x="672.4" y="70.1" class="st2" width="33.7" height="33.7"/>
			<rect x="672.4" y="36.3" width="33.7" height="33.7"/>
			<rect x="706.1" y="36.3" class="st2" width="33.7" height="33.7"/>
			<rect x="706.1" y="70" width="33.7" height="33.7"/>
			<rect x="739.9" y="70.1" class="st2" width="33.7" height="33.7"/>
			<rect x="739.9" y="36.3" width="33.7" height="33.7"/>
		</g>
		<g>
			<g>
				<g>
					<path class="st8" d="M620.4,84.1c-0.5,0-1.1,0-1.9-0.1c-0.8-0.1-1.6-0.2-2.4-0.4c-0.9-0.2-1.8-0.4-2.6-0.7
						c-0.9-0.3-1.7-0.6-2.5-1s-1.5-0.9-2-1.4c-0.6-0.7-0.9-1.4-0.9-2.3s0.3-1.7,1-2.4c0.7-0.7,1.5-1.1,2.4-1.1
						c0.6,0,1.1,0.1,1.6,0.4c0.6,0.3,1.2,0.6,1.8,0.9c0.6,0.2,1.2,0.4,1.8,0.6s1.2,0.3,1.8,0.4s1.3,0.1,2,0.1c0.4,0,1,0,1.6-0.1
						s1.1-0.2,1.6-0.3c0.5-0.2,0.8-0.4,1.2-0.7c0.1-0.1,0.3-0.3,0.3-0.8c0-0.3-0.1-0.7-0.7-1c-0.7-0.4-1.6-0.8-2.7-1.1
						c-1.1-0.4-2.4-0.7-3.7-1.1c-1.4-0.4-2.8-0.9-4-1.6c-1.3-0.7-2.3-1.6-3.2-2.7c-0.9-1.2-1.4-2.7-1.4-4.6c0-1.6,0.4-3,1.2-4.1
						c0.7-1.1,1.7-1.9,2.9-2.5c1.1-0.6,2.3-1,3.7-1.2c1.3-0.2,2.6-0.3,3.8-0.3c0.6,0,1.3,0,2.1,0.1s1.6,0.2,2.4,0.3
						c0.8,0.1,1.6,0.3,2.3,0.5c0.8,0.2,1.5,0.5,2.1,0.7c0.6,0.3,1.1,0.7,1.5,1.1c0.4,0.5,0.6,1.2,0.6,2c0,0.9-0.3,1.8-1,2.4
						s-1.5,1-2.4,1c-0.4,0-0.8-0.1-1.3-0.3c-1-0.4-2.1-0.7-3.1-0.9s-2.1-0.3-3.2-0.3c-0.4,0-0.9,0-1.5,0c-0.5,0-1.1,0.1-1.6,0.2
						c-0.4,0.1-0.8,0.3-1.1,0.5c-0.1,0.1-0.2,0.2-0.2,0.6c0,0.1,0,0.3,0.2,0.5c0.2,0.3,0.6,0.5,1,0.8c0.4,0.3,1,0.5,1.5,0.7
						c0.6,0.2,1.2,0.4,1.8,0.6s1.1,0.3,1.6,0.5c0.5,0.1,0.9,0.3,1.2,0.3c1,0.3,2,0.7,3,1.1s1.9,0.9,2.7,1.6c0.8,0.6,1.4,1.5,1.9,2.4
						c0.5,1,0.7,2.1,0.7,3.4c0,1.7-0.4,3.2-1.1,4.4c-0.7,1.1-1.7,2.1-2.9,2.8c-1.1,0.7-2.4,1.1-3.8,1.4
						C623.1,83.9,621.7,84.1,620.4,84.1z"/>
					<path d="M621,56c0.6,0,1.3,0,2.1,0.1s1.5,0.2,2.3,0.3s1.5,0.3,2.3,0.5c0.7,0.2,1.4,0.4,1.9,0.7c0.4,0.2,0.8,0.5,1.1,0.9
						s0.4,0.8,0.4,1.3c0,0.7-0.2,1.3-0.7,1.7c-0.5,0.5-1.1,0.7-1.7,0.7c-0.3,0-0.6-0.1-0.9-0.2c-1.1-0.4-2.2-0.7-3.2-0.9
						c-1.1-0.2-2.2-0.3-3.4-0.3c-0.4,0-0.9,0-1.5,0s-1.2,0.1-1.8,0.3s-1.1,0.4-1.5,0.7s-0.6,0.8-0.6,1.4c0,0.4,0.2,0.8,0.5,1.2
						s0.7,0.7,1.2,1s1.1,0.6,1.7,0.8c0.6,0.2,1.2,0.4,1.8,0.6s1.1,0.3,1.6,0.5c0.5,0.1,0.9,0.3,1.2,0.3c1,0.3,1.9,0.7,2.9,1
						c0.9,0.4,1.7,0.8,2.4,1.4s1.2,1.3,1.7,2.1c0.4,0.8,0.6,1.8,0.6,3c0,1.5-0.3,2.8-1,3.8s-1.5,1.8-2.5,2.4s-2.2,1-3.5,1.3
						c-1.3,0.2-2.6,0.4-3.9,0.4c-0.4,0-1,0-1.8-0.1c-0.7-0.1-1.5-0.2-2.3-0.4c-0.8-0.2-1.7-0.4-2.5-0.6c-0.8-0.3-1.6-0.6-2.3-0.9
						c-0.7-0.4-1.3-0.8-1.7-1.2c-0.4-0.5-0.7-1-0.7-1.6s0.2-1.2,0.7-1.7s1-0.7,1.7-0.7c0.4,0,0.8,0.1,1.1,0.3
						c0.7,0.4,1.3,0.7,1.9,0.9c0.6,0.3,1.3,0.5,1.9,0.6c0.6,0.2,1.3,0.3,1.9,0.4c0.7,0.1,1.4,0.1,2.1,0.1c0.5,0,1,0,1.7-0.1
						c0.6-0.1,1.3-0.2,1.8-0.4c0.6-0.2,1.1-0.5,1.5-0.9s0.6-0.9,0.6-1.5c0-0.8-0.4-1.4-1.2-1.9s-1.7-0.9-2.9-1.2
						c-1.1-0.4-2.4-0.7-3.8-1.1c-1.4-0.4-2.6-0.9-3.8-1.5c-1.1-0.6-2.1-1.4-2.9-2.5c-0.8-1-1.2-2.4-1.2-4c0-1.4,0.3-2.6,1-3.6
						s1.5-1.7,2.5-2.2s2.2-0.9,3.4-1.1C618.6,56.1,619.9,56,621,56 M621,54c-1.3,0-2.6,0.1-4,0.3c-1.5,0.2-2.8,0.7-4,1.3
						c-1.3,0.7-2.4,1.6-3.2,2.8c-0.9,1.3-1.3,2.9-1.3,4.7c0,2.1,0.5,3.9,1.6,5.2c0.9,1.2,2.1,2.3,3.5,3c1.3,0.7,2.7,1.3,4.2,1.7
						c1.3,0.4,2.6,0.7,3.7,1.1c1,0.3,1.8,0.6,2.4,1c0.1,0.1,0.2,0.1,0.2,0.1l0,0c0,0,0,0,0,0.1c-0.2,0.2-0.5,0.3-0.8,0.4
						c-0.4,0.1-0.9,0.2-1.4,0.3c-0.6,0.1-1.1,0.1-1.5,0.1c-0.7,0-1.3,0-1.9-0.1c-0.6-0.1-1.1-0.2-1.7-0.3c-0.5-0.1-1.1-0.3-1.6-0.6
						c-0.6-0.2-1.1-0.5-1.7-0.8c-0.7-0.4-1.4-0.6-2.1-0.6c-1.2,0-2.3,0.5-3.1,1.4S607,77,607,78.2c0,1.1,0.4,2.1,1.2,2.9
						c0.6,0.6,1.4,1.2,2.2,1.6s1.7,0.8,2.6,1c0.9,0.3,1.8,0.5,2.7,0.7s1.7,0.3,2.5,0.4s1.5,0.1,2,0.1c1.4,0,2.8-0.1,4.2-0.4
						c1.5-0.3,2.9-0.8,4.1-1.5c1.3-0.8,2.4-1.8,3.2-3.1c0.9-1.3,1.3-3,1.3-4.9c0-1.5-0.3-2.8-0.8-3.9s-1.3-2-2.2-2.7
						c-0.8-0.7-1.8-1.3-2.9-1.7c-1-0.4-2-0.8-3-1.1l0,0l0,0c-0.3-0.1-0.7-0.2-1.2-0.3c-0.5-0.1-1-0.3-1.6-0.5
						c-0.5-0.2-1.1-0.4-1.7-0.6c-0.5-0.2-1-0.4-1.4-0.6c-0.2-0.1-0.4-0.3-0.6-0.4c0.1-0.1,0.3-0.1,0.5-0.2c0.4-0.1,0.9-0.2,1.3-0.2
						c0.6,0,1.1,0,1.5,0c1,0,2,0.1,3,0.3s2,0.5,3,0.8c0.6,0.2,1.1,0.3,1.6,0.3c1.2,0,2.3-0.5,3.2-1.3c0.9-0.9,1.3-1.9,1.3-3.2
						c0-1-0.3-1.9-0.9-2.6c-0.5-0.6-1.1-1.1-1.8-1.4c-0.7-0.3-1.4-0.6-2.3-0.8c-0.8-0.2-1.6-0.4-2.4-0.5c-0.8-0.2-1.7-0.3-2.5-0.3
						C622.4,54.1,621.7,54,621,54L621,54z"/>
				</g>
				<g>
					<path class="st8" d="M645.3,83.9c-1,0-1.9-0.4-2.6-1.1c-0.7-0.7-1-1.6-1-2.6V62.4h-6.2c-1,0-1.8-0.3-2.4-1s-1-1.5-1-2.4
						s0.3-1.8,1-2.4c0.7-0.7,1.5-1,2.4-1h19.6c0.9,0,1.8,0.3,2.4,1c0.7,0.7,1,1.5,1,2.4s-0.4,1.8-1,2.4c-0.7,0.7-1.5,1-2.4,1h-6.2
						v17.9c0,1-0.4,1.9-1.1,2.6C647.1,83.5,646.3,83.9,645.3,83.9z"/>
					<path d="M655.1,56.5c0.7,0,1.3,0.2,1.7,0.7c0.5,0.5,0.7,1.1,0.7,1.7c0,0.7-0.2,1.3-0.7,1.7c-0.5,0.5-1.1,0.7-1.7,0.7h-7.2v18.9
						c0,0.7-0.3,1.4-0.8,1.9s-1.1,0.8-1.9,0.8s-1.3-0.3-1.8-0.8s-0.7-1.1-0.7-1.9V61.4h-7.2c-0.7,0-1.3-0.2-1.7-0.7s-0.7-1-0.7-1.7
						s0.2-1.3,0.7-1.7s1-0.7,1.7-0.7L655.1,56.5 M655.1,54.5h-19.6c-1.2,0-2.3,0.5-3.2,1.3c-0.8,0.9-1.3,1.9-1.3,3.1
						c0,1.2,0.4,2.3,1.3,3.1c0.8,0.8,1.9,1.3,3.1,1.3h5.2v16.9c0,1.3,0.5,2.4,1.3,3.3c0.9,0.9,2,1.4,3.3,1.4s2.4-0.5,3.3-1.3
						c0.9-0.9,1.3-2,1.3-3.3V63.4h5.2c1.2,0,2.3-0.4,3.1-1.3c0.9-0.8,1.3-1.9,1.3-3.2c0-1.2-0.5-2.3-1.3-3.2
						C657.4,54.9,656.3,54.5,655.1,54.5L655.1,54.5z"/>
				</g>
				<g>
					<path class="st8" d="M680.6,83.9c-0.7,0-1.3-0.2-1.9-0.5c-0.5-0.3-1-0.8-1.2-1.4l-1.9-4.2h-10l-1.9,4.2
						c-0.3,0.6-0.7,1.1-1.3,1.5c-0.6,0.3-1.2,0.5-1.8,0.5c-1,0-1.8-0.3-2.4-1c-0.7-0.7-1-1.5-1-2.4c0-0.5,0.1-1,0.3-1.4l10-21.9
						c0.3-0.6,0.7-1.1,1.2-1.4c0.6-0.4,1.2-0.6,1.8-0.6s1.3,0.2,1.8,0.5c0.6,0.4,1,0.8,1.3,1.5l10,21.9c0.2,0.5,0.3,1,0.3,1.4
						c0,0.9-0.3,1.8-1,2.4C682.4,83.5,681.5,83.9,680.6,83.9z M672.7,71.3l-2.1-4.7l-2.1,4.7H672.7z"/>
					<path d="M670.5,56.1c0.5,0,0.9,0.1,1.3,0.4c0.4,0.2,0.7,0.6,0.9,1l10,21.9c0.1,0.3,0.2,0.7,0.2,1c0,0.7-0.2,1.3-0.7,1.7
						s-1,0.7-1.7,0.7c-0.5,0-0.9-0.1-1.3-0.4c-0.4-0.2-0.7-0.6-0.9-1l-2.2-4.8h-11.3l-2.2,4.8c-0.2,0.4-0.5,0.8-0.9,1
						s-0.8,0.4-1.3,0.4c-0.7,0-1.3-0.2-1.7-0.7c-0.5-0.5-0.7-1.1-0.7-1.7c0-0.3,0.1-0.7,0.2-1l10-21.9c0.2-0.4,0.5-0.8,0.9-1
						C669.6,56.3,670,56.1,670.5,56.1 M666.9,72.3h7.3l-3.7-8.1L666.9,72.3 M670.5,54.1c-0.9,0-1.7,0.2-2.4,0.7s-1.2,1.1-1.6,1.9
						l-10,21.8c-0.3,0.6-0.4,1.2-0.4,1.8c0,1.2,0.5,2.3,1.3,3.2c0.9,0.9,1.9,1.3,3.2,1.3c0.9,0,1.6-0.2,2.4-0.7
						c0.7-0.5,1.3-1.1,1.6-1.9l1.6-3.6h8.7l1.6,3.6c0.4,0.8,0.9,1.4,1.6,1.9c0.7,0.5,1.5,0.7,2.4,0.7c1.2,0,2.3-0.5,3.1-1.3
						s1.3-1.9,1.3-3.1c0-0.6-0.1-1.2-0.3-1.7v-0.1v-0.1l-10-21.9c-0.4-0.8-1-1.5-1.7-1.9C672.1,54.4,671.3,54.1,670.5,54.1
						L670.5,54.1z M670,70.3l0.6-1.3l0.6,1.3H670L670,70.3z"/>
				</g>
				<g>
					<path class="st8" d="M706.7,83.9c-0.7,0-1.3-0.2-1.8-0.5c-0.6-0.3-1-0.8-1.3-1.4c-0.1-0.2-0.3-0.5-0.5-1l-0.8-1.7
						c-0.4-0.8-0.7-1.5-1.1-2.3c-0.4-0.8-0.8-1.5-1.1-2.2c-0.3-0.6-0.6-1.2-0.8-1.6c0-0.1-0.1-0.1-0.1-0.2h-5.5v7.3
						c0,1-0.4,1.9-1.1,2.6c-0.7,0.7-1.6,1-2.5,1c-1,0-1.9-0.3-2.5-1c-0.7-0.7-1-1.5-1-2.5V59.1c0-1,0.3-1.9,1-2.5
						c0.7-0.7,1.5-1,2.5-1h9.7c1.3,0,2.7,0.1,3.9,0.4c1.3,0.3,2.4,0.8,3.4,1.5s1.8,1.7,2.4,2.8c0.6,1.1,0.9,2.5,0.9,4.1
						c0,1.7-0.4,3.3-1.2,4.6c-0.6,1.1-1.6,2-2.7,2.6c0,0.1,0.1,0.1,0.1,0.2c0.3,0.5,0.6,1.1,0.9,1.7c0.3,0.6,0.6,1.3,1,1.9
						c0.3,0.7,0.6,1.3,0.9,1.9c0.3,0.6,0.5,1.2,0.7,1.7c0.2,0.6,0.3,1,0.3,1.4c0,1-0.3,1.8-1,2.5C708.5,83.5,707.7,83.9,706.7,83.9z
						 M700.5,66.6c0.8,0,1.4-0.2,1.9-0.6c0.3-0.2,0.6-0.6,0.6-1.5c0-1-0.4-1.4-0.6-1.6c-0.5-0.4-1.1-0.6-1.9-0.6h-6.8v4.3
						C693.7,66.6,700.5,66.6,700.5,66.6z"/>
					<path d="M699.8,56.5c1.3,0,2.5,0.1,3.7,0.4c1.2,0.3,2.2,0.7,3,1.4c0.9,0.6,1.5,1.4,2.1,2.4s0.8,2.2,0.8,3.6
						c0,1.5-0.4,2.9-1.1,4.1c-0.7,1.2-1.8,2.1-3.2,2.7c0.1,0.3,0.3,0.6,0.6,1.1s0.5,1,0.9,1.7c0.3,0.6,0.6,1.3,1,1.9
						s0.6,1.3,0.9,1.9c0.3,0.6,0.5,1.1,0.7,1.6s0.3,0.8,0.3,1c0,0.7-0.2,1.3-0.7,1.8s-1.1,0.7-1.8,0.7c-0.5,0-0.9-0.1-1.3-0.4
						c-0.4-0.2-0.7-0.6-0.9-1c-0.1-0.1-0.2-0.5-0.5-1s-0.5-1.1-0.9-1.8c-0.3-0.7-0.7-1.4-1.1-2.2c-0.4-0.8-0.7-1.5-1.1-2.1
						c-0.3-0.7-0.6-1.2-0.8-1.6s-0.3-0.7-0.3-0.7h-7.2v8.3c0,0.7-0.3,1.3-0.8,1.8s-1.1,0.7-1.8,0.7s-1.3-0.2-1.8-0.7
						s-0.7-1.1-0.7-1.8V59.1c0-0.7,0.2-1.3,0.7-1.8s1.1-0.7,1.8-0.7L699.8,56.5 M692.7,67.6h7.8c1,0,1.8-0.3,2.5-0.8
						s1.1-1.3,1.1-2.3s-0.3-1.8-1-2.4c-0.7-0.5-1.5-0.8-2.5-0.8h-7.8L692.7,67.6 M699.8,54.5h-9.7c-1.3,0-2.4,0.5-3.3,1.3
						c-0.9,0.9-1.3,2-1.3,3.3v21.2c0,1.3,0.5,2.4,1.3,3.3c0.9,0.9,2,1.3,3.3,1.3c1.2,0,2.3-0.4,3.2-1.3s1.4-2,1.4-3.3V74h3.9
						c0.2,0.4,0.4,0.8,0.6,1.2c0.3,0.7,0.7,1.4,1.1,2.2c0.4,0.8,0.7,1.5,1.1,2.2v0.1l0.8,1.7c0.3,0.6,0.4,0.9,0.5,1
						c0.4,0.8,0.9,1.4,1.6,1.8c0.7,0.4,1.5,0.7,2.4,0.7c1.2,0,2.3-0.5,3.2-1.3c0.9-0.9,1.3-2,1.3-3.2c0-0.5-0.1-1-0.4-1.7
						c-0.2-0.5-0.4-1.1-0.7-1.7s-0.6-1.3-0.9-1.9c-0.3-0.7-0.7-1.3-1-2c-0.2-0.4-0.4-0.8-0.6-1.1c0.9-0.7,1.7-1.5,2.3-2.5
						c0.9-1.5,1.3-3.2,1.3-5.1c0-1.7-0.3-3.3-1-4.6s-1.5-2.3-2.7-3.1c-1.1-0.8-2.3-1.3-3.7-1.7C702.6,54.7,701.2,54.5,699.8,54.5
						L699.8,54.5z M694.7,63.3h5.8c0.7,0,1.1,0.2,1.3,0.4c0.1,0.1,0.3,0.2,0.3,0.8c0,0.5-0.2,0.7-0.2,0.7c-0.4,0.3-0.8,0.4-1.3,0.4
						h-5.8L694.7,63.3L694.7,63.3z"/>
				</g>
				<g>
					<path class="st8" d="M724.2,83.9c-1,0-1.9-0.4-2.6-1.1c-0.7-0.7-1-1.6-1-2.6V62.4h-6.2c-1,0-1.8-0.3-2.4-1s-1-1.5-1-2.4
						s0.3-1.8,1-2.4c0.7-0.7,1.5-1,2.4-1H734c1,0,1.8,0.3,2.4,1c0.7,0.7,1,1.5,1,2.4s-0.4,1.8-1,2.4c-0.7,0.7-1.5,1-2.4,1h-6.2v17.9
						c0,1-0.4,1.9-1.1,2.6C726.1,83.5,725.2,83.9,724.2,83.9z"/>
					<path d="M734,56.5c0.7,0,1.3,0.2,1.7,0.7c0.5,0.5,0.7,1.1,0.7,1.7c0,0.7-0.2,1.3-0.7,1.7c-0.5,0.5-1.1,0.7-1.7,0.7h-7.2v18.9
						c0,0.7-0.3,1.4-0.8,1.9s-1.1,0.8-1.9,0.8s-1.3-0.3-1.8-0.8s-0.7-1.1-0.7-1.9V61.4h-7.2c-0.7,0-1.3-0.2-1.7-0.7s-0.7-1-0.7-1.7
						s0.2-1.3,0.7-1.7s1-0.7,1.7-0.7L734,56.5 M734,54.5h-19.6c-1.2,0-2.3,0.5-3.2,1.3c-0.8,0.9-1.3,1.9-1.3,3.1
						c0,1.2,0.4,2.3,1.3,3.1c0.8,0.8,1.9,1.3,3.1,1.3h5.2v16.9c0,1.3,0.5,2.4,1.3,3.3c0.9,0.9,2,1.4,3.3,1.4s2.4-0.5,3.3-1.3
						c0.9-0.9,1.3-2,1.3-3.3V63.4h5.2c1.2,0,2.3-0.4,3.1-1.3c0.9-0.8,1.3-1.9,1.3-3.2c0-1.2-0.5-2.3-1.3-3.2
						C736.3,54.9,735.2,54.5,734,54.5L734,54.5z"/>
				</g>
			</g>
		</g>
		<path class="st7" d="M778.8,231.1L778.8,231.1c-2.9,0-5.2-2.3-5.2-5.2V31.3c0-2.9,2.3-5.2,5.2-5.2l0,0c2.9,0,5.2,2.3,5.2,5.2
			v194.6C784,228.8,781.6,231.1,778.8,231.1z"/>
	</g>
</g>
<g>
	<g>
		<defs>
			<rect id="SVGID_1_" x="-0.2" y="65.8" width="424.1" height="182.6"/>
		</defs>
		<clipPath id="SVGID_2_">
			<use xlink:href="#SVGID_1_"  style="overflow:visible;"/>
		</clipPath>
		<g class="st9">
			<path class="st10" d="M22.1,257c-9.6-2.9-19.1-6.8-28.4-12c-3.5-33-7.1-65.9-10.7-98.7c9.2,6.1,18.5,10.9,28.1,14.4
				C14.8,192.6,18.5,224.6,22.1,257z"/>
			<path class="st10" d="M51.5,262.6c-9.9-0.9-19.7-2.7-29.3-5.6c-3.6-32.4-7.3-64.4-11-96.3c9.5,3.5,19.3,5.8,29.1,7.1
				C44,199.1,47.8,230.6,51.5,262.6z"/>
			<path class="st10" d="M81.6,262.9c-10.1,0.7-20.2,0.6-30.1-0.3c-3.7-32-7.4-63.6-11.2-94.8c9.9,1.3,19.9,1.5,30,0.9
				C74.1,199.6,77.9,231,81.6,262.9z"/>
			<path class="st10" d="M112.3,258.9c-10.3,1.9-20.6,3.3-30.7,4c-3.7-31.9-7.5-63.3-11.3-94.2c10.1-0.6,20.4-2.1,30.8-4.3
				C104.8,195.4,108.6,226.8,112.3,258.9z"/>
			<path class="st10" d="M143.5,251.7c-10.5,2.8-20.9,5.3-31.2,7.2c-3.7-32.1-7.4-63.6-11.3-94.5c10.4-2.2,20.8-5,31.3-8.4
				C136.1,187.3,139.9,219.1,143.5,251.7z"/>
			<path class="st10" d="M175,242.4c-10.5,3.4-21,6.5-31.5,9.4c-3.6-32.6-7.3-64.4-11.1-95.6c10.5-3.3,21.1-7.2,31.8-11.4
				C167.8,176.4,171.5,208.9,175,242.4z"/>
			<path class="st10" d="M206.6,231.9c-10.6,3.5-21.1,7.1-31.6,10.4c-3.5-33.4-7.1-65.9-10.8-97.6c10.6-4.2,21.3-8.7,32.1-13.3
				C199.8,163.9,203.3,197.4,206.6,231.9z"/>
			<path class="st10" d="M238.2,221.4c-10.5,3.4-21.1,6.9-31.6,10.5c-3.3-34.5-6.8-68-10.4-100.5c10.7-4.7,21.5-9.5,32.2-14.2
				C231.8,150.8,235.1,185.6,238.2,221.4z"/>
			<path class="st10" d="M269.9,212c-10.5,2.8-21,6-31.5,9.4c-3.1-35.9-6.4-70.6-9.9-104.3c10.7-4.8,21.5-9.5,32.2-14.1
				C263.9,138.1,267,174.4,269.9,212z"/>
			<path class="st10" d="M301.1,204.7c-10.3,2-20.7,4.5-31.2,7.3c-2.9-37.6-6-73.9-9.2-109c10.7-4.5,21.4-8.9,32-12.9
				C295.7,127,298.5,165.1,301.1,204.7z"/>
			<path class="st10" d="M331.8,200.5c-10.2,0.7-20.4,2.2-30.7,4.1c-2.6-39.5-5.4-77.7-8.4-114.5c10.6-4,21.2-7.5,31.7-10.6
				C327.1,118.4,329.5,158.7,331.8,200.5z"/>
			<path class="st10" d="M362,200.6c-9.9-0.9-20-0.8-30.1-0.1c-2.3-41.8-4.8-82.1-7.5-120.9c10.5-3,20.9-5.5,31.2-7.2
				C357.9,113.5,360,156.2,362,200.6z"/>
			<path class="st10" d="M391.3,206c-9.6-2.8-19.4-4.5-29.4-5.4c-1.9-44.3-4.1-87.1-6.4-128.2c10.3-1.7,20.5-2.7,30.5-2.8
				C388.1,113.3,389.8,158.8,391.3,206z"/>
			<path class="st10" d="M407.1,211.6c-5.2-2.2-10.5-4.1-15.8-5.6c-1.5-47.2-3.3-92.6-5.2-136.4c7.5-0.1,14.8,0.4,22.1,1.4
				c4.4,0.6,7.7,4.3,7.9,8.8c1.3,39.8,2.4,81,3.4,123.5C419.6,209.6,413,214.1,407.1,211.6z"/>
			<path d="M24.3,220.8c-4.7-1.3-9.4-2.8-14.1-4.6c-2.2-19.6-4.4-39.1-6.7-58.5c4.6,2,9.3,3.8,14,5.3
				C19.8,182.1,22.1,201.4,24.3,220.8z"/>
			<path d="M54.4,225.6c-4.9-0.3-9.7-0.8-14.5-1.5c-2.3-19.2-4.5-38.3-6.8-57.3c4.8,0.9,9.6,1.5,14.5,1.9
				C49.8,187.4,52.1,206.4,54.4,225.6z"/>
			<path d="M114.1,219.9c-5.1,1.1-10.1,2.1-15.2,2.9c-2.3-19.1-4.6-38-6.9-56.7c5-0.9,10.1-1.9,15.2-3.1
				C109.6,181.8,111.9,200.7,114.1,219.9z"/>
			<path d="M146.9,211.2c-5.2,1.6-10.3,3.1-15.4,4.5c-2.2-19.3-4.5-38.4-6.8-57.2c5.1-1.5,10.3-3.2,15.5-4.9
				C142.4,172.5,144.6,191.7,146.9,211.2z"/>
			<path d="M178.5,200.5c-5.2,1.9-10.4,3.7-15.5,5.4c-2.2-19.7-4.4-39.1-6.7-58.2c5.2-2,10.4-4,15.6-6.1
				C174.2,160.9,176.4,180.5,178.5,200.5z"/>
			<path d="M243,176.3c-5.2,1.9-10.4,3.8-15.6,5.8c-2-21-4.1-41.6-6.2-61.8c5.3-2.3,10.5-4.7,15.8-7
				C239.1,133.9,241.1,154.9,243,176.3z"/>
			<path d="M275.4,165.2c-5.2,1.6-10.3,3.4-15.5,5.2c-1.9-21.9-3.8-43.4-5.8-64.5c5.2-2.3,10.5-4.5,15.7-6.7
				C271.7,120.7,273.6,142.7,275.4,165.2z"/>
			<path d="M336.4,150.7c-5,0.7-10.1,1.5-15.1,2.5c-1.5-24.2-3.1-48-4.8-71.2c5.2-1.6,10.3-3.1,15.4-4.4
				C333.5,101.3,335,125.7,336.4,150.7z"/>
			<path d="M368.1,148.9c-4.9-0.1-9.8-0.1-14.8,0.2c-1.3-25.8-2.7-51-4.2-75.6c5.1-1,10.1-1.8,15.1-2.4
				C365.7,96.4,366.9,122.4,368.1,148.9z"/>
			<path d="M397.8,152.6c-4.8-1.1-9.6-1.9-14.4-2.5c-1.1-27.4-2.2-54.2-3.5-80.3c5-0.2,9.9-0.2,14.8,0
				C395.8,96.7,396.8,124.3,397.8,152.6z"/>
		</g>
	</g>
</g>
<g id="Layer_5">
	<rect y="220" class="st11" width="800" height="30"/>
	<rect x="15" y="220" class="st2" width="99" height="6"/>
	<rect x="221" y="220" class="st2" width="99" height="6"/>
	<rect x="429" y="220" class="st2" width="99" height="6"/>
	<rect x="635" y="220" class="st2" width="99" height="6"/>
</g>
<g id="Layer_6">
</g>
<linearGradient id="SVGID_3_" gradientUnits="userSpaceOnUse" x1="636.4" y1="-450" x2="682.2798" y2="-450" gradientTransform="matrix(1 0 0 -1 0 -264)">
	<stop  offset="0" style="stop-color:#FCEE21"/>
	<stop  offset="1" style="stop-color:#FCEE21;stop-opacity:0"/>
</linearGradient>
<polygon class="st12" points="682.2,210.9 636.4,192.8 636.4,180.5 682.2,161.1 "/>
<g class="st4">
	<g>
		<path class="st2" d="M212.7,22.4c0.5,5,0.4,9.1-0.3,13.1c-0.6,3.7-1.8,7.3-3.4,10.7c-2,4.5-5,8.3-8.5,11.7
			c-0.8,0.7-1.1,1.5-0.9,2.6c0.5,2.4,0.8,4.9,1.3,7.3c0.2,1.1,0.6,1.4,1.7,1.5c4.3,0.2,8.4,1.2,12.2,3c6,2.8,10.2,7.4,12.2,13.8
			c1.4,4.5,1.4,9,0.3,13.6c-1.3,5.6-4.1,10.3-8.5,14.1c-1.9,1.6-4.2,2.7-6.5,3.8c-0.6,0.3-1.2,0.5-1.7,0.8c-0.8,0.4-0.9,0.5-0.8,1.4
			c0.4,2.4,0.9,4.7,1.3,7c0.3,1.4,0.5,2.7,0.7,4.1c0.3,2.6,0.7,5.1,0.9,7.7c0.3,4.4-0.7,8.4-3.4,12c-1.9,2.6-4.5,4.3-7.5,5.4
			c-3.3,1.2-6.6,1.4-10.1,1c-2.9-0.4-5.7-1.2-8.2-2.7c-1.7-1.1-3.3-2.3-4.6-3.9c-2.7-3.5-4.1-7.4-3.2-11.8c0.7-3.7,2.3-6.9,5.5-9.1
			c3.8-2.7,7.8-3,11.9-0.9c4.9,2.6,6.9,6.7,6.7,12.1c-0.1,2.5-1.1,4.8-2.4,6.9c-0.3,0.4-0.5,0.9-0.6,1.3c-0.2,0.6,0.1,0.9,0.6,1
			c1.2,0.3,2.4-0.1,3.5-0.5c3.7-1.5,7-6.2,6.3-10.6c-0.4-2.8-0.9-5.7-1.4-8.5c-0.4-2.7-0.9-5.5-1.3-8.2c0-0.2-0.1-0.5-0.1-0.7
			c-0.2-0.8-0.6-1.2-1.5-1.2c-0.7,0-1.3,0.1-2,0.1c-3.2,0-6.4-0.5-9.5-1.1c-5-0.9-9.7-2.7-14.1-5.2c-2.6-1.5-4.9-3.4-6.7-5.8
			c-3.1-4.3-5.3-9-5.9-14.3c-0.7-5.4-0.1-10.6,1.9-15.7c1.5-4,3.4-7.7,5.8-11.2c2.4-3.5,5.2-6.8,8.2-9.8c2.6-2.5,5.2-4.9,7.8-7.4
			c0.6-0.6,1.3-1.1,1.9-1.6c0.4-0.3,0.6-0.8,0.5-1.3c-0.2-1.5-0.5-3.1-0.6-4.6c-0.5-4.2-1.1-8.4-1.4-12.6c-0.4-5.1,0.1-10.1,1.8-15
			c1.4-3.9,3.7-7,7.2-9.2c1.9-1.1,3.9-1.6,5.9-0.5c1,0.6,1.9,1.4,2.6,2.3c2.3,2.8,3.9,6.1,5.1,9.5C212.1,18.7,212.5,20.9,212.7,22.4
			z M195,66.9c-0.1,0-0.1,0-0.2,0c-0.1-0.8-0.2-1.6-0.3-2.4c-0.2-1-0.6-1.3-1.6-1c-0.2,0.1-0.5,0.1-0.7,0.3c-1.5,1-3,2-4.4,3.2
			c-2.9,2.5-5.5,5.2-7.7,8.4c-3.4,4.8-6,10-6.4,16c-0.1,1.3-0.2,2.5-0.1,3.8c0.1,3.9,1.9,7.2,4.4,10.1c3.4,3.9,7.8,6,12.8,7.2
			c3.3,0.8,6.6,1,10,0.8c1.8-0.1,2.2-0.5,1.9-2.3c-0.3-2-0.8-3.9-1.1-5.9c-0.7-4-1.3-8-2-12c-0.6-3.3-1.2-6.6-1.7-9.9
			c-0.1-0.5-0.3-0.8-0.7-0.9c-0.3-0.1-0.6-0.1-0.9-0.1c-1.2,0.1-2.3,0.7-3.5,1.1c-4.3,1.9-6.7,7-6.4,11.3c0.2,2.2,1,4.2,2.2,6.1
			c1.3,2.2,3.1,3.9,5.3,5.1c1,0.5,2,0.9,3,1.4c0.7,0.3,1.2,1.4,1,2.1c-0.1,0.2-0.3,0.4-0.5,0.5c-1.1,0.4-2.2,0.4-3.3,0.3
			c-2.4-0.4-4.6-1.5-6.5-3c-2.9-2.2-4.6-5.2-5.7-8.6c-1.3-4.1-1.3-8.2-0.1-12.4c1-3.6,2.7-6.8,5.3-9.6c2.2-2.3,4.5-4.4,7.4-5.7
			c0.8-0.4,1-0.7,0.9-1.6C195.2,68.5,195.1,67.7,195,66.9z M219.9,94.5c-0.1-0.5-0.3-1.5-0.6-2.4c-1-3.1-2.7-5.8-5.4-7.7
			c-2.5-1.8-5.3-2.7-8.3-3.3c-0.5-0.1-1.1-0.1-1.6,0c-0.7,0.1-0.9,0.5-0.8,1.2c0.4,2.8,0.9,5.6,1.3,8.4c0.8,4.8,1.7,9.5,2.5,14.3
			c0.3,1.6,0.6,3.3,1,4.9c0.2,1,0.9,1.3,1.8,1c0.2-0.1,0.5-0.2,0.7-0.3c1.2-0.8,2.4-1.6,3.6-2.5C218.3,104.6,220.4,100.3,219.9,94.5
			z M194.1,35.8c-0.1,0-0.1,0-0.2,0c0.4,1.8,0.7,3.6,1.2,5.3c0.3,1.3,1.4,1.7,2.6,1.1c0.2-0.1,0.5-0.2,0.6-0.4
			c1.2-1.1,2.5-2.1,3.6-3.4c3-3.4,4.6-7.6,5.3-12c0.5-2.8-0.1-5.4-1.9-7.6c-1-1.3-2.4-1.8-4-1.4c-1.2,0.3-2.1,1-2.9,1.9
			c-1.7,2-2.7,4.4-3.4,6.9C194.3,29.5,193.9,32.6,194.1,35.8z"/>
	</g>
</g>
<g>
	<path class="st13" d="M456.2,134.5c0.2-0.7,1.2-1.1,2.3-0.8c1.1,0.3,1.8,1.1,1.6,1.8c-0.2,0.6-1,1-1.9,0.9l-0.4,1.7l-0.7-0.2
		l0.4-1.7C456.6,135.8,456.1,135.1,456.2,134.5z"/>
	<path class="st13" d="M451.4,133.3c0.2-0.7,1.2-1.1,2.3-0.8c1.1,0.3,1.8,1.1,1.6,1.8c-0.2,0.6-1,1-1.9,0.9l-0.4,1.7l-0.7-0.2
		l0.4-1.7C451.7,134.6,451.2,133.9,451.4,133.3z"/>
	<path class="st13" d="M446.5,132c0.2-0.7,1.2-1.1,2.3-0.8c1.1,0.3,1.8,1.1,1.6,1.8c-0.2,0.6-1,1-1.9,0.9l-0.4,1.7l-0.7-0.2l0.4-1.7
		C446.9,133.4,446.3,132.7,446.5,132z"/>
	<path class="st13" d="M441.7,130.8c0.2-0.7,1.2-1.1,2.3-0.8c1.1,0.3,1.8,1.1,1.6,1.8c-0.2,0.6-1,1-1.9,0.9l-0.4,1.7l-0.7-0.2
		l0.4-1.7C442,132.1,441.5,131.4,441.7,130.8z"/>
	<path class="st13" d="M437,129.6c0.2-0.7,1.2-1.1,2.3-0.8c1.1,0.3,1.8,1.1,1.6,1.8c-0.2,0.6-1,1-1.9,0.9l-0.4,1.7l-0.7-0.2l0.4-1.7
		C437.3,130.9,436.8,130.2,437,129.6z"/>
	<path class="st13" d="M432.2,128.4c0.2-0.7,1.2-1.1,2.3-0.8c1.1,0.3,1.8,1.1,1.6,1.8c-0.2,0.6-1,1-1.9,0.9l-0.4,1.7l-0.7-0.2
		l0.4-1.7C432.5,129.7,432,129,432.2,128.4z"/>
	<path class="st14" d="M454.4,148.4l27.6,17.1c0.8,0.5,1.9,0.3,2.4-0.6l3-4.9c0.5-0.8,0.3-1.9-0.6-2.4l-27.6-17.1
		c-0.8-0.5-1.9-0.3-2.4,0.6l-3,4.9C453.3,146.8,453.6,147.9,454.4,148.4z"/>
	<path class="st15" d="M463.8,143.4c0,0-0.8-1.5-0.6-3.1c0,0,0.1-1.4-2-1.8l-30.3-7.8c0,0-6.8-1.1-6.5,6.2c0,0,0.3,4.1,5.6,4.9
		c0,0,1.6,0.4,3.6-1.1c0,0,1.4-1.3,3.7,0.9c0,0,9.6,9.4,10.9,9.8c0,0,0.4,0.5,1.6-0.4c0,0,3.4-2.8,9,0L463.8,143.4z"/>
	<g>
		<path class="st16" d="M574.7,153.2H593c14.4,0,26,11.6,26,26v9.3c1.8,0,3.3,1.5,3.3,3.3s-1.5,3.3-3.3,3.3H500.7l-42.8-6
			c-1.7,0-3.2-1.4-3.2-3.2c0-1.7,1.4-3.2,3.2-3.2l-0.2-24.8c0-4.1,3.4-7.5,7.5-7.5h27.5l26.3-13.3c0,0,2.7-1.3,6-1.7
			s26.7,0.7,26.7,0.7s7.3-1,11.3,5.3s12,12,12,12"/>
		<path class="st17" d="M602.2,159.4h24.5c19.2,0,34.8,15.5,34.8,34.6v12.4c2.5,0,4.5,2,4.5,4.4s-2,4.4-4.5,4.4H503.2l-57.3-8
			c-2.3,0-4.2-1.9-4.2-4.2s1.9-4.2,4.2-4.2l-0.2-33c0-5.5,4.5-10,10-10h36.8l35.2-17.7c0,0,3.6-1.8,8-2.2s35.7,0.9,35.7,0.9
			s9.8-1.3,15.2,7.1c5.3,8.4,16,15.9,16,15.9"/>
		<g>
			<g>
				<g>
					
						<ellipse transform="matrix(0.1602 -0.9871 0.9871 0.1602 261.9712 651.9103)" class="st18" cx="514.1" cy="172" rx="40.6" ry="40.6"/>
					<path class="st15" d="M514.2,212.8c-2.6,0-5.2-0.3-7.8-0.8c-10.7-2.1-19.9-8.2-26-17.2s-8.3-19.9-6.2-30.6
						c4.3-22.1,25.7-36.5,47.8-32.3c10.7,2.1,19.9,8.2,26,17.2s8.3,19.9,6.2,30.6c-2.1,10.7-8.2,19.9-17.2,26
						C530.1,210.4,522.2,212.8,514.2,212.8z M514.1,131.6c-19,0-35.9,13.4-39.7,32.8c-2.1,10.6,0.1,21.4,6.2,30.3
						c6,9,15.2,15,25.8,17.1s21.4-0.1,30.3-6.2c9-6,15-15.2,17.1-25.8s-0.1-21.4-6.2-30.3c-6-9-15.2-15-25.8-17.1
						C519.2,131.8,516.6,131.6,514.1,131.6z"/>
				</g>
				<g>
					
						<ellipse transform="matrix(0.1602 -0.9871 0.9871 0.1602 261.9713 651.9103)" class="st18" cx="514.1" cy="172" rx="31.4" ry="31.4"/>
					<path class="st15" d="M514.1,203.6c-2,0-4-0.2-6-0.6c-17.1-3.3-28.3-19.9-25-37s19.9-28.3,37-25c8.3,1.6,15.5,6.3,20.2,13.3
						s6.4,15.4,4.8,23.7C542.2,193.1,528.9,203.6,514.1,203.6z M514.1,140.7c-14.7,0-27.8,10.4-30.7,25.3
						c-1.6,8.2,0.1,16.5,4.8,23.5c4.7,6.9,11.8,11.6,20,13.2c16.9,3.3,33.4-7.8,36.7-24.8c1.6-8.2-0.1-16.5-4.8-23.5
						c-4.7-6.9-11.8-11.6-20-13.2C518.1,140.9,516.1,140.7,514.1,140.7z"/>
				</g>
				<g>
					<circle class="st18" cx="514.1" cy="172" r="25.2"/>
					<path class="st15" d="M514.1,197.4c-1.6,0-3.2-0.2-4.8-0.5c-6.7-1.3-12.4-5.1-16.2-10.7c-3.8-5.6-5.2-12.4-3.9-19
						c2.7-13.7,16-22.8,29.8-20.1c6.7,1.3,12.4,5.1,16.2,10.7c3.8,5.6,5.2,12.4,3.9,19C536.7,189,526,197.4,514.1,197.4z M514.1,147
						c-4.9,0-9.8,1.5-14,4.3c-5.5,3.7-9.3,9.4-10.6,16c-1.3,6.6,0.1,13.2,3.8,18.8c3.7,5.5,9.4,9.3,16,10.6
						c13.6,2.6,26.7-6.3,29.4-19.8h0.2h-0.2c2.6-13.6-6.3-26.7-19.8-29.4C517.3,147.1,515.7,147,514.1,147z"/>
				</g>
				<g>
					<circle class="st18" cx="514.1" cy="172" r="21.7"/>
					<path class="st15" d="M514.2,193.9c-1.4,0-2.8-0.1-4.2-0.4c-11.9-2.3-19.6-13.8-17.3-25.7c2.3-11.9,13.8-19.6,25.7-17.3
						c5.7,1.1,10.7,4.4,14,9.2s4.5,10.7,3.4,16.4h-0.2h0.2c-1.1,5.7-4.4,10.7-9.2,14C522.7,192.6,518.5,193.9,514.2,193.9z
						 M514.1,150.5c-4.3,0-8.4,1.3-12,3.7c-4.8,3.2-8,8.1-9.1,13.8s0.1,11.4,3.3,16.2c3.2,4.8,8.1,8,13.8,9.1s11.4-0.1,16.2-3.3
						s8-8.1,9.1-13.8s-0.1-11.4-3.3-16.2s-8.1-8-13.8-9.1C516.8,150.6,515.4,150.5,514.1,150.5z"/>
				</g>
				<g>
					<circle cx="514.1" cy="172" r="18"/>
				</g>
				<g>
					<circle class="st18" cx="514.1" cy="172" r="14.5"/>
				</g>
				<g>
					<circle cx="514.1" cy="172" r="1.2"/>
				</g>
				<g>
					<path class="st19" d="M523.5,168.9l-16.9-3.3c-0.4-0.1-0.6-0.4-0.6-0.8l0.3-1.7c0.1-0.4,0.4-0.6,0.8-0.6l16.9,3.3
						c0.4,0.1,0.6,0.4,0.6,0.8l-0.3,1.7C524.2,168.7,523.9,168.9,523.5,168.9z"/>
				</g>
				<g>
					<path class="st19" d="M523.5,170.4L506,167c-0.2,0-0.4-0.2-0.3-0.5v-0.2c0-0.2,0.2-0.4,0.5-0.3l17.5,3.4c0.2,0,0.4,0.2,0.3,0.5
						v0.2C523.9,170.3,523.7,170.5,523.5,170.4z"/>
				</g>
			</g>
			<g>
				<polygon class="st20" points="546.6,148 473.7,172.8 473.9,175.9 548.5,150.8 				"/>
				<polygon class="st20" points="549.4,152.3 474.1,178 474.4,179.8 550.3,154 				"/>
			</g>
		</g>
		<g class="st21">
			<g>
				<g>
					<path d="M575.6,172.6c0.1,1.5,0.1,2.7-0.1,3.9c-0.2,1.1-0.6,2.2-1,3.2c-0.6,1.4-1.5,2.5-2.6,3.5c-0.2,0.2-0.3,0.4-0.3,0.8
						c0.1,0.7,0.3,1.5,0.4,2.2c0.1,0.3,0.2,0.4,0.5,0.4c1.3,0.1,2.5,0.4,3.7,0.9c1.8,0.8,3.1,2.2,3.7,4.2c0.4,1.4,0.4,2.7,0.1,4.1
						c-0.4,1.7-1.2,3.1-2.6,4.2c-0.6,0.5-1.3,0.8-1.9,1.2c-0.2,0.1-0.3,0.2-0.5,0.2c-0.2,0.1-0.3,0.2-0.2,0.4
						c0.1,0.7,0.3,1.4,0.4,2.1c0.1,0.4,0.2,0.8,0.2,1.2c0.1,0.8,0.2,1.5,0.3,2.3c0.1,1.3-0.2,2.5-1,3.6c-0.6,0.8-1.4,1.3-2.3,1.6
						c-1,0.4-2,0.4-3,0.3c-0.9-0.1-1.7-0.4-2.5-0.8c-0.5-0.3-1-0.7-1.4-1.2c-0.8-1-1.2-2.2-1-3.5c0.2-1.1,0.7-2.1,1.6-2.7
						c1.1-0.8,2.3-0.9,3.6-0.3c1.5,0.8,2.1,2,2,3.6c0,0.8-0.3,1.4-0.7,2.1c-0.1,0.1-0.2,0.3-0.2,0.4c-0.1,0.2,0,0.3,0.2,0.3
						c0.4,0.1,0.7,0,1.1-0.2c1.1-0.4,2.1-1.9,1.9-3.2c-0.1-0.9-0.3-1.7-0.4-2.6c-0.1-0.8-0.3-1.6-0.4-2.5c0-0.1,0-0.1,0-0.2
						c0-0.3-0.2-0.4-0.4-0.4s-0.4,0-0.6,0c-1,0-1.9-0.1-2.9-0.3c-1.5-0.3-2.9-0.8-4.2-1.6c-0.8-0.4-1.5-1-2-1.8
						c-0.9-1.3-1.6-2.7-1.8-4.3s0-3.2,0.6-4.7c0.5-1.2,1-2.3,1.8-3.4c0.7-1.1,1.5-2,2.5-2.9c0.8-0.7,1.6-1.5,2.4-2.2
						c0.2-0.2,0.4-0.3,0.6-0.5c0.1-0.1,0.2-0.2,0.2-0.4c-0.1-0.5-0.1-0.9-0.2-1.4c-0.2-1.3-0.3-2.5-0.4-3.8c-0.1-1.5,0-3,0.5-4.5
						c0.4-1.2,1.1-2.1,2.2-2.8c0.6-0.3,1.2-0.5,1.8-0.1c0.3,0.2,0.6,0.4,0.8,0.7c0.7,0.9,1.2,1.8,1.5,2.9
						C575.4,171.5,575.5,172.2,575.6,172.6z M570.3,186C570.2,186,570.2,186,570.3,186c-0.1-0.2-0.1-0.5-0.1-0.7
						c0-0.3-0.2-0.4-0.5-0.3c-0.1,0-0.1,0-0.2,0.1c-0.4,0.3-0.9,0.6-1.3,1c-0.9,0.7-1.7,1.6-2.3,2.5c-1,1.5-1.8,3-1.9,4.8
						c0,0.4-0.1,0.8,0,1.1c0,1.2,0.6,2.2,1.3,3c1,1.2,2.4,1.8,3.8,2.2c1,0.2,2,0.3,3,0.2c0.5,0,0.7-0.2,0.6-0.7
						c-0.1-0.6-0.2-1.2-0.3-1.8c-0.2-1.2-0.4-2.4-0.6-3.6c-0.2-1-0.3-2-0.5-3c0-0.1-0.1-0.2-0.2-0.3c-0.1,0-0.2,0-0.3,0
						c-0.4,0-0.7,0.2-1,0.3c-1.3,0.6-2,2.1-1.9,3.4c0.1,0.7,0.3,1.3,0.7,1.8c0.4,0.6,0.9,1.2,1.6,1.5c0.3,0.2,0.6,0.3,0.9,0.4
						c0.2,0.1,0.4,0.4,0.3,0.6c0,0.1-0.1,0.1-0.1,0.2c-0.3,0.1-0.7,0.1-1,0.1c-0.7-0.1-1.4-0.4-2-0.9c-0.9-0.7-1.4-1.6-1.7-2.6
						c-0.4-1.2-0.4-2.5,0-3.7c0.3-1.1,0.8-2.1,1.6-2.9c0.7-0.7,1.3-1.3,2.2-1.7c0.2-0.1,0.3-0.2,0.3-0.5
						C570.3,186.5,570.3,186.3,570.3,186z M577.8,194.3c0-0.2-0.1-0.4-0.2-0.7c-0.3-0.9-0.8-1.8-1.6-2.3c-0.7-0.5-1.6-0.8-2.5-1
						c-0.2,0-0.3,0-0.5,0s-0.3,0.1-0.2,0.3c0.1,0.8,0.3,1.7,0.4,2.5c0.2,1.4,0.5,2.9,0.8,4.3c0.1,0.5,0.2,1,0.3,1.5
						c0.1,0.3,0.3,0.4,0.6,0.3c0.1,0,0.1-0.1,0.2-0.1c0.4-0.2,0.7-0.5,1.1-0.8C577.3,197.4,577.9,196.1,577.8,194.3z M570,176.7
						L570,176.7c0.1,0.5,0.2,1.1,0.3,1.6c0.1,0.4,0.4,0.5,0.8,0.3c0.1,0,0.1-0.1,0.2-0.1c0.4-0.3,0.8-0.6,1.1-1
						c0.9-1,1.4-2.3,1.6-3.6c0.1-0.8,0-1.6-0.6-2.3c-0.3-0.4-0.7-0.5-1.2-0.4c-0.4,0.1-0.6,0.3-0.9,0.6c-0.5,0.6-0.8,1.3-1,2.1
						C570,174.8,569.9,175.7,570,176.7z"/>
				</g>
			</g>
			<g>
				<path d="M632.9,166.4l-52.1,6.7c-0.5,0.1-0.9-0.3-1-0.7l-0.1-0.5c-0.1-0.5,0.3-0.9,0.7-1l52.1-6.7c0.5-0.1,0.9,0.3,1,0.7
					l0.1,0.5C633.7,165.9,633.4,166.3,632.9,166.4z"/>
				<path d="M634.2,176.2l-52.1,6.7c-0.5,0.1-0.9-0.3-1-0.7l-0.1-0.5c-0.1-0.5,0.3-0.9,0.7-1l52.1-6.7c0.5-0.1,0.9,0.3,1,0.7
					l0.1,0.5C635,175.8,634.7,176.2,634.2,176.2z"/>
				<path d="M635.5,186.1l-52.1,6.7c-0.5,0.1-0.9-0.3-1-0.7l-0.1-0.5c-0.1-0.5,0.3-0.9,0.7-1l52.1-6.7c0.5-0.1,0.9,0.3,1,0.7
					l0.1,0.5C636.3,185.6,635.9,186.1,635.5,186.1z"/>
				<path d="M636.7,196l-52.1,6.7c-0.5,0.1-0.9-0.3-1-0.7l-0.1-0.5c-0.1-0.5,0.3-0.9,0.7-1l52.1-6.7c0.5-0.1,0.9,0.3,1,0.7l0.1,0.5
					C637.5,195.5,637.2,196,636.7,196z"/>
			</g>
		</g>
		<polygon class="st22" points="569.3,180.9 570.1,205 589.8,193.6 		"/>
		<polygon class="st22" points="542.1,181.3 542.9,205.4 562.7,194 		"/>
		<polygon class="st22" points="514.9,181.3 515.7,205.4 535.5,194 		"/>
		<path class="st23" d="M661.5,206.3c2.5,0,4.5,2,4.5,4.4s-2,4.4-4.5,4.4H503.2l-57.3-8c-2.3,0-4.2-1.9-4.2-4.2s1.9-4.2,4.2-4.2
			l-0.2-19.9l9.4,8.9l-0.4,11.1v2.7l47.3,6.2L661.5,206.3z"/>
		<path class="st24" d="M661.5,196.1c0,0-12.9-34.6-59.7-21.7l-156-8.6c0-5.5,4.5-10,10-10h36.8c6.2,0,99.9,11.5,99.9,11.5l9.8-8
			h24.5C626.7,159.4,661.5,158.5,661.5,196.1z"/>
		<g>
			<ellipse class="st25" cx="485.1" cy="198.7" rx="24.6" ry="24.5"/>
			<ellipse class="st26" cx="485.1" cy="198.7" rx="24" ry="23.8"/>
			<ellipse cx="485.1" cy="198.7" rx="18" ry="17.9"/>
			<ellipse class="st2" cx="485.1" cy="198.7" rx="17.1" ry="17"/>
			<ellipse class="st27" cx="485.1" cy="198.7" rx="16.3" ry="16.2"/>
			<ellipse class="st28" cx="485.1" cy="198.7" rx="10.1" ry="10"/>
			<ellipse class="st13" cx="485.1" cy="198.7" rx="9.2" ry="9.2"/>
		</g>
		<g>
			<ellipse class="st25" cx="623.3" cy="198.7" rx="24.6" ry="24.5"/>
			<ellipse class="st26" cx="623.3" cy="198.7" rx="24" ry="23.8"/>
			<ellipse cx="623.3" cy="198.7" rx="18" ry="17.9"/>
			<ellipse class="st2" cx="623.3" cy="198.7" rx="17.1" ry="17"/>
			<ellipse class="st27" cx="623.3" cy="198.7" rx="16.3" ry="16.2"/>
			<ellipse class="st28" cx="623.3" cy="198.7" rx="10.1" ry="10"/>
			<ellipse class="st13" cx="623.3" cy="198.7" rx="9.2" ry="9.2"/>
		</g>
		
			<linearGradient id="SVGID_4_" gradientUnits="userSpaceOnUse" x1="527.9801" y1="96.8889" x2="583.0752" y2="96.8889" gradientTransform="matrix(1 0 0 -1 0 252)">
			<stop  offset="0" style="stop-color:#C9E7F9"/>
			<stop  offset="0.9996" style="stop-color:#AAFFF9"/>
		</linearGradient>
		<path class="st29" d="M583,166.5c-12.9-23.5-19.6-22.6-19.6-22.6s-16.9-0.4-22.3,0c-5.3,0.4-7.1,3.5-7.1,3.5l-5.3,7.5
			c0,0-3.6,4.4,5.3,5.3C541.1,161,583,166.5,583,166.5z"/>
		
			<linearGradient id="SVGID_5_" gradientUnits="userSpaceOnUse" x1="577.8252" y1="96.6" x2="602.6252" y2="96.6" gradientTransform="matrix(1 0 0 -1 0 252)">
			<stop  offset="0" style="stop-color:#C9E7F9"/>
			<stop  offset="0.9996" style="stop-color:#AAFFF9"/>
		</linearGradient>
		<path class="st30" d="M586.6,143.9l16,15.5l-8.9,7.5L579,148.3c0,0-2.7-2.7,0-4L586.6,143.9z"/>
	</g>
	<g>
		<path class="st14" d="M440.6,141.8l-0.3-0.2l-0.8,0.9l-0.3-0.3l0.8-0.9l-0.3-0.2l0.3-0.3l0.9,0.8L440.6,141.8z"/>
		<path class="st14" d="M440.7,142.5l0.2-1l0.4,0.3l-0.1,0.5l0.5-0.2l0.4,0.3l-1,0.4l-0.4,0.5l-0.3-0.3L440.7,142.5z"/>
		<path class="st14" d="M442.1,142.5l0.5,0.4c0.3,0.2,0.3,0.6,0.1,0.8c-0.2,0.2-0.6,0.3-0.8,0.1l-0.1-0.1l-0.3,0.4l-0.3-0.3
			L442.1,142.5z M442.3,143.4c0.1-0.1,0-0.2,0-0.3l-0.1-0.1l-0.2,0.3l0.1,0.1C442.2,143.5,442.3,143.5,442.3,143.4z"/>
		<path class="st14" d="M443.2,143.9l-0.1,0.2l0.4,0.3l-0.2,0.3l-0.4-0.3l-0.1,0.2l0.5,0.4l-0.3,0.3l-0.8-0.7l1-1.2l0.8,0.7
			l-0.2,0.3L443.2,143.9z"/>
		<path class="st14" d="M443.8,145.9l0.1-0.8l-0.4,0.5l-0.3-0.3l1-1.2l0.5,0.4c0.3,0.2,0.3,0.6,0.1,0.8c-0.1,0.2-0.3,0.2-0.5,0.2
			l-0.1,0.8L443.8,145.9z M444,145l0.1,0.1c0.1,0.1,0.2,0.1,0.2,0c0.1-0.1,0-0.2,0-0.2l-0.1-0.1L444,145z"/>
		<path class="st14" d="M445.2,146.8l-0.5-0.4l-0.2,0.1l-0.4-0.3l1.6-0.8l0.2,0.1l-0.5,1.7l-0.4-0.3L445.2,146.8z M445.3,146.5
			l0.1-0.4l-0.4,0.2L445.3,146.5z"/>
		<path class="st14" d="M445.9,146.7c0.3-0.4,0.8-0.4,1.2-0.1c0.2,0.1,0.3,0.3,0.3,0.6l-0.4,0.1c0-0.1-0.1-0.3-0.2-0.3
			c-0.2-0.2-0.5-0.1-0.6,0c-0.2,0.2-0.1,0.5,0.1,0.6c0.1,0.1,0.2,0.1,0.4,0.1v0.4c-0.2,0-0.4,0-0.6-0.2
			C445.7,147.6,445.6,147.1,445.9,146.7z"/>
		<path class="st14" d="M447.8,147.7l-0.1,0.2l0.4,0.3l-0.2,0.3l-0.4-0.3l-0.1,0.2l0.5,0.4l-0.3,0.3l-0.8-0.7l1-1.2l0.8,0.7
			l-0.2,0.3L447.8,147.7z"/>
		<path class="st14" d="M448.3,149.7l0.1-0.8l-0.4,0.5l-0.3-0.3l1-1.2l0.5,0.4c0.3,0.2,0.3,0.6,0.1,0.8c-0.1,0.2-0.3,0.2-0.5,0.2
			l-0.1,0.8L448.3,149.7z M448.6,148.7l0.1,0.1c0.1,0.1,0.2,0.1,0.2,0c0.1-0.1,0-0.2,0-0.2l-0.1-0.1L448.6,148.7z"/>
	</g>
</g>
<g id="Layer_8">
	
		<linearGradient id="SVGID_6_" gradientUnits="userSpaceOnUse" x1="400" y1="664" x2="400" y2="914" gradientTransform="matrix(1 0 0 1 0 -664)">
		<stop  offset="0" style="stop-color:#666666"/>
		<stop  offset="1" style="stop-color:#333333"/>
	</linearGradient>
	<rect class="st31" width="800" height="250"/>
</g>
</svg>
