<svg xmlns="http://www.w3.org/2000/svg" xmlns:xlink="http://www.w3.org/1999/xlink" width="406.944" height="379.939" viewBox="0 0 406.944 379.939">
  <defs>
    <clipPath id="clip-path">
      <path d="M313.162,53.089l-3.657,5.016a141.472,141.472,0,0,1,20.693,8.63L318.561,82.7q2.8,1.44,5.538,3l11.637-15.961q3.231,1.845,6.357,3.855L330.456,89.553q2.644,1.7,5.21,3.517L347.3,77.109q3.032,2.145,5.949,4.449L341.615,97.519q2.467,1.947,4.848,4L358.1,85.563q2.813,2.431,5.5,5.011l-11.637,15.961q2.271,2.183,4.448,4.468l11.637-15.961a141.45,141.45,0,0,1,12.143,14.6l3.657-5.016a141.431,141.431,0,0,0-12.142-14.6l4.322-5.928a141.663,141.663,0,0,1,12.143,14.6l3.657-5.016a141.314,141.314,0,0,0-12.142-14.6l4.322-5.929a141.568,141.568,0,0,1,12.143,14.6l3.657-5.017a141.653,141.653,0,0,0-12.142-14.6l4.322-5.928a141.45,141.45,0,0,1,12.143,14.6l3.657-5.016a141.569,141.569,0,0,0-12.142-14.6l12.3-16.874q-2.175-2.284-4.448-4.467L391.2,52.724q-2.685-2.58-5.5-5.011L398,30.84q-2.38-2.058-4.848-4.006l-12.3,16.873q-2.916-2.3-5.949-4.448l12.3-16.873q-2.565-1.816-5.21-3.517l-12.3,16.873q-3.126-2.01-6.357-3.856l12.3-16.873q-2.733-1.56-5.538-3L357.8,28.885a141.472,141.472,0,0,0-20.693-8.63l-3.657,5.016a141.518,141.518,0,0,1,20.693,8.63l-4.323,5.928a141.536,141.536,0,0,0-20.693-8.63l-3.657,5.017a141.518,141.518,0,0,1,20.693,8.63l-4.323,5.928a141.427,141.427,0,0,0-20.693-8.63l-3.657,5.016a141.582,141.582,0,0,1,20.693,8.63l-4.322,5.929A141.484,141.484,0,0,0,313.162,53.089Zm37.8,19,4.323-5.929q3.032,2.146,5.949,4.449l-4.323,5.928Q353.994,74.239,350.961,72.093Zm7.98-10.945,4.323-5.928q3.032,2.145,5.949,4.448L364.89,65.6Q361.974,63.295,358.941,61.148Zm8.315,24.41q-2.685-2.58-5.5-5.011l4.322-5.929q2.813,2.432,5.5,5.011Zm7.98-10.945q-2.685-2.578-5.5-5.011l4.322-5.928q2.813,2.43,5.5,5.011Zm12.3-16.873-4.322,5.928q-2.685-2.578-5.5-5.011l4.322-5.928Q384.853,55.161,387.538,57.74Zm-10.346-9.016-4.322,5.928q-2.916-2.3-5.949-4.449l4.323-5.928Q374.275,46.42,377.192,48.724ZM359.676,36.9q3.23,1.845,6.357,3.855l-4.323,5.929q-3.124-2.01-6.357-3.856ZM351.7,47.847q3.229,1.845,6.357,3.856l-4.323,5.928q-3.125-2.01-6.357-3.855Zm-7.98,10.945q3.23,1.845,6.357,3.855l-4.323,5.929q-3.125-2.01-6.356-3.856Z" fill="none"/>
    </clipPath>
    <clipPath id="clip-path-2">
      <rect x="169.209" y="146.449" width="101.897" height="65.175" fill="none"/>
    </clipPath>
  </defs>
  <g id="Layer_2" data-name="Layer 2">
    <g id="Layer_1-2" data-name="Layer 1">
      <g>
        <g>
          <path d="M70.877,379.939c-15.1,0-26.434-4.4-33.7-13.067C21.817,348.534,30.428,317.9,30.8,316.61l21.4-72.444c2.745-13.815,13.886-20.066,23.377-22.893l3.977-19.25c4.072-29.51,31.512-29.848,32.679-29.848H322.744c1.2,0,28.637.338,32.709,29.848l3.977,19.25c9.491,2.827,20.633,9.077,23.378,22.893L404.2,316.6c.378,1.308,8.99,31.937-6.374,50.275-7.264,8.67-18.6,13.067-33.7,13.067Z" fill="#232323"/>
          <path id="main_body" data-name="main body" d="M401.614,317.241l-21.42-72.533c-2.6-13.35-13.832-19.068-23.093-21.519l-4.294-20.783c-3.826-28.051-30.062-27.772-30.062-27.772H112.26s-26.236-.279-30.063,27.772L77.9,223.189c-9.261,2.451-20.49,8.169-23.093,21.519L33.39,317.241s-17.4,60.239,37.486,60.239H364.128C419.019,377.48,401.614,317.241,401.614,317.241Z" fill="#d86c00"/>
        </g>
        <rect x="81.557" y="133.723" width="271.891" height="40.639" rx="17.634" fill="#9e9e9e"/>
        <path id="second_body" data-name="second body" d="M390.212,306.826,370.118,243.26c-2.443-11.7-12.976-16.711-21.663-18.859l-4.028-18.214c-3.589-24.583-28.2-24.338-28.2-24.338H118.778s-24.611-.245-28.2,24.338L86.55,224.4c-8.688,2.148-19.221,7.16-21.663,18.859L44.793,306.826s-16.326,52.792,35.165,52.792H355.047C406.538,359.618,390.212,306.826,390.212,306.826Z" fill="#f7a90b"/>
        <path id="second_body-2" data-name="second body" d="M382.1,297.529l-19.115-61.97c-2.324-11.406-12.344-16.291-20.608-18.385l-3.832-17.757c-3.414-23.966-26.827-23.728-26.827-23.728H123.882s-23.413-.238-26.828,23.728l-3.832,17.757c-8.264,2.094-18.284,6.979-20.608,18.385L53.5,297.529S37.967,349,86.951,349h261.7C397.632,349,382.1,297.529,382.1,297.529Z" fill="#f7a90b"/>
        <path d="M363.8,271.5l-16.648-48.689c-1.783-7.665-8.1-13.129-18.326-15.881l-2.967-12.4c-3.309-20.56-25.416-20.8-26.38-20.8H135.5c-.942,0-23.047.238-26.358,20.8l-2.966,12.405c-10.226,2.752-16.543,8.217-18.325,15.881L71.2,271.516c-.288.861-6.918,21.222,4.535,33.994,5.8,6.473,15.075,9.755,27.554,9.755H331.717c12.48,0,21.75-3.282,27.554-9.755C370.725,292.738,364.094,272.377,363.8,271.5Zm-50.074-61.563H124.147V197.251c2.683-16.985,21.076-16.816,21.076-16.816H292.785s18.393-.17,21.075,16.815Z" fill="#fff"/>
        <path d="M311.971,198.178c-2.63-16.652-20.662-16.486-20.662-16.486H146.64s-18.032-.166-20.663,16.486v12.439H311.841Z" fill="#9e9e9e"/>
        <g>
          <path d="M360.934,270.973l-16.323-47.734c-1.747-7.515-7.942-12.873-17.966-15.571l-2.908-12.161c-3.245-20.157-24.918-20.391-25.863-20.391H137.108c-.922,0-22.595.234-25.84,20.391l-2.908,12.161c-10.025,2.7-16.219,8.056-17.966,15.571L74.067,270.987c-.282.843-6.782,20.8,4.446,33.327,5.691,6.346,14.78,9.564,27.014,9.564H329.478c12.235,0,21.323-3.218,27.013-9.564C367.72,291.792,361.22,271.83,360.934,270.973Zm-49.093-60.356H125.978V198.178c2.63-16.652,20.662-16.486,20.662-16.486H291.309s18.032-.166,20.662,16.486Z" fill="#9e9e9e"/>
          <path d="M358.105,271.661,341.747,223.82c-1.989-8.805-10.564-12.577-17.636-14.193l-3.279-13.708c-2.922-18.5-22.958-18.318-22.958-18.318H137.131s-20.036-.184-22.958,18.318l-3.279,13.708c-7.072,1.616-15.647,5.388-17.635,14.193L76.9,271.661s-13.291,39.733,28.627,39.733H329.478C371.4,311.394,358.105,271.661,358.105,271.661Zm-46.264-61.044H125.978V198.178c2.63-16.652,20.662-16.486,20.662-16.486H291.309s18.032-.166,20.662,16.486Z" fill="#232323"/>
        </g>
        <ellipse cx="126.951" cy="239.18" rx="26.284" ry="15.581" fill="#bfbb1f"/>
        <path d="M126.951,257.046c-16.02,0-28.569-7.847-28.569-17.866s12.549-17.866,28.569-17.866,28.57,7.848,28.57,17.866S142.971,257.046,126.951,257.046Z" fill="#232323"/>
        <ellipse cx="126.951" cy="239.18" rx="26.284" ry="15.581" fill="#e27a0a"/>
        <path d="M126.951,252.475c-14.738,0-26.283-6.844-26.283-15.581s11.545-15.58,26.283-15.58,26.284,6.844,26.284,15.58S141.69,252.475,126.951,252.475Z" fill="#e27a0a"/>
        <ellipse cx="126.951" cy="235.752" rx="23.998" ry="13.295" fill="#e5c507"/>
        <ellipse cx="188.201" cy="239.18" rx="26.284" ry="15.581" fill="#bfbb1f"/>
        <path d="M188.2,257.046c-16.02,0-28.57-7.847-28.57-17.866s12.55-17.866,28.57-17.866,28.569,7.848,28.569,17.866S204.221,257.046,188.2,257.046Z" fill="#232323"/>
        <ellipse cx="188.201" cy="239.18" rx="26.284" ry="15.581" fill="#e27a0a"/>
        <path d="M188.2,252.475c-14.739,0-26.284-6.844-26.284-15.581s11.545-15.58,26.284-15.58,26.284,6.844,26.284,15.58S202.939,252.475,188.2,252.475Z" fill="#e27a0a"/>
        <ellipse cx="188.201" cy="235.752" rx="23.998" ry="13.295" fill="#e5c507"/>
        <ellipse cx="249.45" cy="239.18" rx="26.284" ry="15.581" fill="#bfbb1f"/>
        <path d="M249.45,257.046c-16.02,0-28.569-7.847-28.569-17.866s12.549-17.866,28.569-17.866,28.569,7.848,28.569,17.866S265.47,257.046,249.45,257.046Z" fill="#232323"/>
        <ellipse cx="249.45" cy="239.18" rx="26.284" ry="15.581" fill="#e27a0a"/>
        <path d="M249.45,252.475c-14.738,0-26.284-6.844-26.284-15.581s11.546-15.58,26.284-15.58,26.284,6.844,26.284,15.58S264.188,252.475,249.45,252.475Z" fill="#e27a0a"/>
        <ellipse cx="249.45" cy="235.752" rx="23.998" ry="13.295" fill="#e5c507"/>
        <ellipse cx="310.7" cy="239.18" rx="26.284" ry="15.581" fill="#bfbb1f"/>
        <path d="M310.7,257.046c-16.02,0-28.57-7.847-28.57-17.866s12.55-17.866,28.57-17.866,28.569,7.848,28.569,17.866S326.72,257.046,310.7,257.046Z" fill="#232323"/>
        <ellipse cx="310.7" cy="239.18" rx="26.284" ry="15.581" fill="#e27a0a"/>
        <path d="M310.7,252.475c-14.739,0-26.284-6.844-26.284-15.581s11.545-15.58,26.284-15.58,26.283,6.844,26.283,15.58S325.438,252.475,310.7,252.475Z" fill="#e27a0a"/>
        <ellipse cx="310.7" cy="235.752" rx="23.998" ry="13.295" fill="#e5c507"/>
        <ellipse cx="156.253" cy="261.484" rx="26.284" ry="15.581" fill="#bfbb1f"/>
        <path d="M156.253,279.35c-16.02,0-28.569-7.848-28.569-17.866s12.549-17.866,28.569-17.866,28.569,7.847,28.569,17.866S172.273,279.35,156.253,279.35Z" fill="#232323"/>
        <ellipse cx="156.253" cy="261.484" rx="26.284" ry="15.581" fill="#e27a0a"/>
        <path d="M156.253,274.779c-14.738,0-26.284-6.844-26.284-15.581s11.546-15.58,26.284-15.58,26.284,6.844,26.284,15.58S170.991,274.779,156.253,274.779Z" fill="#e27a0a"/>
        <ellipse cx="156.253" cy="258.055" rx="23.998" ry="13.295" fill="#e5c507"/>
        <ellipse cx="217.502" cy="261.484" rx="26.284" ry="15.581" fill="#bfbb1f"/>
        <path d="M217.5,279.35c-16.02,0-28.569-7.848-28.569-17.866s12.549-17.866,28.569-17.866,28.57,7.847,28.57,17.866S233.522,279.35,217.5,279.35Z" fill="#232323"/>
        <ellipse cx="217.502" cy="261.484" rx="26.284" ry="15.581" fill="#e27a0a"/>
        <path d="M217.5,274.779c-14.738,0-26.283-6.844-26.283-15.581s11.545-15.58,26.283-15.58,26.284,6.844,26.284,15.58S232.241,274.779,217.5,274.779Z" fill="#e27a0a"/>
        <ellipse cx="217.502" cy="258.055" rx="23.998" ry="13.295" fill="#e5c507"/>
        <ellipse cx="278.752" cy="261.484" rx="26.284" ry="15.581" fill="#bfbb1f"/>
        <path d="M278.752,279.35c-16.02,0-28.57-7.848-28.57-17.866s12.55-17.866,28.57-17.866,28.569,7.847,28.569,17.866S294.772,279.35,278.752,279.35Z" fill="#232323"/>
        <ellipse cx="278.752" cy="261.484" rx="26.284" ry="15.581" fill="#e27a0a"/>
        <path d="M278.752,274.779c-14.739,0-26.284-6.844-26.284-15.581s11.545-15.58,26.284-15.58,26.284,6.844,26.284,15.58S293.49,274.779,278.752,274.779Z" fill="#e27a0a"/>
        <ellipse cx="278.752" cy="258.055" rx="23.998" ry="13.295" fill="#e5c507"/>
        <ellipse cx="124.305" cy="285.678" rx="26.284" ry="15.581" fill="#bfbb1f"/>
        <path d="M124.305,303.544c-16.02,0-28.569-7.848-28.569-17.866s12.549-17.866,28.569-17.866,28.569,7.847,28.569,17.866S140.325,303.544,124.305,303.544Z" fill="#232323"/>
        <ellipse cx="124.305" cy="285.678" rx="26.284" ry="15.581" fill="#e27a0a"/>
        <path d="M124.305,298.973c-14.738,0-26.284-6.844-26.284-15.581s11.546-15.58,26.284-15.58,26.284,6.843,26.284,15.58S139.043,298.973,124.305,298.973Z" fill="#e27a0a"/>
        <ellipse cx="124.305" cy="282.249" rx="23.998" ry="13.295" fill="#e5c507"/>
        <ellipse cx="185.555" cy="285.678" rx="26.284" ry="15.581" fill="#bfbb1f"/>
        <path d="M185.555,303.544c-16.02,0-28.57-7.848-28.57-17.866s12.55-17.866,28.57-17.866,28.569,7.847,28.569,17.866S201.575,303.544,185.555,303.544Z" fill="#232323"/>
        <ellipse cx="185.555" cy="285.678" rx="26.284" ry="15.581" fill="#e27a0a"/>
        <path d="M185.555,298.973c-14.739,0-26.284-6.844-26.284-15.581s11.545-15.58,26.284-15.58,26.283,6.843,26.283,15.58S200.293,298.973,185.555,298.973Z" fill="#e27a0a"/>
        <ellipse cx="185.555" cy="282.249" rx="23.998" ry="13.295" fill="#e5c507"/>
        <ellipse cx="246.804" cy="285.678" rx="26.284" ry="15.581" fill="#bfbb1f"/>
        <path d="M246.8,303.544c-16.02,0-28.569-7.848-28.569-17.866s12.549-17.866,28.569-17.866,28.569,7.847,28.569,17.866S262.824,303.544,246.8,303.544Z" fill="#232323"/>
        <ellipse cx="246.804" cy="285.678" rx="26.284" ry="15.581" fill="#e27a0a"/>
        <path d="M246.8,298.973c-14.738,0-26.284-6.844-26.284-15.581s11.546-15.58,26.284-15.58,26.284,6.843,26.284,15.58S261.542,298.973,246.8,298.973Z" fill="#e27a0a"/>
        <ellipse cx="246.804" cy="282.249" rx="23.998" ry="13.295" fill="#e5c507"/>
        <ellipse cx="308.053" cy="285.678" rx="26.284" ry="15.581" fill="#bfbb1f"/>
        <path d="M308.053,303.544c-16.02,0-28.569-7.848-28.569-17.866s12.549-17.866,28.569-17.866,28.57,7.847,28.57,17.866S324.073,303.544,308.053,303.544Z" fill="#232323"/>
        <ellipse cx="308.053" cy="285.678" rx="26.284" ry="15.581" fill="#e27a0a"/>
        <path d="M308.053,298.973c-14.738,0-26.283-6.844-26.283-15.581s11.545-15.58,26.283-15.58,26.284,6.843,26.284,15.58S322.792,298.973,308.053,298.973Z" fill="#e27a0a"/>
        <ellipse cx="308.053" cy="282.249" rx="23.998" ry="13.295" fill="#e5c507"/>
        <path d="M398.085,333.518s-2.038,28.168-25.019,31.559H61.939c-22.981-3.391-25.02-31.559-25.02-31.559,0,.166-6.951,38.572,25.224,38.463H372.862C405.037,372.09,398.091,333.684,398.085,333.518Z" fill="#a86b00"/>
        <path d="M378.082,305.666s-1.812,27-22.248,30.249H80.284a11.948,11.948,0,0,1-2.658-.3c-18.983-4.327-20.7-29.951-20.7-29.951,0,.159-6.181,36.971,22.43,36.866h276.3C384.264,342.637,378.087,305.825,378.082,305.666Z" fill="#a86b00"/>
        <g>
          <path d="M114.169,51.744c1.522-2.2,5.476-2.417,8.954-.076s4.973,5.953,3.452,8.156a6.389,6.389,0,0,1-7.679.9l-3.4,5.45-2.2-1.522,3.4-5.45C113.682,56.625,112.765,53.6,114.169,51.744Z" fill="#acafbc"/>
          <path d="M98.634,41.44c1.521-2.2,5.476-2.417,8.954-.075s4.973,5.953,3.451,8.155a6.386,6.386,0,0,1-7.678.9l-3.4,5.45-2.2-1.522,3.4-5.45C98.5,46.44,97.578,43.413,98.634,41.44Z" fill="#acafbc"/>
          <path d="M83.329,31.6c1.521-2.2,5.476-2.417,8.954-.075s4.973,5.953,3.452,8.155a6.387,6.387,0,0,1-7.679.9l-3.4,5.45-2.2-1.522,3.4-5.45C82.842,36.485,81.925,33.457,83.329,31.6Z" fill="#acafbc"/>
          <path d="M67.793,21.3c1.522-2.2,5.477-2.417,8.955-.076s4.973,5.953,3.451,8.156a6.388,6.388,0,0,1-7.679.895l-3.4,5.45-2.2-1.521,3.4-5.45A6.086,6.086,0,0,1,67.793,21.3Z" fill="#acafbc"/>
          <path d="M52.837,11.581c1.522-2.2,5.476-2.417,8.954-.076s4.973,5.953,3.452,8.155a6.387,6.387,0,0,1-7.679.9l-3.4,5.45-2.2-1.522,3.4-5.45C52.58,16.929,51.315,13.783,52.837,11.581Z" fill="#acafbc"/>
          <path d="M37.532,1.744c1.522-2.2,5.476-2.418,8.954-.076s4.973,5.953,3.452,8.155a6.387,6.387,0,0,1-7.679.9l-3.4,5.45-2.2-1.522,3.4-5.45C37.393,6.743,36.477,3.716,37.532,1.744Z" fill="#acafbc"/>
          <path d="M91.286,97.572l75.981,92.092a6.229,6.229,0,0,0,8.752,1.006c.108-.085.213-.175.315-.267l16.225-13.532a6.23,6.23,0,0,0,1.006-8.752c-.086-.107-.175-.213-.268-.315l-75.75-91.625a6.229,6.229,0,0,0-8.752-1.007c-.108.086-.213.175-.315.268L92.255,88.972A6.008,6.008,0,0,0,91.146,97.4C91.191,97.456,91.238,97.514,91.286,97.572Z" fill="#efb14d"/>
          <path d="M129.921,91.235a21.631,21.631,0,0,1,1.564-11.5s2-4.758-4.845-8.627L30.293,8.223S7.9-3.623.345,22.157c0,0-3.787,14.635,13.731,23.668a16.849,16.849,0,0,0,13.836.412s6.408-2.878,11.826,7.495c0,0,22.36,44.057,26.417,46.982,0,0,.8,2.213,6.044.493,0,0,15.143-5.746,31.349,10.607Z" fill="#af7000"/>
          <g>
            <path d="M51,58.318l-.809-1.05L46.341,59.46l-.692-1.4L49.5,55.87l-.81-1.051,1.4-.691,2.192,3.847Z" fill="#efb14d"/>
            <path d="M50.521,60.874,52.4,57.627l1.039,1.516L52.5,60.767l1.977-.107,1.04,1.516-3.955.215-1.982,1.27-.692-1.4Z" fill="#efb14d"/>
            <path d="M55.4,62.524l1.27,1.983a1.945,1.945,0,0,1-.332,2.731,1.826,1.826,0,0,1-.262.173,2.276,2.276,0,0,1-2.905-.594l-.23-.466L51.421,67.39l-.691-1.4Zm-.134,3.837c.466-.23.236-.7.354-1.045l-.231-.466-1.05.809.231.467Z" fill="#efb14d"/>
            <path d="M57.809,69.164l-.584.578,1.039,1.517-1.05.809-1.039-1.516-.815.112,1.27,1.983-1.4.691L53.27,69.957l4.9-3,1.961,3.381-1.05.809Z" fill="#efb14d"/>
            <path d="M57.193,76.719l1.291-2.668L56.5,75.321l-.692-1.4,4.9-3,1.27,1.983a1.944,1.944,0,0,1-.332,2.73,1.921,1.921,0,0,1-.262.174c-.585.579-1.281.343-1.978.107l-1.291,2.669Zm1.875-3.247.231.466c.23.466.579.584.7.236a.511.511,0,0,0,.243-.681l-.008-.016L60,73.011Z" fill="#efb14d"/>
            <path d="M61.009,81.5l-1.27-1.982-.815.112-1.039-1.516,6.516-.9.578.584-3.745,5.332-1.04-1.516Zm.7-.927.82-1.275-1.629.225Z" fill="#efb14d"/>
            <path d="M64.031,81.75a3.006,3.006,0,0,1,4.164.844c.048.073.092.147.134.222a2.209,2.209,0,0,1,.338,2.444l-1.512-.123c.118-.349.006-1.163-.343-1.281a1.662,1.662,0,0,0-2.09-.707,1.386,1.386,0,0,0-.358,2.208c.23.466.578.584,1.275.819l-.471,1.394a2.708,2.708,0,0,1-1.855-1.4,3.052,3.052,0,0,1,.534-4.283C63.907,81.836,63.968,81.792,64.031,81.75Z" fill="#efb14d"/>
            <path d="M69.122,87.355l-.584.579,1.04,1.516-1.05.809-1.04-1.516-.584.579,1.27,1.982-1.4.692-1.962-3.381,4.9-3L71.673,89l-1.05.809Z" fill="#efb14d"/>
            <path d="M68.855,95.029l1.291-2.669-1.982,1.27-.692-1.4,4.9-3,1.27,1.983a1.946,1.946,0,0,1-.332,2.731,1.893,1.893,0,0,1-.263.173c-.584.579-1.28.343-1.977.108l-1.291,2.668Zm1.757-2.9.231.467c.23.466.579.584.7.235a.51.51,0,0,0,.244-.68l-.008-.016-.23-.466Z" fill="#efb14d"/>
          </g>
        </g>
        <g>
          <polygon points="389.199 67.618 267.452 210.801 240.787 191.36 349.606 38.75 389.199 67.618" fill="#232323"/>
          <circle cx="363.696" cy="60.162" r="33" fill="#4c4c4c"/>
          <g clip-path="url(#clip-path)">
            <circle cx="363.696" cy="60.162" r="33" fill="#232323"/>
          </g>
        </g>
        <g id="Layer_2-2" data-name="Layer 2">
          <g id="Layer_21" data-name="Layer 21">
            <g>
              <g>
                <g>
                  <g>
                    <circle cx="220.254" cy="119.423" r="91.736" fill="#f7a90b"/>
                    <path d="M220.48,211.611a93.381,93.381,0,0,1-17.624-1.8A91.986,91.986,0,0,1,130.063,101.99l.037-.191A92.061,92.061,0,1,1,272,195.569,91.25,91.25,0,0,1,220.48,211.611ZM220.254,28.14a91.5,91.5,0,0,0-89.7,74.111,89.571,89.571,0,0,0,14.009,68.46,90.524,90.524,0,0,0,58.295,38.638,89.577,89.577,0,0,0,68.46-14.009,90.53,90.53,0,0,0,38.638-58.3,89.579,89.579,0,0,0-14.01-68.461,90.534,90.534,0,0,0-58.292-38.639A77.153,77.153,0,0,0,220.254,28.14Z" fill="#af7000"/>
                  </g>
                  <g>
                    <circle cx="220.254" cy="119.423" r="70.948" fill="#f7a90b"/>
                    <path d="M220.254,190.823A68.955,68.955,0,0,1,206.7,189.47a71.346,71.346,0,1,1,83.691-56.949c-.03.153-.059.306-.089.459A71.478,71.478,0,0,1,220.254,190.823Zm0-142.122a70.027,70.027,0,1,0,13.631,1.144l-.074-.015A91.47,91.47,0,0,0,220.254,48.7Z" fill="#af7000"/>
                  </g>
                  <g>
                    <circle cx="220.254" cy="119.423" r="56.939" fill="#f7a90b"/>
                    <path d="M220.254,176.815a58.967,58.967,0,0,1-10.846-1.13,57,57,0,1,1,10.846,1.13Zm0-113.879a57.26,57.26,0,0,0-31.632,9.716A56.639,56.639,0,1,0,275.839,130.5h0A56.909,56.909,0,0,0,231.1,64.068,44.278,44.278,0,0,0,220.254,62.936Z" fill="#af7000"/>
                  </g>
                  <g>
                    <circle cx="220.254" cy="119.423" r="49.031" fill="#f7a90b"/>
                    <path d="M220.48,168.906a45,45,0,0,1-9.49-.9,49.508,49.508,0,1,1,58.3-39.316h0A49.793,49.793,0,0,1,248.5,160.321,51.569,51.569,0,0,1,220.48,168.906Zm-.226-98.062A48.572,48.572,0,0,0,193.14,79.2a47.982,47.982,0,0,0-20.564,31.181,48.72,48.72,0,0,0,7.456,36.6,47.985,47.985,0,0,0,31.181,20.564A48.726,48.726,0,0,0,247.82,160.1a47.985,47.985,0,0,0,20.564-31.181,48.76,48.76,0,0,0-48.128-58.07Z" fill="#af7000"/>
                  </g>
                  <circle cx="220.254" cy="119.423" r="40.671"/>
                  <circle cx="220.254" cy="119.423" r="32.763" fill="#f7a90b"/>
                  <circle cx="220.254" cy="119.423" r="2.711"/>
                  <path d="M241.493,112.419l-38.185-7.457a1.717,1.717,0,0,1-1.354-1.805l.678-3.841a1.718,1.718,0,0,1,1.805-1.354l38.186,7.457a1.717,1.717,0,0,1,1.353,1.805l-.678,3.841A1.718,1.718,0,0,1,241.493,112.419Z" fill="#a86b00"/>
                  <path d="M241.493,115.81l-39.541-7.682a.789.789,0,0,1-.754-.824.8.8,0,0,1,.076-.305v-.452a.791.791,0,0,1,.825-.754.806.806,0,0,1,.305.076l39.541,7.682a.791.791,0,0,1,.754.827.779.779,0,0,1-.076.3v.452C242.4,115.582,241.945,116.034,241.493,115.81Z" fill="#a86b00"/>
                </g>
                <g>
                  <polygon points="293.688 65.195 128.97 121.231 129.422 128.235 297.981 71.522 293.688 65.195" fill="#fff" opacity="0.64" style="isolation: isolate"/>
                  <polygon points="300.015 74.911 129.874 132.98 130.552 137.047 302.048 78.752 300.015 74.911" fill="#fff" opacity="0.64" style="isolation: isolate"/>
                </g>
              </g>
              <path d="M211.389,118.014a9.986,9.986,0,0,1-.457,2.32,10.319,10.319,0,0,1-.922,1.811,6.084,6.084,0,0,1-1.91,1.828.6.6,0,0,0-.258.447c-.011.429.027.927.015,1.354.03.189.08.258.258.29a7.14,7.14,0,0,1,2.12.913,3.935,3.935,0,0,1,1.784,2.886,4.947,4.947,0,0,1-.356,2.461,4.369,4.369,0,0,1-1.981,2.246,12.2,12.2,0,0,1-1.257.524.636.636,0,0,1-.319.068c-.129.04-.2.089-.161.219-.012.428.037.867.026,1.3a3.037,3.037,0,0,1,0,.738c-.021.488-.033.916-.054,1.4a3.172,3.172,0,0,1-.967,2.05,2.794,2.794,0,0,1-1.537.723,3.75,3.75,0,0,1-1.824-.129,4.441,4.441,0,0,1-1.412-.732,3.183,3.183,0,0,1-.715-.86,2.682,2.682,0,0,1-.242-2.191,2.418,2.418,0,0,1,1.23-1.452,2.028,2.028,0,0,1,2.182.187,2.119,2.119,0,0,1,.83,2.355,2.453,2.453,0,0,1-.632,1.183.461.461,0,0,0-.16.219c-.08.109-.031.18.089.2a.89.89,0,0,0,.678-.008,1.956,1.956,0,0,0,1.461-1.719c.031-.548-.008-1.047.025-1.595.021-.488-.017-.987.015-1.535l.019-.119a.221.221,0,0,0-.153-.272.241.241,0,0,0-.044-.008l-.359-.061a8.591,8.591,0,0,1-1.7-.474,7.621,7.621,0,0,1-2.347-1.383,2.99,2.99,0,0,1-1.013-1.279,5.863,5.863,0,0,1-.639-2.753,5.735,5.735,0,0,1,.838-2.747,9.625,9.625,0,0,1,1.419-1.849,8.325,8.325,0,0,1,1.788-1.479c.55-.337,1.109-.734,1.658-1.071.14-.1.27-.139.41-.238a.319.319,0,0,0,.16-.219c-.009-.309.031-.548.022-.857.013-.8.075-1.524.148-2.311a7,7,0,0,1,.755-2.639,3.085,3.085,0,0,1,1.6-1.45,1.019,1.019,0,0,1,1.086.123,1.641,1.641,0,0,1,.407.5,4.888,4.888,0,0,1,.6,1.886A3.908,3.908,0,0,0,211.389,118.014Zm-4.53,7.469h0a1.046,1.046,0,0,1,.011-.428c.031-.179-.078-.258-.268-.23-.06-.011-.06-.011-.129.039a6.828,6.828,0,0,0-.878.466,6.585,6.585,0,0,0-1.629,1.26,5.792,5.792,0,0,0-1.623,2.676,2.446,2.446,0,0,0-.112.657,2.781,2.781,0,0,0,.473,1.925,4.46,4.46,0,0,0,2.047,1.7,6.143,6.143,0,0,0,1.772.425c.3.05.439-.049.43-.358l0-1.106q0-1.107.007-2.213c-.018-.617.024-1.225.006-1.844.01-.059-.04-.128-.089-.2l-.179-.031a1.779,1.779,0,0,0-.628.078,2.139,2.139,0,0,0-1.483,1.839,2.183,2.183,0,0,0,.235,1.147,2.348,2.348,0,0,0,.8,1.059,2.159,2.159,0,0,0,.5.331c.109.079.2.279.118.386-.011.06-.07.05-.08.11a2.068,2.068,0,0,1-.608-.042,2.439,2.439,0,0,1-1.1-.741,3,3,0,0,1-.751-1.727,3.536,3.536,0,0,1,.376-2.211,3.861,3.861,0,0,1,1.25-1.57,4.39,4.39,0,0,1,1.488-.793.282.282,0,0,0,.23-.268A.31.31,0,0,1,206.859,125.483Zm3.639,5.722a1.508,1.508,0,0,0-.049-.438,2.551,2.551,0,0,0-.722-1.537,4.2,4.2,0,0,0-1.392-.849l-.3-.051c-.119-.02-.19.029-.15.159-.022.489.006,1.046-.015,1.535-.023.857,0,1.784.041,2.651l.027.927a.254.254,0,0,0,.257.251.245.245,0,0,0,.071-.011c.06.01.07-.05.129-.039a4.791,4.791,0,0,0,.739-.366A2.886,2.886,0,0,0,210.5,131.205Zm-2.8-11.36h0c.009.309.008.678.017.987.019.249.188.34.447.258.06.01.07-.05.129-.04a3.154,3.154,0,0,0,.759-.486,4.208,4.208,0,0,0,1.322-1.988,1.7,1.7,0,0,0-.125-1.436.661.661,0,0,0-.676-.361,1.087,1.087,0,0,0-.6.268,3.086,3.086,0,0,0-.811,1.153A4.065,4.065,0,0,0,207.7,119.845Z"/>
            </g>
          </g>
        </g>
        <g clip-path="url(#clip-path-2)">
          <path d="M219.75,172.515a51.357,51.357,0,1,0,51.356,51.357A51.356,51.356,0,0,0,219.75,172.515Zm0,87.306A35.95,35.95,0,1,1,255.7,223.872,35.949,35.949,0,0,1,219.75,259.821Z" fill="#232323"/>
          <path d="M219.75,176.836a46.221,46.221,0,1,0,46.221,46.22A46.219,46.219,0,0,0,219.75,176.836Zm0,78.575A32.355,32.355,0,1,1,252.1,223.056,32.354,32.354,0,0,1,219.75,255.411Z" fill="#9e9e9e"/>
          <polygon points="219.75 197.034 208.058 217.285 231.442 217.285 219.75 197.034" fill="#232323"/>
          <polygon points="219.75 203.556 208.058 223.806 231.442 223.806 219.75 203.556" fill="#9e9e9e"/>
        </g>
      </g>
    </g>
  </g>
</svg>
