<?xml version="1.0" encoding="utf-8"?>
<!-- Generator: Adobe Illustrator 25.0.0, SVG Export Plug-In . SVG Version: 6.00 Build 0)  -->
<svg version="1.1" id="Layer_1" xmlns="http://www.w3.org/2000/svg" xmlns:xlink="http://www.w3.org/1999/xlink" x="0px" y="0px"
	 viewBox="0 0 800 250" style="enable-background:new 0 0 800 250;" xml:space="preserve">
<style type="text/css">
	.st0{fill:#CDF5F9;}
	.st1{fill:#FFFFFF;}
	.st2{fill:#444444;}
	.st3{fill:#0F5E0F;}
	.st4{fill:#094909;}
	.st5{fill:#09890C;}
	.st6{fill:#0C440C;}
	.st7{fill:#3B3B3B;}
	.st8{display:none;}
	.st9{display:inline;opacity:0.47;fill:url(#SVGID_1_);enable-background:new    ;}
	.st10{fill:#FF0000;}
	.st11{fill:#2D2D2D;}
	.st12{fill:#FF8206;}
	.st13{clip-path:url(#SVGID_3_);}
	.st14{opacity:0.15;enable-background:new    ;}
	.st15{fill:url(#SVGID_4_);}
	.st16{fill:url(#SVGID_5_);}
	.st17{fill:url(#SVGID_6_);}
	.st18{fill:#32323F;}
	.st19{fill:#474757;}
	.st20{fill:#DDDDDD;}
	.st21{fill:#BAC0D8;}
	.st22{fill:#ACAFBC;}
	.st23{fill:url(#SVGID_7_);}
	.st24{fill:url(#SVGID_8_);}
	.st25{fill:url(#SVGID_9_);}
	.st26{fill:url(#SVGID_10_);}
	.st27{fill:url(#SVGID_11_);}
	.st28{fill:url(#SVGID_12_);}
	.st29{fill:url(#SVGID_13_);}
	.st30{fill:url(#SVGID_14_);}
	.st31{fill:url(#SVGID_15_);}
</style>
<g>
	<g id="Layer_1_1_">
		<rect class="st0" width="800" height="250"/>
	</g>
	<g id="Layer_3">
		<g>
			<path class="st1" d="M713.8,64c-3-16.5-17.4-28.9-34.7-28.9c-4.8,0-9.4,1-13.6,2.7C658.7,28.2,647.6,22,635,22
				c-12.7,0-23.9,6.3-30.6,16c-4.7-3.3-10.3-5.3-16.5-5.3c-15.7,0-28.5,12.7-28.5,28.5c0,0.9,0,1.9,0.1,2.8H713.8z"/>
		</g>
		<g>
			<path class="st1" d="M414.4,94c2.2-12.1,12.8-21.4,25.6-21.4c3.6,0,7,0.7,10,2c5-7.1,13.2-11.7,22.5-11.7
				c9.4,0,17.6,4.7,22.6,11.8c3.4-2.4,7.6-3.9,12.2-3.9c11.6,0,21,9.4,21,21c0,0.7,0,1.4-0.1,2.1H414.4V94z"/>
		</g>
		<g>
			<path class="st1" d="M92.3,62.7c-6.2,0-11.8,2-16.5,5.3c-6.7-9.7-17.9-16-30.6-16c-12.6,0-23.7,6.2-30.5,15.8
				c-4.2-1.8-8.8-2.7-13.6-2.7c-0.4,0-0.7,0-1.1,0V94h120.6c0.1-0.9,0.1-1.9,0.1-2.8C120.8,75.5,108,62.7,92.3,62.7z"/>
		</g>
	</g>
	<path class="st2" d="M565.5,231.1L565.5,231.1c-2.9,0-5.2-2.3-5.2-5.2V31.3c0-2.9,2.3-5.2,5.2-5.2l0,0c2.9,0,5.2,2.3,5.2,5.2v194.6
		C570.7,228.8,568.4,231.1,565.5,231.1z"/>
	<g>
		<g>
			<path class="st3" d="M306,155.5c-6.4,8.9-15.2,16.4-25.9,21.3c-21.5,9.8-45.4,7-63.6-5.3c-8.4,13.6-13.7,29.4-14.8,46.3h-0.2V250
				h203.3v-32.2h-0.2c-1.4-20.6-8.9-39.5-20.7-54.9c-2.4,1.5-4.9,2.8-7.5,4C352,178,324.4,172.6,306,155.5z"/>
			<path class="st4" d="M303.1,123c-36.6,0-68.7,19.4-86.6,48.5c18.2,12.3,42.2,15.1,63.6,5.3c10.7-4.9,19.5-12.3,25.9-21.3
				c18.4,17.1,46,22.5,70.3,11.4c2.6-1.2,5.1-2.5,7.5-4C365.2,138.6,336,123,303.1,123z"/>
		</g>
		<g>
			<path class="st5" d="M254.6,245.9c-1.9-28-13.6-46.7-33.6-63.9c-4.7,1.8-9.8,2.8-15.2,2.8c-10.6,0-20.2-3.9-27.7-10.3
				c-4.5,5.1-9.9,9.3-16,12.4c-6.2,29-31.9,50.8-62.8,50.8c-15.2,0-29.1-5.3-40.1-14c-3.3,9-5.5,6.9-6.2,16.9l0,0l0,0h203.3l1.2,1.8
				l-0.5,3.8L254.6,245.9z"/>
			<path class="st6" d="M162.2,186.9c6.1-3.1,11.5-7.3,16-12.4c7.4,6.4,17.1,10.3,27.7,10.3c5.4,0,10.5-1,15.2-2.8
				c-17.8-15.4-41-24.7-66.4-24.7c-43.7,0-81,27.6-95.4,66.3c11,8.8,24.9,14,40.1,14C130.3,237.7,156,215.9,162.2,186.9z"/>
		</g>
	</g>
	<g id="Layer_5">
		<rect y="220" class="st7" width="800" height="30"/>
		<rect x="15" y="220" class="st1" width="99" height="6"/>
		<rect x="221" y="220" class="st1" width="99" height="6"/>
		<rect x="429" y="220" class="st1" width="99" height="6"/>
		<rect x="635" y="220" class="st1" width="99" height="6"/>
	</g>
	<g id="Layer_6">
	</g>
	<g id="Layer_8" class="st8">
		
			<linearGradient id="SVGID_1_" gradientUnits="userSpaceOnUse" x1="400" y1="-44" x2="400" y2="-294" gradientTransform="matrix(1 0 0 -1 0 -44)">
			<stop  offset="0" style="stop-color:#666666"/>
			<stop  offset="1" style="stop-color:#333333"/>
		</linearGradient>
		<rect class="st9" width="800" height="250"/>
	</g>
	<g>
		<g>
			<rect x="570.7" y="36.3" class="st1" width="33.7" height="33.7"/>
			<rect x="570.7" y="70" width="33.7" height="33.7"/>
			<rect x="604.5" y="70.1" class="st1" width="33.7" height="33.7"/>
			<rect x="604.5" y="36.3" width="33.7" height="33.7"/>
			<rect x="638.2" y="36.3" class="st1" width="33.7" height="33.7"/>
			<rect x="638.2" y="70" width="33.7" height="33.7"/>
			<rect x="672" y="70.1" class="st1" width="33.7" height="33.7"/>
			<rect x="672" y="36.3" width="33.7" height="33.7"/>
			<rect x="705.7" y="36.3" class="st1" width="33.7" height="33.7"/>
			<rect x="705.7" y="70" width="33.7" height="33.7"/>
			<rect x="739.5" y="70.1" class="st1" width="33.7" height="33.7"/>
			<rect x="739.5" y="36.3" width="33.7" height="33.7"/>
		</g>
		<g>
			<g>
				<g>
					<path class="st10" d="M620,84.1c-0.5,0-1.1,0-1.9-0.1c-0.8-0.1-1.6-0.2-2.4-0.4c-0.9-0.2-1.8-0.4-2.6-0.7
						c-0.9-0.3-1.7-0.6-2.5-1s-1.5-0.9-2-1.4c-0.6-0.7-0.9-1.4-0.9-2.3s0.3-1.7,1-2.4c0.7-0.7,1.5-1.1,2.4-1.1
						c0.6,0,1.1,0.1,1.6,0.4c0.6,0.3,1.2,0.6,1.8,0.9c0.6,0.2,1.2,0.4,1.8,0.6s1.2,0.3,1.8,0.4s1.3,0.1,2,0.1c0.4,0,1,0,1.6-0.1
						s1.1-0.2,1.6-0.3c0.5-0.2,0.8-0.4,1.2-0.7c0.1-0.1,0.3-0.3,0.3-0.8c0-0.3-0.1-0.7-0.7-1c-0.7-0.4-1.6-0.8-2.7-1.1
						c-1.1-0.4-2.4-0.7-3.7-1.1c-1.4-0.4-2.8-0.9-4-1.6c-1.3-0.7-2.3-1.6-3.2-2.7c-0.9-1.2-1.4-2.7-1.4-4.6c0-1.6,0.4-3,1.2-4.1
						c0.7-1.1,1.7-1.9,2.9-2.5c1.1-0.6,2.3-1,3.7-1.2c1.3-0.2,2.6-0.3,3.8-0.3c0.6,0,1.3,0,2.1,0.1s1.6,0.2,2.4,0.3
						c0.8,0.1,1.6,0.3,2.3,0.5c0.8,0.2,1.5,0.5,2.1,0.7c0.6,0.3,1.1,0.7,1.5,1.1c0.4,0.5,0.6,1.2,0.6,2c0,0.9-0.3,1.8-1,2.4
						s-1.5,1-2.4,1c-0.4,0-0.8-0.1-1.3-0.3c-1-0.4-2.1-0.7-3.1-0.9s-2.1-0.3-3.2-0.3c-0.4,0-0.9,0-1.5,0c-0.5,0-1.1,0.1-1.6,0.2
						c-0.4,0.1-0.8,0.3-1.1,0.5c-0.1,0.1-0.2,0.2-0.2,0.6c0,0.1,0,0.3,0.2,0.5c0.2,0.3,0.6,0.5,1,0.8c0.4,0.3,1,0.5,1.5,0.7
						c0.6,0.2,1.2,0.4,1.8,0.6s1.1,0.3,1.6,0.5c0.5,0.1,0.9,0.3,1.2,0.3c1,0.3,2,0.7,3,1.1s1.9,0.9,2.7,1.6c0.8,0.6,1.4,1.5,1.9,2.4
						c0.5,1,0.7,2.1,0.7,3.4c0,1.7-0.4,3.2-1.1,4.4c-0.7,1.1-1.7,2.1-2.9,2.8c-1.1,0.7-2.4,1.1-3.8,1.4
						C622.7,83.9,621.3,84.1,620,84.1z"/>
					<path d="M620.6,56c0.6,0,1.3,0,2.1,0.1s1.5,0.2,2.3,0.3s1.5,0.3,2.3,0.5c0.7,0.2,1.4,0.4,1.9,0.7c0.4,0.2,0.8,0.5,1.1,0.9
						s0.4,0.8,0.4,1.3c0,0.7-0.2,1.3-0.7,1.7c-0.5,0.5-1.1,0.7-1.7,0.7c-0.3,0-0.6-0.1-0.9-0.2c-1.1-0.4-2.2-0.7-3.2-0.9
						c-1.1-0.2-2.2-0.3-3.4-0.3c-0.4,0-0.9,0-1.5,0s-1.2,0.1-1.8,0.3s-1.1,0.4-1.5,0.7s-0.6,0.8-0.6,1.4c0,0.4,0.2,0.8,0.5,1.2
						s0.7,0.7,1.2,1s1.1,0.6,1.7,0.8c0.6,0.2,1.2,0.4,1.8,0.6s1.1,0.3,1.6,0.5c0.5,0.1,0.9,0.3,1.2,0.3c1,0.3,1.9,0.7,2.9,1
						c0.9,0.4,1.7,0.8,2.4,1.4s1.2,1.3,1.7,2.1c0.4,0.8,0.6,1.8,0.6,3c0,1.5-0.3,2.8-1,3.8s-1.5,1.8-2.5,2.4s-2.2,1-3.5,1.3
						c-1.3,0.2-2.6,0.4-3.9,0.4c-0.4,0-1,0-1.8-0.1c-0.7-0.1-1.5-0.2-2.3-0.4c-0.8-0.2-1.7-0.4-2.5-0.6c-0.8-0.3-1.6-0.6-2.3-0.9
						c-0.7-0.4-1.3-0.8-1.7-1.2c-0.4-0.5-0.7-1-0.7-1.6s0.2-1.2,0.7-1.7s1-0.7,1.7-0.7c0.4,0,0.8,0.1,1.1,0.3
						c0.7,0.4,1.3,0.7,1.9,0.9c0.6,0.3,1.3,0.5,1.9,0.6c0.6,0.2,1.3,0.3,1.9,0.4c0.7,0.1,1.4,0.1,2.1,0.1c0.5,0,1,0,1.7-0.1
						c0.6-0.1,1.3-0.2,1.8-0.4c0.6-0.2,1.1-0.5,1.5-0.9s0.6-0.9,0.6-1.5c0-0.8-0.4-1.4-1.2-1.9s-1.7-0.9-2.9-1.2
						c-1.1-0.4-2.4-0.7-3.8-1.1c-1.4-0.4-2.6-0.9-3.8-1.5c-1.1-0.6-2.1-1.4-2.9-2.5c-0.8-1-1.2-2.4-1.2-4c0-1.4,0.3-2.6,1-3.6
						s1.5-1.7,2.5-2.2s2.2-0.9,3.4-1.1C618.2,56.1,619.5,56,620.6,56 M620.6,54c-1.3,0-2.6,0.1-4,0.3c-1.5,0.2-2.8,0.7-4,1.3
						c-1.3,0.7-2.4,1.6-3.2,2.8c-0.9,1.3-1.3,2.9-1.3,4.7c0,2.1,0.5,3.9,1.6,5.2c0.9,1.2,2.1,2.3,3.5,3c1.3,0.7,2.7,1.3,4.2,1.7
						c1.3,0.4,2.6,0.7,3.7,1.1c1,0.3,1.8,0.6,2.4,1c0.1,0.1,0.2,0.1,0.2,0.1l0,0c0,0,0,0,0,0.1c-0.2,0.2-0.5,0.3-0.8,0.4
						c-0.4,0.1-0.9,0.2-1.4,0.3c-0.6,0.1-1.1,0.1-1.5,0.1c-0.7,0-1.3,0-1.9-0.1c-0.6-0.1-1.1-0.2-1.7-0.3c-0.5-0.1-1.1-0.3-1.6-0.6
						c-0.6-0.2-1.1-0.5-1.7-0.8c-0.7-0.4-1.4-0.6-2.1-0.6c-1.2,0-2.3,0.5-3.1,1.4s-1.3,1.9-1.3,3.1c0,1.1,0.4,2.1,1.2,2.9
						c0.6,0.6,1.4,1.2,2.2,1.6s1.7,0.8,2.6,1c0.9,0.3,1.8,0.5,2.7,0.7s1.7,0.3,2.5,0.4s1.5,0.1,2,0.1c1.4,0,2.8-0.1,4.2-0.4
						c1.5-0.3,2.9-0.8,4.1-1.5c1.3-0.8,2.4-1.8,3.2-3.1c0.9-1.3,1.3-3,1.3-4.9c0-1.5-0.3-2.8-0.8-3.9s-1.3-2-2.2-2.7
						c-0.8-0.7-1.8-1.3-2.9-1.7c-1-0.4-2-0.8-3-1.1l0,0l0,0c-0.3-0.1-0.7-0.2-1.2-0.3c-0.5-0.1-1-0.3-1.6-0.5
						c-0.5-0.2-1.1-0.4-1.7-0.6c-0.5-0.2-1-0.4-1.4-0.6c-0.2-0.1-0.4-0.3-0.6-0.4c0.1-0.1,0.3-0.1,0.5-0.2c0.4-0.1,0.9-0.2,1.3-0.2
						c0.6,0,1.1,0,1.5,0c1,0,2,0.1,3,0.3s2,0.5,3,0.8c0.6,0.2,1.1,0.3,1.6,0.3c1.2,0,2.3-0.5,3.2-1.3c0.9-0.9,1.3-1.9,1.3-3.2
						c0-1-0.3-1.9-0.9-2.6c-0.5-0.6-1.1-1.1-1.8-1.4c-0.7-0.3-1.4-0.6-2.3-0.8c-0.8-0.2-1.6-0.4-2.4-0.5c-0.8-0.2-1.7-0.3-2.5-0.3
						C622,54.1,621.3,54,620.6,54L620.6,54z"/>
				</g>
				<g>
					<path class="st10" d="M644.9,83.9c-1,0-1.9-0.4-2.6-1.1c-0.7-0.7-1-1.6-1-2.6V62.4h-6.2c-1,0-1.8-0.3-2.4-1s-1-1.5-1-2.4
						s0.3-1.8,1-2.4c0.7-0.7,1.5-1,2.4-1h19.6c0.9,0,1.8,0.3,2.4,1c0.7,0.7,1,1.5,1,2.4s-0.4,1.8-1,2.4c-0.7,0.7-1.5,1-2.4,1h-6.2
						v17.9c0,1-0.4,1.9-1.1,2.6C646.7,83.5,645.9,83.9,644.9,83.9z"/>
					<path d="M654.7,56.5c0.7,0,1.3,0.2,1.7,0.7c0.5,0.5,0.7,1.1,0.7,1.7c0,0.7-0.2,1.3-0.7,1.7c-0.5,0.5-1.1,0.7-1.7,0.7h-7.2v18.9
						c0,0.7-0.3,1.4-0.8,1.9s-1.1,0.8-1.9,0.8s-1.3-0.3-1.8-0.8s-0.7-1.1-0.7-1.9V61.4h-7.2c-0.7,0-1.3-0.2-1.7-0.7s-0.7-1-0.7-1.7
						s0.2-1.3,0.7-1.7s1-0.7,1.7-0.7L654.7,56.5 M654.7,54.5h-19.6c-1.2,0-2.3,0.5-3.2,1.3c-0.8,0.9-1.3,1.9-1.3,3.1
						c0,1.2,0.4,2.3,1.3,3.1c0.8,0.8,1.9,1.3,3.1,1.3h5.2v16.9c0,1.3,0.5,2.4,1.3,3.3c0.9,0.9,2,1.4,3.3,1.4s2.4-0.5,3.3-1.3
						c0.9-0.9,1.3-2,1.3-3.3V63.4h5.2c1.2,0,2.3-0.4,3.1-1.3c0.9-0.8,1.3-1.9,1.3-3.2c0-1.2-0.5-2.3-1.3-3.2
						C657,54.9,655.9,54.5,654.7,54.5L654.7,54.5z"/>
				</g>
				<g>
					<path class="st10" d="M680.2,83.9c-0.7,0-1.3-0.2-1.9-0.5c-0.5-0.3-1-0.8-1.2-1.4l-1.9-4.2h-10l-1.9,4.2
						c-0.3,0.6-0.7,1.1-1.3,1.5c-0.6,0.3-1.2,0.5-1.8,0.5c-1,0-1.8-0.3-2.4-1c-0.7-0.7-1-1.5-1-2.4c0-0.5,0.1-1,0.3-1.4l10-21.9
						c0.3-0.6,0.7-1.1,1.2-1.4c0.6-0.4,1.2-0.6,1.8-0.6s1.3,0.2,1.8,0.5c0.6,0.4,1,0.8,1.3,1.5l10,21.9c0.2,0.5,0.3,1,0.3,1.4
						c0,0.9-0.3,1.8-1,2.4C682,83.5,681.1,83.9,680.2,83.9z M672.3,71.3l-2.1-4.7l-2.1,4.7H672.3z"/>
					<path d="M670.1,56.1c0.5,0,0.9,0.1,1.3,0.4c0.4,0.2,0.7,0.6,0.9,1l10,21.9c0.1,0.3,0.2,0.7,0.2,1c0,0.7-0.2,1.3-0.7,1.7
						s-1,0.7-1.7,0.7c-0.5,0-0.9-0.1-1.3-0.4c-0.4-0.2-0.7-0.6-0.9-1l-2.2-4.8h-11.3l-2.2,4.8c-0.2,0.4-0.5,0.8-0.9,1
						s-0.8,0.4-1.3,0.4c-0.7,0-1.3-0.2-1.7-0.7c-0.5-0.5-0.7-1.1-0.7-1.7c0-0.3,0.1-0.7,0.2-1l10-21.9c0.2-0.4,0.5-0.8,0.9-1
						C669.2,56.3,669.6,56.1,670.1,56.1 M666.5,72.3h7.3l-3.7-8.1L666.5,72.3 M670.1,54.1c-0.9,0-1.7,0.2-2.4,0.7s-1.2,1.1-1.6,1.9
						l-10,21.8c-0.3,0.6-0.4,1.2-0.4,1.8c0,1.2,0.5,2.3,1.3,3.2c0.9,0.9,1.9,1.3,3.2,1.3c0.9,0,1.6-0.2,2.4-0.7
						c0.7-0.5,1.3-1.1,1.6-1.9l1.6-3.6h8.7l1.6,3.6c0.4,0.8,0.9,1.4,1.6,1.9c0.7,0.5,1.5,0.7,2.4,0.7c1.2,0,2.3-0.5,3.1-1.3
						s1.3-1.9,1.3-3.1c0-0.6-0.1-1.2-0.3-1.7v-0.1v-0.1l-10-21.9c-0.4-0.8-1-1.5-1.7-1.9C671.7,54.4,670.9,54.1,670.1,54.1
						L670.1,54.1z M669.6,70.3l0.6-1.3l0.6,1.3H669.6L669.6,70.3z"/>
				</g>
				<g>
					<path class="st10" d="M706.3,83.9c-0.7,0-1.3-0.2-1.8-0.5c-0.6-0.3-1-0.8-1.3-1.4c-0.1-0.2-0.3-0.5-0.5-1l-0.8-1.7
						c-0.4-0.8-0.7-1.5-1.1-2.3c-0.4-0.8-0.8-1.5-1.1-2.2c-0.3-0.6-0.6-1.2-0.8-1.6c0-0.1-0.1-0.1-0.1-0.2h-5.5v7.3
						c0,1-0.4,1.9-1.1,2.6c-0.7,0.7-1.6,1-2.5,1c-1,0-1.9-0.3-2.5-1c-0.7-0.7-1-1.5-1-2.5V59.1c0-1,0.3-1.9,1-2.5
						c0.7-0.7,1.5-1,2.5-1h9.7c1.3,0,2.7,0.1,3.9,0.4c1.3,0.3,2.4,0.8,3.4,1.5s1.8,1.7,2.4,2.8c0.6,1.1,0.9,2.5,0.9,4.1
						c0,1.7-0.4,3.3-1.2,4.6c-0.6,1.1-1.6,2-2.7,2.6c0,0.1,0.1,0.1,0.1,0.2c0.3,0.5,0.6,1.1,0.9,1.7c0.3,0.6,0.6,1.3,1,1.9
						c0.3,0.7,0.6,1.3,0.9,1.9c0.3,0.6,0.5,1.2,0.7,1.7c0.2,0.6,0.3,1,0.3,1.4c0,1-0.3,1.8-1,2.5C708.1,83.5,707.3,83.9,706.3,83.9z
						 M700.1,66.6c0.8,0,1.4-0.2,1.9-0.6c0.3-0.2,0.6-0.6,0.6-1.5c0-1-0.4-1.4-0.6-1.6c-0.5-0.4-1.1-0.6-1.9-0.6h-6.8v4.3
						C693.3,66.6,700.1,66.6,700.1,66.6z"/>
					<path d="M699.4,56.5c1.3,0,2.5,0.1,3.7,0.4c1.2,0.3,2.2,0.7,3,1.4c0.9,0.6,1.5,1.4,2.1,2.4s0.8,2.2,0.8,3.6
						c0,1.5-0.4,2.9-1.1,4.1c-0.7,1.2-1.8,2.1-3.2,2.7c0.1,0.3,0.3,0.6,0.6,1.1s0.5,1,0.9,1.7c0.3,0.6,0.6,1.3,1,1.9
						s0.6,1.3,0.9,1.9c0.3,0.6,0.5,1.1,0.7,1.6s0.3,0.8,0.3,1c0,0.7-0.2,1.3-0.7,1.8s-1.1,0.7-1.8,0.7c-0.5,0-0.9-0.1-1.3-0.4
						c-0.4-0.2-0.7-0.6-0.9-1c-0.1-0.1-0.2-0.5-0.5-1s-0.5-1.1-0.9-1.8c-0.3-0.7-0.7-1.4-1.1-2.2c-0.4-0.8-0.7-1.5-1.1-2.1
						c-0.3-0.7-0.6-1.2-0.8-1.6s-0.3-0.7-0.3-0.7h-7.2v8.3c0,0.7-0.3,1.3-0.8,1.8s-1.1,0.7-1.8,0.7s-1.3-0.2-1.8-0.7
						s-0.7-1.1-0.7-1.8V59.1c0-0.7,0.2-1.3,0.7-1.8s1.1-0.7,1.8-0.7L699.4,56.5 M692.3,67.6h7.8c1,0,1.8-0.3,2.5-0.8
						s1.1-1.3,1.1-2.3s-0.3-1.8-1-2.4c-0.7-0.5-1.5-0.8-2.5-0.8h-7.8L692.3,67.6 M699.4,54.5h-9.7c-1.3,0-2.4,0.5-3.3,1.3
						c-0.9,0.9-1.3,2-1.3,3.3v21.2c0,1.3,0.5,2.4,1.3,3.3c0.9,0.9,2,1.3,3.3,1.3c1.2,0,2.3-0.4,3.2-1.3s1.4-2,1.4-3.3V74h3.9
						c0.2,0.4,0.4,0.8,0.6,1.2c0.3,0.7,0.7,1.4,1.1,2.2c0.4,0.8,0.7,1.5,1.1,2.2v0.1l0.8,1.7c0.3,0.6,0.4,0.9,0.5,1
						c0.4,0.8,0.9,1.4,1.6,1.8c0.7,0.4,1.5,0.7,2.4,0.7c1.2,0,2.3-0.5,3.2-1.3c0.9-0.9,1.3-2,1.3-3.2c0-0.5-0.1-1-0.4-1.7
						c-0.2-0.5-0.4-1.1-0.7-1.7s-0.6-1.3-0.9-1.9c-0.3-0.7-0.7-1.3-1-2c-0.2-0.4-0.4-0.8-0.6-1.1c0.9-0.7,1.7-1.5,2.3-2.5
						c0.9-1.5,1.3-3.2,1.3-5.1c0-1.7-0.3-3.3-1-4.6s-1.5-2.3-2.7-3.1c-1.1-0.8-2.3-1.3-3.7-1.7C702.2,54.7,700.8,54.5,699.4,54.5
						L699.4,54.5z M694.3,63.3h5.8c0.7,0,1.1,0.2,1.3,0.4c0.1,0.1,0.3,0.2,0.3,0.8c0,0.5-0.2,0.7-0.2,0.7c-0.4,0.3-0.8,0.4-1.3,0.4
						h-5.8L694.3,63.3L694.3,63.3z"/>
				</g>
				<g>
					<path class="st10" d="M723.8,83.9c-1,0-1.9-0.4-2.6-1.1c-0.7-0.7-1-1.6-1-2.6V62.4H714c-1,0-1.8-0.3-2.4-1s-1-1.5-1-2.4
						s0.3-1.8,1-2.4c0.7-0.7,1.5-1,2.4-1h19.6c1,0,1.8,0.3,2.4,1c0.7,0.7,1,1.5,1,2.4s-0.4,1.8-1,2.4c-0.7,0.7-1.5,1-2.4,1h-6.2
						v17.9c0,1-0.4,1.9-1.1,2.6C725.7,83.5,724.8,83.9,723.8,83.9z"/>
					<path d="M733.6,56.5c0.7,0,1.3,0.2,1.7,0.7c0.5,0.5,0.7,1.1,0.7,1.7c0,0.7-0.2,1.3-0.7,1.7c-0.5,0.5-1.1,0.7-1.7,0.7h-7.2v18.9
						c0,0.7-0.3,1.4-0.8,1.9s-1.1,0.8-1.9,0.8s-1.3-0.3-1.8-0.8s-0.7-1.1-0.7-1.9V61.4H714c-0.7,0-1.3-0.2-1.7-0.7s-0.7-1-0.7-1.7
						s0.2-1.3,0.7-1.7s1-0.7,1.7-0.7L733.6,56.5 M733.6,54.5H714c-1.2,0-2.3,0.5-3.2,1.3c-0.8,0.9-1.3,1.9-1.3,3.1
						c0,1.2,0.4,2.3,1.3,3.1c0.8,0.8,1.9,1.3,3.1,1.3h5.2v16.9c0,1.3,0.5,2.4,1.3,3.3c0.9,0.9,2,1.4,3.3,1.4s2.4-0.5,3.3-1.3
						c0.9-0.9,1.3-2,1.3-3.3V63.4h5.2c1.2,0,2.3-0.4,3.1-1.3c0.9-0.8,1.3-1.9,1.3-3.2c0-1.2-0.5-2.3-1.3-3.2
						C735.9,54.9,734.8,54.5,733.6,54.5L733.6,54.5z"/>
				</g>
			</g>
		</g>
		<path class="st2" d="M778.4,231.1L778.4,231.1c-2.9,0-5.2-2.3-5.2-5.2V31.3c0-2.9,2.3-5.2,5.2-5.2l0,0c2.9,0,5.2,2.3,5.2,5.2
			v194.6C783.6,228.8,781.2,231.1,778.4,231.1z"/>
	</g>
</g>
<g>
	<g>
		<g id="Layer_2_1_">
			<g id="Premium">
				<g id="premium-mini-red">
					
						<rect x="452.8" y="174.7" transform="matrix(4.205010e-02 -0.9991 0.9991 4.205010e-02 243.224 655.6131)" class="st11" width="21.5" height="52.6"/>
					<rect x="555" y="192.5" class="st11" width="52.6" height="21.5"/>
					<path class="st12" d="M615.9,192c-0.8-9.2-5.5-14.4-14.5-16.1l-29.7-3.7l-14.1-19.1c-2.6-4-7.1-6.4-11.9-6.4h-75.4
						c-5.5,0-10.8,2.5-14.2,6.8l-16.6,20.7c-1.8,2.3-3.1,4.9-3.6,7.8l-4.1,20.1c-0.6,3.1,0.9,6.3,3.7,7.8l0.2,0.1
						c2.5,1.3,5.1,2.2,7.9,2.6c-2.4-9,2.9-18.3,11.9-20.7c9-2.4,18.3,2.9,20.7,11.9c0.9,3.2,0.8,6.5-0.3,9.7l96.5,1.9
						c-2.7-8.9,2.4-18.3,11.3-21c8.9-2.7,18.3,2.4,21,11.3c1,3.3,1,6.8-0.1,10.1c6.6-1.1,11.4-6.8,11.4-13.4L615.9,192z"/>
					<g>
						<defs>
							<path id="SVGID_2_" d="M615.9,192c-0.8-9.2-5.5-14.4-14.5-16.1l-29.7-3.7l-14.1-19.1c-2.6-4-7.1-6.4-11.9-6.4h-75.4
								c-5.5,0-10.8,2.5-14.2,6.8l-16.6,20.7c-1.8,2.3-3.1,4.9-3.6,7.8l-4.1,20.1c-0.6,3.1,0.9,6.3,3.7,7.8l0.2,0.1
								c2.5,1.3,5.1,2.2,7.9,2.6c-2.4-9,2.9-18.3,11.9-20.7c9-2.4,18.3,2.9,20.7,11.9c0.9,3.2,0.8,6.5-0.3,9.7l96.5,1.9
								c-2.7-8.9,2.4-18.3,11.3-21c8.9-2.7,18.3,2.4,21,11.3c1,3.3,1,6.8-0.1,10.1c6.6-1.1,11.4-6.8,11.4-13.4L615.9,192z"/>
						</defs>
						<clipPath id="SVGID_3_">
							<use xlink:href="#SVGID_2_"  style="overflow:visible;"/>
						</clipPath>
						<path class="st13" d="M429.5,221.4l20.3-49.8l-4.9,51.7l21.8-38.3l-1.8,40.4l18.8-48.9l5,50.2c0,0,6.9-33.2,6.9-31.5
							s1.7,30.1,1.7,30.1l8.6-48.9v50.2l6.6-1.8l11.9-31.8l2.9,27.8l8.9,0.5l8.6-40v39.5l10.3,0l7.1-27.8l2.6,27.8l4-0.5l10.1-37.8
							l4.2,41l11.4,3.1l2.9-46.6l9.2,41.3l0.6,9.5l-20.6,16.9C586.5,247.8,429.2,228.4,429.5,221.4z"/>
						<path class="st13" d="M607.1,148.3l-20.3,49.8l4.9-51.7l-21.8,38.3l1.8-40.4l-18.8,48.9l-5-50.2c0,0-6.9,33.2-6.9,31.5
							s-1.7-30.1-1.7-30.1l-8.6,48.9v-50.2l-6.6,1.8l-11.9,31.8l-2.9-27.8l-8.9-0.5l-8.6,40v-39.5l-10.3,0l-7.1,27.8l-2.6-27.8
							l-4,0.5l-10.1,37.8l-4.2-41l-11.4-3.1l-2.9,46.6l-9.2-41.3l-0.6-9.5l20.6-16.9C450.1,121.9,607.4,141.3,607.1,148.3z"/>
						<g class="st13">
							<path class="st14" d="M430.6,177.4l145.9,10.3c0,0,36.3-11.7,44.6,9.2l-3.4,28.3c0,0-25.7,5.4-28.6,5.4s-84.4,0.6-89,0
								s-71.5-5.4-71.5-5.4l-7.4-28.9L430.6,177.4z"/>
							<path class="st1" d="M463.5,121.9l87.9,1.1c4,0,7.2,3.3,7.2,7.3l-0.2,14.1c0,4-3.3,7.2-7.3,7.2l-87.9-1.1
								c-4,0-7.2-3.3-7.2-7.3l0.2-14.1C456.2,125.1,459.5,121.9,463.5,121.9z"/>
						</g>
					</g>
					
						<linearGradient id="SVGID_4_" gradientUnits="userSpaceOnUse" x1="509.5595" y1="88.2448" x2="556.4559" y2="88.2448" gradientTransform="matrix(1 0 0 -1 0 252)">
						<stop  offset="0" style="stop-color:#C9E7F9"/>
						<stop  offset="1" style="stop-color:#AAFFF9"/>
					</linearGradient>
					<path class="st15" d="M551.9,174.6l-38-0.9c-2.4-0.1-4.3-2-4.3-4.4v-12c0-2.4,2-4.4,4.4-4.4c0,0,0.1,0,0.1,0l29.6,0.9
						c1.4,0,2.7,0.7,3.5,1.9l8.5,11.9c1.4,2,1,4.8-1,6.2C553.8,174.3,552.9,174.6,551.9,174.6z"/>
					
						<linearGradient id="SVGID_5_" gradientUnits="userSpaceOnUse" x1="462.6632" y1="88.4305" x2="504.6966" y2="88.4305" gradientTransform="matrix(1 0 0 -1 0 252)">
						<stop  offset="0" style="stop-color:#C9E7F9"/>
						<stop  offset="1" style="stop-color:#AAFFF9"/>
					</linearGradient>
					<path class="st16" d="M466.8,173.3l33.5,1.1c2.3,0.1,4.3-1.8,4.4-4.1c0,0,0-0.1,0-0.1V157c0-2.3-1.9-4.2-4.2-4.2l0,0h-27.9
						c-1.7,0-3.2,1-3.9,2.5l-5.6,12c-1,2.1-0.1,4.7,2,5.6C465.6,173.1,466.2,173.3,466.8,173.3z"/>
					
						<linearGradient id="SVGID_6_" gradientUnits="userSpaceOnUse" x1="552.7145" y1="89.452" x2="571.6321" y2="89.452" gradientTransform="matrix(1 0 0 -1 0 252)">
						<stop  offset="0" style="stop-color:#C9E7F9"/>
						<stop  offset="1" style="stop-color:#AAFFF9"/>
					</linearGradient>
					<path class="st17" d="M571.6,172.2l-4.5,0.8c-0.9,0.4-1.9,0.1-2.4-0.7l-11.7-17c-0.6-0.9-0.4-2.1,0.5-2.7
						c0.2-0.2,0.5-0.3,0.8-0.3l2.1-0.4L571.6,172.2z"/>
					
						<ellipse transform="matrix(4.205308e-02 -0.9991 0.9991 4.205308e-02 229.4715 660.9407)" class="st18" cx="459.4" cy="210.8" rx="14.4" ry="14.5"/>
					
						<ellipse transform="matrix(4.205010e-02 -0.9991 0.9991 4.205010e-02 229.4728 660.9414)" class="st19" cx="459.4" cy="210.8" rx="14" ry="14.1"/>
					
						<ellipse transform="matrix(4.205010e-02 -0.9991 0.9991 4.205010e-02 229.4728 660.9414)" cx="459.4" cy="210.8" rx="10.6" ry="10.6"/>
					
						<ellipse transform="matrix(4.205010e-02 -0.9991 0.9991 4.205010e-02 229.4728 660.9414)" class="st1" cx="459.4" cy="210.8" rx="10.1" ry="10.1"/>
					
						<ellipse transform="matrix(4.205010e-02 -0.9991 0.9991 4.205010e-02 229.4728 660.9414)" class="st20" cx="459.4" cy="210.8" rx="9.5" ry="9.6"/>
					
						<ellipse transform="matrix(4.205010e-02 -0.9991 0.9991 4.205010e-02 229.4728 660.9414)" class="st21" cx="459.4" cy="210.8" rx="5.9" ry="6"/>
					
						<ellipse transform="matrix(4.205010e-02 -0.9991 0.9991 4.205010e-02 229.4728 660.9414)" class="st22" cx="459.4" cy="210.8" rx="5.4" ry="5.4"/>
					
						<ellipse transform="matrix(4.205010e-02 -0.9991 0.9991 4.205010e-02 353.6064 790.4097)" class="st18" cx="589" cy="210.8" rx="14.4" ry="14.5"/>
					
						<ellipse transform="matrix(4.205010e-02 -0.9991 0.9991 4.205010e-02 353.6064 790.4097)" class="st19" cx="589" cy="210.8" rx="14" ry="14.1"/>
					
						<ellipse transform="matrix(4.205010e-02 -0.9991 0.9991 4.205010e-02 353.6064 790.4097)" cx="589" cy="210.8" rx="10.6" ry="10.6"/>
					
						<ellipse transform="matrix(4.205010e-02 -0.9991 0.9991 4.205010e-02 353.6064 790.4097)" class="st1" cx="589" cy="210.8" rx="10.1" ry="10.1"/>
					
						<ellipse transform="matrix(4.205010e-02 -0.9991 0.9991 4.205010e-02 353.6064 790.4097)" class="st20" cx="589" cy="210.8" rx="9.5" ry="9.6"/>
					
						<ellipse transform="matrix(4.205010e-02 -0.9991 0.9991 4.205010e-02 353.6064 790.4097)" class="st21" cx="589" cy="210.8" rx="5.9" ry="6"/>
					
						<ellipse transform="matrix(4.205010e-02 -0.9991 0.9991 4.205010e-02 353.6064 790.4097)" class="st22" cx="589" cy="210.8" rx="5.4" ry="5.4"/>
					
						<linearGradient id="SVGID_7_" gradientUnits="userSpaceOnUse" x1="429.4965" y1="48.0296" x2="438.8874" y2="48.0296" gradientTransform="matrix(1 0 0 -1 -2.844527e-03 252.0012)">
						<stop  offset="0" style="stop-color:#999999"/>
						<stop  offset="1" style="stop-color:#FFFFFF"/>
					</linearGradient>
					<path class="st23" d="M431.8,201.6l5.4,0.7c1.1,0.1,1.9,1.2,1.7,2.3l0,0c-0.1,1.1-1.2,1.9-2.3,1.7l-5.4-0.7
						c-1.1-0.1-1.9-1.2-1.7-2.3l0,0C429.7,202.2,430.7,201.5,431.8,201.6z"/>
					
						<linearGradient id="SVGID_8_" gradientUnits="userSpaceOnUse" x1="935.7623" y1="1262.4778" x2="945.1762" y2="1262.4778" gradientTransform="matrix(0.99 -7.000000e-02 -0.13 -0.51 -250.52 889.67)">
						<stop  offset="0" style="stop-color:#999999"/>
						<stop  offset="1" style="stop-color:#FFFFFF"/>
					</linearGradient>
					<path class="st24" d="M511.3,179.3h7.9c0.4,0,0.7,0.3,0.7,0.7v0c0,0.4-0.3,0.7-0.7,0.7h-7.9c-0.4,0-0.7-0.3-0.7-0.7v0
						C510.6,179.6,510.9,179.3,511.3,179.3z"/>
					
						<linearGradient id="SVGID_9_" gradientUnits="userSpaceOnUse" x1="887.5717" y1="1269.1003" x2="896.9855" y2="1269.1003" gradientTransform="matrix(0.99 -7.000000e-02 -0.13 -0.51 -250.52 889.67)">
						<stop  offset="0" style="stop-color:#999999"/>
						<stop  offset="1" style="stop-color:#FFFFFF"/>
					</linearGradient>
					<path class="st25" d="M462.7,179.3h7.9c0.4,0,0.7,0.3,0.7,0.7v0c0,0.4-0.3,0.7-0.7,0.7h-7.9c-0.4,0-0.7-0.3-0.7-0.7v0
						C461.9,179.6,462.3,179.3,462.7,179.3z"/>
					
						<linearGradient id="SVGID_10_" gradientUnits="userSpaceOnUse" x1="-2258.199" y1="88.5044" x2="-2248.5603" y2="88.5044" gradientTransform="matrix(10.3026 7.600001e-02 -1.3806 -0.998 23864.3496 470.2656)">
						<stop  offset="0" style="stop-color:#999999"/>
						<stop  offset="1" style="stop-color:#FFFFFF"/>
					</linearGradient>
					<path class="st26" d="M477.3,207.8l94.2,1.9c1.1,0,1.9,0.9,1.9,2v0c0,1.1-0.9,1.9-2,1.9l-94.2-1.9c-1.1,0-1.9-0.9-1.9-2v0
						C475.3,208.6,476.2,207.7,477.3,207.8z"/>
					
						<linearGradient id="SVGID_11_" gradientUnits="userSpaceOnUse" x1="607.1022" y1="44.739" x2="616.2558" y2="44.739" gradientTransform="matrix(1 0 0 -1 0 252)">
						<stop  offset="0" style="stop-color:#999999"/>
						<stop  offset="1" style="stop-color:#FFFFFF"/>
					</linearGradient>
					<path class="st27" d="M609,205.4h5.4c1,0,1.9,0.8,1.9,1.9l0,0c0,1-0.8,1.9-1.9,1.9H609c-1,0-1.9-0.8-1.9-1.9l0,0
						C607.1,206.2,607.9,205.4,609,205.4z"/>
					
						<linearGradient id="SVGID_12_" gradientUnits="userSpaceOnUse" x1="345.288" y1="426.2238" x2="349.0067" y2="426.2238" gradientTransform="matrix(0.991 0.1342 0.1342 -0.991 214.6427 581.3315)">
						<stop  offset="0" style="stop-color:#999999"/>
						<stop  offset="1" style="stop-color:#FFFFFF"/>
					</linearGradient>
					<path class="st28" d="M616.6,199.7L616.6,199.7c1,0.1,1.7,1.1,1.6,2.1l-1.1,7.9c-0.1,1-1.1,1.7-2.1,1.6l0,0
						c-1-0.1-1.7-1.1-1.6-2.1l1.1-7.9C614.7,200.3,615.6,199.6,616.6,199.7z"/>
					
						<linearGradient id="SVGID_13_" gradientUnits="userSpaceOnUse" x1="613.9674" y1="64.7997" x2="617.686" y2="64.7253" gradientTransform="matrix(1 0 0 -1 0 252)">
						<stop  offset="0.55" style="stop-color:#FFFFFF"/>
						<stop  offset="1" style="stop-color:#FFF994"/>
					</linearGradient>
					<path class="st29" d="M615.8,181.4L615.8,181.4c1,0,1.9,0.8,1.9,1.9v8c0,1-0.8,1.9-1.9,1.9l0,0c-1,0-1.9-0.8-1.9-1.9v-8
						C614,182.2,614.8,181.4,615.8,181.4z"/>
					
						<linearGradient id="SVGID_14_" gradientUnits="userSpaceOnUse" x1="606.5301" y1="64.7625" x2="615.6837" y2="64.7625" gradientTransform="matrix(1 0 0 -1 0 252)">
						<stop  offset="0" style="stop-color:#FFFFFF"/>
						<stop  offset="1" style="stop-color:#A1A1A1"/>
					</linearGradient>
					<polygon class="st30" points="606.5,191.1 615.7,193.1 615.7,181.4 606.5,183.7 					"/>
					
						<linearGradient id="SVGID_15_" gradientUnits="userSpaceOnUse" x1="442.338" y1="89.855" x2="458.3062" y2="89.855" gradientTransform="matrix(1 0 0 -1 0 252)">
						<stop  offset="0" style="stop-color:#C9E7F9"/>
						<stop  offset="1" style="stop-color:#AAFFF9"/>
					</linearGradient>
					<path class="st31" d="M456.6,152.8l0.5,0.1c1,0.4,1.5,1.6,1,2.6c-0.1,0.2-0.2,0.3-0.3,0.5l-12,14.9c-0.4,0.5-1.1,0.8-1.8,0.7
						l-1.8-1L456.6,152.8z"/>
				</g>
			</g>
		</g>
	</g>
</g>
</svg>
