<?xml version="1.0" encoding="utf-8"?>
<!-- Generator: Adobe Illustrator 25.0.1, SVG Export Plug-In . SVG Version: 6.00 Build 0)  -->
<svg version="1.1" id="Layer_1" xmlns="http://www.w3.org/2000/svg" xmlns:xlink="http://www.w3.org/1999/xlink" x="0px" y="0px"
	 viewBox="0 0 800 250" style="enable-background:new 0 0 800 250;" xml:space="preserve">
<style type="text/css">
	.st0{fill:#222222;}
	.st1{opacity:0.8;fill:#FFFFFF;enable-background:new    ;}
	.st2{fill:#1C1C1C;}
	.st3{fill:#FFFFFF;}
	.st4{fill:#444444;}
	.st5{fill:#FF0000;}
	.st6{fill:#3B3B3B;}
	.st7{fill:url(#SVGID_1_);}
	.st8{fill:url(#SVGID_2_);}
	.st9{fill:#21468B;}
	.st10{fill:#AE1C28;}
	.st11{fill:#4E514E;}
	.st12{opacity:0.25;fill:#FFFFFF;enable-background:new    ;}
	.st13{fill:#32323F;}
	.st14{fill:#474757;}
	.st15{fill:#DDDDDD;}
	.st16{fill:#BAC0D8;}
	.st17{fill:#ACAFBC;}
	.st18{fill:url(#SVGID_3_);}
	.st19{fill:url(#SVGID_4_);}
	.st20{fill:url(#SVGID_5_);}
	.st21{fill:url(#SVGID_6_);}
	.st22{fill:url(#SVGID_7_);}
	.st23{fill:url(#SVGID_8_);}
	.st24{fill:url(#SVGID_9_);}
	.st25{fill:url(#SVGID_10_);}
	.st26{fill:url(#SVGID_11_);}
	.st27{fill:url(#SVGID_12_);}
	.st28{fill:url(#SVGID_13_);}
	.st29{opacity:0.47;fill:url(#SVGID_14_);enable-background:new    ;}
</style>
<g id="Layer_1_1_">
	<rect class="st0" width="800" height="250"/>
</g>
<g id="Layer_7">
	<circle class="st1" cx="579.5" cy="72.5" r="3.5"/>
	<circle class="st1" cx="694.5" cy="30.5" r="3.5"/>
	<circle class="st1" cx="464.5" cy="34.5" r="3.5"/>
	<circle class="st1" cx="727.5" cy="125.5" r="3.5"/>
	<circle class="st1" cx="486.5" cy="130.5" r="3.5"/>
	<circle class="st1" cx="201.5" cy="20.5" r="3.5"/>
	<circle class="st1" cx="83.5" cy="34.5" r="3.5"/>
	<circle class="st1" cx="29.5" cy="98.5" r="3.5"/>
	<g>
		<g>
			<path class="st2" d="M306,155.5c-6.4,8.9-15.2,16.4-25.9,21.3c-21.5,9.8-45.4,7-63.6-5.3c-8.4,13.6-13.7,29.4-14.8,46.3h-0.2v28
				h203.3v-28h-0.2c-1.4-20.6-8.9-39.5-20.7-54.9c-2.4,1.5-4.9,2.8-7.5,4C352,178,324.4,172.6,306,155.5z"/>
			<path class="st3" d="M303.1,123c-36.6,0-68.7,19.4-86.6,48.5c18.2,12.3,42.2,15.1,63.6,5.3c10.7-4.9,19.5-12.3,25.9-21.3
				c18.4,17.1,46,22.5,70.3,11.4c2.6-1.2,5.1-2.5,7.5-4C365.2,138.6,336,123,303.1,123z"/>
		</g>
		<g>
			<path class="st4" d="M256.1,252.1c-1.9-28-15.1-52.9-35.1-70.1c-4.7,1.8-9.8,2.8-15.2,2.8c-10.6,0-20.2-3.9-27.7-10.3
				c-4.5,5.1-9.9,9.3-16,12.4c-6.2,29-31.9,50.8-62.8,50.8c-15.2,0-29.1-5.3-40.1-14c-3.3,9-5.4,18.5-6.1,28.5H53V250h203.3v2.1
				H256.1z"/>
			<path class="st3" d="M162.2,186.9c6.1-3.1,11.5-7.3,16-12.4c7.4,6.4,17.1,10.3,27.7,10.3c5.4,0,10.5-1,15.2-2.8
				c-17.8-15.4-41-24.7-66.4-24.7c-43.7,0-81,27.6-95.4,66.3c11,8.8,24.9,14,40.1,14C130.3,237.7,156,215.9,162.2,186.9z"/>
		</g>
	</g>
	<path class="st4" d="M565.5,231.1L565.5,231.1c-2.9,0-5.2-2.3-5.2-5.2V31.3c0-2.9,2.3-5.2,5.2-5.2l0,0c2.9,0,5.2,2.3,5.2,5.2v194.6
		C570.7,228.8,568.4,231.1,565.5,231.1z"/>
	<g>
		<g>
			<rect x="570.7" y="36.3" class="st3" width="33.7" height="33.7"/>
			<rect x="570.7" y="70" width="33.7" height="33.7"/>
			<rect x="604.5" y="70.1" class="st3" width="33.7" height="33.7"/>
			<rect x="604.5" y="36.3" width="33.7" height="33.7"/>
			<rect x="638.2" y="36.3" class="st3" width="33.7" height="33.7"/>
			<rect x="638.2" y="70" width="33.7" height="33.7"/>
			<rect x="672" y="70.1" class="st3" width="33.7" height="33.7"/>
			<rect x="672" y="36.3" width="33.7" height="33.7"/>
			<rect x="705.7" y="36.3" class="st3" width="33.7" height="33.7"/>
			<rect x="705.7" y="70" width="33.7" height="33.7"/>
			<rect x="739.5" y="70.1" class="st3" width="33.7" height="33.7"/>
			<rect x="739.5" y="36.3" width="33.7" height="33.7"/>
		</g>
		<g>
			<g>
				<g>
					<path class="st5" d="M620,84.1c-0.5,0-1.1,0-1.9-0.1c-0.8-0.1-1.6-0.2-2.4-0.4c-0.9-0.2-1.8-0.4-2.6-0.7
						c-0.9-0.3-1.7-0.6-2.5-1s-1.5-0.9-2-1.4c-0.6-0.7-0.9-1.4-0.9-2.3s0.3-1.7,1-2.4c0.7-0.7,1.5-1.1,2.4-1.1
						c0.6,0,1.1,0.1,1.6,0.4c0.6,0.3,1.2,0.6,1.8,0.9c0.6,0.2,1.2,0.4,1.8,0.6s1.2,0.3,1.8,0.4s1.3,0.1,2,0.1c0.4,0,1,0,1.6-0.1
						s1.1-0.2,1.6-0.3c0.5-0.2,0.8-0.4,1.2-0.7c0.1-0.1,0.3-0.3,0.3-0.8c0-0.3-0.1-0.7-0.7-1c-0.7-0.4-1.6-0.8-2.7-1.1
						c-1.1-0.4-2.4-0.7-3.7-1.1c-1.4-0.4-2.8-0.9-4-1.6c-1.3-0.7-2.3-1.6-3.2-2.7c-0.9-1.2-1.4-2.7-1.4-4.6c0-1.6,0.4-3,1.2-4.1
						c0.7-1.1,1.7-1.9,2.9-2.5c1.1-0.6,2.3-1,3.7-1.2c1.3-0.2,2.6-0.3,3.8-0.3c0.6,0,1.3,0,2.1,0.1s1.6,0.2,2.4,0.3
						c0.8,0.1,1.6,0.3,2.3,0.5c0.8,0.2,1.5,0.5,2.1,0.7c0.6,0.3,1.1,0.7,1.5,1.1c0.4,0.5,0.6,1.2,0.6,2c0,0.9-0.3,1.8-1,2.4
						s-1.5,1-2.4,1c-0.4,0-0.8-0.1-1.3-0.3c-1-0.4-2.1-0.7-3.1-0.9s-2.1-0.3-3.2-0.3c-0.4,0-0.9,0-1.5,0c-0.5,0-1.1,0.1-1.6,0.2
						c-0.4,0.1-0.8,0.3-1.1,0.5c-0.1,0.1-0.2,0.2-0.2,0.6c0,0.1,0,0.3,0.2,0.5c0.2,0.3,0.6,0.5,1,0.8c0.4,0.3,1,0.5,1.5,0.7
						c0.6,0.2,1.2,0.4,1.8,0.6s1.1,0.3,1.6,0.5c0.5,0.1,0.9,0.3,1.2,0.3c1,0.3,2,0.7,3,1.1s1.9,0.9,2.7,1.6c0.8,0.6,1.4,1.5,1.9,2.4
						c0.5,1,0.7,2.1,0.7,3.4c0,1.7-0.4,3.2-1.1,4.4c-0.7,1.1-1.7,2.1-2.9,2.8c-1.1,0.7-2.4,1.1-3.8,1.4
						C622.7,83.9,621.3,84.1,620,84.1z"/>
					<path d="M620.6,56c0.6,0,1.3,0,2.1,0.1s1.5,0.2,2.3,0.3s1.5,0.3,2.3,0.5c0.7,0.2,1.4,0.4,1.9,0.7c0.4,0.2,0.8,0.5,1.1,0.9
						s0.4,0.8,0.4,1.3c0,0.7-0.2,1.3-0.7,1.7c-0.5,0.5-1.1,0.7-1.7,0.7c-0.3,0-0.6-0.1-0.9-0.2c-1.1-0.4-2.2-0.7-3.2-0.9
						c-1.1-0.2-2.2-0.3-3.4-0.3c-0.4,0-0.9,0-1.5,0s-1.2,0.1-1.8,0.3s-1.1,0.4-1.5,0.7s-0.6,0.8-0.6,1.4c0,0.4,0.2,0.8,0.5,1.2
						s0.7,0.7,1.2,1s1.1,0.6,1.7,0.8c0.6,0.2,1.2,0.4,1.8,0.6s1.1,0.3,1.6,0.5c0.5,0.1,0.9,0.3,1.2,0.3c1,0.3,1.9,0.7,2.9,1
						c0.9,0.4,1.7,0.8,2.4,1.4s1.2,1.3,1.7,2.1c0.4,0.8,0.6,1.8,0.6,3c0,1.5-0.3,2.8-1,3.8s-1.5,1.8-2.5,2.4s-2.2,1-3.5,1.3
						c-1.3,0.2-2.6,0.4-3.9,0.4c-0.4,0-1,0-1.8-0.1c-0.7-0.1-1.5-0.2-2.3-0.4c-0.8-0.2-1.7-0.4-2.5-0.6c-0.8-0.3-1.6-0.6-2.3-0.9
						c-0.7-0.4-1.3-0.8-1.7-1.2c-0.4-0.5-0.7-1-0.7-1.6s0.2-1.2,0.7-1.7s1-0.7,1.7-0.7c0.4,0,0.8,0.1,1.1,0.3
						c0.7,0.4,1.3,0.7,1.9,0.9c0.6,0.3,1.3,0.5,1.9,0.6c0.6,0.2,1.3,0.3,1.9,0.4c0.7,0.1,1.4,0.1,2.1,0.1c0.5,0,1,0,1.7-0.1
						c0.6-0.1,1.3-0.2,1.8-0.4c0.6-0.2,1.1-0.5,1.5-0.9s0.6-0.9,0.6-1.5c0-0.8-0.4-1.4-1.2-1.9s-1.7-0.9-2.9-1.2
						c-1.1-0.4-2.4-0.7-3.8-1.1c-1.4-0.4-2.6-0.9-3.8-1.5c-1.1-0.6-2.1-1.4-2.9-2.5c-0.8-1-1.2-2.4-1.2-4c0-1.4,0.3-2.6,1-3.6
						s1.5-1.7,2.5-2.2s2.2-0.9,3.4-1.1C618.2,56.1,619.5,56,620.6,56 M620.6,54c-1.3,0-2.6,0.1-4,0.3c-1.5,0.2-2.8,0.7-4,1.3
						c-1.3,0.7-2.4,1.6-3.2,2.8c-0.9,1.3-1.3,2.9-1.3,4.7c0,2.1,0.5,3.9,1.6,5.2c0.9,1.2,2.1,2.3,3.5,3c1.3,0.7,2.7,1.3,4.2,1.7
						c1.3,0.4,2.6,0.7,3.7,1.1c1,0.3,1.8,0.6,2.4,1c0.1,0.1,0.2,0.1,0.2,0.1l0,0c0,0,0,0,0,0.1c-0.2,0.2-0.5,0.3-0.8,0.4
						c-0.4,0.1-0.9,0.2-1.4,0.3c-0.6,0.1-1.1,0.1-1.5,0.1c-0.7,0-1.3,0-1.9-0.1c-0.6-0.1-1.1-0.2-1.7-0.3c-0.5-0.1-1.1-0.3-1.6-0.6
						c-0.6-0.2-1.1-0.5-1.7-0.8c-0.7-0.4-1.4-0.6-2.1-0.6c-1.2,0-2.3,0.5-3.1,1.4s-1.3,1.9-1.3,3.1c0,1.1,0.4,2.1,1.2,2.9
						c0.6,0.6,1.4,1.2,2.2,1.6s1.7,0.8,2.6,1c0.9,0.3,1.8,0.5,2.7,0.7s1.7,0.3,2.5,0.4s1.5,0.1,2,0.1c1.4,0,2.8-0.1,4.2-0.4
						c1.5-0.3,2.9-0.8,4.1-1.5c1.3-0.8,2.4-1.8,3.2-3.1c0.9-1.3,1.3-3,1.3-4.9c0-1.5-0.3-2.8-0.8-3.9s-1.3-2-2.2-2.7
						c-0.8-0.7-1.8-1.3-2.9-1.7c-1-0.4-2-0.8-3-1.1l0,0l0,0c-0.3-0.1-0.7-0.2-1.2-0.3c-0.5-0.1-1-0.3-1.6-0.5
						c-0.5-0.2-1.1-0.4-1.7-0.6c-0.5-0.2-1-0.4-1.4-0.6c-0.2-0.1-0.4-0.3-0.6-0.4c0.1-0.1,0.3-0.1,0.5-0.2c0.4-0.1,0.9-0.2,1.3-0.2
						c0.6,0,1.1,0,1.5,0c1,0,2,0.1,3,0.3s2,0.5,3,0.8c0.6,0.2,1.1,0.3,1.6,0.3c1.2,0,2.3-0.5,3.2-1.3c0.9-0.9,1.3-1.9,1.3-3.2
						c0-1-0.3-1.9-0.9-2.6c-0.5-0.6-1.1-1.1-1.8-1.4c-0.7-0.3-1.4-0.6-2.3-0.8c-0.8-0.2-1.6-0.4-2.4-0.5c-0.8-0.2-1.7-0.3-2.5-0.3
						C622,54.1,621.3,54,620.6,54L620.6,54z"/>
				</g>
				<g>
					<path class="st5" d="M644.9,83.9c-1,0-1.9-0.4-2.6-1.1c-0.7-0.7-1-1.6-1-2.6V62.4h-6.2c-1,0-1.8-0.3-2.4-1s-1-1.5-1-2.4
						s0.3-1.8,1-2.4c0.7-0.7,1.5-1,2.4-1h19.6c0.9,0,1.8,0.3,2.4,1c0.7,0.7,1,1.5,1,2.4s-0.4,1.8-1,2.4c-0.7,0.7-1.5,1-2.4,1h-6.2
						v17.9c0,1-0.4,1.9-1.1,2.6C646.7,83.5,645.9,83.9,644.9,83.9z"/>
					<path d="M654.7,56.5c0.7,0,1.3,0.2,1.7,0.7c0.5,0.5,0.7,1.1,0.7,1.7c0,0.7-0.2,1.3-0.7,1.7c-0.5,0.5-1.1,0.7-1.7,0.7h-7.2v18.9
						c0,0.7-0.3,1.4-0.8,1.9s-1.1,0.8-1.9,0.8s-1.3-0.3-1.8-0.8s-0.7-1.1-0.7-1.9V61.4h-7.2c-0.7,0-1.3-0.2-1.7-0.7s-0.7-1-0.7-1.7
						s0.2-1.3,0.7-1.7s1-0.7,1.7-0.7L654.7,56.5 M654.7,54.5h-19.6c-1.2,0-2.3,0.5-3.2,1.3c-0.8,0.9-1.3,1.9-1.3,3.1
						c0,1.2,0.4,2.3,1.3,3.1c0.8,0.8,1.9,1.3,3.1,1.3h5.2v16.9c0,1.3,0.5,2.4,1.3,3.3c0.9,0.9,2,1.4,3.3,1.4s2.4-0.5,3.3-1.3
						c0.9-0.9,1.3-2,1.3-3.3V63.4h5.2c1.2,0,2.3-0.4,3.1-1.3c0.9-0.8,1.3-1.9,1.3-3.2c0-1.2-0.5-2.3-1.3-3.2
						C657,54.9,655.9,54.5,654.7,54.5L654.7,54.5z"/>
				</g>
				<g>
					<path class="st5" d="M680.2,83.9c-0.7,0-1.3-0.2-1.9-0.5c-0.5-0.3-1-0.8-1.2-1.4l-1.9-4.2h-10l-1.9,4.2
						c-0.3,0.6-0.7,1.1-1.3,1.5c-0.6,0.3-1.2,0.5-1.8,0.5c-1,0-1.8-0.3-2.4-1c-0.7-0.7-1-1.5-1-2.4c0-0.5,0.1-1,0.3-1.4l10-21.9
						c0.3-0.6,0.7-1.1,1.2-1.4c0.6-0.4,1.2-0.6,1.8-0.6s1.3,0.2,1.8,0.5c0.6,0.4,1,0.8,1.3,1.5l10,21.9c0.2,0.5,0.3,1,0.3,1.4
						c0,0.9-0.3,1.8-1,2.4C682,83.5,681.1,83.9,680.2,83.9z M672.3,71.3l-2.1-4.7l-2.1,4.7H672.3z"/>
					<path d="M670.1,56.1c0.5,0,0.9,0.1,1.3,0.4c0.4,0.2,0.7,0.6,0.9,1l10,21.9c0.1,0.3,0.2,0.7,0.2,1c0,0.7-0.2,1.3-0.7,1.7
						s-1,0.7-1.7,0.7c-0.5,0-0.9-0.1-1.3-0.4c-0.4-0.2-0.7-0.6-0.9-1l-2.2-4.8h-11.3l-2.2,4.8c-0.2,0.4-0.5,0.8-0.9,1
						s-0.8,0.4-1.3,0.4c-0.7,0-1.3-0.2-1.7-0.7c-0.5-0.5-0.7-1.1-0.7-1.7c0-0.3,0.1-0.7,0.2-1l10-21.9c0.2-0.4,0.5-0.8,0.9-1
						C669.2,56.3,669.6,56.1,670.1,56.1 M666.5,72.3h7.3l-3.7-8.1L666.5,72.3 M670.1,54.1c-0.9,0-1.7,0.2-2.4,0.7s-1.2,1.1-1.6,1.9
						l-10,21.8c-0.3,0.6-0.4,1.2-0.4,1.8c0,1.2,0.5,2.3,1.3,3.2c0.9,0.9,1.9,1.3,3.2,1.3c0.9,0,1.6-0.2,2.4-0.7
						c0.7-0.5,1.3-1.1,1.6-1.9l1.6-3.6h8.7l1.6,3.6c0.4,0.8,0.9,1.4,1.6,1.9c0.7,0.5,1.5,0.7,2.4,0.7c1.2,0,2.3-0.5,3.1-1.3
						s1.3-1.9,1.3-3.1c0-0.6-0.1-1.2-0.3-1.7v-0.1v-0.1l-10-21.9c-0.4-0.8-1-1.5-1.7-1.9C671.7,54.4,670.9,54.1,670.1,54.1
						L670.1,54.1z M669.6,70.3l0.6-1.3l0.6,1.3H669.6L669.6,70.3z"/>
				</g>
				<g>
					<path class="st5" d="M706.3,83.9c-0.7,0-1.3-0.2-1.8-0.5c-0.6-0.3-1-0.8-1.3-1.4c-0.1-0.2-0.3-0.5-0.5-1l-0.8-1.7
						c-0.4-0.8-0.7-1.5-1.1-2.3c-0.4-0.8-0.8-1.5-1.1-2.2c-0.3-0.6-0.6-1.2-0.8-1.6c0-0.1-0.1-0.1-0.1-0.2h-5.5v7.3
						c0,1-0.4,1.9-1.1,2.6c-0.7,0.7-1.6,1-2.5,1c-1,0-1.9-0.3-2.5-1c-0.7-0.7-1-1.5-1-2.5V59.1c0-1,0.3-1.9,1-2.5
						c0.7-0.7,1.5-1,2.5-1h9.7c1.3,0,2.7,0.1,3.9,0.4c1.3,0.3,2.4,0.8,3.4,1.5s1.8,1.7,2.4,2.8c0.6,1.1,0.9,2.5,0.9,4.1
						c0,1.7-0.4,3.3-1.2,4.6c-0.6,1.1-1.6,2-2.7,2.6c0,0.1,0.1,0.1,0.1,0.2c0.3,0.5,0.6,1.1,0.9,1.7c0.3,0.6,0.6,1.3,1,1.9
						c0.3,0.7,0.6,1.3,0.9,1.9c0.3,0.6,0.5,1.2,0.7,1.7c0.2,0.6,0.3,1,0.3,1.4c0,1-0.3,1.8-1,2.5C708.1,83.5,707.3,83.9,706.3,83.9z
						 M700.1,66.6c0.8,0,1.4-0.2,1.9-0.6c0.3-0.2,0.6-0.6,0.6-1.5c0-1-0.4-1.4-0.6-1.6c-0.5-0.4-1.1-0.6-1.9-0.6h-6.8v4.3
						C693.3,66.6,700.1,66.6,700.1,66.6z"/>
					<path d="M699.4,56.5c1.3,0,2.5,0.1,3.7,0.4c1.2,0.3,2.2,0.7,3,1.4c0.9,0.6,1.5,1.4,2.1,2.4s0.8,2.2,0.8,3.6
						c0,1.5-0.4,2.9-1.1,4.1c-0.7,1.2-1.8,2.1-3.2,2.7c0.1,0.3,0.3,0.6,0.6,1.1s0.5,1,0.9,1.7c0.3,0.6,0.6,1.3,1,1.9
						s0.6,1.3,0.9,1.9c0.3,0.6,0.5,1.1,0.7,1.6s0.3,0.8,0.3,1c0,0.7-0.2,1.3-0.7,1.8s-1.1,0.7-1.8,0.7c-0.5,0-0.9-0.1-1.3-0.4
						c-0.4-0.2-0.7-0.6-0.9-1c-0.1-0.1-0.2-0.5-0.5-1s-0.5-1.1-0.9-1.8c-0.3-0.7-0.7-1.4-1.1-2.2c-0.4-0.8-0.7-1.5-1.1-2.1
						c-0.3-0.7-0.6-1.2-0.8-1.6s-0.3-0.7-0.3-0.7h-7.2v8.3c0,0.7-0.3,1.3-0.8,1.8s-1.1,0.7-1.8,0.7s-1.3-0.2-1.8-0.7
						s-0.7-1.1-0.7-1.8V59.1c0-0.7,0.2-1.3,0.7-1.8s1.1-0.7,1.8-0.7L699.4,56.5 M692.3,67.6h7.8c1,0,1.8-0.3,2.5-0.8
						s1.1-1.3,1.1-2.3s-0.3-1.8-1-2.4c-0.7-0.5-1.5-0.8-2.5-0.8h-7.8L692.3,67.6 M699.4,54.5h-9.7c-1.3,0-2.4,0.5-3.3,1.3
						c-0.9,0.9-1.3,2-1.3,3.3v21.2c0,1.3,0.5,2.4,1.3,3.3c0.9,0.9,2,1.3,3.3,1.3c1.2,0,2.3-0.4,3.2-1.3s1.4-2,1.4-3.3V74h3.9
						c0.2,0.4,0.4,0.8,0.6,1.2c0.3,0.7,0.7,1.4,1.1,2.2c0.4,0.8,0.7,1.5,1.1,2.2v0.1l0.8,1.7c0.3,0.6,0.4,0.9,0.5,1
						c0.4,0.8,0.9,1.4,1.6,1.8c0.7,0.4,1.5,0.7,2.4,0.7c1.2,0,2.3-0.5,3.2-1.3c0.9-0.9,1.3-2,1.3-3.2c0-0.5-0.1-1-0.4-1.7
						c-0.2-0.5-0.4-1.1-0.7-1.7s-0.6-1.3-0.9-1.9c-0.3-0.7-0.7-1.3-1-2c-0.2-0.4-0.4-0.8-0.6-1.1c0.9-0.7,1.7-1.5,2.3-2.5
						c0.9-1.5,1.3-3.2,1.3-5.1c0-1.7-0.3-3.3-1-4.6s-1.5-2.3-2.7-3.1c-1.1-0.8-2.3-1.3-3.7-1.7C702.2,54.7,700.8,54.5,699.4,54.5
						L699.4,54.5z M694.3,63.3h5.8c0.7,0,1.1,0.2,1.3,0.4c0.1,0.1,0.3,0.2,0.3,0.8c0,0.5-0.2,0.7-0.2,0.7c-0.4,0.3-0.8,0.4-1.3,0.4
						h-5.8L694.3,63.3L694.3,63.3z"/>
				</g>
				<g>
					<path class="st5" d="M723.8,83.9c-1,0-1.9-0.4-2.6-1.1c-0.7-0.7-1-1.6-1-2.6V62.4H714c-1,0-1.8-0.3-2.4-1s-1-1.5-1-2.4
						s0.3-1.8,1-2.4c0.7-0.7,1.5-1,2.4-1h19.6c1,0,1.8,0.3,2.4,1c0.7,0.7,1,1.5,1,2.4s-0.4,1.8-1,2.4c-0.7,0.7-1.5,1-2.4,1h-6.2
						v17.9c0,1-0.4,1.9-1.1,2.6C725.7,83.5,724.8,83.9,723.8,83.9z"/>
					<path d="M733.6,56.5c0.7,0,1.3,0.2,1.7,0.7c0.5,0.5,0.7,1.1,0.7,1.7c0,0.7-0.2,1.3-0.7,1.7c-0.5,0.5-1.1,0.7-1.7,0.7h-7.2v18.9
						c0,0.7-0.3,1.4-0.8,1.9s-1.1,0.8-1.9,0.8s-1.3-0.3-1.8-0.8s-0.7-1.1-0.7-1.9V61.4H714c-0.7,0-1.3-0.2-1.7-0.7s-0.7-1-0.7-1.7
						s0.2-1.3,0.7-1.7s1-0.7,1.7-0.7L733.6,56.5 M733.6,54.5H714c-1.2,0-2.3,0.5-3.2,1.3c-0.8,0.9-1.3,1.9-1.3,3.1
						c0,1.2,0.4,2.3,1.3,3.1c0.8,0.8,1.9,1.3,3.1,1.3h5.2v16.9c0,1.3,0.5,2.4,1.3,3.3c0.9,0.9,2,1.4,3.3,1.4s2.4-0.5,3.3-1.3
						c0.9-0.9,1.3-2,1.3-3.3V63.4h5.2c1.2,0,2.3-0.4,3.1-1.3c0.9-0.8,1.3-1.9,1.3-3.2c0-1.2-0.5-2.3-1.3-3.2
						C735.9,54.9,734.8,54.5,733.6,54.5L733.6,54.5z"/>
				</g>
			</g>
		</g>
		<path class="st4" d="M778.4,231.1L778.4,231.1c-2.9,0-5.2-2.3-5.2-5.2V31.3c0-2.9,2.3-5.2,5.2-5.2l0,0c2.9,0,5.2,2.3,5.2,5.2
			v194.6C783.6,228.8,781.2,231.1,778.4,231.1z"/>
	</g>
</g>
<g id="Layer_5">
	<rect y="220" class="st6" width="800" height="30"/>
	<rect x="15" y="220" class="st3" width="99" height="6"/>
	<rect x="221" y="220" class="st3" width="99" height="6"/>
	<rect x="429" y="220" class="st3" width="99" height="6"/>
	<rect x="635" y="220" class="st3" width="99" height="6"/>
</g>
<g id="Layer_6">
</g>
<linearGradient id="SVGID_1_" gradientUnits="userSpaceOnUse" x1="664.4" y1="66" x2="710.2798" y2="66" gradientTransform="matrix(1 0 0 -1 0 252)">
	<stop  offset="0" style="stop-color:#FCEE21"/>
	<stop  offset="1" style="stop-color:#FCEE21;stop-opacity:0"/>
</linearGradient>
<polygon class="st7" points="710.2,210.9 664.4,192.8 664.4,180.5 710.2,161.1 "/>
<g id="Layer_2_2_">
	<g id="Layer_14">
		<g id="flagcar-nl">
			
				<radialGradient id="SVGID_2_" cx="479.2345" cy="99.2079" r="9.7384" gradientTransform="matrix(1 0 0 -0.99 0 253.68)" gradientUnits="userSpaceOnUse">
				<stop  offset="0" style="stop-color:#DCDCDC"/>
				<stop  offset="0.69" style="stop-color:#A3A3A3"/>
				<stop  offset="1" style="stop-color:#878787"/>
			</radialGradient>
			<path class="st8" d="M484.1,151.5c-0.2,0.1-0.3,0.2-0.3,0.2s-7.6,0-13-0.7l7.7,8.4h10L484.1,151.5z"/>
			<path class="st3" d="M475.2,199.5h5.6c0.6-12.5,11-22.4,23.7-22.4s23,9.9,23.7,22.4h85.9c0.6-12.5,11-22.4,23.7-22.4
				c12.7,0,23.1,9.9,23.7,22.4h13.1v-1.3c0,0-12.5-33.3-57.6-20.9L466.5,169l0.1,12.7l8.9,8.5L475.2,199.5z"/>
			<path class="st3" d="M674.6,196.1c0-3.1-0.4-6.1-1.3-9.1c0.9,3.7,1.3,7.4,1.3,11.2V196.1z"/>
			<path class="st3" d="M597.6,167.2c0.4,0.7,0.8,1.4,1.2,2.2l9.2,1.1l1-0.8l-2-2.5H597.6z"/>
			<path class="st9" d="M528.3,200.7c0,2.9-0.6,5.9-1.6,8.6l88.8-0.7c-0.9-2.5-1.4-5.2-1.3-7.8c0-0.4,0-0.8,0-1.2h-85.9
				C528.3,199.9,528.3,200.3,528.3,200.7z"/>
			<path class="st9" d="M475.2,200.8v2.6l5.9,0.8c-0.2-1.1-0.3-2.3-0.3-3.4c0-0.4,0-0.8,0-1.2h-5.6L475.2,200.8z"/>
			<path class="st9" d="M661.5,200.7c0,2.5-0.4,5.1-1.2,7.5l14.3-0.1v-8.6h-13.1C661.5,199.9,661.5,200.3,661.5,200.7z"/>
			<path class="st10" d="M551.7,163.6c-8.6-0.9-5.2-5.1-5.2-5.1l5.2-7.2c0,0,1.7-3,6.9-3.4s21.5,0,21.5,0s6-0.8,17.5,19.3h9.4
				l-11.9-15.1c0,0-2.6-2.6,0-3.9l7.3-0.4c-5.1-8.1-14.6-6.8-14.6-6.8s-30.1-1.3-34.4-0.9c-2.7,0.3-5.3,1-7.7,2.1l-34,17.1
				c3.3,0,31.7,3.3,56.8,6.3C560.9,164.7,554.1,163.9,551.7,163.6z"/>
			<path class="st10" d="M642.3,162.8c2.4,0.1,4.7,0.5,7.1,1C647.1,163.2,644.7,162.9,642.3,162.8z"/>
			<path class="st10" d="M484.1,151.5c1.5-1,7.9-5.7,1.4-11.3h-22.8c0,0,0,9,4.7,10.3c1.1,0.3,2.2,0.5,3.4,0.6
				c5.4,0.7,13,0.7,13,0.7S483.9,151.6,484.1,151.5z"/>
			<path class="st11" d="M475.2,203.4v-2.6l0.1-1.3l0.4-9.4l-9-8.5l-0.1-0.1l0.2,19.2c-2.2,0-4.1,1.8-4.1,4.1c0,2.2,1.8,4.1,4.1,4.1
				c0,0,0,0,0,0l16.5,2.3c-1.1-2.2-1.9-4.6-2.2-7.1L475.2,203.4z"/>
			<path class="st11" d="M526.6,209.3c-1.1,2.7-2.6,5.2-4.6,7.3h98.2c-2.1-2.3-3.8-5.1-4.9-8.1L526.6,209.3z"/>
			<path class="st11" d="M674.6,208.1l-14.3,0.1c-1,3.1-2.7,6-5,8.4h19.3c2.4,0.1,4.3-1.8,4.4-4.2c0.1-2.4-1.8-4.3-4.2-4.4
				C674.8,208.1,674.7,208.1,674.6,208.1L674.6,208.1z"/>
			<path class="st12" d="M641.1,162.8c0.4,0,0.8,0,1.3,0C641.5,162.8,641.1,162.8,641.1,162.8z"/>
			<path class="st12" d="M673.4,187c-3.9-15.7-15.7-21.3-23.9-23.2C661,166.8,670.1,175.6,673.4,187z"/>
			<path class="st12" d="M617.9,163.2l-0.2-0.2l0,0L617.9,163.2z"/>
			<path class="st3" d="M674.6,198.2c0-3.8-0.4-7.5-1.3-11.2c-2.4-8.4-8-15.6-15.7-19.9h-45l-3.4,2.9l-0.3-0.4l-1,0.8l-9.2-1.1
				l0.2,0.3c0,0-8.8-1.2-19-2.5H466.7c-0.1,0.6-0.2,1.2-0.2,1.8l150.5,8.4C662.1,164.9,674.6,198.2,674.6,198.2z"/>
			<path class="st12" d="M674.6,198.2c0-3.8-0.4-7.5-1.3-11.2c-2.4-8.4-8-15.6-15.7-19.9h-45l-3.4,2.9l-0.3-0.4l-1,0.8l-9.2-1.1
				l0.2,0.3c0,0-8.8-1.2-19-2.5H466.7c-0.1,0.6-0.2,1.2-0.2,1.8l150.5,8.4C662.1,164.9,674.6,198.2,674.6,198.2z"/>
			<path class="st10" d="M568.5,165.7c-25.1-3-53.5-6.3-56.8-6.3h-35.5c-4.6,0-8.6,3.3-9.5,7.8H580
				C576.2,166.7,572.2,166.2,568.5,165.7z"/>
			<path class="st12" d="M568.5,165.7c-25.1-3-53.5-6.3-56.8-6.3h-35.5c-4.6,0-8.6,3.3-9.5,7.8H580
				C576.2,166.7,572.2,166.2,568.5,165.7z"/>
			<path class="st10" d="M617.9,163.2l-0.3-0.2l-4.9,4.1h45c-2.6-1.5-5.4-2.6-8.3-3.3c-2.3-0.5-4.7-0.9-7.1-1c-0.4,0-0.8,0-1.3,0
				h-23.2l-0.2,0.2L617.9,163.2z"/>
			<path class="st12" d="M617.9,163.2l-0.3-0.2l-4.9,4.1h45c-2.6-1.5-5.4-2.6-8.3-3.3c-2.3-0.5-4.7-0.9-7.1-1c-0.4,0-0.8,0-1.3,0
				h-23.2l-0.2,0.2L617.9,163.2z"/>
			<path class="st13" d="M528.3,200.7c0-0.4,0-0.8,0-1.2c-0.6-12.5-11-22.4-23.7-22.4s-23.1,9.9-23.7,22.4c0,0.4,0,0.8,0,1.2
				c0,1.1,0.1,2.3,0.3,3.4c0.4,2.5,1.1,4.8,2.2,7.1c5.9,11.7,20.2,16.5,31.9,10.6c5.2-2.6,9.3-7.1,11.5-12.5
				C527.7,206.6,528.3,203.6,528.3,200.7z M504.5,223.7c-12.8,0-23.1-10.3-23.1-23c0-12.7,10.3-23,23.1-23s23.1,10.3,23.1,23
				C527.6,213.4,517.3,223.7,504.5,223.7L504.5,223.7z"/>
			<path class="st14" d="M527.6,200.7c0-12.7-10.3-23-23.1-23s-23.1,10.3-23.1,23c0,12.7,10.3,23,23.1,23S527.6,213.4,527.6,200.7z
				 M487.2,200.7c-0.1-9.6,7.7-17.4,17.3-17.5c9.6-0.1,17.4,7.7,17.5,17.3c0.1,9.6-7.7,17.4-17.3,17.5c0,0-0.1,0-0.1,0
				C495,218,487.2,210.3,487.2,200.7L487.2,200.7z"/>
			<path d="M521.9,200.7c0.1-9.6-7.7-17.4-17.3-17.5s-17.4,7.7-17.5,17.3s7.7,17.4,17.3,17.5c0,0,0.1,0,0.1,0
				C514.1,218,521.9,210.3,521.9,200.7z M488,200.7c-0.1-9.1,7.3-16.6,16.4-16.6c9.1-0.1,16.6,7.3,16.6,16.4s-7.3,16.6-16.4,16.6
				c0,0-0.1,0-0.1,0C495.4,217.2,488,209.8,488,200.7C488,200.7,488,200.7,488,200.7z"/>
			<path class="st3" d="M521.1,200.7c0.1-9.1-7.3-16.6-16.4-16.6c-9.1-0.1-16.6,7.3-16.6,16.4s7.3,16.6,16.4,16.6c0,0,0.1,0,0.1,0
				C513.6,217.2,521,209.8,521.1,200.7C521.1,200.7,521.1,200.7,521.1,200.7z M488.9,200.7c-0.1-8.7,6.9-15.7,15.6-15.8
				s15.7,6.9,15.8,15.6c0.1,8.7-6.9,15.7-15.6,15.8c0,0-0.1,0-0.1,0C495.9,216.3,488.9,209.3,488.9,200.7
				C488.9,200.7,488.9,200.7,488.9,200.7z"/>
			<path class="st15" d="M520.2,200.7c0.1-8.7-6.9-15.7-15.6-15.8c-8.7-0.1-15.7,6.9-15.8,15.6c-0.1,8.7,6.9,15.7,15.6,15.8
				c0,0,0.1,0,0.1,0C513.2,216.3,520.2,209.3,520.2,200.7C520.2,200.7,520.2,200.7,520.2,200.7z M494.8,200.7c0-5.4,4.3-9.8,9.7-9.8
				c5.4,0,9.8,4.3,9.8,9.7c0,5.4-4.3,9.8-9.7,9.8c0,0,0,0-0.1,0C499.2,210.4,494.8,206.1,494.8,200.7
				C494.8,200.7,494.8,200.7,494.8,200.7z"/>
			<path class="st16" d="M504.5,210.4c5.3,0,9.7-4.4,9.6-9.7c0-5.3-4.4-9.7-9.7-9.6c-5.3,0-9.6,4.4-9.6,9.7
				C494.8,206.1,499.2,210.4,504.5,210.4C504.5,210.4,504.5,210.4,504.5,210.4z M495.6,200.7c0-4.9,3.9-8.9,8.8-9
				c4.9,0,8.9,3.9,9,8.8c0,4.9-3.9,8.9-8.8,9c0,0,0,0-0.1,0C499.6,209.6,495.7,205.6,495.6,200.7L495.6,200.7z"/>
			<ellipse class="st17" cx="504.5" cy="200.7" rx="8.9" ry="8.8"/>
			<path class="st13" d="M661.5,200.7c0-0.4,0-0.8,0-1.2c-0.6-12.5-11-22.4-23.7-22.4s-23.1,9.9-23.7,22.4c0,0.4,0,0.8,0,1.2
				c0,5.9,2.2,11.6,6.2,15.9c8.9,9.7,24,10.3,33.7,1.4c0.5-0.4,0.9-0.9,1.4-1.4C659.3,212.3,661.5,206.6,661.5,200.7L661.5,200.7z
				 M637.8,223.7c-12.8,0-23.1-10.3-23.1-23c0-12.7,10.3-23,23.1-23c12.8,0,23.1,10.3,23.1,23C660.9,213.4,650.6,223.7,637.8,223.7z
				"/>
			<path class="st14" d="M660.9,200.7c0-12.7-10.3-23-23.1-23c-12.8,0-23.1,10.3-23.1,23c0,12.7,10.3,23,23.1,23
				C650.6,223.7,660.9,213.4,660.9,200.7z M637.8,218c-9.5-0.1-17.2-7.8-17.2-17.4c0.1-9.5,7.8-17.2,17.4-17.2
				c9.5,0.1,17.2,7.8,17.2,17.3C655.1,210.3,647.4,218,637.8,218C637.8,218,637.8,218,637.8,218z"/>
			<path d="M655.2,200.7c0.1-9.6-7.7-17.4-17.3-17.5c-9.6-0.1-17.4,7.7-17.5,17.3c-0.1,9.6,7.7,17.4,17.3,17.5c0,0,0.1,0,0.1,0
				C647.4,218,655.1,210.3,655.2,200.7C655.2,200.7,655.2,200.7,655.2,200.7z M637.8,217.1c-9.1-0.1-16.4-7.5-16.3-16.5
				s7.5-16.4,16.5-16.3c9,0.1,16.3,7.4,16.3,16.4C654.3,209.8,646.9,217.2,637.8,217.1C637.8,217.1,637.8,217.1,637.8,217.1z"/>
			<path class="st3" d="M654.3,200.7c0.1-9.1-7.3-16.6-16.4-16.6s-16.6,7.3-16.6,16.4c-0.1,9.1,7.3,16.6,16.4,16.6c0,0,0.1,0,0.1,0
				C646.9,217.2,654.3,209.8,654.3,200.7C654.3,200.7,654.3,200.7,654.3,200.7z M637.8,216.3c-8.6-0.1-15.5-7.1-15.5-15.7
				c0.1-8.6,7.1-15.5,15.7-15.5c8.6,0.1,15.5,7,15.5,15.6C653.4,209.3,646.4,216.3,637.8,216.3z"/>
			<path class="st15" d="M653.5,200.7c0.1-8.7-6.9-15.7-15.6-15.8c-8.7-0.1-15.7,6.9-15.8,15.6c-0.1,8.7,6.9,15.7,15.6,15.8
				c0,0,0.1,0,0.1,0C646.4,216.3,653.4,209.4,653.5,200.7C653.5,200.7,653.5,200.7,653.5,200.7z M628.1,200.7c0-5.4,4.3-9.8,9.7-9.8
				c5.4,0,9.8,4.3,9.8,9.7c0,5.4-4.3,9.8-9.7,9.8c0,0,0,0-0.1,0C632.4,210.4,628.1,206.1,628.1,200.7z"/>
			<path class="st16" d="M647.5,200.7c0-5.4-4.3-9.8-9.7-9.8c-5.4,0-9.8,4.3-9.8,9.7c0,5.4,4.3,9.8,9.7,9.8c0,0,0,0,0.1,0
				C643.2,210.4,647.5,206.1,647.5,200.7C647.5,200.7,647.5,200.7,647.5,200.7z M628.9,200.7c0-4.9,3.9-8.9,8.8-9
				c4.9,0,8.9,3.9,9,8.8s-3.9,8.9-8.8,9c0,0-0.1,0-0.1,0C632.9,209.6,628.9,205.6,628.9,200.7L628.9,200.7z"/>
			<ellipse class="st17" cx="637.8" cy="200.7" rx="8.9" ry="8.8"/>
			<path class="st3" d="M580.7,167.2c7,0.8,13.3,1.6,18.1,2.2c-0.4-0.8-0.8-1.5-1.2-2.2H580.7z"/>
			
				<linearGradient id="SVGID_3_" gradientUnits="userSpaceOnUse" x1="545.8322" y1="83.7516" x2="598.9579" y2="83.7516" gradientTransform="matrix(1 0 0 -1 0 252)">
				<stop  offset="0" style="stop-color:#C9E7F9"/>
				<stop  offset="1" style="stop-color:#AAFFF9"/>
			</linearGradient>
			<path class="st18" d="M580.7,167.2c7,0.8,13.3,1.6,18.1,2.2c-0.4-0.8-0.8-1.5-1.2-2.2H580.7z"/>
			<path class="st10" d="M597.6,167.2C586,147,580,147.8,580,147.8s-16.3-0.4-21.5,0c-5.2,0.4-6.9,3.4-6.9,3.4l-5.2,7.3
				c0,0-3.4,4.3,5.2,5.1c2.5,0.2,9.2,1.1,16.8,2c4.2,0.5,8.3,1,12.2,1.5L597.6,167.2z"/>
			
				<linearGradient id="SVGID_4_" gradientUnits="userSpaceOnUse" x1="545.8312" y1="94.6003" x2="598.957" y2="94.6003" gradientTransform="matrix(1 0 0 -1 0 252)">
				<stop  offset="0" style="stop-color:#C9E7F9"/>
				<stop  offset="1" style="stop-color:#AAFFF9"/>
			</linearGradient>
			<path class="st19" d="M597.6,167.2C586,147,580,147.8,580,147.8s-16.3-0.4-21.5,0c-5.2,0.4-6.9,3.4-6.9,3.4l-5.2,7.3
				c0,0-3.4,4.3,5.2,5.1c2.5,0.2,9.2,1.1,16.8,2c4.2,0.5,8.3,1,12.2,1.5L597.6,167.2z"/>
			<path class="st3" d="M580,167.2c10.1,1.3,19,2.5,19,2.5l-0.2-0.3c-4.8-0.6-11-1.3-18.1-2.2H580z"/>
			<path class="st12" d="M580,167.2c10.1,1.3,19,2.5,19,2.5l-0.2-0.3c-4.8-0.6-11-1.3-18.1-2.2H580z"/>
			
				<linearGradient id="SVGID_5_" gradientUnits="userSpaceOnUse" x1="545.8322" y1="83.6183" x2="598.9579" y2="83.6183" gradientTransform="matrix(1 0 0 -1 0 252)">
				<stop  offset="0" style="stop-color:#C9E7F9"/>
				<stop  offset="1" style="stop-color:#AAFFF9"/>
			</linearGradient>
			<path class="st20" d="M580,167.2c10.1,1.3,19,2.5,19,2.5l-0.2-0.3c-4.8-0.6-11-1.3-18.1-2.2H580z"/>
			<path class="st10" d="M568.5,165.7c3.7,0.5,7.7,1,11.5,1.5h0.7C576.8,166.7,572.7,166.2,568.5,165.7z"/>
			<path class="st12" d="M568.5,165.7c3.7,0.5,7.7,1,11.5,1.5h0.7C576.8,166.7,572.7,166.2,568.5,165.7z"/>
			
				<linearGradient id="SVGID_6_" gradientUnits="userSpaceOnUse" x1="545.8322" y1="85.5846" x2="598.9579" y2="85.5846" gradientTransform="matrix(1 0 0 -1 0 252)">
				<stop  offset="0" style="stop-color:#C9E7F9"/>
				<stop  offset="1" style="stop-color:#AAFFF9"/>
			</linearGradient>
			<path class="st21" d="M568.5,165.7c3.7,0.5,7.7,1,11.5,1.5h0.7C576.8,166.7,572.7,166.2,568.5,165.7z"/>
			
				<linearGradient id="SVGID_7_" gradientUnits="userSpaceOnUse" x1="593.9426" y1="96.6676" x2="617.8724" y2="96.6676" gradientTransform="matrix(1 0 0 -1 0 252)">
				<stop  offset="0" style="stop-color:#C9E7F9"/>
				<stop  offset="1" style="stop-color:#AAFFF9"/>
			</linearGradient>
			<path class="st22" d="M617.4,162.8L617.4,162.8l0.5-0.1l-15.5-15C606.9,154.9,615.2,161.3,617.4,162.8z"/>
			<polygon class="st3" points="607,167.2 609,169.7 612.1,167.2 			"/>
			
				<linearGradient id="SVGID_8_" gradientUnits="userSpaceOnUse" x1="593.9426" y1="83.5926" x2="617.8724" y2="83.5926" gradientTransform="matrix(1 0 0 -1 0 252)">
				<stop  offset="0" style="stop-color:#C9E7F9"/>
				<stop  offset="1" style="stop-color:#AAFFF9"/>
			</linearGradient>
			<polygon class="st23" points="607,167.2 609,169.7 612.1,167.2 			"/>
			<path class="st10" d="M595.1,152.1l11.9,15.1h5.1l5.3-4.3c-2.1-1.6-10.5-8-15-15l-7.3,0.4C592.5,149.5,595.1,152.1,595.1,152.1z"
				/>
			
				<linearGradient id="SVGID_9_" gradientUnits="userSpaceOnUse" x1="593.9429" y1="94.5117" x2="617.8728" y2="94.5117" gradientTransform="matrix(1 0 0 -1 0 252)">
				<stop  offset="0" style="stop-color:#C9E7F9"/>
				<stop  offset="1" style="stop-color:#AAFFF9"/>
			</linearGradient>
			<path class="st24" d="M595.1,152.1l11.9,15.1h5.1l5.3-4.3c-2.1-1.6-10.5-8-15-15l-7.3,0.4C592.5,149.5,595.1,152.1,595.1,152.1z"
				/>
			<path class="st12" d="M617.6,163l-0.2-0.2l-0.1,0.1L617.6,163L617.6,163z"/>
			
				<linearGradient id="SVGID_10_" gradientUnits="userSpaceOnUse" x1="593.9426" y1="89.106" x2="617.8724" y2="89.106" gradientTransform="matrix(1 0 0 -1 0 252)">
				<stop  offset="0" style="stop-color:#C9E7F9"/>
				<stop  offset="1" style="stop-color:#AAFFF9"/>
			</linearGradient>
			<path class="st25" d="M617.6,163l-0.2-0.2l-0.1,0.1L617.6,163L617.6,163z"/>
			<polygon class="st3" points="609,169.7 609.3,170 612.7,167.2 612.1,167.2 			"/>
			<polygon class="st12" points="609,169.7 609.3,170 612.7,167.2 612.1,167.2 			"/>
			
				<linearGradient id="SVGID_11_" gradientUnits="userSpaceOnUse" x1="593.9426" y1="83.4046" x2="617.8724" y2="83.4046" gradientTransform="matrix(1 0 0 -1 0 252)">
				<stop  offset="0" style="stop-color:#C9E7F9"/>
				<stop  offset="1" style="stop-color:#AAFFF9"/>
			</linearGradient>
			<polygon class="st26" points="609,169.7 609.3,170 612.7,167.2 612.1,167.2 			"/>
			<polygon class="st10" points="617.6,163 617.9,162.8 617.4,162.8 			"/>
			<polygon class="st12" points="617.6,163 617.9,162.8 617.4,162.8 			"/>
			
				<linearGradient id="SVGID_12_" gradientUnits="userSpaceOnUse" x1="593.9426" y1="89.1236" x2="617.8724" y2="89.1236" gradientTransform="matrix(1 0 0 -1 0 252)">
				<stop  offset="0" style="stop-color:#C9E7F9"/>
				<stop  offset="1" style="stop-color:#AAFFF9"/>
			</linearGradient>
			<polygon class="st27" points="617.6,163 617.9,162.8 617.4,162.8 			"/>
			<path class="st10" d="M617.4,162.8l-5.3,4.3h0.6l4.9-4.1L617.4,162.8z"/>
			<path class="st12" d="M617.4,162.8l-5.3,4.3h0.6l4.9-4.1L617.4,162.8z"/>
			
				<linearGradient id="SVGID_13_" gradientUnits="userSpaceOnUse" x1="593.9426" y1="87.0047" x2="617.8724" y2="87.0047" gradientTransform="matrix(1 0 0 -1 0 252)">
				<stop  offset="0" style="stop-color:#C9E7F9"/>
				<stop  offset="1" style="stop-color:#AAFFF9"/>
			</linearGradient>
			<path class="st28" d="M617.4,162.8l-5.3,4.3h0.6l4.9-4.1L617.4,162.8z"/>
		</g>
	</g>
</g>
<g id="Layer_8">
	
		<linearGradient id="SVGID_14_" gradientUnits="userSpaceOnUse" x1="400" y1="148" x2="400" y2="398" gradientTransform="matrix(1 0 0 1 0 -148)">
		<stop  offset="0" style="stop-color:#666666"/>
		<stop  offset="1" style="stop-color:#333333"/>
	</linearGradient>
	<rect class="st29" width="800" height="250"/>
</g>
</svg>
